0, 0, Header, 0, 1, 480
1, 0, Start_track
1, 0, Title_t, "untitled"
1, 0, Time_signature, 4, 2, 24, 8
1, 0, Key_signature, 0, "major"
1, 0, Tempo, 666667
1, 0, Program_c, 0, 34
1, 0, Control_c, 0, 7, 110
1, 0, Control_c, 0, 10, 64
1, 0, Control_c, 0, 101, 0
1, 1, Control_c, 0, 100, 0
1, 2, Control_c, 0, 6, 12
1, 3, Control_c, 0, 38, 0
1, 3, Control_c, 1, 101, 0
1, 4, Control_c, 1, 100, 0
1, 5, Control_c, 1, 6, 12
1, 6, Control_c, 1, 38, 0
1, 6, Control_c, 2, 101, 0
1, 7, Control_c, 2, 100, 0
1, 8, Control_c, 2, 6, 12
1, 9, Control_c, 2, 38, 0
1, 9, Control_c, 3, 101, 0
1, 10, Control_c, 3, 100, 0
1, 11, Control_c, 3, 6, 12
1, 12, Control_c, 3, 38, 0
1, 12, Control_c, 4, 101, 0
1, 13, Control_c, 4, 100, 0
1, 14, Control_c, 4, 6, 12
1, 15, Control_c, 4, 38, 0
1, 15, Control_c, 5, 101, 0
1, 16, Control_c, 5, 100, 0
1, 17, Control_c, 5, 6, 12
1, 18, Control_c, 5, 38, 0
1, 18, Control_c, 6, 101, 0
1, 19, Control_c, 6, 100, 0
1, 20, Control_c, 6, 6, 12
1, 21, Control_c, 6, 38, 0
1, 21, Control_c, 7, 101, 0
1, 22, Control_c, 7, 100, 0
1, 23, Control_c, 7, 6, 12
1, 24, Control_c, 7, 38, 0
1, 24, Control_c, 8, 101, 0
1, 25, Control_c, 8, 100, 0
1, 26, Control_c, 8, 6, 12
1, 27, Control_c, 8, 38, 0
1, 27, Control_c, 9, 101, 0
1, 28, Control_c, 9, 100, 0
1, 29, Control_c, 9, 6, 12
1, 30, Control_c, 9, 38, 0
1, 30, Control_c, 10, 101, 0
1, 31, Control_c, 10, 100, 0
1, 32, Control_c, 10, 6, 12
1, 33, Control_c, 10, 38, 0
1, 33, Control_c, 11, 101, 0
1, 34, Control_c, 11, 100, 0
1, 35, Control_c, 11, 6, 12
1, 36, Control_c, 11, 38, 0
1, 36, Control_c, 12, 101, 0
1, 37, Control_c, 12, 100, 0
1, 38, Control_c, 12, 6, 12
1, 39, Control_c, 12, 38, 0
1, 39, Control_c, 13, 101, 0
1, 40, Control_c, 13, 100, 0
1, 41, Control_c, 13, 6, 12
1, 42, Control_c, 13, 38, 0
1, 42, Control_c, 14, 101, 0
1, 43, Control_c, 14, 100, 0
1, 44, Control_c, 14, 6, 12
1, 45, Control_c, 14, 38, 0
1, 45, Control_c, 6, 101, 0
1, 46, Control_c, 6, 100, 0
1, 47, Control_c, 6, 6, 12
1, 48, Control_c, 6, 38, 0
1, 48, Program_c, 0, 34
1, 48, Control_c, 0, 93, 0
1, 48, Control_c, 0, 91, 0
1, 48, Control_c, 0, 95, 0
1, 48, Control_c, 0, 92, 0
1, 48, Control_c, 0, 7, 110
1, 48, Control_c, 0, 10, 64
1, 48, Control_c, 0, 93, 0
1, 48, Control_c, 0, 91, 0
1, 48, Control_c, 0, 95, 0
1, 48, Control_c, 0, 92, 0
1, 48, Program_c, 0, 34
1, 48, Note_on_c, 0, 58, 95
1, 48, Program_c, 1, 33
1, 48, Control_c, 1, 7, 127
1, 48, Control_c, 1, 10, 64
1, 48, Program_c, 1, 33
1, 48, Control_c, 1, 93, 0
1, 48, Control_c, 1, 91, 0
1, 48, Control_c, 1, 95, 0
1, 48, Control_c, 1, 92, 0
1, 48, Control_c, 1, 7, 127
1, 48, Control_c, 1, 10, 64
1, 48, Control_c, 1, 93, 0
1, 48, Control_c, 1, 91, 0
1, 48, Control_c, 1, 95, 0
1, 48, Control_c, 1, 92, 0
1, 48, Program_c, 1, 33
1, 48, Program_c, 2, 10
1, 48, Control_c, 2, 7, 80
1, 48, Control_c, 2, 10, 64
1, 48, Program_c, 2, 10
1, 48, Control_c, 2, 93, 0
1, 48, Control_c, 2, 91, 0
1, 48, Control_c, 2, 95, 0
1, 48, Control_c, 2, 92, 0
1, 48, Control_c, 2, 7, 80
1, 48, Control_c, 2, 10, 64
1, 48, Control_c, 2, 93, 0
1, 48, Control_c, 2, 91, 0
1, 48, Control_c, 2, 95, 0
1, 48, Control_c, 2, 92, 0
1, 48, Program_c, 2, 10
1, 48, Program_c, 3, 54
1, 48, Control_c, 3, 7, 80
1, 48, Control_c, 3, 10, 64
1, 48, Program_c, 3, 54
1, 48, Control_c, 3, 93, 0
1, 48, Control_c, 3, 91, 0
1, 48, Control_c, 3, 95, 0
1, 48, Control_c, 3, 92, 0
1, 48, Control_c, 3, 7, 80
1, 48, Control_c, 3, 10, 64
1, 48, Control_c, 3, 93, 0
1, 48, Control_c, 3, 91, 0
1, 48, Control_c, 3, 95, 0
1, 48, Control_c, 3, 92, 0
1, 48, Program_c, 3, 54
1, 48, Program_c, 4, 48
1, 48, Control_c, 4, 7, 90
1, 48, Control_c, 4, 10, 127
1, 48, Program_c, 4, 48
1, 48, Control_c, 4, 93, 0
1, 48, Control_c, 4, 91, 0
1, 48, Control_c, 4, 95, 0
1, 48, Control_c, 4, 92, 0
1, 48, Control_c, 4, 7, 90
1, 48, Control_c, 4, 10, 127
1, 48, Control_c, 4, 93, 0
1, 48, Control_c, 4, 91, 0
1, 48, Control_c, 4, 95, 0
1, 48, Control_c, 4, 92, 0
1, 48, Program_c, 4, 48
1, 48, Program_c, 5, 122
1, 48, Control_c, 5, 7, 80
1, 48, Control_c, 5, 10, 64
1, 48, Control_c, 5, 93, 0
1, 48, Control_c, 5, 91, 0
1, 48, Control_c, 5, 95, 0
1, 48, Control_c, 5, 92, 0
1, 48, Control_c, 5, 7, 80
1, 48, Control_c, 5, 10, 64
1, 48, Control_c, 5, 93, 0
1, 48, Control_c, 5, 91, 0
1, 48, Control_c, 5, 95, 0
1, 48, Program_c, 6, 50
1, 48, Program_c, 7, 0
1, 48, Control_c, 7, 7, 110
1, 48, Control_c, 7, 10, 64
1, 48, Program_c, 7, 0
1, 48, Control_c, 7, 93, 0
1, 48, Control_c, 7, 91, 0
1, 48, Control_c, 7, 95, 0
1, 48, Control_c, 7, 92, 0
1, 48, Control_c, 7, 7, 110
1, 48, Control_c, 9, 0, 127
1, 48, Control_c, 9, 7, 127
1, 48, Control_c, 9, 10, 64
1, 48, Control_c, 9, 0, 127
1, 48, Control_c, 9, 93, 0
1, 48, Control_c, 9, 91, 0
1, 48, Control_c, 9, 95, 0
1, 48, Control_c, 9, 92, 0
1, 48, Control_c, 9, 32, 0
1, 48, Control_c, 9, 32, 0
1, 48, Control_c, 9, 0, 127
1, 48, Control_c, 9, 32, 0
1, 48, Control_c, 9, 0, 127
1, 48, Control_c, 9, 32, 0
1, 48, Control_c, 9, 0, 127
1, 48, Control_c, 9, 32, 0
1, 48, Program_c, 9, 0
1, 48, Control_c, 9, 0, 127
1, 48, Control_c, 9, 32, 0
1, 48, Program_c, 9, 0
1, 48, Program_c, 5, 122
1, 48, Program_c, 5, 122
1, 48, Program_c, 5, 122
1, 48, Program_c, 5, 122
1, 48, Control_c, 5, 92, 0
1, 48, Program_c, 5, 122
1, 48, Program_c, 5, 122
1, 48, Program_c, 5, 122
1, 48, Program_c, 5, 122
1, 48, Control_c, 6, 7, 70
1, 48, Control_c, 6, 10, 0
1, 48, Program_c, 6, 50
1, 48, Control_c, 6, 93, 0
1, 48, Control_c, 6, 91, 0
1, 48, Control_c, 6, 95, 0
1, 48, Control_c, 6, 92, 0
1, 48, Control_c, 7, 10, 64
1, 48, Control_c, 7, 93, 0
1, 48, Control_c, 7, 91, 0
1, 48, Control_c, 7, 95, 0
1, 48, Control_c, 7, 92, 0
1, 48, Program_c, 7, 0
1, 120, Note_on_c, 0, 58, 0
1, 120, Note_on_c, 0, 70, 95
1, 240, Note_on_c, 0, 70, 0
1, 240, Note_on_c, 0, 86, 95
1, 360, Note_on_c, 0, 86, 0
1, 360, Note_on_c, 0, 58, 95
1, 480, Note_on_c, 0, 58, 0
1, 480, Note_on_c, 0, 70, 95
1, 600, Note_on_c, 0, 70, 0
1, 600, Note_on_c, 0, 82, 95
1, 720, Note_on_c, 0, 82, 0
1, 840, Note_on_c, 0, 75, 95
1, 960, Note_on_c, 0, 75, 0
1, 960, Note_on_c, 0, 63, 95
1, 1080, Note_on_c, 0, 63, 0
1, 1080, Note_on_c, 0, 70, 95
1, 1200, Note_on_c, 0, 70, 0
1, 1200, Note_on_c, 0, 77, 95
1, 1320, Note_on_c, 0, 77, 0
1, 1320, Note_on_c, 0, 75, 95
1, 1440, Note_on_c, 0, 75, 0
1, 1440, Note_on_c, 0, 77, 95
1, 1560, Note_on_c, 0, 77, 0
1, 1560, Note_on_c, 0, 82, 95
1, 1680, Note_on_c, 0, 82, 0
1, 1800, Note_on_c, 0, 75, 95
1, 1920, Note_on_c, 0, 75, 0
1, 1920, Note_on_c, 0, 56, 95
1, 2040, Note_on_c, 0, 56, 0
1, 2040, Note_on_c, 0, 63, 95
1, 2160, Note_on_c, 0, 63, 0
1, 2160, Note_on_c, 0, 72, 95
1, 2280, Note_on_c, 0, 72, 0
1, 2280, Note_on_c, 0, 70, 95
1, 2400, Note_on_c, 0, 70, 0
1, 2400, Note_on_c, 0, 72, 95
1, 2520, Note_on_c, 0, 72, 0
1, 2520, Note_on_c, 0, 75, 95
1, 2640, Note_on_c, 0, 75, 0
1, 2640, Note_on_c, 0, 63, 95
1, 2760, Note_on_c, 0, 63, 0
1, 2760, Note_on_c, 0, 56, 95
1, 2880, Note_on_c, 0, 56, 0
1, 3000, Note_on_c, 0, 70, 95
1, 3120, Note_on_c, 0, 70, 0
1, 3120, Note_on_c, 0, 72, 95
1, 3240, Note_on_c, 0, 72, 0
1, 3240, Note_on_c, 0, 70, 95
1, 3360, Note_on_c, 0, 70, 0
1, 3360, Note_on_c, 0, 60, 95
1, 3480, Note_on_c, 0, 60, 0
1, 3480, Note_on_c, 0, 70, 95
1, 3600, Note_on_c, 0, 70, 0
1, 3600, Note_on_c, 0, 75, 95
1, 3720, Note_on_c, 0, 75, 0
1, 3720, Note_on_c, 0, 77, 95
1, 3840, Note_on_c, 0, 77, 0
1, 3840, Note_on_c, 0, 58, 95
1, 3960, Note_on_c, 0, 58, 0
1, 3960, Note_on_c, 0, 70, 95
1, 4080, Note_on_c, 0, 70, 0
1, 4080, Note_on_c, 0, 86, 95
1, 4200, Note_on_c, 0, 86, 0
1, 4200, Note_on_c, 0, 74, 95
1, 4320, Note_on_c, 0, 74, 0
1, 4320, Note_on_c, 0, 65, 95
1, 4440, Note_on_c, 0, 65, 0
1, 4440, Note_on_c, 0, 82, 95
1, 4560, Note_on_c, 0, 82, 0
1, 4680, Note_on_c, 0, 75, 95
1, 4800, Note_on_c, 0, 75, 0
1, 4800, Note_on_c, 0, 63, 95
1, 4920, Note_on_c, 0, 63, 0
1, 4920, Note_on_c, 0, 70, 95
1, 5040, Note_on_c, 0, 70, 0
1, 5040, Note_on_c, 0, 77, 95
1, 5160, Note_on_c, 0, 77, 0
1, 5160, Note_on_c, 0, 75, 95
1, 5280, Note_on_c, 0, 75, 0
1, 5280, Note_on_c, 0, 80, 95
1, 5340, Pitch_bend_c, 0, 7936
1, 5400, Note_on_c, 0, 80, 0
1, 5400, Pitch_bend_c, 0, 7552
1, 5400, Pitch_bend_c, 0, 8192
1, 5400, Note_on_c, 0, 79, 95
1, 5520, Note_on_c, 0, 79, 0
1, 5520, Note_on_c, 0, 75, 95
1, 5640, Note_on_c, 0, 75, 0
1, 5640, Note_on_c, 0, 70, 95
1, 5760, Note_on_c, 0, 70, 0
1, 5760, Note_on_c, 0, 56, 95
1, 6000, Note_on_c, 0, 56, 0
1, 6000, Note_on_c, 0, 72, 95
1, 6120, Note_on_c, 0, 72, 0
1, 6120, Note_on_c, 0, 63, 95
1, 6240, Note_on_c, 0, 63, 0
1, 6240, Note_on_c, 0, 56, 95
1, 6360, Note_on_c, 0, 56, 0
1, 6360, Note_on_c, 0, 70, 95
1, 6480, Note_on_c, 0, 70, 0
1, 6600, Note_on_c, 0, 63, 95
1, 6720, Note_on_c, 0, 63, 0
1, 6720, Note_on_c, 0, 72, 95
1, 6840, Note_on_c, 0, 72, 0
1, 6840, Note_on_c, 0, 56, 95
1, 6960, Note_on_c, 0, 56, 0
1, 6960, Note_on_c, 0, 72, 95
1, 7080, Note_on_c, 0, 72, 0
1, 7080, Note_on_c, 0, 70, 95
1, 7200, Note_on_c, 0, 70, 0
1, 7200, Note_on_c, 0, 60, 95
1, 7320, Note_on_c, 0, 60, 0
1, 7320, Note_on_c, 0, 75, 95
1, 7440, Note_on_c, 0, 75, 0
1, 7440, Note_on_c, 0, 77, 95
1, 7440, Note_on_c, 2, 75, 95
1, 7440, Note_on_c, 2, 63, 95
1, 7560, Note_on_c, 0, 77, 0
1, 7680, Note_on_c, 2, 63, 0
1, 7680, Note_on_c, 2, 75, 0
1, 7680, Note_on_c, 0, 58, 95
1, 7680, Note_on_c, 2, 74, 95
1, 7680, Note_on_c, 2, 62, 95
1, 7800, Note_on_c, 0, 58, 0
1, 7800, Note_on_c, 0, 70, 95
1, 7920, Note_on_c, 0, 70, 0
1, 7920, Note_on_c, 0, 86, 95
1, 8040, Note_on_c, 0, 86, 0
1, 8040, Note_on_c, 2, 62, 0
1, 8040, Note_on_c, 2, 74, 0
1, 8040, Note_on_c, 0, 58, 95
1, 8040, Note_on_c, 2, 70, 95
1, 8040, Note_on_c, 2, 58, 95
1, 8160, Note_on_c, 0, 58, 0
1, 8160, Note_on_c, 0, 70, 95
1, 8280, Note_on_c, 0, 70, 0
1, 8280, Note_on_c, 0, 82, 95
1, 8400, Note_on_c, 0, 82, 0
1, 8400, Note_on_c, 2, 58, 0
1, 8400, Note_on_c, 2, 70, 0
1, 8400, Note_on_c, 2, 75, 95
1, 8400, Note_on_c, 2, 63, 95
1, 8520, Note_on_c, 0, 75, 95
1, 8640, Note_on_c, 0, 75, 0
1, 8640, Note_on_c, 2, 63, 0
1, 8640, Note_on_c, 2, 75, 0
1, 8640, Note_on_c, 0, 63, 95
1, 8640, Note_on_c, 2, 74, 95
1, 8640, Note_on_c, 2, 62, 95
1, 8760, Note_on_c, 0, 63, 0
1, 8760, Note_on_c, 0, 70, 95
1, 8880, Note_on_c, 0, 70, 0
1, 8880, Note_on_c, 0, 77, 95
1, 9000, Note_on_c, 0, 77, 0
1, 9000, Note_on_c, 2, 62, 0
1, 9000, Note_on_c, 2, 74, 0
1, 9000, Note_on_c, 0, 75, 95
1, 9000, Note_on_c, 2, 70, 95
1, 9000, Note_on_c, 2, 58, 95
1, 9120, Note_on_c, 0, 75, 0
1, 9120, Note_on_c, 0, 77, 95
1, 9240, Note_on_c, 0, 77, 0
1, 9240, Note_on_c, 0, 82, 95
1, 9360, Note_on_c, 0, 82, 0
1, 9360, Note_on_c, 2, 58, 0
1, 9360, Note_on_c, 2, 70, 0
1, 9360, Note_on_c, 2, 72, 95
1, 9360, Note_on_c, 2, 60, 95
1, 9480, Note_on_c, 0, 75, 95
1, 9600, Note_on_c, 0, 75, 0
1, 9600, Note_on_c, 0, 56, 95
1, 9720, Note_on_c, 0, 56, 0
1, 9720, Note_on_c, 0, 63, 95
1, 9840, Note_on_c, 0, 63, 0
1, 9840, Note_on_c, 0, 72, 95
1, 9960, Note_on_c, 0, 72, 0
1, 9960, Note_on_c, 0, 70, 95
1, 10080, Note_on_c, 0, 70, 0
1, 10080, Note_on_c, 0, 72, 95
1, 10200, Note_on_c, 0, 72, 0
1, 10200, Note_on_c, 0, 75, 95
1, 10320, Note_on_c, 0, 75, 0
1, 10320, Note_on_c, 2, 60, 0
1, 10320, Note_on_c, 2, 72, 0
1, 10320, Note_on_c, 0, 63, 95
1, 10320, Note_on_c, 2, 70, 95
1, 10320, Note_on_c, 2, 58, 95
1, 10440, Note_on_c, 0, 63, 0
1, 10440, Note_on_c, 0, 56, 95
1, 10560, Note_on_c, 0, 56, 0
1, 10560, Note_on_c, 2, 58, 0
1, 10560, Note_on_c, 2, 70, 0
1, 10560, Note_on_c, 2, 72, 95
1, 10560, Note_on_c, 2, 60, 95
1, 10680, Note_on_c, 0, 70, 95
1, 10800, Note_on_c, 0, 70, 0
1, 10800, Note_on_c, 0, 72, 95
1, 10920, Note_on_c, 0, 72, 0
1, 10920, Note_on_c, 2, 60, 0
1, 10920, Note_on_c, 2, 72, 0
1, 10920, Note_on_c, 0, 70, 95
1, 10920, Note_on_c, 2, 75, 95
1, 10920, Note_on_c, 2, 63, 95
1, 11040, Note_on_c, 0, 70, 0
1, 11040, Note_on_c, 0, 60, 95
1, 11160, Note_on_c, 0, 60, 0
1, 11160, Note_on_c, 0, 70, 95
1, 11280, Note_on_c, 0, 70, 0
1, 11280, Note_on_c, 2, 63, 0
1, 11280, Note_on_c, 2, 75, 0
1, 11280, Note_on_c, 0, 75, 95
1, 11280, Note_on_c, 2, 77, 95
1, 11280, Note_on_c, 2, 65, 95
1, 11400, Note_on_c, 0, 75, 0
1, 11400, Note_on_c, 0, 77, 95
1, 11520, Note_on_c, 0, 77, 0
1, 11520, Note_on_c, 0, 58, 95
1, 11640, Note_on_c, 0, 58, 0
1, 11640, Note_on_c, 0, 70, 95
1, 11760, Note_on_c, 0, 70, 0
1, 11760, Note_on_c, 0, 86, 95
1, 11880, Note_on_c, 0, 86, 0
1, 11880, Note_on_c, 0, 74, 95
1, 12000, Note_on_c, 0, 74, 0
1, 12000, Note_on_c, 0, 65, 95
1, 12120, Note_on_c, 0, 65, 0
1, 12120, Note_on_c, 2, 65, 0
1, 12120, Note_on_c, 2, 77, 0
1, 12120, Note_on_c, 0, 82, 95
1, 12120, Note_on_c, 2, 70, 95
1, 12120, Note_on_c, 2, 58, 95
1, 12240, Note_on_c, 2, 58, 0
1, 12240, Note_on_c, 2, 70, 0
1, 12240, Note_on_c, 0, 82, 0
1, 12240, Note_on_c, 2, 70, 95
1, 12240, Note_on_c, 2, 58, 95
1, 12360, Note_on_c, 0, 75, 95
1, 12480, Note_on_c, 0, 75, 0
1, 12480, Note_on_c, 2, 58, 0
1, 12480, Note_on_c, 2, 70, 0
1, 12480, Note_on_c, 0, 63, 95
1, 12480, Note_on_c, 2, 79, 95
1, 12480, Note_on_c, 2, 67, 95
1, 12600, Note_on_c, 0, 63, 0
1, 12600, Note_on_c, 0, 70, 95
1, 12720, Note_on_c, 0, 70, 0
1, 12720, Note_on_c, 0, 77, 95
1, 12840, Note_on_c, 0, 77, 0
1, 12840, Note_on_c, 2, 67, 0
1, 12840, Note_on_c, 2, 79, 0
1, 12840, Note_on_c, 0, 75, 95
1, 12840, Note_on_c, 2, 77, 95
1, 12840, Note_on_c, 2, 65, 95
1, 12960, Note_on_c, 0, 75, 0
1, 12960, Note_on_c, 0, 80, 95
1, 13020, Pitch_bend_c, 0, 7936
1, 13080, Note_on_c, 0, 80, 0
1, 13080, Pitch_bend_c, 0, 7552
1, 13080, Pitch_bend_c, 0, 8192
1, 13080, Note_on_c, 0, 79, 95
1, 13200, Note_on_c, 0, 79, 0
1, 13200, Note_on_c, 2, 65, 0
1, 13200, Note_on_c, 2, 77, 0
1, 13200, Note_on_c, 0, 75, 95
1, 13200, Note_on_c, 2, 75, 95
1, 13200, Note_on_c, 2, 63, 95
1, 13320, Note_on_c, 0, 75, 0
1, 13320, Note_on_c, 0, 70, 95
1, 13440, Note_on_c, 0, 70, 0
1, 13440, Note_on_c, 0, 56, 95
1, 13680, Note_on_c, 0, 56, 0
1, 13680, Note_on_c, 0, 72, 95
1, 13800, Note_on_c, 0, 72, 0
1, 13800, Note_on_c, 0, 63, 95
1, 13920, Note_on_c, 0, 63, 0
1, 13920, Note_on_c, 0, 56, 95
1, 13920, Note_on_c, 5, 62, 95
1, 14040, Note_on_c, 0, 56, 0
1, 14040, Note_on_c, 0, 70, 95
1, 14160, Note_on_c, 0, 70, 0
1, 14280, Note_on_c, 0, 63, 95
1, 14400, Note_on_c, 0, 63, 0
1, 14400, Note_on_c, 0, 72, 95
1, 14520, Note_on_c, 0, 72, 0
1, 14520, Note_on_c, 0, 56, 95
1, 14640, Note_on_c, 0, 56, 0
1, 14640, Note_on_c, 0, 72, 95
1, 14760, Note_on_c, 0, 72, 0
1, 14760, Note_on_c, 0, 70, 95
1, 14880, Note_on_c, 0, 70, 0
1, 14880, Note_on_c, 0, 60, 95
1, 15000, Note_on_c, 0, 60, 0
1, 15000, Note_on_c, 0, 75, 95
1, 15120, Note_on_c, 0, 75, 0
1, 15120, Note_on_c, 0, 77, 95
1, 15240, Note_on_c, 0, 77, 0
1, 15360, Note_on_c, 5, 62, 0
1, 15360, Note_on_c, 2, 63, 0
1, 15360, Note_on_c, 2, 75, 0
1, 15360, Note_on_c, 0, 58, 95
1, 15360, Note_on_c, 1, 34, 95
1, 15360, Note_on_c, 9, 35, 95
1, 15480, Note_on_c, 0, 58, 0
1, 15480, Note_on_c, 0, 70, 95
1, 15600, Note_on_c, 0, 70, 0
1, 15600, Note_on_c, 0, 86, 95
1, 15600, Note_on_c, 3, 58, 95
1, 15720, Note_on_c, 3, 58, 0
1, 15720, Note_on_c, 1, 34, 0
1, 15720, Note_on_c, 9, 35, 0
1, 15720, Note_on_c, 0, 86, 0
1, 15720, Note_on_c, 0, 58, 95
1, 15720, Note_on_c, 1, 34, 95
1, 15720, Note_on_c, 3, 65, 95
1, 15720, Note_on_c, 9, 35, 95
1, 15840, Note_on_c, 9, 35, 0
1, 15840, Note_on_c, 0, 58, 0
1, 15840, Note_on_c, 0, 70, 95
1, 15840, Note_on_c, 9, 37, 95
1, 15960, Note_on_c, 0, 70, 0
1, 15960, Note_on_c, 1, 34, 0
1, 15960, Note_on_c, 3, 65, 0
1, 15960, Note_on_c, 0, 82, 95
1, 15960, Note_on_c, 3, 65, 95
1, 16080, Note_on_c, 0, 82, 0
1, 16200, Note_on_c, 3, 65, 0
1, 16200, Note_on_c, 9, 37, 0
1, 16200, Note_on_c, 0, 75, 95
1, 16200, Note_on_c, 3, 63, 95
1, 16320, Note_on_c, 3, 63, 0
1, 16320, Note_on_c, 0, 75, 0
1, 16320, Note_on_c, 0, 63, 95
1, 16320, Note_on_c, 3, 65, 95
1, 16440, Note_on_c, 0, 63, 0
1, 16440, Note_on_c, 0, 70, 95
1, 16560, Note_on_c, 0, 70, 0
1, 16560, Note_on_c, 3, 65, 0
1, 16560, Note_on_c, 0, 77, 95
1, 16560, Note_on_c, 1, 39, 95
1, 16560, Note_on_c, 3, 63, 95
1, 16560, Note_on_c, 9, 35, 95
1, 16680, Note_on_c, 0, 77, 0
1, 16680, Note_on_c, 0, 75, 95
1, 16800, Note_on_c, 0, 75, 0
1, 16800, Note_on_c, 9, 35, 0
1, 16800, Note_on_c, 3, 63, 0
1, 16800, Note_on_c, 1, 39, 0
1, 16800, Note_on_c, 0, 77, 95
1, 16800, Note_on_c, 3, 58, 95
1, 16800, Note_on_c, 9, 37, 95
1, 16920, Note_on_c, 0, 77, 0
1, 16920, Note_on_c, 0, 82, 95
1, 17040, Note_on_c, 0, 82, 0
1, 17040, Note_on_c, 9, 37, 0
1, 17040, Note_on_c, 3, 58, 0
1, 17160, Note_on_c, 0, 75, 95
1, 17280, Note_on_c, 0, 75, 0
1, 17280, Note_on_c, 0, 56, 95
1, 17280, Note_on_c, 1, 32, 95
1, 17280, Note_on_c, 9, 35, 95
1, 17400, Note_on_c, 0, 56, 0
1, 17400, Note_on_c, 0, 63, 95
1, 17520, Note_on_c, 0, 63, 0
1, 17520, Note_on_c, 0, 72, 95
1, 17520, Note_on_c, 3, 58, 95
1, 17640, Note_on_c, 3, 58, 0
1, 17640, Note_on_c, 1, 32, 0
1, 17640, Note_on_c, 9, 35, 0
1, 17640, Note_on_c, 0, 72, 0
1, 17640, Note_on_c, 0, 70, 95
1, 17640, Note_on_c, 1, 32, 95
1, 17640, Note_on_c, 3, 60, 95
1, 17640, Note_on_c, 9, 35, 95
1, 17760, Note_on_c, 9, 35, 0
1, 17760, Note_on_c, 0, 70, 0
1, 17760, Note_on_c, 0, 72, 95
1, 17760, Note_on_c, 9, 37, 95
1, 17880, Note_on_c, 0, 72, 0
1, 17880, Note_on_c, 1, 32, 0
1, 17880, Note_on_c, 3, 60, 0
1, 17880, Note_on_c, 0, 75, 95
1, 17880, Note_on_c, 3, 60, 95
1, 18000, Note_on_c, 0, 75, 0
1, 18000, Note_on_c, 9, 37, 0
1, 18000, Note_on_c, 0, 63, 95
1, 18000, Note_on_c, 1, 32, 95
1, 18000, Note_on_c, 9, 35, 95
1, 18120, Note_on_c, 0, 63, 0
1, 18120, Note_on_c, 3, 60, 0
1, 18120, Note_on_c, 0, 56, 95
1, 18120, Note_on_c, 3, 58, 95
1, 18240, Note_on_c, 3, 58, 0
1, 18240, Note_on_c, 9, 35, 0
1, 18240, Note_on_c, 1, 32, 0
1, 18240, Note_on_c, 0, 56, 0
1, 18240, Note_on_c, 3, 60, 95
1, 18360, Note_on_c, 0, 70, 95
1, 18480, Note_on_c, 0, 70, 0
1, 18480, Note_on_c, 3, 60, 0
1, 18480, Note_on_c, 0, 72, 95
1, 18480, Note_on_c, 1, 32, 95
1, 18480, Note_on_c, 3, 63, 95
1, 18480, Note_on_c, 9, 35, 95
1, 18600, Note_on_c, 0, 72, 0
1, 18600, Note_on_c, 0, 70, 95
1, 18720, Note_on_c, 0, 70, 0
1, 18720, Note_on_c, 9, 35, 0
1, 18720, Note_on_c, 3, 63, 0
1, 18720, Note_on_c, 1, 32, 0
1, 18720, Note_on_c, 0, 60, 95
1, 18720, Note_on_c, 3, 65, 95
1, 18720, Note_on_c, 9, 37, 95
1, 18840, Note_on_c, 0, 60, 0
1, 18840, Note_on_c, 0, 70, 95
1, 18960, Note_on_c, 0, 70, 0
1, 18960, Note_on_c, 0, 75, 95
1, 19080, Note_on_c, 0, 75, 0
1, 19080, Note_on_c, 9, 37, 0
1, 19080, Note_on_c, 0, 77, 95
1, 19080, Note_on_c, 1, 32, 95
1, 19080, Note_on_c, 9, 35, 95
1, 19200, Note_on_c, 9, 35, 0
1, 19200, Note_on_c, 3, 65, 0
1, 19200, Note_on_c, 0, 77, 0
1, 19200, Note_on_c, 1, 32, 0
1, 19200, Note_on_c, 0, 58, 95
1, 19200, Note_on_c, 1, 34, 95
1, 19200, Note_on_c, 9, 35, 95
1, 19320, Note_on_c, 0, 58, 0
1, 19320, Note_on_c, 0, 70, 95
1, 19440, Note_on_c, 0, 70, 0
1, 19440, Note_on_c, 0, 86, 95
1, 19440, Note_on_c, 3, 67, 95
1, 19560, Note_on_c, 0, 86, 0
1, 19560, Note_on_c, 1, 34, 0
1, 19560, Note_on_c, 9, 35, 0
1, 19560, Note_on_c, 0, 74, 95
1, 19560, Note_on_c, 1, 46, 95
1, 19560, Note_on_c, 9, 35, 95
1, 19680, Note_on_c, 9, 35, 0
1, 19680, Note_on_c, 3, 67, 0
1, 19680, Note_on_c, 0, 74, 0
1, 19680, Note_on_c, 0, 65, 95
1, 19680, Note_on_c, 3, 65, 95
1, 19680, Note_on_c, 9, 37, 95
1, 19800, Note_on_c, 0, 65, 0
1, 19800, Note_on_c, 1, 46, 0
1, 19800, Note_on_c, 0, 82, 95
1, 19920, Note_on_c, 0, 82, 0
1, 19920, Note_on_c, 3, 65, 0
1, 19920, Note_on_c, 3, 63, 95
1, 20040, Note_on_c, 3, 63, 0
1, 20040, Note_on_c, 9, 37, 0
1, 20040, Note_on_c, 0, 75, 95
1, 20040, Note_on_c, 3, 58, 95
1, 20160, Note_on_c, 0, 75, 0
1, 20160, Note_on_c, 0, 63, 95
1, 20280, Note_on_c, 0, 63, 0
1, 20280, Note_on_c, 3, 58, 0
1, 20280, Note_on_c, 0, 70, 95
1, 20280, Note_on_c, 3, 58, 95
1, 20400, Note_on_c, 3, 58, 0
1, 20400, Note_on_c, 0, 70, 0
1, 20400, Note_on_c, 0, 77, 95
1, 20400, Note_on_c, 1, 39, 95
1, 20400, Note_on_c, 3, 58, 95
1, 20400, Note_on_c, 9, 35, 95
1, 20520, Note_on_c, 0, 77, 0
1, 20520, Note_on_c, 0, 75, 95
1, 20640, Note_on_c, 0, 75, 0
1, 20640, Note_on_c, 9, 35, 0
1, 20640, Note_on_c, 3, 58, 0
1, 20640, Note_on_c, 1, 39, 0
1, 20640, Note_on_c, 0, 80, 95
1, 20640, Note_on_c, 3, 65, 95
1, 20640, Note_on_c, 9, 37, 95
1, 20700, Pitch_bend_c, 0, 7936
1, 20760, Note_on_c, 9, 37, 0
1, 20760, Note_on_c, 3, 65, 0
1, 20760, Note_on_c, 0, 80, 0
1, 20760, Pitch_bend_c, 0, 7552
1, 20760, Pitch_bend_c, 0, 8192
1, 20760, Note_on_c, 0, 79, 95
1, 20760, Note_on_c, 1, 51, 95
1, 20760, Note_on_c, 3, 63, 95
1, 20760, Note_on_c, 9, 35, 95
1, 20880, Note_on_c, 9, 35, 0
1, 20880, Note_on_c, 0, 79, 0
1, 20880, Note_on_c, 0, 75, 95
1, 21000, Note_on_c, 0, 75, 0
1, 21000, Note_on_c, 3, 63, 0
1, 21000, Note_on_c, 1, 51, 0
1, 21000, Note_on_c, 0, 70, 95
1, 21000, Note_on_c, 3, 60, 95
1, 21120, Note_on_c, 0, 70, 0
1, 21120, Note_on_c, 0, 56, 95
1, 21120, Note_on_c, 1, 32, 95
1, 21120, Note_on_c, 9, 35, 95
1, 21360, Note_on_c, 0, 56, 0
1, 21360, Note_on_c, 0, 72, 95
1, 21480, Note_on_c, 0, 72, 0
1, 21480, Note_on_c, 9, 35, 0
1, 21480, Note_on_c, 1, 32, 0
1, 21480, Note_on_c, 0, 63, 95
1, 21480, Note_on_c, 1, 32, 95
1, 21480, Note_on_c, 9, 35, 95
1, 21600, Note_on_c, 9, 35, 0
1, 21600, Note_on_c, 0, 63, 0
1, 21600, Note_on_c, 0, 56, 95
1, 21600, Note_on_c, 9, 37, 95
1, 21720, Note_on_c, 0, 56, 0
1, 21720, Note_on_c, 1, 32, 0
1, 21720, Note_on_c, 0, 70, 95
1, 21840, Note_on_c, 0, 70, 0
1, 21840, Note_on_c, 9, 37, 0
1, 21960, Note_on_c, 0, 63, 95
1, 21960, Note_on_c, 1, 32, 95
1, 21960, Note_on_c, 9, 35, 95
1, 22080, Note_on_c, 9, 35, 0
1, 22080, Note_on_c, 3, 60, 0
1, 22080, Note_on_c, 0, 63, 0
1, 22080, Note_on_c, 1, 32, 0
1, 22080, Note_on_c, 0, 72, 95
1, 22200, Note_on_c, 0, 72, 0
1, 22200, Note_on_c, 0, 56, 95
1, 22200, Note_on_c, 1, 39, 95
1, 22200, Note_on_c, 9, 35, 95
1, 22320, Note_on_c, 9, 35, 0
1, 22320, Note_on_c, 1, 39, 0
1, 22320, Note_on_c, 0, 56, 0
1, 22320, Note_on_c, 0, 72, 95
1, 22320, Note_on_c, 1, 32, 95
1, 22320, Note_on_c, 9, 35, 95
1, 22440, Note_on_c, 0, 72, 0
1, 22440, Note_on_c, 0, 70, 95
1, 22560, Note_on_c, 0, 70, 0
1, 22560, Note_on_c, 9, 35, 0
1, 22560, Note_on_c, 1, 32, 0
1, 22560, Note_on_c, 0, 60, 95
1, 22560, Note_on_c, 9, 37, 95
1, 22680, Note_on_c, 0, 60, 0
1, 22680, Note_on_c, 0, 75, 95
1, 22800, Note_on_c, 0, 75, 0
1, 22800, Note_on_c, 9, 37, 0
1, 22800, Note_on_c, 0, 77, 95
1, 22800, Note_on_c, 1, 36, 95
1, 22800, Note_on_c, 9, 35, 95
1, 22920, Note_on_c, 0, 77, 0
1, 23040, Note_on_c, 9, 35, 0
1, 23040, Note_on_c, 1, 36, 0
1, 23040, Note_on_c, 0, 58, 95
1, 23040, Note_on_c, 1, 34, 95
1, 23040, Note_on_c, 9, 35, 95
1, 23160, Note_on_c, 0, 58, 0
1, 23160, Note_on_c, 0, 70, 95
1, 23280, Note_on_c, 0, 70, 0
1, 23280, Note_on_c, 0, 86, 95
1, 23280, Note_on_c, 3, 58, 95
1, 23400, Note_on_c, 3, 58, 0
1, 23400, Note_on_c, 1, 34, 0
1, 23400, Note_on_c, 9, 35, 0
1, 23400, Note_on_c, 0, 86, 0
1, 23400, Note_on_c, 0, 58, 95
1, 23400, Note_on_c, 1, 34, 95
1, 23400, Note_on_c, 3, 65, 95
1, 23400, Note_on_c, 9, 35, 95
1, 23520, Note_on_c, 9, 35, 0
1, 23520, Note_on_c, 0, 58, 0
1, 23520, Note_on_c, 0, 70, 95
1, 23520, Note_on_c, 9, 37, 95
1, 23640, Note_on_c, 0, 70, 0
1, 23640, Note_on_c, 1, 34, 0
1, 23640, Note_on_c, 3, 65, 0
1, 23640, Note_on_c, 0, 82, 95
1, 23640, Note_on_c, 3, 65, 95
1, 23760, Note_on_c, 0, 82, 0
1, 23880, Note_on_c, 3, 65, 0
1, 23880, Note_on_c, 9, 37, 0
1, 23880, Note_on_c, 0, 75, 95
1, 23880, Note_on_c, 3, 63, 95
1, 24000, Note_on_c, 3, 63, 0
1, 24000, Note_on_c, 0, 75, 0
1, 24000, Note_on_c, 0, 63, 95
1, 24000, Note_on_c, 3, 65, 95
1, 24120, Note_on_c, 0, 63, 0
1, 24120, Note_on_c, 0, 70, 95
1, 24240, Note_on_c, 0, 70, 0
1, 24240, Note_on_c, 3, 65, 0
1, 24240, Note_on_c, 0, 77, 95
1, 24240, Note_on_c, 1, 39, 95
1, 24240, Note_on_c, 3, 63, 95
1, 24240, Note_on_c, 9, 35, 95
1, 24360, Note_on_c, 0, 77, 0
1, 24360, Note_on_c, 0, 75, 95
1, 24480, Note_on_c, 0, 75, 0
1, 24480, Note_on_c, 9, 35, 0
1, 24480, Note_on_c, 3, 63, 0
1, 24480, Note_on_c, 1, 39, 0
1, 24480, Note_on_c, 0, 77, 95
1, 24480, Note_on_c, 3, 58, 95
1, 24480, Note_on_c, 9, 37, 95
1, 24600, Note_on_c, 0, 77, 0
1, 24600, Note_on_c, 0, 82, 95
1, 24720, Note_on_c, 0, 82, 0
1, 24720, Note_on_c, 9, 37, 0
1, 24720, Note_on_c, 3, 58, 0
1, 24840, Note_on_c, 0, 75, 95
1, 24960, Note_on_c, 0, 75, 0
1, 24960, Note_on_c, 0, 56, 95
1, 24960, Note_on_c, 1, 32, 95
1, 24960, Note_on_c, 9, 35, 95
1, 25080, Note_on_c, 0, 56, 0
1, 25080, Note_on_c, 0, 63, 95
1, 25200, Note_on_c, 0, 63, 0
1, 25200, Note_on_c, 0, 72, 95
1, 25200, Note_on_c, 3, 60, 95
1, 25320, Note_on_c, 0, 72, 0
1, 25320, Note_on_c, 1, 32, 0
1, 25320, Note_on_c, 9, 35, 0
1, 25320, Note_on_c, 0, 70, 95
1, 25320, Note_on_c, 1, 32, 95
1, 25320, Note_on_c, 9, 35, 95
1, 25440, Note_on_c, 9, 35, 0
1, 25440, Note_on_c, 3, 60, 0
1, 25440, Note_on_c, 0, 70, 0
1, 25440, Note_on_c, 0, 72, 95
1, 25440, Note_on_c, 3, 60, 95
1, 25440, Note_on_c, 9, 37, 95
1, 25560, Note_on_c, 0, 72, 0
1, 25560, Note_on_c, 1, 32, 0
1, 25560, Note_on_c, 0, 75, 95
1, 25680, Note_on_c, 0, 75, 0
1, 25680, Note_on_c, 3, 60, 0
1, 25680, Note_on_c, 9, 37, 0
1, 25680, Note_on_c, 0, 63, 95
1, 25680, Note_on_c, 1, 32, 95
1, 25680, Note_on_c, 3, 58, 95
1, 25680, Note_on_c, 9, 35, 95
1, 25800, Note_on_c, 0, 63, 0
1, 25800, Note_on_c, 0, 56, 95
1, 25920, Note_on_c, 0, 56, 0
1, 25920, Note_on_c, 9, 35, 0
1, 25920, Note_on_c, 3, 58, 0
1, 25920, Note_on_c, 1, 32, 0
1, 25920, Note_on_c, 3, 60, 95
1, 26040, Note_on_c, 3, 60, 0
1, 26040, Note_on_c, 0, 70, 95
1, 26040, Note_on_c, 3, 63, 95
1, 26160, Note_on_c, 0, 70, 0
1, 26160, Note_on_c, 0, 72, 95
1, 26160, Note_on_c, 1, 32, 95
1, 26160, Note_on_c, 9, 35, 95
1, 26280, Note_on_c, 0, 72, 0
1, 26280, Note_on_c, 3, 63, 0
1, 26280, Note_on_c, 0, 70, 95
1, 26280, Note_on_c, 3, 65, 95
1, 26400, Note_on_c, 0, 70, 0
1, 26400, Note_on_c, 9, 35, 0
1, 26400, Note_on_c, 1, 32, 0
1, 26400, Note_on_c, 0, 60, 95
1, 26400, Note_on_c, 9, 37, 95
1, 26520, Note_on_c, 0, 60, 0
1, 26520, Note_on_c, 0, 70, 95
1, 26640, Note_on_c, 0, 70, 0
1, 26640, Note_on_c, 3, 65, 0
1, 26640, Note_on_c, 0, 75, 95
1, 26640, Note_on_c, 3, 58, 95
1, 26760, Note_on_c, 3, 58, 0
1, 26760, Note_on_c, 0, 75, 0
1, 26760, Note_on_c, 9, 37, 0
1, 26760, Note_on_c, 0, 77, 95
1, 26760, Note_on_c, 1, 36, 95
1, 26760, Note_on_c, 3, 58, 95
1, 26760, Note_on_c, 9, 35, 95
1, 26880, Note_on_c, 9, 35, 0
1, 26880, Note_on_c, 0, 77, 0
1, 26880, Note_on_c, 1, 36, 0
1, 26880, Note_on_c, 0, 58, 95
1, 26880, Note_on_c, 1, 34, 95
1, 26880, Note_on_c, 9, 35, 95
1, 27000, Note_on_c, 0, 58, 0
1, 27000, Note_on_c, 3, 58, 0
1, 27000, Note_on_c, 0, 70, 95
1, 27000, Note_on_c, 3, 67, 95
1, 27120, Note_on_c, 0, 70, 0
1, 27120, Note_on_c, 0, 86, 95
1, 27240, Note_on_c, 0, 86, 0
1, 27240, Note_on_c, 9, 35, 0
1, 27240, Note_on_c, 1, 34, 0
1, 27240, Note_on_c, 0, 74, 95
1, 27240, Note_on_c, 1, 46, 95
1, 27240, Note_on_c, 9, 35, 95
1, 27360, Note_on_c, 9, 35, 0
1, 27360, Note_on_c, 3, 67, 0
1, 27360, Note_on_c, 0, 74, 0
1, 27360, Note_on_c, 0, 65, 95
1, 27360, Note_on_c, 3, 65, 95
1, 27360, Note_on_c, 9, 37, 95
1, 27480, Note_on_c, 0, 65, 0
1, 27480, Note_on_c, 1, 46, 0
1, 27480, Note_on_c, 0, 82, 95
1, 27600, Note_on_c, 0, 82, 0
1, 27600, Note_on_c, 3, 65, 0
1, 27600, Note_on_c, 3, 63, 95
1, 27720, Note_on_c, 3, 63, 0
1, 27720, Note_on_c, 9, 37, 0
1, 27720, Note_on_c, 0, 75, 95
1, 27720, Note_on_c, 3, 58, 95
1, 27840, Note_on_c, 0, 75, 0
1, 27840, Note_on_c, 0, 63, 95
1, 27960, Note_on_c, 0, 63, 0
1, 27960, Note_on_c, 3, 58, 0
1, 27960, Note_on_c, 0, 70, 95
1, 27960, Note_on_c, 3, 58, 95
1, 28080, Note_on_c, 3, 58, 0
1, 28080, Note_on_c, 0, 70, 0
1, 28080, Note_on_c, 0, 77, 95
1, 28080, Note_on_c, 1, 39, 95
1, 28080, Note_on_c, 3, 67, 95
1, 28080, Note_on_c, 9, 35, 95
1, 28200, Note_on_c, 0, 77, 0
1, 28200, Note_on_c, 0, 75, 95
1, 28320, Note_on_c, 0, 75, 0
1, 28320, Note_on_c, 9, 35, 0
1, 28320, Note_on_c, 3, 67, 0
1, 28320, Note_on_c, 1, 39, 0
1, 28320, Note_on_c, 0, 80, 95
1, 28320, Note_on_c, 3, 65, 95
1, 28320, Note_on_c, 9, 37, 95
1, 28380, Pitch_bend_c, 0, 7936
1, 28440, Note_on_c, 9, 37, 0
1, 28440, Note_on_c, 0, 80, 0
1, 28440, Pitch_bend_c, 0, 7552
1, 28440, Pitch_bend_c, 0, 8192
1, 28440, Note_on_c, 0, 79, 95
1, 28440, Note_on_c, 1, 46, 95
1, 28440, Note_on_c, 9, 35, 95
1, 28560, Note_on_c, 9, 35, 0
1, 28560, Note_on_c, 3, 65, 0
1, 28560, Note_on_c, 0, 79, 0
1, 28560, Note_on_c, 0, 75, 95
1, 28560, Note_on_c, 3, 60, 95
1, 28680, Note_on_c, 0, 75, 0
1, 28680, Note_on_c, 1, 46, 0
1, 28680, Note_on_c, 0, 70, 95
1, 28800, Note_on_c, 0, 70, 0
1, 28800, Note_on_c, 3, 60, 0
1, 28800, Note_on_c, 0, 56, 95
1, 28800, Note_on_c, 1, 32, 95
1, 28800, Note_on_c, 9, 35, 95
1, 29040, Note_on_c, 0, 56, 0
1, 29040, Note_on_c, 0, 72, 95
1, 29160, Note_on_c, 0, 72, 0
1, 29160, Note_on_c, 0, 63, 95
1, 29280, Note_on_c, 0, 63, 0
1, 29280, Note_on_c, 9, 35, 0
1, 29280, Note_on_c, 1, 32, 0
1, 29280, Note_on_c, 0, 56, 95
1, 29280, Note_on_c, 3, 63, 95
1, 29400, Note_on_c, 0, 56, 0
1, 29400, Note_on_c, 0, 70, 95
1, 29520, Note_on_c, 0, 70, 0
1, 29640, Note_on_c, 0, 63, 95
1, 29760, Note_on_c, 0, 63, 0
1, 29760, Note_on_c, 0, 72, 95
1, 29880, Note_on_c, 0, 72, 0
1, 29880, Note_on_c, 0, 56, 95
1, 30000, Note_on_c, 0, 56, 0
1, 30000, Note_on_c, 0, 72, 95
1, 30120, Note_on_c, 0, 72, 0
1, 30120, Note_on_c, 0, 70, 95
1, 30120, Note_on_c, 1, 32, 95
1, 30120, Note_on_c, 4, 67, 95
1, 30120, Note_on_c, 9, 42, 95
1, 30120, Note_on_c, 9, 35, 95
1, 30240, Note_on_c, 9, 35, 0
1, 30240, Note_on_c, 0, 70, 0
1, 30240, Note_on_c, 1, 32, 0
1, 30240, Note_on_c, 3, 63, 0
1, 30240, Note_on_c, 9, 42, 0
1, 30240, Note_on_c, 4, 67, 0
1, 30240, Note_on_c, 0, 60, 95
1, 30240, Note_on_c, 9, 42, 95
1, 30360, Note_on_c, 9, 42, 0
1, 30360, Note_on_c, 0, 60, 0
1, 30360, Note_on_c, 0, 75, 95
1, 30360, Note_on_c, 1, 32, 95
1, 30360, Note_on_c, 9, 35, 95
1, 30480, Note_on_c, 9, 35, 0
1, 30480, Note_on_c, 1, 32, 0
1, 30480, Note_on_c, 0, 75, 0
1, 30480, Note_on_c, 0, 77, 95
1, 30480, Note_on_c, 1, 44, 95
1, 30480, Note_on_c, 4, 65, 95
1, 30480, Note_on_c, 9, 35, 95
1, 30600, Note_on_c, 9, 35, 0
1, 30600, Note_on_c, 0, 77, 0
1, 30600, Note_on_c, 1, 44, 0
1, 30600, Note_on_c, 4, 65, 0
1, 30600, Note_on_c, 1, 46, 95
1, 30600, Note_on_c, 9, 42, 95
1, 30720, Note_on_c, 9, 42, 0
1, 30720, Note_on_c, 1, 46, 0
1, 30720, Note_on_c, 7, 63, 95
1, 30720, Note_on_c, 7, 56, 95
1, 30720, Note_on_c, 7, 44, 95
1, 30720, Note_on_c, 9, 35, 95
1, 30960, Note_on_c, 9, 35, 0
1, 30960, Note_on_c, 3, 67, 95
1, 30960, Note_on_c, 3, 55, 95
1, 30960, Note_on_c, 9, 39, 95
1, 31200, Note_on_c, 9, 39, 0
1, 31200, Note_on_c, 3, 67, 0
1, 31200, Note_on_c, 3, 55, 0
1, 31200, Note_on_c, 3, 65, 95
1, 31200, Note_on_c, 3, 53, 95
1, 31200, Note_on_c, 9, 28, 95
1, 31440, Note_on_c, 9, 28, 0
1, 31440, Note_on_c, 3, 65, 0
1, 31440, Note_on_c, 3, 53, 0
1, 31440, Note_on_c, 3, 63, 95
1, 31440, Note_on_c, 3, 51, 95
1, 31560, Note_on_c, 3, 51, 0
1, 31560, Note_on_c, 3, 63, 0
1, 31560, Note_on_c, 3, 70, 95
1, 31560, Note_on_c, 3, 58, 95
1, 31560, Note_on_c, 9, 35, 95
1, 31680, Note_on_c, 9, 35, 0
1, 31680, Note_on_c, 7, 44, 0
1, 31680, Note_on_c, 7, 56, 0
1, 31680, Note_on_c, 7, 63, 0
1, 31680, Note_on_c, 7, 63, 95
1, 31680, Note_on_c, 7, 55, 95
1, 31680, Note_on_c, 7, 43, 95
1, 31680, Note_on_c, 9, 35, 95
1, 31800, Note_on_c, 3, 70, 0
1, 31800, Note_on_c, 3, 58, 0
1, 31800, Note_on_c, 3, 67, 95
1, 31800, Note_on_c, 3, 55, 95
1, 31920, Note_on_c, 9, 35, 0
1, 31920, Note_on_c, 9, 39, 95
1, 32160, Note_on_c, 9, 39, 0
1, 32160, Note_on_c, 3, 55, 0
1, 32160, Note_on_c, 3, 67, 0
1, 32160, Note_on_c, 3, 65, 95
1, 32160, Note_on_c, 3, 53, 95
1, 32160, Note_on_c, 9, 28, 95
1, 32400, Note_on_c, 9, 28, 0
1, 32400, Note_on_c, 3, 65, 0
1, 32400, Note_on_c, 3, 53, 0
1, 32400, Note_on_c, 3, 63, 95
1, 32400, Note_on_c, 3, 51, 95
1, 32520, Note_on_c, 3, 51, 0
1, 32520, Note_on_c, 3, 63, 0
1, 32520, Note_on_c, 3, 65, 95
1, 32520, Note_on_c, 3, 53, 95
1, 32640, Note_on_c, 7, 63, 0
1, 32640, Note_on_c, 7, 43, 0
1, 32640, Note_on_c, 7, 55, 0
1, 32640, Note_on_c, 7, 63, 95
1, 32640, Note_on_c, 7, 58, 95
1, 32640, Note_on_c, 7, 46, 95
1, 32640, Note_on_c, 9, 35, 95
1, 32880, Note_on_c, 9, 35, 0
1, 32880, Note_on_c, 9, 39, 95
1, 33120, Note_on_c, 9, 39, 0
1, 33120, Note_on_c, 9, 28, 95
1, 33360, Note_on_c, 9, 28, 0
1, 33480, Note_on_c, 9, 35, 95
1, 33600, Note_on_c, 9, 35, 0
1, 33600, Note_on_c, 3, 65, 0
1, 33600, Note_on_c, 3, 53, 0
1, 33720, Note_on_c, 9, 35, 95
1, 33840, Note_on_c, 9, 35, 0
1, 33840, Note_on_c, 3, 58, 95
1, 33840, Note_on_c, 3, 46, 95
1, 33840, Note_on_c, 9, 35, 95
1, 34080, Note_on_c, 9, 35, 0
1, 34080, Note_on_c, 3, 58, 0
1, 34080, Note_on_c, 3, 46, 0
1, 34080, Note_on_c, 3, 63, 95
1, 34080, Note_on_c, 3, 51, 95
1, 34080, Note_on_c, 9, 28, 95
1, 34320, Note_on_c, 9, 28, 0
1, 34320, Note_on_c, 3, 63, 0
1, 34320, Note_on_c, 3, 51, 0
1, 34320, Note_on_c, 3, 62, 95
1, 34320, Note_on_c, 3, 50, 95
1, 34440, Note_on_c, 3, 50, 0
1, 34440, Note_on_c, 3, 62, 0
1, 34440, Note_on_c, 3, 60, 95
1, 34440, Note_on_c, 3, 48, 95
1, 34560, Note_on_c, 7, 63, 0
1, 34560, Note_on_c, 7, 46, 0
1, 34560, Note_on_c, 7, 58, 0
1, 34560, Note_on_c, 7, 63, 95
1, 34560, Note_on_c, 7, 56, 95
1, 34560, Note_on_c, 7, 44, 95
1, 34560, Note_on_c, 9, 35, 95
1, 34800, Note_on_c, 9, 35, 0
1, 34800, Note_on_c, 9, 39, 95
1, 35040, Note_on_c, 9, 39, 0
1, 35040, Note_on_c, 9, 28, 95
1, 35280, Note_on_c, 9, 28, 0
1, 35400, Note_on_c, 9, 35, 95
1, 35520, Note_on_c, 9, 35, 0
1, 35520, Note_on_c, 7, 44, 0
1, 35520, Note_on_c, 7, 63, 0
1, 35520, Note_on_c, 3, 48, 0
1, 35520, Note_on_c, 3, 60, 0
1, 35520, Note_on_c, 7, 56, 0
1, 35520, Note_on_c, 3, 58, 95
1, 35520, Note_on_c, 3, 46, 95
1, 35520, Note_on_c, 7, 63, 95
1, 35520, Note_on_c, 7, 55, 95
1, 35520, Note_on_c, 7, 43, 95
1, 35520, Note_on_c, 9, 35, 95
1, 35760, Note_on_c, 9, 35, 0
1, 35760, Note_on_c, 9, 39, 95
1, 36000, Note_on_c, 9, 39, 0
1, 36000, Note_on_c, 9, 28, 95
1, 36240, Note_on_c, 9, 28, 0
1, 36480, Note_on_c, 3, 46, 0
1, 36480, Note_on_c, 7, 63, 0
1, 36480, Note_on_c, 3, 58, 0
1, 36480, Note_on_c, 7, 43, 0
1, 36480, Note_on_c, 7, 55, 0
1, 36480, Note_on_c, 3, 62, 95
1, 36480, Note_on_c, 3, 50, 95
1, 36480, Note_on_c, 7, 62, 95
1, 36480, Note_on_c, 7, 58, 95
1, 36480, Note_on_c, 7, 46, 95
1, 36480, Note_on_c, 9, 35, 95
1, 36720, Note_on_c, 9, 35, 0
1, 36720, Note_on_c, 9, 39, 95
1, 36960, Note_on_c, 9, 39, 0
1, 36960, Note_on_c, 9, 28, 95
1, 37200, Note_on_c, 9, 28, 0
1, 37320, Note_on_c, 9, 35, 95
1, 37440, Note_on_c, 9, 35, 0
1, 37440, Note_on_c, 7, 46, 0
1, 37440, Note_on_c, 7, 62, 0
1, 37440, Note_on_c, 3, 62, 0
1, 37440, Note_on_c, 3, 50, 0
1, 37440, Note_on_c, 7, 58, 0
1, 37440, Note_on_c, 3, 60, 95
1, 37440, Note_on_c, 3, 48, 95
1, 37440, Note_on_c, 7, 63, 95
1, 37440, Note_on_c, 7, 56, 95
1, 37440, Note_on_c, 7, 44, 95
1, 37560, Note_on_c, 9, 35, 95
1, 37680, Note_on_c, 9, 35, 0
1, 37680, Note_on_c, 9, 35, 95
1, 37920, Note_on_c, 9, 35, 0
1, 37920, Note_on_c, 9, 28, 95
1, 38160, Note_on_c, 9, 28, 0
1, 38400, Note_on_c, 3, 48, 0
1, 38400, Note_on_c, 7, 63, 0
1, 38400, Note_on_c, 3, 60, 0
1, 38400, Note_on_c, 7, 44, 0
1, 38400, Note_on_c, 7, 56, 0
1, 38400, Note_on_c, 3, 60, 95
1, 38400, Note_on_c, 3, 48, 95
1, 38400, Note_on_c, 7, 63, 95
1, 38400, Note_on_c, 7, 56, 95
1, 38400, Note_on_c, 7, 44, 95
1, 38400, Note_on_c, 9, 35, 95
1, 38640, Note_on_c, 9, 35, 0
1, 38640, Note_on_c, 3, 60, 0
1, 38640, Note_on_c, 3, 48, 0
1, 38640, Note_on_c, 3, 60, 95
1, 38640, Note_on_c, 3, 48, 95
1, 38640, Note_on_c, 9, 39, 95
1, 38760, Note_on_c, 3, 48, 0
1, 38760, Note_on_c, 3, 60, 0
1, 38760, Note_on_c, 3, 63, 95
1, 38760, Note_on_c, 3, 51, 95
1, 38880, Note_on_c, 9, 39, 0
1, 38880, Note_on_c, 9, 28, 95
1, 39120, Note_on_c, 9, 28, 0
1, 39120, Note_on_c, 3, 51, 0
1, 39120, Note_on_c, 3, 63, 0
1, 39120, Note_on_c, 3, 67, 95
1, 39120, Note_on_c, 3, 55, 95
1, 39240, Note_on_c, 9, 35, 95
1, 39360, Note_on_c, 9, 35, 0
1, 39360, Note_on_c, 7, 44, 0
1, 39360, Note_on_c, 7, 63, 0
1, 39360, Note_on_c, 7, 56, 0
1, 39360, Note_on_c, 3, 55, 0
1, 39360, Note_on_c, 3, 67, 0
1, 39360, Note_on_c, 3, 65, 95
1, 39360, Note_on_c, 3, 53, 95
1, 39360, Note_on_c, 7, 67, 95
1, 39360, Note_on_c, 7, 63, 95
1, 39360, Note_on_c, 7, 55, 95
1, 39360, Note_on_c, 9, 35, 95
1, 39480, Note_on_c, 3, 53, 0
1, 39480, Note_on_c, 3, 65, 0
1, 39480, Note_on_c, 3, 63, 95
1, 39480, Note_on_c, 3, 51, 95
1, 39600, Note_on_c, 9, 35, 0
1, 39600, Note_on_c, 9, 39, 95
1, 39840, Note_on_c, 9, 39, 0
1, 39840, Note_on_c, 3, 51, 0
1, 39840, Note_on_c, 3, 63, 0
1, 39840, Note_on_c, 3, 58, 95
1, 39840, Note_on_c, 3, 46, 95
1, 39840, Note_on_c, 9, 28, 95
1, 40080, Note_on_c, 9, 28, 0
1, 40080, Note_on_c, 3, 58, 0
1, 40080, Note_on_c, 3, 46, 0
1, 40080, Note_on_c, 3, 58, 95
1, 40080, Note_on_c, 3, 46, 95
1, 40200, Note_on_c, 3, 46, 0
1, 40200, Note_on_c, 3, 58, 0
1, 40200, Note_on_c, 3, 60, 95
1, 40200, Note_on_c, 3, 48, 95
1, 40320, Note_on_c, 3, 48, 0
1, 40320, Note_on_c, 7, 55, 0
1, 40320, Note_on_c, 7, 67, 0
1, 40320, Note_on_c, 7, 63, 0
1, 40320, Note_on_c, 7, 63, 95
1, 40320, Note_on_c, 7, 56, 95
1, 40320, Note_on_c, 7, 44, 95
1, 40320, Note_on_c, 9, 35, 95
1, 40560, Note_on_c, 9, 35, 0
1, 40560, Note_on_c, 3, 60, 0
1, 40560, Note_on_c, 3, 60, 95
1, 40560, Note_on_c, 3, 48, 95
1, 40560, Note_on_c, 9, 39, 95
1, 40800, Note_on_c, 9, 39, 0
1, 40800, Note_on_c, 7, 56, 0
1, 40800, Note_on_c, 7, 63, 0
1, 40800, Note_on_c, 7, 44, 0
1, 40800, Note_on_c, 3, 48, 0
1, 40800, Note_on_c, 3, 60, 0
1, 40800, Note_on_c, 3, 63, 95
1, 40800, Note_on_c, 3, 51, 95
1, 40800, Note_on_c, 7, 65, 95
1, 40800, Note_on_c, 7, 58, 95
1, 40800, Note_on_c, 7, 46, 95
1, 40800, Note_on_c, 9, 28, 95
1, 41040, Note_on_c, 9, 28, 0
1, 41040, Note_on_c, 3, 63, 0
1, 41040, Note_on_c, 3, 51, 0
1, 41040, Note_on_c, 3, 65, 95
1, 41040, Note_on_c, 3, 53, 95
1, 41160, Note_on_c, 3, 53, 0
1, 41160, Note_on_c, 3, 65, 0
1, 41160, Note_on_c, 3, 60, 95
1, 41160, Note_on_c, 3, 48, 95
1, 41280, Note_on_c, 7, 65, 0
1, 41280, Note_on_c, 7, 58, 0
1, 41280, Note_on_c, 7, 46, 0
1, 41280, Note_on_c, 7, 67, 95
1, 41280, Note_on_c, 7, 60, 95
1, 41280, Note_on_c, 7, 48, 95
1, 41520, Note_on_c, 9, 35, 95
1, 41760, Note_on_c, 9, 35, 0
1, 41760, Note_on_c, 9, 28, 95
1, 41880, Note_on_c, 9, 28, 0
1, 42000, Note_on_c, 9, 35, 95
1, 42120, Note_on_c, 9, 35, 0
1, 42120, Note_on_c, 3, 48, 0
1, 42120, Note_on_c, 3, 60, 0
1, 42120, Note_on_c, 3, 58, 95
1, 42120, Note_on_c, 3, 46, 95
1, 42240, Note_on_c, 3, 46, 0
1, 42240, Note_on_c, 7, 60, 0
1, 42240, Note_on_c, 7, 67, 0
1, 42240, Note_on_c, 7, 48, 0
1, 42240, Note_on_c, 3, 58, 0
1, 42240, Note_on_c, 3, 60, 95
1, 42240, Note_on_c, 3, 48, 95
1, 42240, Note_on_c, 7, 63, 95
1, 42240, Note_on_c, 7, 56, 95
1, 42240, Note_on_c, 7, 44, 95
1, 42240, Note_on_c, 9, 35, 95
1, 42480, Note_on_c, 9, 35, 0
1, 42480, Note_on_c, 3, 60, 0
1, 42480, Note_on_c, 3, 48, 0
1, 42480, Note_on_c, 3, 63, 95
1, 42480, Note_on_c, 3, 51, 95
1, 42480, Note_on_c, 9, 39, 95
1, 42600, Note_on_c, 3, 51, 0
1, 42600, Note_on_c, 3, 63, 0
1, 42600, Note_on_c, 3, 63, 95
1, 42600, Note_on_c, 3, 51, 95
1, 42720, Note_on_c, 9, 39, 0
1, 42720, Note_on_c, 9, 28, 95
1, 42960, Note_on_c, 9, 28, 0
1, 42960, Note_on_c, 3, 51, 0
1, 42960, Note_on_c, 3, 63, 0
1, 42960, Note_on_c, 3, 67, 95
1, 42960, Note_on_c, 3, 55, 95
1, 43080, Note_on_c, 9, 35, 95
1, 43200, Note_on_c, 9, 35, 0
1, 43200, Note_on_c, 7, 44, 0
1, 43200, Note_on_c, 7, 63, 0
1, 43200, Note_on_c, 7, 56, 0
1, 43200, Note_on_c, 3, 55, 0
1, 43200, Note_on_c, 3, 67, 0
1, 43200, Note_on_c, 3, 65, 95
1, 43200, Note_on_c, 3, 53, 95
1, 43200, Note_on_c, 7, 58, 95
1, 43200, Note_on_c, 7, 55, 95
1, 43200, Note_on_c, 7, 43, 95
1, 43200, Note_on_c, 9, 35, 95
1, 43320, Note_on_c, 3, 53, 0
1, 43320, Note_on_c, 3, 65, 0
1, 43320, Note_on_c, 3, 63, 95
1, 43320, Note_on_c, 3, 51, 95
1, 43440, Note_on_c, 9, 35, 0
1, 43440, Note_on_c, 9, 39, 95
1, 43680, Note_on_c, 9, 39, 0
1, 43680, Note_on_c, 3, 51, 0
1, 43680, Note_on_c, 3, 63, 0
1, 43680, Note_on_c, 3, 58, 95
1, 43680, Note_on_c, 3, 46, 95
1, 43680, Note_on_c, 9, 28, 95
1, 43920, Note_on_c, 9, 28, 0
1, 43920, Note_on_c, 3, 58, 0
1, 43920, Note_on_c, 3, 46, 0
1, 43920, Note_on_c, 3, 63, 95
1, 43920, Note_on_c, 3, 51, 95
1, 44040, Note_on_c, 3, 51, 0
1, 44040, Note_on_c, 3, 63, 0
1, 44040, Note_on_c, 3, 65, 95
1, 44040, Note_on_c, 3, 53, 95
1, 44160, Note_on_c, 7, 58, 0
1, 44160, Note_on_c, 7, 43, 0
1, 44160, Note_on_c, 7, 55, 0
1, 44160, Note_on_c, 7, 60, 95
1, 44160, Note_on_c, 7, 57, 95
1, 44160, Note_on_c, 7, 53, 95
1, 44160, Note_on_c, 7, 45, 95
1, 44160, Note_on_c, 9, 35, 95
1, 44400, Note_on_c, 9, 35, 0
1, 44400, Note_on_c, 9, 39, 95
1, 44640, Note_on_c, 9, 39, 0
1, 44640, Note_on_c, 9, 28, 95
1, 44880, Note_on_c, 9, 28, 0
1, 44880, Note_on_c, 3, 53, 0
1, 44880, Note_on_c, 3, 65, 0
1, 44880, Note_on_c, 3, 60, 95
1, 44880, Note_on_c, 3, 48, 95
1, 45000, Note_on_c, 9, 35, 95
1, 45120, Note_on_c, 9, 35, 0
1, 45120, Note_on_c, 5, 67, 95
1, 45240, Note_on_c, 9, 35, 95
1, 45360, Note_on_c, 9, 35, 0
1, 45360, Note_on_c, 9, 35, 95
1, 45600, Note_on_c, 9, 35, 0
1, 45600, Note_on_c, 7, 45, 0
1, 45600, Note_on_c, 7, 57, 0
1, 45600, Note_on_c, 7, 60, 0
1, 45600, Note_on_c, 7, 53, 0
1, 45600, Note_on_c, 7, 63, 95
1, 45600, Note_on_c, 7, 58, 95
1, 45600, Note_on_c, 7, 53, 95
1, 45600, Note_on_c, 7, 46, 95
1, 45600, Note_on_c, 9, 28, 95
1, 45840, Note_on_c, 9, 28, 0
1, 45840, Note_on_c, 3, 48, 0
1, 45840, Note_on_c, 3, 60, 0
1, 46080, Note_on_c, 7, 53, 0
1, 46080, Note_on_c, 7, 63, 0
1, 46080, Note_on_c, 7, 58, 0
1, 46080, Note_on_c, 7, 46, 0
1, 46080, Note_on_c, 5, 67, 0
1, 46080, Note_on_c, 0, 58, 95
1, 46080, Note_on_c, 1, 34, 95
1, 46080, Note_on_c, 4, 62, 95
1, 46080, Note_on_c, 4, 50, 95
1, 46080, Note_on_c, 9, 55, 95
1, 46080, Note_on_c, 9, 35, 95
1, 46200, Note_on_c, 0, 58, 0
1, 46200, Note_on_c, 0, 70, 95
1, 46260, Note_on_c, 4, 50, 0
1, 46260, Note_on_c, 4, 62, 0
1, 46320, Note_on_c, 0, 70, 0
1, 46320, Note_on_c, 0, 86, 95
1, 46320, Note_on_c, 3, 58, 95
1, 46440, Note_on_c, 3, 58, 0
1, 46440, Note_on_c, 1, 34, 0
1, 46440, Note_on_c, 9, 35, 0
1, 46440, Note_on_c, 9, 55, 0
1, 46440, Note_on_c, 0, 86, 0
1, 46440, Note_on_c, 0, 58, 95
1, 46440, Note_on_c, 1, 34, 95
1, 46440, Note_on_c, 3, 65, 95
1, 46440, Note_on_c, 4, 63, 95
1, 46440, Note_on_c, 4, 51, 95
1, 46440, Note_on_c, 9, 35, 95
1, 46560, Note_on_c, 9, 35, 0
1, 46560, Note_on_c, 4, 63, 0
1, 46560, Note_on_c, 0, 58, 0
1, 46560, Note_on_c, 4, 51, 0
1, 46560, Note_on_c, 0, 70, 95
1, 46560, Note_on_c, 9, 37, 95
1, 46680, Note_on_c, 0, 70, 0
1, 46680, Note_on_c, 3, 65, 0
1, 46680, Note_on_c, 1, 34, 0
1, 46680, Note_on_c, 0, 82, 95
1, 46680, Note_on_c, 3, 65, 95
1, 46800, Note_on_c, 0, 82, 0
1, 46800, Note_on_c, 4, 58, 95
1, 46800, Note_on_c, 4, 46, 95
1, 46920, Note_on_c, 4, 46, 0
1, 46920, Note_on_c, 9, 37, 0
1, 46920, Note_on_c, 3, 65, 0
1, 46920, Note_on_c, 4, 58, 0
1, 46920, Note_on_c, 0, 75, 95
1, 46920, Note_on_c, 3, 63, 95
1, 47040, Note_on_c, 3, 63, 0
1, 47040, Note_on_c, 0, 75, 0
1, 47040, Note_on_c, 0, 63, 95
1, 47040, Note_on_c, 3, 65, 95
1, 47040, Note_on_c, 4, 62, 95
1, 47040, Note_on_c, 4, 50, 95
1, 47160, Note_on_c, 4, 50, 0
1, 47160, Note_on_c, 4, 62, 0
1, 47160, Note_on_c, 0, 63, 0
1, 47160, Note_on_c, 0, 70, 95
1, 47280, Note_on_c, 0, 70, 0
1, 47280, Note_on_c, 3, 65, 0
1, 47280, Note_on_c, 0, 77, 95
1, 47280, Note_on_c, 1, 39, 95
1, 47280, Note_on_c, 3, 63, 95
1, 47280, Note_on_c, 9, 35, 95
1, 47400, Note_on_c, 0, 77, 0
1, 47400, Note_on_c, 0, 75, 95
1, 47400, Note_on_c, 4, 63, 95
1, 47400, Note_on_c, 4, 51, 95
1, 47520, Note_on_c, 4, 51, 0
1, 47520, Note_on_c, 3, 63, 0
1, 47520, Note_on_c, 1, 39, 0
1, 47520, Note_on_c, 9, 35, 0
1, 47520, Note_on_c, 4, 63, 0
1, 47520, Note_on_c, 0, 75, 0
1, 47520, Note_on_c, 0, 77, 95
1, 47520, Note_on_c, 3, 58, 95
1, 47520, Note_on_c, 9, 37, 95
1, 47640, Note_on_c, 0, 77, 0
1, 47640, Note_on_c, 0, 82, 95
1, 47760, Note_on_c, 0, 82, 0
1, 47760, Note_on_c, 9, 37, 0
1, 47760, Note_on_c, 3, 58, 0
1, 47760, Note_on_c, 4, 58, 95
1, 47760, Note_on_c, 4, 46, 95
1, 47880, Note_on_c, 4, 46, 0
1, 47880, Note_on_c, 4, 58, 0
1, 47880, Note_on_c, 0, 75, 95
1, 48000, Note_on_c, 0, 75, 0
1, 48000, Note_on_c, 0, 56, 95
1, 48000, Note_on_c, 1, 32, 95
1, 48000, Note_on_c, 4, 56, 95
1, 48000, Note_on_c, 4, 44, 95
1, 48000, Note_on_c, 9, 35, 95
1, 48120, Note_on_c, 0, 56, 0
1, 48120, Note_on_c, 0, 63, 95
1, 48180, Note_on_c, 4, 44, 0
1, 48180, Note_on_c, 4, 56, 0
1, 48240, Note_on_c, 0, 63, 0
1, 48240, Note_on_c, 0, 72, 95
1, 48240, Note_on_c, 3, 60, 95
1, 48360, Note_on_c, 0, 72, 0
1, 48360, Note_on_c, 1, 32, 0
1, 48360, Note_on_c, 9, 35, 0
1, 48360, Note_on_c, 0, 70, 95
1, 48360, Note_on_c, 1, 32, 95
1, 48360, Note_on_c, 4, 60, 95
1, 48360, Note_on_c, 4, 48, 95
1, 48360, Note_on_c, 9, 35, 95
1, 48480, Note_on_c, 9, 35, 0
1, 48480, Note_on_c, 4, 60, 0
1, 48480, Note_on_c, 0, 70, 0
1, 48480, Note_on_c, 3, 60, 0
1, 48480, Note_on_c, 4, 48, 0
1, 48480, Note_on_c, 0, 72, 95
1, 48480, Note_on_c, 3, 60, 95
1, 48480, Note_on_c, 9, 37, 95
1, 48600, Note_on_c, 0, 72, 0
1, 48600, Note_on_c, 1, 32, 0
1, 48600, Note_on_c, 0, 75, 95
1, 48720, Note_on_c, 0, 75, 0
1, 48720, Note_on_c, 3, 60, 0
1, 48720, Note_on_c, 9, 37, 0
1, 48720, Note_on_c, 0, 63, 95
1, 48720, Note_on_c, 1, 32, 95
1, 48720, Note_on_c, 3, 58, 95
1, 48720, Note_on_c, 4, 56, 95
1, 48720, Note_on_c, 4, 44, 95
1, 48720, Note_on_c, 9, 35, 95
1, 48840, Note_on_c, 4, 44, 0
1, 48840, Note_on_c, 4, 56, 0
1, 48840, Note_on_c, 0, 63, 0
1, 48840, Note_on_c, 0, 56, 95
1, 48960, Note_on_c, 0, 56, 0
1, 48960, Note_on_c, 3, 58, 0
1, 48960, Note_on_c, 9, 35, 0
1, 48960, Note_on_c, 1, 32, 0
1, 48960, Note_on_c, 3, 60, 95
1, 48960, Note_on_c, 4, 68, 95
1, 48960, Note_on_c, 4, 56, 95
1, 49080, Note_on_c, 4, 56, 0
1, 49080, Note_on_c, 4, 68, 0
1, 49080, Note_on_c, 3, 60, 0
1, 49080, Note_on_c, 0, 70, 95
1, 49080, Note_on_c, 3, 63, 95
1, 49200, Note_on_c, 0, 70, 0
1, 49200, Note_on_c, 0, 72, 95
1, 49200, Note_on_c, 1, 32, 95
1, 49200, Note_on_c, 9, 35, 95
1, 49320, Note_on_c, 0, 72, 0
1, 49320, Note_on_c, 3, 63, 0
1, 49320, Note_on_c, 0, 70, 95
1, 49320, Note_on_c, 3, 65, 95
1, 49320, Note_on_c, 4, 67, 95
1, 49320, Note_on_c, 4, 55, 95
1, 49440, Note_on_c, 4, 55, 0
1, 49440, Note_on_c, 1, 32, 0
1, 49440, Note_on_c, 9, 35, 0
1, 49440, Note_on_c, 0, 70, 0
1, 49440, Note_on_c, 4, 67, 0
1, 49440, Note_on_c, 0, 60, 95
1, 49440, Note_on_c, 9, 37, 95
1, 49560, Note_on_c, 0, 60, 0
1, 49560, Note_on_c, 0, 70, 95
1, 49680, Note_on_c, 0, 70, 0
1, 49680, Note_on_c, 3, 65, 0
1, 49680, Note_on_c, 0, 75, 95
1, 49680, Note_on_c, 3, 58, 95
1, 49680, Note_on_c, 4, 63, 95
1, 49680, Note_on_c, 4, 51, 95
1, 49800, Note_on_c, 4, 51, 0
1, 49800, Note_on_c, 3, 58, 0
1, 49800, Note_on_c, 9, 37, 0
1, 49800, Note_on_c, 0, 75, 0
1, 49800, Note_on_c, 4, 63, 0
1, 49800, Note_on_c, 0, 77, 95
1, 49800, Note_on_c, 1, 32, 95
1, 49800, Note_on_c, 3, 58, 95
1, 49800, Note_on_c, 9, 35, 95
1, 49920, Note_on_c, 9, 35, 0
1, 49920, Note_on_c, 0, 77, 0
1, 49920, Note_on_c, 1, 32, 0
1, 49920, Note_on_c, 0, 58, 95
1, 49920, Note_on_c, 1, 34, 95
1, 49920, Note_on_c, 4, 62, 95
1, 49920, Note_on_c, 4, 50, 95
1, 49920, Note_on_c, 9, 35, 95
1, 50040, Note_on_c, 0, 58, 0
1, 50040, Note_on_c, 3, 58, 0
1, 50040, Note_on_c, 0, 70, 95
1, 50040, Note_on_c, 3, 67, 95
1, 50100, Note_on_c, 4, 50, 0
1, 50100, Note_on_c, 4, 62, 0
1, 50160, Note_on_c, 0, 70, 0
1, 50160, Note_on_c, 0, 86, 95
1, 50280, Note_on_c, 0, 86, 0
1, 50280, Note_on_c, 1, 34, 0
1, 50280, Note_on_c, 9, 35, 0
1, 50280, Note_on_c, 0, 74, 95
1, 50280, Note_on_c, 1, 46, 95
1, 50280, Note_on_c, 4, 63, 95
1, 50280, Note_on_c, 4, 51, 95
1, 50280, Note_on_c, 9, 35, 95
1, 50400, Note_on_c, 9, 35, 0
1, 50400, Note_on_c, 4, 63, 0
1, 50400, Note_on_c, 0, 74, 0
1, 50400, Note_on_c, 3, 67, 0
1, 50400, Note_on_c, 4, 51, 0
1, 50400, Note_on_c, 0, 65, 95
1, 50400, Note_on_c, 3, 65, 95
1, 50400, Note_on_c, 9, 37, 95
1, 50520, Note_on_c, 0, 65, 0
1, 50520, Note_on_c, 1, 46, 0
1, 50520, Note_on_c, 0, 82, 95
1, 50640, Note_on_c, 0, 82, 0
1, 50640, Note_on_c, 3, 65, 0
1, 50640, Note_on_c, 3, 63, 95
1, 50640, Note_on_c, 4, 58, 95
1, 50640, Note_on_c, 4, 46, 95
1, 50760, Note_on_c, 4, 46, 0
1, 50760, Note_on_c, 9, 37, 0
1, 50760, Note_on_c, 3, 63, 0
1, 50760, Note_on_c, 4, 58, 0
1, 50760, Note_on_c, 0, 75, 95
1, 50760, Note_on_c, 3, 58, 95
1, 50880, Note_on_c, 0, 75, 0
1, 50880, Note_on_c, 0, 63, 95
1, 50880, Note_on_c, 4, 62, 95
1, 50880, Note_on_c, 4, 50, 95
1, 51000, Note_on_c, 4, 50, 0
1, 51000, Note_on_c, 3, 58, 0
1, 51000, Note_on_c, 0, 63, 0
1, 51000, Note_on_c, 4, 62, 0
1, 51000, Note_on_c, 0, 70, 95
1, 51000, Note_on_c, 3, 67, 95
1, 51120, Note_on_c, 0, 70, 0
1, 51120, Note_on_c, 0, 77, 95
1, 51120, Note_on_c, 1, 39, 95
1, 51120, Note_on_c, 9, 35, 95
1, 51240, Note_on_c, 0, 77, 0
1, 51240, Note_on_c, 0, 75, 95
1, 51240, Note_on_c, 4, 65, 95
1, 51240, Note_on_c, 4, 53, 95
1, 51360, Note_on_c, 4, 53, 0
1, 51360, Note_on_c, 1, 39, 0
1, 51360, Note_on_c, 3, 67, 0
1, 51360, Note_on_c, 9, 35, 0
1, 51360, Note_on_c, 4, 65, 0
1, 51360, Note_on_c, 0, 75, 0
1, 51360, Note_on_c, 0, 80, 95
1, 51360, Note_on_c, 3, 65, 95
1, 51360, Note_on_c, 9, 37, 95
1, 51420, Pitch_bend_c, 0, 7936
1, 51480, Note_on_c, 9, 37, 0
1, 51480, Note_on_c, 0, 80, 0
1, 51480, Pitch_bend_c, 0, 7552
1, 51480, Pitch_bend_c, 0, 8192
1, 51480, Note_on_c, 0, 79, 95
1, 51480, Note_on_c, 1, 51, 95
1, 51480, Note_on_c, 9, 35, 95
1, 51600, Note_on_c, 9, 35, 0
1, 51600, Note_on_c, 3, 65, 0
1, 51600, Note_on_c, 0, 79, 0
1, 51600, Note_on_c, 0, 75, 95
1, 51600, Note_on_c, 3, 60, 95
1, 51600, Note_on_c, 4, 67, 95
1, 51600, Note_on_c, 4, 55, 95
1, 51720, Note_on_c, 4, 55, 0
1, 51720, Note_on_c, 0, 75, 0
1, 51720, Note_on_c, 1, 51, 0
1, 51720, Note_on_c, 4, 67, 0
1, 51720, Note_on_c, 0, 70, 95
1, 51840, Note_on_c, 0, 70, 0
1, 51840, Note_on_c, 3, 60, 0
1, 51840, Note_on_c, 0, 56, 95
1, 51840, Note_on_c, 1, 32, 95
1, 51840, Note_on_c, 3, 63, 95
1, 51840, Note_on_c, 4, 63, 95
1, 51840, Note_on_c, 4, 51, 95
1, 51840, Note_on_c, 9, 35, 95
1, 52020, Note_on_c, 4, 51, 0
1, 52020, Note_on_c, 4, 63, 0
1, 52080, Note_on_c, 0, 56, 0
1, 52080, Note_on_c, 0, 72, 95
1, 52200, Note_on_c, 0, 72, 0
1, 52200, Note_on_c, 1, 32, 0
1, 52200, Note_on_c, 9, 35, 0
1, 52200, Note_on_c, 0, 63, 95
1, 52200, Note_on_c, 1, 32, 95
1, 52200, Note_on_c, 4, 60, 95
1, 52200, Note_on_c, 4, 48, 95
1, 52200, Note_on_c, 9, 35, 95
1, 52320, Note_on_c, 9, 35, 0
1, 52320, Note_on_c, 4, 60, 0
1, 52320, Note_on_c, 0, 63, 0
1, 52320, Note_on_c, 4, 48, 0
1, 52320, Note_on_c, 0, 56, 95
1, 52320, Note_on_c, 9, 37, 95
1, 52440, Note_on_c, 0, 56, 0
1, 52440, Note_on_c, 1, 32, 0
1, 52440, Note_on_c, 0, 70, 95
1, 52560, Note_on_c, 0, 70, 0
1, 52560, Note_on_c, 9, 37, 0
1, 52560, Note_on_c, 4, 63, 95
1, 52560, Note_on_c, 4, 51, 95
1, 52680, Note_on_c, 4, 51, 0
1, 52680, Note_on_c, 4, 63, 0
1, 52680, Note_on_c, 0, 63, 95
1, 52680, Note_on_c, 1, 32, 95
1, 52680, Note_on_c, 9, 35, 95
1, 52800, Note_on_c, 9, 35, 0
1, 52800, Note_on_c, 3, 63, 0
1, 52800, Note_on_c, 0, 63, 0
1, 52800, Note_on_c, 1, 32, 0
1, 52800, Note_on_c, 0, 72, 95
1, 52920, Note_on_c, 0, 72, 0
1, 52920, Note_on_c, 0, 56, 95
1, 52920, Note_on_c, 1, 39, 95
1, 52920, Note_on_c, 4, 60, 95
1, 52920, Note_on_c, 4, 48, 95
1, 52920, Note_on_c, 9, 35, 95
1, 53040, Note_on_c, 9, 35, 0
1, 53040, Note_on_c, 4, 60, 0
1, 53040, Note_on_c, 0, 56, 0
1, 53040, Note_on_c, 1, 39, 0
1, 53040, Note_on_c, 4, 48, 0
1, 53040, Note_on_c, 0, 72, 95
1, 53040, Note_on_c, 1, 32, 95
1, 53040, Note_on_c, 9, 35, 95
1, 53160, Note_on_c, 0, 72, 0
1, 53160, Note_on_c, 0, 70, 95
1, 53280, Note_on_c, 0, 70, 0
1, 53280, Note_on_c, 9, 35, 0
1, 53280, Note_on_c, 1, 32, 0
1, 53280, Note_on_c, 0, 60, 95
1, 53280, Note_on_c, 4, 67, 95
1, 53280, Note_on_c, 4, 55, 95
1, 53280, Note_on_c, 9, 37, 95
1, 53340, Note_on_c, 4, 55, 0
1, 53400, Note_on_c, 0, 60, 0
1, 53400, Note_on_c, 4, 67, 0
1, 53400, Note_on_c, 0, 75, 95
1, 53520, Note_on_c, 0, 75, 0
1, 53520, Note_on_c, 9, 37, 0
1, 53520, Note_on_c, 0, 77, 95
1, 53520, Note_on_c, 1, 36, 95
1, 53520, Note_on_c, 4, 58, 95
1, 53520, Note_on_c, 4, 46, 95
1, 53520, Note_on_c, 9, 35, 95
1, 53640, Note_on_c, 4, 46, 0
1, 53640, Note_on_c, 4, 58, 0
1, 53640, Note_on_c, 0, 77, 0
1, 53640, Note_on_c, 4, 60, 95
1, 53640, Note_on_c, 4, 48, 95
1, 53760, Note_on_c, 4, 48, 0
1, 53760, Note_on_c, 9, 35, 0
1, 53760, Note_on_c, 1, 36, 0
1, 53760, Note_on_c, 4, 60, 0
1, 53760, Note_on_c, 0, 58, 95
1, 53760, Note_on_c, 1, 34, 95
1, 53760, Note_on_c, 4, 62, 95
1, 53760, Note_on_c, 4, 50, 95
1, 53760, Note_on_c, 9, 35, 95
1, 53880, Note_on_c, 0, 58, 0
1, 53880, Note_on_c, 0, 70, 95
1, 53940, Note_on_c, 4, 50, 0
1, 53940, Note_on_c, 4, 62, 0
1, 54000, Note_on_c, 0, 70, 0
1, 54000, Note_on_c, 0, 86, 95
1, 54000, Note_on_c, 3, 58, 95
1, 54120, Note_on_c, 3, 58, 0
1, 54120, Note_on_c, 1, 34, 0
1, 54120, Note_on_c, 9, 35, 0
1, 54120, Note_on_c, 0, 86, 0
1, 54120, Note_on_c, 0, 58, 95
1, 54120, Note_on_c, 1, 34, 95
1, 54120, Note_on_c, 3, 65, 95
1, 54120, Note_on_c, 4, 63, 95
1, 54120, Note_on_c, 4, 51, 95
1, 54120, Note_on_c, 9, 35, 95
1, 54240, Note_on_c, 9, 35, 0
1, 54240, Note_on_c, 4, 63, 0
1, 54240, Note_on_c, 0, 58, 0
1, 54240, Note_on_c, 4, 51, 0
1, 54240, Note_on_c, 0, 70, 95
1, 54240, Note_on_c, 9, 37, 95
1, 54360, Note_on_c, 0, 70, 0
1, 54360, Note_on_c, 3, 65, 0
1, 54360, Note_on_c, 1, 34, 0
1, 54360, Note_on_c, 0, 82, 95
1, 54360, Note_on_c, 3, 65, 95
1, 54480, Note_on_c, 0, 82, 0
1, 54480, Note_on_c, 4, 58, 95
1, 54480, Note_on_c, 4, 46, 95
1, 54600, Note_on_c, 4, 46, 0
1, 54600, Note_on_c, 9, 37, 0
1, 54600, Note_on_c, 3, 65, 0
1, 54600, Note_on_c, 4, 58, 0
1, 54600, Note_on_c, 0, 75, 95
1, 54600, Note_on_c, 3, 63, 95
1, 54720, Note_on_c, 3, 63, 0
1, 54720, Note_on_c, 0, 75, 0
1, 54720, Note_on_c, 0, 63, 95
1, 54720, Note_on_c, 3, 65, 95
1, 54720, Note_on_c, 4, 62, 95
1, 54720, Note_on_c, 4, 50, 95
1, 54840, Note_on_c, 4, 50, 0
1, 54840, Note_on_c, 4, 62, 0
1, 54840, Note_on_c, 0, 63, 0
1, 54840, Note_on_c, 0, 70, 95
1, 54960, Note_on_c, 0, 70, 0
1, 54960, Note_on_c, 3, 65, 0
1, 54960, Note_on_c, 0, 77, 95
1, 54960, Note_on_c, 1, 39, 95
1, 54960, Note_on_c, 3, 63, 95
1, 54960, Note_on_c, 9, 35, 95
1, 55080, Note_on_c, 0, 77, 0
1, 55080, Note_on_c, 0, 75, 95
1, 55080, Note_on_c, 4, 63, 95
1, 55080, Note_on_c, 4, 51, 95
1, 55200, Note_on_c, 4, 51, 0
1, 55200, Note_on_c, 3, 63, 0
1, 55200, Note_on_c, 1, 39, 0
1, 55200, Note_on_c, 9, 35, 0
1, 55200, Note_on_c, 4, 63, 0
1, 55200, Note_on_c, 0, 75, 0
1, 55200, Note_on_c, 0, 77, 95
1, 55200, Note_on_c, 3, 58, 95
1, 55200, Note_on_c, 9, 37, 95
1, 55320, Note_on_c, 0, 77, 0
1, 55320, Note_on_c, 0, 82, 95
1, 55440, Note_on_c, 0, 82, 0
1, 55440, Note_on_c, 9, 37, 0
1, 55440, Note_on_c, 3, 58, 0
1, 55440, Note_on_c, 4, 58, 95
1, 55440, Note_on_c, 4, 46, 95
1, 55560, Note_on_c, 4, 46, 0
1, 55560, Note_on_c, 4, 58, 0
1, 55560, Note_on_c, 0, 75, 95
1, 55680, Note_on_c, 0, 75, 0
1, 55680, Note_on_c, 0, 56, 95
1, 55680, Note_on_c, 1, 32, 95
1, 55680, Note_on_c, 4, 56, 95
1, 55680, Note_on_c, 4, 44, 95
1, 55680, Note_on_c, 9, 35, 95
1, 55800, Note_on_c, 0, 56, 0
1, 55800, Note_on_c, 0, 63, 95
1, 55860, Note_on_c, 4, 44, 0
1, 55860, Note_on_c, 4, 56, 0
1, 55920, Note_on_c, 0, 63, 0
1, 55920, Note_on_c, 0, 72, 95
1, 55920, Note_on_c, 3, 60, 95
1, 56040, Note_on_c, 0, 72, 0
1, 56040, Note_on_c, 1, 32, 0
1, 56040, Note_on_c, 9, 35, 0
1, 56040, Note_on_c, 0, 70, 95
1, 56040, Note_on_c, 1, 32, 95
1, 56040, Note_on_c, 4, 60, 95
1, 56040, Note_on_c, 4, 48, 95
1, 56040, Note_on_c, 9, 35, 95
1, 56160, Note_on_c, 9, 35, 0
1, 56160, Note_on_c, 4, 60, 0
1, 56160, Note_on_c, 0, 70, 0
1, 56160, Note_on_c, 3, 60, 0
1, 56160, Note_on_c, 4, 48, 0
1, 56160, Note_on_c, 0, 72, 95
1, 56160, Note_on_c, 3, 60, 95
1, 56160, Note_on_c, 9, 37, 95
1, 56280, Note_on_c, 0, 72, 0
1, 56280, Note_on_c, 1, 32, 0
1, 56280, Note_on_c, 0, 75, 95
1, 56400, Note_on_c, 0, 75, 0
1, 56400, Note_on_c, 3, 60, 0
1, 56400, Note_on_c, 9, 37, 0
1, 56400, Note_on_c, 0, 63, 95
1, 56400, Note_on_c, 1, 32, 95
1, 56400, Note_on_c, 3, 58, 95
1, 56400, Note_on_c, 4, 56, 95
1, 56400, Note_on_c, 4, 44, 95
1, 56400, Note_on_c, 9, 35, 95
1, 56520, Note_on_c, 4, 44, 0
1, 56520, Note_on_c, 4, 56, 0
1, 56520, Note_on_c, 0, 63, 0
1, 56520, Note_on_c, 0, 56, 95
1, 56640, Note_on_c, 0, 56, 0
1, 56640, Note_on_c, 3, 58, 0
1, 56640, Note_on_c, 9, 35, 0
1, 56640, Note_on_c, 1, 32, 0
1, 56640, Note_on_c, 3, 60, 95
1, 56640, Note_on_c, 4, 68, 95
1, 56640, Note_on_c, 4, 56, 95
1, 56760, Note_on_c, 4, 56, 0
1, 56760, Note_on_c, 4, 68, 0
1, 56760, Note_on_c, 3, 60, 0
1, 56760, Note_on_c, 0, 70, 95
1, 56760, Note_on_c, 3, 63, 95
1, 56880, Note_on_c, 0, 70, 0
1, 56880, Note_on_c, 0, 72, 95
1, 56880, Note_on_c, 1, 32, 95
1, 56880, Note_on_c, 9, 35, 95
1, 57000, Note_on_c, 0, 72, 0
1, 57000, Note_on_c, 3, 63, 0
1, 57000, Note_on_c, 0, 70, 95
1, 57000, Note_on_c, 3, 65, 95
1, 57000, Note_on_c, 4, 67, 95
1, 57000, Note_on_c, 4, 55, 95
1, 57120, Note_on_c, 4, 55, 0
1, 57120, Note_on_c, 1, 32, 0
1, 57120, Note_on_c, 9, 35, 0
1, 57120, Note_on_c, 0, 70, 0
1, 57120, Note_on_c, 4, 67, 0
1, 57120, Note_on_c, 0, 60, 95
1, 57120, Note_on_c, 9, 37, 95
1, 57240, Note_on_c, 0, 60, 0
1, 57240, Note_on_c, 0, 70, 95
1, 57360, Note_on_c, 0, 70, 0
1, 57360, Note_on_c, 3, 65, 0
1, 57360, Note_on_c, 0, 75, 95
1, 57360, Note_on_c, 3, 58, 95
1, 57360, Note_on_c, 4, 63, 95
1, 57360, Note_on_c, 4, 51, 95
1, 57480, Note_on_c, 4, 51, 0
1, 57480, Note_on_c, 3, 58, 0
1, 57480, Note_on_c, 9, 37, 0
1, 57480, Note_on_c, 0, 75, 0
1, 57480, Note_on_c, 4, 63, 0
1, 57480, Note_on_c, 0, 77, 95
1, 57480, Note_on_c, 1, 36, 95
1, 57480, Note_on_c, 3, 58, 95
1, 57480, Note_on_c, 9, 35, 95
1, 57600, Note_on_c, 9, 35, 0
1, 57600, Note_on_c, 0, 77, 0
1, 57600, Note_on_c, 1, 36, 0
1, 57600, Note_on_c, 0, 58, 95
1, 57600, Note_on_c, 1, 34, 95
1, 57600, Note_on_c, 4, 62, 95
1, 57600, Note_on_c, 4, 50, 95
1, 57600, Note_on_c, 9, 35, 95
1, 57720, Note_on_c, 0, 58, 0
1, 57720, Note_on_c, 3, 58, 0
1, 57720, Note_on_c, 0, 70, 95
1, 57720, Note_on_c, 3, 67, 95
1, 57780, Note_on_c, 4, 50, 0
1, 57780, Note_on_c, 4, 62, 0
1, 57840, Note_on_c, 0, 70, 0
1, 57840, Note_on_c, 0, 86, 95
1, 57960, Note_on_c, 0, 86, 0
1, 57960, Note_on_c, 1, 34, 0
1, 57960, Note_on_c, 9, 35, 0
1, 57960, Note_on_c, 0, 74, 95
1, 57960, Note_on_c, 1, 46, 95
1, 57960, Note_on_c, 4, 63, 95
1, 57960, Note_on_c, 4, 51, 95
1, 57960, Note_on_c, 9, 35, 95
1, 58080, Note_on_c, 9, 35, 0
1, 58080, Note_on_c, 4, 63, 0
1, 58080, Note_on_c, 0, 74, 0
1, 58080, Note_on_c, 3, 67, 0
1, 58080, Note_on_c, 4, 51, 0
1, 58080, Note_on_c, 0, 65, 95
1, 58080, Note_on_c, 3, 65, 95
1, 58080, Note_on_c, 9, 37, 95
1, 58200, Note_on_c, 0, 65, 0
1, 58200, Note_on_c, 1, 46, 0
1, 58200, Note_on_c, 0, 82, 95
1, 58320, Note_on_c, 0, 82, 0
1, 58320, Note_on_c, 3, 65, 0
1, 58320, Note_on_c, 3, 63, 95
1, 58320, Note_on_c, 4, 65, 95
1, 58320, Note_on_c, 4, 53, 95
1, 58440, Note_on_c, 4, 53, 0
1, 58440, Note_on_c, 9, 37, 0
1, 58440, Note_on_c, 3, 63, 0
1, 58440, Note_on_c, 4, 65, 0
1, 58440, Note_on_c, 0, 75, 95
1, 58440, Note_on_c, 3, 58, 95
1, 58560, Note_on_c, 0, 75, 0
1, 58560, Note_on_c, 0, 63, 95
1, 58560, Note_on_c, 4, 67, 95
1, 58560, Note_on_c, 4, 55, 95
1, 58680, Note_on_c, 4, 55, 0
1, 58680, Note_on_c, 3, 58, 0
1, 58680, Note_on_c, 0, 63, 0
1, 58680, Note_on_c, 4, 67, 0
1, 58680, Note_on_c, 0, 70, 95
1, 58680, Note_on_c, 3, 58, 95
1, 58800, Note_on_c, 3, 58, 0
1, 58800, Note_on_c, 0, 70, 0
1, 58800, Note_on_c, 0, 77, 95
1, 58800, Note_on_c, 1, 39, 95
1, 58800, Note_on_c, 3, 67, 95
1, 58800, Note_on_c, 9, 35, 95
1, 58920, Note_on_c, 0, 77, 0
1, 58920, Note_on_c, 0, 75, 95
1, 58920, Note_on_c, 4, 65, 95
1, 58920, Note_on_c, 4, 53, 95
1, 59040, Note_on_c, 4, 53, 0
1, 59040, Note_on_c, 3, 67, 0
1, 59040, Note_on_c, 1, 39, 0
1, 59040, Note_on_c, 9, 35, 0
1, 59040, Note_on_c, 4, 65, 0
1, 59040, Note_on_c, 0, 75, 0
1, 59040, Note_on_c, 0, 80, 95
1, 59040, Note_on_c, 3, 65, 95
1, 59040, Note_on_c, 9, 37, 95
1, 59100, Pitch_bend_c, 0, 7936
1, 59160, Note_on_c, 9, 37, 0
1, 59160, Note_on_c, 0, 80, 0
1, 59160, Pitch_bend_c, 0, 7552
1, 59160, Pitch_bend_c, 0, 8192
1, 59160, Note_on_c, 0, 79, 95
1, 59160, Note_on_c, 1, 46, 95
1, 59160, Note_on_c, 9, 35, 95
1, 59280, Note_on_c, 9, 35, 0
1, 59280, Note_on_c, 3, 65, 0
1, 59280, Note_on_c, 0, 79, 0
1, 59280, Note_on_c, 0, 75, 95
1, 59280, Note_on_c, 3, 60, 95
1, 59280, Note_on_c, 4, 67, 95
1, 59280, Note_on_c, 4, 55, 95
1, 59400, Note_on_c, 4, 55, 0
1, 59400, Note_on_c, 0, 75, 0
1, 59400, Note_on_c, 1, 46, 0
1, 59400, Note_on_c, 4, 67, 0
1, 59400, Note_on_c, 0, 70, 95
1, 59520, Note_on_c, 0, 70, 0
1, 59520, Note_on_c, 3, 60, 0
1, 59520, Note_on_c, 0, 56, 95
1, 59520, Note_on_c, 1, 32, 95
1, 59520, Note_on_c, 3, 63, 95
1, 59520, Note_on_c, 4, 63, 95
1, 59520, Note_on_c, 4, 51, 95
1, 59520, Note_on_c, 9, 35, 95
1, 59700, Note_on_c, 4, 51, 0
1, 59700, Note_on_c, 4, 63, 0
1, 59760, Note_on_c, 0, 56, 0
1, 59760, Note_on_c, 0, 72, 95
1, 59880, Note_on_c, 0, 72, 0
1, 59880, Note_on_c, 0, 63, 95
1, 59880, Note_on_c, 4, 60, 95
1, 59880, Note_on_c, 4, 48, 95
1, 60000, Note_on_c, 4, 48, 0
1, 60000, Note_on_c, 9, 35, 0
1, 60000, Note_on_c, 1, 32, 0
1, 60000, Note_on_c, 0, 63, 0
1, 60000, Note_on_c, 4, 60, 0
1, 60000, Note_on_c, 0, 56, 95
1, 60000, Note_on_c, 9, 37, 95
1, 60120, Note_on_c, 0, 56, 0
1, 60120, Note_on_c, 0, 70, 95
1, 60240, Note_on_c, 0, 70, 0
1, 60240, Note_on_c, 9, 37, 0
1, 60240, Note_on_c, 4, 63, 95
1, 60240, Note_on_c, 4, 51, 95
1, 60360, Note_on_c, 4, 51, 0
1, 60360, Note_on_c, 4, 63, 0
1, 60360, Note_on_c, 0, 63, 95
1, 60480, Note_on_c, 0, 63, 0
1, 60480, Note_on_c, 0, 72, 95
1, 60480, Note_on_c, 4, 72, 95
1, 60480, Note_on_c, 4, 60, 95
1, 60600, Note_on_c, 4, 60, 0
1, 60600, Note_on_c, 4, 72, 0
1, 60600, Note_on_c, 0, 72, 0
1, 60600, Note_on_c, 0, 56, 95
1, 60720, Note_on_c, 0, 56, 0
1, 60720, Note_on_c, 0, 72, 95
1, 60840, Note_on_c, 0, 72, 0
1, 60840, Note_on_c, 0, 70, 95
1, 60840, Note_on_c, 1, 32, 95
1, 60840, Note_on_c, 4, 67, 95
1, 60840, Note_on_c, 4, 55, 95
1, 60840, Note_on_c, 9, 35, 95
1, 60960, Note_on_c, 9, 35, 0
1, 60960, Note_on_c, 0, 70, 0
1, 60960, Note_on_c, 1, 32, 0
1, 60960, Note_on_c, 3, 63, 0
1, 60960, Note_on_c, 4, 55, 0
1, 60960, Note_on_c, 4, 67, 0
1, 60960, Note_on_c, 0, 60, 95
1, 60960, Note_on_c, 9, 37, 95
1, 61080, Note_on_c, 9, 37, 0
1, 61080, Note_on_c, 0, 60, 0
1, 61080, Note_on_c, 0, 75, 95
1, 61080, Note_on_c, 1, 32, 95
1, 61080, Note_on_c, 9, 35, 95
1, 61200, Note_on_c, 9, 35, 0
1, 61200, Note_on_c, 1, 32, 0
1, 61200, Note_on_c, 0, 75, 0
1, 61200, Note_on_c, 0, 77, 95
1, 61200, Note_on_c, 1, 44, 95
1, 61200, Note_on_c, 9, 35, 95
1, 61320, Note_on_c, 9, 35, 0
1, 61320, Note_on_c, 1, 44, 0
1, 61320, Note_on_c, 0, 77, 0
1, 61320, Note_on_c, 1, 46, 95
1, 61440, Note_on_c, 1, 46, 0
1, 61440, Note_on_c, 1, 32, 95
1, 61440, Note_on_c, 6, 63, 95
1, 61440, Note_on_c, 6, 56, 95
1, 61440, Note_on_c, 6, 44, 95
1, 61440, Note_on_c, 7, 75, 95
1, 61440, Note_on_c, 9, 55, 95
1, 61440, Note_on_c, 9, 35, 95
1, 61560, Note_on_c, 7, 75, 0
1, 61560, Note_on_c, 7, 70, 95
1, 61680, Note_on_c, 7, 70, 0
1, 61680, Note_on_c, 3, 67, 95
1, 61680, Note_on_c, 7, 63, 95
1, 61800, Note_on_c, 7, 63, 0
1, 61800, Note_on_c, 7, 75, 95
1, 61920, Note_on_c, 7, 75, 0
1, 61920, Note_on_c, 3, 67, 0
1, 61920, Note_on_c, 9, 55, 0
1, 61920, Note_on_c, 9, 35, 0
1, 61920, Note_on_c, 3, 65, 95
1, 61920, Note_on_c, 7, 70, 95
1, 61920, Note_on_c, 9, 55, 95
1, 61920, Note_on_c, 9, 37, 95
1, 62040, Note_on_c, 7, 70, 0
1, 62040, Note_on_c, 7, 63, 95
1, 62160, Note_on_c, 7, 63, 0
1, 62160, Note_on_c, 9, 37, 0
1, 62160, Note_on_c, 3, 65, 0
1, 62160, Note_on_c, 9, 55, 0
1, 62160, Note_on_c, 3, 63, 95
1, 62160, Note_on_c, 7, 75, 95
1, 62280, Note_on_c, 7, 75, 0
1, 62280, Note_on_c, 3, 63, 0
1, 62280, Note_on_c, 3, 70, 95
1, 62280, Note_on_c, 7, 70, 95
1, 62280, Note_on_c, 9, 35, 95
1, 62400, Note_on_c, 9, 35, 0
1, 62400, Note_on_c, 6, 56, 0
1, 62400, Note_on_c, 6, 63, 0
1, 62400, Note_on_c, 6, 44, 0
1, 62400, Note_on_c, 1, 32, 0
1, 62400, Note_on_c, 7, 70, 0
1, 62400, Note_on_c, 1, 36, 95
1, 62400, Note_on_c, 6, 63, 95
1, 62400, Note_on_c, 6, 55, 95
1, 62400, Note_on_c, 6, 43, 95
1, 62400, Note_on_c, 7, 63, 95
1, 62400, Note_on_c, 9, 55, 95
1, 62400, Note_on_c, 9, 35, 95
1, 62520, Note_on_c, 7, 63, 0
1, 62520, Note_on_c, 3, 70, 0
1, 62520, Note_on_c, 3, 67, 95
1, 62520, Note_on_c, 7, 75, 95
1, 62640, Note_on_c, 7, 75, 0
1, 62640, Note_on_c, 9, 35, 0
1, 62640, Note_on_c, 9, 55, 0
1, 62640, Note_on_c, 7, 70, 95
1, 62760, Note_on_c, 7, 70, 0
1, 62760, Note_on_c, 7, 63, 95
1, 62880, Note_on_c, 7, 63, 0
1, 62880, Note_on_c, 3, 67, 0
1, 62880, Note_on_c, 3, 65, 95
1, 62880, Note_on_c, 7, 75, 95
1, 62880, Note_on_c, 9, 55, 95
1, 62880, Note_on_c, 9, 37, 95
1, 63000, Note_on_c, 7, 75, 0
1, 63000, Note_on_c, 7, 70, 95
1, 63120, Note_on_c, 7, 70, 0
1, 63120, Note_on_c, 3, 65, 0
1, 63120, Note_on_c, 3, 63, 95
1, 63120, Note_on_c, 7, 63, 95
1, 63240, Note_on_c, 7, 63, 0
1, 63240, Note_on_c, 3, 63, 0
1, 63240, Note_on_c, 3, 65, 95
1, 63240, Note_on_c, 7, 75, 95
1, 63360, Note_on_c, 7, 75, 0
1, 63360, Note_on_c, 6, 55, 0
1, 63360, Note_on_c, 1, 36, 0
1, 63360, Note_on_c, 6, 63, 0
1, 63360, Note_on_c, 6, 43, 0
1, 63360, Note_on_c, 9, 37, 0
1, 63360, Note_on_c, 9, 55, 0
1, 63360, Note_on_c, 1, 34, 95
1, 63360, Note_on_c, 6, 63, 95
1, 63360, Note_on_c, 6, 58, 95
1, 63360, Note_on_c, 6, 46, 95
1, 63360, Note_on_c, 7, 70, 95
1, 63360, Note_on_c, 9, 55, 95
1, 63360, Note_on_c, 9, 35, 95
1, 63480, Note_on_c, 7, 70, 0
1, 63480, Note_on_c, 7, 63, 95
1, 63600, Note_on_c, 7, 63, 0
1, 63600, Note_on_c, 7, 75, 95
1, 63720, Note_on_c, 7, 75, 0
1, 63720, Note_on_c, 7, 70, 95
1, 63840, Note_on_c, 7, 70, 0
1, 63840, Note_on_c, 9, 35, 0
1, 63840, Note_on_c, 9, 55, 0
1, 63840, Note_on_c, 7, 63, 95
1, 63840, Note_on_c, 9, 55, 95
1, 63840, Note_on_c, 9, 37, 95
1, 63960, Note_on_c, 7, 63, 0
1, 63960, Note_on_c, 7, 75, 95
1, 64080, Note_on_c, 7, 75, 0
1, 64080, Note_on_c, 9, 37, 0
1, 64080, Note_on_c, 9, 55, 0
1, 64080, Note_on_c, 7, 70, 95
1, 64200, Note_on_c, 7, 70, 0
1, 64200, Note_on_c, 7, 63, 95
1, 64200, Note_on_c, 9, 35, 95
1, 64320, Note_on_c, 9, 35, 0
1, 64320, Note_on_c, 3, 65, 0
1, 64320, Note_on_c, 7, 63, 0
1, 64320, Note_on_c, 7, 74, 95
1, 64320, Note_on_c, 9, 55, 95
1, 64320, Note_on_c, 9, 35, 95
1, 64440, Note_on_c, 7, 74, 0
1, 64440, Note_on_c, 7, 70, 95
1, 64560, Note_on_c, 7, 70, 0
1, 64560, Note_on_c, 9, 35, 0
1, 64560, Note_on_c, 9, 55, 0
1, 64560, Note_on_c, 3, 58, 95
1, 64560, Note_on_c, 7, 63, 95
1, 64560, Note_on_c, 9, 35, 95
1, 64680, Note_on_c, 7, 63, 0
1, 64680, Note_on_c, 7, 74, 95
1, 64800, Note_on_c, 7, 74, 0
1, 64800, Note_on_c, 9, 35, 0
1, 64800, Note_on_c, 3, 58, 0
1, 64800, Note_on_c, 3, 63, 95
1, 64800, Note_on_c, 7, 70, 95
1, 64800, Note_on_c, 9, 55, 95
1, 64800, Note_on_c, 9, 37, 95
1, 64920, Note_on_c, 7, 70, 0
1, 64920, Note_on_c, 7, 63, 95
1, 65040, Note_on_c, 7, 63, 0
1, 65040, Note_on_c, 9, 37, 0
1, 65040, Note_on_c, 3, 63, 0
1, 65040, Note_on_c, 9, 55, 0
1, 65040, Note_on_c, 3, 62, 95
1, 65040, Note_on_c, 7, 75, 95
1, 65040, Note_on_c, 9, 35, 95
1, 65160, Note_on_c, 7, 75, 0
1, 65160, Note_on_c, 3, 62, 0
1, 65160, Note_on_c, 3, 60, 95
1, 65160, Note_on_c, 7, 70, 95
1, 65280, Note_on_c, 7, 70, 0
1, 65280, Note_on_c, 9, 35, 0
1, 65280, Note_on_c, 6, 46, 0
1, 65280, Note_on_c, 6, 58, 0
1, 65280, Note_on_c, 1, 34, 0
1, 65280, Note_on_c, 6, 63, 0
1, 65280, Note_on_c, 1, 32, 95
1, 65280, Note_on_c, 6, 63, 95
1, 65280, Note_on_c, 6, 56, 95
1, 65280, Note_on_c, 6, 44, 95
1, 65280, Note_on_c, 7, 63, 95
1, 65280, Note_on_c, 9, 55, 95
1, 65280, Note_on_c, 9, 35, 95
1, 65400, Note_on_c, 7, 63, 0
1, 65400, Note_on_c, 7, 75, 95
1, 65520, Note_on_c, 7, 75, 0
1, 65520, Note_on_c, 7, 70, 95
1, 65640, Note_on_c, 7, 70, 0
1, 65640, Note_on_c, 7, 63, 95
1, 65760, Note_on_c, 7, 63, 0
1, 65760, Note_on_c, 9, 35, 0
1, 65760, Note_on_c, 9, 55, 0
1, 65760, Note_on_c, 7, 75, 95
1, 65760, Note_on_c, 9, 55, 95
1, 65760, Note_on_c, 9, 37, 95
1, 65880, Note_on_c, 7, 75, 0
1, 65880, Note_on_c, 7, 70, 95
1, 66000, Note_on_c, 7, 70, 0
1, 66000, Note_on_c, 9, 37, 0
1, 66000, Note_on_c, 9, 55, 0
1, 66000, Note_on_c, 7, 63, 95
1, 66120, Note_on_c, 7, 63, 0
1, 66120, Note_on_c, 7, 75, 95
1, 66120, Note_on_c, 9, 35, 95
1, 66240, Note_on_c, 9, 35, 0
1, 66240, Note_on_c, 1, 32, 0
1, 66240, Note_on_c, 6, 44, 0
1, 66240, Note_on_c, 6, 63, 0
1, 66240, Note_on_c, 3, 60, 0
1, 66240, Note_on_c, 7, 75, 0
1, 66240, Note_on_c, 6, 56, 0
1, 66240, Note_on_c, 1, 39, 95
1, 66240, Note_on_c, 3, 58, 95
1, 66240, Note_on_c, 6, 63, 95
1, 66240, Note_on_c, 6, 55, 95
1, 66240, Note_on_c, 6, 43, 95
1, 66240, Note_on_c, 7, 70, 95
1, 66240, Note_on_c, 9, 55, 95
1, 66240, Note_on_c, 9, 35, 95
1, 66360, Note_on_c, 7, 70, 0
1, 66360, Note_on_c, 7, 63, 95
1, 66480, Note_on_c, 7, 63, 0
1, 66480, Note_on_c, 9, 35, 0
1, 66480, Note_on_c, 9, 55, 0
1, 66480, Note_on_c, 7, 75, 95
1, 66600, Note_on_c, 7, 75, 0
1, 66600, Note_on_c, 7, 70, 95
1, 66720, Note_on_c, 7, 70, 0
1, 66720, Note_on_c, 7, 63, 95
1, 66720, Note_on_c, 9, 55, 95
1, 66720, Note_on_c, 9, 37, 95
1, 66840, Note_on_c, 7, 63, 0
1, 66840, Note_on_c, 7, 75, 95
1, 66960, Note_on_c, 7, 75, 0
1, 66960, Note_on_c, 7, 70, 95
1, 67080, Note_on_c, 7, 70, 0
1, 67080, Note_on_c, 7, 63, 95
1, 67200, Note_on_c, 7, 63, 0
1, 67200, Note_on_c, 1, 39, 0
1, 67200, Note_on_c, 3, 58, 0
1, 67200, Note_on_c, 6, 43, 0
1, 67200, Note_on_c, 6, 63, 0
1, 67200, Note_on_c, 6, 55, 0
1, 67200, Note_on_c, 9, 55, 0
1, 67200, Note_on_c, 9, 37, 0
1, 67200, Note_on_c, 1, 31, 95
1, 67200, Note_on_c, 3, 65, 95
1, 67200, Note_on_c, 3, 62, 95
1, 67200, Note_on_c, 6, 62, 95
1, 67200, Note_on_c, 6, 58, 95
1, 67200, Note_on_c, 6, 46, 95
1, 67200, Note_on_c, 7, 75, 95
1, 67200, Note_on_c, 9, 55, 95
1, 67200, Note_on_c, 9, 35, 95
1, 67320, Note_on_c, 7, 75, 0
1, 67320, Note_on_c, 7, 70, 95
1, 67440, Note_on_c, 7, 70, 0
1, 67440, Note_on_c, 7, 63, 95
1, 67560, Note_on_c, 7, 63, 0
1, 67560, Note_on_c, 7, 75, 95
1, 67680, Note_on_c, 7, 75, 0
1, 67680, Note_on_c, 9, 35, 0
1, 67680, Note_on_c, 9, 55, 0
1, 67680, Note_on_c, 7, 70, 95
1, 67680, Note_on_c, 9, 55, 95
1, 67680, Note_on_c, 9, 37, 95
1, 67800, Note_on_c, 7, 70, 0
1, 67800, Note_on_c, 7, 63, 95
1, 67920, Note_on_c, 7, 63, 0
1, 67920, Note_on_c, 9, 37, 0
1, 67920, Note_on_c, 9, 55, 0
1, 67920, Note_on_c, 7, 75, 95
1, 68040, Note_on_c, 7, 75, 0
1, 68040, Note_on_c, 7, 70, 95
1, 68040, Note_on_c, 9, 35, 95
1, 68160, Note_on_c, 9, 35, 0
1, 68160, Note_on_c, 1, 31, 0
1, 68160, Note_on_c, 6, 46, 0
1, 68160, Note_on_c, 3, 65, 0
1, 68160, Note_on_c, 3, 62, 0
1, 68160, Note_on_c, 6, 62, 0
1, 68160, Note_on_c, 6, 58, 0
1, 68160, Note_on_c, 7, 70, 0
1, 68160, Note_on_c, 1, 32, 95
1, 68160, Note_on_c, 3, 63, 95
1, 68160, Note_on_c, 3, 60, 95
1, 68160, Note_on_c, 6, 63, 95
1, 68160, Note_on_c, 6, 56, 95
1, 68160, Note_on_c, 6, 44, 95
1, 68160, Note_on_c, 7, 63, 95
1, 68160, Note_on_c, 9, 55, 95
1, 68160, Note_on_c, 9, 35, 95
1, 68280, Note_on_c, 7, 63, 0
1, 68280, Note_on_c, 7, 75, 95
1, 68400, Note_on_c, 7, 75, 0
1, 68400, Note_on_c, 9, 35, 0
1, 68400, Note_on_c, 9, 55, 0
1, 68400, Note_on_c, 7, 70, 95
1, 68400, Note_on_c, 9, 35, 95
1, 68520, Note_on_c, 7, 70, 0
1, 68520, Note_on_c, 7, 63, 95
1, 68640, Note_on_c, 7, 63, 0
1, 68640, Note_on_c, 9, 35, 0
1, 68640, Note_on_c, 7, 75, 95
1, 68640, Note_on_c, 9, 55, 95
1, 68640, Note_on_c, 9, 37, 95
1, 68760, Note_on_c, 7, 75, 0
1, 68760, Note_on_c, 7, 70, 95
1, 68880, Note_on_c, 7, 70, 0
1, 68880, Note_on_c, 9, 37, 0
1, 68880, Note_on_c, 9, 55, 0
1, 68880, Note_on_c, 7, 63, 95
1, 68880, Note_on_c, 9, 35, 95
1, 69000, Note_on_c, 7, 63, 0
1, 69000, Note_on_c, 7, 75, 95
1, 69120, Note_on_c, 7, 75, 0
1, 69120, Note_on_c, 6, 63, 0
1, 69120, Note_on_c, 6, 44, 0
1, 69120, Note_on_c, 3, 63, 0
1, 69120, Note_on_c, 3, 60, 0
1, 69120, Note_on_c, 9, 35, 0
1, 69120, Note_on_c, 6, 56, 0
1, 69120, Note_on_c, 1, 32, 0
1, 69120, Note_on_c, 1, 32, 95
1, 69120, Note_on_c, 3, 60, 95
1, 69120, Note_on_c, 6, 63, 95
1, 69120, Note_on_c, 6, 56, 95
1, 69120, Note_on_c, 6, 44, 95
1, 69120, Note_on_c, 7, 70, 95
1, 69120, Note_on_c, 9, 55, 95
1, 69120, Note_on_c, 9, 35, 95
1, 69240, Note_on_c, 7, 70, 0
1, 69240, Note_on_c, 7, 63, 95
1, 69360, Note_on_c, 7, 63, 0
1, 69360, Note_on_c, 3, 60, 0
1, 69360, Note_on_c, 3, 60, 95
1, 69360, Note_on_c, 7, 75, 95
1, 69480, Note_on_c, 7, 75, 0
1, 69480, Note_on_c, 3, 60, 0
1, 69480, Note_on_c, 3, 63, 95
1, 69480, Note_on_c, 7, 70, 95
1, 69600, Note_on_c, 7, 70, 0
1, 69600, Note_on_c, 9, 55, 0
1, 69600, Note_on_c, 9, 35, 0
1, 69600, Note_on_c, 7, 63, 95
1, 69600, Note_on_c, 9, 55, 95
1, 69600, Note_on_c, 9, 37, 95
1, 69720, Note_on_c, 7, 63, 0
1, 69720, Note_on_c, 7, 75, 95
1, 69840, Note_on_c, 7, 75, 0
1, 69840, Note_on_c, 9, 37, 0
1, 69840, Note_on_c, 3, 63, 0
1, 69840, Note_on_c, 9, 55, 0
1, 69840, Note_on_c, 3, 67, 95
1, 69840, Note_on_c, 7, 70, 95
1, 69960, Note_on_c, 7, 70, 0
1, 69960, Note_on_c, 7, 63, 95
1, 69960, Note_on_c, 9, 35, 95
1, 70080, Note_on_c, 9, 35, 0
1, 70080, Note_on_c, 6, 63, 0
1, 70080, Note_on_c, 3, 67, 0
1, 70080, Note_on_c, 1, 32, 0
1, 70080, Note_on_c, 6, 44, 0
1, 70080, Note_on_c, 7, 63, 0
1, 70080, Note_on_c, 6, 56, 0
1, 70080, Note_on_c, 1, 39, 95
1, 70080, Note_on_c, 3, 65, 95
1, 70080, Note_on_c, 6, 67, 95
1, 70080, Note_on_c, 6, 63, 95
1, 70080, Note_on_c, 6, 55, 95
1, 70080, Note_on_c, 7, 75, 95
1, 70080, Note_on_c, 9, 55, 95
1, 70080, Note_on_c, 9, 35, 95
1, 70200, Note_on_c, 7, 75, 0
1, 70200, Note_on_c, 3, 65, 0
1, 70200, Note_on_c, 3, 63, 95
1, 70200, Note_on_c, 7, 70, 95
1, 70320, Note_on_c, 7, 70, 0
1, 70320, Note_on_c, 9, 35, 0
1, 70320, Note_on_c, 9, 55, 0
1, 70320, Note_on_c, 7, 63, 95
1, 70440, Note_on_c, 7, 63, 0
1, 70440, Note_on_c, 7, 75, 95
1, 70560, Note_on_c, 7, 75, 0
1, 70560, Note_on_c, 3, 63, 0
1, 70560, Note_on_c, 3, 58, 95
1, 70560, Note_on_c, 7, 70, 95
1, 70560, Note_on_c, 9, 55, 95
1, 70560, Note_on_c, 9, 37, 95
1, 70680, Note_on_c, 7, 70, 0
1, 70680, Note_on_c, 7, 63, 95
1, 70800, Note_on_c, 7, 63, 0
1, 70800, Note_on_c, 3, 58, 0
1, 70800, Note_on_c, 3, 58, 95
1, 70800, Note_on_c, 7, 75, 95
1, 70920, Note_on_c, 7, 75, 0
1, 70920, Note_on_c, 3, 58, 0
1, 70920, Note_on_c, 3, 60, 95
1, 70920, Note_on_c, 7, 70, 95
1, 71040, Note_on_c, 7, 70, 0
1, 71040, Note_on_c, 6, 63, 0
1, 71040, Note_on_c, 1, 39, 0
1, 71040, Note_on_c, 6, 67, 0
1, 71040, Note_on_c, 6, 55, 0
1, 71040, Note_on_c, 9, 37, 0
1, 71040, Note_on_c, 9, 55, 0
1, 71040, Note_on_c, 1, 32, 95
1, 71040, Note_on_c, 6, 63, 95
1, 71040, Note_on_c, 6, 56, 95
1, 71040, Note_on_c, 6, 44, 95
1, 71040, Note_on_c, 7, 70, 95
1, 71040, Note_on_c, 9, 55, 95
1, 71040, Note_on_c, 9, 35, 95
1, 71160, Note_on_c, 7, 70, 0
1, 71160, Note_on_c, 7, 63, 95
1, 71280, Note_on_c, 7, 63, 0
1, 71280, Note_on_c, 3, 60, 0
1, 71280, Note_on_c, 3, 60, 95
1, 71280, Note_on_c, 7, 75, 95
1, 71400, Note_on_c, 7, 75, 0
1, 71400, Note_on_c, 7, 70, 95
1, 71520, Note_on_c, 7, 70, 0
1, 71520, Note_on_c, 6, 44, 0
1, 71520, Note_on_c, 1, 32, 0
1, 71520, Note_on_c, 6, 63, 0
1, 71520, Note_on_c, 6, 56, 0
1, 71520, Note_on_c, 3, 60, 0
1, 71520, Note_on_c, 9, 55, 0
1, 71520, Note_on_c, 9, 35, 0
1, 71520, Note_on_c, 1, 34, 95
1, 71520, Note_on_c, 3, 63, 95
1, 71520, Note_on_c, 6, 65, 95
1, 71520, Note_on_c, 6, 58, 95
1, 71520, Note_on_c, 6, 46, 95
1, 71520, Note_on_c, 7, 63, 95
1, 71520, Note_on_c, 9, 55, 95
1, 71520, Note_on_c, 9, 37, 95
1, 71640, Note_on_c, 7, 63, 0
1, 71640, Note_on_c, 7, 75, 95
1, 71760, Note_on_c, 7, 75, 0
1, 71760, Note_on_c, 9, 37, 0
1, 71760, Note_on_c, 3, 63, 0
1, 71760, Note_on_c, 9, 55, 0
1, 71760, Note_on_c, 3, 65, 95
1, 71760, Note_on_c, 7, 70, 95
1, 71880, Note_on_c, 7, 70, 0
1, 71880, Note_on_c, 3, 65, 0
1, 71880, Note_on_c, 3, 60, 95
1, 71880, Note_on_c, 7, 63, 95
1, 71880, Note_on_c, 9, 35, 95
1, 72000, Note_on_c, 9, 35, 0
1, 72000, Note_on_c, 6, 46, 0
1, 72000, Note_on_c, 6, 65, 0
1, 72000, Note_on_c, 6, 58, 0
1, 72000, Note_on_c, 1, 34, 0
1, 72000, Note_on_c, 7, 63, 0
1, 72000, Note_on_c, 1, 36, 95
1, 72000, Note_on_c, 6, 67, 95
1, 72000, Note_on_c, 6, 60, 95
1, 72000, Note_on_c, 6, 48, 95
1, 72000, Note_on_c, 7, 74, 95
1, 72000, Note_on_c, 9, 55, 95
1, 72120, Note_on_c, 9, 55, 0
1, 72120, Note_on_c, 7, 74, 0
1, 72120, Note_on_c, 7, 70, 95
1, 72240, Note_on_c, 7, 70, 0
1, 72240, Note_on_c, 7, 63, 95
1, 72240, Note_on_c, 9, 35, 95
1, 72360, Note_on_c, 7, 63, 0
1, 72360, Note_on_c, 7, 74, 95
1, 72480, Note_on_c, 7, 74, 0
1, 72480, Note_on_c, 9, 35, 0
1, 72480, Note_on_c, 7, 70, 95
1, 72480, Note_on_c, 9, 55, 95
1, 72480, Note_on_c, 9, 37, 95
1, 72600, Note_on_c, 9, 37, 0
1, 72600, Note_on_c, 9, 55, 0
1, 72600, Note_on_c, 7, 70, 0
1, 72600, Note_on_c, 7, 63, 95
1, 72720, Note_on_c, 7, 63, 0
1, 72720, Note_on_c, 7, 75, 95
1, 72720, Note_on_c, 9, 35, 95
1, 72840, Note_on_c, 9, 35, 0
1, 72840, Note_on_c, 3, 60, 0
1, 72840, Note_on_c, 7, 75, 0
1, 72840, Note_on_c, 3, 58, 95
1, 72840, Note_on_c, 7, 70, 95
1, 72960, Note_on_c, 7, 70, 0
1, 72960, Note_on_c, 6, 67, 0
1, 72960, Note_on_c, 1, 36, 0
1, 72960, Note_on_c, 6, 48, 0
1, 72960, Note_on_c, 3, 58, 0
1, 72960, Note_on_c, 6, 60, 0
1, 72960, Note_on_c, 1, 32, 95
1, 72960, Note_on_c, 3, 60, 95
1, 72960, Note_on_c, 6, 63, 95
1, 72960, Note_on_c, 6, 56, 95
1, 72960, Note_on_c, 6, 44, 95
1, 72960, Note_on_c, 7, 63, 95
1, 72960, Note_on_c, 9, 55, 95
1, 72960, Note_on_c, 9, 35, 95
1, 73080, Note_on_c, 7, 63, 0
1, 73080, Note_on_c, 7, 75, 95
1, 73200, Note_on_c, 7, 75, 0
1, 73200, Note_on_c, 3, 60, 0
1, 73200, Note_on_c, 3, 63, 95
1, 73200, Note_on_c, 7, 70, 95
1, 73320, Note_on_c, 7, 70, 0
1, 73320, Note_on_c, 3, 63, 0
1, 73320, Note_on_c, 3, 63, 95
1, 73320, Note_on_c, 7, 63, 95
1, 73440, Note_on_c, 7, 63, 0
1, 73440, Note_on_c, 9, 55, 0
1, 73440, Note_on_c, 9, 35, 0
1, 73440, Note_on_c, 7, 75, 95
1, 73440, Note_on_c, 9, 55, 95
1, 73440, Note_on_c, 9, 37, 95
1, 73560, Note_on_c, 7, 75, 0
1, 73560, Note_on_c, 7, 70, 95
1, 73680, Note_on_c, 7, 70, 0
1, 73680, Note_on_c, 9, 37, 0
1, 73680, Note_on_c, 3, 63, 0
1, 73680, Note_on_c, 9, 55, 0
1, 73680, Note_on_c, 3, 67, 95
1, 73680, Note_on_c, 7, 63, 95
1, 73800, Note_on_c, 7, 63, 0
1, 73800, Note_on_c, 7, 75, 95
1, 73800, Note_on_c, 9, 35, 95
1, 73920, Note_on_c, 9, 35, 0
1, 73920, Note_on_c, 6, 63, 0
1, 73920, Note_on_c, 3, 67, 0
1, 73920, Note_on_c, 1, 32, 0
1, 73920, Note_on_c, 6, 44, 0
1, 73920, Note_on_c, 7, 75, 0
1, 73920, Note_on_c, 6, 56, 0
1, 73920, Note_on_c, 1, 39, 95
1, 73920, Note_on_c, 3, 65, 95
1, 73920, Note_on_c, 6, 58, 95
1, 73920, Note_on_c, 6, 55, 95
1, 73920, Note_on_c, 6, 43, 95
1, 73920, Note_on_c, 7, 70, 95
1, 73920, Note_on_c, 9, 55, 95
1, 73920, Note_on_c, 9, 35, 95
1, 74040, Note_on_c, 7, 70, 0
1, 74040, Note_on_c, 3, 65, 0
1, 74040, Note_on_c, 3, 63, 95
1, 74040, Note_on_c, 7, 63, 95
1, 74160, Note_on_c, 7, 63, 0
1, 74160, Note_on_c, 9, 35, 0
1, 74160, Note_on_c, 9, 55, 0
1, 74160, Note_on_c, 7, 75, 95
1, 74280, Note_on_c, 7, 75, 0
1, 74280, Note_on_c, 7, 70, 95
1, 74400, Note_on_c, 7, 70, 0
1, 74400, Note_on_c, 3, 63, 0
1, 74400, Note_on_c, 3, 58, 95
1, 74400, Note_on_c, 7, 63, 95
1, 74400, Note_on_c, 9, 55, 95
1, 74400, Note_on_c, 9, 37, 95
1, 74520, Note_on_c, 7, 63, 0
1, 74520, Note_on_c, 7, 75, 95
1, 74640, Note_on_c, 7, 75, 0
1, 74640, Note_on_c, 3, 58, 0
1, 74640, Note_on_c, 3, 63, 95
1, 74640, Note_on_c, 7, 70, 95
1, 74760, Note_on_c, 7, 70, 0
1, 74760, Note_on_c, 3, 63, 0
1, 74760, Note_on_c, 3, 65, 95
1, 74760, Note_on_c, 7, 63, 95
1, 74880, Note_on_c, 7, 63, 0
1, 74880, Note_on_c, 6, 55, 0
1, 74880, Note_on_c, 1, 39, 0
1, 74880, Note_on_c, 6, 58, 0
1, 74880, Note_on_c, 6, 43, 0
1, 74880, Note_on_c, 9, 37, 0
1, 74880, Note_on_c, 9, 55, 0
1, 74880, Note_on_c, 1, 34, 95
1, 74880, Note_on_c, 6, 65, 95
1, 74880, Note_on_c, 6, 58, 95
1, 74880, Note_on_c, 6, 53, 95
1, 74880, Note_on_c, 6, 46, 95
1, 74880, Note_on_c, 7, 75, 95
1, 74880, Note_on_c, 9, 55, 95
1, 74880, Note_on_c, 9, 35, 95
1, 75000, Note_on_c, 9, 35, 0
1, 75000, Note_on_c, 9, 55, 0
1, 75000, Note_on_c, 7, 75, 0
1, 75000, Note_on_c, 7, 70, 95
1, 75000, Note_on_c, 9, 35, 95
1, 75120, Note_on_c, 9, 35, 0
1, 75120, Note_on_c, 7, 70, 0
1, 75120, Note_on_c, 7, 63, 95
1, 75240, Note_on_c, 7, 63, 0
1, 75240, Note_on_c, 7, 75, 95
1, 75360, Note_on_c, 7, 75, 0
1, 75360, Note_on_c, 7, 70, 95
1, 75360, Note_on_c, 9, 55, 95
1, 75360, Note_on_c, 9, 37, 95
1, 75480, Note_on_c, 7, 70, 0
1, 75480, Note_on_c, 7, 63, 95
1, 75600, Note_on_c, 7, 63, 0
1, 75600, Note_on_c, 9, 37, 0
1, 75600, Note_on_c, 9, 55, 0
1, 75600, Note_on_c, 7, 74, 95
1, 75720, Note_on_c, 7, 74, 0
1, 75720, Note_on_c, 7, 70, 95
1, 75720, Note_on_c, 9, 35, 95
1, 75840, Note_on_c, 9, 35, 0
1, 75840, Note_on_c, 7, 70, 0
1, 75840, Note_on_c, 7, 63, 95
1, 75840, Note_on_c, 9, 55, 95
1, 75960, Note_on_c, 9, 55, 0
1, 75960, Note_on_c, 7, 63, 0
1, 75960, Note_on_c, 7, 74, 95
1, 75960, Note_on_c, 9, 35, 95
1, 76080, Note_on_c, 9, 35, 0
1, 76080, Note_on_c, 7, 74, 0
1, 76080, Note_on_c, 3, 65, 0
1, 76080, Note_on_c, 3, 67, 95
1, 76080, Note_on_c, 7, 70, 95
1, 76080, Note_on_c, 9, 35, 95
1, 76200, Note_on_c, 7, 70, 0
1, 76200, Note_on_c, 7, 63, 95
1, 76320, Note_on_c, 7, 63, 0
1, 76320, Note_on_c, 6, 53, 0
1, 76320, Note_on_c, 6, 65, 0
1, 76320, Note_on_c, 6, 46, 0
1, 76320, Note_on_c, 6, 58, 0
1, 76320, Note_on_c, 9, 35, 0
1, 76320, Note_on_c, 3, 67, 0
1, 76320, Note_on_c, 1, 34, 0
1, 76320, Note_on_c, 1, 36, 95
1, 76320, Note_on_c, 3, 65, 95
1, 76320, Note_on_c, 6, 67, 95
1, 76320, Note_on_c, 6, 60, 95
1, 76320, Note_on_c, 6, 55, 95
1, 76320, Note_on_c, 6, 48, 95
1, 76560, Note_on_c, 3, 65, 0
1, 76560, Note_on_c, 3, 63, 95
1, 76680, Note_on_c, 3, 63, 0
1, 76680, Note_on_c, 3, 63, 95
1, 76800, Note_on_c, 3, 63, 0
1, 76800, Note_on_c, 6, 67, 0
1, 76800, Note_on_c, 6, 60, 0
1, 76800, Note_on_c, 1, 36, 0
1, 76800, Note_on_c, 6, 48, 0
1, 76800, Note_on_c, 6, 55, 0
1, 76800, Note_on_c, 0, 56, 95
1, 76800, Note_on_c, 1, 32, 95
1, 77040, Note_on_c, 0, 56, 0
1, 77040, Note_on_c, 0, 72, 95
1, 77160, Note_on_c, 0, 72, 0
1, 77160, Note_on_c, 0, 63, 95
1, 77280, Note_on_c, 0, 63, 0
1, 77280, Note_on_c, 0, 56, 95
1, 77400, Note_on_c, 0, 56, 0
1, 77400, Note_on_c, 0, 70, 95
1, 77520, Note_on_c, 0, 70, 0
1, 77640, Note_on_c, 0, 63, 95
1, 77760, Note_on_c, 0, 63, 0
1, 77760, Note_on_c, 1, 32, 0
1, 77760, Note_on_c, 0, 72, 95
1, 77880, Note_on_c, 0, 72, 0
1, 77880, Note_on_c, 0, 56, 95
1, 78000, Note_on_c, 0, 56, 0
1, 78000, Note_on_c, 0, 72, 95
1, 78120, Note_on_c, 0, 72, 0
1, 78120, Note_on_c, 0, 70, 95
1, 78240, Note_on_c, 0, 70, 0
1, 78240, Note_on_c, 0, 60, 95
1, 78360, Note_on_c, 0, 60, 0
1, 78360, Note_on_c, 0, 75, 95
1, 78480, Note_on_c, 0, 75, 0
1, 78480, Note_on_c, 0, 77, 95
1, 78600, Note_on_c, 0, 77, 0
1, 78720, Note_on_c, 1, 34, 95
1, 78720, Note_on_c, 2, 70, 95
1, 78720, Note_on_c, 4, 62, 95
1, 78720, Note_on_c, 4, 50, 95
1, 78720, Note_on_c, 9, 57, 95
1, 78720, Note_on_c, 9, 35, 95
1, 78900, Note_on_c, 4, 50, 0
1, 78900, Note_on_c, 4, 62, 0
1, 78960, Note_on_c, 3, 58, 95
1, 79080, Note_on_c, 9, 57, 0
1, 79080, Note_on_c, 1, 34, 0
1, 79080, Note_on_c, 9, 35, 0
1, 79080, Note_on_c, 1, 34, 95
1, 79080, Note_on_c, 4, 63, 95
1, 79080, Note_on_c, 4, 51, 95
1, 79080, Note_on_c, 9, 35, 95
1, 79200, Note_on_c, 9, 35, 0
1, 79200, Note_on_c, 4, 63, 0
1, 79200, Note_on_c, 3, 58, 0
1, 79200, Note_on_c, 4, 51, 0
1, 79200, Note_on_c, 3, 65, 95
1, 79200, Note_on_c, 9, 37, 95
1, 79320, Note_on_c, 1, 34, 0
1, 79440, Note_on_c, 3, 65, 0
1, 79440, Note_on_c, 3, 63, 95
1, 79440, Note_on_c, 4, 58, 95
1, 79440, Note_on_c, 4, 46, 95
1, 79560, Note_on_c, 4, 46, 0
1, 79560, Note_on_c, 9, 37, 0
1, 79560, Note_on_c, 4, 58, 0
1, 79680, Note_on_c, 3, 63, 0
1, 79680, Note_on_c, 3, 65, 95
1, 79680, Note_on_c, 4, 62, 95
1, 79680, Note_on_c, 4, 50, 95
1, 79800, Note_on_c, 4, 50, 0
1, 79800, Note_on_c, 4, 62, 0
1, 79800, Note_on_c, 3, 65, 0
1, 79800, Note_on_c, 3, 63, 95
1, 79920, Note_on_c, 1, 39, 95
1, 79920, Note_on_c, 9, 35, 95
1, 80040, Note_on_c, 4, 63, 95
1, 80040, Note_on_c, 4, 51, 95
1, 80160, Note_on_c, 4, 51, 0
1, 80160, Note_on_c, 3, 63, 0
1, 80160, Note_on_c, 1, 39, 0
1, 80160, Note_on_c, 2, 70, 0
1, 80160, Note_on_c, 4, 63, 0
1, 80160, Note_on_c, 9, 35, 0
1, 80160, Note_on_c, 2, 67, 95
1, 80160, Note_on_c, 3, 65, 95
1, 80160, Note_on_c, 9, 37, 95
1, 80400, Note_on_c, 9, 37, 0
1, 80400, Note_on_c, 3, 65, 0
1, 80400, Note_on_c, 3, 63, 95
1, 80400, Note_on_c, 4, 58, 95
1, 80400, Note_on_c, 4, 46, 95
1, 80520, Note_on_c, 4, 46, 0
1, 80520, Note_on_c, 4, 58, 0
1, 80520, Note_on_c, 3, 63, 0
1, 80520, Note_on_c, 3, 60, 95
1, 80640, Note_on_c, 2, 67, 0
1, 80640, Note_on_c, 1, 32, 95
1, 80640, Note_on_c, 2, 68, 95
1, 80640, Note_on_c, 4, 56, 95
1, 80640, Note_on_c, 4, 44, 95
1, 80640, Note_on_c, 9, 35, 95
1, 80820, Note_on_c, 4, 44, 0
1, 80820, Note_on_c, 4, 56, 0
1, 81000, Note_on_c, 1, 32, 0
1, 81000, Note_on_c, 9, 35, 0
1, 81000, Note_on_c, 1, 32, 95
1, 81000, Note_on_c, 4, 60, 95
1, 81000, Note_on_c, 4, 48, 95
1, 81000, Note_on_c, 9, 35, 95
1, 81120, Note_on_c, 9, 35, 0
1, 81120, Note_on_c, 4, 60, 0
1, 81120, Note_on_c, 3, 60, 0
1, 81120, Note_on_c, 4, 48, 0
1, 81120, Note_on_c, 3, 58, 95
1, 81120, Note_on_c, 7, 70, 95
1, 81120, Note_on_c, 9, 37, 95
1, 81240, Note_on_c, 1, 32, 0
1, 81360, Note_on_c, 9, 37, 0
1, 81360, Note_on_c, 1, 32, 95
1, 81360, Note_on_c, 4, 56, 95
1, 81360, Note_on_c, 4, 44, 95
1, 81360, Note_on_c, 9, 35, 95
1, 81480, Note_on_c, 4, 44, 0
1, 81480, Note_on_c, 7, 70, 0
1, 81480, Note_on_c, 3, 58, 0
1, 81480, Note_on_c, 4, 56, 0
1, 81480, Note_on_c, 3, 60, 95
1, 81480, Note_on_c, 7, 72, 95
1, 81600, Note_on_c, 9, 35, 0
1, 81600, Note_on_c, 1, 32, 0
1, 81600, Note_on_c, 4, 68, 95
1, 81600, Note_on_c, 4, 56, 95
1, 81720, Note_on_c, 4, 56, 0
1, 81720, Note_on_c, 7, 72, 0
1, 81720, Note_on_c, 4, 68, 0
1, 81720, Note_on_c, 3, 60, 0
1, 81720, Note_on_c, 3, 63, 95
1, 81720, Note_on_c, 7, 75, 95
1, 81840, Note_on_c, 1, 32, 95
1, 81840, Note_on_c, 9, 35, 95
1, 81960, Note_on_c, 7, 75, 0
1, 81960, Note_on_c, 3, 63, 0
1, 81960, Note_on_c, 3, 58, 95
1, 81960, Note_on_c, 4, 67, 95
1, 81960, Note_on_c, 4, 55, 95
1, 81960, Note_on_c, 7, 70, 95
1, 82080, Note_on_c, 7, 70, 0
1, 82080, Note_on_c, 4, 67, 0
1, 82080, Note_on_c, 1, 32, 0
1, 82080, Note_on_c, 2, 68, 0
1, 82080, Note_on_c, 9, 35, 0
1, 82080, Note_on_c, 4, 55, 0
1, 82080, Note_on_c, 3, 58, 0
1, 82080, Note_on_c, 2, 70, 95
1, 82080, Note_on_c, 3, 60, 95
1, 82080, Note_on_c, 7, 72, 95
1, 82080, Note_on_c, 9, 37, 95
1, 82320, Note_on_c, 7, 72, 0
1, 82320, Note_on_c, 3, 60, 0
1, 82320, Note_on_c, 3, 63, 95
1, 82320, Note_on_c, 3, 58, 95
1, 82320, Note_on_c, 4, 63, 95
1, 82320, Note_on_c, 4, 51, 95
1, 82320, Note_on_c, 7, 70, 95
1, 82440, Note_on_c, 4, 51, 0
1, 82440, Note_on_c, 9, 37, 0
1, 82440, Note_on_c, 4, 63, 0
1, 82440, Note_on_c, 1, 32, 95
1, 82440, Note_on_c, 9, 35, 95
1, 82560, Note_on_c, 9, 35, 0
1, 82560, Note_on_c, 3, 63, 0
1, 82560, Note_on_c, 7, 70, 0
1, 82560, Note_on_c, 2, 70, 0
1, 82560, Note_on_c, 1, 32, 0
1, 82560, Note_on_c, 1, 34, 95
1, 82560, Note_on_c, 2, 65, 95
1, 82560, Note_on_c, 4, 62, 95
1, 82560, Note_on_c, 4, 50, 95
1, 82560, Note_on_c, 7, 70, 95
1, 82560, Note_on_c, 9, 35, 95
1, 82680, Note_on_c, 3, 58, 95
1, 82740, Note_on_c, 4, 50, 0
1, 82740, Note_on_c, 4, 62, 0
1, 82800, Note_on_c, 3, 58, 0
1, 82800, Note_on_c, 3, 65, 95
1, 82920, Note_on_c, 1, 34, 0
1, 82920, Note_on_c, 9, 35, 0
1, 82920, Note_on_c, 1, 46, 95
1, 82920, Note_on_c, 4, 63, 95
1, 82920, Note_on_c, 4, 51, 95
1, 82920, Note_on_c, 9, 35, 95
1, 83040, Note_on_c, 9, 35, 0
1, 83040, Note_on_c, 4, 51, 0
1, 83040, Note_on_c, 3, 58, 0
1, 83040, Note_on_c, 3, 65, 0
1, 83040, Note_on_c, 7, 70, 0
1, 83040, Note_on_c, 4, 63, 0
1, 83040, Note_on_c, 3, 65, 95
1, 83040, Note_on_c, 9, 37, 95
1, 83160, Note_on_c, 1, 46, 0
1, 83280, Note_on_c, 3, 65, 0
1, 83280, Note_on_c, 3, 63, 95
1, 83280, Note_on_c, 4, 58, 95
1, 83280, Note_on_c, 4, 46, 95
1, 83400, Note_on_c, 4, 46, 0
1, 83400, Note_on_c, 9, 37, 0
1, 83400, Note_on_c, 4, 58, 0
1, 83520, Note_on_c, 3, 63, 0
1, 83520, Note_on_c, 3, 65, 95
1, 83520, Note_on_c, 4, 62, 95
1, 83520, Note_on_c, 4, 50, 95
1, 83640, Note_on_c, 4, 50, 0
1, 83640, Note_on_c, 4, 62, 0
1, 83640, Note_on_c, 3, 65, 0
1, 83640, Note_on_c, 3, 63, 95
1, 83760, Note_on_c, 1, 39, 95
1, 83760, Note_on_c, 9, 35, 95
1, 83880, Note_on_c, 3, 63, 0
1, 83880, Note_on_c, 3, 58, 95
1, 83880, Note_on_c, 4, 65, 95
1, 83880, Note_on_c, 4, 53, 95
1, 84000, Note_on_c, 4, 53, 0
1, 84000, Note_on_c, 1, 39, 0
1, 84000, Note_on_c, 2, 65, 0
1, 84000, Note_on_c, 9, 35, 0
1, 84000, Note_on_c, 4, 65, 0
1, 84000, Note_on_c, 3, 58, 0
1, 84000, Note_on_c, 2, 67, 95
1, 84000, Note_on_c, 3, 65, 95
1, 84000, Note_on_c, 9, 37, 95
1, 84120, Note_on_c, 9, 37, 0
1, 84120, Note_on_c, 1, 51, 95
1, 84120, Note_on_c, 9, 35, 95
1, 84240, Note_on_c, 9, 35, 0
1, 84240, Note_on_c, 3, 65, 0
1, 84240, Note_on_c, 3, 67, 95
1, 84240, Note_on_c, 4, 67, 95
1, 84240, Note_on_c, 4, 55, 95
1, 84360, Note_on_c, 4, 55, 0
1, 84360, Note_on_c, 3, 67, 0
1, 84360, Note_on_c, 4, 67, 0
1, 84360, Note_on_c, 1, 51, 0
1, 84360, Note_on_c, 3, 63, 95
1, 84480, Note_on_c, 2, 67, 0
1, 84480, Note_on_c, 1, 32, 95
1, 84480, Note_on_c, 2, 63, 95
1, 84480, Note_on_c, 4, 63, 95
1, 84480, Note_on_c, 4, 51, 95
1, 84480, Note_on_c, 9, 35, 95
1, 84660, Note_on_c, 4, 51, 0
1, 84660, Note_on_c, 4, 63, 0
1, 84840, Note_on_c, 1, 32, 0
1, 84840, Note_on_c, 9, 35, 0
1, 84840, Note_on_c, 1, 32, 95
1, 84840, Note_on_c, 4, 60, 95
1, 84840, Note_on_c, 4, 48, 95
1, 84840, Note_on_c, 9, 35, 95
1, 84960, Note_on_c, 9, 35, 0
1, 84960, Note_on_c, 4, 60, 0
1, 84960, Note_on_c, 3, 63, 0
1, 84960, Note_on_c, 4, 48, 0
1, 84960, Note_on_c, 3, 58, 95
1, 84960, Note_on_c, 7, 70, 95
1, 84960, Note_on_c, 9, 37, 95
1, 85080, Note_on_c, 1, 32, 0
1, 85200, Note_on_c, 9, 37, 0
1, 85200, Note_on_c, 4, 63, 95
1, 85200, Note_on_c, 4, 51, 95
1, 85320, Note_on_c, 4, 51, 0
1, 85320, Note_on_c, 7, 70, 0
1, 85320, Note_on_c, 4, 63, 0
1, 85320, Note_on_c, 3, 58, 0
1, 85320, Note_on_c, 1, 32, 95
1, 85320, Note_on_c, 3, 56, 95
1, 85320, Note_on_c, 7, 68, 95
1, 85320, Note_on_c, 9, 35, 95
1, 85440, Note_on_c, 9, 35, 0
1, 85440, Note_on_c, 1, 32, 0
1, 85560, Note_on_c, 7, 68, 0
1, 85560, Note_on_c, 3, 56, 0
1, 85560, Note_on_c, 1, 39, 95
1, 85560, Note_on_c, 3, 60, 95
1, 85560, Note_on_c, 4, 60, 95
1, 85560, Note_on_c, 4, 48, 95
1, 85560, Note_on_c, 7, 72, 95
1, 85560, Note_on_c, 9, 35, 95
1, 85680, Note_on_c, 9, 35, 0
1, 85680, Note_on_c, 4, 60, 0
1, 85680, Note_on_c, 1, 39, 0
1, 85680, Note_on_c, 4, 48, 0
1, 85680, Note_on_c, 1, 32, 95
1, 85680, Note_on_c, 9, 35, 95
1, 85800, Note_on_c, 3, 60, 0
1, 85800, Note_on_c, 7, 72, 0
1, 85800, Note_on_c, 3, 58, 95
1, 85800, Note_on_c, 7, 70, 95
1, 85920, Note_on_c, 7, 70, 0
1, 85920, Note_on_c, 2, 63, 0
1, 85920, Note_on_c, 9, 35, 0
1, 85920, Note_on_c, 1, 32, 0
1, 85920, Note_on_c, 3, 58, 0
1, 85920, Note_on_c, 2, 75, 95
1, 85920, Note_on_c, 3, 63, 95
1, 85920, Note_on_c, 4, 67, 95
1, 85920, Note_on_c, 4, 55, 95
1, 85920, Note_on_c, 7, 75, 95
1, 85920, Note_on_c, 9, 37, 95
1, 85980, Note_on_c, 4, 55, 0
1, 86040, Note_on_c, 4, 67, 0
1, 86160, Note_on_c, 7, 75, 0
1, 86160, Note_on_c, 3, 63, 0
1, 86160, Note_on_c, 9, 37, 0
1, 86160, Note_on_c, 1, 36, 95
1, 86160, Note_on_c, 3, 65, 95
1, 86160, Note_on_c, 4, 58, 95
1, 86160, Note_on_c, 4, 46, 95
1, 86160, Note_on_c, 7, 77, 95
1, 86160, Note_on_c, 9, 35, 95
1, 86280, Note_on_c, 4, 46, 0
1, 86280, Note_on_c, 4, 58, 0
1, 86280, Note_on_c, 4, 60, 95
1, 86280, Note_on_c, 4, 48, 95
1, 86400, Note_on_c, 4, 48, 0
1, 86400, Note_on_c, 1, 36, 0
1, 86400, Note_on_c, 9, 35, 0
1, 86400, Note_on_c, 3, 65, 0
1, 86400, Note_on_c, 2, 75, 0
1, 86400, Note_on_c, 4, 60, 0
1, 86400, Note_on_c, 7, 77, 0
1, 86400, Note_on_c, 1, 34, 95
1, 86400, Note_on_c, 2, 74, 95
1, 86400, Note_on_c, 3, 58, 95
1, 86400, Note_on_c, 4, 62, 95
1, 86400, Note_on_c, 4, 50, 95
1, 86400, Note_on_c, 7, 70, 95
1, 86400, Note_on_c, 9, 35, 95
1, 86580, Note_on_c, 4, 50, 0
1, 86580, Note_on_c, 4, 62, 0
1, 86640, Note_on_c, 3, 58, 0
1, 86640, Note_on_c, 3, 65, 95
1, 86760, Note_on_c, 1, 34, 0
1, 86760, Note_on_c, 9, 35, 0
1, 86760, Note_on_c, 1, 34, 95
1, 86760, Note_on_c, 4, 63, 95
1, 86760, Note_on_c, 4, 51, 95
1, 86760, Note_on_c, 9, 35, 95
1, 86880, Note_on_c, 9, 35, 0
1, 86880, Note_on_c, 4, 63, 0
1, 86880, Note_on_c, 7, 70, 0
1, 86880, Note_on_c, 3, 65, 0
1, 86880, Note_on_c, 2, 74, 0
1, 86880, Note_on_c, 4, 51, 0
1, 86880, Note_on_c, 2, 70, 95
1, 86880, Note_on_c, 3, 65, 95
1, 86880, Note_on_c, 9, 37, 95
1, 87000, Note_on_c, 1, 34, 0
1, 87120, Note_on_c, 3, 65, 0
1, 87120, Note_on_c, 3, 63, 95
1, 87120, Note_on_c, 4, 58, 95
1, 87120, Note_on_c, 4, 46, 95
1, 87240, Note_on_c, 4, 46, 0
1, 87240, Note_on_c, 9, 37, 0
1, 87240, Note_on_c, 4, 58, 0
1, 87360, Note_on_c, 3, 63, 0
1, 87360, Note_on_c, 3, 65, 95
1, 87360, Note_on_c, 4, 62, 95
1, 87360, Note_on_c, 4, 50, 95
1, 87480, Note_on_c, 4, 50, 0
1, 87480, Note_on_c, 4, 62, 0
1, 87480, Note_on_c, 3, 65, 0
1, 87480, Note_on_c, 3, 63, 95
1, 87600, Note_on_c, 1, 39, 95
1, 87600, Note_on_c, 9, 35, 95
1, 87720, Note_on_c, 3, 63, 0
1, 87720, Note_on_c, 3, 63, 95
1, 87720, Note_on_c, 4, 63, 95
1, 87720, Note_on_c, 4, 51, 95
1, 87840, Note_on_c, 4, 51, 0
1, 87840, Note_on_c, 1, 39, 0
1, 87840, Note_on_c, 2, 70, 0
1, 87840, Note_on_c, 9, 35, 0
1, 87840, Note_on_c, 4, 63, 0
1, 87840, Note_on_c, 3, 63, 0
1, 87840, Note_on_c, 2, 67, 95
1, 87840, Note_on_c, 3, 65, 95
1, 87840, Note_on_c, 9, 37, 95
1, 88080, Note_on_c, 9, 37, 0
1, 88080, Note_on_c, 3, 65, 0
1, 88080, Note_on_c, 3, 63, 95
1, 88080, Note_on_c, 4, 58, 95
1, 88080, Note_on_c, 4, 46, 95
1, 88200, Note_on_c, 4, 46, 0
1, 88200, Note_on_c, 4, 58, 0
1, 88320, Note_on_c, 3, 63, 0
1, 88320, Note_on_c, 2, 67, 0
1, 88320, Note_on_c, 1, 32, 95
1, 88320, Note_on_c, 2, 68, 95
1, 88320, Note_on_c, 3, 60, 95
1, 88320, Note_on_c, 4, 56, 95
1, 88320, Note_on_c, 4, 44, 95
1, 88320, Note_on_c, 9, 35, 95
1, 88500, Note_on_c, 4, 44, 0
1, 88500, Note_on_c, 4, 56, 0
1, 88680, Note_on_c, 1, 32, 0
1, 88680, Note_on_c, 9, 35, 0
1, 88680, Note_on_c, 1, 32, 95
1, 88680, Note_on_c, 4, 60, 95
1, 88680, Note_on_c, 4, 48, 95
1, 88680, Note_on_c, 9, 35, 95
1, 88800, Note_on_c, 9, 35, 0
1, 88800, Note_on_c, 4, 60, 0
1, 88800, Note_on_c, 3, 60, 0
1, 88800, Note_on_c, 4, 48, 0
1, 88800, Note_on_c, 3, 58, 95
1, 88800, Note_on_c, 7, 70, 95
1, 88800, Note_on_c, 9, 37, 95
1, 88920, Note_on_c, 1, 32, 0
1, 89040, Note_on_c, 9, 37, 0
1, 89040, Note_on_c, 1, 32, 95
1, 89040, Note_on_c, 4, 56, 95
1, 89040, Note_on_c, 4, 44, 95
1, 89040, Note_on_c, 9, 35, 95
1, 89160, Note_on_c, 4, 44, 0
1, 89160, Note_on_c, 7, 70, 0
1, 89160, Note_on_c, 3, 58, 0
1, 89160, Note_on_c, 4, 56, 0
1, 89160, Note_on_c, 3, 60, 95
1, 89160, Note_on_c, 7, 72, 95
1, 89280, Note_on_c, 9, 35, 0
1, 89280, Note_on_c, 1, 32, 0
1, 89280, Note_on_c, 4, 68, 95
1, 89280, Note_on_c, 4, 56, 95
1, 89400, Note_on_c, 4, 56, 0
1, 89400, Note_on_c, 7, 72, 0
1, 89400, Note_on_c, 4, 68, 0
1, 89400, Note_on_c, 3, 60, 0
1, 89400, Note_on_c, 3, 63, 95
1, 89400, Note_on_c, 7, 75, 95
1, 89520, Note_on_c, 1, 32, 95
1, 89520, Note_on_c, 9, 35, 95
1, 89640, Note_on_c, 7, 75, 0
1, 89640, Note_on_c, 3, 63, 0
1, 89640, Note_on_c, 3, 58, 95
1, 89640, Note_on_c, 4, 67, 95
1, 89640, Note_on_c, 4, 55, 95
1, 89640, Note_on_c, 7, 70, 95
1, 89760, Note_on_c, 7, 70, 0
1, 89760, Note_on_c, 4, 67, 0
1, 89760, Note_on_c, 1, 32, 0
1, 89760, Note_on_c, 2, 68, 0
1, 89760, Note_on_c, 9, 35, 0
1, 89760, Note_on_c, 4, 55, 0
1, 89760, Note_on_c, 3, 58, 0
1, 89760, Note_on_c, 2, 70, 95
1, 89760, Note_on_c, 3, 60, 95
1, 89760, Note_on_c, 7, 72, 95
1, 89760, Note_on_c, 9, 37, 95
1, 90000, Note_on_c, 7, 72, 0
1, 90000, Note_on_c, 3, 60, 0
1, 90000, Note_on_c, 3, 63, 95
1, 90000, Note_on_c, 3, 58, 95
1, 90000, Note_on_c, 4, 63, 95
1, 90000, Note_on_c, 4, 51, 95
1, 90000, Note_on_c, 7, 70, 95
1, 90120, Note_on_c, 4, 51, 0
1, 90120, Note_on_c, 9, 37, 0
1, 90120, Note_on_c, 4, 63, 0
1, 90120, Note_on_c, 1, 36, 95
1, 90120, Note_on_c, 9, 35, 95
1, 90240, Note_on_c, 9, 35, 0
1, 90240, Note_on_c, 3, 63, 0
1, 90240, Note_on_c, 7, 70, 0
1, 90240, Note_on_c, 2, 70, 0
1, 90240, Note_on_c, 1, 36, 0
1, 90240, Note_on_c, 1, 34, 95
1, 90240, Note_on_c, 2, 65, 95
1, 90240, Note_on_c, 4, 62, 95
1, 90240, Note_on_c, 4, 50, 95
1, 90240, Note_on_c, 7, 70, 95
1, 90240, Note_on_c, 9, 35, 95
1, 90360, Note_on_c, 3, 58, 95
1, 90420, Note_on_c, 4, 50, 0
1, 90420, Note_on_c, 4, 62, 0
1, 90480, Note_on_c, 3, 58, 0
1, 90480, Note_on_c, 3, 65, 95
1, 90600, Note_on_c, 1, 34, 0
1, 90600, Note_on_c, 9, 35, 0
1, 90600, Note_on_c, 1, 46, 95
1, 90600, Note_on_c, 4, 63, 95
1, 90600, Note_on_c, 4, 51, 95
1, 90600, Note_on_c, 9, 35, 95
1, 90720, Note_on_c, 9, 35, 0
1, 90720, Note_on_c, 4, 51, 0
1, 90720, Note_on_c, 3, 58, 0
1, 90720, Note_on_c, 3, 65, 0
1, 90720, Note_on_c, 7, 70, 0
1, 90720, Note_on_c, 4, 63, 0
1, 90720, Note_on_c, 3, 65, 95
1, 90720, Note_on_c, 9, 37, 95
1, 90840, Note_on_c, 1, 46, 0
1, 90960, Note_on_c, 3, 65, 0
1, 90960, Note_on_c, 3, 63, 95
1, 90960, Note_on_c, 4, 65, 95
1, 90960, Note_on_c, 4, 53, 95
1, 91080, Note_on_c, 4, 53, 0
1, 91080, Note_on_c, 9, 37, 0
1, 91080, Note_on_c, 4, 65, 0
1, 91200, Note_on_c, 3, 63, 0
1, 91200, Note_on_c, 3, 65, 95
1, 91200, Note_on_c, 4, 67, 95
1, 91200, Note_on_c, 4, 55, 95
1, 91320, Note_on_c, 4, 55, 0
1, 91320, Note_on_c, 4, 67, 0
1, 91320, Note_on_c, 3, 65, 0
1, 91320, Note_on_c, 3, 63, 95
1, 91440, Note_on_c, 1, 39, 95
1, 91440, Note_on_c, 9, 35, 95
1, 91560, Note_on_c, 3, 63, 0
1, 91560, Note_on_c, 3, 58, 95
1, 91560, Note_on_c, 4, 65, 95
1, 91560, Note_on_c, 4, 53, 95
1, 91680, Note_on_c, 4, 53, 0
1, 91680, Note_on_c, 1, 39, 0
1, 91680, Note_on_c, 2, 65, 0
1, 91680, Note_on_c, 9, 35, 0
1, 91680, Note_on_c, 4, 65, 0
1, 91680, Note_on_c, 3, 58, 0
1, 91680, Note_on_c, 2, 67, 95
1, 91680, Note_on_c, 3, 65, 95
1, 91680, Note_on_c, 9, 37, 95
1, 91800, Note_on_c, 9, 37, 0
1, 91800, Note_on_c, 1, 46, 95
1, 91800, Note_on_c, 9, 35, 95
1, 91920, Note_on_c, 9, 35, 0
1, 91920, Note_on_c, 3, 65, 0
1, 91920, Note_on_c, 3, 67, 95
1, 91920, Note_on_c, 4, 67, 95
1, 91920, Note_on_c, 4, 55, 95
1, 92040, Note_on_c, 4, 55, 0
1, 92040, Note_on_c, 3, 67, 0
1, 92040, Note_on_c, 4, 67, 0
1, 92040, Note_on_c, 1, 46, 0
1, 92040, Note_on_c, 3, 63, 95
1, 92160, Note_on_c, 2, 67, 0
1, 92160, Note_on_c, 1, 32, 95
1, 92160, Note_on_c, 2, 63, 95
1, 92160, Note_on_c, 4, 63, 95
1, 92160, Note_on_c, 4, 51, 95
1, 92160, Note_on_c, 9, 35, 95
1, 92400, Note_on_c, 4, 51, 0
1, 92400, Note_on_c, 4, 63, 0
1, 92640, Note_on_c, 1, 32, 0
1, 92640, Note_on_c, 3, 63, 0
1, 92640, Note_on_c, 9, 35, 0
1, 93120, Note_on_c, 2, 63, 0
1, 93480, Note_on_c, 1, 32, 95
1, 93480, Note_on_c, 9, 35, 95
1, 93600, Note_on_c, 9, 35, 0
1, 93600, Note_on_c, 1, 32, 0
1, 93600, Note_on_c, 9, 37, 95
1, 93720, Note_on_c, 9, 37, 0
1, 93720, Note_on_c, 1, 32, 95
1, 93720, Note_on_c, 9, 35, 95
1, 93840, Note_on_c, 9, 35, 0
1, 93840, Note_on_c, 1, 32, 0
1, 93840, Note_on_c, 1, 44, 95
1, 93840, Note_on_c, 9, 35, 95
1, 93960, Note_on_c, 9, 35, 0
1, 93960, Note_on_c, 1, 44, 0
1, 93960, Note_on_c, 1, 46, 95
1, 94080, Note_on_c, 1, 46, 0
1, 94080, Note_on_c, 0, 58, 95
1, 94080, Note_on_c, 1, 34, 95
1, 94080, Note_on_c, 4, 74, 95
1, 94080, Note_on_c, 9, 35, 95
1, 94200, Note_on_c, 0, 58, 0
1, 94200, Note_on_c, 0, 70, 95
1, 94320, Note_on_c, 0, 70, 0
1, 94320, Note_on_c, 0, 86, 95
1, 94320, Note_on_c, 3, 58, 95
1, 94440, Note_on_c, 3, 58, 0
1, 94440, Note_on_c, 9, 35, 0
1, 94440, Note_on_c, 1, 34, 0
1, 94440, Note_on_c, 4, 74, 0
1, 94440, Note_on_c, 0, 86, 0
1, 94440, Note_on_c, 0, 58, 95
1, 94440, Note_on_c, 1, 34, 95
1, 94440, Note_on_c, 3, 65, 95
1, 94440, Note_on_c, 4, 75, 95
1, 94440, Note_on_c, 9, 35, 95
1, 94560, Note_on_c, 9, 35, 0
1, 94560, Note_on_c, 0, 58, 0
1, 94560, Note_on_c, 0, 70, 95
1, 94560, Note_on_c, 9, 37, 95
1, 94680, Note_on_c, 0, 70, 0
1, 94680, Note_on_c, 1, 34, 0
1, 94680, Note_on_c, 3, 65, 0
1, 94680, Note_on_c, 0, 82, 95
1, 94680, Note_on_c, 3, 65, 95
1, 94800, Note_on_c, 0, 82, 0
1, 94800, Note_on_c, 4, 75, 0
1, 94800, Note_on_c, 4, 70, 95
1, 94920, Note_on_c, 9, 37, 0
1, 94920, Note_on_c, 3, 65, 0
1, 94920, Note_on_c, 0, 75, 95
1, 94920, Note_on_c, 3, 63, 95
1, 95040, Note_on_c, 3, 63, 0
1, 95040, Note_on_c, 0, 75, 0
1, 95040, Note_on_c, 4, 70, 0
1, 95040, Note_on_c, 0, 63, 95
1, 95040, Note_on_c, 3, 65, 95
1, 95040, Note_on_c, 4, 74, 95
1, 95160, Note_on_c, 0, 63, 0
1, 95160, Note_on_c, 0, 70, 95
1, 95280, Note_on_c, 0, 70, 0
1, 95280, Note_on_c, 3, 65, 0
1, 95280, Note_on_c, 0, 77, 95
1, 95280, Note_on_c, 1, 39, 95
1, 95280, Note_on_c, 3, 63, 95
1, 95280, Note_on_c, 9, 35, 95
1, 95400, Note_on_c, 0, 77, 0
1, 95400, Note_on_c, 4, 74, 0
1, 95400, Note_on_c, 0, 75, 95
1, 95400, Note_on_c, 4, 75, 95
1, 95520, Note_on_c, 0, 75, 0
1, 95520, Note_on_c, 3, 63, 0
1, 95520, Note_on_c, 9, 35, 0
1, 95520, Note_on_c, 1, 39, 0
1, 95520, Note_on_c, 0, 77, 95
1, 95520, Note_on_c, 3, 58, 95
1, 95520, Note_on_c, 9, 37, 95
1, 95640, Note_on_c, 0, 77, 0
1, 95640, Note_on_c, 0, 82, 95
1, 95760, Note_on_c, 0, 82, 0
1, 95760, Note_on_c, 9, 37, 0
1, 95760, Note_on_c, 3, 58, 0
1, 95760, Note_on_c, 4, 75, 0
1, 95760, Note_on_c, 4, 70, 95
1, 95880, Note_on_c, 0, 75, 95
1, 96000, Note_on_c, 0, 75, 0
1, 96000, Note_on_c, 4, 70, 0
1, 96000, Note_on_c, 0, 56, 95
1, 96000, Note_on_c, 1, 32, 95
1, 96000, Note_on_c, 4, 68, 95
1, 96000, Note_on_c, 9, 35, 95
1, 96120, Note_on_c, 0, 56, 0
1, 96120, Note_on_c, 0, 63, 95
1, 96240, Note_on_c, 0, 63, 0
1, 96240, Note_on_c, 0, 72, 95
1, 96240, Note_on_c, 3, 58, 95
1, 96360, Note_on_c, 3, 58, 0
1, 96360, Note_on_c, 9, 35, 0
1, 96360, Note_on_c, 1, 32, 0
1, 96360, Note_on_c, 4, 68, 0
1, 96360, Note_on_c, 0, 72, 0
1, 96360, Note_on_c, 0, 70, 95
1, 96360, Note_on_c, 1, 32, 95
1, 96360, Note_on_c, 3, 60, 95
1, 96360, Note_on_c, 4, 72, 95
1, 96360, Note_on_c, 9, 35, 95
1, 96480, Note_on_c, 9, 35, 0
1, 96480, Note_on_c, 0, 70, 0
1, 96480, Note_on_c, 0, 72, 95
1, 96480, Note_on_c, 9, 37, 95
1, 96600, Note_on_c, 0, 72, 0
1, 96600, Note_on_c, 1, 32, 0
1, 96600, Note_on_c, 3, 60, 0
1, 96600, Note_on_c, 0, 75, 95
1, 96600, Note_on_c, 3, 60, 95
1, 96720, Note_on_c, 0, 75, 0
1, 96720, Note_on_c, 9, 37, 0
1, 96720, Note_on_c, 4, 72, 0
1, 96720, Note_on_c, 0, 63, 95
1, 96720, Note_on_c, 1, 32, 95
1, 96720, Note_on_c, 4, 68, 95
1, 96720, Note_on_c, 9, 35, 95
1, 96840, Note_on_c, 0, 63, 0
1, 96840, Note_on_c, 3, 60, 0
1, 96840, Note_on_c, 0, 56, 95
1, 96840, Note_on_c, 3, 58, 95
1, 96960, Note_on_c, 3, 58, 0
1, 96960, Note_on_c, 4, 68, 0
1, 96960, Note_on_c, 9, 35, 0
1, 96960, Note_on_c, 1, 32, 0
1, 96960, Note_on_c, 0, 56, 0
1, 96960, Note_on_c, 3, 60, 95
1, 96960, Note_on_c, 4, 80, 95
1, 97080, Note_on_c, 0, 70, 95
1, 97200, Note_on_c, 0, 70, 0
1, 97200, Note_on_c, 3, 60, 0
1, 97200, Note_on_c, 0, 72, 95
1, 97200, Note_on_c, 1, 32, 95
1, 97200, Note_on_c, 3, 63, 95
1, 97200, Note_on_c, 9, 35, 95
1, 97320, Note_on_c, 0, 72, 0
1, 97320, Note_on_c, 4, 80, 0
1, 97320, Note_on_c, 0, 70, 95
1, 97320, Note_on_c, 4, 79, 95
1, 97440, Note_on_c, 0, 70, 0
1, 97440, Note_on_c, 3, 63, 0
1, 97440, Note_on_c, 9, 35, 0
1, 97440, Note_on_c, 1, 32, 0
1, 97440, Note_on_c, 0, 60, 95
1, 97440, Note_on_c, 3, 65, 95
1, 97440, Note_on_c, 9, 37, 95
1, 97560, Note_on_c, 0, 60, 0
1, 97560, Note_on_c, 0, 70, 95
1, 97680, Note_on_c, 0, 70, 0
1, 97680, Note_on_c, 4, 79, 0
1, 97680, Note_on_c, 0, 75, 95
1, 97680, Note_on_c, 4, 75, 95
1, 97800, Note_on_c, 0, 75, 0
1, 97800, Note_on_c, 9, 37, 0
1, 97800, Note_on_c, 0, 77, 95
1, 97800, Note_on_c, 1, 32, 95
1, 97800, Note_on_c, 9, 35, 95
1, 97920, Note_on_c, 9, 35, 0
1, 97920, Note_on_c, 0, 77, 0
1, 97920, Note_on_c, 4, 75, 0
1, 97920, Note_on_c, 3, 65, 0
1, 97920, Note_on_c, 1, 32, 0
1, 97920, Note_on_c, 0, 58, 95
1, 97920, Note_on_c, 1, 34, 95
1, 97920, Note_on_c, 4, 74, 95
1, 97920, Note_on_c, 9, 35, 95
1, 98040, Note_on_c, 0, 58, 0
1, 98040, Note_on_c, 0, 70, 95
1, 98040, Note_on_c, 3, 58, 95
1, 98160, Note_on_c, 3, 58, 0
1, 98160, Note_on_c, 0, 70, 0
1, 98160, Note_on_c, 0, 86, 95
1, 98160, Note_on_c, 3, 67, 95
1, 98280, Note_on_c, 0, 86, 0
1, 98280, Note_on_c, 9, 35, 0
1, 98280, Note_on_c, 1, 34, 0
1, 98280, Note_on_c, 4, 74, 0
1, 98280, Note_on_c, 0, 74, 95
1, 98280, Note_on_c, 1, 46, 95
1, 98280, Note_on_c, 4, 75, 95
1, 98280, Note_on_c, 9, 35, 95
1, 98400, Note_on_c, 9, 35, 0
1, 98400, Note_on_c, 3, 67, 0
1, 98400, Note_on_c, 0, 74, 0
1, 98400, Note_on_c, 0, 65, 95
1, 98400, Note_on_c, 3, 65, 95
1, 98400, Note_on_c, 9, 37, 95
1, 98520, Note_on_c, 0, 65, 0
1, 98520, Note_on_c, 1, 46, 0
1, 98520, Note_on_c, 0, 82, 95
1, 98640, Note_on_c, 0, 82, 0
1, 98640, Note_on_c, 3, 65, 0
1, 98640, Note_on_c, 4, 75, 0
1, 98640, Note_on_c, 3, 63, 95
1, 98640, Note_on_c, 4, 70, 95
1, 98760, Note_on_c, 3, 63, 0
1, 98760, Note_on_c, 9, 37, 0
1, 98760, Note_on_c, 0, 75, 95
1, 98760, Note_on_c, 3, 58, 95
1, 98880, Note_on_c, 0, 75, 0
1, 98880, Note_on_c, 4, 70, 0
1, 98880, Note_on_c, 0, 63, 95
1, 98880, Note_on_c, 4, 74, 95
1, 99000, Note_on_c, 0, 63, 0
1, 99000, Note_on_c, 3, 58, 0
1, 99000, Note_on_c, 0, 70, 95
1, 99000, Note_on_c, 3, 58, 95
1, 99120, Note_on_c, 3, 58, 0
1, 99120, Note_on_c, 0, 70, 0
1, 99120, Note_on_c, 0, 77, 95
1, 99120, Note_on_c, 1, 39, 95
1, 99120, Note_on_c, 3, 58, 95
1, 99120, Note_on_c, 9, 35, 95
1, 99240, Note_on_c, 0, 77, 0
1, 99240, Note_on_c, 4, 74, 0
1, 99240, Note_on_c, 0, 75, 95
1, 99240, Note_on_c, 4, 77, 95
1, 99360, Note_on_c, 0, 75, 0
1, 99360, Note_on_c, 3, 58, 0
1, 99360, Note_on_c, 9, 35, 0
1, 99360, Note_on_c, 1, 39, 0
1, 99360, Note_on_c, 0, 80, 95
1, 99360, Note_on_c, 3, 65, 95
1, 99360, Note_on_c, 9, 37, 95
1, 99420, Pitch_bend_c, 0, 7936
1, 99480, Note_on_c, 9, 37, 0
1, 99480, Note_on_c, 0, 80, 0
1, 99480, Pitch_bend_c, 0, 7552
1, 99480, Pitch_bend_c, 0, 8192
1, 99480, Note_on_c, 0, 79, 95
1, 99480, Note_on_c, 1, 51, 95
1, 99480, Note_on_c, 9, 35, 95
1, 99600, Note_on_c, 9, 35, 0
1, 99600, Note_on_c, 0, 79, 0
1, 99600, Note_on_c, 4, 77, 0
1, 99600, Note_on_c, 0, 75, 95
1, 99600, Note_on_c, 4, 79, 95
1, 99720, Note_on_c, 0, 75, 0
1, 99720, Note_on_c, 1, 51, 0
1, 99720, Note_on_c, 3, 65, 0
1, 99720, Note_on_c, 0, 70, 95
1, 99720, Note_on_c, 3, 63, 95
1, 99840, Note_on_c, 0, 70, 0
1, 99840, Note_on_c, 4, 79, 0
1, 99840, Note_on_c, 0, 56, 95
1, 99840, Note_on_c, 1, 32, 95
1, 99840, Note_on_c, 4, 75, 95
1, 99840, Note_on_c, 9, 35, 95
1, 100080, Note_on_c, 0, 56, 0
1, 100080, Note_on_c, 3, 63, 0
1, 100080, Note_on_c, 0, 72, 95
1, 100080, Note_on_c, 3, 60, 95
1, 100200, Note_on_c, 0, 72, 0
1, 100200, Note_on_c, 4, 75, 0
1, 100200, Note_on_c, 9, 35, 0
1, 100200, Note_on_c, 1, 32, 0
1, 100200, Note_on_c, 0, 63, 95
1, 100200, Note_on_c, 1, 32, 95
1, 100200, Note_on_c, 4, 72, 95
1, 100200, Note_on_c, 9, 35, 95
1, 100320, Note_on_c, 9, 35, 0
1, 100320, Note_on_c, 0, 63, 0
1, 100320, Note_on_c, 0, 56, 95
1, 100320, Note_on_c, 9, 37, 95
1, 100440, Note_on_c, 0, 56, 0
1, 100440, Note_on_c, 1, 32, 0
1, 100440, Note_on_c, 0, 70, 95
1, 100560, Note_on_c, 0, 70, 0
1, 100560, Note_on_c, 9, 37, 0
1, 100560, Note_on_c, 4, 72, 0
1, 100560, Note_on_c, 4, 75, 95
1, 100680, Note_on_c, 0, 63, 95
1, 100680, Note_on_c, 1, 32, 95
1, 100680, Note_on_c, 9, 35, 95
1, 100800, Note_on_c, 9, 35, 0
1, 100800, Note_on_c, 0, 63, 0
1, 100800, Note_on_c, 1, 32, 0
1, 100800, Note_on_c, 3, 60, 0
1, 100800, Note_on_c, 0, 72, 95
1, 100920, Note_on_c, 0, 72, 0
1, 100920, Note_on_c, 4, 75, 0
1, 100920, Note_on_c, 0, 56, 95
1, 100920, Note_on_c, 1, 39, 95
1, 100920, Note_on_c, 4, 72, 95
1, 100920, Note_on_c, 9, 35, 95
1, 101040, Note_on_c, 9, 35, 0
1, 101040, Note_on_c, 0, 56, 0
1, 101040, Note_on_c, 1, 39, 0
1, 101040, Note_on_c, 0, 72, 95
1, 101040, Note_on_c, 1, 32, 95
1, 101040, Note_on_c, 9, 35, 95
1, 101160, Note_on_c, 0, 72, 0
1, 101160, Note_on_c, 0, 70, 95
1, 101280, Note_on_c, 0, 70, 0
1, 101280, Note_on_c, 9, 35, 0
1, 101280, Note_on_c, 1, 32, 0
1, 101280, Note_on_c, 4, 72, 0
1, 101280, Note_on_c, 0, 60, 95
1, 101280, Note_on_c, 4, 79, 95
1, 101280, Note_on_c, 9, 37, 95
1, 101400, Note_on_c, 0, 60, 0
1, 101400, Note_on_c, 0, 75, 95
1, 101520, Note_on_c, 0, 75, 0
1, 101520, Note_on_c, 9, 37, 0
1, 101520, Note_on_c, 4, 79, 0
1, 101520, Note_on_c, 0, 77, 95
1, 101520, Note_on_c, 1, 36, 95
1, 101520, Note_on_c, 4, 70, 95
1, 101520, Note_on_c, 9, 35, 95
1, 101640, Note_on_c, 4, 70, 0
1, 101640, Note_on_c, 0, 77, 0
1, 101640, Note_on_c, 4, 72, 95
1, 101760, Note_on_c, 4, 72, 0
1, 101760, Note_on_c, 1, 36, 0
1, 101760, Note_on_c, 9, 35, 0
1, 101760, Note_on_c, 0, 58, 95
1, 101760, Note_on_c, 1, 34, 95
1, 101760, Note_on_c, 4, 74, 95
1, 101760, Note_on_c, 9, 35, 95
1, 101880, Note_on_c, 0, 58, 0
1, 101880, Note_on_c, 0, 70, 95
1, 102000, Note_on_c, 0, 70, 0
1, 102000, Note_on_c, 0, 86, 95
1, 102000, Note_on_c, 3, 58, 95
1, 102120, Note_on_c, 3, 58, 0
1, 102120, Note_on_c, 9, 35, 0
1, 102120, Note_on_c, 1, 34, 0
1, 102120, Note_on_c, 4, 74, 0
1, 102120, Note_on_c, 0, 86, 0
1, 102120, Note_on_c, 0, 58, 95
1, 102120, Note_on_c, 1, 34, 95
1, 102120, Note_on_c, 3, 65, 95
1, 102120, Note_on_c, 4, 75, 95
1, 102120, Note_on_c, 9, 35, 95
1, 102240, Note_on_c, 9, 35, 0
1, 102240, Note_on_c, 0, 58, 0
1, 102240, Note_on_c, 0, 70, 95
1, 102240, Note_on_c, 9, 37, 95
1, 102360, Note_on_c, 0, 70, 0
1, 102360, Note_on_c, 1, 34, 0
1, 102360, Note_on_c, 3, 65, 0
1, 102360, Note_on_c, 0, 82, 95
1, 102360, Note_on_c, 3, 65, 95
1, 102480, Note_on_c, 0, 82, 0
1, 102480, Note_on_c, 4, 75, 0
1, 102480, Note_on_c, 4, 70, 95
1, 102600, Note_on_c, 9, 37, 0
1, 102600, Note_on_c, 3, 65, 0
1, 102600, Note_on_c, 0, 75, 95
1, 102600, Note_on_c, 3, 63, 95
1, 102720, Note_on_c, 0, 75, 0
1, 102720, Note_on_c, 4, 70, 0
1, 102720, Note_on_c, 0, 63, 95
1, 102720, Note_on_c, 4, 74, 95
1, 102840, Note_on_c, 0, 63, 0
1, 102840, Note_on_c, 3, 63, 0
1, 102840, Note_on_c, 0, 70, 95
1, 102840, Note_on_c, 3, 65, 95
1, 102960, Note_on_c, 3, 65, 0
1, 102960, Note_on_c, 0, 70, 0
1, 102960, Note_on_c, 0, 77, 95
1, 102960, Note_on_c, 1, 39, 95
1, 102960, Note_on_c, 3, 63, 95
1, 102960, Note_on_c, 9, 35, 95
1, 103080, Note_on_c, 0, 77, 0
1, 103080, Note_on_c, 4, 74, 0
1, 103080, Note_on_c, 0, 75, 95
1, 103080, Note_on_c, 4, 75, 95
1, 103200, Note_on_c, 0, 75, 0
1, 103200, Note_on_c, 3, 63, 0
1, 103200, Note_on_c, 9, 35, 0
1, 103200, Note_on_c, 1, 39, 0
1, 103200, Note_on_c, 0, 77, 95
1, 103200, Note_on_c, 3, 58, 95
1, 103200, Note_on_c, 9, 37, 95
1, 103320, Note_on_c, 0, 77, 0
1, 103320, Note_on_c, 0, 82, 95
1, 103440, Note_on_c, 0, 82, 0
1, 103440, Note_on_c, 9, 37, 0
1, 103440, Note_on_c, 3, 58, 0
1, 103440, Note_on_c, 4, 75, 0
1, 103440, Note_on_c, 4, 70, 95
1, 103560, Note_on_c, 0, 75, 95
1, 103680, Note_on_c, 0, 75, 0
1, 103680, Note_on_c, 4, 70, 0
1, 103680, Note_on_c, 0, 56, 95
1, 103680, Note_on_c, 1, 32, 95
1, 103680, Note_on_c, 4, 68, 95
1, 103680, Note_on_c, 9, 35, 95
1, 103800, Note_on_c, 0, 56, 0
1, 103800, Note_on_c, 0, 63, 95
1, 103920, Note_on_c, 0, 63, 0
1, 103920, Note_on_c, 0, 72, 95
1, 103920, Note_on_c, 3, 58, 95
1, 104040, Note_on_c, 3, 58, 0
1, 104040, Note_on_c, 9, 35, 0
1, 104040, Note_on_c, 1, 32, 0
1, 104040, Note_on_c, 4, 68, 0
1, 104040, Note_on_c, 0, 72, 0
1, 104040, Note_on_c, 0, 70, 95
1, 104040, Note_on_c, 1, 32, 95
1, 104040, Note_on_c, 3, 60, 95
1, 104040, Note_on_c, 4, 72, 95
1, 104040, Note_on_c, 9, 35, 95
1, 104160, Note_on_c, 9, 35, 0
1, 104160, Note_on_c, 0, 70, 0
1, 104160, Note_on_c, 0, 72, 95
1, 104160, Note_on_c, 9, 37, 95
1, 104280, Note_on_c, 0, 72, 0
1, 104280, Note_on_c, 1, 32, 0
1, 104280, Note_on_c, 3, 60, 0
1, 104280, Note_on_c, 0, 75, 95
1, 104280, Note_on_c, 3, 60, 95
1, 104400, Note_on_c, 0, 75, 0
1, 104400, Note_on_c, 9, 37, 0
1, 104400, Note_on_c, 4, 72, 0
1, 104400, Note_on_c, 0, 63, 95
1, 104400, Note_on_c, 1, 32, 95
1, 104400, Note_on_c, 4, 68, 95
1, 104400, Note_on_c, 9, 35, 95
1, 104520, Note_on_c, 0, 63, 0
1, 104520, Note_on_c, 3, 60, 0
1, 104520, Note_on_c, 0, 56, 95
1, 104520, Note_on_c, 3, 58, 95
1, 104640, Note_on_c, 3, 58, 0
1, 104640, Note_on_c, 4, 68, 0
1, 104640, Note_on_c, 9, 35, 0
1, 104640, Note_on_c, 1, 32, 0
1, 104640, Note_on_c, 0, 56, 0
1, 104640, Note_on_c, 3, 60, 95
1, 104640, Note_on_c, 4, 80, 95
1, 104760, Note_on_c, 0, 70, 95
1, 104880, Note_on_c, 0, 70, 0
1, 104880, Note_on_c, 3, 60, 0
1, 104880, Note_on_c, 0, 72, 95
1, 104880, Note_on_c, 1, 32, 95
1, 104880, Note_on_c, 3, 63, 95
1, 104880, Note_on_c, 9, 35, 95
1, 105000, Note_on_c, 0, 72, 0
1, 105000, Note_on_c, 4, 80, 0
1, 105000, Note_on_c, 0, 70, 95
1, 105000, Note_on_c, 4, 79, 95
1, 105120, Note_on_c, 0, 70, 0
1, 105120, Note_on_c, 3, 63, 0
1, 105120, Note_on_c, 9, 35, 0
1, 105120, Note_on_c, 1, 32, 0
1, 105120, Note_on_c, 0, 60, 95
1, 105120, Note_on_c, 3, 65, 95
1, 105120, Note_on_c, 9, 37, 95
1, 105240, Note_on_c, 0, 60, 0
1, 105240, Note_on_c, 0, 70, 95
1, 105360, Note_on_c, 0, 70, 0
1, 105360, Note_on_c, 4, 79, 0
1, 105360, Note_on_c, 3, 65, 0
1, 105360, Note_on_c, 0, 75, 95
1, 105360, Note_on_c, 3, 58, 95
1, 105360, Note_on_c, 4, 75, 95
1, 105480, Note_on_c, 3, 58, 0
1, 105480, Note_on_c, 9, 37, 0
1, 105480, Note_on_c, 0, 75, 0
1, 105480, Note_on_c, 0, 77, 95
1, 105480, Note_on_c, 1, 36, 95
1, 105480, Note_on_c, 3, 58, 95
1, 105480, Note_on_c, 9, 35, 95
1, 105600, Note_on_c, 9, 35, 0
1, 105600, Note_on_c, 4, 75, 0
1, 105600, Note_on_c, 1, 36, 0
1, 105600, Note_on_c, 0, 77, 0
1, 105600, Note_on_c, 0, 58, 95
1, 105600, Note_on_c, 1, 34, 95
1, 105600, Note_on_c, 4, 74, 95
1, 105600, Note_on_c, 9, 35, 95
1, 105720, Note_on_c, 0, 58, 0
1, 105720, Note_on_c, 3, 58, 0
1, 105720, Note_on_c, 0, 70, 95
1, 105720, Note_on_c, 3, 58, 95
1, 105840, Note_on_c, 0, 70, 0
1, 105840, Note_on_c, 0, 86, 95
1, 105960, Note_on_c, 0, 86, 0
1, 105960, Note_on_c, 3, 58, 0
1, 105960, Note_on_c, 9, 35, 0
1, 105960, Note_on_c, 1, 34, 0
1, 105960, Note_on_c, 4, 74, 0
1, 105960, Note_on_c, 0, 74, 95
1, 105960, Note_on_c, 1, 46, 95
1, 105960, Note_on_c, 3, 67, 95
1, 105960, Note_on_c, 4, 75, 95
1, 105960, Note_on_c, 9, 35, 95
1, 106080, Note_on_c, 9, 35, 0
1, 106080, Note_on_c, 3, 67, 0
1, 106080, Note_on_c, 0, 74, 0
1, 106080, Note_on_c, 0, 65, 95
1, 106080, Note_on_c, 3, 65, 95
1, 106080, Note_on_c, 9, 37, 95
1, 106200, Note_on_c, 3, 65, 0
1, 106200, Note_on_c, 0, 65, 0
1, 106200, Note_on_c, 1, 46, 0
1, 106200, Note_on_c, 0, 82, 95
1, 106200, Note_on_c, 3, 63, 95
1, 106320, Note_on_c, 0, 82, 0
1, 106320, Note_on_c, 4, 75, 0
1, 106320, Note_on_c, 4, 77, 95
1, 106440, Note_on_c, 9, 37, 0
1, 106440, Note_on_c, 3, 63, 0
1, 106440, Note_on_c, 0, 75, 95
1, 106440, Note_on_c, 3, 58, 95
1, 106560, Note_on_c, 0, 75, 0
1, 106560, Note_on_c, 4, 77, 0
1, 106560, Note_on_c, 0, 63, 95
1, 106560, Note_on_c, 4, 79, 95
1, 106680, Note_on_c, 0, 63, 0
1, 106680, Note_on_c, 3, 58, 0
1, 106680, Note_on_c, 0, 70, 95
1, 106680, Note_on_c, 3, 58, 95
1, 106800, Note_on_c, 0, 70, 0
1, 106800, Note_on_c, 0, 77, 95
1, 106800, Note_on_c, 1, 39, 95
1, 106800, Note_on_c, 9, 35, 95
1, 106920, Note_on_c, 0, 77, 0
1, 106920, Note_on_c, 4, 79, 0
1, 106920, Note_on_c, 3, 58, 0
1, 106920, Note_on_c, 0, 75, 95
1, 106920, Note_on_c, 3, 67, 95
1, 106920, Note_on_c, 4, 77, 95
1, 107040, Note_on_c, 3, 67, 0
1, 107040, Note_on_c, 0, 75, 0
1, 107040, Note_on_c, 9, 35, 0
1, 107040, Note_on_c, 1, 39, 0
1, 107040, Note_on_c, 0, 80, 95
1, 107040, Note_on_c, 3, 65, 95
1, 107040, Note_on_c, 9, 37, 95
1, 107100, Pitch_bend_c, 0, 7936
1, 107160, Note_on_c, 9, 37, 0
1, 107160, Note_on_c, 0, 80, 0
1, 107160, Pitch_bend_c, 0, 7552
1, 107160, Pitch_bend_c, 0, 8192
1, 107160, Note_on_c, 0, 79, 95
1, 107160, Note_on_c, 1, 46, 95
1, 107160, Note_on_c, 9, 35, 95
1, 107280, Note_on_c, 9, 35, 0
1, 107280, Note_on_c, 4, 77, 0
1, 107280, Note_on_c, 0, 79, 0
1, 107280, Note_on_c, 3, 65, 0
1, 107280, Note_on_c, 0, 75, 95
1, 107280, Note_on_c, 3, 60, 95
1, 107280, Note_on_c, 4, 79, 95
1, 107400, Note_on_c, 0, 75, 0
1, 107400, Note_on_c, 1, 46, 0
1, 107400, Note_on_c, 0, 70, 95
1, 107520, Note_on_c, 0, 70, 0
1, 107520, Note_on_c, 3, 60, 0
1, 107520, Note_on_c, 4, 79, 0
1, 107520, Note_on_c, 0, 56, 95
1, 107520, Note_on_c, 1, 32, 95
1, 107520, Note_on_c, 3, 63, 95
1, 107520, Note_on_c, 4, 75, 95
1, 107520, Note_on_c, 9, 35, 95
1, 107760, Note_on_c, 0, 56, 0
1, 107760, Note_on_c, 0, 72, 95
1, 107880, Note_on_c, 0, 72, 0
1, 107880, Note_on_c, 4, 75, 0
1, 107880, Note_on_c, 0, 63, 95
1, 107880, Note_on_c, 4, 72, 95
1, 108000, Note_on_c, 0, 63, 0
1, 108000, Note_on_c, 1, 32, 0
1, 108000, Note_on_c, 9, 35, 0
1, 108000, Note_on_c, 0, 56, 95
1, 108000, Note_on_c, 9, 37, 95
1, 108120, Note_on_c, 0, 56, 0
1, 108120, Note_on_c, 0, 70, 95
1, 108240, Note_on_c, 0, 70, 0
1, 108240, Note_on_c, 9, 37, 0
1, 108240, Note_on_c, 4, 72, 0
1, 108240, Note_on_c, 4, 75, 95
1, 108360, Note_on_c, 0, 63, 95
1, 108480, Note_on_c, 0, 63, 0
1, 108480, Note_on_c, 4, 75, 0
1, 108480, Note_on_c, 3, 63, 0
1, 108480, Note_on_c, 0, 72, 95
1, 108480, Note_on_c, 4, 84, 95
1, 108600, Note_on_c, 0, 72, 0
1, 108600, Note_on_c, 0, 56, 95
1, 108660, Note_on_c, 4, 84, 0
1, 108720, Note_on_c, 0, 56, 0
1, 108720, Note_on_c, 0, 72, 95
1, 108840, Note_on_c, 0, 72, 0
1, 108840, Note_on_c, 0, 70, 95
1, 108840, Note_on_c, 1, 32, 95
1, 108840, Note_on_c, 4, 79, 95
1, 108840, Note_on_c, 9, 35, 95
1, 108960, Note_on_c, 9, 35, 0
1, 108960, Note_on_c, 0, 70, 0
1, 108960, Note_on_c, 1, 32, 0
1, 108960, Note_on_c, 0, 60, 95
1, 108960, Note_on_c, 9, 37, 95
1, 109080, Note_on_c, 9, 37, 0
1, 109080, Note_on_c, 0, 60, 0
1, 109080, Note_on_c, 0, 75, 95
1, 109080, Note_on_c, 1, 32, 95
1, 109080, Note_on_c, 9, 35, 95
1, 109200, Note_on_c, 9, 35, 0
1, 109200, Note_on_c, 4, 79, 0
1, 109200, Note_on_c, 0, 75, 0
1, 109200, Note_on_c, 1, 32, 0
1, 109200, Note_on_c, 0, 77, 95
1, 109200, Note_on_c, 1, 44, 95
1, 109200, Note_on_c, 9, 35, 95
1, 109320, Note_on_c, 9, 35, 0
1, 109320, Note_on_c, 1, 44, 0
1, 109320, Note_on_c, 0, 77, 0
1, 109320, Note_on_c, 1, 46, 95
1, 109440, Note_on_c, 1, 46, 0
1, 109440, Note_on_c, 1, 32, 95
1, 109440, Note_on_c, 6, 63, 95
1, 109440, Note_on_c, 6, 56, 95
1, 109440, Note_on_c, 6, 44, 95
1, 109440, Note_on_c, 7, 75, 95
1, 109440, Note_on_c, 9, 55, 95
1, 109440, Note_on_c, 9, 35, 95
1, 109560, Note_on_c, 7, 75, 0
1, 109560, Note_on_c, 7, 70, 95
1, 109680, Note_on_c, 7, 70, 0
1, 109680, Note_on_c, 3, 67, 95
1, 109680, Note_on_c, 7, 63, 95
1, 109800, Note_on_c, 7, 63, 0
1, 109800, Note_on_c, 7, 75, 95
1, 109920, Note_on_c, 7, 75, 0
1, 109920, Note_on_c, 3, 67, 0
1, 109920, Note_on_c, 9, 55, 0
1, 109920, Note_on_c, 9, 35, 0
1, 109920, Note_on_c, 3, 65, 95
1, 109920, Note_on_c, 7, 70, 95
1, 109920, Note_on_c, 9, 55, 95
1, 109920, Note_on_c, 9, 37, 95
1, 110040, Note_on_c, 7, 70, 0
1, 110040, Note_on_c, 7, 63, 95
1, 110160, Note_on_c, 7, 63, 0
1, 110160, Note_on_c, 9, 37, 0
1, 110160, Note_on_c, 3, 65, 0
1, 110160, Note_on_c, 9, 55, 0
1, 110160, Note_on_c, 3, 63, 95
1, 110160, Note_on_c, 7, 75, 95
1, 110280, Note_on_c, 7, 75, 0
1, 110280, Note_on_c, 3, 63, 0
1, 110280, Note_on_c, 3, 70, 95
1, 110280, Note_on_c, 7, 70, 95
1, 110280, Note_on_c, 9, 35, 95
1, 110400, Note_on_c, 9, 35, 0
1, 110400, Note_on_c, 6, 56, 0
1, 110400, Note_on_c, 6, 63, 0
1, 110400, Note_on_c, 6, 44, 0
1, 110400, Note_on_c, 1, 32, 0
1, 110400, Note_on_c, 7, 70, 0
1, 110400, Note_on_c, 1, 36, 95
1, 110400, Note_on_c, 6, 63, 95
1, 110400, Note_on_c, 6, 55, 95
1, 110400, Note_on_c, 6, 43, 95
1, 110400, Note_on_c, 7, 63, 95
1, 110400, Note_on_c, 9, 55, 95
1, 110400, Note_on_c, 9, 35, 95
1, 110520, Note_on_c, 7, 63, 0
1, 110520, Note_on_c, 3, 70, 0
1, 110520, Note_on_c, 3, 67, 95
1, 110520, Note_on_c, 7, 75, 95
1, 110640, Note_on_c, 7, 75, 0
1, 110640, Note_on_c, 9, 35, 0
1, 110640, Note_on_c, 9, 55, 0
1, 110640, Note_on_c, 7, 70, 95
1, 110760, Note_on_c, 7, 70, 0
1, 110760, Note_on_c, 7, 63, 95
1, 110880, Note_on_c, 7, 63, 0
1, 110880, Note_on_c, 3, 67, 0
1, 110880, Note_on_c, 3, 65, 95
1, 110880, Note_on_c, 7, 75, 95
1, 110880, Note_on_c, 9, 55, 95
1, 110880, Note_on_c, 9, 37, 95
1, 111000, Note_on_c, 7, 75, 0
1, 111000, Note_on_c, 7, 70, 95
1, 111120, Note_on_c, 7, 70, 0
1, 111120, Note_on_c, 3, 65, 0
1, 111120, Note_on_c, 3, 63, 95
1, 111120, Note_on_c, 7, 63, 95
1, 111240, Note_on_c, 7, 63, 0
1, 111240, Note_on_c, 3, 63, 0
1, 111240, Note_on_c, 3, 65, 95
1, 111240, Note_on_c, 7, 75, 95
1, 111360, Note_on_c, 7, 75, 0
1, 111360, Note_on_c, 6, 55, 0
1, 111360, Note_on_c, 1, 36, 0
1, 111360, Note_on_c, 6, 63, 0
1, 111360, Note_on_c, 6, 43, 0
1, 111360, Note_on_c, 9, 37, 0
1, 111360, Note_on_c, 9, 55, 0
1, 111360, Note_on_c, 1, 34, 95
1, 111360, Note_on_c, 6, 63, 95
1, 111360, Note_on_c, 6, 58, 95
1, 111360, Note_on_c, 6, 46, 95
1, 111360, Note_on_c, 7, 70, 95
1, 111360, Note_on_c, 9, 55, 95
1, 111360, Note_on_c, 9, 35, 95
1, 111480, Note_on_c, 7, 70, 0
1, 111480, Note_on_c, 7, 63, 95
1, 111600, Note_on_c, 7, 63, 0
1, 111600, Note_on_c, 7, 75, 95
1, 111720, Note_on_c, 7, 75, 0
1, 111720, Note_on_c, 7, 70, 95
1, 111840, Note_on_c, 7, 70, 0
1, 111840, Note_on_c, 9, 35, 0
1, 111840, Note_on_c, 9, 55, 0
1, 111840, Note_on_c, 7, 63, 95
1, 111840, Note_on_c, 9, 55, 95
1, 111840, Note_on_c, 9, 37, 95
1, 111960, Note_on_c, 7, 63, 0
1, 111960, Note_on_c, 7, 75, 95
1, 112080, Note_on_c, 7, 75, 0
1, 112080, Note_on_c, 9, 37, 0
1, 112080, Note_on_c, 9, 55, 0
1, 112080, Note_on_c, 7, 70, 95
1, 112200, Note_on_c, 7, 70, 0
1, 112200, Note_on_c, 7, 63, 95
1, 112200, Note_on_c, 9, 35, 95
1, 112320, Note_on_c, 9, 35, 0
1, 112320, Note_on_c, 3, 65, 0
1, 112320, Note_on_c, 7, 63, 0
1, 112320, Note_on_c, 7, 74, 95
1, 112320, Note_on_c, 9, 55, 95
1, 112320, Note_on_c, 9, 35, 95
1, 112440, Note_on_c, 7, 74, 0
1, 112440, Note_on_c, 7, 70, 95
1, 112560, Note_on_c, 7, 70, 0
1, 112560, Note_on_c, 9, 35, 0
1, 112560, Note_on_c, 9, 55, 0
1, 112560, Note_on_c, 3, 58, 95
1, 112560, Note_on_c, 7, 63, 95
1, 112560, Note_on_c, 9, 35, 95
1, 112680, Note_on_c, 7, 63, 0
1, 112680, Note_on_c, 7, 74, 95
1, 112800, Note_on_c, 7, 74, 0
1, 112800, Note_on_c, 9, 35, 0
1, 112800, Note_on_c, 3, 58, 0
1, 112800, Note_on_c, 3, 70, 95
1, 112800, Note_on_c, 3, 63, 95
1, 112800, Note_on_c, 7, 70, 95
1, 112800, Note_on_c, 9, 55, 95
1, 112800, Note_on_c, 9, 37, 95
1, 112920, Note_on_c, 7, 70, 0
1, 112920, Note_on_c, 7, 63, 95
1, 113040, Note_on_c, 7, 63, 0
1, 113040, Note_on_c, 9, 37, 0
1, 113040, Note_on_c, 9, 55, 0
1, 113040, Note_on_c, 3, 70, 0
1, 113040, Note_on_c, 3, 63, 0
1, 113040, Note_on_c, 3, 70, 95
1, 113040, Note_on_c, 3, 62, 95
1, 113040, Note_on_c, 7, 75, 95
1, 113040, Note_on_c, 9, 35, 95
1, 113160, Note_on_c, 7, 75, 0
1, 113160, Note_on_c, 3, 62, 0
1, 113160, Note_on_c, 3, 70, 0
1, 113160, Note_on_c, 3, 68, 95
1, 113160, Note_on_c, 3, 60, 95
1, 113160, Note_on_c, 7, 70, 95
1, 113280, Note_on_c, 7, 70, 0
1, 113280, Note_on_c, 6, 46, 0
1, 113280, Note_on_c, 6, 63, 0
1, 113280, Note_on_c, 9, 35, 0
1, 113280, Note_on_c, 1, 34, 0
1, 113280, Note_on_c, 6, 58, 0
1, 113280, Note_on_c, 1, 32, 95
1, 113280, Note_on_c, 6, 63, 95
1, 113280, Note_on_c, 6, 56, 95
1, 113280, Note_on_c, 6, 44, 95
1, 113280, Note_on_c, 7, 63, 95
1, 113280, Note_on_c, 9, 55, 95
1, 113280, Note_on_c, 9, 35, 95
1, 113400, Note_on_c, 7, 63, 0
1, 113400, Note_on_c, 7, 75, 95
1, 113520, Note_on_c, 7, 75, 0
1, 113520, Note_on_c, 7, 70, 95
1, 113640, Note_on_c, 7, 70, 0
1, 113640, Note_on_c, 7, 63, 95
1, 113760, Note_on_c, 7, 63, 0
1, 113760, Note_on_c, 9, 35, 0
1, 113760, Note_on_c, 9, 55, 0
1, 113760, Note_on_c, 7, 75, 95
1, 113760, Note_on_c, 9, 55, 95
1, 113760, Note_on_c, 9, 37, 95
1, 113880, Note_on_c, 7, 75, 0
1, 113880, Note_on_c, 7, 70, 95
1, 114000, Note_on_c, 7, 70, 0
1, 114000, Note_on_c, 9, 37, 0
1, 114000, Note_on_c, 9, 55, 0
1, 114000, Note_on_c, 7, 63, 95
1, 114120, Note_on_c, 7, 63, 0
1, 114120, Note_on_c, 7, 75, 95
1, 114120, Note_on_c, 9, 35, 95
1, 114240, Note_on_c, 9, 35, 0
1, 114240, Note_on_c, 3, 68, 0
1, 114240, Note_on_c, 6, 44, 0
1, 114240, Note_on_c, 3, 60, 0
1, 114240, Note_on_c, 1, 32, 0
1, 114240, Note_on_c, 6, 63, 0
1, 114240, Note_on_c, 6, 56, 0
1, 114240, Note_on_c, 7, 75, 0
1, 114240, Note_on_c, 1, 39, 95
1, 114240, Note_on_c, 3, 67, 95
1, 114240, Note_on_c, 3, 58, 95
1, 114240, Note_on_c, 6, 63, 95
1, 114240, Note_on_c, 6, 55, 95
1, 114240, Note_on_c, 6, 43, 95
1, 114240, Note_on_c, 7, 70, 95
1, 114240, Note_on_c, 9, 55, 95
1, 114240, Note_on_c, 9, 35, 95
1, 114360, Note_on_c, 7, 70, 0
1, 114360, Note_on_c, 7, 63, 95
1, 114480, Note_on_c, 7, 63, 0
1, 114480, Note_on_c, 9, 35, 0
1, 114480, Note_on_c, 9, 55, 0
1, 114480, Note_on_c, 7, 75, 95
1, 114600, Note_on_c, 7, 75, 0
1, 114600, Note_on_c, 7, 70, 95
1, 114720, Note_on_c, 7, 70, 0
1, 114720, Note_on_c, 7, 63, 95
1, 114720, Note_on_c, 9, 55, 95
1, 114720, Note_on_c, 9, 37, 95
1, 114840, Note_on_c, 7, 63, 0
1, 114840, Note_on_c, 7, 75, 95
1, 114960, Note_on_c, 7, 75, 0
1, 114960, Note_on_c, 7, 70, 95
1, 115080, Note_on_c, 7, 70, 0
1, 115080, Note_on_c, 7, 63, 95
1, 115200, Note_on_c, 7, 63, 0
1, 115200, Note_on_c, 1, 39, 0
1, 115200, Note_on_c, 6, 63, 0
1, 115200, Note_on_c, 6, 43, 0
1, 115200, Note_on_c, 3, 67, 0
1, 115200, Note_on_c, 3, 58, 0
1, 115200, Note_on_c, 9, 55, 0
1, 115200, Note_on_c, 6, 55, 0
1, 115200, Note_on_c, 9, 37, 0
1, 115200, Note_on_c, 1, 31, 95
1, 115200, Note_on_c, 3, 70, 95
1, 115200, Note_on_c, 3, 62, 95
1, 115200, Note_on_c, 6, 62, 95
1, 115200, Note_on_c, 6, 58, 95
1, 115200, Note_on_c, 6, 46, 95
1, 115200, Note_on_c, 7, 75, 95
1, 115200, Note_on_c, 9, 55, 95
1, 115200, Note_on_c, 9, 35, 95
1, 115320, Note_on_c, 7, 75, 0
1, 115320, Note_on_c, 7, 70, 95
1, 115440, Note_on_c, 7, 70, 0
1, 115440, Note_on_c, 7, 63, 95
1, 115560, Note_on_c, 7, 63, 0
1, 115560, Note_on_c, 7, 75, 95
1, 115680, Note_on_c, 7, 75, 0
1, 115680, Note_on_c, 9, 35, 0
1, 115680, Note_on_c, 9, 55, 0
1, 115680, Note_on_c, 7, 70, 95
1, 115680, Note_on_c, 9, 55, 95
1, 115680, Note_on_c, 9, 37, 95
1, 115800, Note_on_c, 7, 70, 0
1, 115800, Note_on_c, 7, 63, 95
1, 115920, Note_on_c, 7, 63, 0
1, 115920, Note_on_c, 9, 37, 0
1, 115920, Note_on_c, 9, 55, 0
1, 115920, Note_on_c, 7, 75, 95
1, 116040, Note_on_c, 7, 75, 0
1, 116040, Note_on_c, 7, 70, 95
1, 116040, Note_on_c, 9, 35, 95
1, 116160, Note_on_c, 9, 35, 0
1, 116160, Note_on_c, 1, 31, 0
1, 116160, Note_on_c, 6, 46, 0
1, 116160, Note_on_c, 3, 70, 0
1, 116160, Note_on_c, 3, 62, 0
1, 116160, Note_on_c, 6, 62, 0
1, 116160, Note_on_c, 6, 58, 0
1, 116160, Note_on_c, 7, 70, 0
1, 116160, Note_on_c, 1, 32, 95
1, 116160, Note_on_c, 3, 68, 95
1, 116160, Note_on_c, 3, 63, 95
1, 116160, Note_on_c, 6, 63, 95
1, 116160, Note_on_c, 6, 56, 95
1, 116160, Note_on_c, 6, 44, 95
1, 116160, Note_on_c, 7, 63, 95
1, 116160, Note_on_c, 9, 55, 95
1, 116160, Note_on_c, 9, 35, 95
1, 116280, Note_on_c, 7, 63, 0
1, 116280, Note_on_c, 7, 75, 95
1, 116400, Note_on_c, 7, 75, 0
1, 116400, Note_on_c, 9, 35, 0
1, 116400, Note_on_c, 9, 55, 0
1, 116400, Note_on_c, 7, 70, 95
1, 116400, Note_on_c, 9, 35, 95
1, 116520, Note_on_c, 7, 70, 0
1, 116520, Note_on_c, 7, 63, 95
1, 116640, Note_on_c, 7, 63, 0
1, 116640, Note_on_c, 9, 35, 0
1, 116640, Note_on_c, 7, 75, 95
1, 116640, Note_on_c, 9, 55, 95
1, 116640, Note_on_c, 9, 37, 95
1, 116760, Note_on_c, 7, 75, 0
1, 116760, Note_on_c, 7, 70, 95
1, 116880, Note_on_c, 7, 70, 0
1, 116880, Note_on_c, 9, 37, 0
1, 116880, Note_on_c, 9, 55, 0
1, 116880, Note_on_c, 7, 63, 95
1, 116880, Note_on_c, 9, 35, 95
1, 117000, Note_on_c, 7, 63, 0
1, 117000, Note_on_c, 7, 75, 95
1, 117120, Note_on_c, 7, 75, 0
1, 117120, Note_on_c, 6, 63, 0
1, 117120, Note_on_c, 6, 44, 0
1, 117120, Note_on_c, 3, 68, 0
1, 117120, Note_on_c, 3, 63, 0
1, 117120, Note_on_c, 9, 35, 0
1, 117120, Note_on_c, 6, 56, 0
1, 117120, Note_on_c, 1, 32, 0
1, 117120, Note_on_c, 1, 32, 95
1, 117120, Note_on_c, 3, 60, 95
1, 117120, Note_on_c, 6, 63, 95
1, 117120, Note_on_c, 6, 56, 95
1, 117120, Note_on_c, 6, 44, 95
1, 117120, Note_on_c, 7, 70, 95
1, 117120, Note_on_c, 9, 55, 95
1, 117120, Note_on_c, 9, 35, 95
1, 117240, Note_on_c, 7, 70, 0
1, 117240, Note_on_c, 7, 63, 95
1, 117360, Note_on_c, 7, 63, 0
1, 117360, Note_on_c, 3, 60, 0
1, 117360, Note_on_c, 3, 60, 95
1, 117360, Note_on_c, 7, 75, 95
1, 117480, Note_on_c, 7, 75, 0
1, 117480, Note_on_c, 3, 60, 0
1, 117480, Note_on_c, 3, 63, 95
1, 117480, Note_on_c, 7, 70, 95
1, 117600, Note_on_c, 7, 70, 0
1, 117600, Note_on_c, 9, 55, 0
1, 117600, Note_on_c, 9, 35, 0
1, 117600, Note_on_c, 7, 63, 95
1, 117600, Note_on_c, 9, 55, 95
1, 117600, Note_on_c, 9, 37, 95
1, 117720, Note_on_c, 7, 63, 0
1, 117720, Note_on_c, 7, 75, 95
1, 117840, Note_on_c, 7, 75, 0
1, 117840, Note_on_c, 9, 37, 0
1, 117840, Note_on_c, 3, 63, 0
1, 117840, Note_on_c, 9, 55, 0
1, 117840, Note_on_c, 3, 67, 95
1, 117840, Note_on_c, 7, 70, 95
1, 117960, Note_on_c, 7, 70, 0
1, 117960, Note_on_c, 7, 63, 95
1, 117960, Note_on_c, 9, 35, 95
1, 118080, Note_on_c, 9, 35, 0
1, 118080, Note_on_c, 6, 63, 0
1, 118080, Note_on_c, 3, 67, 0
1, 118080, Note_on_c, 1, 32, 0
1, 118080, Note_on_c, 6, 44, 0
1, 118080, Note_on_c, 7, 63, 0
1, 118080, Note_on_c, 6, 56, 0
1, 118080, Note_on_c, 1, 39, 95
1, 118080, Note_on_c, 3, 65, 95
1, 118080, Note_on_c, 6, 67, 95
1, 118080, Note_on_c, 6, 63, 95
1, 118080, Note_on_c, 6, 55, 95
1, 118080, Note_on_c, 7, 75, 95
1, 118080, Note_on_c, 9, 55, 95
1, 118080, Note_on_c, 9, 35, 95
1, 118200, Note_on_c, 7, 75, 0
1, 118200, Note_on_c, 3, 65, 0
1, 118200, Note_on_c, 3, 63, 95
1, 118200, Note_on_c, 7, 70, 95
1, 118320, Note_on_c, 7, 70, 0
1, 118320, Note_on_c, 9, 35, 0
1, 118320, Note_on_c, 9, 55, 0
1, 118320, Note_on_c, 7, 63, 95
1, 118440, Note_on_c, 7, 63, 0
1, 118440, Note_on_c, 7, 75, 95
1, 118560, Note_on_c, 7, 75, 0
1, 118560, Note_on_c, 3, 63, 0
1, 118560, Note_on_c, 3, 58, 95
1, 118560, Note_on_c, 7, 70, 95
1, 118560, Note_on_c, 9, 55, 95
1, 118560, Note_on_c, 9, 37, 95
1, 118680, Note_on_c, 7, 70, 0
1, 118680, Note_on_c, 7, 63, 95
1, 118800, Note_on_c, 7, 63, 0
1, 118800, Note_on_c, 3, 58, 0
1, 118800, Note_on_c, 3, 58, 95
1, 118800, Note_on_c, 7, 75, 95
1, 118920, Note_on_c, 7, 75, 0
1, 118920, Note_on_c, 3, 58, 0
1, 118920, Note_on_c, 3, 60, 95
1, 118920, Note_on_c, 7, 70, 95
1, 119040, Note_on_c, 7, 70, 0
1, 119040, Note_on_c, 6, 63, 0
1, 119040, Note_on_c, 1, 39, 0
1, 119040, Note_on_c, 6, 67, 0
1, 119040, Note_on_c, 6, 55, 0
1, 119040, Note_on_c, 9, 37, 0
1, 119040, Note_on_c, 9, 55, 0
1, 119040, Note_on_c, 1, 32, 95
1, 119040, Note_on_c, 6, 63, 95
1, 119040, Note_on_c, 6, 56, 95
1, 119040, Note_on_c, 6, 44, 95
1, 119040, Note_on_c, 7, 70, 95
1, 119040, Note_on_c, 9, 55, 95
1, 119040, Note_on_c, 9, 35, 95
1, 119160, Note_on_c, 7, 70, 0
1, 119160, Note_on_c, 7, 63, 95
1, 119280, Note_on_c, 7, 63, 0
1, 119280, Note_on_c, 3, 60, 0
1, 119280, Note_on_c, 3, 60, 95
1, 119280, Note_on_c, 7, 75, 95
1, 119400, Note_on_c, 7, 75, 0
1, 119400, Note_on_c, 7, 70, 95
1, 119520, Note_on_c, 7, 70, 0
1, 119520, Note_on_c, 6, 44, 0
1, 119520, Note_on_c, 1, 32, 0
1, 119520, Note_on_c, 6, 63, 0
1, 119520, Note_on_c, 6, 56, 0
1, 119520, Note_on_c, 3, 60, 0
1, 119520, Note_on_c, 9, 55, 0
1, 119520, Note_on_c, 9, 35, 0
1, 119520, Note_on_c, 1, 34, 95
1, 119520, Note_on_c, 3, 63, 95
1, 119520, Note_on_c, 6, 65, 95
1, 119520, Note_on_c, 6, 58, 95
1, 119520, Note_on_c, 6, 46, 95
1, 119520, Note_on_c, 7, 63, 95
1, 119520, Note_on_c, 9, 55, 95
1, 119520, Note_on_c, 9, 37, 95
1, 119640, Note_on_c, 7, 63, 0
1, 119640, Note_on_c, 7, 75, 95
1, 119760, Note_on_c, 7, 75, 0
1, 119760, Note_on_c, 9, 37, 0
1, 119760, Note_on_c, 3, 63, 0
1, 119760, Note_on_c, 9, 55, 0
1, 119760, Note_on_c, 3, 65, 95
1, 119760, Note_on_c, 7, 70, 95
1, 119880, Note_on_c, 7, 70, 0
1, 119880, Note_on_c, 3, 65, 0
1, 119880, Note_on_c, 3, 60, 95
1, 119880, Note_on_c, 7, 63, 95
1, 119880, Note_on_c, 9, 35, 95
1, 120000, Note_on_c, 9, 35, 0
1, 120000, Note_on_c, 6, 46, 0
1, 120000, Note_on_c, 6, 65, 0
1, 120000, Note_on_c, 6, 58, 0
1, 120000, Note_on_c, 1, 34, 0
1, 120000, Note_on_c, 7, 63, 0
1, 120000, Note_on_c, 1, 36, 95
1, 120000, Note_on_c, 6, 67, 95
1, 120000, Note_on_c, 6, 60, 95
1, 120000, Note_on_c, 6, 48, 95
1, 120000, Note_on_c, 7, 74, 95
1, 120000, Note_on_c, 9, 55, 95
1, 120120, Note_on_c, 9, 55, 0
1, 120120, Note_on_c, 7, 74, 0
1, 120120, Note_on_c, 7, 70, 95
1, 120240, Note_on_c, 7, 70, 0
1, 120240, Note_on_c, 7, 63, 95
1, 120240, Note_on_c, 9, 35, 95
1, 120360, Note_on_c, 7, 63, 0
1, 120360, Note_on_c, 7, 74, 95
1, 120480, Note_on_c, 7, 74, 0
1, 120480, Note_on_c, 9, 35, 0
1, 120480, Note_on_c, 7, 70, 95
1, 120480, Note_on_c, 9, 55, 95
1, 120480, Note_on_c, 9, 37, 95
1, 120600, Note_on_c, 9, 37, 0
1, 120600, Note_on_c, 9, 55, 0
1, 120600, Note_on_c, 7, 70, 0
1, 120600, Note_on_c, 7, 63, 95
1, 120720, Note_on_c, 7, 63, 0
1, 120720, Note_on_c, 7, 75, 95
1, 120720, Note_on_c, 9, 35, 95
1, 120840, Note_on_c, 9, 35, 0
1, 120840, Note_on_c, 3, 60, 0
1, 120840, Note_on_c, 7, 75, 0
1, 120840, Note_on_c, 3, 58, 95
1, 120840, Note_on_c, 7, 70, 95
1, 120960, Note_on_c, 7, 70, 0
1, 120960, Note_on_c, 6, 67, 0
1, 120960, Note_on_c, 1, 36, 0
1, 120960, Note_on_c, 6, 48, 0
1, 120960, Note_on_c, 3, 58, 0
1, 120960, Note_on_c, 6, 60, 0
1, 120960, Note_on_c, 1, 32, 95
1, 120960, Note_on_c, 3, 60, 95
1, 120960, Note_on_c, 6, 63, 95
1, 120960, Note_on_c, 6, 56, 95
1, 120960, Note_on_c, 6, 44, 95
1, 120960, Note_on_c, 7, 63, 95
1, 120960, Note_on_c, 9, 55, 95
1, 120960, Note_on_c, 9, 35, 95
1, 121080, Note_on_c, 7, 63, 0
1, 121080, Note_on_c, 7, 75, 95
1, 121200, Note_on_c, 7, 75, 0
1, 121200, Note_on_c, 3, 60, 0
1, 121200, Note_on_c, 3, 63, 95
1, 121200, Note_on_c, 7, 70, 95
1, 121320, Note_on_c, 7, 70, 0
1, 121320, Note_on_c, 3, 63, 0
1, 121320, Note_on_c, 3, 63, 95
1, 121320, Note_on_c, 7, 63, 95
1, 121440, Note_on_c, 7, 63, 0
1, 121440, Note_on_c, 9, 55, 0
1, 121440, Note_on_c, 9, 35, 0
1, 121440, Note_on_c, 7, 75, 95
1, 121440, Note_on_c, 9, 55, 95
1, 121440, Note_on_c, 9, 37, 95
1, 121560, Note_on_c, 7, 75, 0
1, 121560, Note_on_c, 7, 70, 95
1, 121680, Note_on_c, 7, 70, 0
1, 121680, Note_on_c, 9, 37, 0
1, 121680, Note_on_c, 3, 63, 0
1, 121680, Note_on_c, 9, 55, 0
1, 121680, Note_on_c, 3, 67, 95
1, 121680, Note_on_c, 7, 63, 95
1, 121800, Note_on_c, 7, 63, 0
1, 121800, Note_on_c, 7, 75, 95
1, 121800, Note_on_c, 9, 35, 95
1, 121920, Note_on_c, 9, 35, 0
1, 121920, Note_on_c, 6, 63, 0
1, 121920, Note_on_c, 3, 67, 0
1, 121920, Note_on_c, 1, 32, 0
1, 121920, Note_on_c, 6, 44, 0
1, 121920, Note_on_c, 7, 75, 0
1, 121920, Note_on_c, 6, 56, 0
1, 121920, Note_on_c, 1, 39, 95
1, 121920, Note_on_c, 3, 65, 95
1, 121920, Note_on_c, 6, 58, 95
1, 121920, Note_on_c, 6, 55, 95
1, 121920, Note_on_c, 6, 43, 95
1, 121920, Note_on_c, 7, 70, 95
1, 121920, Note_on_c, 9, 55, 95
1, 121920, Note_on_c, 9, 35, 95
1, 122040, Note_on_c, 7, 70, 0
1, 122040, Note_on_c, 3, 65, 0
1, 122040, Note_on_c, 3, 63, 95
1, 122040, Note_on_c, 7, 63, 95
1, 122160, Note_on_c, 7, 63, 0
1, 122160, Note_on_c, 9, 35, 0
1, 122160, Note_on_c, 9, 55, 0
1, 122160, Note_on_c, 7, 75, 95
1, 122280, Note_on_c, 7, 75, 0
1, 122280, Note_on_c, 7, 70, 95
1, 122400, Note_on_c, 7, 70, 0
1, 122400, Note_on_c, 3, 63, 0
1, 122400, Note_on_c, 3, 58, 95
1, 122400, Note_on_c, 7, 63, 95
1, 122400, Note_on_c, 9, 55, 95
1, 122400, Note_on_c, 9, 37, 95
1, 122520, Note_on_c, 7, 63, 0
1, 122520, Note_on_c, 7, 75, 95
1, 122640, Note_on_c, 7, 75, 0
1, 122640, Note_on_c, 3, 58, 0
1, 122640, Note_on_c, 3, 63, 95
1, 122640, Note_on_c, 7, 70, 95
1, 122760, Note_on_c, 7, 70, 0
1, 122760, Note_on_c, 3, 63, 0
1, 122760, Note_on_c, 3, 65, 95
1, 122760, Note_on_c, 7, 63, 95
1, 122880, Note_on_c, 7, 63, 0
1, 122880, Note_on_c, 6, 55, 0
1, 122880, Note_on_c, 1, 39, 0
1, 122880, Note_on_c, 6, 58, 0
1, 122880, Note_on_c, 6, 43, 0
1, 122880, Note_on_c, 9, 37, 0
1, 122880, Note_on_c, 9, 55, 0
1, 122880, Note_on_c, 1, 29, 95
1, 122880, Note_on_c, 6, 60, 95
1, 122880, Note_on_c, 6, 57, 95
1, 122880, Note_on_c, 6, 53, 95
1, 122880, Note_on_c, 6, 45, 95
1, 122880, Note_on_c, 9, 55, 95
1, 122880, Note_on_c, 9, 35, 95
1, 123000, Note_on_c, 9, 35, 0
1, 123000, Note_on_c, 9, 55, 0
1, 123000, Note_on_c, 9, 35, 95
1, 123120, Note_on_c, 9, 35, 0
1, 123360, Note_on_c, 9, 55, 95
1, 123360, Note_on_c, 9, 37, 95
1, 123600, Note_on_c, 9, 37, 0
1, 123600, Note_on_c, 9, 55, 0
1, 123720, Note_on_c, 9, 35, 95
1, 123840, Note_on_c, 9, 35, 0
1, 123840, Note_on_c, 3, 65, 0
1, 123840, Note_on_c, 9, 55, 95
1, 123960, Note_on_c, 9, 55, 0
1, 123960, Note_on_c, 9, 35, 95
1, 124080, Note_on_c, 9, 35, 0
1, 124080, Note_on_c, 9, 35, 95
1, 124320, Note_on_c, 9, 35, 0
1, 124320, Note_on_c, 6, 45, 0
1, 124320, Note_on_c, 6, 57, 0
1, 124320, Note_on_c, 1, 29, 0
1, 124320, Note_on_c, 6, 60, 0
1, 124320, Note_on_c, 6, 53, 0
1, 124320, Note_on_c, 1, 31, 95
1, 124320, Note_on_c, 6, 63, 95
1, 124320, Note_on_c, 6, 58, 95
1, 124320, Note_on_c, 6, 53, 95
1, 124320, Note_on_c, 6, 46, 95
1, 124320, Note_on_c, 9, 55, 95
1, 124320, Note_on_c, 9, 37, 95
1, 124560, Note_on_c, 9, 37, 0
1, 124560, Note_on_c, 9, 55, 0
1, 124560, Note_on_c, 9, 35, 95
1, 124800, Note_on_c, 9, 35, 0
1, 124800, Note_on_c, 6, 46, 0
1, 124800, Note_on_c, 6, 58, 0
1, 124800, Note_on_c, 1, 31, 0
1, 124800, Note_on_c, 6, 63, 0
1, 124800, Note_on_c, 6, 53, 0
1, 124800, Note_on_c, 1, 32, 95
1, 124800, Note_on_c, 6, 63, 95
1, 124800, Note_on_c, 6, 56, 95
1, 124800, Note_on_c, 6, 44, 95
1, 124800, Note_on_c, 7, 75, 95
1, 124800, Note_on_c, 9, 55, 95
1, 124800, Note_on_c, 9, 35, 95
1, 124920, Note_on_c, 7, 75, 0
1, 124920, Note_on_c, 7, 70, 95
1, 125040, Note_on_c, 7, 70, 0
1, 125040, Note_on_c, 3, 67, 95
1, 125040, Note_on_c, 7, 63, 95
1, 125160, Note_on_c, 7, 63, 0
1, 125160, Note_on_c, 7, 75, 95
1, 125280, Note_on_c, 7, 75, 0
1, 125280, Note_on_c, 3, 67, 0
1, 125280, Note_on_c, 9, 55, 0
1, 125280, Note_on_c, 9, 35, 0
1, 125280, Note_on_c, 3, 65, 95
1, 125280, Note_on_c, 7, 70, 95
1, 125280, Note_on_c, 9, 55, 95
1, 125280, Note_on_c, 9, 37, 95
1, 125400, Note_on_c, 7, 70, 0
1, 125400, Note_on_c, 7, 63, 95
1, 125520, Note_on_c, 7, 63, 0
1, 125520, Note_on_c, 9, 37, 0
1, 125520, Note_on_c, 3, 65, 0
1, 125520, Note_on_c, 9, 55, 0
1, 125520, Note_on_c, 3, 63, 95
1, 125520, Note_on_c, 7, 75, 95
1, 125640, Note_on_c, 7, 75, 0
1, 125640, Note_on_c, 3, 63, 0
1, 125640, Note_on_c, 3, 70, 95
1, 125640, Note_on_c, 7, 70, 95
1, 125640, Note_on_c, 9, 35, 95
1, 125760, Note_on_c, 9, 35, 0
1, 125760, Note_on_c, 6, 56, 0
1, 125760, Note_on_c, 6, 63, 0
1, 125760, Note_on_c, 6, 44, 0
1, 125760, Note_on_c, 1, 32, 0
1, 125760, Note_on_c, 7, 70, 0
1, 125760, Note_on_c, 1, 36, 95
1, 125760, Note_on_c, 6, 63, 95
1, 125760, Note_on_c, 6, 55, 95
1, 125760, Note_on_c, 6, 43, 95
1, 125760, Note_on_c, 7, 63, 95
1, 125760, Note_on_c, 9, 55, 95
1, 125760, Note_on_c, 9, 35, 95
1, 125880, Note_on_c, 7, 63, 0
1, 125880, Note_on_c, 3, 70, 0
1, 125880, Note_on_c, 3, 67, 95
1, 125880, Note_on_c, 3, 63, 95
1, 125880, Note_on_c, 7, 75, 95
1, 126000, Note_on_c, 7, 75, 0
1, 126000, Note_on_c, 9, 35, 0
1, 126000, Note_on_c, 9, 55, 0
1, 126000, Note_on_c, 7, 70, 95
1, 126120, Note_on_c, 7, 70, 0
1, 126120, Note_on_c, 7, 63, 95
1, 126240, Note_on_c, 7, 63, 0
1, 126240, Note_on_c, 3, 63, 0
1, 126240, Note_on_c, 3, 67, 0
1, 126240, Note_on_c, 3, 65, 95
1, 126240, Note_on_c, 3, 62, 95
1, 126240, Note_on_c, 7, 75, 95
1, 126240, Note_on_c, 9, 55, 95
1, 126240, Note_on_c, 9, 37, 95
1, 126360, Note_on_c, 7, 75, 0
1, 126360, Note_on_c, 7, 70, 95
1, 126480, Note_on_c, 7, 70, 0
1, 126480, Note_on_c, 3, 62, 0
1, 126480, Note_on_c, 3, 65, 0
1, 126480, Note_on_c, 3, 63, 95
1, 126480, Note_on_c, 3, 60, 95
1, 126480, Note_on_c, 7, 63, 95
1, 126600, Note_on_c, 7, 63, 0
1, 126600, Note_on_c, 3, 60, 0
1, 126600, Note_on_c, 3, 63, 0
1, 126600, Note_on_c, 3, 65, 95
1, 126600, Note_on_c, 3, 62, 95
1, 126600, Note_on_c, 7, 75, 95
1, 126720, Note_on_c, 7, 75, 0
1, 126720, Note_on_c, 9, 55, 0
1, 126720, Note_on_c, 1, 36, 0
1, 126720, Note_on_c, 9, 37, 0
1, 126720, Note_on_c, 6, 63, 0
1, 126720, Note_on_c, 6, 43, 0
1, 126720, Note_on_c, 6, 55, 0
1, 126720, Note_on_c, 1, 34, 95
1, 126720, Note_on_c, 6, 63, 95
1, 126720, Note_on_c, 6, 58, 95
1, 126720, Note_on_c, 6, 46, 95
1, 126720, Note_on_c, 7, 70, 95
1, 126720, Note_on_c, 9, 55, 95
1, 126720, Note_on_c, 9, 35, 95
1, 126840, Note_on_c, 7, 70, 0
1, 126840, Note_on_c, 7, 63, 95
1, 126960, Note_on_c, 7, 63, 0
1, 126960, Note_on_c, 7, 75, 95
1, 127080, Note_on_c, 7, 75, 0
1, 127080, Note_on_c, 7, 70, 95
1, 127200, Note_on_c, 7, 70, 0
1, 127200, Note_on_c, 9, 35, 0
1, 127200, Note_on_c, 9, 55, 0
1, 127200, Note_on_c, 7, 63, 95
1, 127200, Note_on_c, 9, 55, 95
1, 127200, Note_on_c, 9, 37, 95
1, 127320, Note_on_c, 7, 63, 0
1, 127320, Note_on_c, 7, 75, 95
1, 127440, Note_on_c, 7, 75, 0
1, 127440, Note_on_c, 9, 37, 0
1, 127440, Note_on_c, 9, 55, 0
1, 127440, Note_on_c, 7, 70, 95
1, 127560, Note_on_c, 7, 70, 0
1, 127560, Note_on_c, 7, 63, 95
1, 127560, Note_on_c, 9, 35, 95
1, 127680, Note_on_c, 9, 35, 0
1, 127680, Note_on_c, 7, 63, 0
1, 127680, Note_on_c, 3, 62, 0
1, 127680, Note_on_c, 3, 65, 0
1, 127680, Note_on_c, 7, 74, 95
1, 127680, Note_on_c, 9, 55, 95
1, 127680, Note_on_c, 9, 35, 95
1, 127800, Note_on_c, 7, 74, 0
1, 127800, Note_on_c, 7, 70, 95
1, 127920, Note_on_c, 7, 70, 0
1, 127920, Note_on_c, 9, 35, 0
1, 127920, Note_on_c, 9, 55, 0
1, 127920, Note_on_c, 3, 58, 95
1, 127920, Note_on_c, 7, 63, 95
1, 127920, Note_on_c, 9, 35, 95
1, 128040, Note_on_c, 7, 63, 0
1, 128040, Note_on_c, 7, 74, 95
1, 128160, Note_on_c, 7, 74, 0
1, 128160, Note_on_c, 9, 35, 0
1, 128160, Note_on_c, 3, 58, 0
1, 128160, Note_on_c, 3, 70, 95
1, 128160, Note_on_c, 3, 63, 95
1, 128160, Note_on_c, 7, 70, 95
1, 128160, Note_on_c, 9, 55, 95
1, 128160, Note_on_c, 9, 37, 95
1, 128280, Note_on_c, 7, 70, 0
1, 128280, Note_on_c, 7, 63, 95
1, 128400, Note_on_c, 7, 63, 0
1, 128400, Note_on_c, 9, 37, 0
1, 128400, Note_on_c, 9, 55, 0
1, 128400, Note_on_c, 3, 70, 0
1, 128400, Note_on_c, 3, 63, 0
1, 128400, Note_on_c, 3, 70, 95
1, 128400, Note_on_c, 3, 62, 95
1, 128400, Note_on_c, 7, 75, 95
1, 128400, Note_on_c, 9, 35, 95
1, 128520, Note_on_c, 7, 75, 0
1, 128520, Note_on_c, 3, 62, 0
1, 128520, Note_on_c, 3, 70, 0
1, 128520, Note_on_c, 3, 68, 95
1, 128520, Note_on_c, 3, 60, 95
1, 128520, Note_on_c, 7, 70, 95
1, 128640, Note_on_c, 7, 70, 0
1, 128640, Note_on_c, 6, 46, 0
1, 128640, Note_on_c, 1, 34, 0
1, 128640, Note_on_c, 9, 35, 0
1, 128640, Note_on_c, 6, 63, 0
1, 128640, Note_on_c, 6, 58, 0
1, 128640, Note_on_c, 1, 32, 95
1, 128640, Note_on_c, 6, 63, 95
1, 128640, Note_on_c, 6, 56, 95
1, 128640, Note_on_c, 6, 44, 95
1, 128640, Note_on_c, 7, 63, 95
1, 128640, Note_on_c, 9, 55, 95
1, 128640, Note_on_c, 9, 35, 95
1, 128760, Note_on_c, 7, 63, 0
1, 128760, Note_on_c, 7, 75, 95
1, 128880, Note_on_c, 7, 75, 0
1, 128880, Note_on_c, 7, 70, 95
1, 129000, Note_on_c, 7, 70, 0
1, 129000, Note_on_c, 7, 63, 95
1, 129120, Note_on_c, 7, 63, 0
1, 129120, Note_on_c, 9, 35, 0
1, 129120, Note_on_c, 9, 55, 0
1, 129120, Note_on_c, 7, 75, 95
1, 129120, Note_on_c, 9, 55, 95
1, 129120, Note_on_c, 9, 37, 95
1, 129240, Note_on_c, 7, 75, 0
1, 129240, Note_on_c, 7, 70, 95
1, 129360, Note_on_c, 7, 70, 0
1, 129360, Note_on_c, 9, 37, 0
1, 129360, Note_on_c, 9, 55, 0
1, 129360, Note_on_c, 7, 63, 95
1, 129480, Note_on_c, 7, 63, 0
1, 129480, Note_on_c, 7, 75, 95
1, 129480, Note_on_c, 9, 35, 95
1, 129600, Note_on_c, 9, 35, 0
1, 129600, Note_on_c, 3, 68, 0
1, 129600, Note_on_c, 6, 44, 0
1, 129600, Note_on_c, 3, 60, 0
1, 129600, Note_on_c, 1, 32, 0
1, 129600, Note_on_c, 6, 63, 0
1, 129600, Note_on_c, 6, 56, 0
1, 129600, Note_on_c, 7, 75, 0
1, 129600, Note_on_c, 1, 39, 95
1, 129600, Note_on_c, 3, 67, 95
1, 129600, Note_on_c, 3, 58, 95
1, 129600, Note_on_c, 6, 63, 95
1, 129600, Note_on_c, 6, 55, 95
1, 129600, Note_on_c, 6, 43, 95
1, 129600, Note_on_c, 7, 70, 95
1, 129600, Note_on_c, 9, 55, 95
1, 129600, Note_on_c, 9, 35, 95
1, 129720, Note_on_c, 7, 70, 0
1, 129720, Note_on_c, 7, 63, 95
1, 129840, Note_on_c, 7, 63, 0
1, 129840, Note_on_c, 9, 35, 0
1, 129840, Note_on_c, 9, 55, 0
1, 129840, Note_on_c, 7, 75, 95
1, 129960, Note_on_c, 7, 75, 0
1, 129960, Note_on_c, 7, 70, 95
1, 130080, Note_on_c, 7, 70, 0
1, 130080, Note_on_c, 7, 63, 95
1, 130080, Note_on_c, 9, 55, 95
1, 130080, Note_on_c, 9, 37, 95
1, 130200, Note_on_c, 7, 63, 0
1, 130200, Note_on_c, 7, 75, 95
1, 130320, Note_on_c, 7, 75, 0
1, 130320, Note_on_c, 7, 70, 95
1, 130440, Note_on_c, 7, 70, 0
1, 130440, Note_on_c, 7, 63, 95
1, 130560, Note_on_c, 7, 63, 0
1, 130560, Note_on_c, 1, 39, 0
1, 130560, Note_on_c, 6, 63, 0
1, 130560, Note_on_c, 6, 43, 0
1, 130560, Note_on_c, 3, 67, 0
1, 130560, Note_on_c, 3, 58, 0
1, 130560, Note_on_c, 9, 55, 0
1, 130560, Note_on_c, 6, 55, 0
1, 130560, Note_on_c, 9, 37, 0
1, 130560, Note_on_c, 1, 31, 95
1, 130560, Note_on_c, 3, 70, 95
1, 130560, Note_on_c, 3, 62, 95
1, 130560, Note_on_c, 3, 65, 95
1, 130560, Note_on_c, 6, 62, 95
1, 130560, Note_on_c, 6, 58, 95
1, 130560, Note_on_c, 6, 46, 95
1, 130560, Note_on_c, 7, 75, 95
1, 130560, Note_on_c, 9, 55, 95
1, 130560, Note_on_c, 9, 35, 95
1, 130680, Note_on_c, 7, 75, 0
1, 130680, Note_on_c, 7, 70, 95
1, 130800, Note_on_c, 7, 70, 0
1, 130800, Note_on_c, 7, 63, 95
1, 130920, Note_on_c, 7, 63, 0
1, 130920, Note_on_c, 7, 75, 95
1, 131040, Note_on_c, 7, 75, 0
1, 131040, Note_on_c, 9, 35, 0
1, 131040, Note_on_c, 9, 55, 0
1, 131040, Note_on_c, 7, 70, 95
1, 131040, Note_on_c, 9, 55, 95
1, 131040, Note_on_c, 9, 37, 95
1, 131160, Note_on_c, 7, 70, 0
1, 131160, Note_on_c, 7, 63, 95
1, 131280, Note_on_c, 7, 63, 0
1, 131280, Note_on_c, 9, 37, 0
1, 131280, Note_on_c, 9, 55, 0
1, 131280, Note_on_c, 7, 75, 95
1, 131400, Note_on_c, 7, 75, 0
1, 131400, Note_on_c, 7, 70, 95
1, 131400, Note_on_c, 9, 35, 95
1, 131520, Note_on_c, 9, 35, 0
1, 131520, Note_on_c, 6, 46, 0
1, 131520, Note_on_c, 3, 65, 0
1, 131520, Note_on_c, 6, 62, 0
1, 131520, Note_on_c, 3, 70, 0
1, 131520, Note_on_c, 3, 62, 0
1, 131520, Note_on_c, 1, 31, 0
1, 131520, Note_on_c, 6, 58, 0
1, 131520, Note_on_c, 7, 70, 0
1, 131520, Note_on_c, 1, 32, 95
1, 131520, Note_on_c, 3, 68, 95
1, 131520, Note_on_c, 3, 63, 95
1, 131520, Note_on_c, 3, 60, 95
1, 131520, Note_on_c, 6, 63, 95
1, 131520, Note_on_c, 6, 56, 95
1, 131520, Note_on_c, 6, 44, 95
1, 131520, Note_on_c, 7, 63, 95
1, 131520, Note_on_c, 9, 55, 95
1, 131520, Note_on_c, 9, 35, 95
1, 131640, Note_on_c, 7, 63, 0
1, 131640, Note_on_c, 7, 75, 95
1, 131760, Note_on_c, 7, 75, 0
1, 131760, Note_on_c, 9, 35, 0
1, 131760, Note_on_c, 9, 55, 0
1, 131760, Note_on_c, 7, 70, 95
1, 131760, Note_on_c, 9, 35, 95
1, 131880, Note_on_c, 7, 70, 0
1, 131880, Note_on_c, 7, 63, 95
1, 132000, Note_on_c, 7, 63, 0
1, 132000, Note_on_c, 9, 35, 0
1, 132000, Note_on_c, 7, 75, 95
1, 132000, Note_on_c, 9, 55, 95
1, 132000, Note_on_c, 9, 37, 95
1, 132120, Note_on_c, 7, 75, 0
1, 132120, Note_on_c, 7, 70, 95
1, 132240, Note_on_c, 7, 70, 0
1, 132240, Note_on_c, 9, 37, 0
1, 132240, Note_on_c, 9, 55, 0
1, 132240, Note_on_c, 7, 63, 95
1, 132240, Note_on_c, 9, 35, 95
1, 132360, Note_on_c, 7, 63, 0
1, 132360, Note_on_c, 7, 75, 95
1, 132480, Note_on_c, 7, 75, 0
1, 132480, Note_on_c, 3, 60, 0
1, 132480, Note_on_c, 6, 44, 0
1, 132480, Note_on_c, 6, 63, 0
1, 132480, Note_on_c, 3, 68, 0
1, 132480, Note_on_c, 3, 63, 0
1, 132480, Note_on_c, 9, 35, 0
1, 132480, Note_on_c, 6, 56, 0
1, 132480, Note_on_c, 1, 32, 0
1, 132480, Note_on_c, 1, 32, 95
1, 132480, Note_on_c, 3, 60, 95
1, 132480, Note_on_c, 6, 63, 95
1, 132480, Note_on_c, 6, 56, 95
1, 132480, Note_on_c, 6, 44, 95
1, 132480, Note_on_c, 7, 70, 95
1, 132480, Note_on_c, 9, 55, 95
1, 132480, Note_on_c, 9, 35, 95
1, 132600, Note_on_c, 7, 70, 0
1, 132600, Note_on_c, 7, 63, 95
1, 132720, Note_on_c, 7, 63, 0
1, 132720, Note_on_c, 3, 60, 0
1, 132720, Note_on_c, 3, 60, 95
1, 132720, Note_on_c, 7, 75, 95
1, 132840, Note_on_c, 7, 75, 0
1, 132840, Note_on_c, 3, 60, 0
1, 132840, Note_on_c, 3, 63, 95
1, 132840, Note_on_c, 7, 70, 95
1, 132960, Note_on_c, 7, 70, 0
1, 132960, Note_on_c, 9, 55, 0
1, 132960, Note_on_c, 9, 35, 0
1, 132960, Note_on_c, 7, 63, 95
1, 132960, Note_on_c, 9, 55, 95
1, 132960, Note_on_c, 9, 37, 95
1, 133080, Note_on_c, 7, 63, 0
1, 133080, Note_on_c, 7, 75, 95
1, 133200, Note_on_c, 7, 75, 0
1, 133200, Note_on_c, 9, 37, 0
1, 133200, Note_on_c, 3, 63, 0
1, 133200, Note_on_c, 9, 55, 0
1, 133200, Note_on_c, 3, 67, 95
1, 133200, Note_on_c, 7, 70, 95
1, 133320, Note_on_c, 7, 70, 0
1, 133320, Note_on_c, 7, 63, 95
1, 133320, Note_on_c, 9, 35, 95
1, 133440, Note_on_c, 9, 35, 0
1, 133440, Note_on_c, 6, 63, 0
1, 133440, Note_on_c, 3, 67, 0
1, 133440, Note_on_c, 1, 32, 0
1, 133440, Note_on_c, 6, 44, 0
1, 133440, Note_on_c, 7, 63, 0
1, 133440, Note_on_c, 6, 56, 0
1, 133440, Note_on_c, 1, 39, 95
1, 133440, Note_on_c, 3, 65, 95
1, 133440, Note_on_c, 6, 67, 95
1, 133440, Note_on_c, 6, 63, 95
1, 133440, Note_on_c, 6, 55, 95
1, 133440, Note_on_c, 7, 75, 95
1, 133440, Note_on_c, 9, 55, 95
1, 133440, Note_on_c, 9, 35, 95
1, 133560, Note_on_c, 7, 75, 0
1, 133560, Note_on_c, 3, 65, 0
1, 133560, Note_on_c, 3, 63, 95
1, 133560, Note_on_c, 7, 70, 95
1, 133680, Note_on_c, 7, 70, 0
1, 133680, Note_on_c, 9, 35, 0
1, 133680, Note_on_c, 9, 55, 0
1, 133680, Note_on_c, 7, 63, 95
1, 133800, Note_on_c, 7, 63, 0
1, 133800, Note_on_c, 7, 75, 95
1, 133920, Note_on_c, 7, 75, 0
1, 133920, Note_on_c, 3, 63, 0
1, 133920, Note_on_c, 3, 58, 95
1, 133920, Note_on_c, 7, 70, 95
1, 133920, Note_on_c, 9, 55, 95
1, 133920, Note_on_c, 9, 37, 95
1, 134040, Note_on_c, 7, 70, 0
1, 134040, Note_on_c, 7, 63, 95
1, 134160, Note_on_c, 7, 63, 0
1, 134160, Note_on_c, 3, 58, 0
1, 134160, Note_on_c, 3, 58, 95
1, 134160, Note_on_c, 7, 75, 95
1, 134280, Note_on_c, 7, 75, 0
1, 134280, Note_on_c, 3, 58, 0
1, 134280, Note_on_c, 3, 60, 95
1, 134280, Note_on_c, 7, 70, 95
1, 134400, Note_on_c, 7, 70, 0
1, 134400, Note_on_c, 6, 63, 0
1, 134400, Note_on_c, 1, 39, 0
1, 134400, Note_on_c, 6, 67, 0
1, 134400, Note_on_c, 6, 55, 0
1, 134400, Note_on_c, 9, 37, 0
1, 134400, Note_on_c, 9, 55, 0
1, 134400, Note_on_c, 1, 32, 95
1, 134400, Note_on_c, 6, 63, 95
1, 134400, Note_on_c, 6, 56, 95
1, 134400, Note_on_c, 6, 44, 95
1, 134400, Note_on_c, 7, 70, 95
1, 134400, Note_on_c, 9, 55, 95
1, 134400, Note_on_c, 9, 35, 95
1, 134520, Note_on_c, 7, 70, 0
1, 134520, Note_on_c, 7, 63, 95
1, 134640, Note_on_c, 7, 63, 0
1, 134640, Note_on_c, 3, 60, 0
1, 134640, Note_on_c, 3, 60, 95
1, 134640, Note_on_c, 7, 75, 95
1, 134760, Note_on_c, 7, 75, 0
1, 134760, Note_on_c, 7, 70, 95
1, 134880, Note_on_c, 7, 70, 0
1, 134880, Note_on_c, 6, 44, 0
1, 134880, Note_on_c, 1, 32, 0
1, 134880, Note_on_c, 6, 63, 0
1, 134880, Note_on_c, 6, 56, 0
1, 134880, Note_on_c, 3, 60, 0
1, 134880, Note_on_c, 9, 55, 0
1, 134880, Note_on_c, 9, 35, 0
1, 134880, Note_on_c, 1, 34, 95
1, 134880, Note_on_c, 3, 63, 95
1, 134880, Note_on_c, 6, 65, 95
1, 134880, Note_on_c, 6, 58, 95
1, 134880, Note_on_c, 6, 46, 95
1, 134880, Note_on_c, 7, 63, 95
1, 134880, Note_on_c, 9, 55, 95
1, 134880, Note_on_c, 9, 37, 95
1, 135000, Note_on_c, 7, 63, 0
1, 135000, Note_on_c, 7, 75, 95
1, 135120, Note_on_c, 7, 75, 0
1, 135120, Note_on_c, 9, 37, 0
1, 135120, Note_on_c, 3, 63, 0
1, 135120, Note_on_c, 9, 55, 0
1, 135120, Note_on_c, 3, 65, 95
1, 135120, Note_on_c, 7, 70, 95
1, 135240, Note_on_c, 7, 70, 0
1, 135240, Note_on_c, 3, 65, 0
1, 135240, Note_on_c, 3, 60, 95
1, 135240, Note_on_c, 7, 63, 95
1, 135240, Note_on_c, 9, 35, 95
1, 135360, Note_on_c, 9, 35, 0
1, 135360, Note_on_c, 6, 46, 0
1, 135360, Note_on_c, 6, 65, 0
1, 135360, Note_on_c, 6, 58, 0
1, 135360, Note_on_c, 1, 34, 0
1, 135360, Note_on_c, 7, 63, 0
1, 135360, Note_on_c, 1, 36, 95
1, 135360, Note_on_c, 6, 67, 95
1, 135360, Note_on_c, 6, 60, 95
1, 135360, Note_on_c, 6, 48, 95
1, 135360, Note_on_c, 7, 74, 95
1, 135360, Note_on_c, 9, 55, 95
1, 135480, Note_on_c, 9, 55, 0
1, 135480, Note_on_c, 7, 74, 0
1, 135480, Note_on_c, 7, 70, 95
1, 135600, Note_on_c, 7, 70, 0
1, 135600, Note_on_c, 7, 63, 95
1, 135600, Note_on_c, 9, 35, 95
1, 135720, Note_on_c, 7, 63, 0
1, 135720, Note_on_c, 7, 74, 95
1, 135840, Note_on_c, 7, 74, 0
1, 135840, Note_on_c, 9, 35, 0
1, 135840, Note_on_c, 7, 70, 95
1, 135840, Note_on_c, 9, 55, 95
1, 135840, Note_on_c, 9, 37, 95
1, 135960, Note_on_c, 9, 37, 0
1, 135960, Note_on_c, 9, 55, 0
1, 135960, Note_on_c, 7, 70, 0
1, 135960, Note_on_c, 7, 63, 95
1, 136080, Note_on_c, 7, 63, 0
1, 136080, Note_on_c, 7, 75, 95
1, 136080, Note_on_c, 9, 35, 95
1, 136200, Note_on_c, 9, 35, 0
1, 136200, Note_on_c, 3, 60, 0
1, 136200, Note_on_c, 7, 75, 0
1, 136200, Note_on_c, 3, 58, 95
1, 136200, Note_on_c, 7, 70, 95
1, 136320, Note_on_c, 7, 70, 0
1, 136320, Note_on_c, 6, 67, 0
1, 136320, Note_on_c, 1, 36, 0
1, 136320, Note_on_c, 6, 48, 0
1, 136320, Note_on_c, 3, 58, 0
1, 136320, Note_on_c, 6, 60, 0
1, 136320, Note_on_c, 1, 32, 95
1, 136320, Note_on_c, 3, 60, 95
1, 136320, Note_on_c, 6, 63, 95
1, 136320, Note_on_c, 6, 56, 95
1, 136320, Note_on_c, 6, 44, 95
1, 136320, Note_on_c, 7, 63, 95
1, 136320, Note_on_c, 9, 55, 95
1, 136320, Note_on_c, 9, 35, 95
1, 136440, Note_on_c, 7, 63, 0
1, 136440, Note_on_c, 7, 75, 95
1, 136560, Note_on_c, 7, 75, 0
1, 136560, Note_on_c, 3, 60, 0
1, 136560, Note_on_c, 3, 63, 95
1, 136560, Note_on_c, 7, 70, 95
1, 136680, Note_on_c, 7, 70, 0
1, 136680, Note_on_c, 3, 63, 0
1, 136680, Note_on_c, 3, 63, 95
1, 136680, Note_on_c, 7, 63, 95
1, 136800, Note_on_c, 7, 63, 0
1, 136800, Note_on_c, 9, 55, 0
1, 136800, Note_on_c, 9, 35, 0
1, 136800, Note_on_c, 7, 75, 95
1, 136800, Note_on_c, 9, 55, 95
1, 136800, Note_on_c, 9, 37, 95
1, 136920, Note_on_c, 7, 75, 0
1, 136920, Note_on_c, 7, 70, 95
1, 137040, Note_on_c, 7, 70, 0
1, 137040, Note_on_c, 9, 37, 0
1, 137040, Note_on_c, 3, 63, 0
1, 137040, Note_on_c, 9, 55, 0
1, 137040, Note_on_c, 3, 67, 95
1, 137040, Note_on_c, 7, 63, 95
1, 137160, Note_on_c, 7, 63, 0
1, 137160, Note_on_c, 7, 75, 95
1, 137160, Note_on_c, 9, 35, 95
1, 137280, Note_on_c, 9, 35, 0
1, 137280, Note_on_c, 6, 63, 0
1, 137280, Note_on_c, 3, 67, 0
1, 137280, Note_on_c, 1, 32, 0
1, 137280, Note_on_c, 6, 44, 0
1, 137280, Note_on_c, 7, 75, 0
1, 137280, Note_on_c, 6, 56, 0
1, 137280, Note_on_c, 1, 39, 95
1, 137280, Note_on_c, 3, 65, 95
1, 137280, Note_on_c, 6, 58, 95
1, 137280, Note_on_c, 6, 55, 95
1, 137280, Note_on_c, 6, 43, 95
1, 137280, Note_on_c, 7, 70, 95
1, 137280, Note_on_c, 9, 55, 95
1, 137280, Note_on_c, 9, 35, 95
1, 137400, Note_on_c, 7, 70, 0
1, 137400, Note_on_c, 3, 65, 0
1, 137400, Note_on_c, 3, 63, 95
1, 137400, Note_on_c, 7, 63, 95
1, 137520, Note_on_c, 7, 63, 0
1, 137520, Note_on_c, 9, 35, 0
1, 137520, Note_on_c, 9, 55, 0
1, 137520, Note_on_c, 7, 75, 95
1, 137640, Note_on_c, 7, 75, 0
1, 137640, Note_on_c, 7, 70, 95
1, 137760, Note_on_c, 7, 70, 0
1, 137760, Note_on_c, 3, 63, 0
1, 137760, Note_on_c, 3, 58, 95
1, 137760, Note_on_c, 7, 63, 95
1, 137760, Note_on_c, 9, 55, 95
1, 137760, Note_on_c, 9, 37, 95
1, 137880, Note_on_c, 7, 63, 0
1, 137880, Note_on_c, 7, 75, 95
1, 138000, Note_on_c, 7, 75, 0
1, 138000, Note_on_c, 3, 58, 0
1, 138000, Note_on_c, 3, 63, 95
1, 138000, Note_on_c, 7, 70, 95
1, 138120, Note_on_c, 7, 70, 0
1, 138120, Note_on_c, 3, 63, 0
1, 138120, Note_on_c, 3, 65, 95
1, 138120, Note_on_c, 7, 63, 95
1, 138240, Note_on_c, 7, 63, 0
1, 138240, Note_on_c, 6, 55, 0
1, 138240, Note_on_c, 1, 39, 0
1, 138240, Note_on_c, 6, 58, 0
1, 138240, Note_on_c, 6, 43, 0
1, 138240, Note_on_c, 9, 37, 0
1, 138240, Note_on_c, 9, 55, 0
1, 138240, Note_on_c, 1, 34, 95
1, 138240, Note_on_c, 6, 65, 95
1, 138240, Note_on_c, 6, 58, 95
1, 138240, Note_on_c, 6, 53, 95
1, 138240, Note_on_c, 6, 46, 95
1, 138240, Note_on_c, 7, 75, 95
1, 138240, Note_on_c, 9, 55, 95
1, 138240, Note_on_c, 9, 35, 95
1, 138360, Note_on_c, 9, 35, 0
1, 138360, Note_on_c, 9, 55, 0
1, 138360, Note_on_c, 7, 75, 0
1, 138360, Note_on_c, 7, 70, 95
1, 138360, Note_on_c, 9, 35, 95
1, 138480, Note_on_c, 9, 35, 0
1, 138480, Note_on_c, 7, 70, 0
1, 138480, Note_on_c, 7, 63, 95
1, 138600, Note_on_c, 7, 63, 0
1, 138600, Note_on_c, 7, 75, 95
1, 138720, Note_on_c, 7, 75, 0
1, 138720, Note_on_c, 7, 70, 95
1, 138720, Note_on_c, 9, 55, 95
1, 138720, Note_on_c, 9, 37, 95
1, 138840, Note_on_c, 7, 70, 0
1, 138840, Note_on_c, 7, 63, 95
1, 138960, Note_on_c, 7, 63, 0
1, 138960, Note_on_c, 9, 37, 0
1, 138960, Note_on_c, 9, 55, 0
1, 138960, Note_on_c, 7, 74, 95
1, 139080, Note_on_c, 7, 74, 0
1, 139080, Note_on_c, 7, 70, 95
1, 139080, Note_on_c, 9, 35, 95
1, 139200, Note_on_c, 9, 35, 0
1, 139200, Note_on_c, 7, 70, 0
1, 139200, Note_on_c, 7, 63, 95
1, 139200, Note_on_c, 9, 55, 95
1, 139320, Note_on_c, 9, 55, 0
1, 139320, Note_on_c, 7, 63, 0
1, 139320, Note_on_c, 7, 74, 95
1, 139320, Note_on_c, 9, 35, 95
1, 139440, Note_on_c, 9, 35, 0
1, 139440, Note_on_c, 7, 74, 0
1, 139440, Note_on_c, 7, 70, 95
1, 139440, Note_on_c, 9, 35, 95
1, 139560, Note_on_c, 7, 70, 0
1, 139560, Note_on_c, 7, 63, 95
1, 139680, Note_on_c, 7, 63, 0
1, 139680, Note_on_c, 6, 58, 0
1, 139680, Note_on_c, 6, 46, 0
1, 139680, Note_on_c, 1, 34, 0
1, 139680, Note_on_c, 6, 65, 0
1, 139680, Note_on_c, 9, 35, 0
1, 139680, Note_on_c, 6, 53, 0
1, 139680, Note_on_c, 3, 65, 0
1, 139680, Note_on_c, 1, 36, 95
1, 139680, Note_on_c, 6, 67, 95
1, 139680, Note_on_c, 6, 60, 95
1, 139680, Note_on_c, 6, 55, 95
1, 139680, Note_on_c, 6, 48, 95
1, 140160, Note_on_c, 6, 48, 0
1, 140160, Note_on_c, 6, 60, 0
1, 140160, Note_on_c, 1, 36, 0
1, 140160, Note_on_c, 6, 67, 0
1, 140160, Note_on_c, 6, 55, 0
1, 140160, Note_on_c, 5, 87, 95
1, 140160, Note_on_c, 7, 63, 95
1, 140160, Note_on_c, 7, 56, 95
1, 140160, Note_on_c, 7, 44, 95
1, 140280, Note_on_c, 5, 87, 0
1, 140280, Note_on_c, 5, 82, 95
1, 140400, Note_on_c, 5, 82, 0
1, 140400, Note_on_c, 3, 55, 95
1, 140400, Note_on_c, 5, 75, 95
1, 140520, Note_on_c, 5, 75, 0
1, 140520, Note_on_c, 5, 87, 95
1, 140640, Note_on_c, 5, 87, 0
1, 140640, Note_on_c, 3, 55, 0
1, 140640, Note_on_c, 3, 53, 95
1, 140640, Note_on_c, 5, 82, 95
1, 140760, Note_on_c, 5, 82, 0
1, 140760, Note_on_c, 5, 75, 95
1, 140880, Note_on_c, 5, 75, 0
1, 140880, Note_on_c, 3, 53, 0
1, 140880, Note_on_c, 3, 51, 95
1, 140880, Note_on_c, 5, 87, 95
1, 141000, Note_on_c, 5, 87, 0
1, 141000, Note_on_c, 3, 51, 0
1, 141000, Note_on_c, 3, 58, 95
1, 141000, Note_on_c, 5, 82, 95
1, 141120, Note_on_c, 5, 82, 0
1, 141120, Note_on_c, 7, 44, 0
1, 141120, Note_on_c, 7, 63, 0
1, 141120, Note_on_c, 7, 56, 0
1, 141120, Note_on_c, 5, 75, 95
1, 141120, Note_on_c, 7, 63, 95
1, 141120, Note_on_c, 7, 55, 95
1, 141120, Note_on_c, 7, 43, 95
1, 141240, Note_on_c, 5, 75, 0
1, 141240, Note_on_c, 3, 58, 0
1, 141240, Note_on_c, 3, 55, 95
1, 141240, Note_on_c, 5, 87, 95
1, 141360, Note_on_c, 5, 87, 0
1, 141360, Note_on_c, 5, 82, 95
1, 141480, Note_on_c, 5, 82, 0
1, 141480, Note_on_c, 5, 75, 95
1, 141600, Note_on_c, 5, 75, 0
1, 141600, Note_on_c, 3, 55, 0
1, 141600, Note_on_c, 3, 53, 95
1, 141600, Note_on_c, 5, 87, 95
1, 141720, Note_on_c, 5, 87, 0
1, 141720, Note_on_c, 5, 82, 95
1, 141840, Note_on_c, 5, 82, 0
1, 141840, Note_on_c, 3, 53, 0
1, 141840, Note_on_c, 3, 51, 95
1, 141840, Note_on_c, 5, 75, 95
1, 141960, Note_on_c, 5, 75, 0
1, 141960, Note_on_c, 3, 51, 0
1, 141960, Note_on_c, 3, 53, 95
1, 141960, Note_on_c, 5, 87, 95
1, 142080, Note_on_c, 5, 87, 0
1, 142080, Note_on_c, 7, 55, 0
1, 142080, Note_on_c, 7, 43, 0
1, 142080, Note_on_c, 7, 63, 0
1, 142080, Note_on_c, 5, 82, 95
1, 142080, Note_on_c, 7, 63, 95
1, 142080, Note_on_c, 7, 58, 95
1, 142080, Note_on_c, 7, 46, 95
1, 142200, Note_on_c, 5, 82, 0
1, 142200, Note_on_c, 5, 75, 95
1, 142320, Note_on_c, 5, 75, 0
1, 142320, Note_on_c, 5, 87, 95
1, 142440, Note_on_c, 5, 87, 0
1, 142440, Note_on_c, 5, 82, 95
1, 142560, Note_on_c, 5, 82, 0
1, 142560, Note_on_c, 5, 75, 95
1, 142680, Note_on_c, 5, 75, 0
1, 142680, Note_on_c, 5, 87, 95
1, 142800, Note_on_c, 5, 87, 0
1, 142800, Note_on_c, 5, 82, 95
1, 142920, Note_on_c, 5, 82, 0
1, 142920, Note_on_c, 5, 75, 95
1, 143040, Note_on_c, 5, 75, 0
1, 143040, Note_on_c, 3, 53, 0
1, 143040, Note_on_c, 5, 86, 95
1, 143160, Note_on_c, 5, 86, 0
1, 143160, Note_on_c, 5, 82, 95
1, 143280, Note_on_c, 5, 82, 0
1, 143280, Note_on_c, 3, 46, 95
1, 143280, Note_on_c, 5, 75, 95
1, 143400, Note_on_c, 5, 75, 0
1, 143400, Note_on_c, 5, 86, 95
1, 143520, Note_on_c, 5, 86, 0
1, 143520, Note_on_c, 3, 46, 0
1, 143520, Note_on_c, 3, 51, 95
1, 143520, Note_on_c, 5, 82, 95
1, 143640, Note_on_c, 5, 82, 0
1, 143640, Note_on_c, 5, 75, 95
1, 143760, Note_on_c, 5, 75, 0
1, 143760, Note_on_c, 3, 51, 0
1, 143760, Note_on_c, 3, 50, 95
1, 143760, Note_on_c, 5, 87, 95
1, 143880, Note_on_c, 5, 87, 0
1, 143880, Note_on_c, 3, 50, 0
1, 143880, Note_on_c, 3, 48, 95
1, 143880, Note_on_c, 5, 82, 95
1, 144000, Note_on_c, 5, 82, 0
1, 144000, Note_on_c, 7, 58, 0
1, 144000, Note_on_c, 7, 46, 0
1, 144000, Note_on_c, 7, 63, 0
1, 144000, Note_on_c, 5, 75, 95
1, 144000, Note_on_c, 7, 63, 95
1, 144000, Note_on_c, 7, 56, 95
1, 144000, Note_on_c, 7, 44, 95
1, 144120, Note_on_c, 5, 75, 0
1, 144120, Note_on_c, 5, 87, 95
1, 144240, Note_on_c, 5, 87, 0
1, 144240, Note_on_c, 5, 82, 95
1, 144360, Note_on_c, 5, 82, 0
1, 144360, Note_on_c, 5, 75, 95
1, 144480, Note_on_c, 5, 75, 0
1, 144480, Note_on_c, 5, 87, 95
1, 144600, Note_on_c, 5, 87, 0
1, 144600, Note_on_c, 5, 82, 95
1, 144720, Note_on_c, 5, 82, 0
1, 144720, Note_on_c, 5, 75, 95
1, 144840, Note_on_c, 5, 75, 0
1, 144840, Note_on_c, 5, 87, 95
1, 144960, Note_on_c, 5, 87, 0
1, 144960, Note_on_c, 7, 44, 0
1, 144960, Note_on_c, 3, 48, 0
1, 144960, Note_on_c, 7, 63, 0
1, 144960, Note_on_c, 7, 56, 0
1, 144960, Note_on_c, 3, 46, 95
1, 144960, Note_on_c, 5, 82, 95
1, 144960, Note_on_c, 7, 63, 95
1, 144960, Note_on_c, 7, 55, 95
1, 144960, Note_on_c, 7, 43, 95
1, 145080, Note_on_c, 5, 82, 0
1, 145080, Note_on_c, 5, 75, 95
1, 145200, Note_on_c, 5, 75, 0
1, 145200, Note_on_c, 5, 87, 95
1, 145320, Note_on_c, 5, 87, 0
1, 145320, Note_on_c, 5, 82, 95
1, 145440, Note_on_c, 5, 82, 0
1, 145440, Note_on_c, 5, 75, 95
1, 145560, Note_on_c, 5, 75, 0
1, 145560, Note_on_c, 5, 87, 95
1, 145680, Note_on_c, 5, 87, 0
1, 145680, Note_on_c, 5, 82, 95
1, 145800, Note_on_c, 5, 82, 0
1, 145800, Note_on_c, 5, 75, 95
1, 145920, Note_on_c, 5, 75, 0
1, 145920, Note_on_c, 7, 43, 0
1, 145920, Note_on_c, 3, 46, 0
1, 145920, Note_on_c, 7, 63, 0
1, 145920, Note_on_c, 7, 55, 0
1, 145920, Note_on_c, 3, 50, 95
1, 145920, Note_on_c, 5, 87, 95
1, 145920, Note_on_c, 7, 62, 95
1, 145920, Note_on_c, 7, 58, 95
1, 145920, Note_on_c, 7, 46, 95
1, 146040, Note_on_c, 5, 87, 0
1, 146040, Note_on_c, 5, 82, 95
1, 146160, Note_on_c, 5, 82, 0
1, 146160, Note_on_c, 5, 75, 95
1, 146280, Note_on_c, 5, 75, 0
1, 146280, Note_on_c, 5, 87, 95
1, 146400, Note_on_c, 5, 87, 0
1, 146400, Note_on_c, 5, 82, 95
1, 146520, Note_on_c, 5, 82, 0
1, 146520, Note_on_c, 5, 75, 95
1, 146640, Note_on_c, 5, 75, 0
1, 146640, Note_on_c, 5, 87, 95
1, 146760, Note_on_c, 5, 87, 0
1, 146760, Note_on_c, 5, 82, 95
1, 146880, Note_on_c, 5, 82, 0
1, 146880, Note_on_c, 7, 46, 0
1, 146880, Note_on_c, 3, 50, 0
1, 146880, Note_on_c, 7, 62, 0
1, 146880, Note_on_c, 7, 58, 0
1, 146880, Note_on_c, 3, 48, 95
1, 146880, Note_on_c, 5, 75, 95
1, 146880, Note_on_c, 7, 63, 95
1, 146880, Note_on_c, 7, 56, 95
1, 146880, Note_on_c, 7, 44, 95
1, 147000, Note_on_c, 5, 75, 0
1, 147000, Note_on_c, 5, 87, 95
1, 147120, Note_on_c, 5, 87, 0
1, 147120, Note_on_c, 5, 82, 95
1, 147240, Note_on_c, 5, 82, 0
1, 147240, Note_on_c, 5, 75, 95
1, 147360, Note_on_c, 5, 75, 0
1, 147360, Note_on_c, 5, 87, 95
1, 147480, Note_on_c, 5, 87, 0
1, 147480, Note_on_c, 5, 82, 95
1, 147600, Note_on_c, 5, 82, 0
1, 147600, Note_on_c, 5, 75, 95
1, 147720, Note_on_c, 5, 75, 0
1, 147720, Note_on_c, 5, 87, 95
1, 147840, Note_on_c, 5, 87, 0
1, 147840, Note_on_c, 7, 44, 0
1, 147840, Note_on_c, 3, 48, 0
1, 147840, Note_on_c, 7, 63, 0
1, 147840, Note_on_c, 7, 56, 0
1, 147840, Note_on_c, 3, 48, 95
1, 147840, Note_on_c, 5, 82, 95
1, 147840, Note_on_c, 7, 63, 95
1, 147840, Note_on_c, 7, 56, 95
1, 147840, Note_on_c, 7, 44, 95
1, 147960, Note_on_c, 5, 82, 0
1, 147960, Note_on_c, 5, 75, 95
1, 148080, Note_on_c, 5, 75, 0
1, 148080, Note_on_c, 3, 48, 0
1, 148080, Note_on_c, 3, 48, 95
1, 148080, Note_on_c, 5, 87, 95
1, 148200, Note_on_c, 5, 87, 0
1, 148200, Note_on_c, 3, 48, 0
1, 148200, Note_on_c, 3, 51, 95
1, 148200, Note_on_c, 5, 82, 95
1, 148320, Note_on_c, 5, 82, 0
1, 148320, Note_on_c, 5, 75, 95
1, 148440, Note_on_c, 5, 75, 0
1, 148440, Note_on_c, 5, 87, 95
1, 148560, Note_on_c, 5, 87, 0
1, 148560, Note_on_c, 3, 51, 0
1, 148560, Note_on_c, 3, 55, 95
1, 148560, Note_on_c, 5, 82, 95
1, 148680, Note_on_c, 5, 82, 0
1, 148680, Note_on_c, 5, 75, 95
1, 148800, Note_on_c, 5, 75, 0
1, 148800, Note_on_c, 3, 55, 0
1, 148800, Note_on_c, 7, 44, 0
1, 148800, Note_on_c, 7, 63, 0
1, 148800, Note_on_c, 7, 56, 0
1, 148800, Note_on_c, 3, 53, 95
1, 148800, Note_on_c, 5, 87, 95
1, 148800, Note_on_c, 7, 67, 95
1, 148800, Note_on_c, 7, 63, 95
1, 148800, Note_on_c, 7, 55, 95
1, 148920, Note_on_c, 5, 87, 0
1, 148920, Note_on_c, 3, 53, 0
1, 148920, Note_on_c, 3, 51, 95
1, 148920, Note_on_c, 5, 82, 95
1, 149040, Note_on_c, 5, 82, 0
1, 149040, Note_on_c, 5, 75, 95
1, 149160, Note_on_c, 5, 75, 0
1, 149160, Note_on_c, 5, 87, 95
1, 149280, Note_on_c, 5, 87, 0
1, 149280, Note_on_c, 3, 51, 0
1, 149280, Note_on_c, 3, 46, 95
1, 149280, Note_on_c, 5, 82, 95
1, 149400, Note_on_c, 5, 82, 0
1, 149400, Note_on_c, 5, 75, 95
1, 149520, Note_on_c, 5, 75, 0
1, 149520, Note_on_c, 3, 46, 0
1, 149520, Note_on_c, 3, 46, 95
1, 149520, Note_on_c, 5, 87, 95
1, 149640, Note_on_c, 5, 87, 0
1, 149640, Note_on_c, 3, 46, 0
1, 149640, Note_on_c, 3, 48, 95
1, 149640, Note_on_c, 5, 82, 95
1, 149760, Note_on_c, 5, 82, 0
1, 149760, Note_on_c, 7, 55, 0
1, 149760, Note_on_c, 7, 63, 0
1, 149760, Note_on_c, 7, 67, 0
1, 149760, Note_on_c, 3, 48, 0
1, 149760, Note_on_c, 5, 82, 95
1, 149760, Note_on_c, 7, 63, 95
1, 149760, Note_on_c, 7, 56, 95
1, 149760, Note_on_c, 7, 44, 95
1, 149880, Note_on_c, 5, 82, 0
1, 149880, Note_on_c, 5, 75, 95
1, 150000, Note_on_c, 5, 75, 0
1, 150000, Note_on_c, 3, 48, 95
1, 150000, Note_on_c, 5, 87, 95
1, 150120, Note_on_c, 5, 87, 0
1, 150120, Note_on_c, 5, 82, 95
1, 150240, Note_on_c, 5, 82, 0
1, 150240, Note_on_c, 3, 48, 0
1, 150240, Note_on_c, 7, 63, 0
1, 150240, Note_on_c, 7, 56, 0
1, 150240, Note_on_c, 7, 44, 0
1, 150240, Note_on_c, 3, 51, 95
1, 150240, Note_on_c, 5, 75, 95
1, 150240, Note_on_c, 7, 65, 95
1, 150240, Note_on_c, 7, 58, 95
1, 150240, Note_on_c, 7, 46, 95
1, 150360, Note_on_c, 5, 75, 0
1, 150360, Note_on_c, 5, 87, 95
1, 150480, Note_on_c, 5, 87, 0
1, 150480, Note_on_c, 3, 51, 0
1, 150480, Note_on_c, 3, 53, 95
1, 150480, Note_on_c, 5, 82, 95
1, 150600, Note_on_c, 5, 82, 0
1, 150600, Note_on_c, 3, 53, 0
1, 150600, Note_on_c, 3, 48, 95
1, 150600, Note_on_c, 5, 75, 95
1, 150720, Note_on_c, 5, 75, 0
1, 150720, Note_on_c, 7, 58, 0
1, 150720, Note_on_c, 7, 46, 0
1, 150720, Note_on_c, 7, 65, 0
1, 150720, Note_on_c, 5, 86, 95
1, 150720, Note_on_c, 7, 67, 95
1, 150720, Note_on_c, 7, 60, 95
1, 150720, Note_on_c, 7, 48, 95
1, 150840, Note_on_c, 5, 86, 0
1, 150840, Note_on_c, 5, 82, 95
1, 150960, Note_on_c, 5, 82, 0
1, 150960, Note_on_c, 5, 75, 95
1, 151080, Note_on_c, 5, 75, 0
1, 151080, Note_on_c, 5, 86, 95
1, 151200, Note_on_c, 5, 86, 0
1, 151200, Note_on_c, 5, 82, 95
1, 151320, Note_on_c, 5, 82, 0
1, 151320, Note_on_c, 5, 75, 95
1, 151440, Note_on_c, 5, 75, 0
1, 151440, Note_on_c, 5, 87, 95
1, 151560, Note_on_c, 5, 87, 0
1, 151560, Note_on_c, 3, 48, 0
1, 151560, Note_on_c, 3, 46, 95
1, 151560, Note_on_c, 5, 82, 95
1, 151680, Note_on_c, 5, 82, 0
1, 151680, Note_on_c, 7, 60, 0
1, 151680, Note_on_c, 7, 48, 0
1, 151680, Note_on_c, 7, 67, 0
1, 151680, Note_on_c, 3, 46, 0
1, 151680, Note_on_c, 3, 48, 95
1, 151680, Note_on_c, 5, 75, 95
1, 151680, Note_on_c, 7, 63, 95
1, 151680, Note_on_c, 7, 56, 95
1, 151680, Note_on_c, 7, 44, 95
1, 151800, Note_on_c, 5, 75, 0
1, 151800, Note_on_c, 5, 87, 95
1, 151920, Note_on_c, 5, 87, 0
1, 151920, Note_on_c, 3, 48, 0
1, 151920, Note_on_c, 3, 51, 95
1, 151920, Note_on_c, 5, 82, 95
1, 152040, Note_on_c, 5, 82, 0
1, 152040, Note_on_c, 3, 51, 0
1, 152040, Note_on_c, 3, 51, 95
1, 152040, Note_on_c, 5, 75, 95
1, 152160, Note_on_c, 5, 75, 0
1, 152160, Note_on_c, 5, 87, 95
1, 152280, Note_on_c, 5, 87, 0
1, 152280, Note_on_c, 5, 82, 95
1, 152400, Note_on_c, 5, 82, 0
1, 152400, Note_on_c, 3, 51, 0
1, 152400, Note_on_c, 3, 55, 95
1, 152400, Note_on_c, 5, 75, 95
1, 152520, Note_on_c, 5, 75, 0
1, 152520, Note_on_c, 5, 87, 95
1, 152640, Note_on_c, 5, 87, 0
1, 152640, Note_on_c, 3, 55, 0
1, 152640, Note_on_c, 7, 44, 0
1, 152640, Note_on_c, 7, 63, 0
1, 152640, Note_on_c, 7, 56, 0
1, 152640, Note_on_c, 3, 53, 95
1, 152640, Note_on_c, 5, 82, 95
1, 152640, Note_on_c, 7, 58, 95
1, 152640, Note_on_c, 7, 55, 95
1, 152640, Note_on_c, 7, 43, 95
1, 152760, Note_on_c, 5, 82, 0
1, 152760, Note_on_c, 3, 53, 0
1, 152760, Note_on_c, 3, 51, 95
1, 152760, Note_on_c, 5, 75, 95
1, 152880, Note_on_c, 5, 75, 0
1, 152880, Note_on_c, 5, 87, 95
1, 153000, Note_on_c, 5, 87, 0
1, 153000, Note_on_c, 5, 82, 95
1, 153120, Note_on_c, 5, 82, 0
1, 153120, Note_on_c, 3, 51, 0
1, 153120, Note_on_c, 3, 46, 95
1, 153120, Note_on_c, 5, 75, 95
1, 153240, Note_on_c, 5, 75, 0
1, 153240, Note_on_c, 5, 87, 95
1, 153360, Note_on_c, 5, 87, 0
1, 153360, Note_on_c, 3, 46, 0
1, 153360, Note_on_c, 3, 51, 95
1, 153360, Note_on_c, 5, 82, 95
1, 153480, Note_on_c, 5, 82, 0
1, 153480, Note_on_c, 3, 51, 0
1, 153480, Note_on_c, 3, 53, 95
1, 153480, Note_on_c, 5, 75, 95
1, 153600, Tempo, 1200000
1, 153600, Note_on_c, 5, 75, 0
1, 153600, Note_on_c, 7, 55, 0
1, 153600, Note_on_c, 7, 43, 0
1, 153600, Note_on_c, 7, 58, 0
1, 153600, Note_on_c, 5, 87, 95
1, 153600, Note_on_c, 7, 65, 95
1, 153600, Note_on_c, 7, 58, 95
1, 153600, Note_on_c, 7, 53, 95
1, 153600, Note_on_c, 7, 46, 95
1, 153720, Note_on_c, 5, 87, 0
1, 153720, Note_on_c, 5, 82, 95
1, 153840, Note_on_c, 5, 82, 0
1, 153840, Note_on_c, 5, 77, 95
1, 153960, Note_on_c, 5, 77, 0
1, 153960, Note_on_c, 5, 87, 95
1, 154080, Note_on_c, 5, 87, 0
1, 154080, Note_on_c, 5, 82, 95
1, 154200, Note_on_c, 5, 82, 0
1, 154200, Note_on_c, 5, 77, 95
1, 154320, Note_on_c, 5, 77, 0
1, 154320, Note_on_c, 5, 87, 95
1, 154440, Note_on_c, 5, 87, 0
1, 154440, Note_on_c, 5, 82, 95
1, 154560, Note_on_c, 5, 82, 0
1, 154560, Note_on_c, 5, 77, 95
1, 154680, Note_on_c, 5, 77, 0
1, 154680, Note_on_c, 5, 87, 95
1, 154800, Note_on_c, 5, 87, 0
1, 154800, Note_on_c, 5, 82, 95
1, 154920, Note_on_c, 5, 82, 0
1, 154920, Note_on_c, 5, 77, 95
1, 155040, Note_on_c, 5, 77, 0
1, 155040, Note_on_c, 5, 87, 95
1, 155160, Note_on_c, 5, 87, 0
1, 155160, Note_on_c, 5, 82, 95
1, 155280, Note_on_c, 5, 82, 0
1, 155280, Note_on_c, 5, 77, 95
1, 155400, Note_on_c, 5, 77, 0
1, 155400, Note_on_c, 5, 87, 95
1, 155520, Note_on_c, 5, 87, 0
1, 155520, Note_on_c, 7, 46, 0
1, 155520, Note_on_c, 7, 58, 0
1, 155520, Note_on_c, 3, 53, 0
1, 155520, Note_on_c, 7, 65, 0
1, 155520, Note_on_c, 7, 53, 0
1, 155520, Note_on_c, 5, 82, 95
1, 155640, Note_on_c, 5, 82, 0
1, 155640, Note_on_c, 5, 77, 95
1, 155760, Note_on_c, 5, 77, 0
1, 155760, Note_on_c, 5, 87, 95
1, 155880, Note_on_c, 5, 87, 0
1, 155880, Note_on_c, 5, 82, 95
1, 156000, Note_on_c, 5, 82, 0
1, 156000, Note_on_c, 5, 77, 95
1, 156120, Note_on_c, 5, 77, 0
1, 156120, Note_on_c, 5, 86, 95
1, 156240, Note_on_c, 5, 86, 0
1, 156240, Note_on_c, 5, 82, 95
1, 156360, Note_on_c, 5, 82, 0
1, 156360, Note_on_c, 5, 77, 95
1, 156480, Note_on_c, 5, 77, 0
1, 156480, Note_on_c, 5, 86, 95
1, 156600, Note_on_c, 5, 86, 0
1, 156600, Note_on_c, 5, 82, 95
1, 156720, Note_on_c, 5, 82, 0
1, 156720, Note_on_c, 5, 77, 95
1, 156840, Note_on_c, 5, 77, 0
1, 156840, Note_on_c, 5, 70, 95
1, 159360, Note_on_c, 5, 70, 0
1, 159360, End_track
0, 0, End_of_file
