0, 0, Header, 1, 17, 15360
1, 0, Start_track
1, 0, Title_t, "Transport"
1, 0, Time_signature, 4, 2, 24, 8
1, 0, Tempo, 666674
1, 6144000, End_track
2, 0, Start_track
2, 0, Title_t, "MIDI File Track 1 Ch1"
2, 0, Instrument_name_t, "MIDI File Track 1 Ch1"
2, 0, MIDI_port, 2
2, 0, Control_c, 0, 1, 0
2, 0, Control_c, 0, 11, 127
2, 0, Pitch_bend_c, 0, 8192
2, 6144000, End_track
3, 0, Start_track
3, 0, Title_t, "MIDI File Track 1 Ch2"
3, 0, Instrument_name_t, "MIDI File Track 1 Ch2"
3, 0, MIDI_port, 3
3, 0, Control_c, 0, 1, 0
3, 0, Control_c, 0, 11, 127
3, 0, Pitch_bend_c, 0, 8192
3, 614400, Note_on_c, 0, 34, 116
3, 621696, Note_off_c, 0, 34, 0
3, 625920, Note_on_c, 0, 34, 118
3, 631488, Note_off_c, 0, 34, 0
3, 652800, Note_on_c, 0, 39, 116
3, 658112, Note_off_c, 0, 39, 0
3, 675840, Note_on_c, 0, 32, 118
3, 682592, Note_off_c, 0, 32, 0
3, 687360, Note_on_c, 0, 32, 114
3, 693248, Note_off_c, 0, 32, 0
3, 698880, Note_on_c, 0, 32, 118
3, 704992, Note_off_c, 0, 32, 0
3, 714240, Note_on_c, 0, 32, 118
3, 719360, Note_off_c, 0, 32, 0
3, 733440, Note_on_c, 0, 32, 116
3, 735232, Note_off_c, 0, 32, 0
3, 737280, Note_on_c, 0, 34, 116
3, 742624, Note_off_c, 0, 34, 0
3, 748800, Note_on_c, 0, 46, 118
3, 754400, Note_off_c, 0, 46, 0
3, 775680, Note_on_c, 0, 39, 112
3, 782336, Note_off_c, 0, 39, 0
3, 787200, Note_on_c, 0, 51, 116
3, 793440, Note_off_c, 0, 51, 0
3, 798720, Note_on_c, 0, 32, 120
3, 804320, Note_off_c, 0, 32, 0
3, 810240, Note_on_c, 0, 32, 120
3, 814592, Note_off_c, 0, 32, 0
3, 825600, Note_on_c, 0, 32, 116
3, 829184, Note_off_c, 0, 32, 0
3, 833280, Note_on_c, 0, 39, 108
3, 835808, Note_off_c, 0, 39, 0
3, 837120, Note_on_c, 0, 32, 112
3, 842816, Note_off_c, 0, 32, 0
3, 852480, Note_on_c, 0, 36, 105
3, 858432, Note_off_c, 0, 36, 0
3, 860160, Note_on_c, 0, 34, 116
3, 867456, Note_off_c, 0, 34, 0
3, 871680, Note_on_c, 0, 34, 118
3, 877248, Note_off_c, 0, 34, 0
3, 898560, Note_on_c, 0, 39, 116
3, 903872, Note_off_c, 0, 39, 0
3, 921600, Note_on_c, 0, 32, 118
3, 928352, Note_off_c, 0, 32, 0
3, 933120, Note_on_c, 0, 32, 114
3, 939008, Note_off_c, 0, 32, 0
3, 944640, Note_on_c, 0, 32, 118
3, 944641, Note_off_c, 0, 32, 0
3, 983040, Note_on_c, 0, 34, 116
3, 990336, Note_off_c, 0, 34, 0
3, 994560, Note_on_c, 0, 34, 118
3, 1000128, Note_off_c, 0, 34, 0
3, 1021440, Note_on_c, 0, 39, 116
3, 1026752, Note_off_c, 0, 39, 0
3, 1044480, Note_on_c, 0, 32, 118
3, 1051232, Note_off_c, 0, 32, 0
3, 1056000, Note_on_c, 0, 32, 114
3, 1061888, Note_off_c, 0, 32, 0
3, 1067520, Note_on_c, 0, 32, 118
3, 1073632, Note_off_c, 0, 32, 0
3, 1082880, Note_on_c, 0, 32, 118
3, 1088000, Note_off_c, 0, 32, 0
3, 1102080, Note_on_c, 0, 32, 116
3, 1103872, Note_off_c, 0, 32, 0
3, 1105920, Note_on_c, 0, 34, 116
3, 1111264, Note_off_c, 0, 34, 0
3, 1117440, Note_on_c, 0, 46, 118
3, 1123040, Note_off_c, 0, 46, 0
3, 1144320, Note_on_c, 0, 39, 112
3, 1150976, Note_off_c, 0, 39, 0
3, 1155840, Note_on_c, 0, 51, 116
3, 1162080, Note_off_c, 0, 51, 0
3, 1167360, Note_on_c, 0, 32, 120
3, 1172960, Note_off_c, 0, 32, 0
3, 1178880, Note_on_c, 0, 32, 120
3, 1183232, Note_off_c, 0, 32, 0
3, 1194240, Note_on_c, 0, 32, 116
3, 1197824, Note_off_c, 0, 32, 0
3, 1201920, Note_on_c, 0, 39, 108
3, 1204448, Note_off_c, 0, 39, 0
3, 1205760, Note_on_c, 0, 32, 112
3, 1211456, Note_off_c, 0, 32, 0
3, 1221120, Note_on_c, 0, 36, 105
3, 1227072, Note_off_c, 0, 36, 0
3, 1228800, Note_on_c, 0, 34, 116
3, 1236096, Note_off_c, 0, 34, 0
3, 1240320, Note_on_c, 0, 34, 118
3, 1245888, Note_off_c, 0, 34, 0
3, 1267200, Note_on_c, 0, 39, 116
3, 1272512, Note_off_c, 0, 39, 0
3, 1290240, Note_on_c, 0, 32, 118
3, 1296992, Note_off_c, 0, 32, 0
3, 1301760, Note_on_c, 0, 32, 114
3, 1307648, Note_off_c, 0, 32, 0
3, 1313280, Note_on_c, 0, 32, 118
3, 1313281, Note_off_c, 0, 32, 0
3, 6144000, End_track
4, 0, Start_track
4, 0, Title_t, "MIDI File Track 1 Ch3"
4, 0, Instrument_name_t, "MIDI File Track 1 Ch3"
4, 0, MIDI_port, 4
4, 0, Control_c, 0, 1, 0
4, 0, Control_c, 0, 11, 127
4, 0, Pitch_bend_c, 0, 8192
4, 6144000, End_track
5, 0, Start_track
5, 0, Title_t, "MIDI File Track 1 Ch4"
5, 0, Instrument_name_t, "MIDI File Track 1 Ch4"
5, 0, MIDI_port, 11
5, 622080, Note_on_c, 0, 58, 98
5, 624960, Note_off_c, 0, 58, 0
5, 625920, Note_on_c, 0, 65, 94
5, 629536, Note_off_c, 0, 65, 0
5, 633600, Note_on_c, 0, 65, 98
5, 637728, Note_off_c, 0, 65, 0
5, 641280, Note_on_c, 0, 63, 99
5, 644000, Note_off_c, 0, 63, 0
5, 645120, Note_on_c, 0, 65, 105
5, 649120, Note_off_c, 0, 65, 0
5, 652800, Note_on_c, 0, 63, 108
5, 657056, Note_off_c, 0, 63, 0
5, 660480, Note_on_c, 0, 58, 103
5, 669152, Note_off_c, 0, 58, 0
5, 683520, Note_on_c, 0, 56, 105
5, 686080, Note_off_c, 0, 56, 0
5, 687360, Note_on_c, 0, 60, 101
5, 690848, Note_off_c, 0, 60, 0
5, 695040, Note_on_c, 0, 60, 96
5, 698880, Note_on_c, 0, 58, 86
5, 699328, Note_off_c, 0, 60, 0
5, 701152, Note_off_c, 0, 58, 0
5, 706560, Note_on_c, 0, 60, 101
5, 711360, Note_off_c, 0, 60, 0
5, 714240, Note_on_c, 0, 63, 110
5, 718912, Note_off_c, 0, 63, 0
5, 721920, Note_on_c, 0, 65, 101
5, 733952, Note_off_c, 0, 65, 0
5, 744960, Note_on_c, 0, 67, 103
5, 748832, Note_off_c, 0, 67, 0
5, 752640, Note_on_c, 0, 65, 103
5, 755808, Note_off_c, 0, 65, 0
5, 760320, Note_on_c, 0, 63, 106
5, 762464, Note_off_c, 0, 63, 0
5, 764160, Note_on_c, 0, 58, 103
5, 767872, Note_off_c, 0, 58, 0
5, 771840, Note_on_c, 0, 58, 106
5, 773792, Note_off_c, 0, 58, 0
5, 775680, Note_on_c, 0, 58, 101
5, 778688, Note_off_c, 0, 58, 0
5, 783360, Note_on_c, 0, 65, 70
5, 787200, Note_on_c, 0, 63, 99
5, 788096, Note_off_c, 0, 65, 0
5, 791200, Note_off_c, 0, 63, 0
5, 794880, Note_on_c, 0, 60, 96
5, 809088, Note_off_c, 0, 60, 0
5, 868272, Note_on_c, 0, 58, 83
5, 871680, Note_off_c, 0, 58, 0
5, 871680, Note_on_c, 0, 65, 78
5, 877440, Note_off_c, 0, 65, 0
5, 879360, Note_on_c, 0, 65, 71
5, 885120, Note_off_c, 0, 65, 0
5, 887040, Note_on_c, 0, 63, 92
5, 890880, Note_off_c, 0, 63, 0
5, 890880, Note_on_c, 0, 65, 80
5, 896640, Note_off_c, 0, 65, 0
5, 898560, Note_on_c, 0, 63, 87
5, 904320, Note_off_c, 0, 63, 0
5, 906240, Note_on_c, 0, 58, 84
5, 925440, Note_off_c, 0, 58, 0
5, 929280, Note_on_c, 0, 60, 82
5, 932611, Note_off_c, 0, 60, 0
5, 936960, Note_on_c, 0, 60, 80
5, 946560, Note_off_c, 0, 60, 0
5, 948494, Note_on_c, 0, 58, 85
5, 951338, Note_off_c, 0, 58, 0
5, 952320, Note_on_c, 0, 60, 83
5, 958080, Note_off_c, 0, 60, 0
5, 960000, Note_on_c, 0, 63, 84
5, 962278, Note_off_c, 0, 63, 0
5, 963840, Note_on_c, 0, 65, 75
5, 976928, Note_off_c, 0, 65, 0
5, 986880, Note_on_c, 0, 58, 89
5, 988800, Note_off_c, 0, 58, 0
5, 990720, Note_on_c, 0, 58, 89
5, 994560, Note_off_c, 0, 58, 0
5, 998400, Note_on_c, 0, 58, 87
5, 1006761, Note_off_c, 0, 58, 0
5, 1009920, Note_on_c, 0, 58, 86
5, 1012952, Note_off_c, 0, 58, 0
5, 1013760, Note_on_c, 0, 67, 83
5, 1018786, Note_off_c, 0, 67, 0
5, 1021440, Note_on_c, 0, 67, 82
5, 1025916, Note_off_c, 0, 67, 0
5, 1029120, Note_on_c, 0, 65, 87
5, 1031861, Note_off_c, 0, 65, 0
5, 1032960, Note_on_c, 0, 63, 85
5, 1039695, Note_off_c, 0, 63, 0
5, 1044480, Note_on_c, 0, 60, 92
5, 1069290, Note_off_c, 0, 60, 0
5, 1071360, Note_on_c, 0, 58, 90
5, 1079040, Note_on_c, 0, 60, 82
5, 1079626, Note_off_c, 0, 58, 0
5, 1086281, Note_off_c, 0, 60, 0
5, 1086720, Note_on_c, 0, 58, 85
5, 1090560, Note_on_c, 0, 60, 82
5, 1091140, Note_off_c, 0, 58, 0
5, 1094400, Note_off_c, 0, 60, 0
5, 1098240, Note_on_c, 0, 63, 73
5, 1100160, Note_off_c, 0, 63, 0
5, 1102080, Note_on_c, 0, 65, 100
5, 1105920, Note_off_c, 0, 65, 0
5, 1113600, Note_on_c, 0, 58, 98
5, 1116480, Note_off_c, 0, 58, 0
5, 1117440, Note_on_c, 0, 65, 94
5, 1121056, Note_off_c, 0, 65, 0
5, 1125120, Note_on_c, 0, 65, 98
5, 1129248, Note_off_c, 0, 65, 0
5, 1132800, Note_on_c, 0, 63, 99
5, 1135520, Note_off_c, 0, 63, 0
5, 1136640, Note_on_c, 0, 65, 105
5, 1140640, Note_off_c, 0, 65, 0
5, 1144320, Note_on_c, 0, 63, 108
5, 1148576, Note_off_c, 0, 63, 0
5, 1152000, Note_on_c, 0, 58, 103
5, 1160672, Note_off_c, 0, 58, 0
5, 1175040, Note_on_c, 0, 56, 105
5, 1177600, Note_off_c, 0, 56, 0
5, 1178880, Note_on_c, 0, 60, 101
5, 1182368, Note_off_c, 0, 60, 0
5, 1186560, Note_on_c, 0, 60, 96
5, 1190400, Note_on_c, 0, 58, 86
5, 1190848, Note_off_c, 0, 60, 0
5, 1192672, Note_off_c, 0, 58, 0
5, 1198080, Note_on_c, 0, 60, 101
5, 1202880, Note_off_c, 0, 60, 0
5, 1205760, Note_on_c, 0, 63, 110
5, 1210432, Note_off_c, 0, 63, 0
5, 1213440, Note_on_c, 0, 65, 101
5, 1225472, Note_off_c, 0, 65, 0
5, 1236480, Note_on_c, 0, 67, 103
5, 1240352, Note_off_c, 0, 67, 0
5, 1244160, Note_on_c, 0, 65, 103
5, 1247328, Note_off_c, 0, 65, 0
5, 1251840, Note_on_c, 0, 63, 106
5, 1253984, Note_off_c, 0, 63, 0
5, 1255680, Note_on_c, 0, 58, 103
5, 1259392, Note_off_c, 0, 58, 0
5, 1263360, Note_on_c, 0, 58, 106
5, 1265312, Note_off_c, 0, 58, 0
5, 1267200, Note_on_c, 0, 58, 101
5, 1270208, Note_off_c, 0, 58, 0
5, 1274880, Note_on_c, 0, 65, 70
5, 1278720, Note_on_c, 0, 63, 99
5, 1279616, Note_off_c, 0, 65, 0
5, 1282720, Note_off_c, 0, 63, 0
5, 1286400, Note_on_c, 0, 60, 96
5, 1300608, Note_off_c, 0, 60, 0
5, 6144000, End_track
6, 0, Start_track
6, 0, Title_t, "MIDI File Track 1 Ch5"
6, 0, Instrument_name_t, "MIDI File Track 1 Ch5"
6, 0, MIDI_port, 6
6, 0, Control_c, 0, 7, 100
6, 0, Control_c, 0, 1, 0
6, 0, Control_c, 0, 11, 127
6, 0, Pitch_bend_c, 0, 8192
6, 15744, Control_c, 0, 7, 100
6, 950688, Control_c, 0, 7, 127
6, 6144000, End_track
7, 0, Start_track
7, 0, Title_t, "MIDI File Track 1 Ch6"
7, 0, Instrument_name_t, "MIDI File Track 1 Ch6"
7, 0, MIDI_port, 7
7, 0, Control_c, 0, 7, 80
7, 122880, Note_on_c, 0, 58, 85
7, 126336, Note_off_c, 0, 58, 0
7, 126720, Note_on_c, 0, 70, 99
7, 129824, Note_off_c, 0, 70, 0
7, 130560, Note_on_c, 0, 46, 39
7, 130560, Note_on_c, 0, 86, 85
7, 134016, Note_off_c, 0, 46, 0
7, 134400, Note_on_c, 0, 58, 46
7, 134400, Note_on_c, 0, 58, 89
7, 134401, Note_off_c, 0, 58, 0
7, 134880, Note_off_c, 0, 86, 0
7, 137504, Note_off_c, 0, 58, 0
7, 138240, Note_on_c, 0, 34, 8
7, 138240, Note_on_c, 0, 70, 78
7, 138240, Note_on_c, 0, 74, 39
7, 141696, Note_off_c, 0, 34, 0
7, 142080, Note_on_c, 0, 46, 10
7, 142080, Note_on_c, 0, 46, 41
7, 142080, Note_on_c, 0, 82, 93
7, 142081, Note_off_c, 0, 46, 0
7, 142144, Note_off_c, 0, 70, 0
7, 142560, Note_off_c, 0, 74, 0
7, 145184, Note_off_c, 0, 46, 0
7, 145920, Note_off_c, 0, 82, 0
7, 145920, Note_on_c, 0, 58, 36
7, 145920, Note_on_c, 0, 58, 86
7, 145920, Note_on_c, 0, 62, 8
7, 145921, Note_off_c, 0, 58, 0
7, 149152, Note_off_c, 0, 58, 0
7, 149760, Note_on_c, 0, 70, 43
7, 149760, Note_on_c, 0, 34, 1
7, 149760, Note_on_c, 0, 34, 9
7, 149760, Note_on_c, 0, 75, 93
7, 149761, Note_off_c, 0, 34, 0
7, 150240, Note_off_c, 0, 62, 0
7, 152864, Note_off_c, 0, 34, 0
7, 153600, Note_off_c, 0, 70, 0
7, 153600, Note_off_c, 0, 75, 0
7, 153600, Note_on_c, 0, 58, 94
7, 153600, Note_on_c, 0, 46, 7
7, 153600, Note_on_c, 0, 46, 40
7, 153601, Note_off_c, 0, 46, 0
7, 156832, Note_off_c, 0, 46, 0
7, 157152, Note_off_c, 0, 58, 0
7, 157440, Note_on_c, 0, 58, 9
7, 157440, Note_on_c, 0, 63, 43
7, 157440, Note_on_c, 0, 70, 101
7, 160448, Note_off_c, 0, 70, 0
7, 161280, Note_off_c, 0, 58, 0
7, 161280, Note_off_c, 0, 63, 0
7, 161280, Note_on_c, 0, 34, 8
7, 161280, Note_on_c, 0, 77, 89
7, 161280, Note_on_c, 0, 46, 44
7, 164512, Note_off_c, 0, 34, 0
7, 164832, Note_off_c, 0, 46, 0
7, 165120, Note_on_c, 0, 51, 9
7, 165120, Note_on_c, 0, 75, 108
7, 165120, Note_on_c, 0, 58, 47
7, 165888, Note_off_c, 0, 77, 0
7, 168128, Note_off_c, 0, 58, 0
7, 168416, Note_off_c, 0, 75, 0
7, 168960, Note_off_c, 0, 51, 0
7, 168960, Note_on_c, 0, 65, 41
7, 168960, Note_on_c, 0, 77, 89
7, 168960, Note_on_c, 0, 34, 9
7, 172512, Note_off_c, 0, 34, 0
7, 172800, Note_on_c, 0, 63, 50
7, 172800, Note_on_c, 0, 46, 10
7, 172800, Note_on_c, 0, 82, 94
7, 173120, Note_off_c, 0, 77, 0
7, 173568, Note_off_c, 0, 65, 0
7, 175808, Note_off_c, 0, 46, 0
7, 176096, Note_off_c, 0, 63, 0
7, 176640, Note_on_c, 0, 53, 9
7, 176640, Note_on_c, 0, 65, 41
7, 176640, Note_on_c, 0, 77, 86
7, 176768, Note_off_c, 0, 82, 0
7, 180480, Note_on_c, 0, 51, 11
7, 180480, Note_on_c, 0, 70, 44
7, 180480, Note_on_c, 0, 75, 93
7, 180480, Note_on_c, 0, 34, 1
7, 180800, Note_off_c, 0, 65, 0
7, 181248, Note_off_c, 0, 53, 0
7, 181248, Note_off_c, 0, 77, 0
7, 183488, Note_off_c, 0, 34, 0
7, 183776, Note_off_c, 0, 51, 0
7, 184320, Note_on_c, 0, 53, 9
7, 184320, Note_on_c, 0, 56, 88
7, 184320, Note_on_c, 0, 65, 40
7, 184448, Note_off_c, 0, 70, 0
7, 184832, Note_off_c, 0, 75, 0
7, 188160, Note_on_c, 0, 39, 1
7, 188160, Note_on_c, 0, 58, 9
7, 188160, Note_on_c, 0, 63, 43
7, 188160, Note_on_c, 0, 63, 103
7, 188161, Note_off_c, 0, 63, 0
7, 188480, Note_off_c, 0, 53, 0
7, 188896, Note_off_c, 0, 56, 0
7, 188928, Note_off_c, 0, 65, 0
7, 191456, Note_off_c, 0, 39, 0
7, 191520, Note_off_c, 0, 63, 0
7, 192000, Note_on_c, 0, 72, 85
7, 192000, Note_on_c, 0, 44, 41
7, 192000, Note_on_c, 0, 53, 8
7, 192128, Note_off_c, 0, 58, 0
7, 195840, Note_off_c, 0, 72, 0
7, 195840, Note_on_c, 0, 51, 9
7, 195840, Note_on_c, 0, 51, 48
7, 195840, Note_on_c, 0, 70, 88
7, 195841, Note_off_c, 0, 51, 0
7, 196576, Note_off_c, 0, 44, 0
7, 196608, Note_off_c, 0, 53, 0
7, 199200, Note_off_c, 0, 51, 0
7, 199680, Note_on_c, 0, 60, 39
7, 199680, Note_on_c, 0, 72, 85
7, 199680, Note_on_c, 0, 32, 9
7, 199712, Note_off_c, 0, 70, 0
7, 202368, Note_off_c, 0, 72, 0
7, 203520, Note_off_c, 0, 60, 0
7, 203520, Note_on_c, 0, 39, 10
7, 203520, Note_on_c, 0, 58, 41
7, 203520, Note_on_c, 0, 75, 85
7, 204256, Note_off_c, 0, 32, 0
7, 206880, Note_off_c, 0, 39, 0
7, 207360, Note_off_c, 0, 75, 0
7, 207360, Note_on_c, 0, 63, 79
7, 207360, Note_on_c, 0, 48, 8
7, 207360, Note_on_c, 0, 60, 39
7, 207392, Note_off_c, 0, 58, 0
7, 210048, Note_off_c, 0, 60, 0
7, 211200, Note_off_c, 0, 63, 0
7, 211200, Note_off_c, 0, 48, 0
7, 211200, Note_on_c, 0, 63, 39
7, 211200, Note_on_c, 0, 56, 85
7, 211200, Note_on_c, 0, 46, 9
7, 211200, Note_on_c, 0, 27, 1
7, 212064, Note_off_c, 0, 63, 0
7, 214560, Note_off_c, 0, 27, 0
7, 214944, Note_off_c, 0, 56, 0
7, 215040, Note_on_c, 0, 51, 37
7, 215040, Note_on_c, 0, 48, 8
7, 215040, Note_on_c, 0, 63, 88
7, 215072, Note_off_c, 0, 46, 0
7, 217728, Note_off_c, 0, 48, 0
7, 218176, Note_off_c, 0, 63, 0
7, 218880, Note_off_c, 0, 51, 0
7, 218880, Note_on_c, 0, 51, 8
7, 218880, Note_on_c, 0, 44, 39
7, 218880, Note_on_c, 0, 68, 86
7, 219744, Note_off_c, 0, 51, 0
7, 222624, Note_off_c, 0, 44, 0
7, 222720, Note_on_c, 0, 39, 8
7, 222720, Note_on_c, 0, 51, 41
7, 222720, Note_on_c, 0, 72, 69
7, 223328, Note_off_c, 0, 68, 0
7, 225856, Note_off_c, 0, 51, 0
7, 226560, Note_on_c, 0, 56, 40
7, 226560, Note_on_c, 0, 70, 86
7, 226560, Note_on_c, 0, 32, 8
7, 226880, Note_off_c, 0, 72, 0
7, 227424, Note_off_c, 0, 39, 0
7, 230304, Note_off_c, 0, 32, 0
7, 230400, Note_off_c, 0, 70, 0
7, 230400, Note_on_c, 0, 39, 9
7, 230400, Note_on_c, 0, 60, 32
7, 230400, Note_on_c, 0, 60, 68
7, 230401, Note_off_c, 0, 60, 0
7, 231008, Note_off_c, 0, 56, 0
7, 233536, Note_off_c, 0, 39, 0
7, 233824, Note_off_c, 0, 60, 0
7, 234240, Note_on_c, 0, 58, 40
7, 234240, Note_on_c, 0, 44, 8
7, 234240, Note_on_c, 0, 68, 89
7, 238080, Note_off_c, 0, 58, 0
7, 238080, Note_on_c, 0, 75, 85
7, 238080, Note_on_c, 0, 48, 7
7, 238080, Note_on_c, 0, 48, 31
7, 238081, Note_off_c, 0, 48, 0
7, 238112, Note_off_c, 0, 68, 0
7, 238688, Note_off_c, 0, 44, 0
7, 241504, Note_off_c, 0, 48, 0
7, 241920, Note_on_c, 0, 46, 8
7, 241920, Note_on_c, 0, 77, 88
7, 241920, Note_on_c, 0, 56, 41
7, 242144, Note_off_c, 0, 75, 0
7, 245504, Note_off_c, 0, 77, 0
7, 245760, Note_off_c, 0, 46, 0
7, 245760, Note_on_c, 0, 58, 85
7, 245760, Note_on_c, 0, 63, 39
7, 245760, Note_on_c, 0, 36, 6
7, 245792, Note_off_c, 0, 56, 0
7, 249184, Note_off_c, 0, 36, 0
7, 249216, Note_off_c, 0, 58, 0
7, 249600, Note_on_c, 0, 70, 99
7, 249600, Note_on_c, 0, 65, 41
7, 249600, Note_on_c, 0, 44, 9
7, 249824, Note_off_c, 0, 63, 0
7, 252704, Note_off_c, 0, 70, 0
7, 253184, Note_off_c, 0, 65, 0
7, 253440, Note_on_c, 0, 46, 39
7, 253440, Note_on_c, 0, 51, 8
7, 253440, Note_on_c, 0, 86, 85
7, 253472, Note_off_c, 0, 44, 0
7, 256896, Note_off_c, 0, 46, 0
7, 257280, Note_on_c, 0, 74, 89
7, 257280, Note_on_c, 0, 58, 46
7, 257280, Note_on_c, 0, 53, 9
7, 257504, Note_off_c, 0, 51, 0
7, 257760, Note_off_c, 0, 86, 0
7, 260384, Note_off_c, 0, 58, 0
7, 260864, Note_off_c, 0, 53, 0
7, 261024, Note_off_c, 0, 74, 0
7, 261120, Note_on_c, 0, 34, 8
7, 261120, Note_on_c, 0, 70, 78
7, 261120, Note_on_c, 0, 74, 39
7, 264576, Note_off_c, 0, 34, 0
7, 264960, Note_on_c, 0, 62, 41
7, 264960, Note_on_c, 0, 46, 10
7, 264960, Note_on_c, 0, 82, 93
7, 265024, Note_off_c, 0, 70, 0
7, 265440, Note_off_c, 0, 74, 0
7, 268064, Note_off_c, 0, 46, 0
7, 268704, Note_off_c, 0, 62, 0
7, 268800, Note_off_c, 0, 82, 0
7, 268800, Note_on_c, 0, 58, 36
7, 268800, Note_on_c, 0, 58, 86
7, 268800, Note_on_c, 0, 62, 8
7, 268801, Note_off_c, 0, 58, 0
7, 272032, Note_off_c, 0, 58, 0
7, 272640, Note_on_c, 0, 70, 43
7, 272640, Note_on_c, 0, 34, 1
7, 272640, Note_on_c, 0, 75, 93
7, 272640, Note_on_c, 0, 50, 9
7, 273120, Note_off_c, 0, 62, 0
7, 275744, Note_off_c, 0, 34, 0
7, 276384, Note_off_c, 0, 50, 0
7, 276480, Note_off_c, 0, 70, 0
7, 276480, Note_off_c, 0, 75, 0
7, 276480, Note_on_c, 0, 58, 94
7, 276480, Note_on_c, 0, 46, 7
7, 276480, Note_on_c, 0, 46, 40
7, 276481, Note_off_c, 0, 46, 0
7, 279712, Note_off_c, 0, 46, 0
7, 280032, Note_off_c, 0, 58, 0
7, 280320, Note_on_c, 0, 58, 9
7, 280320, Note_on_c, 0, 63, 43
7, 280320, Note_on_c, 0, 70, 101
7, 283328, Note_off_c, 0, 70, 0
7, 284160, Note_off_c, 0, 58, 0
7, 284160, Note_off_c, 0, 63, 0
7, 284160, Note_on_c, 0, 34, 8
7, 284160, Note_on_c, 0, 46, 44
7, 284160, Note_on_c, 0, 77, 89
7, 287392, Note_off_c, 0, 34, 0
7, 287712, Note_off_c, 0, 46, 0
7, 288000, Note_on_c, 0, 75, 108
7, 288000, Note_on_c, 0, 51, 9
7, 288000, Note_on_c, 0, 58, 47
7, 288768, Note_off_c, 0, 77, 0
7, 291008, Note_off_c, 0, 58, 0
7, 291296, Note_off_c, 0, 75, 0
7, 291840, Note_off_c, 0, 51, 0
7, 291840, Note_on_c, 0, 34, 9
7, 291840, Note_on_c, 0, 65, 41
7, 291840, Note_on_c, 0, 80, 89
7, 295392, Note_off_c, 0, 34, 0
7, 295680, Note_on_c, 0, 63, 50
7, 295680, Note_on_c, 0, 46, 10
7, 295680, Note_on_c, 0, 79, 94
7, 296000, Note_off_c, 0, 80, 0
7, 296448, Note_off_c, 0, 65, 0
7, 298688, Note_off_c, 0, 46, 0
7, 298976, Note_off_c, 0, 63, 0
7, 299520, Note_on_c, 0, 68, 41
7, 299520, Note_on_c, 0, 75, 86
7, 299520, Note_on_c, 0, 53, 9
7, 299648, Note_off_c, 0, 79, 0
7, 303360, Note_on_c, 0, 51, 11
7, 303360, Note_on_c, 0, 70, 93
7, 303360, Note_on_c, 0, 34, 1
7, 303360, Note_on_c, 0, 67, 44
7, 303680, Note_off_c, 0, 68, 0
7, 304128, Note_off_c, 0, 75, 0
7, 304128, Note_off_c, 0, 53, 0
7, 306368, Note_off_c, 0, 34, 0
7, 306656, Note_off_c, 0, 51, 0
7, 307200, Note_on_c, 0, 63, 40
7, 307200, Note_on_c, 0, 56, 9
7, 307200, Note_on_c, 0, 56, 88
7, 307201, Note_off_c, 0, 56, 0
7, 307328, Note_off_c, 0, 67, 0
7, 307712, Note_off_c, 0, 70, 0
7, 311040, Note_off_c, 0, 63, 0
7, 311040, Note_on_c, 0, 39, 1
7, 311040, Note_on_c, 0, 58, 43
7, 311040, Note_on_c, 0, 63, 103
7, 311040, Note_on_c, 0, 55, 9
7, 311360, Note_off_c, 0, 56, 0
7, 311808, Note_off_c, 0, 63, 0
7, 314336, Note_off_c, 0, 39, 0
7, 314880, Note_on_c, 0, 51, 8
7, 314880, Note_on_c, 0, 72, 85
7, 314880, Note_on_c, 0, 44, 41
7, 315008, Note_off_c, 0, 55, 0
7, 315392, Note_off_c, 0, 58, 0
7, 318720, Note_off_c, 0, 51, 0
7, 318720, Note_off_c, 0, 72, 0
7, 318720, Note_on_c, 0, 46, 9
7, 318720, Note_on_c, 0, 51, 48
7, 318720, Note_on_c, 0, 68, 88
7, 319456, Note_off_c, 0, 44, 0
7, 319488, Note_off_c, 0, 51, 0
7, 322560, Note_on_c, 0, 60, 39
7, 322560, Note_on_c, 0, 72, 85
7, 322560, Note_on_c, 0, 32, 9
7, 322592, Note_off_c, 0, 68, 0
7, 323072, Note_off_c, 0, 46, 0
7, 325248, Note_off_c, 0, 72, 0
7, 326400, Note_off_c, 0, 60, 0
7, 326400, Note_on_c, 0, 56, 41
7, 326400, Note_on_c, 0, 39, 10
7, 326400, Note_on_c, 0, 70, 85
7, 327136, Note_off_c, 0, 32, 0
7, 329760, Note_off_c, 0, 39, 0
7, 330240, Note_off_c, 0, 56, 0
7, 330240, Note_off_c, 0, 70, 0
7, 330240, Note_on_c, 0, 48, 8
7, 330240, Note_on_c, 0, 60, 39
7, 330240, Note_on_c, 0, 56, 79
7, 330272, Note_off_c, 0, 56, 0
7, 332928, Note_off_c, 0, 60, 0
7, 334080, Note_off_c, 0, 48, 0
7, 334080, Note_on_c, 0, 44, 9
7, 334080, Note_on_c, 0, 63, 85
7, 334080, Note_on_c, 0, 58, 39
7, 334080, Note_on_c, 0, 27, 1
7, 337440, Note_off_c, 0, 27, 0
7, 337824, Note_off_c, 0, 63, 0
7, 337920, Note_off_c, 0, 44, 0
7, 337920, Note_off_c, 0, 58, 0
7, 337920, Note_on_c, 0, 72, 88
7, 337920, Note_on_c, 0, 48, 8
7, 337920, Note_on_c, 0, 44, 37
7, 337952, Note_off_c, 0, 44, 0
7, 340608, Note_off_c, 0, 48, 0
7, 341056, Note_off_c, 0, 72, 0
7, 341760, Note_on_c, 0, 51, 39
7, 341760, Note_on_c, 0, 46, 8
7, 341760, Note_on_c, 0, 63, 86
7, 345504, Note_off_c, 0, 51, 0
7, 345600, Note_off_c, 0, 46, 0
7, 345600, Note_on_c, 0, 60, 41
7, 345600, Note_on_c, 0, 72, 69
7, 345600, Note_on_c, 0, 32, 8
7, 346208, Note_off_c, 0, 63, 0
7, 348736, Note_off_c, 0, 60, 0
7, 349440, Note_on_c, 0, 39, 8
7, 349440, Note_on_c, 0, 51, 40
7, 349440, Note_on_c, 0, 70, 86
7, 349760, Note_off_c, 0, 72, 0
7, 350304, Note_off_c, 0, 32, 0
7, 353184, Note_off_c, 0, 39, 0
7, 353280, Note_off_c, 0, 70, 0
7, 353280, Note_on_c, 0, 48, 9
7, 353280, Note_on_c, 0, 60, 32
7, 353280, Note_on_c, 0, 60, 68
7, 353281, Note_off_c, 0, 60, 0
7, 353888, Note_off_c, 0, 51, 0
7, 356416, Note_off_c, 0, 48, 0
7, 356704, Note_off_c, 0, 60, 0
7, 357120, Note_on_c, 0, 75, 89
7, 357120, Note_on_c, 0, 58, 40
7, 357120, Note_on_c, 0, 39, 8
7, 360960, Note_off_c, 0, 58, 0
7, 360960, Note_on_c, 0, 77, 85
7, 360960, Note_on_c, 0, 48, 7
7, 360960, Note_on_c, 0, 48, 31
7, 360961, Note_off_c, 0, 48, 0
7, 360992, Note_off_c, 0, 75, 0
7, 361568, Note_off_c, 0, 39, 0
7, 364384, Note_off_c, 0, 48, 0
7, 364800, Note_on_c, 0, 63, 41
7, 364800, Note_on_c, 0, 46, 8
7, 364800, Note_on_c, 0, 75, 88
7, 365024, Note_off_c, 0, 77, 0
7, 368384, Note_off_c, 0, 75, 0
7, 368640, Note_off_c, 0, 46, 0
7, 368640, Note_on_c, 0, 58, 85
7, 368640, Note_on_c, 0, 65, 39
7, 368640, Note_on_c, 0, 36, 6
7, 368672, Note_off_c, 0, 63, 0
7, 372064, Note_off_c, 0, 36, 0
7, 372096, Note_off_c, 0, 58, 0
7, 372480, Note_on_c, 0, 51, 9
7, 372480, Note_on_c, 0, 70, 99
7, 372480, Note_on_c, 0, 63, 41
7, 372704, Note_off_c, 0, 65, 0
7, 375584, Note_off_c, 0, 70, 0
7, 376064, Note_off_c, 0, 63, 0
7, 376320, Note_on_c, 0, 46, 39
7, 376320, Note_on_c, 0, 53, 8
7, 376320, Note_on_c, 0, 86, 85
7, 376352, Note_off_c, 0, 51, 0
7, 379776, Note_off_c, 0, 46, 0
7, 380160, Note_on_c, 0, 58, 46
7, 380160, Note_on_c, 0, 58, 89
7, 380160, Note_on_c, 0, 51, 9
7, 380161, Note_off_c, 0, 58, 0
7, 380384, Note_off_c, 0, 53, 0
7, 380640, Note_off_c, 0, 86, 0
7, 383264, Note_off_c, 0, 58, 0
7, 383744, Note_off_c, 0, 51, 0
7, 384000, Note_on_c, 0, 34, 8
7, 384000, Note_on_c, 0, 70, 78
7, 384000, Note_on_c, 0, 74, 39
7, 387456, Note_off_c, 0, 34, 0
7, 387840, Note_on_c, 0, 46, 10
7, 387840, Note_on_c, 0, 46, 41
7, 387840, Note_on_c, 0, 82, 93
7, 387841, Note_off_c, 0, 46, 0
7, 387904, Note_off_c, 0, 70, 0
7, 388320, Note_off_c, 0, 74, 0
7, 390944, Note_off_c, 0, 46, 0
7, 391680, Note_off_c, 0, 82, 0
7, 391680, Note_on_c, 0, 58, 36
7, 391680, Note_on_c, 0, 58, 86
7, 391680, Note_on_c, 0, 62, 8
7, 391681, Note_off_c, 0, 58, 0
7, 394912, Note_off_c, 0, 58, 0
7, 395520, Note_on_c, 0, 70, 43
7, 395520, Note_on_c, 0, 34, 1
7, 395520, Note_on_c, 0, 34, 9
7, 395520, Note_on_c, 0, 75, 93
7, 395521, Note_off_c, 0, 34, 0
7, 396000, Note_off_c, 0, 62, 0
7, 398624, Note_off_c, 0, 34, 0
7, 399360, Note_off_c, 0, 70, 0
7, 399360, Note_off_c, 0, 75, 0
7, 399360, Note_on_c, 0, 58, 94
7, 399360, Note_on_c, 0, 46, 7
7, 399360, Note_on_c, 0, 46, 40
7, 399361, Note_off_c, 0, 46, 0
7, 402592, Note_off_c, 0, 46, 0
7, 402912, Note_off_c, 0, 58, 0
7, 403200, Note_on_c, 0, 58, 9
7, 403200, Note_on_c, 0, 63, 43
7, 403200, Note_on_c, 0, 70, 101
7, 406208, Note_off_c, 0, 70, 0
7, 407040, Note_off_c, 0, 58, 0
7, 407040, Note_off_c, 0, 63, 0
7, 407040, Note_on_c, 0, 34, 8
7, 407040, Note_on_c, 0, 77, 89
7, 407040, Note_on_c, 0, 46, 44
7, 410272, Note_off_c, 0, 34, 0
7, 410592, Note_off_c, 0, 46, 0
7, 410880, Note_on_c, 0, 51, 9
7, 410880, Note_on_c, 0, 75, 108
7, 410880, Note_on_c, 0, 58, 47
7, 411648, Note_off_c, 0, 77, 0
7, 413888, Note_off_c, 0, 58, 0
7, 414176, Note_off_c, 0, 75, 0
7, 414720, Note_off_c, 0, 51, 0
7, 414720, Note_on_c, 0, 65, 41
7, 414720, Note_on_c, 0, 77, 89
7, 414720, Note_on_c, 0, 34, 9
7, 418272, Note_off_c, 0, 34, 0
7, 418560, Note_on_c, 0, 63, 50
7, 418560, Note_on_c, 0, 46, 10
7, 418560, Note_on_c, 0, 82, 94
7, 418880, Note_off_c, 0, 77, 0
7, 419328, Note_off_c, 0, 65, 0
7, 421568, Note_off_c, 0, 46, 0
7, 421856, Note_off_c, 0, 63, 0
7, 422400, Note_on_c, 0, 53, 9
7, 422400, Note_on_c, 0, 65, 41
7, 422400, Note_on_c, 0, 77, 86
7, 422528, Note_off_c, 0, 82, 0
7, 426240, Note_on_c, 0, 51, 11
7, 426240, Note_on_c, 0, 70, 44
7, 426240, Note_on_c, 0, 75, 93
7, 426240, Note_on_c, 0, 34, 1
7, 426560, Note_off_c, 0, 65, 0
7, 427008, Note_off_c, 0, 53, 0
7, 427008, Note_off_c, 0, 77, 0
7, 429248, Note_off_c, 0, 34, 0
7, 429536, Note_off_c, 0, 51, 0
7, 430080, Note_on_c, 0, 53, 9
7, 430080, Note_on_c, 0, 56, 88
7, 430080, Note_on_c, 0, 65, 40
7, 430208, Note_off_c, 0, 70, 0
7, 430592, Note_off_c, 0, 75, 0
7, 433920, Note_on_c, 0, 39, 1
7, 433920, Note_on_c, 0, 58, 9
7, 433920, Note_on_c, 0, 63, 43
7, 433920, Note_on_c, 0, 63, 103
7, 433921, Note_off_c, 0, 63, 0
7, 434240, Note_off_c, 0, 53, 0
7, 434656, Note_off_c, 0, 56, 0
7, 434688, Note_off_c, 0, 65, 0
7, 437216, Note_off_c, 0, 39, 0
7, 437280, Note_off_c, 0, 63, 0
7, 437760, Note_on_c, 0, 72, 85
7, 437760, Note_on_c, 0, 44, 41
7, 437760, Note_on_c, 0, 53, 8
7, 437888, Note_off_c, 0, 58, 0
7, 441600, Note_off_c, 0, 72, 0
7, 441600, Note_on_c, 0, 51, 9
7, 441600, Note_on_c, 0, 51, 48
7, 441600, Note_on_c, 0, 70, 88
7, 441601, Note_off_c, 0, 51, 0
7, 442336, Note_off_c, 0, 44, 0
7, 442368, Note_off_c, 0, 53, 0
7, 444960, Note_off_c, 0, 51, 0
7, 445440, Note_on_c, 0, 60, 39
7, 445440, Note_on_c, 0, 72, 85
7, 445440, Note_on_c, 0, 32, 9
7, 445472, Note_off_c, 0, 70, 0
7, 448128, Note_off_c, 0, 72, 0
7, 449280, Note_off_c, 0, 60, 0
7, 449280, Note_on_c, 0, 39, 10
7, 449280, Note_on_c, 0, 58, 41
7, 449280, Note_on_c, 0, 75, 85
7, 450016, Note_off_c, 0, 32, 0
7, 452640, Note_off_c, 0, 39, 0
7, 453120, Note_off_c, 0, 75, 0
7, 453120, Note_on_c, 0, 63, 79
7, 453120, Note_on_c, 0, 48, 8
7, 453120, Note_on_c, 0, 60, 39
7, 453152, Note_off_c, 0, 58, 0
7, 455808, Note_off_c, 0, 60, 0
7, 456960, Note_off_c, 0, 63, 0
7, 456960, Note_off_c, 0, 48, 0
7, 456960, Note_on_c, 0, 63, 39
7, 456960, Note_on_c, 0, 56, 85
7, 456960, Note_on_c, 0, 46, 9
7, 456960, Note_on_c, 0, 27, 1
7, 457824, Note_off_c, 0, 63, 0
7, 460320, Note_off_c, 0, 27, 0
7, 460704, Note_off_c, 0, 56, 0
7, 460800, Note_on_c, 0, 51, 37
7, 460800, Note_on_c, 0, 48, 8
7, 460800, Note_on_c, 0, 63, 88
7, 460832, Note_off_c, 0, 46, 0
7, 463488, Note_off_c, 0, 48, 0
7, 463936, Note_off_c, 0, 63, 0
7, 464640, Note_off_c, 0, 51, 0
7, 464640, Note_on_c, 0, 51, 8
7, 464640, Note_on_c, 0, 44, 39
7, 464640, Note_on_c, 0, 68, 86
7, 465504, Note_off_c, 0, 51, 0
7, 468384, Note_off_c, 0, 44, 0
7, 468480, Note_on_c, 0, 39, 8
7, 468480, Note_on_c, 0, 51, 41
7, 468480, Note_on_c, 0, 72, 69
7, 469088, Note_off_c, 0, 68, 0
7, 471616, Note_off_c, 0, 51, 0
7, 472320, Note_on_c, 0, 56, 40
7, 472320, Note_on_c, 0, 70, 86
7, 472320, Note_on_c, 0, 32, 8
7, 472640, Note_off_c, 0, 72, 0
7, 473184, Note_off_c, 0, 39, 0
7, 476064, Note_off_c, 0, 32, 0
7, 476160, Note_off_c, 0, 70, 0
7, 476160, Note_on_c, 0, 39, 9
7, 476160, Note_on_c, 0, 60, 32
7, 476160, Note_on_c, 0, 60, 68
7, 476161, Note_off_c, 0, 60, 0
7, 476768, Note_off_c, 0, 56, 0
7, 479296, Note_off_c, 0, 39, 0
7, 479584, Note_off_c, 0, 60, 0
7, 480000, Note_on_c, 0, 58, 40
7, 480000, Note_on_c, 0, 44, 8
7, 480000, Note_on_c, 0, 68, 89
7, 483840, Note_off_c, 0, 58, 0
7, 483840, Note_on_c, 0, 75, 85
7, 483840, Note_on_c, 0, 48, 7
7, 483840, Note_on_c, 0, 48, 31
7, 483841, Note_off_c, 0, 48, 0
7, 483872, Note_off_c, 0, 68, 0
7, 484448, Note_off_c, 0, 44, 0
7, 487264, Note_off_c, 0, 48, 0
7, 487680, Note_on_c, 0, 46, 8
7, 487680, Note_on_c, 0, 77, 88
7, 487680, Note_on_c, 0, 56, 41
7, 487904, Note_off_c, 0, 75, 0
7, 491264, Note_off_c, 0, 77, 0
7, 491520, Note_off_c, 0, 46, 0
7, 491520, Note_on_c, 0, 58, 85
7, 491520, Note_on_c, 0, 63, 39
7, 491520, Note_on_c, 0, 36, 6
7, 491552, Note_off_c, 0, 56, 0
7, 494944, Note_off_c, 0, 36, 0
7, 494976, Note_off_c, 0, 58, 0
7, 495360, Note_on_c, 0, 70, 99
7, 495360, Note_on_c, 0, 65, 41
7, 495360, Note_on_c, 0, 44, 9
7, 495584, Note_off_c, 0, 63, 0
7, 498464, Note_off_c, 0, 70, 0
7, 498944, Note_off_c, 0, 65, 0
7, 499200, Note_on_c, 0, 46, 39
7, 499200, Note_on_c, 0, 51, 8
7, 499200, Note_on_c, 0, 86, 85
7, 499232, Note_off_c, 0, 44, 0
7, 502656, Note_off_c, 0, 46, 0
7, 503040, Note_on_c, 0, 74, 89
7, 503040, Note_on_c, 0, 58, 46
7, 503040, Note_on_c, 0, 53, 9
7, 503264, Note_off_c, 0, 51, 0
7, 503520, Note_off_c, 0, 86, 0
7, 506144, Note_off_c, 0, 58, 0
7, 506624, Note_off_c, 0, 53, 0
7, 506784, Note_off_c, 0, 74, 0
7, 506880, Note_on_c, 0, 34, 8
7, 506880, Note_on_c, 0, 70, 78
7, 506880, Note_on_c, 0, 74, 39
7, 510336, Note_off_c, 0, 34, 0
7, 510720, Note_on_c, 0, 62, 41
7, 510720, Note_on_c, 0, 46, 10
7, 510720, Note_on_c, 0, 82, 93
7, 510784, Note_off_c, 0, 70, 0
7, 511200, Note_off_c, 0, 74, 0
7, 513824, Note_off_c, 0, 46, 0
7, 514464, Note_off_c, 0, 62, 0
7, 514560, Note_off_c, 0, 82, 0
7, 514560, Note_on_c, 0, 58, 36
7, 514560, Note_on_c, 0, 58, 86
7, 514560, Note_on_c, 0, 62, 8
7, 514561, Note_off_c, 0, 58, 0
7, 517792, Note_off_c, 0, 58, 0
7, 518400, Note_on_c, 0, 70, 43
7, 518400, Note_on_c, 0, 34, 1
7, 518400, Note_on_c, 0, 75, 93
7, 518400, Note_on_c, 0, 50, 9
7, 518880, Note_off_c, 0, 62, 0
7, 521504, Note_off_c, 0, 34, 0
7, 522144, Note_off_c, 0, 50, 0
7, 522240, Note_off_c, 0, 70, 0
7, 522240, Note_off_c, 0, 75, 0
7, 522240, Note_on_c, 0, 58, 94
7, 522240, Note_on_c, 0, 46, 7
7, 522240, Note_on_c, 0, 46, 40
7, 522241, Note_off_c, 0, 46, 0
7, 525472, Note_off_c, 0, 46, 0
7, 525792, Note_off_c, 0, 58, 0
7, 526080, Note_on_c, 0, 58, 9
7, 526080, Note_on_c, 0, 63, 43
7, 526080, Note_on_c, 0, 70, 101
7, 529088, Note_off_c, 0, 70, 0
7, 529920, Note_off_c, 0, 58, 0
7, 529920, Note_off_c, 0, 63, 0
7, 529920, Note_on_c, 0, 34, 8
7, 529920, Note_on_c, 0, 46, 44
7, 529920, Note_on_c, 0, 77, 89
7, 533152, Note_off_c, 0, 34, 0
7, 533472, Note_off_c, 0, 46, 0
7, 533760, Note_on_c, 0, 75, 108
7, 533760, Note_on_c, 0, 51, 9
7, 533760, Note_on_c, 0, 58, 47
7, 534528, Note_off_c, 0, 77, 0
7, 536768, Note_off_c, 0, 58, 0
7, 537056, Note_off_c, 0, 75, 0
7, 537600, Note_off_c, 0, 51, 0
7, 537600, Note_on_c, 0, 34, 9
7, 537600, Note_on_c, 0, 65, 41
7, 537600, Note_on_c, 0, 80, 89
7, 541152, Note_off_c, 0, 34, 0
7, 541440, Note_on_c, 0, 63, 50
7, 541440, Note_on_c, 0, 46, 10
7, 541440, Note_on_c, 0, 79, 94
7, 541760, Note_off_c, 0, 80, 0
7, 542208, Note_off_c, 0, 65, 0
7, 544448, Note_off_c, 0, 46, 0
7, 544736, Note_off_c, 0, 63, 0
7, 545280, Note_on_c, 0, 68, 41
7, 545280, Note_on_c, 0, 75, 86
7, 545280, Note_on_c, 0, 53, 9
7, 545408, Note_off_c, 0, 79, 0
7, 549120, Note_on_c, 0, 51, 11
7, 549120, Note_on_c, 0, 70, 93
7, 549120, Note_on_c, 0, 34, 1
7, 549120, Note_on_c, 0, 67, 44
7, 549440, Note_off_c, 0, 68, 0
7, 549888, Note_off_c, 0, 75, 0
7, 549888, Note_off_c, 0, 53, 0
7, 552128, Note_off_c, 0, 34, 0
7, 552416, Note_off_c, 0, 51, 0
7, 552960, Note_on_c, 0, 63, 40
7, 552960, Note_on_c, 0, 56, 9
7, 552960, Note_on_c, 0, 56, 88
7, 552961, Note_off_c, 0, 56, 0
7, 553088, Note_off_c, 0, 67, 0
7, 553472, Note_off_c, 0, 70, 0
7, 556800, Note_off_c, 0, 63, 0
7, 556800, Note_on_c, 0, 39, 1
7, 556800, Note_on_c, 0, 58, 43
7, 556800, Note_on_c, 0, 63, 103
7, 556800, Note_on_c, 0, 55, 9
7, 557120, Note_off_c, 0, 56, 0
7, 557568, Note_off_c, 0, 63, 0
7, 560096, Note_off_c, 0, 39, 0
7, 560640, Note_on_c, 0, 51, 8
7, 560640, Note_on_c, 0, 72, 85
7, 560640, Note_on_c, 0, 44, 41
7, 560768, Note_off_c, 0, 55, 0
7, 561152, Note_off_c, 0, 58, 0
7, 564480, Note_off_c, 0, 51, 0
7, 564480, Note_off_c, 0, 72, 0
7, 564480, Note_on_c, 0, 46, 9
7, 564480, Note_on_c, 0, 51, 48
7, 564480, Note_on_c, 0, 68, 88
7, 565216, Note_off_c, 0, 44, 0
7, 565248, Note_off_c, 0, 51, 0
7, 568320, Note_on_c, 0, 60, 39
7, 568320, Note_on_c, 0, 72, 85
7, 568320, Note_on_c, 0, 32, 9
7, 568352, Note_off_c, 0, 68, 0
7, 568832, Note_off_c, 0, 46, 0
7, 571008, Note_off_c, 0, 72, 0
7, 572160, Note_off_c, 0, 60, 0
7, 572160, Note_on_c, 0, 56, 41
7, 572160, Note_on_c, 0, 39, 10
7, 572160, Note_on_c, 0, 70, 85
7, 572896, Note_off_c, 0, 32, 0
7, 575520, Note_off_c, 0, 39, 0
7, 576000, Note_off_c, 0, 56, 0
7, 576000, Note_off_c, 0, 70, 0
7, 576000, Note_on_c, 0, 48, 8
7, 576000, Note_on_c, 0, 60, 39
7, 576000, Note_on_c, 0, 56, 79
7, 576032, Note_off_c, 0, 56, 0
7, 578688, Note_off_c, 0, 60, 0
7, 579840, Note_off_c, 0, 48, 0
7, 579840, Note_on_c, 0, 44, 9
7, 579840, Note_on_c, 0, 63, 85
7, 579840, Note_on_c, 0, 58, 39
7, 579840, Note_on_c, 0, 27, 1
7, 583200, Note_off_c, 0, 27, 0
7, 583584, Note_off_c, 0, 63, 0
7, 583680, Note_off_c, 0, 44, 0
7, 583680, Note_off_c, 0, 58, 0
7, 583680, Note_on_c, 0, 72, 88
7, 583680, Note_on_c, 0, 48, 8
7, 583680, Note_on_c, 0, 44, 37
7, 583712, Note_off_c, 0, 44, 0
7, 586368, Note_off_c, 0, 48, 0
7, 586816, Note_off_c, 0, 72, 0
7, 587520, Note_on_c, 0, 51, 39
7, 587520, Note_on_c, 0, 46, 8
7, 587520, Note_on_c, 0, 63, 86
7, 591264, Note_off_c, 0, 51, 0
7, 591360, Note_off_c, 0, 46, 0
7, 591360, Note_on_c, 0, 60, 41
7, 591360, Note_on_c, 0, 72, 69
7, 591360, Note_on_c, 0, 32, 8
7, 591968, Note_off_c, 0, 63, 0
7, 594496, Note_off_c, 0, 60, 0
7, 595200, Note_on_c, 0, 39, 8
7, 595200, Note_on_c, 0, 51, 40
7, 595200, Note_on_c, 0, 70, 86
7, 595520, Note_off_c, 0, 72, 0
7, 596064, Note_off_c, 0, 32, 0
7, 598944, Note_off_c, 0, 39, 0
7, 599040, Note_off_c, 0, 70, 0
7, 599040, Note_on_c, 0, 48, 9
7, 599040, Note_on_c, 0, 60, 32
7, 599040, Note_on_c, 0, 60, 68
7, 599041, Note_off_c, 0, 60, 0
7, 599648, Note_off_c, 0, 51, 0
7, 602176, Note_off_c, 0, 48, 0
7, 602464, Note_off_c, 0, 60, 0
7, 602880, Note_on_c, 0, 75, 89
7, 602880, Note_on_c, 0, 58, 40
7, 602880, Note_on_c, 0, 39, 8
7, 606720, Note_off_c, 0, 58, 0
7, 606720, Note_on_c, 0, 77, 85
7, 606720, Note_on_c, 0, 48, 7
7, 606720, Note_on_c, 0, 48, 31
7, 606721, Note_off_c, 0, 48, 0
7, 606752, Note_off_c, 0, 75, 0
7, 607328, Note_off_c, 0, 39, 0
7, 610144, Note_off_c, 0, 48, 0
7, 610560, Note_on_c, 0, 63, 41
7, 610560, Note_on_c, 0, 46, 8
7, 610560, Note_on_c, 0, 75, 88
7, 610784, Note_off_c, 0, 77, 0
7, 614144, Note_off_c, 0, 75, 0
7, 614400, Note_off_c, 0, 46, 0
7, 614400, Note_on_c, 0, 58, 85
7, 614400, Note_on_c, 0, 65, 39
7, 614400, Note_on_c, 0, 36, 6
7, 614432, Note_off_c, 0, 63, 0
7, 617824, Note_off_c, 0, 36, 0
7, 617856, Note_off_c, 0, 58, 0
7, 618240, Note_on_c, 0, 51, 9
7, 618240, Note_on_c, 0, 70, 99
7, 618240, Note_on_c, 0, 63, 41
7, 618464, Note_off_c, 0, 65, 0
7, 621344, Note_off_c, 0, 70, 0
7, 621824, Note_off_c, 0, 63, 0
7, 622080, Note_on_c, 0, 46, 39
7, 622080, Note_on_c, 0, 53, 8
7, 622080, Note_on_c, 0, 86, 85
7, 622112, Note_off_c, 0, 51, 0
7, 625536, Note_off_c, 0, 46, 0
7, 625920, Note_on_c, 0, 58, 46
7, 625920, Note_on_c, 0, 58, 89
7, 625920, Note_on_c, 0, 51, 9
7, 625921, Note_off_c, 0, 58, 0
7, 626144, Note_off_c, 0, 53, 0
7, 626400, Note_off_c, 0, 86, 0
7, 629024, Note_off_c, 0, 58, 0
7, 629504, Note_off_c, 0, 51, 0
7, 629760, Note_on_c, 0, 34, 8
7, 629760, Note_on_c, 0, 70, 78
7, 629760, Note_on_c, 0, 74, 39
7, 633216, Note_off_c, 0, 34, 0
7, 633600, Note_on_c, 0, 46, 10
7, 633600, Note_on_c, 0, 46, 41
7, 633600, Note_on_c, 0, 82, 93
7, 633601, Note_off_c, 0, 46, 0
7, 633664, Note_off_c, 0, 70, 0
7, 634080, Note_off_c, 0, 74, 0
7, 636704, Note_off_c, 0, 46, 0
7, 637440, Note_off_c, 0, 82, 0
7, 637440, Note_on_c, 0, 58, 36
7, 637440, Note_on_c, 0, 58, 86
7, 637440, Note_on_c, 0, 62, 8
7, 637441, Note_off_c, 0, 58, 0
7, 640672, Note_off_c, 0, 58, 0
7, 641280, Note_on_c, 0, 70, 43
7, 641280, Note_on_c, 0, 34, 1
7, 641280, Note_on_c, 0, 34, 9
7, 641280, Note_on_c, 0, 75, 93
7, 641281, Note_off_c, 0, 34, 0
7, 641760, Note_off_c, 0, 62, 0
7, 644384, Note_off_c, 0, 34, 0
7, 645120, Note_off_c, 0, 70, 0
7, 645120, Note_off_c, 0, 75, 0
7, 645120, Note_on_c, 0, 58, 94
7, 645120, Note_on_c, 0, 46, 7
7, 645120, Note_on_c, 0, 46, 40
7, 645121, Note_off_c, 0, 46, 0
7, 648352, Note_off_c, 0, 46, 0
7, 648672, Note_off_c, 0, 58, 0
7, 648960, Note_on_c, 0, 58, 9
7, 648960, Note_on_c, 0, 63, 43
7, 648960, Note_on_c, 0, 70, 101
7, 651968, Note_off_c, 0, 70, 0
7, 652800, Note_off_c, 0, 58, 0
7, 652800, Note_off_c, 0, 63, 0
7, 652800, Note_on_c, 0, 34, 8
7, 652800, Note_on_c, 0, 77, 89
7, 652800, Note_on_c, 0, 46, 44
7, 656032, Note_off_c, 0, 34, 0
7, 656352, Note_off_c, 0, 46, 0
7, 656640, Note_on_c, 0, 51, 9
7, 656640, Note_on_c, 0, 75, 108
7, 656640, Note_on_c, 0, 58, 47
7, 657408, Note_off_c, 0, 77, 0
7, 659648, Note_off_c, 0, 58, 0
7, 659936, Note_off_c, 0, 75, 0
7, 660480, Note_off_c, 0, 51, 0
7, 660480, Note_on_c, 0, 65, 41
7, 660480, Note_on_c, 0, 77, 89
7, 660480, Note_on_c, 0, 34, 9
7, 664032, Note_off_c, 0, 34, 0
7, 664320, Note_on_c, 0, 63, 50
7, 664320, Note_on_c, 0, 46, 10
7, 664320, Note_on_c, 0, 82, 94
7, 664640, Note_off_c, 0, 77, 0
7, 665088, Note_off_c, 0, 65, 0
7, 667328, Note_off_c, 0, 46, 0
7, 667616, Note_off_c, 0, 63, 0
7, 668160, Note_on_c, 0, 53, 9
7, 668160, Note_on_c, 0, 65, 41
7, 668160, Note_on_c, 0, 77, 86
7, 668288, Note_off_c, 0, 82, 0
7, 672000, Note_on_c, 0, 51, 11
7, 672000, Note_on_c, 0, 70, 44
7, 672000, Note_on_c, 0, 75, 93
7, 672000, Note_on_c, 0, 34, 1
7, 672320, Note_off_c, 0, 65, 0
7, 672768, Note_off_c, 0, 53, 0
7, 672768, Note_off_c, 0, 77, 0
7, 675008, Note_off_c, 0, 34, 0
7, 675296, Note_off_c, 0, 51, 0
7, 675840, Note_on_c, 0, 53, 9
7, 675840, Note_on_c, 0, 56, 88
7, 675840, Note_on_c, 0, 65, 40
7, 675968, Note_off_c, 0, 70, 0
7, 676352, Note_off_c, 0, 75, 0
7, 679680, Note_on_c, 0, 39, 1
7, 679680, Note_on_c, 0, 58, 9
7, 679680, Note_on_c, 0, 63, 43
7, 679680, Note_on_c, 0, 63, 103
7, 679681, Note_off_c, 0, 63, 0
7, 680000, Note_off_c, 0, 53, 0
7, 680416, Note_off_c, 0, 56, 0
7, 680448, Note_off_c, 0, 65, 0
7, 682976, Note_off_c, 0, 39, 0
7, 683040, Note_off_c, 0, 63, 0
7, 683520, Note_on_c, 0, 72, 85
7, 683520, Note_on_c, 0, 44, 41
7, 683520, Note_on_c, 0, 53, 8
7, 683648, Note_off_c, 0, 58, 0
7, 687360, Note_off_c, 0, 72, 0
7, 687360, Note_on_c, 0, 51, 9
7, 687360, Note_on_c, 0, 51, 48
7, 687360, Note_on_c, 0, 70, 88
7, 687361, Note_off_c, 0, 51, 0
7, 688096, Note_off_c, 0, 44, 0
7, 688128, Note_off_c, 0, 53, 0
7, 690720, Note_off_c, 0, 51, 0
7, 691200, Note_on_c, 0, 60, 39
7, 691200, Note_on_c, 0, 72, 85
7, 691200, Note_on_c, 0, 32, 9
7, 691232, Note_off_c, 0, 70, 0
7, 693888, Note_off_c, 0, 72, 0
7, 695040, Note_off_c, 0, 60, 0
7, 695040, Note_on_c, 0, 39, 10
7, 695040, Note_on_c, 0, 58, 41
7, 695040, Note_on_c, 0, 75, 85
7, 695776, Note_off_c, 0, 32, 0
7, 698400, Note_off_c, 0, 39, 0
7, 698880, Note_off_c, 0, 75, 0
7, 698880, Note_on_c, 0, 63, 79
7, 698880, Note_on_c, 0, 48, 8
7, 698880, Note_on_c, 0, 60, 39
7, 698912, Note_off_c, 0, 58, 0
7, 701568, Note_off_c, 0, 60, 0
7, 702720, Note_off_c, 0, 63, 0
7, 702720, Note_off_c, 0, 48, 0
7, 702720, Note_on_c, 0, 63, 39
7, 702720, Note_on_c, 0, 56, 85
7, 702720, Note_on_c, 0, 46, 9
7, 702720, Note_on_c, 0, 27, 1
7, 703584, Note_off_c, 0, 63, 0
7, 706080, Note_off_c, 0, 27, 0
7, 706464, Note_off_c, 0, 56, 0
7, 706560, Note_on_c, 0, 51, 37
7, 706560, Note_on_c, 0, 48, 8
7, 706560, Note_on_c, 0, 63, 88
7, 706592, Note_off_c, 0, 46, 0
7, 709248, Note_off_c, 0, 48, 0
7, 709696, Note_off_c, 0, 63, 0
7, 710400, Note_off_c, 0, 51, 0
7, 710400, Note_on_c, 0, 51, 8
7, 710400, Note_on_c, 0, 44, 39
7, 710400, Note_on_c, 0, 68, 86
7, 711264, Note_off_c, 0, 51, 0
7, 714144, Note_off_c, 0, 44, 0
7, 714240, Note_on_c, 0, 39, 8
7, 714240, Note_on_c, 0, 51, 41
7, 714240, Note_on_c, 0, 72, 69
7, 714848, Note_off_c, 0, 68, 0
7, 717376, Note_off_c, 0, 51, 0
7, 718080, Note_on_c, 0, 56, 40
7, 718080, Note_on_c, 0, 70, 86
7, 718080, Note_on_c, 0, 32, 8
7, 718400, Note_off_c, 0, 72, 0
7, 718944, Note_off_c, 0, 39, 0
7, 721824, Note_off_c, 0, 32, 0
7, 721920, Note_off_c, 0, 70, 0
7, 721920, Note_on_c, 0, 39, 9
7, 721920, Note_on_c, 0, 60, 32
7, 721920, Note_on_c, 0, 60, 68
7, 721921, Note_off_c, 0, 60, 0
7, 722528, Note_off_c, 0, 56, 0
7, 725056, Note_off_c, 0, 39, 0
7, 725344, Note_off_c, 0, 60, 0
7, 725760, Note_on_c, 0, 58, 40
7, 725760, Note_on_c, 0, 44, 8
7, 725760, Note_on_c, 0, 68, 89
7, 729600, Note_off_c, 0, 58, 0
7, 729600, Note_on_c, 0, 75, 85
7, 729600, Note_on_c, 0, 48, 7
7, 729600, Note_on_c, 0, 48, 31
7, 729601, Note_off_c, 0, 48, 0
7, 729632, Note_off_c, 0, 68, 0
7, 730208, Note_off_c, 0, 44, 0
7, 733024, Note_off_c, 0, 48, 0
7, 733440, Note_on_c, 0, 46, 8
7, 733440, Note_on_c, 0, 77, 88
7, 733440, Note_on_c, 0, 56, 41
7, 733664, Note_off_c, 0, 75, 0
7, 737024, Note_off_c, 0, 77, 0
7, 737280, Note_off_c, 0, 46, 0
7, 737280, Note_on_c, 0, 58, 85
7, 737280, Note_on_c, 0, 63, 39
7, 737280, Note_on_c, 0, 36, 6
7, 737312, Note_off_c, 0, 56, 0
7, 740704, Note_off_c, 0, 36, 0
7, 740736, Note_off_c, 0, 58, 0
7, 741120, Note_on_c, 0, 70, 99
7, 741120, Note_on_c, 0, 65, 41
7, 741120, Note_on_c, 0, 44, 9
7, 741344, Note_off_c, 0, 63, 0
7, 744224, Note_off_c, 0, 70, 0
7, 744704, Note_off_c, 0, 65, 0
7, 744960, Note_on_c, 0, 46, 39
7, 744960, Note_on_c, 0, 51, 8
7, 744960, Note_on_c, 0, 86, 85
7, 744992, Note_off_c, 0, 44, 0
7, 748416, Note_off_c, 0, 46, 0
7, 748800, Note_on_c, 0, 74, 89
7, 748800, Note_on_c, 0, 58, 46
7, 748800, Note_on_c, 0, 53, 9
7, 749024, Note_off_c, 0, 51, 0
7, 749280, Note_off_c, 0, 86, 0
7, 751904, Note_off_c, 0, 58, 0
7, 752384, Note_off_c, 0, 53, 0
7, 752544, Note_off_c, 0, 74, 0
7, 752640, Note_on_c, 0, 34, 8
7, 752640, Note_on_c, 0, 70, 78
7, 752640, Note_on_c, 0, 74, 39
7, 756096, Note_off_c, 0, 34, 0
7, 756480, Note_on_c, 0, 62, 41
7, 756480, Note_on_c, 0, 46, 10
7, 756480, Note_on_c, 0, 82, 93
7, 756544, Note_off_c, 0, 70, 0
7, 756960, Note_off_c, 0, 74, 0
7, 759584, Note_off_c, 0, 46, 0
7, 760224, Note_off_c, 0, 62, 0
7, 760320, Note_off_c, 0, 82, 0
7, 760320, Note_on_c, 0, 58, 36
7, 760320, Note_on_c, 0, 58, 86
7, 760320, Note_on_c, 0, 62, 8
7, 760321, Note_off_c, 0, 58, 0
7, 763552, Note_off_c, 0, 58, 0
7, 764160, Note_on_c, 0, 70, 43
7, 764160, Note_on_c, 0, 34, 1
7, 764160, Note_on_c, 0, 75, 93
7, 764160, Note_on_c, 0, 50, 9
7, 764640, Note_off_c, 0, 62, 0
7, 767264, Note_off_c, 0, 34, 0
7, 767904, Note_off_c, 0, 50, 0
7, 768000, Note_off_c, 0, 70, 0
7, 768000, Note_off_c, 0, 75, 0
7, 768000, Note_on_c, 0, 58, 94
7, 768000, Note_on_c, 0, 46, 7
7, 768000, Note_on_c, 0, 46, 40
7, 768001, Note_off_c, 0, 46, 0
7, 771232, Note_off_c, 0, 46, 0
7, 771552, Note_off_c, 0, 58, 0
7, 771840, Note_on_c, 0, 58, 9
7, 771840, Note_on_c, 0, 63, 43
7, 771840, Note_on_c, 0, 70, 101
7, 774848, Note_off_c, 0, 70, 0
7, 775680, Note_off_c, 0, 58, 0
7, 775680, Note_off_c, 0, 63, 0
7, 775680, Note_on_c, 0, 34, 8
7, 775680, Note_on_c, 0, 46, 44
7, 775680, Note_on_c, 0, 77, 89
7, 778912, Note_off_c, 0, 34, 0
7, 779232, Note_off_c, 0, 46, 0
7, 779520, Note_on_c, 0, 75, 108
7, 779520, Note_on_c, 0, 51, 9
7, 779520, Note_on_c, 0, 58, 47
7, 780288, Note_off_c, 0, 77, 0
7, 782528, Note_off_c, 0, 58, 0
7, 782816, Note_off_c, 0, 75, 0
7, 783360, Note_off_c, 0, 51, 0
7, 783360, Note_on_c, 0, 34, 9
7, 783360, Note_on_c, 0, 65, 41
7, 783360, Note_on_c, 0, 80, 89
7, 786912, Note_off_c, 0, 34, 0
7, 787200, Note_on_c, 0, 63, 50
7, 787200, Note_on_c, 0, 46, 10
7, 787200, Note_on_c, 0, 79, 94
7, 787520, Note_off_c, 0, 80, 0
7, 787968, Note_off_c, 0, 65, 0
7, 790208, Note_off_c, 0, 46, 0
7, 790496, Note_off_c, 0, 63, 0
7, 791040, Note_on_c, 0, 68, 41
7, 791040, Note_on_c, 0, 75, 86
7, 791040, Note_on_c, 0, 53, 9
7, 791168, Note_off_c, 0, 79, 0
7, 794880, Note_on_c, 0, 51, 11
7, 794880, Note_on_c, 0, 70, 93
7, 794880, Note_on_c, 0, 34, 1
7, 794880, Note_on_c, 0, 67, 44
7, 795200, Note_off_c, 0, 68, 0
7, 795648, Note_off_c, 0, 75, 0
7, 795648, Note_off_c, 0, 53, 0
7, 797888, Note_off_c, 0, 34, 0
7, 798176, Note_off_c, 0, 51, 0
7, 798720, Note_on_c, 0, 63, 40
7, 798720, Note_on_c, 0, 56, 9
7, 798720, Note_on_c, 0, 56, 88
7, 798721, Note_off_c, 0, 56, 0
7, 798848, Note_off_c, 0, 67, 0
7, 799232, Note_off_c, 0, 70, 0
7, 802560, Note_off_c, 0, 63, 0
7, 802560, Note_on_c, 0, 39, 1
7, 802560, Note_on_c, 0, 58, 43
7, 802560, Note_on_c, 0, 63, 103
7, 802560, Note_on_c, 0, 55, 9
7, 802880, Note_off_c, 0, 56, 0
7, 803328, Note_off_c, 0, 63, 0
7, 805856, Note_off_c, 0, 39, 0
7, 806400, Note_on_c, 0, 51, 8
7, 806400, Note_on_c, 0, 72, 85
7, 806400, Note_on_c, 0, 44, 41
7, 806528, Note_off_c, 0, 55, 0
7, 806912, Note_off_c, 0, 58, 0
7, 810240, Note_off_c, 0, 51, 0
7, 810240, Note_off_c, 0, 72, 0
7, 810240, Note_on_c, 0, 46, 9
7, 810240, Note_on_c, 0, 51, 48
7, 810240, Note_on_c, 0, 68, 88
7, 810976, Note_off_c, 0, 44, 0
7, 811008, Note_off_c, 0, 51, 0
7, 814080, Note_on_c, 0, 60, 39
7, 814080, Note_on_c, 0, 72, 85
7, 814080, Note_on_c, 0, 32, 9
7, 814112, Note_off_c, 0, 68, 0
7, 814592, Note_off_c, 0, 46, 0
7, 816768, Note_off_c, 0, 72, 0
7, 817920, Note_off_c, 0, 60, 0
7, 817920, Note_on_c, 0, 56, 41
7, 817920, Note_on_c, 0, 39, 10
7, 817920, Note_on_c, 0, 70, 85
7, 818656, Note_off_c, 0, 32, 0
7, 821280, Note_off_c, 0, 39, 0
7, 821760, Note_off_c, 0, 56, 0
7, 821760, Note_off_c, 0, 70, 0
7, 821760, Note_on_c, 0, 48, 8
7, 821760, Note_on_c, 0, 60, 39
7, 821760, Note_on_c, 0, 56, 79
7, 821792, Note_off_c, 0, 56, 0
7, 824448, Note_off_c, 0, 60, 0
7, 825600, Note_off_c, 0, 48, 0
7, 825600, Note_on_c, 0, 44, 9
7, 825600, Note_on_c, 0, 63, 85
7, 825600, Note_on_c, 0, 58, 39
7, 825600, Note_on_c, 0, 27, 1
7, 828960, Note_off_c, 0, 27, 0
7, 829344, Note_off_c, 0, 63, 0
7, 829440, Note_off_c, 0, 44, 0
7, 829440, Note_off_c, 0, 58, 0
7, 829440, Note_on_c, 0, 72, 88
7, 829440, Note_on_c, 0, 48, 8
7, 829440, Note_on_c, 0, 44, 37
7, 829472, Note_off_c, 0, 44, 0
7, 832128, Note_off_c, 0, 48, 0
7, 832576, Note_off_c, 0, 72, 0
7, 833280, Note_on_c, 0, 51, 39
7, 833280, Note_on_c, 0, 46, 8
7, 833280, Note_on_c, 0, 63, 86
7, 837024, Note_off_c, 0, 51, 0
7, 837120, Note_off_c, 0, 46, 0
7, 837120, Note_on_c, 0, 60, 41
7, 837120, Note_on_c, 0, 72, 69
7, 837120, Note_on_c, 0, 32, 8
7, 837728, Note_off_c, 0, 63, 0
7, 840256, Note_off_c, 0, 60, 0
7, 840960, Note_on_c, 0, 39, 8
7, 840960, Note_on_c, 0, 70, 86
7, 840960, Note_on_c, 0, 51, 40
7, 841280, Note_off_c, 0, 72, 0
7, 841824, Note_off_c, 0, 32, 0
7, 844704, Note_off_c, 0, 39, 0
7, 844800, Note_off_c, 0, 70, 0
7, 844800, Note_on_c, 0, 48, 9
7, 844800, Note_on_c, 0, 60, 32
7, 844800, Note_on_c, 0, 60, 68
7, 844801, Note_off_c, 0, 60, 0
7, 845408, Note_off_c, 0, 51, 0
7, 847936, Note_off_c, 0, 48, 0
7, 848224, Note_off_c, 0, 60, 0
7, 848640, Note_on_c, 0, 75, 89
7, 848640, Note_on_c, 0, 58, 40
7, 848640, Note_on_c, 0, 39, 8
7, 852480, Note_off_c, 0, 58, 0
7, 852480, Note_on_c, 0, 77, 85
7, 852480, Note_on_c, 0, 48, 7
7, 852480, Note_on_c, 0, 48, 31
7, 852481, Note_off_c, 0, 48, 0
7, 852512, Note_off_c, 0, 75, 0
7, 853088, Note_off_c, 0, 39, 0
7, 855904, Note_off_c, 0, 48, 0
7, 856320, Note_on_c, 0, 63, 41
7, 856320, Note_on_c, 0, 46, 8
7, 856320, Note_on_c, 0, 75, 88
7, 856544, Note_off_c, 0, 77, 0
7, 859904, Note_off_c, 0, 75, 0
7, 860160, Note_off_c, 0, 63, 0
7, 860160, Note_off_c, 0, 46, 0
7, 860160, Note_on_c, 0, 58, 85
7, 860160, Note_on_c, 0, 63, 39
7, 860160, Note_on_c, 0, 36, 6
7, 863584, Note_off_c, 0, 36, 0
7, 863616, Note_off_c, 0, 58, 0
7, 864000, Note_on_c, 0, 70, 99
7, 864000, Note_on_c, 0, 65, 41
7, 864000, Note_on_c, 0, 44, 9
7, 864224, Note_off_c, 0, 63, 0
7, 867104, Note_off_c, 0, 70, 0
7, 867584, Note_off_c, 0, 65, 0
7, 867840, Note_on_c, 0, 46, 39
7, 867840, Note_on_c, 0, 51, 8
7, 867840, Note_on_c, 0, 86, 85
7, 867872, Note_off_c, 0, 44, 0
7, 871296, Note_off_c, 0, 46, 0
7, 871680, Note_on_c, 0, 74, 89
7, 871680, Note_on_c, 0, 58, 46
7, 871680, Note_on_c, 0, 53, 9
7, 871904, Note_off_c, 0, 51, 0
7, 872160, Note_off_c, 0, 86, 0
7, 874784, Note_off_c, 0, 58, 0
7, 875264, Note_off_c, 0, 53, 0
7, 875424, Note_off_c, 0, 74, 0
7, 875520, Note_on_c, 0, 34, 8
7, 875520, Note_on_c, 0, 70, 78
7, 875520, Note_on_c, 0, 74, 39
7, 878976, Note_off_c, 0, 34, 0
7, 879360, Note_on_c, 0, 62, 41
7, 879360, Note_on_c, 0, 46, 10
7, 879360, Note_on_c, 0, 82, 93
7, 879424, Note_off_c, 0, 70, 0
7, 879840, Note_off_c, 0, 74, 0
7, 882464, Note_off_c, 0, 46, 0
7, 883104, Note_off_c, 0, 62, 0
7, 883200, Note_off_c, 0, 82, 0
7, 883200, Note_on_c, 0, 58, 36
7, 883200, Note_on_c, 0, 58, 86
7, 883200, Note_on_c, 0, 62, 8
7, 883201, Note_off_c, 0, 58, 0
7, 886432, Note_off_c, 0, 58, 0
7, 887040, Note_on_c, 0, 70, 43
7, 887040, Note_on_c, 0, 34, 1
7, 887040, Note_on_c, 0, 75, 93
7, 887040, Note_on_c, 0, 50, 9
7, 887520, Note_off_c, 0, 62, 0
7, 890144, Note_off_c, 0, 34, 0
7, 890784, Note_off_c, 0, 50, 0
7, 890880, Note_off_c, 0, 70, 0
7, 890880, Note_off_c, 0, 75, 0
7, 890880, Note_on_c, 0, 58, 94
7, 890880, Note_on_c, 0, 46, 7
7, 890880, Note_on_c, 0, 46, 40
7, 890881, Note_off_c, 0, 46, 0
7, 894112, Note_off_c, 0, 46, 0
7, 894432, Note_off_c, 0, 58, 0
7, 894720, Note_on_c, 0, 58, 9
7, 894720, Note_on_c, 0, 63, 43
7, 894720, Note_on_c, 0, 70, 101
7, 897728, Note_off_c, 0, 70, 0
7, 898560, Note_off_c, 0, 58, 0
7, 898560, Note_off_c, 0, 63, 0
7, 898560, Note_on_c, 0, 34, 8
7, 898560, Note_on_c, 0, 46, 44
7, 898560, Note_on_c, 0, 77, 89
7, 901792, Note_off_c, 0, 34, 0
7, 902112, Note_off_c, 0, 46, 0
7, 902400, Note_on_c, 0, 75, 108
7, 902400, Note_on_c, 0, 51, 9
7, 902400, Note_on_c, 0, 58, 47
7, 903168, Note_off_c, 0, 77, 0
7, 905408, Note_off_c, 0, 58, 0
7, 905696, Note_off_c, 0, 75, 0
7, 906240, Note_off_c, 0, 51, 0
7, 906240, Note_on_c, 0, 34, 9
7, 906240, Note_on_c, 0, 65, 41
7, 906240, Note_on_c, 0, 80, 89
7, 909792, Note_off_c, 0, 34, 0
7, 910080, Note_on_c, 0, 63, 50
7, 910080, Note_on_c, 0, 46, 10
7, 910080, Note_on_c, 0, 79, 94
7, 910400, Note_off_c, 0, 80, 0
7, 910848, Note_off_c, 0, 65, 0
7, 913088, Note_off_c, 0, 46, 0
7, 913376, Note_off_c, 0, 63, 0
7, 913920, Note_on_c, 0, 68, 41
7, 913920, Note_on_c, 0, 75, 86
7, 913920, Note_on_c, 0, 53, 9
7, 914048, Note_off_c, 0, 79, 0
7, 917760, Note_on_c, 0, 51, 11
7, 917760, Note_on_c, 0, 70, 93
7, 917760, Note_on_c, 0, 34, 1
7, 917760, Note_on_c, 0, 67, 44
7, 918080, Note_off_c, 0, 68, 0
7, 918528, Note_off_c, 0, 75, 0
7, 918528, Note_off_c, 0, 53, 0
7, 920768, Note_off_c, 0, 34, 0
7, 921056, Note_off_c, 0, 51, 0
7, 921600, Note_on_c, 0, 63, 40
7, 921600, Note_on_c, 0, 56, 9
7, 921600, Note_on_c, 0, 56, 88
7, 921601, Note_off_c, 0, 56, 0
7, 921728, Note_off_c, 0, 67, 0
7, 922112, Note_off_c, 0, 70, 0
7, 925440, Note_off_c, 0, 63, 0
7, 925440, Note_on_c, 0, 39, 1
7, 925440, Note_on_c, 0, 58, 43
7, 925440, Note_on_c, 0, 63, 103
7, 925440, Note_on_c, 0, 55, 9
7, 925760, Note_off_c, 0, 56, 0
7, 926208, Note_off_c, 0, 63, 0
7, 928736, Note_off_c, 0, 39, 0
7, 929280, Note_on_c, 0, 51, 8
7, 929280, Note_on_c, 0, 72, 85
7, 929280, Note_on_c, 0, 44, 41
7, 929408, Note_off_c, 0, 55, 0
7, 929792, Note_off_c, 0, 58, 0
7, 933120, Note_off_c, 0, 51, 0
7, 933120, Note_off_c, 0, 72, 0
7, 933120, Note_on_c, 0, 46, 9
7, 933120, Note_on_c, 0, 51, 48
7, 933120, Note_on_c, 0, 68, 88
7, 933856, Note_off_c, 0, 44, 0
7, 933888, Note_off_c, 0, 51, 0
7, 936960, Note_on_c, 0, 60, 39
7, 936960, Note_on_c, 0, 72, 85
7, 936960, Note_on_c, 0, 32, 9
7, 936992, Note_off_c, 0, 68, 0
7, 937472, Note_off_c, 0, 46, 0
7, 939648, Note_off_c, 0, 72, 0
7, 940800, Note_off_c, 0, 60, 0
7, 940800, Note_on_c, 0, 56, 41
7, 940800, Note_on_c, 0, 39, 10
7, 940800, Note_on_c, 0, 70, 85
7, 941536, Note_off_c, 0, 32, 0
7, 944160, Note_off_c, 0, 39, 0
7, 944640, Note_off_c, 0, 56, 0
7, 944640, Note_off_c, 0, 70, 0
7, 944640, Note_on_c, 0, 48, 8
7, 944640, Note_on_c, 0, 60, 39
7, 944640, Note_on_c, 0, 56, 79
7, 944672, Note_off_c, 0, 56, 0
7, 947328, Note_off_c, 0, 60, 0
7, 948480, Note_off_c, 0, 48, 0
7, 948480, Note_on_c, 0, 44, 9
7, 948480, Note_on_c, 0, 63, 85
7, 948480, Note_on_c, 0, 58, 39
7, 948480, Note_on_c, 0, 27, 1
7, 951840, Note_off_c, 0, 27, 0
7, 952224, Note_off_c, 0, 63, 0
7, 952320, Note_off_c, 0, 44, 0
7, 952320, Note_off_c, 0, 58, 0
7, 952320, Note_on_c, 0, 72, 88
7, 952320, Note_on_c, 0, 48, 8
7, 952320, Note_on_c, 0, 44, 37
7, 952352, Note_off_c, 0, 44, 0
7, 955008, Note_off_c, 0, 48, 0
7, 955456, Note_off_c, 0, 72, 0
7, 956160, Note_on_c, 0, 51, 39
7, 956160, Note_on_c, 0, 46, 8
7, 956160, Note_on_c, 0, 63, 86
7, 959904, Note_off_c, 0, 51, 0
7, 960000, Note_off_c, 0, 46, 0
7, 960000, Note_on_c, 0, 60, 41
7, 960000, Note_on_c, 0, 72, 69
7, 960000, Note_on_c, 0, 32, 8
7, 960608, Note_off_c, 0, 63, 0
7, 963136, Note_off_c, 0, 60, 0
7, 963840, Note_on_c, 0, 39, 8
7, 963840, Note_on_c, 0, 51, 40
7, 963840, Note_on_c, 0, 70, 86
7, 964160, Note_off_c, 0, 72, 0
7, 964704, Note_off_c, 0, 32, 0
7, 967584, Note_off_c, 0, 39, 0
7, 967680, Note_off_c, 0, 70, 0
7, 967680, Note_on_c, 0, 48, 9
7, 967680, Note_on_c, 0, 60, 32
7, 967680, Note_on_c, 0, 60, 68
7, 967681, Note_off_c, 0, 60, 0
7, 968288, Note_off_c, 0, 51, 0
7, 970816, Note_off_c, 0, 48, 0
7, 971104, Note_off_c, 0, 60, 0
7, 971520, Note_on_c, 0, 75, 89
7, 971520, Note_on_c, 0, 58, 40
7, 971520, Note_on_c, 0, 39, 8
7, 975360, Note_off_c, 0, 58, 0
7, 975360, Note_on_c, 0, 77, 85
7, 975360, Note_on_c, 0, 48, 7
7, 975360, Note_on_c, 0, 48, 31
7, 975361, Note_off_c, 0, 48, 0
7, 975392, Note_off_c, 0, 75, 0
7, 975968, Note_off_c, 0, 39, 0
7, 978784, Note_off_c, 0, 48, 0
7, 979200, Note_on_c, 0, 63, 41
7, 979200, Note_on_c, 0, 46, 8
7, 979200, Note_on_c, 0, 75, 88
7, 979424, Note_off_c, 0, 77, 0
7, 982784, Note_off_c, 0, 75, 0
7, 983040, Note_off_c, 0, 46, 0
7, 983040, Note_on_c, 0, 58, 85
7, 983040, Note_on_c, 0, 65, 39
7, 983040, Note_on_c, 0, 36, 6
7, 983072, Note_off_c, 0, 63, 0
7, 986464, Note_off_c, 0, 36, 0
7, 986496, Note_off_c, 0, 58, 0
7, 986880, Note_on_c, 0, 51, 9
7, 986880, Note_on_c, 0, 70, 99
7, 986880, Note_on_c, 0, 63, 41
7, 987104, Note_off_c, 0, 65, 0
7, 989984, Note_off_c, 0, 70, 0
7, 990464, Note_off_c, 0, 63, 0
7, 990720, Note_on_c, 0, 46, 39
7, 990720, Note_on_c, 0, 53, 8
7, 990720, Note_on_c, 0, 86, 85
7, 990752, Note_off_c, 0, 51, 0
7, 994176, Note_off_c, 0, 46, 0
7, 994560, Note_on_c, 0, 58, 46
7, 994560, Note_on_c, 0, 58, 89
7, 994560, Note_on_c, 0, 51, 9
7, 994561, Note_off_c, 0, 58, 0
7, 994784, Note_off_c, 0, 53, 0
7, 995040, Note_off_c, 0, 86, 0
7, 997664, Note_off_c, 0, 58, 0
7, 998144, Note_off_c, 0, 51, 0
7, 998400, Note_on_c, 0, 34, 8
7, 998400, Note_on_c, 0, 70, 78
7, 998400, Note_on_c, 0, 74, 39
7, 1001856, Note_off_c, 0, 34, 0
7, 1002240, Note_on_c, 0, 46, 10
7, 1002240, Note_on_c, 0, 46, 41
7, 1002240, Note_on_c, 0, 82, 93
7, 1002241, Note_off_c, 0, 46, 0
7, 1002304, Note_off_c, 0, 70, 0
7, 1002720, Note_off_c, 0, 74, 0
7, 1005344, Note_off_c, 0, 46, 0
7, 1006080, Note_off_c, 0, 82, 0
7, 1006080, Note_on_c, 0, 58, 36
7, 1006080, Note_on_c, 0, 58, 86
7, 1006080, Note_on_c, 0, 62, 8
7, 1006081, Note_off_c, 0, 58, 0
7, 1009312, Note_off_c, 0, 58, 0
7, 1009920, Note_on_c, 0, 70, 43
7, 1009920, Note_on_c, 0, 34, 1
7, 1009920, Note_on_c, 0, 34, 9
7, 1009920, Note_on_c, 0, 75, 93
7, 1009921, Note_off_c, 0, 34, 0
7, 1010400, Note_off_c, 0, 62, 0
7, 1013024, Note_off_c, 0, 34, 0
7, 1013760, Note_off_c, 0, 70, 0
7, 1013760, Note_off_c, 0, 75, 0
7, 1013760, Note_on_c, 0, 58, 94
7, 1013760, Note_on_c, 0, 46, 7
7, 1013760, Note_on_c, 0, 46, 40
7, 1013761, Note_off_c, 0, 46, 0
7, 1016992, Note_off_c, 0, 46, 0
7, 1017312, Note_off_c, 0, 58, 0
7, 1017600, Note_on_c, 0, 58, 9
7, 1017600, Note_on_c, 0, 63, 43
7, 1017600, Note_on_c, 0, 70, 101
7, 1020608, Note_off_c, 0, 70, 0
7, 1021440, Note_off_c, 0, 58, 0
7, 1021440, Note_off_c, 0, 63, 0
7, 1021440, Note_on_c, 0, 34, 8
7, 1021440, Note_on_c, 0, 77, 89
7, 1021440, Note_on_c, 0, 46, 44
7, 1024672, Note_off_c, 0, 34, 0
7, 1024992, Note_off_c, 0, 46, 0
7, 1025280, Note_on_c, 0, 51, 9
7, 1025280, Note_on_c, 0, 75, 108
7, 1025280, Note_on_c, 0, 58, 47
7, 1026048, Note_off_c, 0, 77, 0
7, 1028288, Note_off_c, 0, 58, 0
7, 1028576, Note_off_c, 0, 75, 0
7, 1029120, Note_off_c, 0, 51, 0
7, 1029120, Note_on_c, 0, 65, 41
7, 1029120, Note_on_c, 0, 77, 89
7, 1029120, Note_on_c, 0, 34, 9
7, 1032672, Note_off_c, 0, 34, 0
7, 1032960, Note_on_c, 0, 63, 50
7, 1032960, Note_on_c, 0, 46, 10
7, 1032960, Note_on_c, 0, 82, 94
7, 1033280, Note_off_c, 0, 77, 0
7, 1033728, Note_off_c, 0, 65, 0
7, 1035968, Note_off_c, 0, 46, 0
7, 1036256, Note_off_c, 0, 63, 0
7, 1036800, Note_on_c, 0, 53, 9
7, 1036800, Note_on_c, 0, 65, 41
7, 1036800, Note_on_c, 0, 77, 86
7, 1036928, Note_off_c, 0, 82, 0
7, 1040640, Note_on_c, 0, 51, 11
7, 1040640, Note_on_c, 0, 70, 44
7, 1040640, Note_on_c, 0, 75, 93
7, 1040640, Note_on_c, 0, 34, 1
7, 1040960, Note_off_c, 0, 65, 0
7, 1041408, Note_off_c, 0, 53, 0
7, 1041408, Note_off_c, 0, 77, 0
7, 1043648, Note_off_c, 0, 34, 0
7, 1043936, Note_off_c, 0, 51, 0
7, 1044480, Note_on_c, 0, 53, 9
7, 1044480, Note_on_c, 0, 56, 88
7, 1044480, Note_on_c, 0, 65, 40
7, 1044608, Note_off_c, 0, 70, 0
7, 1044992, Note_off_c, 0, 75, 0
7, 1048320, Note_on_c, 0, 39, 1
7, 1048320, Note_on_c, 0, 58, 9
7, 1048320, Note_on_c, 0, 63, 43
7, 1048320, Note_on_c, 0, 63, 103
7, 1048321, Note_off_c, 0, 63, 0
7, 1048640, Note_off_c, 0, 53, 0
7, 1049056, Note_off_c, 0, 56, 0
7, 1049088, Note_off_c, 0, 65, 0
7, 1051616, Note_off_c, 0, 39, 0
7, 1051680, Note_off_c, 0, 63, 0
7, 1052160, Note_on_c, 0, 72, 85
7, 1052160, Note_on_c, 0, 44, 41
7, 1052160, Note_on_c, 0, 53, 8
7, 1052288, Note_off_c, 0, 58, 0
7, 1056000, Note_off_c, 0, 72, 0
7, 1056000, Note_on_c, 0, 51, 9
7, 1056000, Note_on_c, 0, 51, 48
7, 1056000, Note_on_c, 0, 70, 88
7, 1056001, Note_off_c, 0, 51, 0
7, 1056736, Note_off_c, 0, 44, 0
7, 1056768, Note_off_c, 0, 53, 0
7, 1059360, Note_off_c, 0, 51, 0
7, 1059840, Note_on_c, 0, 60, 39
7, 1059840, Note_on_c, 0, 72, 85
7, 1059840, Note_on_c, 0, 32, 9
7, 1059872, Note_off_c, 0, 70, 0
7, 1062528, Note_off_c, 0, 72, 0
7, 1063680, Note_off_c, 0, 60, 0
7, 1063680, Note_on_c, 0, 39, 10
7, 1063680, Note_on_c, 0, 58, 41
7, 1063680, Note_on_c, 0, 75, 85
7, 1064416, Note_off_c, 0, 32, 0
7, 1067040, Note_off_c, 0, 39, 0
7, 1067520, Note_off_c, 0, 75, 0
7, 1067520, Note_on_c, 0, 63, 79
7, 1067520, Note_on_c, 0, 48, 8
7, 1067520, Note_on_c, 0, 60, 39
7, 1067552, Note_off_c, 0, 58, 0
7, 1070208, Note_off_c, 0, 60, 0
7, 1071360, Note_off_c, 0, 63, 0
7, 1071360, Note_off_c, 0, 48, 0
7, 1071360, Note_on_c, 0, 63, 39
7, 1071360, Note_on_c, 0, 56, 85
7, 1071360, Note_on_c, 0, 46, 9
7, 1071360, Note_on_c, 0, 27, 1
7, 1072224, Note_off_c, 0, 63, 0
7, 1074720, Note_off_c, 0, 27, 0
7, 1075104, Note_off_c, 0, 56, 0
7, 1075200, Note_on_c, 0, 51, 37
7, 1075200, Note_on_c, 0, 48, 8
7, 1075200, Note_on_c, 0, 63, 88
7, 1075232, Note_off_c, 0, 46, 0
7, 1077888, Note_off_c, 0, 48, 0
7, 1078336, Note_off_c, 0, 63, 0
7, 1079040, Note_off_c, 0, 51, 0
7, 1079040, Note_on_c, 0, 51, 8
7, 1079040, Note_on_c, 0, 44, 39
7, 1079040, Note_on_c, 0, 68, 86
7, 1079904, Note_off_c, 0, 51, 0
7, 1082784, Note_off_c, 0, 44, 0
7, 1082880, Note_on_c, 0, 39, 8
7, 1082880, Note_on_c, 0, 51, 41
7, 1082880, Note_on_c, 0, 72, 69
7, 1083488, Note_off_c, 0, 68, 0
7, 1086016, Note_off_c, 0, 51, 0
7, 1086720, Note_on_c, 0, 56, 40
7, 1086720, Note_on_c, 0, 70, 86
7, 1086720, Note_on_c, 0, 32, 8
7, 1087040, Note_off_c, 0, 72, 0
7, 1087584, Note_off_c, 0, 39, 0
7, 1090464, Note_off_c, 0, 32, 0
7, 1090560, Note_off_c, 0, 70, 0
7, 1090560, Note_on_c, 0, 39, 9
7, 1090560, Note_on_c, 0, 60, 32
7, 1090560, Note_on_c, 0, 60, 68
7, 1090561, Note_off_c, 0, 60, 0
7, 1091168, Note_off_c, 0, 56, 0
7, 1093696, Note_off_c, 0, 39, 0
7, 1093984, Note_off_c, 0, 60, 0
7, 1094400, Note_on_c, 0, 58, 40
7, 1094400, Note_on_c, 0, 44, 8
7, 1094400, Note_on_c, 0, 68, 89
7, 1098240, Note_off_c, 0, 58, 0
7, 1098240, Note_on_c, 0, 75, 85
7, 1098240, Note_on_c, 0, 48, 7
7, 1098240, Note_on_c, 0, 48, 31
7, 1098241, Note_off_c, 0, 48, 0
7, 1098272, Note_off_c, 0, 68, 0
7, 1098848, Note_off_c, 0, 44, 0
7, 1101664, Note_off_c, 0, 48, 0
7, 1102080, Note_on_c, 0, 46, 8
7, 1102080, Note_on_c, 0, 77, 88
7, 1102080, Note_on_c, 0, 56, 41
7, 1102304, Note_off_c, 0, 75, 0
7, 1105664, Note_off_c, 0, 77, 0
7, 1105920, Note_off_c, 0, 46, 0
7, 1105920, Note_on_c, 0, 58, 85
7, 1105920, Note_on_c, 0, 63, 39
7, 1105920, Note_on_c, 0, 36, 6
7, 1105952, Note_off_c, 0, 56, 0
7, 1109344, Note_off_c, 0, 36, 0
7, 1109376, Note_off_c, 0, 58, 0
7, 1109760, Note_on_c, 0, 70, 99
7, 1109760, Note_on_c, 0, 65, 41
7, 1109760, Note_on_c, 0, 44, 9
7, 1109984, Note_off_c, 0, 63, 0
7, 1112864, Note_off_c, 0, 70, 0
7, 1113344, Note_off_c, 0, 65, 0
7, 1113600, Note_on_c, 0, 46, 39
7, 1113600, Note_on_c, 0, 51, 8
7, 1113600, Note_on_c, 0, 86, 85
7, 1113632, Note_off_c, 0, 44, 0
7, 1117056, Note_off_c, 0, 46, 0
7, 1117440, Note_on_c, 0, 74, 89
7, 1117440, Note_on_c, 0, 58, 46
7, 1117440, Note_on_c, 0, 53, 9
7, 1117664, Note_off_c, 0, 51, 0
7, 1117920, Note_off_c, 0, 86, 0
7, 1120544, Note_off_c, 0, 58, 0
7, 1121024, Note_off_c, 0, 53, 0
7, 1121184, Note_off_c, 0, 74, 0
7, 1121280, Note_on_c, 0, 34, 8
7, 1121280, Note_on_c, 0, 70, 78
7, 1121280, Note_on_c, 0, 74, 39
7, 1124736, Note_off_c, 0, 34, 0
7, 1125120, Note_on_c, 0, 62, 41
7, 1125120, Note_on_c, 0, 46, 10
7, 1125120, Note_on_c, 0, 82, 93
7, 1125184, Note_off_c, 0, 70, 0
7, 1125600, Note_off_c, 0, 74, 0
7, 1128224, Note_off_c, 0, 46, 0
7, 1128864, Note_off_c, 0, 62, 0
7, 1128960, Note_off_c, 0, 82, 0
7, 1128960, Note_on_c, 0, 58, 36
7, 1128960, Note_on_c, 0, 58, 86
7, 1128960, Note_on_c, 0, 62, 8
7, 1128961, Note_off_c, 0, 58, 0
7, 1132192, Note_off_c, 0, 58, 0
7, 1132800, Note_on_c, 0, 70, 43
7, 1132800, Note_on_c, 0, 34, 1
7, 1132800, Note_on_c, 0, 75, 93
7, 1132800, Note_on_c, 0, 50, 9
7, 1133280, Note_off_c, 0, 62, 0
7, 1135904, Note_off_c, 0, 34, 0
7, 1136544, Note_off_c, 0, 50, 0
7, 1136640, Note_off_c, 0, 70, 0
7, 1136640, Note_off_c, 0, 75, 0
7, 1136640, Note_on_c, 0, 58, 94
7, 1136640, Note_on_c, 0, 46, 7
7, 1136640, Note_on_c, 0, 46, 40
7, 1136641, Note_off_c, 0, 46, 0
7, 1139872, Note_off_c, 0, 46, 0
7, 1140192, Note_off_c, 0, 58, 0
7, 1140480, Note_on_c, 0, 58, 9
7, 1140480, Note_on_c, 0, 63, 43
7, 1140480, Note_on_c, 0, 70, 101
7, 1143488, Note_off_c, 0, 70, 0
7, 1144320, Note_off_c, 0, 58, 0
7, 1144320, Note_off_c, 0, 63, 0
7, 1144320, Note_on_c, 0, 34, 8
7, 1144320, Note_on_c, 0, 46, 44
7, 1144320, Note_on_c, 0, 77, 89
7, 1147552, Note_off_c, 0, 34, 0
7, 1147872, Note_off_c, 0, 46, 0
7, 1148160, Note_on_c, 0, 75, 108
7, 1148160, Note_on_c, 0, 51, 9
7, 1148160, Note_on_c, 0, 58, 47
7, 1148928, Note_off_c, 0, 77, 0
7, 1151168, Note_off_c, 0, 58, 0
7, 1151456, Note_off_c, 0, 75, 0
7, 1152000, Note_off_c, 0, 51, 0
7, 1152000, Note_on_c, 0, 34, 9
7, 1152000, Note_on_c, 0, 65, 41
7, 1152000, Note_on_c, 0, 80, 89
7, 1155552, Note_off_c, 0, 34, 0
7, 1155840, Note_on_c, 0, 63, 50
7, 1155840, Note_on_c, 0, 46, 10
7, 1155840, Note_on_c, 0, 79, 94
7, 1156160, Note_off_c, 0, 80, 0
7, 1156608, Note_off_c, 0, 65, 0
7, 1158848, Note_off_c, 0, 46, 0
7, 1159136, Note_off_c, 0, 63, 0
7, 1159680, Note_on_c, 0, 68, 41
7, 1159680, Note_on_c, 0, 75, 86
7, 1159680, Note_on_c, 0, 53, 9
7, 1159808, Note_off_c, 0, 79, 0
7, 1163520, Note_on_c, 0, 51, 11
7, 1163520, Note_on_c, 0, 70, 93
7, 1163520, Note_on_c, 0, 34, 1
7, 1163520, Note_on_c, 0, 67, 44
7, 1163840, Note_off_c, 0, 68, 0
7, 1164288, Note_off_c, 0, 75, 0
7, 1164288, Note_off_c, 0, 53, 0
7, 1166528, Note_off_c, 0, 34, 0
7, 1166816, Note_off_c, 0, 51, 0
7, 1167360, Note_on_c, 0, 63, 40
7, 1167360, Note_on_c, 0, 56, 9
7, 1167360, Note_on_c, 0, 56, 88
7, 1167361, Note_off_c, 0, 56, 0
7, 1167488, Note_off_c, 0, 67, 0
7, 1167872, Note_off_c, 0, 70, 0
7, 1171200, Note_off_c, 0, 63, 0
7, 1171200, Note_on_c, 0, 39, 1
7, 1171200, Note_on_c, 0, 58, 43
7, 1171200, Note_on_c, 0, 63, 103
7, 1171200, Note_on_c, 0, 55, 9
7, 1171520, Note_off_c, 0, 56, 0
7, 1171968, Note_off_c, 0, 63, 0
7, 1174496, Note_off_c, 0, 39, 0
7, 1175040, Note_on_c, 0, 51, 8
7, 1175040, Note_on_c, 0, 72, 85
7, 1175040, Note_on_c, 0, 44, 41
7, 1175168, Note_off_c, 0, 55, 0
7, 1175552, Note_off_c, 0, 58, 0
7, 1178880, Note_off_c, 0, 51, 0
7, 1178880, Note_off_c, 0, 72, 0
7, 1178880, Note_on_c, 0, 46, 9
7, 1178880, Note_on_c, 0, 51, 48
7, 1178880, Note_on_c, 0, 68, 88
7, 1179616, Note_off_c, 0, 44, 0
7, 1179648, Note_off_c, 0, 51, 0
7, 1182720, Note_on_c, 0, 60, 39
7, 1182720, Note_on_c, 0, 72, 85
7, 1182720, Note_on_c, 0, 32, 9
7, 1182752, Note_off_c, 0, 68, 0
7, 1183232, Note_off_c, 0, 46, 0
7, 1185408, Note_off_c, 0, 72, 0
7, 1186560, Note_off_c, 0, 60, 0
7, 1186560, Note_on_c, 0, 56, 41
7, 1186560, Note_on_c, 0, 39, 10
7, 1186560, Note_on_c, 0, 70, 85
7, 1187296, Note_off_c, 0, 32, 0
7, 1189920, Note_off_c, 0, 39, 0
7, 1190400, Note_off_c, 0, 56, 0
7, 1190400, Note_off_c, 0, 70, 0
7, 1190400, Note_on_c, 0, 48, 8
7, 1190400, Note_on_c, 0, 60, 39
7, 1190400, Note_on_c, 0, 56, 79
7, 1190432, Note_off_c, 0, 56, 0
7, 1193088, Note_off_c, 0, 60, 0
7, 1194240, Note_off_c, 0, 48, 0
7, 1194240, Note_on_c, 0, 44, 9
7, 1194240, Note_on_c, 0, 63, 85
7, 1194240, Note_on_c, 0, 58, 39
7, 1194240, Note_on_c, 0, 27, 1
7, 1197600, Note_off_c, 0, 27, 0
7, 1197984, Note_off_c, 0, 63, 0
7, 1198080, Note_off_c, 0, 44, 0
7, 1198080, Note_off_c, 0, 58, 0
7, 1198080, Note_on_c, 0, 72, 88
7, 1198080, Note_on_c, 0, 48, 8
7, 1198080, Note_on_c, 0, 44, 37
7, 1198112, Note_off_c, 0, 44, 0
7, 1200768, Note_off_c, 0, 48, 0
7, 1201216, Note_off_c, 0, 72, 0
7, 1201920, Note_on_c, 0, 51, 39
7, 1201920, Note_on_c, 0, 46, 8
7, 1201920, Note_on_c, 0, 63, 86
7, 1205664, Note_off_c, 0, 51, 0
7, 1205760, Note_off_c, 0, 46, 0
7, 1205760, Note_on_c, 0, 60, 41
7, 1205760, Note_on_c, 0, 72, 69
7, 1205760, Note_on_c, 0, 32, 8
7, 1206368, Note_off_c, 0, 63, 0
7, 1208896, Note_off_c, 0, 60, 0
7, 1209600, Note_on_c, 0, 39, 8
7, 1209600, Note_on_c, 0, 70, 86
7, 1209600, Note_on_c, 0, 51, 40
7, 1209920, Note_off_c, 0, 72, 0
7, 1210464, Note_off_c, 0, 32, 0
7, 1213344, Note_off_c, 0, 39, 0
7, 1213440, Note_off_c, 0, 70, 0
7, 1213440, Note_on_c, 0, 48, 9
7, 1213440, Note_on_c, 0, 60, 32
7, 1213440, Note_on_c, 0, 60, 68
7, 1213441, Note_off_c, 0, 60, 0
7, 1214048, Note_off_c, 0, 51, 0
7, 1216576, Note_off_c, 0, 48, 0
7, 1216864, Note_off_c, 0, 60, 0
7, 1217280, Note_on_c, 0, 75, 89
7, 1217280, Note_on_c, 0, 58, 40
7, 1217280, Note_on_c, 0, 39, 8
7, 1221120, Note_off_c, 0, 58, 0
7, 1221120, Note_on_c, 0, 77, 85
7, 1221120, Note_on_c, 0, 48, 7
7, 1221120, Note_on_c, 0, 48, 31
7, 1221121, Note_off_c, 0, 48, 0
7, 1221152, Note_off_c, 0, 75, 0
7, 1221728, Note_off_c, 0, 39, 0
7, 1224544, Note_off_c, 0, 48, 0
7, 1224960, Note_on_c, 0, 63, 41
7, 1224960, Note_on_c, 0, 46, 8
7, 1224960, Note_on_c, 0, 75, 88
7, 1225184, Note_off_c, 0, 77, 0
7, 1228544, Note_off_c, 0, 75, 0
7, 1228800, Note_off_c, 0, 63, 0
7, 1228800, Note_off_c, 0, 46, 0
7, 1228800, Note_on_c, 0, 58, 85
7, 1228800, Note_on_c, 0, 63, 39
7, 1228800, Note_on_c, 0, 36, 6
7, 1232224, Note_off_c, 0, 36, 0
7, 1232256, Note_off_c, 0, 58, 0
7, 1232640, Note_on_c, 0, 70, 99
7, 1232640, Note_on_c, 0, 65, 41
7, 1232640, Note_on_c, 0, 44, 9
7, 1232864, Note_off_c, 0, 63, 0
7, 1235744, Note_off_c, 0, 70, 0
7, 1236224, Note_off_c, 0, 65, 0
7, 1236480, Note_on_c, 0, 46, 39
7, 1236480, Note_on_c, 0, 51, 8
7, 1236480, Note_on_c, 0, 86, 85
7, 1236512, Note_off_c, 0, 44, 0
7, 1239936, Note_off_c, 0, 46, 0
7, 1240320, Note_on_c, 0, 74, 89
7, 1240320, Note_on_c, 0, 58, 46
7, 1240320, Note_on_c, 0, 53, 9
7, 1240544, Note_off_c, 0, 51, 0
7, 1240800, Note_off_c, 0, 86, 0
7, 1243424, Note_off_c, 0, 58, 0
7, 1243904, Note_off_c, 0, 53, 0
7, 1244064, Note_off_c, 0, 74, 0
7, 1244160, Note_on_c, 0, 34, 8
7, 1244160, Note_on_c, 0, 70, 78
7, 1244160, Note_on_c, 0, 74, 39
7, 1247616, Note_off_c, 0, 34, 0
7, 1248000, Note_on_c, 0, 62, 41
7, 1248000, Note_on_c, 0, 46, 10
7, 1248000, Note_on_c, 0, 82, 93
7, 1248064, Note_off_c, 0, 70, 0
7, 1248480, Note_off_c, 0, 74, 0
7, 1251104, Note_off_c, 0, 46, 0
7, 1251744, Note_off_c, 0, 62, 0
7, 1251840, Note_off_c, 0, 82, 0
7, 1251840, Note_on_c, 0, 58, 36
7, 1251840, Note_on_c, 0, 58, 86
7, 1251840, Note_on_c, 0, 62, 8
7, 1251841, Note_off_c, 0, 58, 0
7, 1255072, Note_off_c, 0, 58, 0
7, 1255680, Note_on_c, 0, 70, 43
7, 1255680, Note_on_c, 0, 34, 1
7, 1255680, Note_on_c, 0, 75, 93
7, 1255680, Note_on_c, 0, 50, 9
7, 1256160, Note_off_c, 0, 62, 0
7, 1258784, Note_off_c, 0, 34, 0
7, 1259424, Note_off_c, 0, 50, 0
7, 1259520, Note_off_c, 0, 70, 0
7, 1259520, Note_off_c, 0, 75, 0
7, 1259520, Note_on_c, 0, 58, 94
7, 1259520, Note_on_c, 0, 46, 7
7, 1259520, Note_on_c, 0, 46, 40
7, 1259521, Note_off_c, 0, 46, 0
7, 1262752, Note_off_c, 0, 46, 0
7, 1263072, Note_off_c, 0, 58, 0
7, 1263360, Note_on_c, 0, 58, 9
7, 1263360, Note_on_c, 0, 63, 43
7, 1263360, Note_on_c, 0, 70, 101
7, 1266368, Note_off_c, 0, 70, 0
7, 1267200, Note_off_c, 0, 58, 0
7, 1267200, Note_off_c, 0, 63, 0
7, 1267200, Note_on_c, 0, 34, 8
7, 1267200, Note_on_c, 0, 46, 44
7, 1267200, Note_on_c, 0, 77, 89
7, 1270432, Note_off_c, 0, 34, 0
7, 1270752, Note_off_c, 0, 46, 0
7, 1271040, Note_on_c, 0, 75, 108
7, 1271040, Note_on_c, 0, 51, 9
7, 1271040, Note_on_c, 0, 58, 47
7, 1271808, Note_off_c, 0, 77, 0
7, 1274048, Note_off_c, 0, 58, 0
7, 1274336, Note_off_c, 0, 75, 0
7, 1274880, Note_off_c, 0, 51, 0
7, 1274880, Note_on_c, 0, 34, 9
7, 1274880, Note_on_c, 0, 65, 41
7, 1274880, Note_on_c, 0, 80, 89
7, 1278432, Note_off_c, 0, 34, 0
7, 1278720, Note_on_c, 0, 63, 50
7, 1278720, Note_on_c, 0, 46, 10
7, 1278720, Note_on_c, 0, 79, 94
7, 1279040, Note_off_c, 0, 80, 0
7, 1279488, Note_off_c, 0, 65, 0
7, 1281728, Note_off_c, 0, 46, 0
7, 1282016, Note_off_c, 0, 63, 0
7, 1282560, Note_on_c, 0, 68, 41
7, 1282560, Note_on_c, 0, 75, 86
7, 1282560, Note_on_c, 0, 53, 9
7, 1282688, Note_off_c, 0, 79, 0
7, 1286400, Note_on_c, 0, 51, 11
7, 1286400, Note_on_c, 0, 70, 93
7, 1286400, Note_on_c, 0, 34, 1
7, 1286400, Note_on_c, 0, 67, 44
7, 1286720, Note_off_c, 0, 68, 0
7, 1287168, Note_off_c, 0, 75, 0
7, 1287168, Note_off_c, 0, 53, 0
7, 1289408, Note_off_c, 0, 34, 0
7, 1289696, Note_off_c, 0, 51, 0
7, 1290240, Note_on_c, 0, 63, 40
7, 1290240, Note_on_c, 0, 56, 9
7, 1290240, Note_on_c, 0, 56, 88
7, 1290241, Note_off_c, 0, 56, 0
7, 1290368, Note_off_c, 0, 67, 0
7, 1290752, Note_off_c, 0, 70, 0
7, 1294080, Note_off_c, 0, 63, 0
7, 1294080, Note_on_c, 0, 39, 1
7, 1294080, Note_on_c, 0, 58, 43
7, 1294080, Note_on_c, 0, 63, 103
7, 1294080, Note_on_c, 0, 55, 9
7, 1294400, Note_off_c, 0, 56, 0
7, 1294848, Note_off_c, 0, 63, 0
7, 1297376, Note_off_c, 0, 39, 0
7, 1297920, Note_on_c, 0, 51, 8
7, 1297920, Note_on_c, 0, 72, 85
7, 1297920, Note_on_c, 0, 44, 41
7, 1298048, Note_off_c, 0, 55, 0
7, 1298432, Note_off_c, 0, 58, 0
7, 1301760, Note_off_c, 0, 51, 0
7, 1301760, Note_off_c, 0, 72, 0
7, 1301760, Note_on_c, 0, 46, 9
7, 1301760, Note_on_c, 0, 51, 48
7, 1301760, Note_on_c, 0, 68, 88
7, 1302496, Note_off_c, 0, 44, 0
7, 1302528, Note_off_c, 0, 51, 0
7, 1305600, Note_on_c, 0, 60, 39
7, 1305600, Note_on_c, 0, 72, 85
7, 1305600, Note_on_c, 0, 32, 9
7, 1305632, Note_off_c, 0, 68, 0
7, 1306112, Note_off_c, 0, 46, 0
7, 1308288, Note_off_c, 0, 72, 0
7, 1309440, Note_off_c, 0, 60, 0
7, 1309440, Note_on_c, 0, 56, 41
7, 1309440, Note_on_c, 0, 39, 10
7, 1309440, Note_on_c, 0, 70, 85
7, 1310176, Note_off_c, 0, 32, 0
7, 1312800, Note_off_c, 0, 39, 0
7, 1313280, Note_off_c, 0, 56, 0
7, 1313280, Note_off_c, 0, 70, 0
7, 1313280, Note_on_c, 0, 48, 8
7, 1313280, Note_on_c, 0, 60, 39
7, 1313280, Note_on_c, 0, 56, 79
7, 1313312, Note_off_c, 0, 56, 0
7, 1315968, Note_off_c, 0, 60, 0
7, 1317120, Note_off_c, 0, 48, 0
7, 1317120, Note_on_c, 0, 44, 9
7, 1317120, Note_on_c, 0, 63, 85
7, 1317120, Note_on_c, 0, 58, 39
7, 1317120, Note_on_c, 0, 27, 1
7, 1320480, Note_off_c, 0, 27, 0
7, 1320864, Note_off_c, 0, 63, 0
7, 1320960, Note_off_c, 0, 44, 0
7, 1320960, Note_off_c, 0, 58, 0
7, 1320960, Note_on_c, 0, 72, 88
7, 1320960, Note_on_c, 0, 48, 8
7, 1320960, Note_on_c, 0, 44, 37
7, 1320992, Note_off_c, 0, 44, 0
7, 1323648, Note_off_c, 0, 48, 0
7, 1324096, Note_off_c, 0, 72, 0
7, 1324800, Note_on_c, 0, 51, 39
7, 1324800, Note_on_c, 0, 46, 8
7, 1324800, Note_on_c, 0, 63, 86
7, 1328544, Note_off_c, 0, 51, 0
7, 1328640, Note_off_c, 0, 46, 0
7, 1328640, Note_on_c, 0, 60, 41
7, 1328640, Note_on_c, 0, 72, 69
7, 1328640, Note_on_c, 0, 32, 8
7, 1329248, Note_off_c, 0, 63, 0
7, 1331776, Note_off_c, 0, 60, 0
7, 1332480, Note_on_c, 0, 39, 8
7, 1332480, Note_on_c, 0, 51, 40
7, 1332480, Note_on_c, 0, 70, 86
7, 1332800, Note_off_c, 0, 72, 0
7, 1333344, Note_off_c, 0, 32, 0
7, 1336224, Note_off_c, 0, 39, 0
7, 1336320, Note_off_c, 0, 70, 0
7, 1336320, Note_on_c, 0, 48, 9
7, 1336320, Note_on_c, 0, 60, 32
7, 1336320, Note_on_c, 0, 60, 68
7, 1336321, Note_off_c, 0, 60, 0
7, 1336928, Note_off_c, 0, 51, 0
7, 1339456, Note_off_c, 0, 48, 0
7, 1339744, Note_off_c, 0, 60, 0
7, 1340160, Note_on_c, 0, 75, 89
7, 1340160, Note_on_c, 0, 58, 40
7, 1340160, Note_on_c, 0, 39, 8
7, 1344000, Note_off_c, 0, 58, 0
7, 1344000, Note_on_c, 0, 77, 85
7, 1344000, Note_on_c, 0, 48, 7
7, 1344000, Note_on_c, 0, 48, 31
7, 1344001, Note_off_c, 0, 48, 0
7, 1344032, Note_off_c, 0, 75, 0
7, 1344608, Note_off_c, 0, 39, 0
7, 1347424, Note_off_c, 0, 48, 0
7, 1347840, Note_on_c, 0, 63, 41
7, 1347840, Note_on_c, 0, 46, 8
7, 1347840, Note_on_c, 0, 75, 88
7, 1348064, Note_off_c, 0, 77, 0
7, 1351424, Note_off_c, 0, 75, 0
7, 1351680, Note_off_c, 0, 46, 0
7, 1351680, Note_on_c, 0, 58, 85
7, 1351680, Note_on_c, 0, 65, 39
7, 1351680, Note_on_c, 0, 36, 6
7, 1351712, Note_off_c, 0, 63, 0
7, 1355104, Note_off_c, 0, 36, 0
7, 1355136, Note_off_c, 0, 58, 0
7, 1355520, Note_on_c, 0, 51, 9
7, 1355520, Note_on_c, 0, 70, 99
7, 1355520, Note_on_c, 0, 63, 41
7, 1355744, Note_off_c, 0, 65, 0
7, 1358624, Note_off_c, 0, 70, 0
7, 1359104, Note_off_c, 0, 63, 0
7, 1359360, Note_on_c, 0, 46, 39
7, 1359360, Note_on_c, 0, 53, 8
7, 1359360, Note_on_c, 0, 86, 85
7, 1359392, Note_off_c, 0, 51, 0
7, 1362816, Note_off_c, 0, 46, 0
7, 1363200, Note_on_c, 0, 58, 46
7, 1363200, Note_on_c, 0, 58, 89
7, 1363200, Note_on_c, 0, 51, 9
7, 1363201, Note_off_c, 0, 58, 0
7, 1363424, Note_off_c, 0, 53, 0
7, 1363680, Note_off_c, 0, 86, 0
7, 1366304, Note_off_c, 0, 58, 0
7, 1366784, Note_off_c, 0, 51, 0
7, 1367040, Note_on_c, 0, 34, 8
7, 1367040, Note_on_c, 0, 70, 78
7, 1367040, Note_on_c, 0, 74, 39
7, 1370496, Note_off_c, 0, 34, 0
7, 1370880, Note_on_c, 0, 46, 10
7, 1370880, Note_on_c, 0, 46, 41
7, 1370880, Note_on_c, 0, 82, 93
7, 1370881, Note_off_c, 0, 46, 0
7, 1370944, Note_off_c, 0, 70, 0
7, 1371360, Note_off_c, 0, 74, 0
7, 1373984, Note_off_c, 0, 46, 0
7, 1374720, Note_off_c, 0, 82, 0
7, 1374720, Note_on_c, 0, 58, 36
7, 1374720, Note_on_c, 0, 58, 86
7, 1374720, Note_on_c, 0, 62, 8
7, 1374721, Note_off_c, 0, 58, 0
7, 1377952, Note_off_c, 0, 58, 0
7, 1378560, Note_on_c, 0, 70, 43
7, 1378560, Note_on_c, 0, 34, 1
7, 1378560, Note_on_c, 0, 34, 9
7, 1378560, Note_on_c, 0, 75, 93
7, 1378561, Note_off_c, 0, 34, 0
7, 1379040, Note_off_c, 0, 62, 0
7, 1381664, Note_off_c, 0, 34, 0
7, 1382400, Note_off_c, 0, 70, 0
7, 1382400, Note_off_c, 0, 75, 0
7, 1382400, Note_on_c, 0, 58, 94
7, 1382400, Note_on_c, 0, 46, 7
7, 1382400, Note_on_c, 0, 46, 40
7, 1382401, Note_off_c, 0, 46, 0
7, 1385632, Note_off_c, 0, 46, 0
7, 1385952, Note_off_c, 0, 58, 0
7, 1386240, Note_on_c, 0, 58, 9
7, 1386240, Note_on_c, 0, 63, 43
7, 1386240, Note_on_c, 0, 70, 101
7, 1389248, Note_off_c, 0, 70, 0
7, 1390080, Note_off_c, 0, 58, 0
7, 1390080, Note_off_c, 0, 63, 0
7, 1390080, Note_on_c, 0, 34, 8
7, 1390080, Note_on_c, 0, 77, 89
7, 1390080, Note_on_c, 0, 46, 44
7, 1393312, Note_off_c, 0, 34, 0
7, 1393632, Note_off_c, 0, 46, 0
7, 1393920, Note_on_c, 0, 51, 9
7, 1393920, Note_on_c, 0, 75, 108
7, 1393920, Note_on_c, 0, 58, 47
7, 1394688, Note_off_c, 0, 77, 0
7, 1396928, Note_off_c, 0, 58, 0
7, 1397216, Note_off_c, 0, 75, 0
7, 1397760, Note_off_c, 0, 51, 0
7, 1397760, Note_on_c, 0, 65, 41
7, 1397760, Note_on_c, 0, 77, 89
7, 1397760, Note_on_c, 0, 34, 9
7, 1401312, Note_off_c, 0, 34, 0
7, 1401600, Note_on_c, 0, 63, 50
7, 1401600, Note_on_c, 0, 46, 10
7, 1401600, Note_on_c, 0, 82, 94
7, 1401920, Note_off_c, 0, 77, 0
7, 1402368, Note_off_c, 0, 65, 0
7, 1404608, Note_off_c, 0, 46, 0
7, 1404896, Note_off_c, 0, 63, 0
7, 1405440, Note_on_c, 0, 53, 9
7, 1405440, Note_on_c, 0, 65, 41
7, 1405440, Note_on_c, 0, 77, 86
7, 1405568, Note_off_c, 0, 82, 0
7, 1409280, Note_on_c, 0, 51, 11
7, 1409280, Note_on_c, 0, 70, 44
7, 1409280, Note_on_c, 0, 75, 93
7, 1409280, Note_on_c, 0, 34, 1
7, 1409600, Note_off_c, 0, 65, 0
7, 1410048, Note_off_c, 0, 53, 0
7, 1410048, Note_off_c, 0, 77, 0
7, 1412288, Note_off_c, 0, 34, 0
7, 1412576, Note_off_c, 0, 51, 0
7, 1413120, Note_on_c, 0, 53, 9
7, 1413120, Note_on_c, 0, 56, 88
7, 1413120, Note_on_c, 0, 65, 40
7, 1413248, Note_off_c, 0, 70, 0
7, 1413632, Note_off_c, 0, 75, 0
7, 1416960, Note_on_c, 0, 39, 1
7, 1416960, Note_on_c, 0, 58, 9
7, 1416960, Note_on_c, 0, 63, 43
7, 1416960, Note_on_c, 0, 63, 103
7, 1416961, Note_off_c, 0, 63, 0
7, 1417280, Note_off_c, 0, 53, 0
7, 1417696, Note_off_c, 0, 56, 0
7, 1417728, Note_off_c, 0, 65, 0
7, 1420256, Note_off_c, 0, 39, 0
7, 1420320, Note_off_c, 0, 63, 0
7, 1420800, Note_on_c, 0, 72, 85
7, 1420800, Note_on_c, 0, 44, 41
7, 1420800, Note_on_c, 0, 53, 8
7, 1420928, Note_off_c, 0, 58, 0
7, 1424640, Note_off_c, 0, 72, 0
7, 1424640, Note_on_c, 0, 51, 9
7, 1424640, Note_on_c, 0, 51, 48
7, 1424640, Note_on_c, 0, 70, 88
7, 1424641, Note_off_c, 0, 51, 0
7, 1425376, Note_off_c, 0, 44, 0
7, 1425408, Note_off_c, 0, 53, 0
7, 1428000, Note_off_c, 0, 51, 0
7, 1428480, Note_on_c, 0, 60, 39
7, 1428480, Note_on_c, 0, 72, 85
7, 1428480, Note_on_c, 0, 32, 9
7, 1428512, Note_off_c, 0, 70, 0
7, 1431168, Note_off_c, 0, 72, 0
7, 1432320, Note_off_c, 0, 60, 0
7, 1432320, Note_on_c, 0, 39, 10
7, 1432320, Note_on_c, 0, 58, 41
7, 1432320, Note_on_c, 0, 75, 85
7, 1433056, Note_off_c, 0, 32, 0
7, 1435680, Note_off_c, 0, 39, 0
7, 1436160, Note_off_c, 0, 75, 0
7, 1436160, Note_on_c, 0, 63, 79
7, 1436160, Note_on_c, 0, 48, 8
7, 1436160, Note_on_c, 0, 60, 39
7, 1436192, Note_off_c, 0, 58, 0
7, 1438848, Note_off_c, 0, 60, 0
7, 1440000, Note_off_c, 0, 63, 0
7, 1440000, Note_off_c, 0, 48, 0
7, 1440000, Note_on_c, 0, 63, 39
7, 1440000, Note_on_c, 0, 56, 85
7, 1440000, Note_on_c, 0, 46, 9
7, 1440000, Note_on_c, 0, 27, 1
7, 1440864, Note_off_c, 0, 63, 0
7, 1443360, Note_off_c, 0, 27, 0
7, 1443744, Note_off_c, 0, 56, 0
7, 1443840, Note_on_c, 0, 51, 37
7, 1443840, Note_on_c, 0, 48, 8
7, 1443840, Note_on_c, 0, 63, 88
7, 1443872, Note_off_c, 0, 46, 0
7, 1446528, Note_off_c, 0, 48, 0
7, 1446976, Note_off_c, 0, 63, 0
7, 1447680, Note_off_c, 0, 51, 0
7, 1447680, Note_on_c, 0, 51, 8
7, 1447680, Note_on_c, 0, 44, 39
7, 1447680, Note_on_c, 0, 68, 86
7, 1448544, Note_off_c, 0, 51, 0
7, 1451424, Note_off_c, 0, 44, 0
7, 1451520, Note_on_c, 0, 39, 8
7, 1451520, Note_on_c, 0, 51, 41
7, 1451520, Note_on_c, 0, 72, 69
7, 1452128, Note_off_c, 0, 68, 0
7, 1454656, Note_off_c, 0, 51, 0
7, 1455360, Note_on_c, 0, 56, 40
7, 1455360, Note_on_c, 0, 70, 86
7, 1455360, Note_on_c, 0, 32, 8
7, 1455680, Note_off_c, 0, 72, 0
7, 1456224, Note_off_c, 0, 39, 0
7, 1459104, Note_off_c, 0, 32, 0
7, 1459200, Note_off_c, 0, 70, 0
7, 1459200, Note_on_c, 0, 39, 9
7, 1459200, Note_on_c, 0, 60, 32
7, 1459200, Note_on_c, 0, 60, 68
7, 1459201, Note_off_c, 0, 60, 0
7, 1459808, Note_off_c, 0, 56, 0
7, 1462336, Note_off_c, 0, 39, 0
7, 1462624, Note_off_c, 0, 60, 0
7, 1463040, Note_on_c, 0, 58, 40
7, 1463040, Note_on_c, 0, 44, 8
7, 1463040, Note_on_c, 0, 68, 89
7, 1466880, Note_off_c, 0, 58, 0
7, 1466880, Note_on_c, 0, 75, 85
7, 1466880, Note_on_c, 0, 48, 7
7, 1466880, Note_on_c, 0, 48, 31
7, 1466881, Note_off_c, 0, 48, 0
7, 1466912, Note_off_c, 0, 68, 0
7, 1467488, Note_off_c, 0, 44, 0
7, 1470304, Note_off_c, 0, 48, 0
7, 1470720, Note_on_c, 0, 46, 8
7, 1470720, Note_on_c, 0, 77, 88
7, 1470720, Note_on_c, 0, 56, 41
7, 1470944, Note_off_c, 0, 75, 0
7, 1474304, Note_off_c, 0, 77, 0
7, 1474560, Note_off_c, 0, 46, 0
7, 1474560, Note_on_c, 0, 58, 85
7, 1474560, Note_on_c, 0, 63, 39
7, 1474560, Note_on_c, 0, 36, 6
7, 1474592, Note_off_c, 0, 56, 0
7, 1477984, Note_off_c, 0, 36, 0
7, 1478016, Note_off_c, 0, 58, 0
7, 1478400, Note_on_c, 0, 70, 99
7, 1478400, Note_on_c, 0, 65, 41
7, 1478400, Note_on_c, 0, 44, 9
7, 1478624, Note_off_c, 0, 63, 0
7, 1481504, Note_off_c, 0, 70, 0
7, 1481984, Note_off_c, 0, 65, 0
7, 1482240, Note_on_c, 0, 46, 39
7, 1482240, Note_on_c, 0, 51, 8
7, 1482240, Note_on_c, 0, 86, 85
7, 1482272, Note_off_c, 0, 44, 0
7, 1485696, Note_off_c, 0, 46, 0
7, 1486080, Note_on_c, 0, 74, 89
7, 1486080, Note_on_c, 0, 58, 46
7, 1486080, Note_on_c, 0, 53, 9
7, 1486304, Note_off_c, 0, 51, 0
7, 1486560, Note_off_c, 0, 86, 0
7, 1489184, Note_off_c, 0, 58, 0
7, 1489664, Note_off_c, 0, 53, 0
7, 1489824, Note_off_c, 0, 74, 0
7, 1489920, Note_on_c, 0, 34, 8
7, 1489920, Note_on_c, 0, 70, 78
7, 1489920, Note_on_c, 0, 74, 39
7, 1493376, Note_off_c, 0, 34, 0
7, 1493760, Note_on_c, 0, 62, 41
7, 1493760, Note_on_c, 0, 46, 10
7, 1493760, Note_on_c, 0, 82, 93
7, 1493824, Note_off_c, 0, 70, 0
7, 1494240, Note_off_c, 0, 74, 0
7, 1496864, Note_off_c, 0, 46, 0
7, 1497504, Note_off_c, 0, 62, 0
7, 1497600, Note_off_c, 0, 82, 0
7, 1497600, Note_on_c, 0, 58, 36
7, 1497600, Note_on_c, 0, 58, 86
7, 1497600, Note_on_c, 0, 62, 8
7, 1497601, Note_off_c, 0, 58, 0
7, 1500832, Note_off_c, 0, 58, 0
7, 1501440, Note_on_c, 0, 70, 43
7, 1501440, Note_on_c, 0, 34, 1
7, 1501440, Note_on_c, 0, 75, 93
7, 1501440, Note_on_c, 0, 50, 9
7, 1501920, Note_off_c, 0, 62, 0
7, 1504544, Note_off_c, 0, 34, 0
7, 1505184, Note_off_c, 0, 50, 0
7, 1505280, Note_off_c, 0, 70, 0
7, 1505280, Note_off_c, 0, 75, 0
7, 1505280, Note_on_c, 0, 58, 94
7, 1505280, Note_on_c, 0, 46, 7
7, 1505280, Note_on_c, 0, 46, 40
7, 1505281, Note_off_c, 0, 46, 0
7, 1508512, Note_off_c, 0, 46, 0
7, 1508832, Note_off_c, 0, 58, 0
7, 1509120, Note_on_c, 0, 58, 9
7, 1509120, Note_on_c, 0, 63, 43
7, 1509120, Note_on_c, 0, 70, 101
7, 1512128, Note_off_c, 0, 70, 0
7, 1512960, Note_off_c, 0, 58, 0
7, 1512960, Note_off_c, 0, 63, 0
7, 1512960, Note_on_c, 0, 34, 8
7, 1512960, Note_on_c, 0, 46, 44
7, 1512960, Note_on_c, 0, 77, 89
7, 1516192, Note_off_c, 0, 34, 0
7, 1516512, Note_off_c, 0, 46, 0
7, 1516800, Note_on_c, 0, 75, 108
7, 1516800, Note_on_c, 0, 51, 9
7, 1516800, Note_on_c, 0, 58, 47
7, 1517568, Note_off_c, 0, 77, 0
7, 1519808, Note_off_c, 0, 58, 0
7, 1520096, Note_off_c, 0, 75, 0
7, 1520640, Note_off_c, 0, 51, 0
7, 1520640, Note_on_c, 0, 34, 9
7, 1520640, Note_on_c, 0, 65, 41
7, 1520640, Note_on_c, 0, 80, 89
7, 1524192, Note_off_c, 0, 34, 0
7, 1524480, Note_on_c, 0, 63, 50
7, 1524480, Note_on_c, 0, 46, 10
7, 1524480, Note_on_c, 0, 79, 94
7, 1524800, Note_off_c, 0, 80, 0
7, 1525248, Note_off_c, 0, 65, 0
7, 1527488, Note_off_c, 0, 46, 0
7, 1527776, Note_off_c, 0, 63, 0
7, 1528320, Note_on_c, 0, 68, 41
7, 1528320, Note_on_c, 0, 75, 86
7, 1528320, Note_on_c, 0, 53, 9
7, 1528448, Note_off_c, 0, 79, 0
7, 1532160, Note_on_c, 0, 51, 11
7, 1532160, Note_on_c, 0, 70, 93
7, 1532160, Note_on_c, 0, 34, 1
7, 1532160, Note_on_c, 0, 67, 44
7, 1532480, Note_off_c, 0, 68, 0
7, 1532928, Note_off_c, 0, 75, 0
7, 1532928, Note_off_c, 0, 53, 0
7, 1535168, Note_off_c, 0, 34, 0
7, 1535456, Note_off_c, 0, 51, 0
7, 1536000, Note_on_c, 0, 63, 40
7, 1536000, Note_on_c, 0, 56, 9
7, 1536000, Note_on_c, 0, 56, 88
7, 1536001, Note_off_c, 0, 56, 0
7, 1536128, Note_off_c, 0, 67, 0
7, 1536512, Note_off_c, 0, 70, 0
7, 1539840, Note_off_c, 0, 63, 0
7, 1539840, Note_on_c, 0, 39, 1
7, 1539840, Note_on_c, 0, 58, 43
7, 1539840, Note_on_c, 0, 63, 103
7, 1539840, Note_on_c, 0, 55, 9
7, 1540160, Note_off_c, 0, 56, 0
7, 1540608, Note_off_c, 0, 63, 0
7, 1543136, Note_off_c, 0, 39, 0
7, 1543680, Note_on_c, 0, 51, 8
7, 1543680, Note_on_c, 0, 72, 85
7, 1543680, Note_on_c, 0, 44, 41
7, 1543808, Note_off_c, 0, 55, 0
7, 1544192, Note_off_c, 0, 58, 0
7, 1547520, Note_off_c, 0, 51, 0
7, 1547520, Note_off_c, 0, 72, 0
7, 1547520, Note_on_c, 0, 46, 9
7, 1547520, Note_on_c, 0, 51, 48
7, 1547520, Note_on_c, 0, 68, 88
7, 1548256, Note_off_c, 0, 44, 0
7, 1548288, Note_off_c, 0, 51, 0
7, 1551360, Note_on_c, 0, 60, 39
7, 1551360, Note_on_c, 0, 72, 85
7, 1551360, Note_on_c, 0, 32, 9
7, 1551392, Note_off_c, 0, 68, 0
7, 1551872, Note_off_c, 0, 46, 0
7, 1554048, Note_off_c, 0, 72, 0
7, 1555200, Note_off_c, 0, 60, 0
7, 1555200, Note_on_c, 0, 56, 41
7, 1555200, Note_on_c, 0, 39, 10
7, 1555200, Note_on_c, 0, 70, 85
7, 1555936, Note_off_c, 0, 32, 0
7, 1558560, Note_off_c, 0, 39, 0
7, 1559040, Note_off_c, 0, 56, 0
7, 1559040, Note_off_c, 0, 70, 0
7, 1559040, Note_on_c, 0, 48, 8
7, 1559040, Note_on_c, 0, 60, 39
7, 1559040, Note_on_c, 0, 56, 79
7, 1559072, Note_off_c, 0, 56, 0
7, 1561728, Note_off_c, 0, 60, 0
7, 1562880, Note_off_c, 0, 48, 0
7, 1562880, Note_on_c, 0, 44, 9
7, 1562880, Note_on_c, 0, 63, 85
7, 1562880, Note_on_c, 0, 58, 39
7, 1562880, Note_on_c, 0, 27, 1
7, 1566240, Note_off_c, 0, 27, 0
7, 1566624, Note_off_c, 0, 63, 0
7, 1566720, Note_off_c, 0, 44, 0
7, 1566720, Note_off_c, 0, 58, 0
7, 1566720, Note_on_c, 0, 72, 88
7, 1566720, Note_on_c, 0, 48, 8
7, 1566720, Note_on_c, 0, 44, 37
7, 1566752, Note_off_c, 0, 44, 0
7, 1569408, Note_off_c, 0, 48, 0
7, 1569856, Note_off_c, 0, 72, 0
7, 1570560, Note_on_c, 0, 51, 39
7, 1570560, Note_on_c, 0, 46, 8
7, 1570560, Note_on_c, 0, 63, 86
7, 1574304, Note_off_c, 0, 51, 0
7, 1574400, Note_off_c, 0, 46, 0
7, 1574400, Note_on_c, 0, 60, 41
7, 1574400, Note_on_c, 0, 32, 8
7, 1574400, Note_on_c, 0, 72, 69
7, 1575008, Note_off_c, 0, 63, 0
7, 1577536, Note_off_c, 0, 60, 0
7, 1578240, Note_on_c, 0, 39, 8
7, 1578240, Note_on_c, 0, 51, 40
7, 1578240, Note_on_c, 0, 70, 86
7, 1578560, Note_off_c, 0, 72, 0
7, 1579104, Note_off_c, 0, 32, 0
7, 1581984, Note_off_c, 0, 39, 0
7, 1582080, Note_off_c, 0, 70, 0
7, 1582080, Note_on_c, 0, 48, 9
7, 1582080, Note_on_c, 0, 60, 32
7, 1582080, Note_on_c, 0, 60, 68
7, 1582081, Note_off_c, 0, 60, 0
7, 1582688, Note_off_c, 0, 51, 0
7, 1585216, Note_off_c, 0, 48, 0
7, 1585504, Note_off_c, 0, 60, 0
7, 1585920, Note_on_c, 0, 75, 89
7, 1585920, Note_on_c, 0, 39, 8
7, 1585920, Note_on_c, 0, 58, 40
7, 1589760, Note_off_c, 0, 58, 0
7, 1589760, Note_on_c, 0, 48, 7
7, 1589760, Note_on_c, 0, 48, 31
7, 1589760, Note_on_c, 0, 77, 85
7, 1589761, Note_off_c, 0, 48, 0
7, 1589792, Note_off_c, 0, 75, 0
7, 1590368, Note_off_c, 0, 39, 0
7, 1593184, Note_off_c, 0, 48, 0
7, 1593600, Note_on_c, 0, 46, 8
7, 1593600, Note_on_c, 0, 63, 41
7, 1593600, Note_on_c, 0, 75, 88
7, 1593824, Note_off_c, 0, 77, 0
7, 1597184, Note_off_c, 0, 75, 0
7, 1597440, Note_off_c, 0, 46, 0
7, 1597440, Control_c, 0, 7, 127
7, 1597472, Note_off_c, 0, 63, 0
7, 6144000, End_track
8, 0, Start_track
8, 0, Title_t, "MIDI File Track 1 Ch7"
8, 0, Instrument_name_t, "MIDI File Track 1 Ch7"
8, 0, MIDI_port, 8
8, 0, Control_c, 0, 1, 0
8, 0, Control_c, 0, 11, 127
8, 0, Pitch_bend_c, 0, 8192
8, 360960, Note_on_c, 0, 75, 112
8, 360960, Note_on_c, 0, 87, 108
8, 364704, Note_off_c, 0, 87, 0
8, 366080, Note_off_c, 0, 75, 0
8, 368640, Note_on_c, 0, 74, 101
8, 368640, Note_on_c, 0, 86, 99
8, 368640, Note_on_c, 0, 85, 52
8, 369696, Note_off_c, 0, 85, 0
8, 377408, Note_off_c, 0, 74, 0
8, 377856, Note_off_c, 0, 86, 0
8, 380160, Note_on_c, 0, 70, 108
8, 380160, Note_on_c, 0, 82, 94
8, 383840, Note_off_c, 0, 82, 0
8, 384960, Note_off_c, 0, 70, 0
8, 391680, Note_on_c, 0, 75, 106
8, 391680, Note_on_c, 0, 87, 103
8, 394016, Note_off_c, 0, 87, 0
8, 395712, Note_off_c, 0, 75, 0
8, 399360, Note_on_c, 0, 74, 105
8, 399360, Note_on_c, 0, 86, 103
8, 405312, Note_off_c, 0, 86, 0
8, 408128, Note_off_c, 0, 74, 0
8, 410880, Note_on_c, 0, 70, 108
8, 410880, Note_on_c, 0, 82, 106
8, 414208, Note_off_c, 0, 82, 0
8, 415520, Note_off_c, 0, 70, 0
8, 422400, Note_on_c, 0, 72, 114
8, 422400, Note_on_c, 0, 84, 108
8, 424608, Note_off_c, 0, 72, 0
8, 427840, Note_off_c, 0, 84, 0
8, 453120, Note_on_c, 0, 70, 101
8, 453120, Note_on_c, 0, 82, 106
8, 457088, Note_off_c, 0, 82, 0
8, 457984, Note_off_c, 0, 70, 0
8, 460800, Note_on_c, 0, 72, 105
8, 460800, Note_on_c, 0, 84, 101
8, 466272, Note_off_c, 0, 84, 0
8, 466336, Note_off_c, 0, 72, 0
8, 472320, Note_on_c, 0, 75, 105
8, 472320, Note_on_c, 0, 87, 110
8, 476768, Note_off_c, 0, 87, 0
8, 477312, Note_off_c, 0, 75, 0
8, 483840, Note_on_c, 0, 77, 106
8, 483840, Note_on_c, 0, 89, 112
8, 487584, Note_off_c, 0, 89, 0
8, 488480, Note_off_c, 0, 77, 0
8, 510720, Note_on_c, 0, 70, 106
8, 510720, Note_on_c, 0, 82, 96
8, 512128, Note_off_c, 0, 70, 0
8, 512256, Note_off_c, 0, 82, 0
8, 514560, Note_on_c, 0, 70, 101
8, 514560, Note_on_c, 0, 82, 103
8, 516448, Note_off_c, 0, 70, 0
8, 516928, Note_off_c, 0, 82, 0
8, 522240, Note_on_c, 0, 79, 103
8, 522240, Note_on_c, 0, 91, 101
8, 528992, Note_off_c, 0, 91, 0
8, 529696, Note_off_c, 0, 79, 0
8, 533760, Note_on_c, 0, 77, 106
8, 533760, Note_on_c, 0, 89, 112
8, 538592, Note_off_c, 0, 89, 0
8, 539616, Note_off_c, 0, 77, 0
8, 545280, Note_on_c, 0, 75, 106
8, 545280, Note_on_c, 0, 87, 114
8, 548832, Note_off_c, 0, 75, 0
8, 549120, Note_off_c, 0, 87, 0
8, 6144000, End_track
9, 0, Start_track
9, 0, Title_t, "MIDI File Track 1 Ch8"
9, 0, Instrument_name_t, "MIDI File Track 1 Ch8"
9, 0, MIDI_port, 9
9, 0, Control_c, 0, 1, 0
9, 0, Control_c, 0, 11, 127
9, 0, Pitch_bend_c, 0, 8192
9, 6144000, End_track
10, 0, Start_track
10, 0, Title_t, "MIDI File Track 1 Ch9"
10, 0, Instrument_name_t, "MIDI File Track 1 Ch9"
10, 0, MIDI_port, 10
10, 0, Control_c, 0, 1, 0
10, 0, Control_c, 0, 11, 127
10, 0, Pitch_bend_c, 0, 8192
10, 6144000, End_track
11, 0, Start_track
11, 0, Title_t, "MIDI File Track 1 Ch10"
11, 0, Instrument_name_t, "MIDI File Track 1 Ch10"
11, 0, MIDI_port, 43
11, 0, Control_c, 0, 7, 100
11, 0, Control_c, 0, 1, 0
11, 0, Pitch_bend_c, 0, 7526
11, 16128, Control_c, 0, 7, 100
11, 61440, Note_on_c, 0, 42, 90
11, 61472, Note_off_c, 0, 42, 0
11, 76800, Note_on_c, 0, 42, 90
11, 76832, Note_off_c, 0, 42, 0
11, 92160, Note_on_c, 0, 42, 90
11, 92192, Note_off_c, 0, 42, 0
11, 107520, Note_on_c, 0, 42, 90
11, 107552, Note_off_c, 0, 42, 0
11, 614400, Note_on_c, 0, 42, 105
11, 614400, Note_on_c, 0, 36, 118
11, 617056, Note_off_c, 0, 42, 0
11, 618240, Note_on_c, 0, 42, 51
11, 618688, Note_off_c, 0, 42, 0
11, 621760, Note_off_c, 0, 36, 0
11, 622080, Note_on_c, 0, 42, 44
11, 623968, Note_off_c, 0, 42, 0
11, 625920, Note_on_c, 0, 42, 29
11, 625920, Note_on_c, 0, 36, 114
11, 627072, Note_off_c, 0, 42, 0
11, 627808, Note_off_c, 0, 36, 0
11, 629760, Note_on_c, 0, 42, 105
11, 629760, Note_on_c, 0, 38, 103
11, 632448, Note_off_c, 0, 42, 0
11, 633568, Note_off_c, 0, 38, 0
11, 633600, Note_on_c, 0, 42, 62
11, 634560, Note_off_c, 0, 42, 0
11, 637440, Note_on_c, 0, 42, 45
11, 639200, Note_off_c, 0, 42, 0
11, 641280, Note_on_c, 0, 42, 44
11, 642272, Note_off_c, 0, 42, 0
11, 645120, Note_on_c, 0, 42, 98
11, 647264, Note_off_c, 0, 42, 0
11, 648960, Note_on_c, 0, 42, 65
11, 652544, Note_off_c, 0, 42, 0
11, 652800, Note_on_c, 0, 42, 65
11, 652800, Note_on_c, 0, 36, 118
11, 654752, Note_off_c, 0, 42, 0
11, 655840, Note_off_c, 0, 36, 0
11, 656640, Note_on_c, 0, 42, 54
11, 657824, Note_off_c, 0, 42, 0
11, 660480, Note_on_c, 0, 42, 98
11, 660480, Note_on_c, 0, 38, 118
11, 663360, Note_off_c, 0, 42, 0
11, 664320, Note_on_c, 0, 42, 65
11, 664864, Note_off_c, 0, 38, 0
11, 665632, Note_off_c, 0, 42, 0
11, 668160, Note_on_c, 0, 42, 58
11, 669792, Note_off_c, 0, 42, 0
11, 672000, Note_on_c, 0, 42, 54
11, 672800, Note_off_c, 0, 42, 0
11, 675840, Note_on_c, 0, 42, 105
11, 675840, Note_on_c, 0, 36, 120
11, 678496, Note_off_c, 0, 42, 0
11, 679680, Note_on_c, 0, 42, 51
11, 680128, Note_off_c, 0, 42, 0
11, 682304, Note_off_c, 0, 36, 0
11, 683520, Note_on_c, 0, 42, 44
11, 685408, Note_off_c, 0, 42, 0
11, 687360, Note_on_c, 0, 42, 29
11, 687360, Note_on_c, 0, 36, 118
11, 688512, Note_off_c, 0, 42, 0
11, 689312, Note_off_c, 0, 36, 0
11, 691200, Note_on_c, 0, 42, 105
11, 691200, Note_on_c, 0, 38, 108
11, 693888, Note_off_c, 0, 42, 0
11, 695040, Note_on_c, 0, 42, 62
11, 695424, Note_off_c, 0, 38, 0
11, 696000, Note_off_c, 0, 42, 0
11, 698880, Note_on_c, 0, 42, 45
11, 698880, Note_on_c, 0, 36, 120
11, 700640, Note_off_c, 0, 42, 0
11, 701376, Note_off_c, 0, 36, 0
11, 702720, Note_on_c, 0, 42, 44
11, 703712, Note_off_c, 0, 42, 0
11, 706560, Note_on_c, 0, 42, 98
11, 708704, Note_off_c, 0, 42, 0
11, 710400, Note_on_c, 0, 42, 65
11, 713984, Note_off_c, 0, 42, 0
11, 714240, Note_on_c, 0, 42, 65
11, 714240, Note_on_c, 0, 36, 116
11, 716192, Note_off_c, 0, 42, 0
11, 716576, Note_off_c, 0, 36, 0
11, 718080, Note_on_c, 0, 42, 54
11, 719264, Note_off_c, 0, 42, 0
11, 721920, Note_on_c, 0, 42, 98
11, 721920, Note_on_c, 0, 38, 114
11, 724000, Note_off_c, 0, 38, 0
11, 724800, Note_off_c, 0, 42, 0
11, 725760, Note_on_c, 0, 42, 65
11, 727072, Note_off_c, 0, 42, 0
11, 729600, Note_on_c, 0, 42, 58
11, 731232, Note_off_c, 0, 42, 0
11, 733440, Note_on_c, 0, 36, 118
11, 733440, Note_on_c, 0, 42, 54
11, 734240, Note_off_c, 0, 42, 0
11, 735168, Note_off_c, 0, 36, 0
11, 737280, Note_on_c, 0, 42, 105
11, 737280, Note_on_c, 0, 36, 118
11, 739072, Note_off_c, 0, 36, 0
11, 739936, Note_off_c, 0, 42, 0
11, 741120, Note_on_c, 0, 42, 51
11, 741568, Note_off_c, 0, 42, 0
11, 744960, Note_on_c, 0, 42, 44
11, 746848, Note_off_c, 0, 42, 0
11, 748800, Note_on_c, 0, 42, 29
11, 748800, Note_on_c, 0, 36, 114
11, 749952, Note_off_c, 0, 42, 0
11, 750784, Note_off_c, 0, 36, 0
11, 752640, Note_on_c, 0, 42, 105
11, 752640, Note_on_c, 0, 38, 114
11, 754816, Note_off_c, 0, 38, 0
11, 755328, Note_off_c, 0, 42, 0
11, 756480, Note_on_c, 0, 42, 44
11, 757440, Note_off_c, 0, 42, 0
11, 760320, Note_on_c, 0, 42, 83
11, 762080, Note_off_c, 0, 42, 0
11, 764160, Note_on_c, 0, 42, 44
11, 765152, Note_off_c, 0, 42, 0
11, 768000, Note_on_c, 0, 42, 98
11, 770144, Note_off_c, 0, 42, 0
11, 771840, Note_on_c, 0, 42, 65
11, 775424, Note_off_c, 0, 42, 0
11, 775680, Note_on_c, 0, 42, 65
11, 775680, Note_on_c, 0, 36, 116
11, 777632, Note_off_c, 0, 42, 0
11, 778016, Note_off_c, 0, 36, 0
11, 779520, Note_on_c, 0, 42, 54
11, 780704, Note_off_c, 0, 42, 0
11, 783360, Note_on_c, 0, 42, 98
11, 783360, Note_on_c, 0, 38, 110
11, 785184, Note_off_c, 0, 38, 0
11, 786240, Note_off_c, 0, 42, 0
11, 787200, Note_on_c, 0, 42, 65
11, 787200, Note_on_c, 0, 36, 116
11, 788512, Note_off_c, 0, 42, 0
11, 789216, Note_off_c, 0, 36, 0
11, 791040, Note_on_c, 0, 42, 58
11, 792672, Note_off_c, 0, 42, 0
11, 794880, Note_on_c, 0, 42, 54
11, 795680, Note_off_c, 0, 42, 0
11, 798720, Note_on_c, 0, 42, 105
11, 798720, Note_on_c, 0, 36, 120
11, 801376, Note_off_c, 0, 42, 0
11, 802560, Note_on_c, 0, 42, 51
11, 803008, Note_off_c, 0, 42, 0
11, 804576, Note_off_c, 0, 36, 0
11, 806400, Note_on_c, 0, 42, 44
11, 808288, Note_off_c, 0, 42, 0
11, 810240, Note_on_c, 0, 42, 29
11, 810240, Note_on_c, 0, 36, 118
11, 811392, Note_off_c, 0, 42, 0
11, 812384, Note_off_c, 0, 36, 0
11, 814080, Note_on_c, 0, 42, 105
11, 814080, Note_on_c, 0, 38, 116
11, 816768, Note_off_c, 0, 42, 0
11, 817216, Note_off_c, 0, 38, 0
11, 817920, Note_on_c, 0, 42, 62
11, 818880, Note_off_c, 0, 42, 0
11, 821760, Note_on_c, 0, 42, 45
11, 823520, Note_off_c, 0, 42, 0
11, 825600, Note_on_c, 0, 42, 44
11, 825600, Note_on_c, 0, 36, 108
11, 826592, Note_off_c, 0, 42, 0
11, 828480, Note_off_c, 0, 36, 0
11, 829440, Note_on_c, 0, 42, 98
11, 831584, Note_off_c, 0, 42, 0
11, 833280, Note_on_c, 0, 36, 110
11, 833280, Note_on_c, 0, 42, 65
11, 834848, Note_off_c, 0, 36, 0
11, 836864, Note_off_c, 0, 42, 0
11, 837120, Note_on_c, 0, 42, 65
11, 837120, Note_on_c, 0, 36, 114
11, 839072, Note_off_c, 0, 42, 0
11, 839072, Note_off_c, 0, 36, 0
11, 840960, Note_on_c, 0, 46, 54
11, 842144, Note_off_c, 0, 46, 0
11, 844800, Note_on_c, 0, 42, 98
11, 844800, Note_on_c, 0, 38, 118
11, 846720, Note_off_c, 0, 38, 0
11, 847680, Note_off_c, 0, 42, 0
11, 848640, Note_on_c, 0, 42, 65
11, 849952, Note_off_c, 0, 42, 0
11, 852480, Note_on_c, 0, 42, 58
11, 852480, Note_on_c, 0, 36, 120
11, 854112, Note_off_c, 0, 42, 0
11, 854400, Note_on_c, 0, 42, 54
11, 854624, Note_off_c, 0, 36, 0
11, 856320, Note_off_c, 0, 42, 0
11, 856320, Note_on_c, 0, 42, 54
11, 857120, Note_off_c, 0, 42, 0
11, 858240, Note_on_c, 0, 42, 54
11, 860160, Note_off_c, 0, 42, 0
11, 860160, Note_on_c, 0, 42, 105
11, 860160, Note_on_c, 0, 36, 118
11, 862816, Note_off_c, 0, 42, 0
11, 864000, Note_on_c, 0, 42, 51
11, 864448, Note_off_c, 0, 42, 0
11, 867520, Note_off_c, 0, 36, 0
11, 867840, Note_on_c, 0, 42, 44
11, 869728, Note_off_c, 0, 42, 0
11, 871680, Note_on_c, 0, 42, 29
11, 871680, Note_on_c, 0, 36, 114
11, 872832, Note_off_c, 0, 42, 0
11, 873568, Note_off_c, 0, 36, 0
11, 875520, Note_on_c, 0, 42, 105
11, 875520, Note_on_c, 0, 38, 103
11, 878208, Note_off_c, 0, 42, 0
11, 879328, Note_off_c, 0, 38, 0
11, 879360, Note_on_c, 0, 42, 62
11, 880320, Note_off_c, 0, 42, 0
11, 883200, Note_on_c, 0, 42, 45
11, 884960, Note_off_c, 0, 42, 0
11, 887040, Note_on_c, 0, 42, 44
11, 888032, Note_off_c, 0, 42, 0
11, 890880, Note_on_c, 0, 42, 98
11, 893024, Note_off_c, 0, 42, 0
11, 894720, Note_on_c, 0, 42, 65
11, 898304, Note_off_c, 0, 42, 0
11, 898560, Note_on_c, 0, 42, 65
11, 898560, Note_on_c, 0, 36, 118
11, 900512, Note_off_c, 0, 42, 0
11, 901600, Note_off_c, 0, 36, 0
11, 902400, Note_on_c, 0, 42, 54
11, 903584, Note_off_c, 0, 42, 0
11, 906240, Note_on_c, 0, 42, 98
11, 906240, Note_on_c, 0, 38, 118
11, 909120, Note_off_c, 0, 42, 0
11, 910080, Note_on_c, 0, 42, 65
11, 910624, Note_off_c, 0, 38, 0
11, 911392, Note_off_c, 0, 42, 0
11, 913920, Note_on_c, 0, 42, 58
11, 915552, Note_off_c, 0, 42, 0
11, 917760, Note_on_c, 0, 42, 54
11, 918560, Note_off_c, 0, 42, 0
11, 921600, Note_on_c, 0, 42, 105
11, 921600, Note_on_c, 0, 36, 120
11, 924256, Note_off_c, 0, 42, 0
11, 925440, Note_on_c, 0, 42, 51
11, 925888, Note_off_c, 0, 42, 0
11, 928064, Note_off_c, 0, 36, 0
11, 929280, Note_on_c, 0, 42, 44
11, 931168, Note_off_c, 0, 42, 0
11, 933120, Note_on_c, 0, 42, 29
11, 933120, Note_on_c, 0, 36, 118
11, 934272, Note_off_c, 0, 42, 0
11, 935072, Note_off_c, 0, 36, 0
11, 936960, Note_on_c, 0, 42, 105
11, 936960, Note_on_c, 0, 38, 108
11, 939648, Note_off_c, 0, 42, 0
11, 940800, Note_on_c, 0, 42, 62
11, 941184, Note_off_c, 0, 38, 0
11, 941760, Note_off_c, 0, 42, 0
11, 944640, Note_on_c, 0, 42, 45
11, 944640, Note_on_c, 0, 36, 120
11, 946400, Note_off_c, 0, 42, 0
11, 947136, Note_off_c, 0, 36, 0
11, 948480, Note_on_c, 0, 42, 44
11, 949472, Note_off_c, 0, 42, 0
11, 952320, Note_on_c, 0, 42, 98
11, 954464, Note_off_c, 0, 42, 0
11, 956160, Note_on_c, 0, 42, 65
11, 959744, Note_off_c, 0, 42, 0
11, 960000, Note_on_c, 0, 42, 65
11, 960000, Note_on_c, 0, 36, 116
11, 961952, Note_off_c, 0, 42, 0
11, 962336, Note_off_c, 0, 36, 0
11, 963840, Note_on_c, 0, 42, 54
11, 965024, Note_off_c, 0, 42, 0
11, 967680, Note_on_c, 0, 42, 98
11, 967680, Note_on_c, 0, 38, 114
11, 969760, Note_off_c, 0, 38, 0
11, 970560, Note_off_c, 0, 42, 0
11, 971520, Note_on_c, 0, 42, 65
11, 972832, Note_off_c, 0, 42, 0
11, 975360, Note_on_c, 0, 42, 58
11, 976992, Note_off_c, 0, 42, 0
11, 979200, Note_on_c, 0, 36, 118
11, 979200, Note_on_c, 0, 42, 54
11, 980000, Note_off_c, 0, 42, 0
11, 980928, Note_off_c, 0, 36, 0
11, 983040, Note_on_c, 0, 42, 105
11, 983040, Note_on_c, 0, 36, 118
11, 984832, Note_off_c, 0, 36, 0
11, 985696, Note_off_c, 0, 42, 0
11, 986880, Note_on_c, 0, 42, 51
11, 987328, Note_off_c, 0, 42, 0
11, 990720, Note_on_c, 0, 42, 44
11, 992608, Note_off_c, 0, 42, 0
11, 994560, Note_on_c, 0, 42, 29
11, 994560, Note_on_c, 0, 36, 114
11, 995712, Note_off_c, 0, 42, 0
11, 996544, Note_off_c, 0, 36, 0
11, 998400, Note_on_c, 0, 42, 105
11, 998400, Note_on_c, 0, 38, 114
11, 1000576, Note_off_c, 0, 38, 0
11, 1001088, Note_off_c, 0, 42, 0
11, 1002240, Note_on_c, 0, 42, 44
11, 1003200, Note_off_c, 0, 42, 0
11, 1006080, Note_on_c, 0, 42, 83
11, 1007840, Note_off_c, 0, 42, 0
11, 1009920, Note_on_c, 0, 42, 44
11, 1010912, Note_off_c, 0, 42, 0
11, 1013760, Note_on_c, 0, 42, 98
11, 1015904, Note_off_c, 0, 42, 0
11, 1017600, Note_on_c, 0, 42, 65
11, 1021184, Note_off_c, 0, 42, 0
11, 1021440, Note_on_c, 0, 42, 65
11, 1021440, Note_on_c, 0, 36, 116
11, 1023392, Note_off_c, 0, 42, 0
11, 1023776, Note_off_c, 0, 36, 0
11, 1025280, Note_on_c, 0, 42, 54
11, 1026464, Note_off_c, 0, 42, 0
11, 1029120, Note_on_c, 0, 42, 98
11, 1029120, Note_on_c, 0, 38, 110
11, 1030944, Note_off_c, 0, 38, 0
11, 1032000, Note_off_c, 0, 42, 0
11, 1032960, Note_on_c, 0, 42, 65
11, 1032960, Note_on_c, 0, 36, 116
11, 1034272, Note_off_c, 0, 42, 0
11, 1034976, Note_off_c, 0, 36, 0
11, 1036800, Note_on_c, 0, 42, 58
11, 1038432, Note_off_c, 0, 42, 0
11, 1040640, Note_on_c, 0, 42, 54
11, 1041440, Note_off_c, 0, 42, 0
11, 1044480, Note_on_c, 0, 42, 105
11, 1044480, Note_on_c, 0, 36, 120
11, 1047136, Note_off_c, 0, 42, 0
11, 1048320, Note_on_c, 0, 42, 51
11, 1048768, Note_off_c, 0, 42, 0
11, 1050336, Note_off_c, 0, 36, 0
11, 1052160, Note_on_c, 0, 42, 44
11, 1054048, Note_off_c, 0, 42, 0
11, 1056000, Note_on_c, 0, 42, 29
11, 1056000, Note_on_c, 0, 36, 118
11, 1057152, Note_off_c, 0, 42, 0
11, 1058144, Note_off_c, 0, 36, 0
11, 1059840, Note_on_c, 0, 42, 105
11, 1059840, Note_on_c, 0, 38, 116
11, 1062528, Note_off_c, 0, 42, 0
11, 1062976, Note_off_c, 0, 38, 0
11, 1063680, Note_on_c, 0, 42, 62
11, 1064640, Note_off_c, 0, 42, 0
11, 1067520, Note_on_c, 0, 42, 45
11, 1069280, Note_off_c, 0, 42, 0
11, 1071360, Note_on_c, 0, 42, 44
11, 1071360, Note_on_c, 0, 36, 108
11, 1072352, Note_off_c, 0, 42, 0
11, 1074240, Note_off_c, 0, 36, 0
11, 1075200, Note_on_c, 0, 42, 98
11, 1077344, Note_off_c, 0, 42, 0
11, 1079040, Note_on_c, 0, 36, 110
11, 1079040, Note_on_c, 0, 42, 65
11, 1080608, Note_off_c, 0, 36, 0
11, 1082624, Note_off_c, 0, 42, 0
11, 1082880, Note_on_c, 0, 42, 65
11, 1082880, Note_on_c, 0, 36, 114
11, 1084832, Note_off_c, 0, 42, 0
11, 1084832, Note_off_c, 0, 36, 0
11, 1086720, Note_on_c, 0, 46, 54
11, 1087904, Note_off_c, 0, 46, 0
11, 1090560, Note_on_c, 0, 42, 98
11, 1090560, Note_on_c, 0, 38, 118
11, 1092480, Note_off_c, 0, 38, 0
11, 1093440, Note_off_c, 0, 42, 0
11, 1094400, Note_on_c, 0, 42, 65
11, 1095712, Note_off_c, 0, 42, 0
11, 1098240, Note_on_c, 0, 42, 58
11, 1098240, Note_on_c, 0, 36, 120
11, 1099872, Note_off_c, 0, 42, 0
11, 1100160, Note_on_c, 0, 42, 54
11, 1100384, Note_off_c, 0, 36, 0
11, 1102080, Note_off_c, 0, 42, 0
11, 1102080, Note_on_c, 0, 42, 54
11, 1102880, Note_off_c, 0, 42, 0
11, 1104000, Note_on_c, 0, 42, 54
11, 1105920, Note_off_c, 0, 42, 0
11, 1105920, Note_on_c, 0, 42, 105
11, 1105920, Note_on_c, 0, 36, 118
11, 1108576, Note_off_c, 0, 42, 0
11, 1109760, Note_on_c, 0, 42, 51
11, 1110208, Note_off_c, 0, 42, 0
11, 1113280, Note_off_c, 0, 36, 0
11, 1113600, Note_on_c, 0, 42, 44
11, 1115488, Note_off_c, 0, 42, 0
11, 1117440, Note_on_c, 0, 42, 29
11, 1117440, Note_on_c, 0, 36, 114
11, 1118592, Note_off_c, 0, 42, 0
11, 1119328, Note_off_c, 0, 36, 0
11, 1121280, Note_on_c, 0, 42, 105
11, 1121280, Note_on_c, 0, 38, 103
11, 1123968, Note_off_c, 0, 42, 0
11, 1125088, Note_off_c, 0, 38, 0
11, 1125120, Note_on_c, 0, 42, 62
11, 1126080, Note_off_c, 0, 42, 0
11, 1128960, Note_on_c, 0, 42, 45
11, 1130720, Note_off_c, 0, 42, 0
11, 1132800, Note_on_c, 0, 42, 44
11, 1133792, Note_off_c, 0, 42, 0
11, 1136640, Note_on_c, 0, 42, 98
11, 1138784, Note_off_c, 0, 42, 0
11, 1140480, Note_on_c, 0, 42, 65
11, 1144064, Note_off_c, 0, 42, 0
11, 1144320, Note_on_c, 0, 42, 65
11, 1144320, Note_on_c, 0, 36, 118
11, 1146272, Note_off_c, 0, 42, 0
11, 1147360, Note_off_c, 0, 36, 0
11, 1148160, Note_on_c, 0, 42, 54
11, 1149344, Note_off_c, 0, 42, 0
11, 1152000, Note_on_c, 0, 42, 98
11, 1152000, Note_on_c, 0, 38, 118
11, 1154880, Note_off_c, 0, 42, 0
11, 1155840, Note_on_c, 0, 42, 65
11, 1156384, Note_off_c, 0, 38, 0
11, 1157152, Note_off_c, 0, 42, 0
11, 1159680, Note_on_c, 0, 42, 58
11, 1161312, Note_off_c, 0, 42, 0
11, 1163520, Note_on_c, 0, 42, 54
11, 1164320, Note_off_c, 0, 42, 0
11, 1167360, Note_on_c, 0, 42, 105
11, 1167360, Note_on_c, 0, 36, 120
11, 1170016, Note_off_c, 0, 42, 0
11, 1171200, Note_on_c, 0, 42, 51
11, 1171648, Note_off_c, 0, 42, 0
11, 1173824, Note_off_c, 0, 36, 0
11, 1175040, Note_on_c, 0, 42, 44
11, 1176928, Note_off_c, 0, 42, 0
11, 1178880, Note_on_c, 0, 42, 29
11, 1178880, Note_on_c, 0, 36, 118
11, 1180032, Note_off_c, 0, 42, 0
11, 1180832, Note_off_c, 0, 36, 0
11, 1182720, Note_on_c, 0, 42, 105
11, 1182720, Note_on_c, 0, 38, 108
11, 1185408, Note_off_c, 0, 42, 0
11, 1186560, Note_on_c, 0, 42, 62
11, 1186944, Note_off_c, 0, 38, 0
11, 1187520, Note_off_c, 0, 42, 0
11, 1190400, Note_on_c, 0, 42, 45
11, 1190400, Note_on_c, 0, 36, 120
11, 1192160, Note_off_c, 0, 42, 0
11, 1192896, Note_off_c, 0, 36, 0
11, 1194240, Note_on_c, 0, 42, 44
11, 1195232, Note_off_c, 0, 42, 0
11, 1198080, Note_on_c, 0, 42, 98
11, 1200224, Note_off_c, 0, 42, 0
11, 1201920, Note_on_c, 0, 42, 65
11, 1205504, Note_off_c, 0, 42, 0
11, 1205760, Note_on_c, 0, 42, 65
11, 1205760, Note_on_c, 0, 36, 116
11, 1207712, Note_off_c, 0, 42, 0
11, 1208096, Note_off_c, 0, 36, 0
11, 1209600, Note_on_c, 0, 42, 54
11, 1210784, Note_off_c, 0, 42, 0
11, 1213440, Note_on_c, 0, 42, 98
11, 1213440, Note_on_c, 0, 38, 114
11, 1215520, Note_off_c, 0, 38, 0
11, 1216320, Note_off_c, 0, 42, 0
11, 1217280, Note_on_c, 0, 42, 65
11, 1218592, Note_off_c, 0, 42, 0
11, 1221120, Note_on_c, 0, 42, 58
11, 1222752, Note_off_c, 0, 42, 0
11, 1224960, Note_on_c, 0, 36, 118
11, 1224960, Note_on_c, 0, 42, 54
11, 1225760, Note_off_c, 0, 42, 0
11, 1226688, Note_off_c, 0, 36, 0
11, 1228800, Note_on_c, 0, 42, 105
11, 1228800, Note_on_c, 0, 36, 118
11, 1230592, Note_off_c, 0, 36, 0
11, 1231456, Note_off_c, 0, 42, 0
11, 1232640, Note_on_c, 0, 42, 51
11, 1233088, Note_off_c, 0, 42, 0
11, 1236480, Note_on_c, 0, 42, 44
11, 1238368, Note_off_c, 0, 42, 0
11, 1240320, Note_on_c, 0, 42, 29
11, 1240320, Note_on_c, 0, 36, 114
11, 1241472, Note_off_c, 0, 42, 0
11, 1242304, Note_off_c, 0, 36, 0
11, 1244160, Note_on_c, 0, 42, 105
11, 1244160, Note_on_c, 0, 38, 114
11, 1246336, Note_off_c, 0, 38, 0
11, 1246848, Note_off_c, 0, 42, 0
11, 1248000, Note_on_c, 0, 42, 44
11, 1248960, Note_off_c, 0, 42, 0
11, 1251840, Note_on_c, 0, 42, 83
11, 1253600, Note_off_c, 0, 42, 0
11, 1255680, Note_on_c, 0, 42, 44
11, 1256672, Note_off_c, 0, 42, 0
11, 1259520, Note_on_c, 0, 42, 98
11, 1261664, Note_off_c, 0, 42, 0
11, 1263360, Note_on_c, 0, 42, 65
11, 1266944, Note_off_c, 0, 42, 0
11, 1267200, Note_on_c, 0, 42, 65
11, 1267200, Note_on_c, 0, 36, 116
11, 1269152, Note_off_c, 0, 42, 0
11, 1269536, Note_off_c, 0, 36, 0
11, 1271040, Note_on_c, 0, 42, 54
11, 1272224, Note_off_c, 0, 42, 0
11, 1274880, Note_on_c, 0, 42, 98
11, 1274880, Note_on_c, 0, 38, 110
11, 1276704, Note_off_c, 0, 38, 0
11, 1277760, Note_off_c, 0, 42, 0
11, 1278720, Note_on_c, 0, 42, 65
11, 1278720, Note_on_c, 0, 36, 116
11, 1280032, Note_off_c, 0, 42, 0
11, 1280736, Note_off_c, 0, 36, 0
11, 1282560, Note_on_c, 0, 42, 58
11, 1284192, Note_off_c, 0, 42, 0
11, 1286400, Note_on_c, 0, 42, 54
11, 1287200, Note_off_c, 0, 42, 0
11, 1290240, Note_on_c, 0, 42, 105
11, 1290240, Note_on_c, 0, 36, 120
11, 1292896, Note_off_c, 0, 42, 0
11, 1294080, Note_on_c, 0, 42, 51
11, 1294528, Note_off_c, 0, 42, 0
11, 1296096, Note_off_c, 0, 36, 0
11, 1297920, Note_on_c, 0, 42, 44
11, 1299808, Note_off_c, 0, 42, 0
11, 1301760, Note_on_c, 0, 42, 29
11, 1301760, Note_on_c, 0, 36, 118
11, 1302912, Note_off_c, 0, 42, 0
11, 1303904, Note_off_c, 0, 36, 0
11, 1305600, Note_on_c, 0, 42, 105
11, 1305600, Note_on_c, 0, 38, 116
11, 1308288, Note_off_c, 0, 42, 0
11, 1308736, Note_off_c, 0, 38, 0
11, 1309440, Note_on_c, 0, 42, 62
11, 1310400, Note_off_c, 0, 42, 0
11, 1313280, Note_on_c, 0, 42, 45
11, 1315040, Note_off_c, 0, 42, 0
11, 1317120, Note_on_c, 0, 42, 44
11, 1317120, Note_on_c, 0, 36, 108
11, 1318112, Note_off_c, 0, 42, 0
11, 1320000, Note_off_c, 0, 36, 0
11, 1320960, Note_on_c, 0, 42, 98
11, 1323104, Note_off_c, 0, 42, 0
11, 1324800, Note_on_c, 0, 36, 110
11, 1324800, Note_on_c, 0, 42, 65
11, 1326368, Note_off_c, 0, 36, 0
11, 1328384, Note_off_c, 0, 42, 0
11, 1328640, Note_on_c, 0, 42, 65
11, 1328640, Note_on_c, 0, 36, 114
11, 1330592, Note_off_c, 0, 42, 0
11, 1330592, Note_off_c, 0, 36, 0
11, 1332480, Note_on_c, 0, 46, 54
11, 1333664, Note_off_c, 0, 46, 0
11, 1336320, Note_on_c, 0, 42, 98
11, 1336320, Note_on_c, 0, 38, 118
11, 1338240, Note_off_c, 0, 38, 0
11, 1339200, Note_off_c, 0, 42, 0
11, 1340160, Note_on_c, 0, 42, 65
11, 1341472, Note_off_c, 0, 42, 0
11, 1344000, Note_on_c, 0, 42, 58
11, 1344000, Note_on_c, 0, 36, 120
11, 1345632, Note_off_c, 0, 42, 0
11, 1345920, Note_on_c, 0, 42, 54
11, 1346144, Note_off_c, 0, 36, 0
11, 1347840, Note_off_c, 0, 42, 0
11, 1347840, Note_on_c, 0, 42, 54
11, 1348640, Note_off_c, 0, 42, 0
11, 1349760, Note_on_c, 0, 42, 54
11, 1351680, Note_off_c, 0, 42, 0
11, 1351680, Note_on_c, 0, 42, 105
11, 1351680, Note_on_c, 0, 36, 118
11, 1354336, Note_off_c, 0, 42, 0
11, 1355520, Note_on_c, 0, 42, 51
11, 1355968, Note_off_c, 0, 42, 0
11, 1357344, Note_off_c, 0, 36, 0
11, 1359360, Note_on_c, 0, 42, 44
11, 1361248, Note_off_c, 0, 42, 0
11, 1363200, Note_on_c, 0, 42, 29
11, 1363200, Note_on_c, 0, 36, 116
11, 1364352, Note_off_c, 0, 42, 0
11, 1365376, Note_off_c, 0, 36, 0
11, 1367040, Note_on_c, 0, 42, 105
11, 1367040, Note_on_c, 0, 38, 116
11, 1369728, Note_off_c, 0, 42, 0
11, 1370112, Note_off_c, 0, 38, 0
11, 1370880, Note_on_c, 0, 42, 62
11, 1371840, Note_off_c, 0, 42, 0
11, 1374720, Note_on_c, 0, 42, 45
11, 1376480, Note_off_c, 0, 42, 0
11, 1378560, Note_on_c, 0, 42, 44
11, 1379552, Note_off_c, 0, 42, 0
11, 1382400, Note_on_c, 0, 42, 98
11, 1384544, Note_off_c, 0, 42, 0
11, 1386240, Note_on_c, 0, 42, 65
11, 1389824, Note_off_c, 0, 42, 0
11, 1390080, Note_on_c, 0, 42, 65
11, 1390080, Note_on_c, 0, 36, 118
11, 1392032, Note_off_c, 0, 42, 0
11, 1392224, Note_off_c, 0, 36, 0
11, 1393920, Note_on_c, 0, 42, 54
11, 1395104, Note_off_c, 0, 42, 0
11, 1397760, Note_on_c, 0, 42, 98
11, 1397760, Note_on_c, 0, 38, 120
11, 1399680, Note_off_c, 0, 42, 0
11, 1399680, Note_on_c, 0, 42, 54
11, 1399840, Note_off_c, 0, 38, 0
11, 1400640, Note_off_c, 0, 42, 0
11, 1401600, Note_on_c, 0, 42, 65
11, 1402912, Note_off_c, 0, 42, 0
11, 1403520, Note_on_c, 0, 42, 54
11, 1405440, Note_off_c, 0, 42, 0
11, 1405440, Note_on_c, 0, 42, 58
11, 1407072, Note_off_c, 0, 42, 0
11, 1407360, Note_on_c, 0, 42, 54
11, 1409280, Note_off_c, 0, 42, 0
11, 1409280, Note_on_c, 0, 42, 54
11, 1410080, Note_off_c, 0, 42, 0
11, 1411200, Note_on_c, 0, 42, 54
11, 1413120, Note_off_c, 0, 42, 0
11, 1413120, Note_on_c, 0, 42, 105
11, 1413120, Note_on_c, 0, 36, 118
11, 1415776, Note_off_c, 0, 42, 0
11, 1415936, Note_off_c, 0, 36, 0
11, 1416960, Note_on_c, 0, 42, 51
11, 1417408, Note_off_c, 0, 42, 0
11, 1420800, Note_on_c, 0, 42, 44
11, 1422688, Note_off_c, 0, 42, 0
11, 1424640, Note_on_c, 0, 42, 29
11, 1424640, Note_on_c, 0, 36, 116
11, 1425792, Note_off_c, 0, 42, 0
11, 1426496, Note_off_c, 0, 36, 0
11, 1428480, Note_on_c, 0, 42, 105
11, 1428480, Note_on_c, 0, 38, 106
11, 1430912, Note_off_c, 0, 38, 0
11, 1431168, Note_off_c, 0, 42, 0
11, 1432320, Note_on_c, 0, 42, 62
11, 1433280, Note_off_c, 0, 42, 0
11, 1436160, Note_on_c, 0, 36, 118
11, 1436160, Note_on_c, 0, 42, 45
11, 1437920, Note_off_c, 0, 42, 0
11, 1438432, Note_off_c, 0, 36, 0
11, 1445408, Control_c, 0, 7, 127
11, 6144000, End_track
12, 0, Start_track
12, 0, Title_t, "MIDI File Track 1 Ch11"
12, 0, Instrument_name_t, "MIDI File Track 1 Ch11"
12, 0, MIDI_port, 12
12, 0, Control_c, 0, 1, 0
12, 0, Control_c, 0, 11, 127
12, 0, Pitch_bend_c, 0, 8192
12, 6144000, End_track
13, 0, Start_track
13, 0, Title_t, "MIDI File Track 1 Ch12"
13, 0, Instrument_name_t, "MIDI File Track 1 Ch12"
13, 0, MIDI_port, 13
13, 0, Control_c, 0, 1, 0
13, 0, Control_c, 0, 11, 127
13, 0, Pitch_bend_c, 0, 8192
13, 6144000, End_track
14, 0, Start_track
14, 0, Title_t, "MIDI File Track 1 Ch13"
14, 0, Instrument_name_t, "MIDI File Track 1 Ch13"
14, 0, MIDI_port, 14
14, 0, Control_c, 0, 1, 0
14, 0, Control_c, 0, 11, 127
14, 0, Pitch_bend_c, 0, 8192
14, 6144000, End_track
15, 0, Start_track
15, 0, Title_t, "MIDI File Track 1 Ch14"
15, 0, Instrument_name_t, "MIDI File Track 1 Ch14"
15, 0, MIDI_port, 15
15, 0, Control_c, 0, 1, 0
15, 0, Control_c, 0, 11, 127
15, 0, Pitch_bend_c, 0, 8192
15, 6144000, End_track
16, 0, Start_track
16, 0, Title_t, "MIDI File Track 1 Ch15"
16, 0, Instrument_name_t, "MIDI File Track 1 Ch15"
16, 0, MIDI_port, 16
16, 0, Control_c, 0, 1, 0
16, 0, Control_c, 0, 11, 127
16, 0, Pitch_bend_c, 0, 8192
16, 587520, Note_on_c, 0, 57, 74
16, 587520, Note_on_c, 0, 62, 93
16, 619904, Note_off_c, 0, 62, 0
16, 619936, Note_off_c, 0, 57, 0
16, 6144000, End_track
17, 0, Start_track
17, 0, Title_t, "MIDI File Track 1 Ch16"
17, 0, Instrument_name_t, "MIDI File Track 1 Ch16"
17, 0, MIDI_port, 17
17, 0, Control_c, 0, 1, 0
17, 0, Control_c, 0, 11, 127
17, 0, Pitch_bend_c, 0, 8192
17, 551648, Note_on_c, 0, 59, 74
17, 551680, Note_on_c, 0, 64, 83
17, 583296, Note_on_c, 0, 74, 99
17, 598304, Note_on_c, 0, 52, 43
17, 611904, Note_off_c, 0, 64, 0
17, 612000, Note_off_c, 0, 59, 0
17, 612096, Note_off_c, 0, 52, 0
17, 612384, Note_off_c, 0, 74, 0
17, 6144000, End_track
0, 0, End_of_file
