0, 0, Header, 1, 41, 480
1, 0, Start_track
1, 0, Title_t, "The Challenger (Timmy) featuring Mrs. DuPriest"
1, 0, Time_signature, 4, 2, 24, 8
1, 0, Tempo, 272727
1, 0, End_track
2, 0, Start_track
2, 0, Title_t, "String Section 2"
2, 0, Instrument_name_t, "String Section Chamber"
2, 0, Program_c, 0, 48
2, 98400, Note_on_c, 0, 72, 76
2, 98400, Note_on_c, 0, 60, 76
2, 98880, Note_off_c, 0, 60, 0
2, 98880, Note_off_c, 0, 72, 0
2, 98880, Note_on_c, 0, 59, 76
2, 98880, Note_on_c, 0, 71, 76
2, 99360, Note_off_c, 0, 59, 0
2, 99360, Note_off_c, 0, 71, 0
2, 99360, Note_on_c, 0, 60, 77
2, 99360, Note_on_c, 0, 72, 77
2, 99840, Note_off_c, 0, 60, 0
2, 99840, Note_off_c, 0, 72, 0
2, 99840, Note_on_c, 0, 57, 77
2, 99840, Note_on_c, 0, 69, 77
2, 101280, Note_off_c, 0, 57, 0
2, 101280, Note_off_c, 0, 69, 0
2, 101280, Note_on_c, 0, 69, 86
2, 101280, Note_on_c, 0, 81, 86
2, 101760, Note_off_c, 0, 69, 0
2, 101760, Note_off_c, 0, 81, 0
2, 101760, Note_on_c, 0, 69, 88
2, 101760, Note_on_c, 0, 81, 88
2, 102720, Note_off_c, 0, 69, 0
2, 102720, Note_off_c, 0, 81, 0
2, 102720, Note_on_c, 0, 64, 76
2, 102720, Note_on_c, 0, 76, 76
2, 103200, Note_on_c, 0, 75, 74
2, 103200, Note_off_c, 0, 64, 0
2, 103200, Note_on_c, 0, 63, 74
2, 103200, Note_off_c, 0, 76, 0
2, 105120, Note_off_c, 0, 63, 0
2, 105120, Note_off_c, 0, 75, 0
2, 105120, Note_on_c, 0, 66, 77
2, 105120, Note_on_c, 0, 78, 77
2, 106080, Note_off_c, 0, 66, 0
2, 106080, Note_off_c, 0, 78, 0
2, 106080, Note_on_c, 0, 72, 81
2, 106080, Note_on_c, 0, 84, 81
2, 106560, Note_off_c, 0, 72, 0
2, 106560, Note_off_c, 0, 84, 0
2, 106560, Note_on_c, 0, 71, 79
2, 106560, Note_on_c, 0, 83, 79
2, 107040, Note_off_c, 0, 71, 0
2, 107040, Note_off_c, 0, 83, 0
2, 107040, Note_on_c, 0, 69, 75
2, 107040, Note_on_c, 0, 81, 75
2, 107520, Note_off_c, 0, 69, 0
2, 107520, Note_off_c, 0, 81, 0
2, 107520, Note_on_c, 0, 69, 79
2, 107520, Note_on_c, 0, 81, 79
2, 109680, Note_off_c, 0, 69, 0
2, 109680, Note_off_c, 0, 81, 0
2, 109920, Note_on_c, 0, 68, 75
2, 109920, Note_on_c, 0, 80, 75
2, 110400, Note_off_c, 0, 68, 0
2, 110400, Note_on_c, 0, 81, 77
2, 110400, Note_on_c, 0, 69, 77
2, 110400, Note_off_c, 0, 80, 0
2, 110880, Note_off_c, 0, 81, 0
2, 110880, Note_on_c, 0, 71, 79
2, 110880, Note_on_c, 0, 83, 79
2, 110880, Note_off_c, 0, 69, 0
2, 111360, Note_off_c, 0, 71, 0
2, 111360, Note_off_c, 0, 83, 0
2, 111360, Note_on_c, 0, 56, 69
2, 111360, Note_on_c, 0, 68, 69
2, 112080, Note_off_c, 0, 56, 0
2, 112080, Note_off_c, 0, 68, 0
2, 112080, Note_on_c, 0, 56, 66
2, 112080, Note_on_c, 0, 68, 66
2, 112320, Note_off_c, 0, 56, 0
2, 112320, Note_off_c, 0, 68, 0
2, 112800, Note_on_c, 0, 59, 72
2, 112800, Note_on_c, 0, 71, 72
2, 113520, Note_off_c, 0, 59, 0
2, 113520, Note_off_c, 0, 71, 0
2, 113520, Note_on_c, 0, 59, 74
2, 113520, Note_on_c, 0, 71, 74
2, 113760, Note_off_c, 0, 59, 0
2, 113760, Note_off_c, 0, 71, 0
2, 114240, Note_on_c, 0, 62, 80
2, 114240, Note_on_c, 0, 74, 80
2, 115200, Note_off_c, 0, 74, 0
2, 115200, Note_off_c, 0, 62, 0
2, 115200, End_track
3, 0, Start_track
3, 0, Title_t, "Who Is Who 1"
3, 0, Instrument_name_t, "Who Is Who 1"
3, 0, Program_c, 1, 27
3, 318981, Note_on_c, 1, 74, 80
3, 318998, Note_off_c, 1, 74, 0
3, 319000, Note_on_c, 1, 75, 80
3, 319017, Note_off_c, 1, 75, 0
3, 319020, Note_on_c, 1, 76, 80
3, 319037, Note_off_c, 1, 76, 0
3, 319041, Note_on_c, 1, 77, 80
3, 319058, Note_off_c, 1, 77, 0
3, 319060, Note_on_c, 1, 78, 80
3, 319077, Note_off_c, 1, 78, 0
3, 319080, Note_on_c, 1, 79, 80
3, 319097, Note_off_c, 1, 79, 0
3, 319101, Note_on_c, 1, 80, 80
3, 319118, Note_off_c, 1, 80, 0
3, 319120, Note_on_c, 1, 81, 80
3, 319137, Note_off_c, 1, 81, 0
3, 319140, Note_on_c, 1, 82, 80
3, 319157, Note_off_c, 1, 82, 0
3, 319161, Note_on_c, 1, 83, 80
3, 319178, Note_off_c, 1, 83, 0
3, 319180, Note_on_c, 1, 84, 80
3, 319197, Note_off_c, 1, 84, 0
3, 319200, Note_on_c, 1, 85, 80
3, 319217, Note_off_c, 1, 85, 0
3, 319221, Note_on_c, 1, 86, 80
3, 319496, Note_off_c, 1, 86, 0
3, 319496, End_track
4, 0, Start_track
4, 0, Title_t, "Flute 1"
4, 0, Instrument_name_t, "Flute"
4, 0, Program_c, 2, 0
4, 126435, Note_on_c, 2, 76, 80
4, 126435, Note_on_c, 2, 64, 80
4, 126525, Note_off_c, 2, 64, 0
4, 126525, Note_off_c, 2, 76, 0
4, 126551, Note_on_c, 2, 66, 80
4, 126551, Note_on_c, 2, 78, 80
4, 126610, Note_off_c, 2, 66, 0
4, 126610, Note_off_c, 2, 78, 0
4, 126629, Note_on_c, 2, 68, 80
4, 126629, Note_on_c, 2, 80, 80
4, 126689, Note_off_c, 2, 68, 0
4, 126689, Note_off_c, 2, 80, 0
4, 126707, Note_on_c, 2, 81, 80
4, 126707, Note_on_c, 2, 69, 80
4, 126771, Note_off_c, 2, 69, 0
4, 126771, Note_off_c, 2, 81, 0
4, 126791, Note_on_c, 2, 71, 80
4, 126791, Note_on_c, 2, 83, 80
4, 129638, Note_off_c, 2, 71, 0
4, 129638, Note_off_c, 2, 83, 0
4, 131599, Note_on_c, 2, 64, 91
4, 131599, Note_on_c, 2, 76, 91
4, 131695, Note_off_c, 2, 64, 0
4, 131695, Note_off_c, 2, 76, 0
4, 131722, Note_on_c, 2, 73, 88
4, 131722, Note_on_c, 2, 61, 88
4, 131811, Note_off_c, 2, 73, 0
4, 131811, Note_off_c, 2, 61, 0
4, 131838, Note_on_c, 2, 64, 88
4, 131838, Note_on_c, 2, 76, 88
4, 131927, Note_off_c, 2, 64, 0
4, 131927, Note_off_c, 2, 76, 0
4, 131954, Note_on_c, 2, 68, 88
4, 131954, Note_on_c, 2, 80, 88
4, 132048, Note_off_c, 2, 68, 0
4, 132048, Note_off_c, 2, 80, 0
4, 132075, Note_on_c, 2, 73, 89
4, 132075, Note_on_c, 2, 85, 89
4, 132168, Note_off_c, 2, 73, 0
4, 132168, Note_off_c, 2, 85, 0
4, 132195, Note_on_c, 2, 68, 88
4, 132195, Note_on_c, 2, 80, 88
4, 132285, Note_off_c, 2, 68, 0
4, 132285, Note_off_c, 2, 80, 0
4, 132311, Note_on_c, 2, 73, 88
4, 132311, Note_on_c, 2, 85, 88
4, 132401, Note_off_c, 2, 73, 0
4, 132401, Note_off_c, 2, 85, 0
4, 132428, Note_on_c, 2, 76, 88
4, 132428, Note_on_c, 2, 88, 88
4, 132522, Note_off_c, 2, 76, 0
4, 132522, Note_off_c, 2, 88, 0
4, 132551, Note_on_c, 2, 80, 93
4, 132551, Note_on_c, 2, 92, 93
4, 132662, Note_off_c, 2, 80, 0
4, 132662, Note_off_c, 2, 92, 0
4, 132688, Note_on_c, 2, 76, 88
4, 132688, Note_on_c, 2, 88, 88
4, 132778, Note_off_c, 2, 76, 0
4, 132778, Note_off_c, 2, 88, 0
4, 132805, Note_on_c, 2, 85, 88
4, 132805, Note_on_c, 2, 73, 88
4, 132895, Note_off_c, 2, 85, 0
4, 132895, Note_off_c, 2, 73, 0
4, 132922, Note_on_c, 2, 68, 88
4, 132922, Note_on_c, 2, 80, 88
4, 133016, Note_off_c, 2, 68, 0
4, 133016, Note_off_c, 2, 80, 0
4, 135439, Note_on_c, 2, 64, 91
4, 135439, Note_on_c, 2, 76, 91
4, 135535, Note_off_c, 2, 64, 0
4, 135535, Note_off_c, 2, 76, 0
4, 135562, Note_on_c, 2, 61, 88
4, 135562, Note_on_c, 2, 73, 88
4, 135651, Note_off_c, 2, 61, 0
4, 135651, Note_off_c, 2, 73, 0
4, 135678, Note_on_c, 2, 64, 88
4, 135678, Note_on_c, 2, 76, 88
4, 135767, Note_off_c, 2, 64, 0
4, 135767, Note_off_c, 2, 76, 0
4, 135794, Note_on_c, 2, 68, 88
4, 135794, Note_on_c, 2, 80, 88
4, 135888, Note_off_c, 2, 68, 0
4, 135888, Note_off_c, 2, 80, 0
4, 135915, Note_on_c, 2, 73, 89
4, 135915, Note_on_c, 2, 85, 89
4, 136008, Note_off_c, 2, 73, 0
4, 136008, Note_off_c, 2, 85, 0
4, 136035, Note_on_c, 2, 68, 88
4, 136035, Note_on_c, 2, 80, 88
4, 136125, Note_off_c, 2, 68, 0
4, 136125, Note_off_c, 2, 80, 0
4, 136151, Note_on_c, 2, 73, 88
4, 136151, Note_on_c, 2, 85, 88
4, 136241, Note_off_c, 2, 73, 0
4, 136241, Note_off_c, 2, 85, 0
4, 136268, Note_on_c, 2, 76, 88
4, 136268, Note_on_c, 2, 88, 88
4, 136362, Note_off_c, 2, 76, 0
4, 136362, Note_off_c, 2, 88, 0
4, 136391, Note_on_c, 2, 80, 93
4, 136391, Note_on_c, 2, 92, 93
4, 136502, Note_off_c, 2, 80, 0
4, 136502, Note_off_c, 2, 92, 0
4, 136528, Note_on_c, 2, 76, 88
4, 136528, Note_on_c, 2, 88, 88
4, 136618, Note_off_c, 2, 76, 0
4, 136618, Note_off_c, 2, 88, 0
4, 136645, Note_on_c, 2, 73, 88
4, 136645, Note_on_c, 2, 85, 88
4, 136735, Note_off_c, 2, 73, 0
4, 136735, Note_off_c, 2, 85, 0
4, 136762, Note_on_c, 2, 68, 88
4, 136762, Note_on_c, 2, 80, 88
4, 136856, Note_off_c, 2, 68, 0
4, 136856, Note_off_c, 2, 80, 0
4, 139279, Note_on_c, 2, 64, 91
4, 139279, Note_on_c, 2, 76, 91
4, 139375, Note_off_c, 2, 64, 0
4, 139375, Note_off_c, 2, 76, 0
4, 139402, Note_on_c, 2, 61, 88
4, 139402, Note_on_c, 2, 73, 88
4, 139491, Note_off_c, 2, 61, 0
4, 139491, Note_off_c, 2, 73, 0
4, 139518, Note_on_c, 2, 64, 88
4, 139518, Note_on_c, 2, 76, 88
4, 139607, Note_off_c, 2, 64, 0
4, 139607, Note_off_c, 2, 76, 0
4, 139634, Note_on_c, 2, 68, 88
4, 139634, Note_on_c, 2, 80, 88
4, 139728, Note_off_c, 2, 68, 0
4, 139728, Note_off_c, 2, 80, 0
4, 139755, Note_on_c, 2, 73, 89
4, 139755, Note_on_c, 2, 85, 89
4, 139848, Note_off_c, 2, 73, 0
4, 139848, Note_off_c, 2, 85, 0
4, 139875, Note_on_c, 2, 68, 88
4, 139875, Note_on_c, 2, 80, 88
4, 139965, Note_off_c, 2, 68, 0
4, 139965, Note_off_c, 2, 80, 0
4, 139991, Note_on_c, 2, 73, 88
4, 139991, Note_on_c, 2, 85, 88
4, 140081, Note_off_c, 2, 73, 0
4, 140081, Note_off_c, 2, 85, 0
4, 140108, Note_on_c, 2, 76, 88
4, 140108, Note_on_c, 2, 88, 88
4, 140202, Note_off_c, 2, 76, 0
4, 140202, Note_off_c, 2, 88, 0
4, 140231, Note_on_c, 2, 80, 93
4, 140231, Note_on_c, 2, 92, 93
4, 140342, Note_off_c, 2, 80, 0
4, 140342, Note_off_c, 2, 92, 0
4, 140368, Note_on_c, 2, 88, 88
4, 140368, Note_on_c, 2, 76, 88
4, 140458, Note_off_c, 2, 76, 0
4, 140458, Note_off_c, 2, 88, 0
4, 140485, Note_on_c, 2, 73, 88
4, 140485, Note_on_c, 2, 85, 88
4, 140575, Note_off_c, 2, 73, 0
4, 140575, Note_off_c, 2, 85, 0
4, 140602, Note_on_c, 2, 68, 88
4, 140602, Note_on_c, 2, 80, 88
4, 140696, Note_off_c, 2, 68, 0
4, 140696, Note_off_c, 2, 80, 0
4, 143119, Note_on_c, 2, 64, 91
4, 143119, Note_on_c, 2, 76, 91
4, 143215, Note_off_c, 2, 64, 0
4, 143215, Note_off_c, 2, 76, 0
4, 143242, Note_on_c, 2, 61, 88
4, 143242, Note_on_c, 2, 73, 88
4, 143331, Note_off_c, 2, 61, 0
4, 143331, Note_off_c, 2, 73, 0
4, 143358, Note_on_c, 2, 64, 88
4, 143358, Note_on_c, 2, 76, 88
4, 143447, Note_off_c, 2, 64, 0
4, 143447, Note_off_c, 2, 76, 0
4, 143474, Note_on_c, 2, 80, 88
4, 143474, Note_on_c, 2, 68, 88
4, 143568, Note_off_c, 2, 80, 0
4, 143568, Note_off_c, 2, 68, 0
4, 143595, Note_on_c, 2, 73, 89
4, 143595, Note_on_c, 2, 85, 89
4, 143688, Note_off_c, 2, 73, 0
4, 143688, Note_off_c, 2, 85, 0
4, 143715, Note_on_c, 2, 68, 88
4, 143715, Note_on_c, 2, 80, 88
4, 143805, Note_off_c, 2, 68, 0
4, 143805, Note_off_c, 2, 80, 0
4, 143831, Note_on_c, 2, 73, 88
4, 143831, Note_on_c, 2, 85, 88
4, 143921, Note_off_c, 2, 73, 0
4, 143921, Note_off_c, 2, 85, 0
4, 143948, Note_on_c, 2, 76, 88
4, 143948, Note_on_c, 2, 88, 88
4, 144042, Note_off_c, 2, 76, 0
4, 144042, Note_off_c, 2, 88, 0
4, 144071, Note_on_c, 2, 80, 93
4, 144071, Note_on_c, 2, 92, 93
4, 144182, Note_off_c, 2, 80, 0
4, 144182, Note_off_c, 2, 92, 0
4, 144208, Note_on_c, 2, 76, 88
4, 144208, Note_on_c, 2, 88, 88
4, 144298, Note_off_c, 2, 76, 0
4, 144298, Note_off_c, 2, 88, 0
4, 144325, Note_on_c, 2, 73, 88
4, 144325, Note_on_c, 2, 85, 88
4, 144415, Note_off_c, 2, 73, 0
4, 144415, Note_off_c, 2, 85, 0
4, 144442, Note_on_c, 2, 68, 88
4, 144442, Note_on_c, 2, 80, 88
4, 144536, Note_off_c, 2, 68, 0
4, 144536, Note_off_c, 2, 80, 0
4, 146959, Note_on_c, 2, 64, 91
4, 146959, Note_on_c, 2, 76, 91
4, 147055, Note_off_c, 2, 64, 0
4, 147055, Note_off_c, 2, 76, 0
4, 147082, Note_on_c, 2, 61, 88
4, 147082, Note_on_c, 2, 73, 88
4, 147171, Note_off_c, 2, 61, 0
4, 147171, Note_off_c, 2, 73, 0
4, 147198, Note_on_c, 2, 64, 88
4, 147198, Note_on_c, 2, 76, 88
4, 147287, Note_off_c, 2, 64, 0
4, 147287, Note_off_c, 2, 76, 0
4, 147314, Note_on_c, 2, 68, 88
4, 147314, Note_on_c, 2, 80, 88
4, 147408, Note_off_c, 2, 68, 0
4, 147408, Note_off_c, 2, 80, 0
4, 147435, Note_on_c, 2, 85, 89
4, 147435, Note_on_c, 2, 73, 89
4, 147528, Note_off_c, 2, 73, 0
4, 147528, Note_off_c, 2, 85, 0
4, 147555, Note_on_c, 2, 68, 88
4, 147555, Note_on_c, 2, 80, 88
4, 147645, Note_off_c, 2, 68, 0
4, 147645, Note_off_c, 2, 80, 0
4, 147671, Note_on_c, 2, 73, 88
4, 147671, Note_on_c, 2, 85, 88
4, 147761, Note_off_c, 2, 73, 0
4, 147761, Note_off_c, 2, 85, 0
4, 147788, Note_on_c, 2, 76, 88
4, 147788, Note_on_c, 2, 88, 88
4, 147882, Note_off_c, 2, 76, 0
4, 147882, Note_off_c, 2, 88, 0
4, 147911, Note_on_c, 2, 80, 93
4, 147911, Note_on_c, 2, 92, 93
4, 148022, Note_off_c, 2, 80, 0
4, 148022, Note_off_c, 2, 92, 0
4, 148048, Note_on_c, 2, 76, 88
4, 148048, Note_on_c, 2, 88, 88
4, 148138, Note_off_c, 2, 76, 0
4, 148138, Note_off_c, 2, 88, 0
4, 148165, Note_on_c, 2, 73, 88
4, 148165, Note_on_c, 2, 85, 88
4, 148255, Note_off_c, 2, 73, 0
4, 148255, Note_off_c, 2, 85, 0
4, 148282, Note_on_c, 2, 68, 88
4, 148282, Note_on_c, 2, 80, 88
4, 148376, Note_off_c, 2, 68, 0
4, 148376, Note_off_c, 2, 80, 0
4, 150799, Note_on_c, 2, 64, 91
4, 150799, Note_on_c, 2, 76, 91
4, 150895, Note_off_c, 2, 64, 0
4, 150895, Note_off_c, 2, 76, 0
4, 150922, Note_on_c, 2, 61, 88
4, 150922, Note_on_c, 2, 73, 88
4, 151011, Note_off_c, 2, 61, 0
4, 151011, Note_off_c, 2, 73, 0
4, 151038, Note_on_c, 2, 76, 88
4, 151038, Note_on_c, 2, 64, 88
4, 151127, Note_off_c, 2, 64, 0
4, 151127, Note_off_c, 2, 76, 0
4, 151154, Note_on_c, 2, 68, 88
4, 151154, Note_on_c, 2, 80, 88
4, 151248, Note_off_c, 2, 68, 0
4, 151248, Note_off_c, 2, 80, 0
4, 151275, Note_on_c, 2, 73, 89
4, 151275, Note_on_c, 2, 85, 89
4, 151368, Note_off_c, 2, 73, 0
4, 151368, Note_off_c, 2, 85, 0
4, 151395, Note_on_c, 2, 68, 88
4, 151395, Note_on_c, 2, 80, 88
4, 151485, Note_off_c, 2, 80, 0
4, 151485, Note_off_c, 2, 68, 0
4, 151511, Note_on_c, 2, 73, 88
4, 151511, Note_on_c, 2, 85, 88
4, 151601, Note_off_c, 2, 73, 0
4, 151601, Note_off_c, 2, 85, 0
4, 151628, Note_on_c, 2, 76, 88
4, 151628, Note_on_c, 2, 88, 88
4, 151722, Note_off_c, 2, 76, 0
4, 151722, Note_off_c, 2, 88, 0
4, 151751, Note_on_c, 2, 92, 93
4, 151751, Note_on_c, 2, 80, 93
4, 151862, Note_off_c, 2, 92, 0
4, 151862, Note_off_c, 2, 80, 0
4, 151888, Note_on_c, 2, 76, 88
4, 151888, Note_on_c, 2, 88, 88
4, 151978, Note_off_c, 2, 76, 0
4, 151978, Note_off_c, 2, 88, 0
4, 152005, Note_on_c, 2, 73, 88
4, 152005, Note_on_c, 2, 85, 88
4, 152095, Note_off_c, 2, 73, 0
4, 152095, Note_off_c, 2, 85, 0
4, 152122, Note_on_c, 2, 80, 88
4, 152122, Note_on_c, 2, 68, 88
4, 152216, Note_off_c, 2, 68, 0
4, 152216, Note_off_c, 2, 80, 0
4, 154639, Note_on_c, 2, 64, 91
4, 154639, Note_on_c, 2, 76, 91
4, 154735, Note_off_c, 2, 64, 0
4, 154735, Note_off_c, 2, 76, 0
4, 154762, Note_on_c, 2, 61, 88
4, 154762, Note_on_c, 2, 73, 88
4, 154851, Note_off_c, 2, 61, 0
4, 154851, Note_off_c, 2, 73, 0
4, 154878, Note_on_c, 2, 64, 88
4, 154878, Note_on_c, 2, 76, 88
4, 154967, Note_off_c, 2, 64, 0
4, 154967, Note_off_c, 2, 76, 0
4, 154994, Note_on_c, 2, 68, 88
4, 154994, Note_on_c, 2, 80, 88
4, 155088, Note_off_c, 2, 68, 0
4, 155088, Note_off_c, 2, 80, 0
4, 155115, Note_on_c, 2, 73, 89
4, 155115, Note_on_c, 2, 85, 89
4, 155208, Note_off_c, 2, 73, 0
4, 155208, Note_off_c, 2, 85, 0
4, 155235, Note_on_c, 2, 68, 88
4, 155235, Note_on_c, 2, 80, 88
4, 155325, Note_off_c, 2, 80, 0
4, 155325, Note_off_c, 2, 68, 0
4, 155351, Note_on_c, 2, 73, 88
4, 155351, Note_on_c, 2, 85, 88
4, 155441, Note_off_c, 2, 73, 0
4, 155441, Note_off_c, 2, 85, 0
4, 155468, Note_on_c, 2, 80, 88
4, 155468, Note_on_c, 2, 92, 88
4, 155562, Note_off_c, 2, 80, 0
4, 155562, Note_off_c, 2, 92, 0
4, 155591, Note_on_c, 2, 90, 93
4, 155591, Note_on_c, 2, 78, 93
4, 155702, Note_off_c, 2, 90, 0
4, 155702, Note_off_c, 2, 78, 0
4, 155728, Note_on_c, 2, 87, 88
4, 155728, Note_on_c, 2, 75, 88
4, 155818, Note_off_c, 2, 75, 0
4, 155818, Note_off_c, 2, 87, 0
4, 155845, Note_on_c, 2, 66, 88
4, 155845, Note_on_c, 2, 78, 88
4, 155935, Note_off_c, 2, 66, 0
4, 155935, Note_off_c, 2, 78, 0
4, 155962, Note_on_c, 2, 63, 88
4, 155962, Note_on_c, 2, 75, 88
4, 156056, Note_off_c, 2, 63, 0
4, 156056, Note_off_c, 2, 75, 0
4, 159431, Note_on_c, 2, 80, 96
4, 159431, Note_on_c, 2, 76, 93
4, 159882, Note_off_c, 2, 76, 0
4, 159882, Note_off_c, 2, 80, 0
4, 159923, Note_on_c, 2, 75, 89
4, 159923, Note_on_c, 2, 78, 92
4, 160358, Note_off_c, 2, 75, 0
4, 160358, Note_off_c, 2, 78, 0
4, 160399, Note_on_c, 2, 73, 91
4, 160399, Note_on_c, 2, 76, 94
4, 161240, Note_off_c, 2, 73, 0
4, 161240, Note_off_c, 2, 76, 0
4, 161351, Note_on_c, 2, 75, 96
4, 161351, Note_on_c, 2, 75, 93
4, 161358, Note_off_c, 2, 75, 0
4, 161358, Note_off_c, 2, 75, 0
4, 162319, Note_on_c, 2, 76, 94
4, 162319, Note_on_c, 2, 76, 91
4, 162326, Note_off_c, 2, 76, 0
4, 162326, Note_off_c, 2, 76, 0
4, 162795, Note_on_c, 2, 78, 89
4, 162795, Note_on_c, 2, 78, 92
4, 162802, Note_off_c, 2, 78, 0
4, 162802, Note_off_c, 2, 78, 0
4, 163271, Note_on_c, 2, 78, 93
4, 163271, Note_on_c, 2, 78, 96
4, 163278, Note_off_c, 2, 78, 0
4, 163278, Note_off_c, 2, 78, 0
4, 163763, Note_on_c, 2, 76, 89
4, 163763, Note_on_c, 2, 76, 92
4, 163770, Note_off_c, 2, 76, 0
4, 163771, Note_off_c, 2, 76, 0
4, 164239, Note_on_c, 2, 75, 94
4, 164239, Note_on_c, 2, 75, 91
4, 164246, Note_off_c, 2, 75, 0
4, 164246, Note_off_c, 2, 75, 0
4, 165191, Note_on_c, 2, 75, 96
4, 165191, Note_on_c, 2, 75, 93
4, 165198, Note_off_c, 2, 75, 0
4, 165198, Note_off_c, 2, 75, 0
4, 165683, Note_on_c, 2, 73, 92
4, 165683, Note_on_c, 2, 73, 89
4, 165690, Note_off_c, 2, 73, 0
4, 165691, Note_off_c, 2, 73, 0
4, 166159, Note_on_c, 2, 73, 94
4, 166159, Note_on_c, 2, 73, 91
4, 166166, Note_off_c, 2, 73, 0
4, 166166, Note_off_c, 2, 73, 0
4, 169031, Note_on_c, 2, 70, 92
4, 169031, Note_on_c, 2, 73, 83
4, 169483, Note_off_c, 2, 70, 0
4, 169483, Note_off_c, 2, 73, 0
4, 169523, Note_on_c, 2, 70, 88
4, 169523, Note_on_c, 2, 73, 79
4, 169959, Note_off_c, 2, 70, 0
4, 169959, Note_off_c, 2, 73, 0
4, 169999, Note_on_c, 2, 70, 90
4, 169999, Note_on_c, 2, 73, 81
4, 170435, Note_off_c, 2, 70, 0
4, 170435, Note_off_c, 2, 73, 0
4, 170475, Note_on_c, 2, 70, 88
4, 170475, Note_on_c, 2, 73, 79
4, 170909, Note_off_c, 2, 70, 0
4, 170909, Note_off_c, 2, 73, 0
4, 170951, Note_on_c, 2, 75, 83
4, 170951, Note_on_c, 2, 72, 92
4, 171403, Note_off_c, 2, 72, 0
4, 171403, Note_off_c, 2, 75, 0
4, 171443, Note_on_c, 2, 72, 88
4, 171443, Note_on_c, 2, 75, 79
4, 171879, Note_off_c, 2, 72, 0
4, 171879, Note_off_c, 2, 75, 0
4, 171919, Note_on_c, 2, 72, 90
4, 171919, Note_on_c, 2, 75, 81
4, 172355, Note_off_c, 2, 72, 0
4, 172355, Note_off_c, 2, 75, 0
4, 172395, Note_on_c, 2, 72, 88
4, 172395, Note_on_c, 2, 75, 79
4, 172829, Note_off_c, 2, 72, 0
4, 172829, Note_off_c, 2, 75, 0
4, 172871, Note_on_c, 2, 73, 83
4, 172871, Note_on_c, 2, 76, 87
4, 173323, Note_off_c, 2, 73, 0
4, 173363, Note_on_c, 2, 75, 79
4, 173799, Note_off_c, 2, 75, 0
4, 173839, Note_off_c, 2, 76, 0
4, 173839, Note_on_c, 2, 76, 81
4, 174275, Note_off_c, 2, 76, 0
4, 174315, Note_on_c, 2, 78, 114
4, 174749, Note_off_c, 2, 78, 0
4, 174791, Note_on_c, 2, 80, 113
4, 176669, Note_off_c, 2, 80, 0
4, 180551, Note_on_c, 2, 68, 93
4, 180551, Note_on_c, 2, 80, 93
4, 181479, Note_off_c, 2, 68, 0
4, 181479, Note_off_c, 2, 80, 0
4, 181519, Note_on_c, 2, 69, 91
4, 181519, Note_on_c, 2, 81, 91
4, 181955, Note_off_c, 2, 69, 0
4, 181955, Note_off_c, 2, 81, 0
4, 181995, Note_on_c, 2, 71, 89
4, 181995, Note_on_c, 2, 83, 89
4, 182429, Note_off_c, 2, 83, 0
4, 182429, Note_off_c, 2, 71, 0
4, 182471, Note_on_c, 2, 83, 93
4, 182471, Note_on_c, 2, 71, 93
4, 182923, Note_off_c, 2, 71, 0
4, 182923, Note_off_c, 2, 83, 0
4, 182963, Note_on_c, 2, 69, 89
4, 182963, Note_on_c, 2, 81, 89
4, 183399, Note_off_c, 2, 69, 0
4, 183399, Note_off_c, 2, 81, 0
4, 183439, Note_on_c, 2, 68, 91
4, 183439, Note_on_c, 2, 80, 91
4, 184349, Note_off_c, 2, 68, 0
4, 184349, Note_off_c, 2, 80, 0
4, 188723, Note_on_c, 2, 80, 89
4, 188723, Note_on_c, 2, 92, 89
4, 188817, Note_off_c, 2, 92, 0
4, 188817, Note_off_c, 2, 80, 0
4, 188844, Note_on_c, 2, 75, 88
4, 188844, Note_on_c, 2, 87, 88
4, 188933, Note_off_c, 2, 75, 0
4, 188933, Note_off_c, 2, 87, 0
4, 188960, Note_on_c, 2, 71, 88
4, 188960, Note_on_c, 2, 83, 88
4, 189049, Note_off_c, 2, 71, 0
4, 189049, Note_off_c, 2, 83, 0
4, 189076, Note_on_c, 2, 68, 88
4, 189076, Note_on_c, 2, 80, 88
4, 189172, Note_off_c, 2, 80, 0
4, 189172, Note_off_c, 2, 68, 0
4, 189675, Note_on_c, 2, 80, 89
4, 189675, Note_on_c, 2, 92, 89
4, 189768, Note_off_c, 2, 80, 0
4, 189768, Note_off_c, 2, 92, 0
4, 189795, Note_on_c, 2, 75, 88
4, 189795, Note_on_c, 2, 87, 88
4, 189885, Note_off_c, 2, 75, 0
4, 189885, Note_off_c, 2, 87, 0
4, 189911, Note_on_c, 2, 71, 88
4, 189911, Note_on_c, 2, 83, 88
4, 190001, Note_off_c, 2, 83, 0
4, 190001, Note_off_c, 2, 71, 0
4, 190028, Note_on_c, 2, 80, 88
4, 190028, Note_on_c, 2, 68, 88
4, 190122, Note_off_c, 2, 68, 0
4, 190122, Note_off_c, 2, 80, 0
4, 190643, Note_on_c, 2, 80, 89
4, 190643, Note_on_c, 2, 92, 89
4, 190737, Note_off_c, 2, 80, 0
4, 190737, Note_off_c, 2, 92, 0
4, 190764, Note_on_c, 2, 75, 88
4, 190764, Note_on_c, 2, 87, 88
4, 190853, Note_off_c, 2, 75, 0
4, 190853, Note_off_c, 2, 87, 0
4, 190880, Note_on_c, 2, 83, 88
4, 190880, Note_on_c, 2, 71, 88
4, 190969, Note_off_c, 2, 71, 0
4, 190969, Note_off_c, 2, 83, 0
4, 190996, Note_on_c, 2, 68, 88
4, 190996, Note_on_c, 2, 80, 88
4, 191092, Note_off_c, 2, 68, 0
4, 191092, Note_off_c, 2, 80, 0
4, 191595, Note_on_c, 2, 80, 89
4, 191595, Note_on_c, 2, 92, 93
4, 191688, Note_off_c, 2, 92, 0
4, 191688, Note_off_c, 2, 80, 0
4, 191715, Note_on_c, 2, 75, 88
4, 191715, Note_on_c, 2, 87, 92
4, 191805, Note_off_c, 2, 75, 0
4, 191805, Note_off_c, 2, 87, 0
4, 191831, Note_on_c, 2, 71, 88
4, 191831, Note_on_c, 2, 83, 92
4, 191921, Note_off_c, 2, 71, 0
4, 191921, Note_off_c, 2, 83, 0
4, 191948, Note_on_c, 2, 80, 92
4, 191948, Note_on_c, 2, 68, 88
4, 192042, Note_off_c, 2, 80, 0
4, 192042, Note_off_c, 2, 68, 0
4, 193039, Note_on_c, 2, 73, 125
4, 193711, Note_off_c, 2, 73, 0
4, 193751, Note_on_c, 2, 73, 110
4, 193826, Note_off_c, 2, 73, 0
4, 193868, Note_on_c, 2, 73, 110
4, 193991, Note_on_c, 2, 78, 111
4, 193996, Note_off_c, 2, 73, 0
4, 195869, Note_off_c, 2, 78, 0
4, 195911, Note_on_c, 2, 73, 108
4, 195911, Note_on_c, 2, 80, 97
4, 196839, Note_off_c, 2, 73, 0
4, 196839, Note_off_c, 2, 80, 0
4, 196879, Note_on_c, 2, 80, 95
4, 196879, Note_on_c, 2, 73, 106
4, 197315, Note_off_c, 2, 73, 0
4, 197315, Note_off_c, 2, 80, 0
4, 197355, Note_on_c, 2, 72, 104
4, 197355, Note_on_c, 2, 78, 93
4, 197789, Note_off_c, 2, 72, 0
4, 197789, Note_off_c, 2, 78, 0
4, 197831, Note_on_c, 2, 73, 108
4, 197831, Note_on_c, 2, 80, 97
4, 198283, Note_off_c, 2, 80, 0
4, 198283, Note_off_c, 2, 73, 0
4, 198323, Note_on_c, 2, 72, 104
4, 198323, Note_on_c, 2, 78, 93
4, 198759, Note_off_c, 2, 72, 0
4, 198759, Note_off_c, 2, 78, 0
4, 198799, Note_on_c, 2, 73, 106
4, 198799, Note_on_c, 2, 76, 95
4, 199709, Note_off_c, 2, 73, 0
4, 199709, Note_off_c, 2, 76, 0
4, 199751, Note_on_c, 2, 66, 97
4, 199751, Note_on_c, 2, 66, 108
4, 199758, Note_off_c, 2, 66, 0
4, 199758, Note_off_c, 2, 66, 0
4, 200005, Note_on_c, 2, 68, 92
4, 200005, Note_on_c, 2, 68, 103
4, 200012, Note_off_c, 2, 68, 0
4, 200012, Note_off_c, 2, 68, 0
4, 200243, Note_on_c, 2, 70, 93
4, 200243, Note_on_c, 2, 70, 104
4, 200250, Note_off_c, 2, 70, 0
4, 200251, Note_off_c, 2, 70, 0
4, 200480, Note_on_c, 2, 71, 92
4, 200480, Note_on_c, 2, 71, 103
4, 200487, Note_off_c, 2, 71, 0
4, 200487, Note_off_c, 2, 71, 0
4, 200719, Note_on_c, 2, 73, 106
4, 200719, Note_on_c, 2, 73, 95
4, 200726, Note_off_c, 2, 73, 0
4, 200726, Note_off_c, 2, 73, 0
4, 200958, Note_on_c, 2, 71, 92
4, 200958, Note_on_c, 2, 71, 103
4, 200965, Note_off_c, 2, 71, 0
4, 200965, Note_off_c, 2, 71, 0
4, 201195, Note_on_c, 2, 73, 93
4, 201195, Note_on_c, 2, 73, 104
4, 201202, Note_off_c, 2, 73, 0
4, 201202, Note_off_c, 2, 73, 0
4, 201431, Note_on_c, 2, 75, 103
4, 201431, Note_on_c, 2, 75, 92
4, 201438, Note_off_c, 2, 75, 0
4, 201439, Note_off_c, 2, 75, 0
4, 201671, Note_on_c, 2, 76, 97
4, 201671, Note_on_c, 2, 76, 108
4, 201678, Note_off_c, 2, 76, 0
4, 201678, Note_off_c, 2, 76, 0
4, 201925, Note_on_c, 2, 75, 103
4, 201925, Note_on_c, 2, 75, 92
4, 201932, Note_off_c, 2, 75, 0
4, 201932, Note_off_c, 2, 75, 0
4, 202163, Note_on_c, 2, 76, 104
4, 202163, Note_on_c, 2, 76, 93
4, 202170, Note_off_c, 2, 76, 0
4, 202171, Note_off_c, 2, 76, 0
4, 202400, Note_on_c, 2, 78, 92
4, 202400, Note_on_c, 2, 78, 103
4, 202407, Note_off_c, 2, 78, 0
4, 202407, Note_off_c, 2, 78, 0
4, 202639, Note_on_c, 2, 80, 95
4, 202639, Note_on_c, 2, 80, 106
4, 202646, Note_off_c, 2, 80, 0
4, 202646, Note_off_c, 2, 80, 0
4, 202878, Note_on_c, 2, 82, 92
4, 202878, Note_on_c, 2, 82, 103
4, 202885, Note_off_c, 2, 82, 0
4, 202885, Note_off_c, 2, 82, 0
4, 203115, Note_on_c, 2, 83, 93
4, 203115, Note_on_c, 2, 83, 104
4, 203122, Note_off_c, 2, 83, 0
4, 203122, Note_off_c, 2, 83, 0
4, 203351, Note_on_c, 2, 84, 92
4, 203351, Note_on_c, 2, 84, 103
4, 203358, Note_off_c, 2, 84, 0
4, 203359, Note_off_c, 2, 84, 0
4, 203591, Note_on_c, 2, 64, 103
4, 203591, Note_on_c, 2, 69, 92
4, 205469, Note_off_c, 2, 69, 0
4, 205469, Note_off_c, 2, 64, 0
4, 205511, Note_on_c, 2, 63, 103
4, 205511, Note_on_c, 2, 66, 92
4, 207389, Note_off_c, 2, 63, 0
4, 207389, Note_off_c, 2, 66, 0
4, 207431, Note_on_c, 2, 68, 108
4, 207431, Note_on_c, 2, 71, 97
4, 208359, Note_off_c, 2, 68, 0
4, 208359, Note_off_c, 2, 71, 0
4, 208399, Note_on_c, 2, 71, 95
4, 208399, Note_on_c, 2, 68, 106
4, 208835, Note_off_c, 2, 71, 0
4, 208835, Note_off_c, 2, 68, 0
4, 208875, Note_on_c, 2, 73, 93
4, 208875, Note_on_c, 2, 69, 104
4, 209309, Note_off_c, 2, 69, 0
4, 209309, Note_off_c, 2, 73, 0
4, 209351, Note_on_c, 2, 68, 108
4, 209351, Note_on_c, 2, 71, 97
4, 209803, Note_off_c, 2, 68, 0
4, 209803, Note_off_c, 2, 71, 0
4, 209843, Note_on_c, 2, 66, 104
4, 209843, Note_on_c, 2, 69, 93
4, 210279, Note_off_c, 2, 66, 0
4, 210279, Note_off_c, 2, 69, 0
4, 210319, Note_on_c, 2, 68, 95
4, 210319, Note_on_c, 2, 64, 106
4, 211229, Note_off_c, 2, 64, 0
4, 211229, Note_off_c, 2, 68, 0
4, 211271, Note_on_c, 2, 71, 108
4, 211271, Note_on_c, 2, 75, 97
4, 212199, Note_off_c, 2, 71, 0
4, 212199, Note_off_c, 2, 75, 0
4, 212239, Note_on_c, 2, 71, 106
4, 212239, Note_on_c, 2, 75, 95
4, 212675, Note_off_c, 2, 75, 0
4, 212675, Note_off_c, 2, 71, 0
4, 212715, Note_on_c, 2, 73, 104
4, 212715, Note_on_c, 2, 75, 93
4, 213149, Note_off_c, 2, 73, 0
4, 213149, Note_off_c, 2, 75, 0
4, 213191, Note_on_c, 2, 71, 108
4, 213191, Note_on_c, 2, 74, 97
4, 214119, Note_off_c, 2, 71, 0
4, 214119, Note_off_c, 2, 74, 0
4, 214159, Note_on_c, 2, 74, 95
4, 214159, Note_on_c, 2, 69, 106
4, 214595, Note_off_c, 2, 69, 0
4, 214595, Note_off_c, 2, 74, 0
4, 214635, Note_on_c, 2, 74, 93
4, 214635, Note_on_c, 2, 68, 104
4, 215069, Note_off_c, 2, 68, 0
4, 215069, Note_off_c, 2, 74, 0
4, 215111, Note_on_c, 2, 69, 108
4, 215111, Note_on_c, 2, 73, 97
4, 216039, Note_off_c, 2, 69, 0
4, 216039, Note_off_c, 2, 73, 0
4, 216079, Note_on_c, 2, 66, 106
4, 216079, Note_on_c, 2, 73, 95
4, 216515, Note_off_c, 2, 66, 0
4, 216515, Note_off_c, 2, 73, 0
4, 216555, Note_on_c, 2, 73, 93
4, 216555, Note_on_c, 2, 68, 104
4, 216989, Note_off_c, 2, 68, 0
4, 216989, Note_off_c, 2, 73, 0
4, 217031, Note_on_c, 2, 69, 108
4, 217031, Note_on_c, 2, 73, 97
4, 217959, Note_off_c, 2, 69, 0
4, 217959, Note_off_c, 2, 73, 0
4, 217999, Note_on_c, 2, 68, 106
4, 217999, Note_on_c, 2, 71, 95
4, 218435, Note_off_c, 2, 68, 0
4, 218435, Note_off_c, 2, 71, 0
4, 218475, Note_on_c, 2, 69, 93
4, 218475, Note_on_c, 2, 66, 104
4, 218909, Note_off_c, 2, 69, 0
4, 218909, Note_off_c, 2, 66, 0
4, 218951, Note_on_c, 2, 66, 108
4, 218951, Note_on_c, 2, 69, 97
4, 219403, Note_off_c, 2, 66, 0
4, 219403, Note_off_c, 2, 69, 0
4, 219443, Note_on_c, 2, 64, 104
4, 219443, Note_on_c, 2, 68, 93
4, 219879, Note_off_c, 2, 64, 0
4, 219879, Note_off_c, 2, 68, 0
4, 219919, Note_on_c, 2, 68, 106
4, 219919, Note_on_c, 2, 71, 95
4, 222749, Note_off_c, 2, 68, 0
4, 222749, Note_off_c, 2, 71, 0
4, 222791, Note_on_c, 2, 80, 97
4, 222791, Note_on_c, 2, 80, 97
4, 222798, Note_off_c, 2, 80, 0
4, 222798, Note_off_c, 2, 80, 0
4, 223759, Note_on_c, 2, 80, 95
4, 223759, Note_on_c, 2, 80, 95
4, 223766, Note_off_c, 2, 80, 0
4, 223766, Note_off_c, 2, 80, 0
4, 224235, Note_on_c, 2, 81, 93
4, 224235, Note_on_c, 2, 81, 93
4, 224242, Note_off_c, 2, 81, 0
4, 224242, Note_off_c, 2, 81, 0
4, 224711, Note_on_c, 2, 80, 97
4, 224711, Note_on_c, 2, 80, 97
4, 224718, Note_off_c, 2, 80, 0
4, 224718, Note_off_c, 2, 80, 0
4, 225203, Note_on_c, 2, 78, 93
4, 225203, Note_on_c, 2, 78, 93
4, 225210, Note_off_c, 2, 78, 0
4, 225211, Note_off_c, 2, 78, 0
4, 225679, Note_on_c, 2, 76, 95
4, 225679, Note_on_c, 2, 76, 95
4, 225686, Note_off_c, 2, 76, 0
4, 225686, Note_off_c, 2, 76, 0
4, 226631, Note_on_c, 2, 83, 97
4, 226631, Note_on_c, 2, 83, 97
4, 226638, Note_off_c, 2, 83, 0
4, 226638, Note_off_c, 2, 83, 0
4, 227599, Note_on_c, 2, 83, 95
4, 227599, Note_on_c, 2, 83, 95
4, 227606, Note_off_c, 2, 83, 0
4, 227606, Note_off_c, 2, 83, 0
4, 228075, Note_on_c, 2, 85, 93
4, 228075, Note_on_c, 2, 85, 93
4, 228082, Note_off_c, 2, 85, 0
4, 228082, Note_off_c, 2, 85, 0
4, 228551, Note_on_c, 2, 83, 97
4, 228551, Note_on_c, 2, 83, 97
4, 228558, Note_off_c, 2, 83, 0
4, 228558, Note_off_c, 2, 83, 0
4, 229519, Note_on_c, 2, 81, 95
4, 229519, Note_on_c, 2, 81, 95
4, 229526, Note_off_c, 2, 81, 0
4, 229526, Note_off_c, 2, 81, 0
4, 229995, Note_on_c, 2, 80, 93
4, 229995, Note_on_c, 2, 80, 93
4, 230002, Note_off_c, 2, 80, 0
4, 230002, Note_off_c, 2, 80, 0
4, 230471, Note_on_c, 2, 81, 97
4, 230471, Note_on_c, 2, 81, 97
4, 230478, Note_off_c, 2, 81, 0
4, 230478, Note_off_c, 2, 81, 0
4, 231439, Note_on_c, 2, 78, 95
4, 231439, Note_on_c, 2, 78, 95
4, 231446, Note_off_c, 2, 78, 0
4, 231446, Note_off_c, 2, 78, 0
4, 231915, Note_on_c, 2, 80, 93
4, 231915, Note_on_c, 2, 80, 93
4, 231922, Note_off_c, 2, 80, 0
4, 231922, Note_off_c, 2, 80, 0
4, 232391, Note_on_c, 2, 81, 97
4, 232391, Note_on_c, 2, 81, 97
4, 232398, Note_off_c, 2, 81, 0
4, 232398, Note_off_c, 2, 81, 0
4, 233359, Note_on_c, 2, 78, 95
4, 233359, Note_on_c, 2, 78, 95
4, 233366, Note_off_c, 2, 78, 0
4, 233366, Note_off_c, 2, 78, 0
4, 234311, Note_on_c, 2, 76, 92
4, 234311, Note_on_c, 2, 76, 92
4, 234318, Note_off_c, 2, 76, 0
4, 234318, Note_off_c, 2, 76, 0
4, 236231, Note_on_c, 2, 81, 92
4, 236231, Note_on_c, 2, 81, 97
4, 236238, Note_off_c, 2, 81, 0
4, 236238, Note_off_c, 2, 81, 0
4, 236723, Note_on_c, 2, 80, 93
4, 237158, Note_off_c, 2, 80, 0
4, 237199, Note_on_c, 2, 78, 95
4, 237633, Note_off_c, 2, 78, 0
4, 237675, Note_on_c, 2, 76, 93
4, 238108, Note_off_c, 2, 76, 0
4, 238151, Note_on_c, 2, 76, 97
4, 238151, Note_on_c, 2, 79, 97
4, 239078, Note_off_c, 2, 76, 0
4, 239078, Note_off_c, 2, 79, 0
4, 239119, Note_on_c, 2, 72, 88
4, 239119, Note_on_c, 2, 76, 88
4, 241869, Note_off_c, 2, 72, 0
4, 241869, Note_off_c, 2, 76, 0
4, 242483, Note_on_c, 2, 79, 127
4, 242483, Note_on_c, 2, 79, 117
4, 242490, Note_off_c, 2, 79, 0
4, 242491, Note_off_c, 2, 79, 0
4, 243435, Note_on_c, 2, 81, 127
4, 243435, Note_on_c, 2, 81, 117
4, 243442, Note_off_c, 2, 81, 0
4, 243442, Note_off_c, 2, 81, 0
4, 243911, Note_on_c, 2, 84, 127
4, 243911, Note_on_c, 2, 84, 121
4, 243918, Note_off_c, 2, 84, 0
4, 243918, Note_off_c, 2, 84, 0
4, 244403, Note_on_c, 2, 82, 127
4, 244403, Note_on_c, 2, 82, 117
4, 244410, Note_off_c, 2, 82, 0
4, 244411, Note_off_c, 2, 82, 0
4, 244879, Note_on_c, 2, 81, 127
4, 244879, Note_on_c, 2, 81, 119
4, 244886, Note_off_c, 2, 81, 0
4, 244886, Note_off_c, 2, 81, 0
4, 245355, Note_on_c, 2, 79, 127
4, 245355, Note_on_c, 2, 79, 117
4, 245362, Note_off_c, 2, 79, 0
4, 245362, Note_off_c, 2, 79, 0
4, 245831, Note_on_c, 2, 82, 121
4, 245831, Note_on_c, 2, 82, 127
4, 245838, Note_off_c, 2, 82, 0
4, 245838, Note_off_c, 2, 82, 0
4, 246799, Note_on_c, 2, 79, 127
4, 246799, Note_on_c, 2, 79, 119
4, 246806, Note_off_c, 2, 79, 0
4, 246806, Note_off_c, 2, 79, 0
4, 248719, Note_on_c, 2, 84, 119
4, 248719, Note_on_c, 2, 84, 121
4, 248726, Note_off_c, 2, 84, 0
4, 248726, Note_off_c, 2, 84, 0
4, 249671, Note_on_c, 2, 83, 118
4, 249671, Note_on_c, 2, 83, 116
4, 249678, Note_off_c, 2, 83, 0
4, 249678, Note_off_c, 2, 83, 0
4, 252559, Note_on_c, 2, 84, 119
4, 252559, Note_on_c, 2, 84, 121
4, 252566, Note_off_c, 2, 84, 0
4, 252566, Note_off_c, 2, 84, 0
4, 253511, Note_on_c, 2, 83, 116
4, 253511, Note_on_c, 2, 83, 118
4, 253518, Note_off_c, 2, 83, 0
4, 253518, Note_off_c, 2, 83, 0
4, 256399, Note_on_c, 2, 84, 121
4, 256399, Note_on_c, 2, 84, 119
4, 256406, Note_off_c, 2, 84, 0
4, 256406, Note_off_c, 2, 84, 0
4, 257351, Note_on_c, 2, 71, 119
4, 257351, Note_on_c, 2, 71, 121
4, 257358, Note_off_c, 2, 71, 0
4, 257358, Note_off_c, 2, 71, 0
4, 257605, Note_on_c, 2, 67, 116
4, 257605, Note_on_c, 2, 71, 114
4, 257695, Note_off_c, 2, 67, 0
4, 257695, Note_off_c, 2, 71, 0
4, 257722, Note_on_c, 2, 72, 114
4, 257722, Note_on_c, 2, 69, 116
4, 257816, Note_off_c, 2, 69, 0
4, 257816, Note_off_c, 2, 72, 0
4, 257843, Note_on_c, 2, 71, 117
4, 257843, Note_on_c, 2, 74, 115
4, 257937, Note_off_c, 2, 71, 0
4, 257937, Note_off_c, 2, 74, 0
4, 257964, Note_on_c, 2, 72, 116
4, 257964, Note_on_c, 2, 76, 114
4, 258053, Note_off_c, 2, 72, 0
4, 258053, Note_off_c, 2, 76, 0
4, 258080, Note_on_c, 2, 74, 116
4, 258080, Note_on_c, 2, 77, 114
4, 258169, Note_off_c, 2, 74, 0
4, 258169, Note_off_c, 2, 77, 0
4, 258196, Note_on_c, 2, 76, 116
4, 258196, Note_on_c, 2, 79, 114
4, 258292, Note_off_c, 2, 76, 0
4, 258292, Note_off_c, 2, 79, 0
4, 258319, Note_on_c, 2, 78, 119
4, 258319, Note_on_c, 2, 81, 117
4, 258415, Note_off_c, 2, 78, 0
4, 258415, Note_off_c, 2, 81, 0
4, 258442, Note_on_c, 2, 74, 116
4, 258442, Note_on_c, 2, 78, 114
4, 258531, Note_off_c, 2, 78, 0
4, 258531, Note_off_c, 2, 74, 0
4, 258558, Note_on_c, 2, 76, 116
4, 258558, Note_on_c, 2, 79, 114
4, 258647, Note_off_c, 2, 76, 0
4, 258647, Note_off_c, 2, 79, 0
4, 258674, Note_on_c, 2, 78, 116
4, 258674, Note_on_c, 2, 81, 114
4, 258768, Note_off_c, 2, 78, 0
4, 258768, Note_off_c, 2, 81, 0
4, 258795, Note_on_c, 2, 83, 115
4, 258795, Note_on_c, 2, 79, 117
4, 258888, Note_off_c, 2, 83, 0
4, 258888, Note_off_c, 2, 79, 0
4, 258915, Note_on_c, 2, 84, 114
4, 258915, Note_on_c, 2, 81, 116
4, 259005, Note_off_c, 2, 81, 0
4, 259005, Note_off_c, 2, 84, 0
4, 259031, Note_on_c, 2, 83, 116
4, 259031, Note_on_c, 2, 86, 114
4, 259121, Note_off_c, 2, 83, 0
4, 259121, Note_off_c, 2, 86, 0
4, 259148, Note_on_c, 2, 84, 116
4, 259148, Note_on_c, 2, 88, 114
4, 259242, Note_off_c, 2, 84, 0
4, 259242, Note_off_c, 2, 88, 0
4, 259269, Note_on_c, 2, 86, 121
4, 259269, Note_on_c, 2, 89, 119
4, 259414, Note_on_c, 2, 88, 116
4, 259432, Note_off_c, 2, 86, 0
4, 259438, Note_on_c, 2, 90, 114
4, 259458, Note_off_c, 2, 89, 0
4, 259543, Note_on_c, 2, 86, 116
4, 259558, Note_off_c, 2, 88, 0
4, 259583, Note_on_c, 2, 89, 114
4, 259600, Note_off_c, 2, 90, 0
4, 259655, Note_on_c, 2, 88, 116
4, 259668, Note_off_c, 2, 86, 0
4, 259703, Note_on_c, 2, 90, 114
4, 259717, Note_off_c, 2, 89, 0
4, 259750, Note_on_c, 2, 86, 116
4, 259762, Note_off_c, 2, 88, 0
4, 259799, Note_on_c, 2, 89, 114
4, 259810, Note_off_c, 2, 90, 0
4, 259840, Note_on_c, 2, 88, 116
4, 259850, Note_off_c, 2, 86, 0
4, 259885, Note_on_c, 2, 90, 114
4, 259896, Note_off_c, 2, 89, 0
4, 259929, Note_on_c, 2, 86, 116
4, 259940, Note_off_c, 2, 88, 0
4, 259972, Note_on_c, 2, 89, 114
4, 259982, Note_off_c, 2, 90, 0
4, 260019, Note_on_c, 2, 88, 116
4, 260029, Note_off_c, 2, 86, 0
4, 260059, Note_on_c, 2, 90, 114
4, 260069, Note_off_c, 2, 89, 0
4, 260109, Note_on_c, 2, 86, 116
4, 260119, Note_off_c, 2, 88, 0
4, 260146, Note_on_c, 2, 89, 114
4, 260156, Note_off_c, 2, 90, 0
4, 260198, Note_on_c, 2, 88, 116
4, 260208, Note_off_c, 2, 86, 0
4, 260232, Note_on_c, 2, 90, 114
4, 260243, Note_off_c, 2, 89, 0
4, 260288, Note_on_c, 2, 86, 116
4, 260298, Note_off_c, 2, 88, 0
4, 260319, Note_on_c, 2, 89, 114
4, 260329, Note_off_c, 2, 90, 0
4, 260377, Note_on_c, 2, 88, 116
4, 260387, Note_off_c, 2, 86, 0
4, 260406, Note_on_c, 2, 90, 114
4, 260416, Note_off_c, 2, 89, 0
4, 260467, Note_on_c, 2, 86, 116
4, 260477, Note_off_c, 2, 88, 0
4, 260492, Note_on_c, 2, 89, 114
4, 260503, Note_off_c, 2, 90, 0
4, 260556, Note_on_c, 2, 88, 116
4, 260567, Note_off_c, 2, 86, 0
4, 260579, Note_on_c, 2, 90, 114
4, 260589, Note_off_c, 2, 89, 0
4, 260646, Note_on_c, 2, 86, 116
4, 260656, Note_off_c, 2, 88, 0
4, 260666, Note_on_c, 2, 89, 114
4, 260676, Note_off_c, 2, 90, 0
4, 260735, Note_on_c, 2, 88, 116
4, 260746, Note_off_c, 2, 86, 0
4, 260753, Note_on_c, 2, 90, 114
4, 260763, Note_off_c, 2, 89, 0
4, 260825, Note_on_c, 2, 86, 116
4, 260835, Note_off_c, 2, 88, 0
4, 260839, Note_on_c, 2, 89, 114
4, 260850, Note_off_c, 2, 90, 0
4, 260914, Note_on_c, 2, 88, 116
4, 260925, Note_off_c, 2, 86, 0
4, 260926, Note_on_c, 2, 90, 114
4, 260936, Note_off_c, 2, 89, 0
4, 261004, Note_on_c, 2, 86, 116
4, 261013, Note_on_c, 2, 89, 114
4, 261014, Note_off_c, 2, 88, 0
4, 261023, Note_off_c, 2, 90, 0
4, 261093, Note_on_c, 2, 88, 116
4, 261099, Note_on_c, 2, 90, 114
4, 261104, Note_off_c, 2, 86, 0
4, 261110, Note_off_c, 2, 89, 0
4, 261191, Note_on_c, 2, 79, 127
4, 261191, Note_on_c, 2, 91, 127
4, 261199, Note_off_c, 2, 90, 0
4, 261200, Note_off_c, 2, 88, 0
4, 261443, Note_off_c, 2, 79, 0
4, 261443, Note_off_c, 2, 91, 0
4, 261683, Note_on_c, 2, 67, 127
4, 261683, Note_on_c, 2, 79, 127
4, 261792, Note_off_c, 2, 67, 0
4, 261792, Note_off_c, 2, 79, 0
4, 261843, Note_on_c, 2, 67, 127
4, 261843, Note_on_c, 2, 79, 127
4, 261946, Note_off_c, 2, 67, 0
4, 261946, Note_off_c, 2, 79, 0
4, 261997, Note_on_c, 2, 67, 127
4, 261997, Note_on_c, 2, 79, 127
4, 262108, Note_off_c, 2, 67, 0
4, 262108, Note_off_c, 2, 79, 0
4, 262159, Note_on_c, 2, 67, 127
4, 262159, Note_on_c, 2, 79, 127
4, 262593, Note_off_c, 2, 67, 0
4, 262593, Note_off_c, 2, 79, 0
4, 262593, End_track
5, 0, Start_track
5, 0, Title_t, "Celesta"
5, 0, Instrument_name_t, "Celesta"
5, 0, Program_c, 3, 0
5, 320460, Note_on_c, 3, 86, 80
5, 320641, Note_off_c, 3, 86, 0
5, 320652, Note_on_c, 3, 91, 80
5, 320771, Note_off_c, 3, 91, 0
5, 320940, Note_on_c, 3, 86, 80
5, 321121, Note_off_c, 3, 86, 0
5, 321132, Note_on_c, 3, 91, 80
5, 321251, Note_off_c, 3, 91, 0
5, 321251, End_track
6, 0, Start_track
6, 0, Title_t, "Vanilla"
6, 0, Instrument_name_t, "Vanilla"
6, 0, Program_c, 9, 0
6, 126720, Note_on_c, 9, 36, 127
6, 126720, Note_on_c, 9, 42, 127
6, 126840, Note_off_c, 9, 36, 0
6, 126840, Note_off_c, 9, 42, 0
6, 127200, Note_on_c, 9, 42, 127
6, 127320, Note_off_c, 9, 42, 0
6, 127680, Note_on_c, 9, 38, 127
6, 127680, Note_on_c, 9, 42, 127
6, 127800, Note_off_c, 9, 38, 0
6, 127800, Note_off_c, 9, 42, 0
6, 128160, Note_on_c, 9, 36, 127
6, 128160, Note_on_c, 9, 42, 127
6, 128280, Note_off_c, 9, 36, 0
6, 128280, Note_off_c, 9, 42, 0
6, 128640, Note_on_c, 9, 36, 127
6, 128640, Note_on_c, 9, 42, 127
6, 128760, Note_off_c, 9, 36, 0
6, 128760, Note_off_c, 9, 42, 0
6, 129120, Note_on_c, 9, 42, 127
6, 129240, Note_off_c, 9, 42, 0
6, 129600, Note_on_c, 9, 38, 127
6, 129600, Note_on_c, 9, 42, 127
6, 129720, Note_off_c, 9, 38, 0
6, 129720, Note_off_c, 9, 42, 0
6, 130080, Note_on_c, 9, 36, 127
6, 130080, Note_on_c, 9, 42, 127
6, 130200, Note_off_c, 9, 36, 0
6, 130200, Note_off_c, 9, 42, 0
6, 130560, Note_on_c, 9, 36, 127
6, 130560, Note_on_c, 9, 42, 127
6, 130680, Note_off_c, 9, 36, 0
6, 130680, Note_off_c, 9, 42, 0
6, 131040, Note_on_c, 9, 42, 127
6, 131160, Note_off_c, 9, 42, 0
6, 131520, Note_on_c, 9, 38, 127
6, 131520, Note_on_c, 9, 42, 127
6, 131640, Note_off_c, 9, 38, 0
6, 131640, Note_off_c, 9, 42, 0
6, 132000, Note_on_c, 9, 36, 127
6, 132000, Note_on_c, 9, 42, 127
6, 132120, Note_off_c, 9, 36, 0
6, 132120, Note_off_c, 9, 42, 0
6, 132480, Note_on_c, 9, 42, 127
6, 132480, Note_on_c, 9, 36, 127
6, 132600, Note_off_c, 9, 42, 0
6, 132600, Note_off_c, 9, 36, 0
6, 132960, Note_on_c, 9, 42, 127
6, 133080, Note_off_c, 9, 42, 0
6, 133440, Note_on_c, 9, 38, 127
6, 133440, Note_on_c, 9, 42, 127
6, 133560, Note_off_c, 9, 38, 0
6, 133560, Note_off_c, 9, 42, 0
6, 133920, Note_on_c, 9, 36, 127
6, 133920, Note_on_c, 9, 42, 127
6, 134040, Note_off_c, 9, 36, 0
6, 134040, Note_off_c, 9, 42, 0
6, 134400, Note_on_c, 9, 36, 127
6, 134400, Note_on_c, 9, 42, 127
6, 134520, Note_off_c, 9, 36, 0
6, 134520, Note_off_c, 9, 42, 0
6, 134880, Note_on_c, 9, 42, 127
6, 135000, Note_off_c, 9, 42, 0
6, 135360, Note_on_c, 9, 42, 127
6, 135360, Note_on_c, 9, 38, 127
6, 135480, Note_off_c, 9, 38, 0
6, 135480, Note_off_c, 9, 42, 0
6, 135840, Note_on_c, 9, 36, 127
6, 135840, Note_on_c, 9, 42, 127
6, 135960, Note_off_c, 9, 36, 0
6, 135960, Note_off_c, 9, 42, 0
6, 136320, Note_on_c, 9, 36, 127
6, 136320, Note_on_c, 9, 42, 127
6, 136440, Note_off_c, 9, 36, 0
6, 136440, Note_off_c, 9, 42, 0
6, 136800, Note_on_c, 9, 42, 127
6, 136920, Note_off_c, 9, 42, 0
6, 137280, Note_on_c, 9, 38, 127
6, 137280, Note_on_c, 9, 42, 127
6, 137400, Note_off_c, 9, 38, 0
6, 137400, Note_off_c, 9, 42, 0
6, 137760, Note_on_c, 9, 36, 127
6, 137760, Note_on_c, 9, 42, 127
6, 137880, Note_off_c, 9, 36, 0
6, 137880, Note_off_c, 9, 42, 0
6, 138240, Note_on_c, 9, 36, 127
6, 138240, Note_on_c, 9, 42, 127
6, 138360, Note_off_c, 9, 36, 0
6, 138360, Note_off_c, 9, 42, 0
6, 138720, Note_on_c, 9, 42, 127
6, 138840, Note_off_c, 9, 42, 0
6, 139200, Note_on_c, 9, 38, 127
6, 139200, Note_on_c, 9, 42, 127
6, 139320, Note_off_c, 9, 38, 0
6, 139320, Note_off_c, 9, 42, 0
6, 139680, Note_on_c, 9, 36, 127
6, 139680, Note_on_c, 9, 42, 127
6, 139800, Note_off_c, 9, 36, 0
6, 139800, Note_off_c, 9, 42, 0
6, 140160, Note_on_c, 9, 36, 127
6, 140160, Note_on_c, 9, 42, 127
6, 140280, Note_off_c, 9, 36, 0
6, 140280, Note_off_c, 9, 42, 0
6, 140640, Note_on_c, 9, 42, 127
6, 140760, Note_off_c, 9, 42, 0
6, 141120, Note_on_c, 9, 38, 127
6, 141120, Note_on_c, 9, 42, 127
6, 141240, Note_off_c, 9, 38, 0
6, 141240, Note_off_c, 9, 42, 0
6, 141600, Note_on_c, 9, 36, 127
6, 141600, Note_on_c, 9, 42, 127
6, 141720, Note_off_c, 9, 36, 0
6, 141720, Note_off_c, 9, 42, 0
6, 142080, Note_on_c, 9, 36, 127
6, 142080, Note_on_c, 9, 42, 127
6, 142200, Note_off_c, 9, 36, 0
6, 142200, Note_off_c, 9, 42, 0
6, 142560, Note_on_c, 9, 42, 127
6, 142680, Note_off_c, 9, 42, 0
6, 143040, Note_on_c, 9, 38, 127
6, 143040, Note_on_c, 9, 42, 127
6, 143160, Note_off_c, 9, 38, 0
6, 143160, Note_off_c, 9, 42, 0
6, 143520, Note_on_c, 9, 36, 127
6, 143520, Note_on_c, 9, 42, 127
6, 143640, Note_off_c, 9, 36, 0
6, 143640, Note_off_c, 9, 42, 0
6, 144000, Note_on_c, 9, 36, 127
6, 144000, Note_on_c, 9, 42, 127
6, 144120, Note_off_c, 9, 36, 0
6, 144120, Note_off_c, 9, 42, 0
6, 144480, Note_on_c, 9, 42, 127
6, 144600, Note_off_c, 9, 42, 0
6, 144960, Note_on_c, 9, 38, 127
6, 144960, Note_on_c, 9, 42, 127
6, 145080, Note_off_c, 9, 38, 0
6, 145080, Note_off_c, 9, 42, 0
6, 145440, Note_on_c, 9, 36, 127
6, 145440, Note_on_c, 9, 42, 127
6, 145560, Note_off_c, 9, 36, 0
6, 145560, Note_off_c, 9, 42, 0
6, 145920, Note_on_c, 9, 36, 127
6, 145920, Note_on_c, 9, 42, 127
6, 146040, Note_off_c, 9, 36, 0
6, 146040, Note_off_c, 9, 42, 0
6, 146400, Note_on_c, 9, 42, 127
6, 146520, Note_off_c, 9, 42, 0
6, 146880, Note_on_c, 9, 38, 127
6, 146880, Note_on_c, 9, 42, 127
6, 147000, Note_off_c, 9, 38, 0
6, 147000, Note_off_c, 9, 42, 0
6, 147360, Note_on_c, 9, 36, 127
6, 147360, Note_on_c, 9, 42, 127
6, 147480, Note_off_c, 9, 36, 0
6, 147480, Note_off_c, 9, 42, 0
6, 147840, Note_on_c, 9, 36, 127
6, 147840, Note_on_c, 9, 42, 127
6, 147960, Note_off_c, 9, 36, 0
6, 147960, Note_off_c, 9, 42, 0
6, 148320, Note_on_c, 9, 42, 127
6, 148440, Note_off_c, 9, 42, 0
6, 148800, Note_on_c, 9, 38, 127
6, 148800, Note_on_c, 9, 42, 127
6, 148920, Note_off_c, 9, 38, 0
6, 148920, Note_off_c, 9, 42, 0
6, 149280, Note_on_c, 9, 36, 127
6, 149280, Note_on_c, 9, 42, 127
6, 149400, Note_off_c, 9, 36, 0
6, 149400, Note_off_c, 9, 42, 0
6, 149760, Note_on_c, 9, 36, 127
6, 149760, Note_on_c, 9, 42, 127
6, 149880, Note_off_c, 9, 36, 0
6, 149880, Note_off_c, 9, 42, 0
6, 150240, Note_on_c, 9, 42, 127
6, 150360, Note_off_c, 9, 42, 0
6, 150720, Note_on_c, 9, 38, 127
6, 150720, Note_on_c, 9, 42, 127
6, 150840, Note_off_c, 9, 38, 0
6, 150840, Note_off_c, 9, 42, 0
6, 151200, Note_on_c, 9, 36, 127
6, 151200, Note_on_c, 9, 42, 127
6, 151320, Note_off_c, 9, 36, 0
6, 151320, Note_off_c, 9, 42, 0
6, 151680, Note_on_c, 9, 36, 127
6, 151680, Note_on_c, 9, 42, 127
6, 151800, Note_off_c, 9, 36, 0
6, 151800, Note_off_c, 9, 42, 0
6, 152160, Note_on_c, 9, 42, 127
6, 152280, Note_off_c, 9, 42, 0
6, 152640, Note_on_c, 9, 38, 127
6, 152640, Note_on_c, 9, 42, 127
6, 152760, Note_off_c, 9, 38, 0
6, 152760, Note_off_c, 9, 42, 0
6, 153120, Note_on_c, 9, 36, 127
6, 153120, Note_on_c, 9, 42, 127
6, 153240, Note_off_c, 9, 42, 0
6, 153240, Note_off_c, 9, 36, 0
6, 153600, Note_on_c, 9, 42, 127
6, 153600, Note_on_c, 9, 36, 127
6, 153720, Note_off_c, 9, 36, 0
6, 153720, Note_off_c, 9, 42, 0
6, 154080, Note_on_c, 9, 42, 127
6, 154200, Note_off_c, 9, 42, 0
6, 154560, Note_on_c, 9, 38, 127
6, 154560, Note_on_c, 9, 42, 127
6, 154680, Note_off_c, 9, 38, 0
6, 154680, Note_off_c, 9, 42, 0
6, 155040, Note_on_c, 9, 36, 127
6, 155040, Note_on_c, 9, 42, 127
6, 155160, Note_off_c, 9, 36, 0
6, 155160, Note_off_c, 9, 42, 0
6, 155520, Note_on_c, 9, 36, 127
6, 155520, Note_on_c, 9, 42, 127
6, 155640, Note_off_c, 9, 36, 0
6, 155640, Note_off_c, 9, 42, 0
6, 156000, Note_on_c, 9, 42, 127
6, 156120, Note_off_c, 9, 42, 0
6, 156480, Note_on_c, 9, 38, 127
6, 156480, Note_on_c, 9, 42, 127
6, 156600, Note_off_c, 9, 38, 0
6, 156600, Note_off_c, 9, 42, 0
6, 156960, Note_on_c, 9, 36, 127
6, 156960, Note_on_c, 9, 42, 127
6, 157080, Note_off_c, 9, 36, 0
6, 157080, Note_off_c, 9, 42, 0
6, 157440, Note_on_c, 9, 36, 127
6, 157440, Note_on_c, 9, 42, 127
6, 157560, Note_off_c, 9, 42, 0
6, 157560, Note_off_c, 9, 36, 0
6, 157920, Note_on_c, 9, 42, 127
6, 158040, Note_off_c, 9, 42, 0
6, 158400, Note_on_c, 9, 38, 127
6, 158400, Note_on_c, 9, 42, 127
6, 158520, Note_off_c, 9, 38, 0
6, 158520, Note_off_c, 9, 42, 0
6, 158880, Note_on_c, 9, 36, 127
6, 158880, Note_on_c, 9, 42, 127
6, 159000, Note_off_c, 9, 36, 0
6, 159000, Note_off_c, 9, 42, 0
6, 159360, Note_on_c, 9, 36, 127
6, 159360, Note_on_c, 9, 42, 127
6, 159480, Note_off_c, 9, 36, 0
6, 159480, Note_off_c, 9, 42, 0
6, 159840, Note_on_c, 9, 42, 127
6, 159960, Note_off_c, 9, 42, 0
6, 160320, Note_on_c, 9, 38, 127
6, 160320, Note_on_c, 9, 42, 127
6, 160440, Note_off_c, 9, 38, 0
6, 160440, Note_off_c, 9, 42, 0
6, 160800, Note_on_c, 9, 36, 127
6, 160800, Note_on_c, 9, 42, 127
6, 160920, Note_off_c, 9, 36, 0
6, 160920, Note_off_c, 9, 42, 0
6, 161280, Note_on_c, 9, 36, 127
6, 161280, Note_on_c, 9, 42, 127
6, 161400, Note_off_c, 9, 42, 0
6, 161400, Note_off_c, 9, 36, 0
6, 161760, Note_on_c, 9, 42, 127
6, 161880, Note_off_c, 9, 42, 0
6, 176666, Note_on_c, 9, 36, 127
6, 176666, Note_on_c, 9, 42, 127
6, 176786, Note_off_c, 9, 36, 0
6, 176786, Note_off_c, 9, 42, 0
6, 177146, Note_on_c, 9, 42, 127
6, 177266, Note_off_c, 9, 42, 0
6, 177626, Note_on_c, 9, 38, 127
6, 177626, Note_on_c, 9, 42, 127
6, 177746, Note_off_c, 9, 38, 0
6, 177746, Note_off_c, 9, 42, 0
6, 178106, Note_on_c, 9, 36, 127
6, 178106, Note_on_c, 9, 42, 127
6, 178226, Note_off_c, 9, 36, 0
6, 178226, Note_off_c, 9, 42, 0
6, 178586, Note_on_c, 9, 42, 127
6, 178586, Note_on_c, 9, 36, 127
6, 178706, Note_off_c, 9, 36, 0
6, 178706, Note_off_c, 9, 42, 0
6, 179066, Note_on_c, 9, 42, 127
6, 179186, Note_off_c, 9, 42, 0
6, 179546, Note_on_c, 9, 42, 127
6, 179546, Note_on_c, 9, 38, 127
6, 179666, Note_off_c, 9, 42, 0
6, 179666, Note_off_c, 9, 38, 0
6, 180026, Note_on_c, 9, 36, 127
6, 180026, Note_on_c, 9, 42, 127
6, 180146, Note_off_c, 9, 36, 0
6, 180146, Note_off_c, 9, 42, 0
6, 180506, Note_on_c, 9, 42, 127
6, 180506, Note_on_c, 9, 36, 127
6, 180626, Note_off_c, 9, 36, 0
6, 180626, Note_off_c, 9, 42, 0
6, 180986, Note_on_c, 9, 42, 127
6, 181106, Note_off_c, 9, 42, 0
6, 181466, Note_on_c, 9, 38, 127
6, 181466, Note_on_c, 9, 42, 127
6, 181586, Note_off_c, 9, 38, 0
6, 181586, Note_off_c, 9, 42, 0
6, 181946, Note_on_c, 9, 36, 127
6, 181946, Note_on_c, 9, 42, 127
6, 182066, Note_off_c, 9, 36, 0
6, 182066, Note_off_c, 9, 42, 0
6, 182426, Note_on_c, 9, 42, 127
6, 182426, Note_on_c, 9, 36, 127
6, 182546, Note_off_c, 9, 36, 0
6, 182546, Note_off_c, 9, 42, 0
6, 182906, Note_on_c, 9, 42, 127
6, 183026, Note_off_c, 9, 42, 0
6, 183386, Note_on_c, 9, 38, 127
6, 183386, Note_on_c, 9, 42, 127
6, 183506, Note_off_c, 9, 38, 0
6, 183506, Note_off_c, 9, 42, 0
6, 183866, Note_on_c, 9, 42, 127
6, 183866, Note_on_c, 9, 36, 127
6, 183986, Note_off_c, 9, 42, 0
6, 183986, Note_off_c, 9, 36, 0
6, 184346, Note_on_c, 9, 42, 127
6, 184346, Note_on_c, 9, 36, 127
6, 184466, Note_off_c, 9, 42, 0
6, 184466, Note_off_c, 9, 36, 0
6, 184826, Note_on_c, 9, 42, 127
6, 184946, Note_off_c, 9, 42, 0
6, 185306, Note_on_c, 9, 42, 127
6, 185306, Note_on_c, 9, 38, 127
6, 185426, Note_off_c, 9, 42, 0
6, 185426, Note_off_c, 9, 38, 0
6, 185786, Note_on_c, 9, 42, 127
6, 185786, Note_on_c, 9, 36, 127
6, 185906, Note_off_c, 9, 36, 0
6, 185906, Note_off_c, 9, 42, 0
6, 186266, Note_on_c, 9, 36, 127
6, 186266, Note_on_c, 9, 42, 127
6, 186386, Note_off_c, 9, 36, 0
6, 186386, Note_off_c, 9, 42, 0
6, 186746, Note_on_c, 9, 42, 127
6, 186866, Note_off_c, 9, 42, 0
6, 187226, Note_on_c, 9, 38, 127
6, 187226, Note_on_c, 9, 42, 127
6, 187346, Note_off_c, 9, 38, 0
6, 187346, Note_off_c, 9, 42, 0
6, 187706, Note_on_c, 9, 42, 127
6, 187706, Note_on_c, 9, 36, 127
6, 187826, Note_off_c, 9, 36, 0
6, 187826, Note_off_c, 9, 42, 0
6, 188186, Note_on_c, 9, 36, 127
6, 188186, Note_on_c, 9, 42, 127
6, 188306, Note_off_c, 9, 42, 0
6, 188306, Note_off_c, 9, 36, 0
6, 192307, Note_on_c, 9, 36, 127
6, 192307, Note_on_c, 9, 42, 127
6, 192427, Note_off_c, 9, 36, 0
6, 192427, Note_off_c, 9, 42, 0
6, 192787, Note_on_c, 9, 42, 127
6, 192907, Note_off_c, 9, 42, 0
6, 193267, Note_on_c, 9, 38, 127
6, 193267, Note_on_c, 9, 42, 127
6, 193387, Note_off_c, 9, 38, 0
6, 193387, Note_off_c, 9, 42, 0
6, 193747, Note_on_c, 9, 36, 127
6, 193747, Note_on_c, 9, 42, 127
6, 193867, Note_off_c, 9, 42, 0
6, 193867, Note_off_c, 9, 36, 0
6, 194227, Note_on_c, 9, 36, 127
6, 194227, Note_on_c, 9, 42, 127
6, 194347, Note_off_c, 9, 36, 0
6, 194347, Note_off_c, 9, 42, 0
6, 194707, Note_on_c, 9, 42, 127
6, 194827, Note_off_c, 9, 42, 0
6, 195187, Note_on_c, 9, 42, 127
6, 195187, Note_on_c, 9, 38, 127
6, 195307, Note_off_c, 9, 42, 0
6, 195307, Note_off_c, 9, 38, 0
6, 195667, Note_on_c, 9, 42, 127
6, 195667, Note_on_c, 9, 36, 127
6, 195787, Note_off_c, 9, 42, 0
6, 195787, Note_off_c, 9, 36, 0
6, 200056, Note_on_c, 9, 36, 127
6, 200056, Note_on_c, 9, 42, 127
6, 200176, Note_off_c, 9, 36, 0
6, 200176, Note_off_c, 9, 42, 0
6, 200536, Note_on_c, 9, 42, 127
6, 200656, Note_off_c, 9, 42, 0
6, 201016, Note_on_c, 9, 38, 127
6, 201016, Note_on_c, 9, 42, 127
6, 201136, Note_off_c, 9, 38, 0
6, 201136, Note_off_c, 9, 42, 0
6, 201496, Note_on_c, 9, 42, 127
6, 201496, Note_on_c, 9, 36, 127
6, 201616, Note_off_c, 9, 42, 0
6, 201616, Note_off_c, 9, 36, 0
6, 201976, Note_on_c, 9, 42, 127
6, 201976, Note_on_c, 9, 36, 127
6, 202096, Note_off_c, 9, 42, 0
6, 202096, Note_off_c, 9, 36, 0
6, 202456, Note_on_c, 9, 42, 127
6, 202576, Note_off_c, 9, 42, 0
6, 202936, Note_on_c, 9, 42, 127
6, 202936, Note_on_c, 9, 38, 127
6, 203056, Note_off_c, 9, 42, 0
6, 203056, Note_off_c, 9, 38, 0
6, 203416, Note_on_c, 9, 42, 127
6, 203416, Note_on_c, 9, 36, 127
6, 203536, Note_off_c, 9, 42, 0
6, 203536, Note_off_c, 9, 36, 0
6, 203896, Note_on_c, 9, 36, 127
6, 203896, Note_on_c, 9, 42, 127
6, 204016, Note_off_c, 9, 36, 0
6, 204016, Note_off_c, 9, 42, 0
6, 221292, Note_on_c, 9, 36, 127
6, 221292, Note_on_c, 9, 42, 127
6, 221412, Note_off_c, 9, 42, 0
6, 221412, Note_off_c, 9, 36, 0
6, 221772, Note_on_c, 9, 42, 127
6, 221892, Note_off_c, 9, 42, 0
6, 222252, Note_on_c, 9, 42, 127
6, 222252, Note_on_c, 9, 38, 127
6, 222372, Note_off_c, 9, 42, 0
6, 222372, Note_off_c, 9, 38, 0
6, 222732, Note_on_c, 9, 42, 127
6, 222732, Note_on_c, 9, 36, 127
6, 222852, Note_off_c, 9, 42, 0
6, 222852, Note_off_c, 9, 36, 0
6, 223212, Note_on_c, 9, 42, 127
6, 223212, Note_on_c, 9, 36, 127
6, 223332, Note_off_c, 9, 42, 0
6, 223332, Note_off_c, 9, 36, 0
6, 223692, Note_on_c, 9, 42, 127
6, 223812, Note_off_c, 9, 42, 0
6, 241955, Note_on_c, 9, 36, 127
6, 241955, Note_on_c, 9, 42, 127
6, 242075, Note_off_c, 9, 36, 0
6, 242075, Note_off_c, 9, 42, 0
6, 242435, Note_on_c, 9, 42, 127
6, 242555, Note_off_c, 9, 42, 0
6, 242915, Note_on_c, 9, 38, 127
6, 242915, Note_on_c, 9, 42, 127
6, 243035, Note_off_c, 9, 38, 0
6, 243035, Note_off_c, 9, 42, 0
6, 243395, Note_on_c, 9, 36, 127
6, 243395, Note_on_c, 9, 42, 127
6, 243515, Note_off_c, 9, 36, 0
6, 243515, Note_off_c, 9, 42, 0
6, 243875, Note_on_c, 9, 36, 127
6, 243875, Note_on_c, 9, 42, 127
6, 243995, Note_off_c, 9, 36, 0
6, 243995, Note_off_c, 9, 42, 0
6, 244355, Note_on_c, 9, 42, 127
6, 244475, Note_off_c, 9, 42, 0
6, 244835, Note_on_c, 9, 42, 127
6, 244835, Note_on_c, 9, 38, 127
6, 244955, Note_off_c, 9, 38, 0
6, 244955, Note_off_c, 9, 42, 0
6, 245315, Note_on_c, 9, 36, 127
6, 245315, Note_on_c, 9, 42, 127
6, 245435, Note_off_c, 9, 36, 0
6, 245435, Note_off_c, 9, 42, 0
6, 245795, Note_on_c, 9, 36, 127
6, 245795, Note_on_c, 9, 42, 127
6, 245915, Note_off_c, 9, 36, 0
6, 245915, Note_off_c, 9, 42, 0
6, 246275, Note_on_c, 9, 42, 127
6, 246395, Note_off_c, 9, 42, 0
6, 246755, Note_on_c, 9, 38, 127
6, 246755, Note_on_c, 9, 42, 127
6, 246875, Note_off_c, 9, 38, 0
6, 246875, Note_off_c, 9, 42, 0
6, 247235, Note_on_c, 9, 36, 127
6, 247235, Note_on_c, 9, 42, 127
6, 247355, Note_off_c, 9, 36, 0
6, 247355, Note_off_c, 9, 42, 0
6, 247715, Note_on_c, 9, 36, 127
6, 247715, Note_on_c, 9, 42, 127
6, 247835, Note_off_c, 9, 36, 0
6, 247835, Note_off_c, 9, 42, 0
6, 248195, Note_on_c, 9, 42, 127
6, 248315, Note_off_c, 9, 42, 0
6, 248675, Note_on_c, 9, 38, 127
6, 248675, Note_on_c, 9, 42, 127
6, 248795, Note_off_c, 9, 38, 0
6, 248795, Note_off_c, 9, 42, 0
6, 249155, Note_on_c, 9, 36, 127
6, 249155, Note_on_c, 9, 42, 127
6, 249275, Note_off_c, 9, 42, 0
6, 249275, Note_off_c, 9, 36, 0
6, 249635, Note_on_c, 9, 36, 127
6, 249635, Note_on_c, 9, 42, 127
6, 249755, Note_off_c, 9, 36, 0
6, 249755, Note_off_c, 9, 42, 0
6, 250115, Note_on_c, 9, 42, 127
6, 250235, Note_off_c, 9, 42, 0
6, 250595, Note_on_c, 9, 38, 127
6, 250595, Note_on_c, 9, 42, 127
6, 250715, Note_off_c, 9, 38, 0
6, 250715, Note_off_c, 9, 42, 0
6, 251075, Note_on_c, 9, 36, 127
6, 251075, Note_on_c, 9, 42, 127
6, 251195, Note_off_c, 9, 36, 0
6, 251195, Note_off_c, 9, 42, 0
6, 251555, Note_on_c, 9, 42, 127
6, 251555, Note_on_c, 9, 36, 127
6, 251675, Note_off_c, 9, 36, 0
6, 251675, Note_off_c, 9, 42, 0
6, 252035, Note_on_c, 9, 42, 127
6, 252155, Note_off_c, 9, 42, 0
6, 252515, Note_on_c, 9, 42, 127
6, 252515, Note_on_c, 9, 38, 127
6, 252635, Note_off_c, 9, 42, 0
6, 252635, Note_off_c, 9, 38, 0
6, 252995, Note_on_c, 9, 42, 127
6, 252995, Note_on_c, 9, 36, 127
6, 253115, Note_off_c, 9, 42, 0
6, 253115, Note_off_c, 9, 36, 0
6, 253475, Note_on_c, 9, 42, 127
6, 253475, Note_on_c, 9, 36, 127
6, 253595, Note_off_c, 9, 36, 0
6, 253595, Note_off_c, 9, 42, 0
6, 253955, Note_on_c, 9, 42, 127
6, 254075, Note_off_c, 9, 42, 0
6, 254435, Note_on_c, 9, 38, 127
6, 254435, Note_on_c, 9, 42, 127
6, 254555, Note_off_c, 9, 38, 0
6, 254555, Note_off_c, 9, 42, 0
6, 254915, Note_on_c, 9, 36, 127
6, 254915, Note_on_c, 9, 42, 127
6, 255035, Note_off_c, 9, 36, 0
6, 255035, Note_off_c, 9, 42, 0
6, 255395, Note_on_c, 9, 36, 127
6, 255395, Note_on_c, 9, 42, 127
6, 255515, Note_off_c, 9, 42, 0
6, 255515, Note_off_c, 9, 36, 0
6, 255875, Note_on_c, 9, 42, 127
6, 255995, Note_off_c, 9, 42, 0
6, 256355, Note_on_c, 9, 38, 127
6, 256355, Note_on_c, 9, 42, 127
6, 256475, Note_off_c, 9, 38, 0
6, 256475, Note_off_c, 9, 42, 0
6, 256835, Note_on_c, 9, 36, 127
6, 256835, Note_on_c, 9, 42, 127
6, 256955, Note_off_c, 9, 36, 0
6, 256955, Note_off_c, 9, 42, 0
6, 257315, Note_on_c, 9, 36, 127
6, 257315, Note_on_c, 9, 42, 127
6, 257435, Note_off_c, 9, 36, 0
6, 257435, Note_off_c, 9, 42, 0
6, 257795, Note_on_c, 9, 42, 127
6, 257915, Note_off_c, 9, 42, 0
6, 258275, Note_on_c, 9, 38, 127
6, 258275, Note_on_c, 9, 42, 127
6, 258395, Note_off_c, 9, 42, 0
6, 258395, Note_off_c, 9, 38, 0
6, 258755, Note_on_c, 9, 36, 127
6, 258755, Note_on_c, 9, 42, 127
6, 258875, Note_off_c, 9, 36, 0
6, 258875, Note_off_c, 9, 42, 0
6, 259235, Note_on_c, 9, 36, 127
6, 259235, Note_on_c, 9, 42, 127
6, 259355, Note_off_c, 9, 36, 0
6, 259355, Note_off_c, 9, 42, 0
6, 259715, Note_on_c, 9, 42, 127
6, 259835, Note_off_c, 9, 42, 0
6, 260195, Note_on_c, 9, 42, 127
6, 260195, Note_on_c, 9, 38, 127
6, 260315, Note_off_c, 9, 38, 0
6, 260315, Note_off_c, 9, 42, 0
6, 260675, Note_on_c, 9, 36, 127
6, 260675, Note_on_c, 9, 42, 127
6, 260795, Note_off_c, 9, 36, 0
6, 260795, Note_off_c, 9, 42, 0
6, 261155, Note_on_c, 9, 36, 127
6, 261155, Note_on_c, 9, 42, 127
6, 261275, Note_off_c, 9, 42, 0
6, 261275, Note_off_c, 9, 36, 0
6, 261635, Note_on_c, 9, 42, 127
6, 261755, Note_off_c, 9, 42, 0
6, 262115, Note_on_c, 9, 42, 127
6, 262115, Note_on_c, 9, 38, 127
6, 262235, Note_off_c, 9, 42, 0
6, 262235, Note_off_c, 9, 38, 0
6, 262595, Note_on_c, 9, 42, 127
6, 262595, Note_on_c, 9, 36, 127
6, 262715, Note_off_c, 9, 42, 0
6, 262715, Note_off_c, 9, 36, 0
6, 262715, End_track
7, 0, Start_track
7, 0, Title_t, "Sub"
7, 0, Instrument_name_t, "Sub Bass"
7, 0, Program_c, 5, 27
7, 0, Note_on_c, 5, 24, 81
7, 3840, Note_off_c, 5, 24, 0
7, 3840, Note_on_c, 5, 24, 81
7, 7680, Note_off_c, 5, 24, 0
7, 7680, Note_on_c, 5, 24, 81
7, 11520, Note_off_c, 5, 24, 0
7, 12480, Note_on_c, 5, 24, 76
7, 15360, Note_off_c, 5, 24, 0
7, 15360, Note_on_c, 5, 24, 81
7, 16320, Note_off_c, 5, 24, 0
7, 23040, Note_on_c, 5, 38, 81
7, 23040, Note_on_c, 5, 24, 81
7, 23760, Note_off_c, 5, 38, 0
7, 27840, Note_off_c, 5, 24, 0
7, 29280, Note_on_c, 5, 35, 76
7, 29520, Note_off_c, 5, 35, 0
7, 29760, Note_on_c, 5, 38, 77
7, 30000, Note_off_c, 5, 38, 0
7, 30720, Note_on_c, 5, 24, 81
7, 34560, Note_off_c, 5, 24, 0
7, 36960, Note_on_c, 5, 35, 76
7, 37200, Note_off_c, 5, 35, 0
7, 37440, Note_on_c, 5, 38, 77
7, 37680, Note_off_c, 5, 38, 0
7, 38400, Note_on_c, 5, 24, 81
7, 38400, Note_on_c, 5, 38, 81
7, 39120, Note_off_c, 5, 38, 0
7, 42240, Note_off_c, 5, 24, 0
7, 44640, Note_on_c, 5, 35, 76
7, 44880, Note_off_c, 5, 35, 0
7, 45120, Note_on_c, 5, 38, 77
7, 45360, Note_off_c, 5, 38, 0
7, 46080, Note_on_c, 5, 24, 76
7, 49920, Note_off_c, 5, 24, 0
7, 52320, Note_on_c, 5, 35, 76
7, 52560, Note_off_c, 5, 35, 0
7, 52800, Note_on_c, 5, 38, 77
7, 53040, Note_off_c, 5, 38, 0
7, 53760, Note_on_c, 5, 24, 81
7, 53760, Note_on_c, 5, 38, 81
7, 54480, Note_off_c, 5, 38, 0
7, 57600, Note_off_c, 5, 24, 0
7, 60000, Note_on_c, 5, 35, 76
7, 60240, Note_off_c, 5, 35, 0
7, 60480, Note_on_c, 5, 38, 77
7, 60720, Note_off_c, 5, 38, 0
7, 61440, Note_on_c, 5, 24, 76
7, 65280, Note_off_c, 5, 24, 0
7, 67680, Note_on_c, 5, 35, 76
7, 67920, Note_off_c, 5, 35, 0
7, 68160, Note_on_c, 5, 38, 77
7, 68400, Note_off_c, 5, 38, 0
7, 69120, Note_on_c, 5, 24, 81
7, 69120, Note_on_c, 5, 38, 81
7, 69840, Note_off_c, 5, 38, 0
7, 72960, Note_off_c, 5, 24, 0
7, 75360, Note_on_c, 5, 35, 76
7, 75600, Note_off_c, 5, 35, 0
7, 75840, Note_on_c, 5, 38, 77
7, 76080, Note_off_c, 5, 38, 0
7, 76800, Note_on_c, 5, 24, 76
7, 80640, Note_off_c, 5, 24, 0
7, 83040, Note_on_c, 5, 35, 76
7, 83280, Note_off_c, 5, 35, 0
7, 83520, Note_on_c, 5, 38, 77
7, 83760, Note_off_c, 5, 38, 0
7, 84480, Note_on_c, 5, 24, 76
7, 88320, Note_off_c, 5, 24, 0
7, 88320, End_track
8, 0, Start_track
8, 0, Title_t, "Cymbals"
8, 0, Instrument_name_t, "Clean Black"
8, 0, Program_c, 9, 0
8, 127769, Note_on_c, 9, 57, 127
8, 129678, Note_off_c, 9, 57, 0
8, 145991, Note_on_c, 9, 57, 106
8, 146958, Note_off_c, 9, 57, 0
8, 188237, Note_on_c, 9, 49, 106
8, 189198, Note_off_c, 9, 49, 0
8, 189211, Note_on_c, 9, 49, 104
8, 190149, Note_off_c, 9, 49, 0
8, 190162, Note_on_c, 9, 49, 106
8, 191118, Note_off_c, 9, 49, 0
8, 191119, Note_on_c, 9, 49, 104
8, 192069, Note_off_c, 9, 49, 0
8, 195916, Note_on_c, 9, 49, 123
8, 199274, Note_off_c, 9, 49, 0
8, 203602, Note_on_c, 9, 49, 88
8, 206954, Note_off_c, 9, 49, 0
8, 234319, Note_on_c, 9, 49, 123
8, 237674, Note_off_c, 9, 49, 0
8, 262159, Note_on_c, 9, 49, 126
8, 262634, Note_off_c, 9, 49, 0
8, 262634, End_track
9, 0, Start_track
9, 0, Title_t, "montramare pad "
9, 0, Instrument_name_t, "Montmartre Pad"
9, 0, Program_c, 7, 89
9, 0, Note_on_c, 7, 52, 81
9, 0, Note_on_c, 7, 47, 81
9, 0, Note_on_c, 7, 43, 81
9, 3840, Note_on_c, 7, 52, 81
9, 3840, Note_on_c, 7, 49, 81
9, 3840, Note_off_c, 7, 52, 0
9, 3840, Note_off_c, 7, 47, 0
9, 3840, Note_off_c, 7, 43, 0
9, 3840, Note_on_c, 7, 57, 81
9, 7680, Note_off_c, 7, 49, 0
9, 7680, Note_off_c, 7, 57, 0
9, 7680, Note_on_c, 7, 52, 81
9, 7680, Note_on_c, 7, 57, 81
9, 7680, Note_on_c, 7, 60, 81
9, 7680, Note_off_c, 7, 52, 0
9, 11520, Note_off_c, 7, 52, 0
9, 11520, Note_off_c, 7, 57, 0
9, 11520, Note_off_c, 7, 60, 0
9, 11520, Note_on_c, 7, 48, 81
9, 11520, Note_on_c, 7, 57, 81
9, 11520, Note_on_c, 7, 52, 81
9, 13440, Note_off_c, 7, 48, 0
9, 13440, Note_on_c, 7, 54, 78
9, 13440, Note_on_c, 7, 50, 78
9, 13440, Note_on_c, 7, 45, 78
9, 13440, Note_off_c, 7, 57, 0
9, 13440, Note_off_c, 7, 52, 0
9, 15360, Note_on_c, 7, 52, 82
9, 15360, Note_on_c, 7, 47, 82
9, 15360, Note_off_c, 7, 54, 0
9, 15360, Note_off_c, 7, 50, 0
9, 15360, Note_off_c, 7, 45, 0
9, 15360, Note_on_c, 7, 57, 82
9, 23040, Note_off_c, 7, 57, 0
9, 23040, Note_off_c, 7, 52, 0
9, 23040, Note_off_c, 7, 47, 0
9, 23040, Note_on_c, 7, 64, 81
9, 23040, Note_on_c, 7, 60, 81
9, 23040, Note_on_c, 7, 55, 81
9, 24960, Note_off_c, 7, 64, 0
9, 24960, Note_on_c, 7, 57, 80
9, 24960, Note_off_c, 7, 55, 0
9, 24960, Note_on_c, 7, 62, 80
9, 24960, Note_off_c, 7, 60, 0
9, 24960, Note_on_c, 7, 66, 80
9, 26880, Note_on_c, 7, 64, 80
9, 26880, Note_on_c, 7, 60, 80
9, 26880, Note_on_c, 7, 55, 80
9, 26880, Note_off_c, 7, 66, 0
9, 26880, Note_off_c, 7, 62, 0
9, 26880, Note_off_c, 7, 57, 0
9, 28800, Note_on_c, 7, 66, 80
9, 28800, Note_on_c, 7, 57, 80
9, 28800, Note_on_c, 7, 62, 80
9, 28800, Note_off_c, 7, 64, 0
9, 28800, Note_off_c, 7, 60, 0
9, 28800, Note_off_c, 7, 55, 0
9, 30720, Note_on_c, 7, 60, 80
9, 30720, Note_on_c, 7, 55, 80
9, 30720, Note_off_c, 7, 66, 0
9, 30720, Note_off_c, 7, 57, 0
9, 30720, Note_on_c, 7, 64, 80
9, 30720, Note_off_c, 7, 62, 0
9, 32640, Note_on_c, 7, 66, 80
9, 32640, Note_off_c, 7, 55, 0
9, 32640, Note_off_c, 7, 64, 0
9, 32640, Note_on_c, 7, 57, 80
9, 32640, Note_on_c, 7, 62, 80
9, 32640, Note_off_c, 7, 60, 0
9, 34560, Note_off_c, 7, 57, 0
9, 34560, Note_off_c, 7, 62, 0
9, 34560, Note_off_c, 7, 66, 0
9, 34560, Note_on_c, 7, 60, 80
9, 34560, Note_on_c, 7, 64, 80
9, 34560, Note_on_c, 7, 55, 80
9, 36480, Note_on_c, 7, 62, 78
9, 36480, Note_off_c, 7, 55, 0
9, 36480, Note_on_c, 7, 55, 78
9, 36480, Note_off_c, 7, 60, 0
9, 36480, Note_off_c, 7, 64, 0
9, 36480, Note_on_c, 7, 59, 78
9, 38400, Note_on_c, 7, 60, 81
9, 38400, Note_off_c, 7, 59, 0
9, 38400, Note_off_c, 7, 62, 0
9, 38400, Note_on_c, 7, 64, 81
9, 38400, Note_off_c, 7, 55, 0
9, 38400, Note_on_c, 7, 55, 81
9, 40320, Note_off_c, 7, 55, 0
9, 40320, Note_off_c, 7, 60, 0
9, 40320, Note_off_c, 7, 64, 0
9, 40320, Note_on_c, 7, 57, 80
9, 40320, Note_on_c, 7, 62, 80
9, 40320, Note_on_c, 7, 66, 80
9, 42240, Note_on_c, 7, 60, 80
9, 42240, Note_on_c, 7, 64, 80
9, 42240, Note_off_c, 7, 57, 0
9, 42240, Note_off_c, 7, 62, 0
9, 42240, Note_off_c, 7, 66, 0
9, 42240, Note_on_c, 7, 55, 80
9, 44160, Note_on_c, 7, 62, 80
9, 44160, Note_on_c, 7, 57, 80
9, 44160, Note_off_c, 7, 64, 0
9, 44160, Note_off_c, 7, 55, 0
9, 44160, Note_on_c, 7, 66, 80
9, 44160, Note_off_c, 7, 60, 0
9, 46080, Note_on_c, 7, 64, 80
9, 46080, Note_on_c, 7, 60, 80
9, 46080, Note_on_c, 7, 55, 80
9, 46080, Note_off_c, 7, 66, 0
9, 46080, Note_off_c, 7, 62, 0
9, 46080, Note_off_c, 7, 57, 0
9, 48000, Note_on_c, 7, 66, 80
9, 48000, Note_on_c, 7, 62, 80
9, 48000, Note_on_c, 7, 57, 80
9, 48000, Note_off_c, 7, 64, 0
9, 48000, Note_off_c, 7, 60, 0
9, 48000, Note_off_c, 7, 55, 0
9, 49920, Note_on_c, 7, 55, 80
9, 49920, Note_on_c, 7, 64, 80
9, 49920, Note_on_c, 7, 60, 80
9, 49920, Note_off_c, 7, 66, 0
9, 49920, Note_off_c, 7, 62, 0
9, 49920, Note_off_c, 7, 57, 0
9, 51840, Note_on_c, 7, 59, 81
9, 51840, Note_off_c, 7, 64, 0
9, 51840, Note_off_c, 7, 60, 0
9, 51840, Note_off_c, 7, 55, 0
9, 51840, Note_on_c, 7, 68, 81
9, 51840, Note_on_c, 7, 64, 81
9, 53760, Note_off_c, 7, 59, 0
9, 53760, Note_off_c, 7, 68, 0
9, 53760, Note_on_c, 7, 64, 80
9, 53760, Note_on_c, 7, 55, 80
9, 53760, Note_on_c, 7, 60, 80
9, 53760, Note_off_c, 7, 64, 0
9, 55680, Note_off_c, 7, 64, 0
9, 55680, Note_off_c, 7, 60, 0
9, 55680, Note_on_c, 7, 57, 80
9, 55680, Note_off_c, 7, 55, 0
9, 55680, Note_on_c, 7, 62, 80
9, 55680, Note_on_c, 7, 66, 80
9, 57600, Note_off_c, 7, 66, 0
9, 57600, Note_on_c, 7, 55, 80
9, 57600, Note_on_c, 7, 60, 80
9, 57600, Note_on_c, 7, 64, 80
9, 57600, Note_off_c, 7, 57, 0
9, 57600, Note_off_c, 7, 62, 0
9, 59520, Note_off_c, 7, 55, 0
9, 59520, Note_off_c, 7, 60, 0
9, 59520, Note_off_c, 7, 64, 0
9, 59520, Note_on_c, 7, 57, 80
9, 59520, Note_on_c, 7, 62, 80
9, 59520, Note_on_c, 7, 66, 80
9, 61440, Note_off_c, 7, 57, 0
9, 61440, Note_off_c, 7, 66, 0
9, 61440, Note_on_c, 7, 55, 80
9, 61440, Note_off_c, 7, 62, 0
9, 61440, Note_on_c, 7, 64, 80
9, 61440, Note_on_c, 7, 60, 80
9, 63360, Note_on_c, 7, 66, 80
9, 63360, Note_on_c, 7, 62, 80
9, 63360, Note_off_c, 7, 64, 0
9, 63360, Note_off_c, 7, 60, 0
9, 63360, Note_off_c, 7, 55, 0
9, 63360, Note_on_c, 7, 57, 80
9, 65280, Note_off_c, 7, 62, 0
9, 65280, Note_off_c, 7, 66, 0
9, 65280, Note_on_c, 7, 55, 80
9, 65280, Note_on_c, 7, 60, 80
9, 65280, Note_on_c, 7, 64, 80
9, 65280, Note_off_c, 7, 57, 0
9, 67200, Note_off_c, 7, 55, 0
9, 67200, Note_off_c, 7, 64, 0
9, 67200, Note_on_c, 7, 55, 78
9, 67200, Note_on_c, 7, 59, 78
9, 67200, Note_on_c, 7, 62, 78
9, 67200, Note_off_c, 7, 60, 0
9, 69120, Note_off_c, 7, 55, 0
9, 69120, Note_off_c, 7, 59, 0
9, 69120, Note_off_c, 7, 62, 0
9, 69120, Note_on_c, 7, 55, 81
9, 69120, Note_on_c, 7, 60, 81
9, 69120, Note_on_c, 7, 64, 81
9, 71040, Note_off_c, 7, 60, 0
9, 71040, Note_off_c, 7, 64, 0
9, 71040, Note_on_c, 7, 57, 80
9, 71040, Note_on_c, 7, 62, 80
9, 71040, Note_on_c, 7, 66, 80
9, 71040, Note_off_c, 7, 55, 0
9, 72960, Note_off_c, 7, 57, 0
9, 72960, Note_off_c, 7, 62, 0
9, 72960, Note_off_c, 7, 66, 0
9, 72960, Note_on_c, 7, 55, 80
9, 72960, Note_on_c, 7, 60, 80
9, 72960, Note_on_c, 7, 64, 80
9, 74880, Note_on_c, 7, 66, 80
9, 74880, Note_off_c, 7, 64, 0
9, 74880, Note_off_c, 7, 55, 0
9, 74880, Note_off_c, 7, 60, 0
9, 74880, Note_on_c, 7, 57, 80
9, 74880, Note_on_c, 7, 62, 80
9, 76800, Note_on_c, 7, 64, 80
9, 76800, Note_on_c, 7, 60, 80
9, 76800, Note_on_c, 7, 55, 80
9, 76800, Note_off_c, 7, 66, 0
9, 76800, Note_off_c, 7, 57, 0
9, 76800, Note_off_c, 7, 62, 0
9, 78720, Note_on_c, 7, 66, 80
9, 78720, Note_on_c, 7, 62, 80
9, 78720, Note_on_c, 7, 57, 80
9, 78720, Note_off_c, 7, 64, 0
9, 78720, Note_off_c, 7, 60, 0
9, 78720, Note_off_c, 7, 55, 0
9, 80640, Note_on_c, 7, 64, 80
9, 80640, Note_on_c, 7, 60, 80
9, 80640, Note_on_c, 7, 55, 80
9, 80640, Note_off_c, 7, 66, 0
9, 80640, Note_off_c, 7, 57, 0
9, 80640, Note_off_c, 7, 62, 0
9, 82560, Note_on_c, 7, 68, 81
9, 82560, Note_off_c, 7, 64, 0
9, 82560, Note_on_c, 7, 59, 81
9, 82560, Note_on_c, 7, 64, 81
9, 82560, Note_off_c, 7, 55, 0
9, 82560, Note_off_c, 7, 60, 0
9, 84480, Note_on_c, 7, 60, 78
9, 84480, Note_off_c, 7, 59, 0
9, 84480, Note_on_c, 7, 52, 78
9, 84480, Note_off_c, 7, 64, 0
9, 84480, Note_on_c, 7, 57, 78
9, 84480, Note_off_c, 7, 68, 0
9, 88320, Note_on_c, 7, 55, 81
9, 88320, Note_off_c, 7, 52, 0
9, 88320, Note_off_c, 7, 60, 0
9, 88320, Note_on_c, 7, 62, 81
9, 88320, Note_on_c, 7, 59, 81
9, 88320, Note_off_c, 7, 57, 0
9, 92160, Note_off_c, 7, 59, 0
9, 92160, Note_off_c, 7, 62, 0
9, 92160, Note_on_c, 7, 59, 81
9, 92160, Note_on_c, 7, 67, 81
9, 92160, Note_on_c, 7, 62, 81
9, 92160, Note_off_c, 7, 55, 0
9, 96000, Note_on_c, 7, 55, 80
9, 96000, Note_off_c, 7, 59, 0
9, 96000, Note_off_c, 7, 62, 0
9, 96000, Note_off_c, 7, 67, 0
9, 96000, Note_on_c, 7, 52, 80
9, 96000, Note_on_c, 7, 59, 80
9, 99840, Note_on_c, 7, 57, 81
9, 99840, Note_on_c, 7, 48, 81
9, 99840, Note_off_c, 7, 59, 0
9, 99840, Note_off_c, 7, 55, 0
9, 99840, Note_off_c, 7, 52, 0
9, 99840, Note_on_c, 7, 52, 81
9, 103680, Note_off_c, 7, 48, 0
9, 103680, Note_off_c, 7, 52, 0
9, 103680, Note_off_c, 7, 57, 0
9, 103680, Note_on_c, 7, 47, 81
9, 103680, Note_on_c, 7, 51, 81
9, 103680, Note_on_c, 7, 54, 81
9, 107520, Note_off_c, 7, 47, 0
9, 107520, Note_off_c, 7, 51, 0
9, 107520, Note_off_c, 7, 54, 0
9, 107520, Note_on_c, 7, 45, 81
9, 107520, Note_on_c, 7, 50, 81
9, 107520, Note_on_c, 7, 54, 81
9, 107520, Note_on_c, 7, 57, 81
9, 111360, Note_off_c, 7, 45, 0
9, 111360, Note_off_c, 7, 50, 0
9, 111360, Note_off_c, 7, 54, 0
9, 111360, Note_off_c, 7, 57, 0
9, 111360, Note_on_c, 7, 40, 81
9, 111360, Note_on_c, 7, 52, 81
9, 111360, Note_on_c, 7, 56, 81
9, 115200, Note_off_c, 7, 40, 0
9, 115200, Note_off_c, 7, 52, 0
9, 115200, Note_off_c, 7, 56, 0
9, 115200, End_track
10, 0, Start_track
10, 0, Title_t, "acoustic guitar"
10, 0, Instrument_name_t, "Acoustic Guitar"
10, 0, Program_c, 8, 27
10, 0, Note_on_c, 8, 52, 81
10, 0, Note_on_c, 8, 55, 81
10, 0, Note_on_c, 8, 59, 81
10, 0, Note_on_c, 8, 64, 81
10, 720, Note_on_c, 8, 62, 77
10, 720, Note_off_c, 8, 52, 0
10, 720, Note_off_c, 8, 55, 0
10, 720, Note_off_c, 8, 59, 0
10, 720, Note_off_c, 8, 64, 0
10, 720, Note_on_c, 8, 54, 77
10, 720, Note_on_c, 8, 57, 77
10, 720, Note_on_c, 8, 66, 77
10, 1440, Note_off_c, 8, 57, 0
10, 1440, Note_off_c, 8, 54, 0
10, 1440, Note_off_c, 8, 62, 0
10, 1440, Note_off_c, 8, 66, 0
10, 1440, Note_on_c, 8, 55, 78
10, 1440, Note_on_c, 8, 59, 78
10, 1440, Note_on_c, 8, 64, 78
10, 1440, Note_on_c, 8, 67, 78
10, 2400, Note_off_c, 8, 55, 0
10, 2400, Note_off_c, 8, 59, 0
10, 2400, Note_off_c, 8, 64, 0
10, 2400, Note_off_c, 8, 67, 0
10, 2400, Note_on_c, 8, 52, 74
10, 2400, Note_on_c, 8, 64, 74
10, 2880, Note_on_c, 8, 67, 79
10, 2880, Note_off_c, 8, 52, 0
10, 2880, Note_off_c, 8, 64, 0
10, 2880, Note_on_c, 8, 55, 79
10, 3360, Note_off_c, 8, 55, 0
10, 3360, Note_off_c, 8, 67, 0
10, 3360, Note_on_c, 8, 62, 86
10, 3360, Note_on_c, 8, 74, 86
10, 3840, Note_off_c, 8, 62, 0
10, 3840, Note_off_c, 8, 74, 0
10, 3840, Note_on_c, 8, 61, 89
10, 3840, Note_on_c, 8, 64, 89
10, 3840, Note_on_c, 8, 69, 89
10, 3840, Note_on_c, 8, 73, 89
10, 4560, Note_on_c, 8, 71, 78
10, 4560, Note_off_c, 8, 64, 0
10, 4560, Note_off_c, 8, 69, 0
10, 4560, Note_off_c, 8, 73, 0
10, 4560, Note_on_c, 8, 59, 78
10, 4560, Note_off_c, 8, 61, 0
10, 5280, Note_off_c, 8, 71, 0
10, 5280, Note_on_c, 8, 61, 82
10, 5280, Note_on_c, 8, 73, 82
10, 5280, Note_off_c, 8, 59, 0
10, 5760, Note_off_c, 8, 61, 0
10, 5760, Note_off_c, 8, 73, 0
10, 5760, Note_on_c, 8, 64, 88
10, 5760, Note_on_c, 8, 69, 88
10, 5760, Note_on_c, 8, 73, 88
10, 5760, Note_on_c, 8, 76, 88
10, 7680, Note_on_c, 8, 72, 79
10, 7680, Note_off_c, 8, 64, 0
10, 7680, Note_off_c, 8, 69, 0
10, 7680, Note_off_c, 8, 76, 0
10, 7680, Note_on_c, 8, 60, 79
10, 7680, Note_on_c, 8, 64, 79
10, 7680, Note_on_c, 8, 69, 79
10, 7680, Note_off_c, 8, 73, 0
10, 8400, Note_off_c, 8, 64, 0
10, 8400, Note_off_c, 8, 60, 0
10, 8400, Note_off_c, 8, 69, 0
10, 8400, Note_off_c, 8, 72, 0
10, 8400, Note_on_c, 8, 59, 75
10, 8400, Note_on_c, 8, 67, 75
10, 8400, Note_on_c, 8, 71, 75
10, 9120, Note_on_c, 8, 69, 73
10, 9120, Note_on_c, 8, 66, 73
10, 9120, Note_off_c, 8, 67, 0
10, 9120, Note_off_c, 8, 71, 0
10, 9120, Note_on_c, 8, 57, 73
10, 9120, Note_on_c, 8, 62, 73
10, 9120, Note_off_c, 8, 59, 0
10, 10080, Note_off_c, 8, 62, 0
10, 10080, Note_off_c, 8, 69, 0
10, 10080, Note_off_c, 8, 66, 0
10, 10080, Note_on_c, 8, 67, 73
10, 10080, Note_on_c, 8, 55, 73
10, 10080, Note_off_c, 8, 57, 0
10, 10560, Note_off_c, 8, 55, 0
10, 10560, Note_off_c, 8, 67, 0
10, 10560, Note_on_c, 8, 57, 76
10, 10560, Note_on_c, 8, 69, 76
10, 11040, Note_off_c, 8, 57, 0
10, 11040, Note_off_c, 8, 69, 0
10, 11040, Note_on_c, 8, 59, 80
10, 11040, Note_on_c, 8, 71, 80
10, 11520, Note_off_c, 8, 59, 0
10, 11520, Note_off_c, 8, 71, 0
10, 11520, Note_on_c, 8, 57, 80
10, 11520, Note_on_c, 8, 60, 80
10, 11520, Note_on_c, 8, 64, 80
10, 11520, Note_on_c, 8, 69, 80
10, 12240, Note_off_c, 8, 57, 0
10, 12240, Note_off_c, 8, 60, 0
10, 12240, Note_off_c, 8, 64, 0
10, 12240, Note_off_c, 8, 69, 0
10, 12240, Note_on_c, 8, 55, 72
10, 12240, Note_on_c, 8, 67, 72
10, 12960, Note_off_c, 8, 55, 0
10, 12960, Note_off_c, 8, 67, 0
10, 12960, Note_on_c, 8, 57, 79
10, 12960, Note_on_c, 8, 62, 79
10, 12960, Note_on_c, 8, 66, 79
10, 12960, Note_on_c, 8, 69, 79
10, 13440, Note_on_c, 8, 66, 76
10, 13440, Note_off_c, 8, 57, 0
10, 13440, Note_off_c, 8, 62, 0
10, 13440, Note_off_c, 8, 66, 0
10, 13440, Note_on_c, 8, 54, 76
10, 13440, Note_off_c, 8, 69, 0
10, 14160, Note_off_c, 8, 54, 0
10, 14160, Note_off_c, 8, 66, 0
10, 14160, Note_on_c, 8, 57, 78
10, 14160, Note_on_c, 8, 69, 78
10, 14880, Note_off_c, 8, 57, 0
10, 14880, Note_off_c, 8, 69, 0
10, 14880, Note_on_c, 8, 62, 86
10, 14880, Note_on_c, 8, 74, 86
10, 15360, Note_on_c, 8, 71, 91
10, 15360, Note_off_c, 8, 62, 0
10, 15360, Note_off_c, 8, 74, 0
10, 15360, Note_on_c, 8, 64, 91
10, 15360, Note_on_c, 8, 69, 91
10, 15360, Note_on_c, 8, 76, 91
10, 23040, Note_off_c, 8, 69, 0
10, 23040, Note_off_c, 8, 64, 0
10, 23040, Note_off_c, 8, 71, 0
10, 23040, Note_on_c, 8, 55, 81
10, 23040, Note_off_c, 8, 76, 0
10, 23040, Note_on_c, 8, 67, 81
10, 24000, Note_off_c, 8, 55, 0
10, 24000, Note_on_c, 8, 57, 77
10, 24000, Note_off_c, 8, 67, 0
10, 24000, Note_on_c, 8, 69, 77
10, 24960, Note_off_c, 8, 57, 0
10, 24960, Note_on_c, 8, 66, 78
10, 24960, Note_on_c, 8, 54, 78
10, 24960, Note_off_c, 8, 69, 0
10, 26400, Note_on_c, 8, 64, 74
10, 26400, Note_on_c, 8, 52, 74
10, 26400, Note_off_c, 8, 54, 0
10, 26400, Note_off_c, 8, 66, 0
10, 26640, Note_off_c, 8, 64, 0
10, 26640, Note_on_c, 8, 54, 77
10, 26640, Note_on_c, 8, 66, 77
10, 26640, Note_off_c, 8, 52, 0
10, 26880, Note_off_c, 8, 54, 0
10, 26880, Note_off_c, 8, 66, 0
10, 26880, Note_on_c, 8, 55, 83
10, 26880, Note_on_c, 8, 67, 83
10, 27600, Note_off_c, 8, 55, 0
10, 27600, Note_off_c, 8, 67, 0
10, 27600, Note_on_c, 8, 57, 81
10, 27600, Note_on_c, 8, 69, 81
10, 28320, Note_on_c, 8, 59, 84
10, 28320, Note_off_c, 8, 57, 0
10, 28320, Note_off_c, 8, 69, 0
10, 28320, Note_on_c, 8, 71, 84
10, 28800, Note_off_c, 8, 59, 0
10, 28800, Note_on_c, 8, 69, 82
10, 28800, Note_off_c, 8, 71, 0
10, 28800, Note_on_c, 8, 57, 82
10, 30720, Note_off_c, 8, 57, 0
10, 30720, Note_off_c, 8, 69, 0
10, 30720, Note_on_c, 8, 55, 79
10, 30720, Note_on_c, 8, 67, 79
10, 31680, Note_off_c, 8, 55, 0
10, 31680, Note_off_c, 8, 67, 0
10, 31680, Note_on_c, 8, 57, 77
10, 31680, Note_on_c, 8, 69, 77
10, 32640, Note_off_c, 8, 57, 0
10, 32640, Note_off_c, 8, 69, 0
10, 32640, Note_on_c, 8, 54, 77
10, 32640, Note_on_c, 8, 66, 77
10, 33360, Note_on_c, 8, 64, 73
10, 33360, Note_on_c, 8, 52, 73
10, 33360, Note_off_c, 8, 66, 0
10, 33360, Note_off_c, 8, 54, 0
10, 34080, Note_off_c, 8, 52, 0
10, 34080, Note_off_c, 8, 64, 0
10, 34080, Note_on_c, 8, 50, 74
10, 34080, Note_on_c, 8, 62, 74
10, 34560, Note_on_c, 8, 52, 82
10, 34560, Note_off_c, 8, 50, 0
10, 34560, Note_on_c, 8, 64, 82
10, 34560, Note_off_c, 8, 62, 0
10, 38400, Note_off_c, 8, 52, 0
10, 38400, Note_on_c, 8, 67, 81
10, 38400, Note_off_c, 8, 64, 0
10, 38400, Note_on_c, 8, 55, 81
10, 39360, Note_on_c, 8, 69, 77
10, 39360, Note_on_c, 8, 57, 77
10, 39360, Note_off_c, 8, 67, 0
10, 39360, Note_off_c, 8, 55, 0
10, 40320, Note_off_c, 8, 69, 0
10, 40320, Note_on_c, 8, 66, 78
10, 40320, Note_off_c, 8, 57, 0
10, 40320, Note_on_c, 8, 54, 78
10, 41760, Note_off_c, 8, 54, 0
10, 41760, Note_on_c, 8, 64, 74
10, 41760, Note_on_c, 8, 52, 74
10, 41760, Note_off_c, 8, 66, 0
10, 42000, Note_on_c, 8, 54, 77
10, 42000, Note_on_c, 8, 66, 77
10, 42000, Note_off_c, 8, 64, 0
10, 42000, Note_off_c, 8, 52, 0
10, 42240, Note_on_c, 8, 67, 83
10, 42240, Note_on_c, 8, 55, 83
10, 42240, Note_off_c, 8, 66, 0
10, 42240, Note_off_c, 8, 54, 0
10, 42960, Note_on_c, 8, 69, 81
10, 42960, Note_on_c, 8, 57, 81
10, 42960, Note_off_c, 8, 67, 0
10, 42960, Note_off_c, 8, 55, 0
10, 43680, Note_on_c, 8, 71, 84
10, 43680, Note_on_c, 8, 59, 84
10, 43680, Note_off_c, 8, 69, 0
10, 43680, Note_off_c, 8, 57, 0
10, 44160, Note_on_c, 8, 57, 82
10, 44160, Note_off_c, 8, 71, 0
10, 44160, Note_off_c, 8, 59, 0
10, 44160, Note_on_c, 8, 69, 82
10, 44880, Note_on_c, 8, 66, 72
10, 44880, Note_on_c, 8, 54, 72
10, 44880, Note_off_c, 8, 69, 0
10, 44880, Note_off_c, 8, 57, 0
10, 45600, Note_on_c, 8, 62, 69
10, 45600, Note_on_c, 8, 50, 69
10, 45600, Note_off_c, 8, 66, 0
10, 45600, Note_off_c, 8, 54, 0
10, 46080, Note_off_c, 8, 62, 0
10, 46080, Note_on_c, 8, 52, 78
10, 46080, Note_off_c, 8, 50, 0
10, 46080, Note_on_c, 8, 64, 78
10, 48000, Note_on_c, 8, 64, 79
10, 48000, Note_on_c, 8, 52, 79
10, 48000, Note_off_c, 8, 64, 0
10, 48000, Note_off_c, 8, 52, 0
10, 48720, Note_on_c, 8, 54, 78
10, 48720, Note_on_c, 8, 66, 78
10, 48720, Note_off_c, 8, 52, 0
10, 48720, Note_off_c, 8, 64, 0
10, 49440, Note_off_c, 8, 54, 0
10, 49440, Note_on_c, 8, 67, 81
10, 49440, Note_off_c, 8, 66, 0
10, 49440, Note_on_c, 8, 55, 81
10, 49920, Note_off_c, 8, 55, 0
10, 49920, Note_off_c, 8, 67, 0
10, 49920, Note_on_c, 8, 57, 87
10, 49920, Note_on_c, 8, 69, 87
10, 50880, Note_off_c, 8, 69, 0
10, 50880, Note_on_c, 8, 53, 74
10, 50880, Note_on_c, 8, 65, 74
10, 50880, Note_off_c, 8, 57, 0
10, 51840, Note_off_c, 8, 53, 0
10, 51840, Note_off_c, 8, 65, 0
10, 51840, Note_on_c, 8, 59, 85
10, 51840, Note_on_c, 8, 71, 85
10, 53760, Note_on_c, 8, 67, 80
10, 53760, Note_off_c, 8, 59, 0
10, 53760, Note_on_c, 8, 43, 81
10, 53760, Note_off_c, 8, 71, 0
10, 53760, Note_on_c, 8, 55, 81
10, 54720, Note_on_c, 8, 69, 77
10, 54720, Note_on_c, 8, 57, 77
10, 54720, Note_off_c, 8, 67, 0
10, 54720, Note_off_c, 8, 43, 0
10, 54720, Note_off_c, 8, 55, 0
10, 55680, Note_on_c, 8, 66, 77
10, 55680, Note_on_c, 8, 54, 77
10, 55680, Note_off_c, 8, 69, 0
10, 55680, Note_off_c, 8, 57, 0
10, 57120, Note_on_c, 8, 64, 74
10, 57120, Note_on_c, 8, 52, 75
10, 57120, Note_off_c, 8, 66, 0
10, 57120, Note_off_c, 8, 54, 0
10, 57360, Note_on_c, 8, 66, 77
10, 57360, Note_on_c, 8, 54, 77
10, 57360, Note_off_c, 8, 64, 0
10, 57360, Note_off_c, 8, 52, 0
10, 57600, Note_on_c, 8, 55, 83
10, 57600, Note_off_c, 8, 66, 0
10, 57600, Note_on_c, 8, 67, 83
10, 57600, Note_off_c, 8, 54, 0
10, 58320, Note_on_c, 8, 69, 81
10, 58320, Note_on_c, 8, 57, 81
10, 58320, Note_off_c, 8, 67, 0
10, 58320, Note_off_c, 8, 55, 0
10, 59040, Note_on_c, 8, 71, 84
10, 59040, Note_on_c, 8, 59, 84
10, 59040, Note_off_c, 8, 69, 0
10, 59040, Note_off_c, 8, 57, 0
10, 59520, Note_on_c, 8, 69, 82
10, 59520, Note_on_c, 8, 57, 82
10, 59520, Note_off_c, 8, 71, 0
10, 59520, Note_off_c, 8, 59, 0
10, 61440, Note_on_c, 8, 67, 79
10, 61440, Note_on_c, 8, 55, 79
10, 61440, Note_off_c, 8, 69, 0
10, 61440, Note_off_c, 8, 57, 0
10, 62400, Note_on_c, 8, 69, 77
10, 62400, Note_on_c, 8, 57, 77
10, 62400, Note_off_c, 8, 67, 0
10, 62400, Note_off_c, 8, 55, 0
10, 63360, Note_on_c, 8, 66, 77
10, 63360, Note_on_c, 8, 54, 77
10, 63360, Note_off_c, 8, 69, 0
10, 63360, Note_off_c, 8, 57, 0
10, 64080, Note_off_c, 8, 66, 0
10, 64080, Note_off_c, 8, 54, 0
10, 64080, Note_on_c, 8, 64, 73
10, 64080, Note_on_c, 8, 52, 73
10, 64800, Note_off_c, 8, 52, 0
10, 64800, Note_off_c, 8, 64, 0
10, 64800, Note_on_c, 8, 50, 74
10, 64800, Note_on_c, 8, 62, 74
10, 65280, Note_off_c, 8, 50, 0
10, 65280, Note_off_c, 8, 62, 0
10, 65280, Note_on_c, 8, 52, 82
10, 65280, Note_on_c, 8, 64, 82
10, 69120, Note_off_c, 8, 64, 0
10, 69120, Note_on_c, 8, 55, 81
10, 69120, Note_on_c, 8, 67, 81
10, 69120, Note_off_c, 8, 52, 0
10, 70080, Note_off_c, 8, 55, 0
10, 70080, Note_off_c, 8, 67, 0
10, 70080, Note_on_c, 8, 57, 77
10, 70080, Note_on_c, 8, 69, 77
10, 71040, Note_on_c, 8, 54, 78
10, 71040, Note_off_c, 8, 57, 0
10, 71040, Note_off_c, 8, 69, 0
10, 71040, Note_on_c, 8, 66, 78
10, 72480, Note_on_c, 8, 64, 74
10, 72480, Note_on_c, 8, 52, 74
10, 72480, Note_off_c, 8, 66, 0
10, 72480, Note_off_c, 8, 54, 0
10, 72720, Note_on_c, 8, 66, 77
10, 72720, Note_on_c, 8, 54, 77
10, 72720, Note_off_c, 8, 52, 0
10, 72720, Note_off_c, 8, 64, 0
10, 72960, Note_off_c, 8, 54, 0
10, 72960, Note_on_c, 8, 55, 83
10, 72960, Note_on_c, 8, 67, 83
10, 72960, Note_off_c, 8, 66, 0
10, 73680, Note_on_c, 8, 69, 81
10, 73680, Note_on_c, 8, 57, 81
10, 73680, Note_off_c, 8, 67, 0
10, 73680, Note_off_c, 8, 55, 0
10, 74400, Note_on_c, 8, 71, 84
10, 74400, Note_on_c, 8, 59, 84
10, 74400, Note_off_c, 8, 69, 0
10, 74400, Note_off_c, 8, 57, 0
10, 74880, Note_off_c, 8, 59, 0
10, 74880, Note_on_c, 8, 69, 82
10, 74880, Note_off_c, 8, 71, 0
10, 74880, Note_on_c, 8, 57, 82
10, 75600, Note_on_c, 8, 66, 72
10, 75600, Note_on_c, 8, 54, 72
10, 75600, Note_off_c, 8, 69, 0
10, 75600, Note_off_c, 8, 57, 0
10, 76320, Note_off_c, 8, 54, 0
10, 76320, Note_on_c, 8, 50, 69
10, 76320, Note_on_c, 8, 62, 69
10, 76320, Note_off_c, 8, 66, 0
10, 76800, Note_off_c, 8, 50, 0
10, 76800, Note_off_c, 8, 62, 0
10, 76800, Note_on_c, 8, 52, 78
10, 76800, Note_on_c, 8, 64, 78
10, 78720, Note_off_c, 8, 52, 0
10, 78720, Note_on_c, 8, 52, 79
10, 78720, Note_off_c, 8, 64, 0
10, 78720, Note_on_c, 8, 64, 79
10, 79440, Note_off_c, 8, 52, 0
10, 79440, Note_on_c, 8, 54, 78
10, 79440, Note_on_c, 8, 66, 78
10, 79440, Note_off_c, 8, 64, 0
10, 80160, Note_off_c, 8, 54, 0
10, 80160, Note_off_c, 8, 66, 0
10, 80160, Note_on_c, 8, 55, 81
10, 80160, Note_on_c, 8, 67, 81
10, 80640, Note_off_c, 8, 67, 0
10, 80640, Note_off_c, 8, 55, 0
10, 80640, Note_on_c, 8, 57, 87
10, 80640, Note_on_c, 8, 69, 87
10, 81600, Note_off_c, 8, 57, 0
10, 81600, Note_off_c, 8, 69, 0
10, 81600, Note_on_c, 8, 53, 74
10, 81600, Note_on_c, 8, 65, 74
10, 82560, Note_off_c, 8, 53, 0
10, 82560, Note_off_c, 8, 65, 0
10, 82560, Note_on_c, 8, 71, 85
10, 82560, Note_on_c, 8, 59, 85
10, 84480, Note_off_c, 8, 59, 0
10, 84480, Note_off_c, 8, 71, 0
10, 111360, Note_on_c, 8, 44, 81
10, 111360, Note_on_c, 8, 56, 81
10, 111360, Note_on_c, 8, 68, 81
10, 112080, Note_off_c, 8, 44, 0
10, 112080, Note_off_c, 8, 56, 0
10, 112080, Note_off_c, 8, 68, 0
10, 112080, Note_on_c, 8, 56, 76
10, 112080, Note_on_c, 8, 44, 76
10, 112080, Note_on_c, 8, 68, 76
10, 112320, Note_off_c, 8, 44, 0
10, 112320, Note_off_c, 8, 56, 0
10, 112320, Note_off_c, 8, 68, 0
10, 112800, Note_on_c, 8, 47, 79
10, 112800, Note_on_c, 8, 59, 79
10, 112800, Note_on_c, 8, 71, 79
10, 113520, Note_off_c, 8, 71, 0
10, 113520, Note_off_c, 8, 47, 0
10, 113520, Note_on_c, 8, 47, 78
10, 113520, Note_on_c, 8, 59, 78
10, 113520, Note_on_c, 8, 71, 78
10, 113520, Note_off_c, 8, 59, 0
10, 113760, Note_off_c, 8, 47, 0
10, 113760, Note_off_c, 8, 59, 0
10, 113760, Note_off_c, 8, 71, 0
10, 114240, Note_on_c, 8, 50, 81
10, 114240, Note_on_c, 8, 62, 81
10, 114240, Note_on_c, 8, 74, 81
10, 115200, Note_off_c, 8, 50, 0
10, 115200, Note_off_c, 8, 62, 0
10, 115200, Note_off_c, 8, 74, 0
10, 115200, End_track
11, 0, Start_track
11, 0, Title_t, "Bassoon"
11, 0, Instrument_name_t, "Trombone"
11, 0, Program_c, 10, 57
11, 118871, Note_on_c, 10, 40, 89
11, 119068, Note_off_c, 10, 40, 0
11, 119111, Note_on_c, 10, 40, 73
11, 126748, Note_off_c, 10, 40, 0
11, 126791, Note_on_c, 10, 52, 78
11, 127718, Note_off_c, 10, 52, 0
11, 127759, Note_on_c, 10, 52, 76
11, 128668, Note_off_c, 10, 52, 0
11, 128711, Note_on_c, 10, 52, 66
11, 128909, Note_off_c, 10, 52, 0
11, 128965, Note_on_c, 10, 52, 61
11, 129197, Note_off_c, 10, 52, 0
11, 129440, Note_on_c, 10, 52, 61
11, 129672, Note_off_c, 10, 52, 0
11, 129679, Note_on_c, 10, 47, 76
11, 130588, Note_off_c, 10, 47, 0
11, 130631, Note_on_c, 10, 49, 78
11, 131082, Note_off_c, 10, 49, 0
11, 131599, Note_on_c, 10, 49, 55
11, 131782, Note_off_c, 10, 49, 0
11, 131838, Note_on_c, 10, 49, 52
11, 132068, Note_off_c, 10, 49, 0
11, 132551, Note_on_c, 10, 49, 69
11, 133002, Note_off_c, 10, 49, 0
11, 133519, Note_on_c, 10, 47, 67
11, 134428, Note_off_c, 10, 47, 0
11, 134471, Note_on_c, 10, 49, 69
11, 134922, Note_off_c, 10, 49, 0
11, 135439, Note_on_c, 10, 49, 55
11, 135622, Note_off_c, 10, 49, 0
11, 135678, Note_on_c, 10, 49, 52
11, 135908, Note_off_c, 10, 49, 0
11, 136391, Note_on_c, 10, 49, 69
11, 136842, Note_off_c, 10, 49, 0
11, 137359, Note_on_c, 10, 47, 67
11, 138268, Note_off_c, 10, 47, 0
11, 138311, Note_on_c, 10, 49, 69
11, 138762, Note_off_c, 10, 49, 0
11, 139279, Note_on_c, 10, 49, 55
11, 139462, Note_off_c, 10, 49, 0
11, 139518, Note_on_c, 10, 49, 52
11, 139748, Note_off_c, 10, 49, 0
11, 140231, Note_on_c, 10, 49, 69
11, 140682, Note_off_c, 10, 49, 0
11, 141199, Note_on_c, 10, 47, 67
11, 142108, Note_off_c, 10, 47, 0
11, 142151, Note_on_c, 10, 49, 69
11, 142602, Note_off_c, 10, 49, 0
11, 143119, Note_on_c, 10, 49, 55
11, 143302, Note_off_c, 10, 49, 0
11, 143358, Note_on_c, 10, 49, 52
11, 143588, Note_off_c, 10, 49, 0
11, 144071, Note_on_c, 10, 49, 69
11, 144522, Note_off_c, 10, 49, 0
11, 145039, Note_on_c, 10, 47, 67
11, 145948, Note_off_c, 10, 47, 0
11, 145991, Note_on_c, 10, 49, 69
11, 146442, Note_off_c, 10, 49, 0
11, 146959, Note_on_c, 10, 49, 55
11, 147142, Note_off_c, 10, 49, 0
11, 147198, Note_on_c, 10, 49, 52
11, 147428, Note_off_c, 10, 49, 0
11, 147911, Note_on_c, 10, 49, 69
11, 148362, Note_off_c, 10, 49, 0
11, 148879, Note_on_c, 10, 47, 67
11, 149788, Note_off_c, 10, 47, 0
11, 149831, Note_on_c, 10, 49, 69
11, 150282, Note_off_c, 10, 49, 0
11, 150799, Note_on_c, 10, 49, 55
11, 150982, Note_off_c, 10, 49, 0
11, 151038, Note_on_c, 10, 49, 52
11, 151268, Note_off_c, 10, 49, 0
11, 151751, Note_on_c, 10, 49, 69
11, 152202, Note_off_c, 10, 49, 0
11, 152719, Note_on_c, 10, 47, 67
11, 153628, Note_off_c, 10, 47, 0
11, 153671, Note_on_c, 10, 49, 69
11, 154122, Note_off_c, 10, 49, 0
11, 154639, Note_on_c, 10, 49, 78
11, 154822, Note_off_c, 10, 49, 0
11, 154878, Note_on_c, 10, 49, 75
11, 155108, Note_off_c, 10, 49, 0
11, 155591, Note_on_c, 10, 42, 92
11, 156518, Note_off_c, 10, 42, 0
11, 156559, Note_on_c, 10, 44, 90
11, 157468, Note_off_c, 10, 44, 0
11, 157511, Note_on_c, 10, 49, 92
11, 158438, Note_off_c, 10, 49, 0
11, 158479, Note_on_c, 10, 49, 90
11, 158677, Note_off_c, 10, 49, 0
11, 158718, Note_on_c, 10, 49, 87
11, 159388, Note_off_c, 10, 49, 0
11, 159431, Note_on_c, 10, 49, 92
11, 159882, Note_off_c, 10, 49, 0
11, 159923, Note_on_c, 10, 51, 88
11, 160358, Note_off_c, 10, 51, 0
11, 160399, Note_on_c, 10, 52, 90
11, 160833, Note_off_c, 10, 52, 0
11, 160875, Note_on_c, 10, 56, 88
11, 161308, Note_off_c, 10, 56, 0
11, 161351, Note_on_c, 10, 54, 83
11, 163229, Note_off_c, 10, 54, 0
11, 163271, Note_on_c, 10, 44, 83
11, 165149, Note_off_c, 10, 44, 0
11, 165191, Note_on_c, 10, 49, 83
11, 167069, Note_off_c, 10, 49, 0
11, 167111, Note_on_c, 10, 49, 83
11, 168989, Note_off_c, 10, 49, 0
11, 169031, Note_on_c, 10, 46, 88
11, 169959, Note_off_c, 10, 46, 0
11, 169999, Note_on_c, 10, 45, 86
11, 170909, Note_off_c, 10, 45, 0
11, 170951, Note_on_c, 10, 44, 88
11, 171879, Note_off_c, 10, 44, 0
11, 171919, Note_on_c, 10, 48, 86
11, 172829, Note_off_c, 10, 48, 0
11, 172871, Note_on_c, 10, 49, 88
11, 173323, Note_off_c, 10, 49, 0
11, 173363, Note_on_c, 10, 51, 84
11, 173799, Note_off_c, 10, 51, 0
11, 173839, Note_on_c, 10, 52, 86
11, 174275, Note_off_c, 10, 52, 0
11, 174315, Note_on_c, 10, 51, 84
11, 174749, Note_off_c, 10, 51, 0
11, 174791, Note_on_c, 10, 52, 88
11, 175243, Note_off_c, 10, 52, 0
11, 175283, Note_on_c, 10, 54, 84
11, 175719, Note_off_c, 10, 54, 0
11, 175759, Note_on_c, 10, 56, 86
11, 176195, Note_off_c, 10, 56, 0
11, 176235, Note_on_c, 10, 58, 84
11, 176669, Note_off_c, 10, 58, 0
11, 176711, Note_on_c, 10, 54, 93
11, 177639, Note_off_c, 10, 54, 0
11, 177679, Note_on_c, 10, 56, 91
11, 178115, Note_off_c, 10, 56, 0
11, 178155, Note_on_c, 10, 57, 89
11, 178589, Note_off_c, 10, 57, 0
11, 178631, Note_on_c, 10, 57, 93
11, 179083, Note_off_c, 10, 57, 0
11, 179123, Note_on_c, 10, 56, 89
11, 179559, Note_off_c, 10, 56, 0
11, 179599, Note_on_c, 10, 54, 91
11, 180509, Note_off_c, 10, 54, 0
11, 180551, Note_on_c, 10, 59, 81
11, 180750, Note_off_c, 10, 59, 0
11, 180805, Note_on_c, 10, 59, 76
11, 180988, Note_off_c, 10, 59, 0
11, 181043, Note_on_c, 10, 59, 77
11, 181225, Note_off_c, 10, 59, 0
11, 181280, Note_on_c, 10, 59, 76
11, 181464, Note_off_c, 10, 59, 0
11, 181519, Note_on_c, 10, 59, 79
11, 181703, Note_off_c, 10, 59, 0
11, 181758, Note_on_c, 10, 59, 76
11, 181940, Note_off_c, 10, 59, 0
11, 181995, Note_on_c, 10, 59, 77
11, 182176, Note_off_c, 10, 59, 0
11, 182231, Note_on_c, 10, 59, 76
11, 182414, Note_off_c, 10, 59, 0
11, 182471, Note_on_c, 10, 59, 81
11, 182670, Note_off_c, 10, 59, 0
11, 182725, Note_on_c, 10, 59, 76
11, 182908, Note_off_c, 10, 59, 0
11, 182963, Note_on_c, 10, 59, 77
11, 183145, Note_off_c, 10, 59, 0
11, 183200, Note_on_c, 10, 59, 76
11, 183384, Note_off_c, 10, 59, 0
11, 183439, Note_on_c, 10, 59, 79
11, 183623, Note_off_c, 10, 59, 0
11, 183678, Note_on_c, 10, 59, 76
11, 183860, Note_off_c, 10, 59, 0
11, 183915, Note_on_c, 10, 59, 77
11, 184096, Note_off_c, 10, 59, 0
11, 184151, Note_on_c, 10, 59, 76
11, 184382, Note_off_c, 10, 59, 0
11, 184391, Note_on_c, 10, 58, 93
11, 185319, Note_off_c, 10, 58, 0
11, 185359, Note_on_c, 10, 59, 91
11, 185795, Note_off_c, 10, 59, 0
11, 185835, Note_on_c, 10, 61, 89
11, 186269, Note_off_c, 10, 61, 0
11, 186311, Note_on_c, 10, 61, 93
11, 186763, Note_off_c, 10, 61, 0
11, 186803, Note_on_c, 10, 59, 89
11, 187239, Note_off_c, 10, 59, 0
11, 187279, Note_on_c, 10, 59, 91
11, 187715, Note_off_c, 10, 59, 0
11, 187755, Note_on_c, 10, 58, 89
11, 188189, Note_off_c, 10, 58, 0
11, 188231, Note_on_c, 10, 44, 93
11, 189159, Note_off_c, 10, 44, 0
11, 189199, Note_on_c, 10, 42, 91
11, 190109, Note_off_c, 10, 42, 0
11, 190151, Note_on_c, 10, 40, 93
11, 191079, Note_off_c, 10, 40, 0
11, 191119, Note_on_c, 10, 39, 91
11, 192029, Note_off_c, 10, 39, 0
11, 192071, Note_on_c, 10, 42, 93
11, 192285, Note_off_c, 10, 42, 0
11, 192325, Note_on_c, 10, 44, 88
11, 192523, Note_off_c, 10, 44, 0
11, 192563, Note_on_c, 10, 46, 89
11, 192760, Note_off_c, 10, 46, 0
11, 192800, Note_on_c, 10, 47, 88
11, 192999, Note_off_c, 10, 47, 0
11, 193039, Note_on_c, 10, 49, 91
11, 193238, Note_off_c, 10, 49, 0
11, 193278, Note_on_c, 10, 47, 88
11, 193475, Note_off_c, 10, 47, 0
11, 193515, Note_on_c, 10, 49, 89
11, 193711, Note_off_c, 10, 49, 0
11, 193751, Note_on_c, 10, 51, 88
11, 193949, Note_off_c, 10, 51, 0
11, 193991, Note_on_c, 10, 52, 93
11, 194205, Note_off_c, 10, 52, 0
11, 194245, Note_on_c, 10, 51, 88
11, 194443, Note_off_c, 10, 51, 0
11, 194483, Note_on_c, 10, 52, 89
11, 194680, Note_off_c, 10, 52, 0
11, 194720, Note_on_c, 10, 54, 88
11, 194919, Note_off_c, 10, 54, 0
11, 194959, Note_on_c, 10, 56, 91
11, 195158, Note_off_c, 10, 56, 0
11, 195198, Note_on_c, 10, 58, 88
11, 195395, Note_off_c, 10, 58, 0
11, 195435, Note_on_c, 10, 59, 89
11, 195631, Note_off_c, 10, 59, 0
11, 195671, Note_on_c, 10, 60, 88
11, 195869, Note_off_c, 10, 60, 0
11, 195911, Note_on_c, 10, 52, 93
11, 196839, Note_off_c, 10, 52, 0
11, 196879, Note_on_c, 10, 52, 91
11, 197315, Note_off_c, 10, 52, 0
11, 197355, Note_on_c, 10, 51, 89
11, 197789, Note_off_c, 10, 51, 0
11, 197831, Note_on_c, 10, 52, 93
11, 198283, Note_off_c, 10, 52, 0
11, 198323, Note_on_c, 10, 51, 89
11, 198759, Note_off_c, 10, 51, 0
11, 198799, Note_on_c, 10, 49, 91
11, 199709, Note_off_c, 10, 49, 0
11, 199751, Note_on_c, 10, 42, 93
11, 199965, Note_off_c, 10, 42, 0
11, 200005, Note_on_c, 10, 44, 88
11, 200203, Note_off_c, 10, 44, 0
11, 200243, Note_on_c, 10, 46, 89
11, 200440, Note_off_c, 10, 46, 0
11, 200480, Note_on_c, 10, 47, 88
11, 200679, Note_off_c, 10, 47, 0
11, 200719, Note_on_c, 10, 49, 91
11, 200918, Note_off_c, 10, 49, 0
11, 200958, Note_on_c, 10, 47, 88
11, 201155, Note_off_c, 10, 47, 0
11, 201195, Note_on_c, 10, 49, 89
11, 201391, Note_off_c, 10, 49, 0
11, 201431, Note_on_c, 10, 51, 88
11, 201629, Note_off_c, 10, 51, 0
11, 201671, Note_on_c, 10, 52, 93
11, 201885, Note_off_c, 10, 52, 0
11, 201925, Note_on_c, 10, 51, 88
11, 202123, Note_off_c, 10, 51, 0
11, 202163, Note_on_c, 10, 52, 89
11, 202360, Note_off_c, 10, 52, 0
11, 202400, Note_on_c, 10, 54, 88
11, 202599, Note_off_c, 10, 54, 0
11, 202639, Note_on_c, 10, 56, 91
11, 202838, Note_off_c, 10, 56, 0
11, 202878, Note_on_c, 10, 58, 88
11, 203075, Note_off_c, 10, 58, 0
11, 203115, Note_on_c, 10, 59, 89
11, 203311, Note_off_c, 10, 59, 0
11, 203351, Note_on_c, 10, 60, 88
11, 203549, Note_off_c, 10, 60, 0
11, 203591, Note_on_c, 10, 54, 93
11, 204519, Note_off_c, 10, 54, 0
11, 204559, Note_on_c, 10, 57, 91
11, 204995, Note_off_c, 10, 57, 0
11, 205035, Note_on_c, 10, 56, 89
11, 205469, Note_off_c, 10, 56, 0
11, 205511, Note_on_c, 10, 54, 93
11, 205963, Note_off_c, 10, 54, 0
11, 206003, Note_on_c, 10, 52, 89
11, 206439, Note_off_c, 10, 52, 0
11, 206479, Note_on_c, 10, 51, 91
11, 206915, Note_off_c, 10, 51, 0
11, 206955, Note_on_c, 10, 47, 89
11, 207389, Note_off_c, 10, 47, 0
11, 222791, Note_on_c, 10, 56, 93
11, 223719, Note_off_c, 10, 56, 0
11, 223759, Note_on_c, 10, 56, 91
11, 224195, Note_off_c, 10, 56, 0
11, 224235, Note_on_c, 10, 57, 89
11, 224669, Note_off_c, 10, 57, 0
11, 224711, Note_on_c, 10, 56, 93
11, 225163, Note_off_c, 10, 56, 0
11, 225203, Note_on_c, 10, 54, 89
11, 225639, Note_off_c, 10, 54, 0
11, 225679, Note_on_c, 10, 52, 91
11, 226589, Note_off_c, 10, 52, 0
11, 226631, Note_on_c, 10, 59, 93
11, 227559, Note_off_c, 10, 59, 0
11, 227599, Note_on_c, 10, 59, 91
11, 228035, Note_off_c, 10, 59, 0
11, 228075, Note_on_c, 10, 61, 89
11, 228509, Note_off_c, 10, 61, 0
11, 228551, Note_on_c, 10, 59, 93
11, 229479, Note_off_c, 10, 59, 0
11, 229519, Note_on_c, 10, 57, 91
11, 229955, Note_off_c, 10, 57, 0
11, 229995, Note_on_c, 10, 56, 89
11, 230429, Note_off_c, 10, 56, 0
11, 230471, Note_on_c, 10, 57, 93
11, 231399, Note_off_c, 10, 57, 0
11, 231439, Note_on_c, 10, 54, 91
11, 231875, Note_off_c, 10, 54, 0
11, 231915, Note_on_c, 10, 56, 89
11, 232349, Note_off_c, 10, 56, 0
11, 232391, Note_on_c, 10, 57, 93
11, 233319, Note_off_c, 10, 57, 0
11, 233359, Note_on_c, 10, 56, 91
11, 233795, Note_off_c, 10, 56, 0
11, 233835, Note_on_c, 10, 54, 89
11, 234269, Note_off_c, 10, 54, 0
11, 234311, Note_on_c, 10, 52, 81
11, 234509, Note_off_c, 10, 52, 0
11, 234565, Note_on_c, 10, 52, 76
11, 234747, Note_off_c, 10, 52, 0
11, 234803, Note_on_c, 10, 52, 77
11, 234984, Note_off_c, 10, 52, 0
11, 235040, Note_on_c, 10, 52, 76
11, 235223, Note_off_c, 10, 52, 0
11, 235279, Note_on_c, 10, 52, 79
11, 235462, Note_off_c, 10, 52, 0
11, 235518, Note_on_c, 10, 52, 76
11, 235698, Note_off_c, 10, 52, 0
11, 235755, Note_on_c, 10, 52, 77
11, 235935, Note_off_c, 10, 52, 0
11, 235991, Note_on_c, 10, 52, 76
11, 236173, Note_off_c, 10, 52, 0
11, 236231, Note_on_c, 10, 52, 81
11, 236429, Note_off_c, 10, 52, 0
11, 236485, Note_on_c, 10, 52, 76
11, 236667, Note_off_c, 10, 52, 0
11, 236723, Note_on_c, 10, 52, 77
11, 236904, Note_off_c, 10, 52, 0
11, 236960, Note_on_c, 10, 52, 76
11, 237143, Note_off_c, 10, 52, 0
11, 237199, Note_on_c, 10, 52, 79
11, 237382, Note_off_c, 10, 52, 0
11, 237438, Note_on_c, 10, 52, 76
11, 237618, Note_off_c, 10, 52, 0
11, 237675, Note_on_c, 10, 52, 77
11, 237855, Note_off_c, 10, 52, 0
11, 237911, Note_on_c, 10, 52, 76
11, 238142, Note_off_c, 10, 52, 0
11, 238151, Note_on_c, 10, 55, 81
11, 238349, Note_off_c, 10, 55, 0
11, 238405, Note_on_c, 10, 55, 76
11, 238587, Note_off_c, 10, 55, 0
11, 238643, Note_on_c, 10, 55, 77
11, 238824, Note_off_c, 10, 55, 0
11, 238880, Note_on_c, 10, 55, 76
11, 239063, Note_off_c, 10, 55, 0
11, 239119, Note_on_c, 10, 55, 79
11, 239302, Note_off_c, 10, 55, 0
11, 239358, Note_on_c, 10, 55, 76
11, 239538, Note_off_c, 10, 55, 0
11, 239595, Note_on_c, 10, 55, 77
11, 239775, Note_off_c, 10, 55, 0
11, 239831, Note_on_c, 10, 55, 76
11, 240013, Note_off_c, 10, 55, 0
11, 240071, Note_on_c, 10, 55, 81
11, 240269, Note_off_c, 10, 55, 0
11, 240325, Note_on_c, 10, 55, 76
11, 240507, Note_off_c, 10, 55, 0
11, 240563, Note_on_c, 10, 55, 77
11, 240744, Note_off_c, 10, 55, 0
11, 240800, Note_on_c, 10, 55, 76
11, 240983, Note_off_c, 10, 55, 0
11, 241039, Note_on_c, 10, 55, 79
11, 241222, Note_off_c, 10, 55, 0
11, 241278, Note_on_c, 10, 55, 76
11, 241458, Note_off_c, 10, 55, 0
11, 241515, Note_on_c, 10, 55, 77
11, 241695, Note_off_c, 10, 55, 0
11, 241751, Note_on_c, 10, 55, 76
11, 241933, Note_off_c, 10, 55, 0
11, 241991, Note_on_c, 10, 55, 81
11, 242189, Note_off_c, 10, 55, 0
11, 242245, Note_on_c, 10, 55, 76
11, 242427, Note_off_c, 10, 55, 0
11, 242483, Note_on_c, 10, 55, 77
11, 242664, Note_off_c, 10, 55, 0
11, 242720, Note_on_c, 10, 55, 76
11, 242903, Note_off_c, 10, 55, 0
11, 242959, Note_on_c, 10, 55, 79
11, 243142, Note_off_c, 10, 55, 0
11, 243198, Note_on_c, 10, 55, 76
11, 243378, Note_off_c, 10, 55, 0
11, 243435, Note_on_c, 10, 55, 77
11, 243615, Note_off_c, 10, 55, 0
11, 243671, Note_on_c, 10, 55, 76
11, 243853, Note_off_c, 10, 55, 0
11, 243911, Note_on_c, 10, 55, 81
11, 244109, Note_off_c, 10, 55, 0
11, 244165, Note_on_c, 10, 55, 76
11, 244347, Note_off_c, 10, 55, 0
11, 244403, Note_on_c, 10, 55, 77
11, 244584, Note_off_c, 10, 55, 0
11, 244640, Note_on_c, 10, 55, 76
11, 244823, Note_off_c, 10, 55, 0
11, 244879, Note_on_c, 10, 55, 79
11, 245062, Note_off_c, 10, 55, 0
11, 245118, Note_on_c, 10, 55, 76
11, 245298, Note_off_c, 10, 55, 0
11, 245355, Note_on_c, 10, 55, 77
11, 245535, Note_off_c, 10, 55, 0
11, 245591, Note_on_c, 10, 55, 76
11, 245773, Note_off_c, 10, 55, 0
11, 245831, Note_on_c, 10, 55, 81
11, 246029, Note_off_c, 10, 55, 0
11, 246085, Note_on_c, 10, 55, 76
11, 246267, Note_off_c, 10, 55, 0
11, 246323, Note_on_c, 10, 55, 77
11, 246504, Note_off_c, 10, 55, 0
11, 246560, Note_on_c, 10, 55, 76
11, 246743, Note_off_c, 10, 55, 0
11, 246799, Note_on_c, 10, 55, 79
11, 246982, Note_off_c, 10, 55, 0
11, 247038, Note_on_c, 10, 55, 76
11, 247218, Note_off_c, 10, 55, 0
11, 247275, Note_on_c, 10, 55, 77
11, 247455, Note_off_c, 10, 55, 0
11, 247511, Note_on_c, 10, 55, 76
11, 247693, Note_off_c, 10, 55, 0
11, 247751, Note_on_c, 10, 55, 81
11, 247949, Note_off_c, 10, 55, 0
11, 248005, Note_on_c, 10, 55, 76
11, 248187, Note_off_c, 10, 55, 0
11, 248243, Note_on_c, 10, 55, 77
11, 248424, Note_off_c, 10, 55, 0
11, 248480, Note_on_c, 10, 55, 76
11, 248712, Note_off_c, 10, 55, 0
11, 248719, Note_on_c, 10, 57, 79
11, 248902, Note_off_c, 10, 57, 0
11, 248958, Note_on_c, 10, 57, 76
11, 249138, Note_off_c, 10, 57, 0
11, 249195, Note_on_c, 10, 57, 77
11, 249375, Note_off_c, 10, 57, 0
11, 249431, Note_on_c, 10, 57, 76
11, 249662, Note_off_c, 10, 57, 0
11, 249671, Note_on_c, 10, 55, 81
11, 249869, Note_off_c, 10, 55, 0
11, 249925, Note_on_c, 10, 55, 76
11, 250107, Note_off_c, 10, 55, 0
11, 250163, Note_on_c, 10, 55, 77
11, 250344, Note_off_c, 10, 55, 0
11, 250400, Note_on_c, 10, 55, 76
11, 250583, Note_off_c, 10, 55, 0
11, 250639, Note_on_c, 10, 55, 79
11, 250822, Note_off_c, 10, 55, 0
11, 250878, Note_on_c, 10, 55, 76
11, 251058, Note_off_c, 10, 55, 0
11, 251115, Note_on_c, 10, 55, 77
11, 251295, Note_off_c, 10, 55, 0
11, 251351, Note_on_c, 10, 55, 76
11, 251533, Note_off_c, 10, 55, 0
11, 251591, Note_on_c, 10, 55, 81
11, 251789, Note_off_c, 10, 55, 0
11, 251845, Note_on_c, 10, 55, 76
11, 252027, Note_off_c, 10, 55, 0
11, 252083, Note_on_c, 10, 55, 77
11, 252264, Note_off_c, 10, 55, 0
11, 252320, Note_on_c, 10, 55, 76
11, 252552, Note_off_c, 10, 55, 0
11, 252559, Note_on_c, 10, 53, 79
11, 252742, Note_off_c, 10, 53, 0
11, 252798, Note_on_c, 10, 53, 76
11, 252978, Note_off_c, 10, 53, 0
11, 253035, Note_on_c, 10, 53, 77
11, 253215, Note_off_c, 10, 53, 0
11, 253271, Note_on_c, 10, 53, 76
11, 253502, Note_off_c, 10, 53, 0
11, 253511, Note_on_c, 10, 55, 81
11, 253709, Note_off_c, 10, 55, 0
11, 253765, Note_on_c, 10, 55, 76
11, 253947, Note_off_c, 10, 55, 0
11, 254003, Note_on_c, 10, 55, 77
11, 254184, Note_off_c, 10, 55, 0
11, 254240, Note_on_c, 10, 55, 76
11, 254423, Note_off_c, 10, 55, 0
11, 254479, Note_on_c, 10, 55, 79
11, 254662, Note_off_c, 10, 55, 0
11, 254718, Note_on_c, 10, 55, 76
11, 254898, Note_off_c, 10, 55, 0
11, 254955, Note_on_c, 10, 55, 77
11, 255135, Note_off_c, 10, 55, 0
11, 255191, Note_on_c, 10, 55, 76
11, 255373, Note_off_c, 10, 55, 0
11, 255431, Note_on_c, 10, 55, 81
11, 255629, Note_off_c, 10, 55, 0
11, 255685, Note_on_c, 10, 55, 76
11, 255867, Note_off_c, 10, 55, 0
11, 255923, Note_on_c, 10, 55, 77
11, 256104, Note_off_c, 10, 55, 0
11, 256160, Note_on_c, 10, 55, 76
11, 256392, Note_off_c, 10, 55, 0
11, 256399, Note_on_c, 10, 53, 79
11, 256582, Note_off_c, 10, 53, 0
11, 256638, Note_on_c, 10, 53, 76
11, 256818, Note_off_c, 10, 53, 0
11, 256875, Note_on_c, 10, 53, 77
11, 257055, Note_off_c, 10, 53, 0
11, 257111, Note_on_c, 10, 53, 76
11, 257342, Note_off_c, 10, 53, 0
11, 259271, Note_on_c, 10, 58, 92
11, 261148, Note_off_c, 10, 58, 0
11, 261191, Note_on_c, 10, 55, 119
11, 261443, Note_off_c, 10, 55, 0
11, 261683, Note_on_c, 10, 43, 116
11, 261792, Note_off_c, 10, 43, 0
11, 261843, Note_on_c, 10, 43, 115
11, 261946, Note_off_c, 10, 43, 0
11, 261997, Note_on_c, 10, 43, 115
11, 262108, Note_off_c, 10, 43, 0
11, 262159, Note_on_c, 10, 43, 127
11, 262593, Note_off_c, 10, 43, 0
11, 262593, End_track
12, 0, Start_track
12, 0, Title_t, "Trumpet in Bb 2"
12, 0, Instrument_name_t, "Trumpet"
12, 0, Program_c, 11, 56
12, 127283, Note_on_c, 11, 76, 127
12, 127283, Note_on_c, 11, 64, 127
12, 127392, Note_off_c, 11, 64, 0
12, 127392, Note_off_c, 11, 76, 0
12, 127443, Note_on_c, 11, 64, 127
12, 127443, Note_on_c, 11, 76, 127
12, 127546, Note_off_c, 11, 64, 0
12, 127546, Note_off_c, 11, 76, 0
12, 127597, Note_on_c, 11, 64, 127
12, 127597, Note_on_c, 11, 76, 127
12, 127708, Note_off_c, 11, 64, 0
12, 127708, Note_off_c, 11, 76, 0
12, 127759, Note_on_c, 11, 64, 107
12, 127759, Note_on_c, 11, 76, 107
12, 129638, Note_off_c, 11, 64, 0
12, 129638, Note_off_c, 11, 76, 0
12, 129679, Note_on_c, 11, 63, 106
12, 129679, Note_on_c, 11, 66, 106
12, 130113, Note_off_c, 11, 63, 0
12, 130113, Note_off_c, 11, 66, 0
12, 130155, Note_on_c, 11, 63, 92
12, 130155, Note_on_c, 11, 66, 92
12, 130335, Note_off_c, 11, 63, 0
12, 130335, Note_off_c, 11, 66, 0
12, 130391, Note_on_c, 11, 66, 91
12, 130391, Note_on_c, 11, 63, 91
12, 130622, Note_off_c, 11, 63, 0
12, 130622, Note_off_c, 11, 66, 0
12, 130631, Note_on_c, 11, 61, 103
12, 130631, Note_on_c, 11, 64, 103
12, 132508, Note_off_c, 11, 61, 0
12, 132508, Note_off_c, 11, 64, 0
12, 133519, Note_on_c, 11, 59, 95
12, 133519, Note_on_c, 11, 63, 94
12, 133717, Note_off_c, 11, 59, 0
12, 133717, Note_off_c, 11, 63, 0
12, 133758, Note_on_c, 11, 61, 92
12, 133758, Note_on_c, 11, 64, 91
12, 133953, Note_off_c, 11, 61, 0
12, 133953, Note_off_c, 11, 64, 0
12, 133995, Note_on_c, 11, 63, 93
12, 133995, Note_on_c, 11, 66, 92
12, 134190, Note_off_c, 11, 63, 0
12, 134190, Note_off_c, 11, 66, 0
12, 134231, Note_on_c, 11, 64, 92
12, 134231, Note_on_c, 11, 68, 91
12, 134428, Note_off_c, 11, 64, 0
12, 134428, Note_off_c, 11, 68, 0
12, 134471, Note_on_c, 11, 64, 91
12, 134471, Note_on_c, 11, 61, 92
12, 136348, Note_off_c, 11, 64, 0
12, 136348, Note_off_c, 11, 61, 0
12, 137120, Note_on_c, 11, 59, 88
12, 137120, Note_on_c, 11, 63, 88
12, 137318, Note_off_c, 11, 59, 0
12, 137318, Note_off_c, 11, 63, 0
12, 137359, Note_on_c, 11, 59, 91
12, 137359, Note_on_c, 11, 63, 91
12, 137557, Note_off_c, 11, 59, 0
12, 137557, Note_off_c, 11, 63, 0
12, 137598, Note_on_c, 11, 61, 88
12, 137598, Note_on_c, 11, 64, 88
12, 137793, Note_off_c, 11, 61, 0
12, 137793, Note_off_c, 11, 64, 0
12, 137835, Note_on_c, 11, 63, 89
12, 137835, Note_on_c, 11, 66, 89
12, 138030, Note_off_c, 11, 63, 0
12, 138030, Note_off_c, 11, 66, 0
12, 138071, Note_on_c, 11, 64, 88
12, 138071, Note_on_c, 11, 68, 88
12, 138268, Note_off_c, 11, 64, 0
12, 138268, Note_off_c, 11, 68, 0
12, 138311, Note_on_c, 11, 61, 88
12, 138311, Note_on_c, 11, 64, 88
12, 140188, Note_off_c, 11, 61, 0
12, 140188, Note_off_c, 11, 64, 0
12, 140723, Note_on_c, 11, 61, 80
12, 140723, Note_on_c, 11, 61, 80
12, 140730, Note_off_c, 11, 61, 0
12, 140731, Note_off_c, 11, 61, 0
12, 140960, Note_on_c, 11, 61, 79
12, 140960, Note_on_c, 11, 61, 79
12, 140967, Note_off_c, 11, 61, 0
12, 140967, Note_off_c, 11, 61, 0
12, 141199, Note_on_c, 11, 59, 94
12, 141199, Note_on_c, 11, 59, 94
12, 141206, Note_off_c, 11, 59, 0
12, 141206, Note_off_c, 11, 59, 0
12, 141675, Note_on_c, 11, 59, 80
12, 141675, Note_on_c, 11, 59, 80
12, 141682, Note_off_c, 11, 59, 0
12, 141682, Note_off_c, 11, 59, 0
12, 141911, Note_on_c, 11, 59, 79
12, 141911, Note_on_c, 11, 59, 79
12, 141918, Note_off_c, 11, 59, 0
12, 141919, Note_off_c, 11, 59, 0
12, 142151, Note_on_c, 11, 56, 96
12, 142151, Note_on_c, 11, 56, 96
12, 142158, Note_off_c, 11, 56, 0
12, 142158, Note_off_c, 11, 56, 0
12, 142643, Note_on_c, 11, 61, 91
12, 142643, Note_on_c, 11, 61, 91
12, 142650, Note_off_c, 11, 61, 0
12, 142651, Note_off_c, 11, 61, 0
12, 147911, Note_on_c, 11, 68, 96
12, 148838, Note_off_c, 11, 68, 0
12, 148879, Note_on_c, 11, 66, 94
12, 149788, Note_off_c, 11, 66, 0
12, 149831, Note_on_c, 11, 61, 91
12, 151708, Note_off_c, 11, 61, 0
12, 152719, Note_on_c, 11, 63, 94
12, 153628, Note_off_c, 11, 63, 0
12, 153671, Note_on_c, 11, 61, 91
12, 155548, Note_off_c, 11, 61, 0
12, 159431, Note_on_c, 11, 73, 117
12, 159431, Note_on_c, 11, 76, 117
12, 159882, Note_off_c, 11, 73, 0
12, 159882, Note_off_c, 11, 76, 0
12, 159923, Note_on_c, 11, 72, 113
12, 159923, Note_on_c, 11, 75, 113
12, 160358, Note_off_c, 11, 72, 0
12, 160358, Note_off_c, 11, 75, 0
12, 160399, Note_on_c, 11, 73, 115
12, 160399, Note_on_c, 11, 73, 115
12, 160406, Note_off_c, 11, 73, 0
12, 160406, Note_off_c, 11, 73, 0
12, 161351, Note_on_c, 11, 66, 97
12, 161351, Note_on_c, 11, 69, 97
12, 163229, Note_off_c, 11, 66, 0
12, 163229, Note_off_c, 11, 69, 0
12, 163271, Note_on_c, 11, 68, 97
12, 163271, Note_on_c, 11, 68, 97
12, 163278, Note_off_c, 11, 68, 0
12, 163278, Note_off_c, 11, 68, 0
12, 165191, Note_on_c, 11, 64, 102
12, 165191, Note_on_c, 11, 68, 102
12, 165643, Note_off_c, 11, 64, 0
12, 165643, Note_off_c, 11, 68, 0
12, 165683, Note_on_c, 11, 64, 98
12, 165683, Note_on_c, 11, 68, 98
12, 166119, Note_off_c, 11, 64, 0
12, 166119, Note_off_c, 11, 68, 0
12, 166159, Note_on_c, 11, 64, 100
12, 166159, Note_on_c, 11, 68, 100
12, 166595, Note_off_c, 11, 64, 0
12, 166595, Note_off_c, 11, 68, 0
12, 166635, Note_on_c, 11, 68, 98
12, 166635, Note_on_c, 11, 64, 98
12, 167069, Note_off_c, 11, 64, 0
12, 167069, Note_off_c, 11, 68, 0
12, 167111, Note_on_c, 11, 65, 125
12, 167111, Note_on_c, 11, 68, 109
12, 167563, Note_off_c, 11, 65, 0
12, 167563, Note_off_c, 11, 68, 0
12, 167603, Note_on_c, 11, 65, 121
12, 167603, Note_on_c, 11, 68, 105
12, 168039, Note_off_c, 11, 65, 0
12, 168039, Note_off_c, 11, 68, 0
12, 168079, Note_on_c, 11, 65, 123
12, 168079, Note_on_c, 11, 68, 107
12, 168515, Note_off_c, 11, 65, 0
12, 168515, Note_off_c, 11, 68, 0
12, 168555, Note_on_c, 11, 65, 121
12, 168555, Note_on_c, 11, 68, 105
12, 168989, Note_off_c, 11, 65, 0
12, 168989, Note_off_c, 11, 68, 0
12, 169031, Note_on_c, 11, 70, 109
12, 169031, Note_on_c, 11, 73, 109
12, 169483, Note_off_c, 11, 70, 0
12, 169483, Note_off_c, 11, 73, 0
12, 169523, Note_on_c, 11, 70, 105
12, 169523, Note_on_c, 11, 73, 105
12, 169959, Note_off_c, 11, 70, 0
12, 169959, Note_off_c, 11, 73, 0
12, 169999, Note_on_c, 11, 70, 107
12, 169999, Note_on_c, 11, 73, 107
12, 170435, Note_off_c, 11, 70, 0
12, 170435, Note_off_c, 11, 73, 0
12, 170475, Note_on_c, 11, 70, 105
12, 170475, Note_on_c, 11, 73, 105
12, 170909, Note_off_c, 11, 70, 0
12, 170909, Note_off_c, 11, 73, 0
12, 170951, Note_on_c, 11, 72, 109
12, 170951, Note_on_c, 11, 75, 109
12, 171403, Note_off_c, 11, 72, 0
12, 171403, Note_off_c, 11, 75, 0
12, 171443, Note_on_c, 11, 72, 105
12, 171443, Note_on_c, 11, 75, 105
12, 171879, Note_off_c, 11, 72, 0
12, 171879, Note_off_c, 11, 75, 0
12, 171919, Note_on_c, 11, 72, 107
12, 171919, Note_on_c, 11, 75, 107
12, 172355, Note_off_c, 11, 72, 0
12, 172355, Note_off_c, 11, 75, 0
12, 172395, Note_on_c, 11, 72, 105
12, 172395, Note_on_c, 11, 75, 105
12, 172829, Note_off_c, 11, 75, 0
12, 172829, Note_off_c, 11, 72, 0
12, 172871, Note_on_c, 11, 73, 109
12, 172871, Note_on_c, 11, 76, 104
12, 173323, Note_off_c, 11, 73, 0
12, 173363, Note_on_c, 11, 75, 105
12, 173799, Note_off_c, 11, 75, 0
12, 173839, Note_off_c, 11, 76, 0
12, 173839, Note_on_c, 11, 76, 107
12, 174275, Note_off_c, 11, 76, 0
12, 174315, Note_on_c, 11, 78, 127
12, 174749, Note_off_c, 11, 78, 0
12, 174791, Note_on_c, 11, 80, 127
12, 176669, Note_off_c, 11, 80, 0
12, 176711, Note_on_c, 11, 63, 123
12, 176711, Note_on_c, 11, 66, 105
12, 176910, Note_off_c, 11, 63, 0
12, 176910, Note_off_c, 11, 66, 0
12, 176965, Note_on_c, 11, 63, 118
12, 176965, Note_on_c, 11, 66, 100
12, 177148, Note_off_c, 11, 63, 0
12, 177148, Note_off_c, 11, 66, 0
12, 177203, Note_on_c, 11, 66, 101
12, 177203, Note_on_c, 11, 63, 119
12, 177385, Note_off_c, 11, 66, 0
12, 177385, Note_off_c, 11, 63, 0
12, 177440, Note_on_c, 11, 63, 118
12, 177440, Note_on_c, 11, 66, 100
12, 177624, Note_off_c, 11, 63, 0
12, 177624, Note_off_c, 11, 66, 0
12, 177679, Note_on_c, 11, 63, 121
12, 177679, Note_on_c, 11, 66, 103
12, 177863, Note_off_c, 11, 63, 0
12, 177863, Note_off_c, 11, 66, 0
12, 177918, Note_on_c, 11, 63, 118
12, 177918, Note_on_c, 11, 66, 100
12, 178100, Note_off_c, 11, 63, 0
12, 178100, Note_off_c, 11, 66, 0
12, 178155, Note_on_c, 11, 63, 119
12, 178155, Note_on_c, 11, 66, 101
12, 178336, Note_off_c, 11, 63, 0
12, 178336, Note_off_c, 11, 66, 0
12, 178391, Note_on_c, 11, 63, 118
12, 178391, Note_on_c, 11, 66, 100
12, 178574, Note_off_c, 11, 63, 0
12, 178574, Note_off_c, 11, 66, 0
12, 178631, Note_on_c, 11, 63, 123
12, 178631, Note_on_c, 11, 66, 105
12, 178830, Note_off_c, 11, 63, 0
12, 178830, Note_off_c, 11, 66, 0
12, 178885, Note_on_c, 11, 66, 100
12, 178885, Note_on_c, 11, 63, 118
12, 179068, Note_off_c, 11, 66, 0
12, 179068, Note_off_c, 11, 63, 0
12, 179123, Note_on_c, 11, 63, 119
12, 179123, Note_on_c, 11, 66, 101
12, 179305, Note_off_c, 11, 63, 0
12, 179305, Note_off_c, 11, 66, 0
12, 179360, Note_on_c, 11, 63, 118
12, 179360, Note_on_c, 11, 66, 100
12, 179544, Note_off_c, 11, 63, 0
12, 179544, Note_off_c, 11, 66, 0
12, 179599, Note_on_c, 11, 63, 121
12, 179599, Note_on_c, 11, 66, 103
12, 179783, Note_off_c, 11, 63, 0
12, 179783, Note_off_c, 11, 66, 0
12, 179838, Note_on_c, 11, 63, 118
12, 179838, Note_on_c, 11, 66, 100
12, 180020, Note_off_c, 11, 63, 0
12, 180020, Note_off_c, 11, 66, 0
12, 180075, Note_on_c, 11, 63, 119
12, 180075, Note_on_c, 11, 66, 101
12, 180256, Note_off_c, 11, 63, 0
12, 180256, Note_off_c, 11, 66, 0
12, 180311, Note_on_c, 11, 66, 100
12, 180311, Note_on_c, 11, 63, 118
12, 180542, Note_off_c, 11, 66, 0
12, 180542, Note_off_c, 11, 63, 0
12, 180551, Note_on_c, 11, 59, 123
12, 180551, Note_on_c, 11, 64, 105
12, 180750, Note_off_c, 11, 59, 0
12, 180750, Note_off_c, 11, 64, 0
12, 180805, Note_on_c, 11, 59, 118
12, 180805, Note_on_c, 11, 64, 100
12, 180988, Note_off_c, 11, 59, 0
12, 180988, Note_off_c, 11, 64, 0
12, 181043, Note_on_c, 11, 59, 119
12, 181043, Note_on_c, 11, 64, 101
12, 181225, Note_off_c, 11, 59, 0
12, 181225, Note_off_c, 11, 64, 0
12, 181280, Note_on_c, 11, 59, 118
12, 181280, Note_on_c, 11, 64, 100
12, 181464, Note_off_c, 11, 59, 0
12, 181464, Note_off_c, 11, 64, 0
12, 181519, Note_on_c, 11, 59, 121
12, 181519, Note_on_c, 11, 64, 103
12, 181703, Note_off_c, 11, 59, 0
12, 181703, Note_off_c, 11, 64, 0
12, 181758, Note_on_c, 11, 64, 100
12, 181758, Note_on_c, 11, 59, 118
12, 181940, Note_off_c, 11, 59, 0
12, 181940, Note_off_c, 11, 64, 0
12, 181995, Note_on_c, 11, 59, 119
12, 181995, Note_on_c, 11, 64, 101
12, 182176, Note_off_c, 11, 59, 0
12, 182176, Note_off_c, 11, 64, 0
12, 182231, Note_on_c, 11, 59, 118
12, 182231, Note_on_c, 11, 64, 100
12, 182414, Note_off_c, 11, 59, 0
12, 182414, Note_off_c, 11, 64, 0
12, 182471, Note_on_c, 11, 59, 123
12, 182471, Note_on_c, 11, 64, 105
12, 182670, Note_off_c, 11, 59, 0
12, 182670, Note_off_c, 11, 64, 0
12, 182725, Note_on_c, 11, 59, 118
12, 182725, Note_on_c, 11, 64, 100
12, 182908, Note_off_c, 11, 59, 0
12, 182908, Note_off_c, 11, 64, 0
12, 182963, Note_on_c, 11, 59, 119
12, 182963, Note_on_c, 11, 64, 101
12, 183145, Note_off_c, 11, 59, 0
12, 183145, Note_off_c, 11, 64, 0
12, 183200, Note_on_c, 11, 59, 118
12, 183200, Note_on_c, 11, 64, 100
12, 183384, Note_off_c, 11, 59, 0
12, 183384, Note_off_c, 11, 64, 0
12, 183439, Note_on_c, 11, 59, 121
12, 183439, Note_on_c, 11, 64, 103
12, 183623, Note_off_c, 11, 59, 0
12, 183623, Note_off_c, 11, 64, 0
12, 183678, Note_on_c, 11, 59, 118
12, 183678, Note_on_c, 11, 64, 100
12, 183860, Note_off_c, 11, 59, 0
12, 183860, Note_off_c, 11, 64, 0
12, 183915, Note_on_c, 11, 59, 119
12, 183915, Note_on_c, 11, 64, 101
12, 184096, Note_off_c, 11, 59, 0
12, 184096, Note_off_c, 11, 64, 0
12, 184151, Note_on_c, 11, 59, 118
12, 184151, Note_on_c, 11, 64, 100
12, 184382, Note_off_c, 11, 59, 0
12, 184382, Note_off_c, 11, 64, 0
12, 184391, Note_on_c, 11, 61, 117
12, 184391, Note_on_c, 11, 67, 117
12, 185319, Note_off_c, 11, 61, 0
12, 185319, Note_off_c, 11, 67, 0
12, 185359, Note_on_c, 11, 68, 115
12, 185359, Note_on_c, 11, 63, 115
12, 185795, Note_off_c, 11, 68, 0
12, 185795, Note_off_c, 11, 63, 0
12, 185835, Note_on_c, 11, 64, 113
12, 185835, Note_on_c, 11, 70, 113
12, 186269, Note_off_c, 11, 64, 0
12, 186269, Note_off_c, 11, 70, 0
12, 186311, Note_on_c, 11, 64, 117
12, 186311, Note_on_c, 11, 70, 117
12, 186763, Note_off_c, 11, 64, 0
12, 186763, Note_off_c, 11, 70, 0
12, 186803, Note_on_c, 11, 63, 113
12, 186803, Note_on_c, 11, 68, 113
12, 187239, Note_off_c, 11, 63, 0
12, 187239, Note_off_c, 11, 68, 0
12, 187279, Note_on_c, 11, 63, 115
12, 187279, Note_on_c, 11, 68, 115
12, 187715, Note_off_c, 11, 63, 0
12, 187715, Note_off_c, 11, 68, 0
12, 187755, Note_on_c, 11, 61, 113
12, 187755, Note_on_c, 11, 67, 113
12, 188189, Note_off_c, 11, 61, 0
12, 188189, Note_off_c, 11, 67, 0
12, 188231, Note_on_c, 11, 75, 127
12, 188231, Note_on_c, 11, 71, 127
12, 189159, Note_off_c, 11, 71, 0
12, 189159, Note_off_c, 11, 75, 0
12, 189199, Note_on_c, 11, 71, 127
12, 189199, Note_on_c, 11, 75, 127
12, 191079, Note_off_c, 11, 71, 0
12, 191079, Note_off_c, 11, 75, 0
12, 191119, Note_on_c, 11, 56, 127
12, 191119, Note_on_c, 11, 68, 127
12, 192029, Note_off_c, 11, 56, 0
12, 192029, Note_off_c, 11, 68, 0
12, 192071, Note_on_c, 11, 61, 127
12, 192071, Note_on_c, 11, 73, 127
12, 195869, Note_off_c, 11, 61, 0
12, 195869, Note_off_c, 11, 73, 0
12, 195911, Note_on_c, 11, 68, 117
12, 195911, Note_on_c, 11, 73, 117
12, 196839, Note_off_c, 11, 68, 0
12, 196839, Note_off_c, 11, 73, 0
12, 196879, Note_on_c, 11, 68, 115
12, 196879, Note_on_c, 11, 73, 115
12, 197315, Note_off_c, 11, 68, 0
12, 197315, Note_off_c, 11, 73, 0
12, 197355, Note_on_c, 11, 66, 113
12, 197355, Note_on_c, 11, 72, 113
12, 197789, Note_off_c, 11, 66, 0
12, 197789, Note_off_c, 11, 72, 0
12, 197831, Note_on_c, 11, 68, 117
12, 197831, Note_on_c, 11, 73, 117
12, 198283, Note_off_c, 11, 68, 0
12, 198283, Note_off_c, 11, 73, 0
12, 198323, Note_on_c, 11, 66, 113
12, 198323, Note_on_c, 11, 72, 113
12, 198759, Note_off_c, 11, 66, 0
12, 198759, Note_off_c, 11, 72, 0
12, 198799, Note_on_c, 11, 64, 115
12, 198799, Note_on_c, 11, 73, 115
12, 199709, Note_off_c, 11, 64, 0
12, 199709, Note_off_c, 11, 73, 0
12, 199751, Note_on_c, 11, 61, 127
12, 199751, Note_on_c, 11, 73, 127
12, 203549, Note_off_c, 11, 61, 0
12, 203549, Note_off_c, 11, 73, 0
12, 203591, Note_on_c, 11, 69, 117
12, 203591, Note_on_c, 11, 69, 112
12, 203598, Note_off_c, 11, 69, 0
12, 203598, Note_off_c, 11, 69, 0
12, 204559, Note_on_c, 11, 71, 115
12, 204995, Note_off_c, 11, 71, 0
12, 205035, Note_on_c, 11, 73, 113
12, 205469, Note_off_c, 11, 73, 0
12, 205511, Note_on_c, 11, 66, 112
12, 205511, Note_on_c, 11, 71, 117
12, 205963, Note_off_c, 11, 71, 0
12, 206003, Note_on_c, 11, 69, 113
12, 206439, Note_off_c, 11, 69, 0
12, 206479, Note_on_c, 11, 68, 115
12, 206915, Note_off_c, 11, 68, 0
12, 206955, Note_off_c, 11, 66, 0
12, 206955, Note_on_c, 11, 66, 113
12, 207389, Note_off_c, 11, 66, 0
12, 207431, Note_on_c, 11, 68, 117
12, 207431, Note_on_c, 11, 68, 117
12, 207438, Note_off_c, 11, 68, 0
12, 207438, Note_off_c, 11, 68, 0
12, 208399, Note_on_c, 11, 68, 115
12, 208399, Note_on_c, 11, 68, 115
12, 208406, Note_off_c, 11, 68, 0
12, 208406, Note_off_c, 11, 68, 0
12, 208875, Note_on_c, 11, 69, 113
12, 208875, Note_on_c, 11, 69, 113
12, 208882, Note_off_c, 11, 69, 0
12, 208882, Note_off_c, 11, 69, 0
12, 209351, Note_on_c, 11, 68, 117
12, 209351, Note_on_c, 11, 68, 117
12, 209358, Note_off_c, 11, 68, 0
12, 209358, Note_off_c, 11, 68, 0
12, 209843, Note_on_c, 11, 66, 113
12, 209843, Note_on_c, 11, 66, 113
12, 209850, Note_off_c, 11, 66, 0
12, 209851, Note_off_c, 11, 66, 0
12, 210319, Note_on_c, 11, 64, 115
12, 210319, Note_on_c, 11, 64, 115
12, 210326, Note_off_c, 11, 64, 0
12, 210326, Note_off_c, 11, 64, 0
12, 211271, Note_on_c, 11, 71, 117
12, 211271, Note_on_c, 11, 71, 117
12, 211278, Note_off_c, 11, 71, 0
12, 211278, Note_off_c, 11, 71, 0
12, 212239, Note_on_c, 11, 71, 115
12, 212239, Note_on_c, 11, 71, 115
12, 212246, Note_off_c, 11, 71, 0
12, 212246, Note_off_c, 11, 71, 0
12, 212715, Note_on_c, 11, 73, 113
12, 212715, Note_on_c, 11, 73, 113
12, 212722, Note_off_c, 11, 73, 0
12, 212722, Note_off_c, 11, 73, 0
12, 213191, Note_on_c, 11, 71, 117
12, 213191, Note_on_c, 11, 71, 117
12, 213198, Note_off_c, 11, 71, 0
12, 213198, Note_off_c, 11, 71, 0
12, 214159, Note_on_c, 11, 69, 115
12, 214159, Note_on_c, 11, 69, 115
12, 214166, Note_off_c, 11, 69, 0
12, 214166, Note_off_c, 11, 69, 0
12, 214635, Note_on_c, 11, 68, 113
12, 214635, Note_on_c, 11, 68, 113
12, 214642, Note_off_c, 11, 68, 0
12, 214642, Note_off_c, 11, 68, 0
12, 215111, Note_on_c, 11, 69, 117
12, 215111, Note_on_c, 11, 69, 117
12, 215118, Note_off_c, 11, 69, 0
12, 215118, Note_off_c, 11, 69, 0
12, 216079, Note_on_c, 11, 66, 115
12, 216079, Note_on_c, 11, 66, 115
12, 216086, Note_off_c, 11, 66, 0
12, 216086, Note_off_c, 11, 66, 0
12, 216555, Note_on_c, 11, 68, 113
12, 216555, Note_on_c, 11, 68, 113
12, 216562, Note_off_c, 11, 68, 0
12, 216562, Note_off_c, 11, 68, 0
12, 217031, Note_on_c, 11, 69, 117
12, 217031, Note_on_c, 11, 69, 117
12, 217038, Note_off_c, 11, 69, 0
12, 217038, Note_off_c, 11, 69, 0
12, 217999, Note_on_c, 11, 68, 115
12, 217999, Note_on_c, 11, 68, 115
12, 218006, Note_off_c, 11, 68, 0
12, 218006, Note_off_c, 11, 68, 0
12, 218475, Note_on_c, 11, 66, 113
12, 218475, Note_on_c, 11, 66, 113
12, 218482, Note_off_c, 11, 66, 0
12, 218482, Note_off_c, 11, 66, 0
12, 218951, Note_on_c, 11, 66, 117
12, 218951, Note_on_c, 11, 66, 117
12, 218958, Note_off_c, 11, 66, 0
12, 218958, Note_off_c, 11, 66, 0
12, 219443, Note_on_c, 11, 64, 113
12, 219443, Note_on_c, 11, 64, 113
12, 219450, Note_off_c, 11, 64, 0
12, 219451, Note_off_c, 11, 64, 0
12, 219919, Note_on_c, 11, 68, 115
12, 219919, Note_on_c, 11, 68, 115
12, 219926, Note_off_c, 11, 68, 0
12, 219926, Note_off_c, 11, 68, 0
12, 222791, Note_on_c, 11, 71, 117
12, 222791, Note_on_c, 11, 59, 117
12, 223719, Note_off_c, 11, 71, 0
12, 223719, Note_off_c, 11, 59, 0
12, 223759, Note_on_c, 11, 59, 115
12, 223759, Note_on_c, 11, 71, 115
12, 224195, Note_off_c, 11, 59, 0
12, 224195, Note_off_c, 11, 71, 0
12, 224235, Note_on_c, 11, 61, 113
12, 224235, Note_on_c, 11, 73, 113
12, 224669, Note_off_c, 11, 61, 0
12, 224669, Note_off_c, 11, 73, 0
12, 224711, Note_on_c, 11, 59, 117
12, 224711, Note_on_c, 11, 71, 117
12, 225163, Note_off_c, 11, 59, 0
12, 225163, Note_off_c, 11, 71, 0
12, 225203, Note_on_c, 11, 57, 113
12, 225203, Note_on_c, 11, 69, 113
12, 225639, Note_off_c, 11, 57, 0
12, 225639, Note_off_c, 11, 69, 0
12, 225679, Note_on_c, 11, 56, 115
12, 225679, Note_on_c, 11, 68, 115
12, 226589, Note_off_c, 11, 56, 0
12, 226589, Note_off_c, 11, 68, 0
12, 226631, Note_on_c, 11, 63, 117
12, 226631, Note_on_c, 11, 75, 117
12, 227559, Note_off_c, 11, 75, 0
12, 227559, Note_off_c, 11, 63, 0
12, 227599, Note_on_c, 11, 63, 115
12, 227599, Note_on_c, 11, 75, 115
12, 228035, Note_off_c, 11, 63, 0
12, 228035, Note_off_c, 11, 75, 0
12, 228075, Note_on_c, 11, 63, 113
12, 228075, Note_on_c, 11, 75, 113
12, 228509, Note_off_c, 11, 63, 0
12, 228509, Note_off_c, 11, 75, 0
12, 228551, Note_on_c, 11, 62, 117
12, 228551, Note_on_c, 11, 74, 117
12, 229479, Note_off_c, 11, 62, 0
12, 229479, Note_off_c, 11, 74, 0
12, 229519, Note_on_c, 11, 62, 115
12, 229519, Note_on_c, 11, 74, 115
12, 229955, Note_off_c, 11, 62, 0
12, 229955, Note_off_c, 11, 74, 0
12, 229995, Note_on_c, 11, 62, 113
12, 229995, Note_on_c, 11, 74, 113
12, 230429, Note_off_c, 11, 62, 0
12, 230429, Note_off_c, 11, 74, 0
12, 230471, Note_on_c, 11, 61, 117
12, 230471, Note_on_c, 11, 73, 117
12, 231399, Note_off_c, 11, 61, 0
12, 231399, Note_off_c, 11, 73, 0
12, 231439, Note_on_c, 11, 61, 115
12, 231439, Note_on_c, 11, 73, 115
12, 231875, Note_off_c, 11, 61, 0
12, 231875, Note_off_c, 11, 73, 0
12, 231915, Note_on_c, 11, 61, 113
12, 231915, Note_on_c, 11, 73, 113
12, 232349, Note_off_c, 11, 61, 0
12, 232349, Note_off_c, 11, 73, 0
12, 232391, Note_on_c, 11, 59, 112
12, 232391, Note_on_c, 11, 73, 117
12, 233319, Note_off_c, 11, 73, 0
12, 233359, Note_on_c, 11, 71, 115
12, 234269, Note_off_c, 11, 59, 0
12, 234269, Note_off_c, 11, 71, 0
12, 234311, Note_on_c, 11, 64, 127
12, 234311, Note_on_c, 11, 76, 127
12, 235713, Note_off_c, 11, 64, 0
12, 235713, Note_off_c, 11, 76, 0
12, 235755, Note_on_c, 11, 66, 114
12, 235755, Note_on_c, 11, 78, 126
12, 236188, Note_off_c, 11, 66, 0
12, 236188, Note_off_c, 11, 78, 0
12, 236231, Note_on_c, 11, 69, 113
12, 236231, Note_on_c, 11, 81, 125
12, 238108, Note_off_c, 11, 69, 0
12, 238108, Note_off_c, 11, 81, 0
12, 238151, Note_on_c, 11, 67, 118
12, 238151, Note_on_c, 11, 76, 127
12, 239078, Note_off_c, 11, 67, 0
12, 239078, Note_off_c, 11, 76, 0
12, 239119, Note_on_c, 11, 64, 100
12, 239119, Note_on_c, 11, 72, 100
12, 241948, Note_off_c, 11, 64, 0
12, 241948, Note_off_c, 11, 72, 0
12, 241991, Note_on_c, 11, 67, 127
12, 241991, Note_on_c, 11, 79, 127
12, 242619, Note_off_c, 11, 67, 0
12, 242619, Note_off_c, 11, 79, 0
12, 248719, Note_on_c, 11, 69, 127
12, 248719, Note_on_c, 11, 72, 127
12, 249628, Note_off_c, 11, 69, 0
12, 249628, Note_off_c, 11, 72, 0
12, 249671, Note_on_c, 11, 71, 111
12, 249671, Note_on_c, 11, 74, 111
12, 252518, Note_off_c, 11, 71, 0
12, 252518, Note_off_c, 11, 74, 0
12, 252559, Note_on_c, 11, 69, 127
12, 252559, Note_on_c, 11, 72, 127
12, 253468, Note_off_c, 11, 69, 0
12, 253468, Note_off_c, 11, 72, 0
12, 253511, Note_on_c, 11, 71, 111
12, 253511, Note_on_c, 11, 74, 111
12, 256358, Note_off_c, 11, 71, 0
12, 256358, Note_off_c, 11, 74, 0
12, 256399, Note_on_c, 11, 69, 127
12, 256399, Note_on_c, 11, 72, 127
12, 257240, Note_off_c, 11, 69, 0
12, 257240, Note_off_c, 11, 72, 0
12, 257351, Note_on_c, 11, 71, 127
12, 257351, Note_on_c, 11, 74, 127
12, 257802, Note_off_c, 11, 71, 0
12, 257802, Note_off_c, 11, 74, 0
12, 260715, Note_on_c, 11, 65, 90
12, 260715, Note_on_c, 11, 77, 90
12, 260823, Note_off_c, 11, 65, 0
12, 260823, Note_off_c, 11, 77, 0
12, 260874, Note_on_c, 11, 65, 89
12, 260874, Note_on_c, 11, 77, 89
12, 260978, Note_off_c, 11, 77, 0
12, 260978, Note_off_c, 11, 65, 0
12, 261029, Note_on_c, 11, 65, 89
12, 261029, Note_on_c, 11, 77, 89
12, 261188, Note_off_c, 11, 65, 0
12, 261188, Note_off_c, 11, 77, 0
12, 261191, Note_on_c, 11, 67, 127
12, 261191, Note_on_c, 11, 79, 127
12, 261443, Note_off_c, 11, 67, 0
12, 261443, Note_off_c, 11, 79, 0
12, 261683, Note_on_c, 11, 67, 127
12, 261683, Note_on_c, 11, 67, 127
12, 261690, Note_off_c, 11, 67, 0
12, 261691, Note_off_c, 11, 67, 0
12, 261843, Note_on_c, 11, 67, 127
12, 261843, Note_on_c, 11, 67, 127
12, 261850, Note_off_c, 11, 67, 0
12, 261850, Note_off_c, 11, 67, 0
12, 261997, Note_on_c, 11, 67, 127
12, 261997, Note_on_c, 11, 67, 127
12, 262004, Note_off_c, 11, 67, 0
12, 262005, Note_off_c, 11, 67, 0
12, 262159, Note_on_c, 11, 67, 127
12, 262159, Note_on_c, 11, 67, 127
12, 262166, Note_off_c, 11, 67, 0
12, 262166, Note_off_c, 11, 67, 0
12, 262166, End_track
13, 0, Start_track
13, 0, Title_t, "RHODES 2"
13, 0, Instrument_name_t, "Rhodes"
13, 0, Program_c, 12, 0
13, 263557, Note_on_c, 12, 40, 80
13, 263716, Note_off_c, 12, 40, 0
13, 263717, Note_on_c, 12, 39, 80
13, 263876, Note_off_c, 12, 39, 0
13, 263877, Note_on_c, 12, 38, 80
13, 264036, Note_off_c, 12, 38, 0
13, 264037, Note_on_c, 12, 36, 80
13, 264196, Note_off_c, 12, 36, 0
13, 264197, Note_on_c, 12, 35, 80
13, 264356, Note_off_c, 12, 35, 0
13, 264357, Note_on_c, 12, 33, 80
13, 264516, Note_off_c, 12, 33, 0
13, 264517, Note_on_c, 12, 31, 80
13, 267396, Note_off_c, 12, 31, 0
13, 267397, Note_on_c, 12, 31, 80
13, 267684, Note_off_c, 12, 31, 0
13, 267685, Note_on_c, 12, 32, 80
13, 267876, Note_off_c, 12, 32, 0
13, 267877, Note_on_c, 12, 33, 80
13, 268164, Note_off_c, 12, 33, 0
13, 268165, Note_on_c, 12, 34, 80
13, 271236, Note_off_c, 12, 34, 0
13, 271237, Note_on_c, 12, 34, 80
13, 271524, Note_off_c, 12, 34, 0
13, 271525, Note_on_c, 12, 33, 80
13, 271716, Note_off_c, 12, 33, 0
13, 271717, Note_on_c, 12, 32, 80
13, 272004, Note_off_c, 12, 32, 0
13, 272005, Note_on_c, 12, 31, 80
13, 275076, Note_off_c, 12, 31, 0
13, 276037, Note_on_c, 12, 38, 80
13, 276324, Note_off_c, 12, 38, 0
13, 276325, Note_on_c, 12, 38, 80
13, 276516, Note_off_c, 12, 38, 0
13, 276805, Note_on_c, 12, 38, 80
13, 276996, Note_off_c, 12, 38, 0
13, 277285, Note_on_c, 12, 38, 80
13, 277476, Note_off_c, 12, 38, 0
13, 277477, Note_on_c, 12, 38, 80
13, 277764, Note_off_c, 12, 38, 0
13, 277957, Note_on_c, 12, 43, 80
13, 278916, Note_off_c, 12, 43, 0
13, 278917, Note_on_c, 12, 31, 80
13, 279396, Note_off_c, 12, 31, 0
13, 279877, Note_on_c, 12, 48, 80
13, 280356, Note_off_c, 12, 48, 0
13, 280357, Note_on_c, 12, 46, 80
13, 280836, Note_off_c, 12, 46, 0
13, 280837, Note_on_c, 12, 45, 80
13, 281316, Note_off_c, 12, 45, 0
13, 281317, Note_on_c, 12, 43, 80
13, 281796, Note_off_c, 12, 43, 0
13, 281797, Note_on_c, 12, 41, 80
13, 282276, Note_off_c, 12, 41, 0
13, 282277, Note_on_c, 12, 45, 80
13, 282756, Note_off_c, 12, 45, 0
13, 282757, Note_on_c, 12, 50, 80
13, 283236, Note_off_c, 12, 50, 0
13, 283237, Note_on_c, 12, 49, 80
13, 283716, Note_off_c, 12, 49, 0
13, 283717, Note_on_c, 12, 36, 80
13, 284196, Note_off_c, 12, 36, 0
13, 284197, Note_on_c, 12, 38, 80
13, 284676, Note_off_c, 12, 38, 0
13, 284677, Note_on_c, 12, 39, 80
13, 285156, Note_off_c, 12, 39, 0
13, 285157, Note_on_c, 12, 40, 80
13, 285636, Note_off_c, 12, 40, 0
13, 285637, Note_on_c, 12, 46, 80
13, 286116, Note_off_c, 12, 46, 0
13, 286117, Note_on_c, 12, 45, 80
13, 286596, Note_off_c, 12, 45, 0
13, 286597, Note_on_c, 12, 43, 80
13, 287076, Note_off_c, 12, 43, 0
13, 287077, Note_on_c, 12, 36, 80
13, 287556, Note_off_c, 12, 36, 0
13, 287557, Note_on_c, 12, 41, 80
13, 288036, Note_off_c, 12, 41, 0
13, 288037, Note_on_c, 12, 43, 80
13, 288516, Note_off_c, 12, 43, 0
13, 288517, Note_on_c, 12, 45, 80
13, 288996, Note_off_c, 12, 45, 0
13, 288997, Note_on_c, 12, 41, 80
13, 289476, Note_off_c, 12, 41, 0
13, 289477, Note_on_c, 12, 48, 80
13, 289956, Note_off_c, 12, 48, 0
13, 289957, Note_on_c, 12, 36, 80
13, 290436, Note_off_c, 12, 36, 0
13, 290437, Note_on_c, 12, 38, 80
13, 290916, Note_off_c, 12, 38, 0
13, 290917, Note_on_c, 12, 40, 80
13, 291396, Note_off_c, 12, 40, 0
13, 291397, Note_on_c, 12, 36, 80
13, 291876, Note_off_c, 12, 36, 0
13, 291877, Note_on_c, 12, 36, 80
13, 292356, Note_off_c, 12, 36, 0
13, 292357, Note_on_c, 12, 33, 80
13, 292836, Note_off_c, 12, 33, 0
13, 292837, Note_on_c, 12, 33, 80
13, 293316, Note_off_c, 12, 33, 0
13, 293317, Note_on_c, 12, 38, 80
13, 293796, Note_off_c, 12, 38, 0
13, 293797, Note_on_c, 12, 38, 80
13, 294276, Note_off_c, 12, 38, 0
13, 294277, Note_on_c, 12, 31, 80
13, 294756, Note_off_c, 12, 31, 0
13, 294757, Note_on_c, 12, 31, 80
13, 295236, Note_off_c, 12, 31, 0
13, 295237, Note_on_c, 12, 48, 80
13, 295716, Note_off_c, 12, 48, 0
13, 295717, Note_on_c, 12, 46, 80
13, 296196, Note_off_c, 12, 46, 0
13, 296197, Note_on_c, 12, 45, 80
13, 296676, Note_off_c, 12, 45, 0
13, 296677, Note_on_c, 12, 43, 80
13, 297156, Note_off_c, 12, 43, 0
13, 297157, Note_on_c, 12, 41, 80
13, 297636, Note_off_c, 12, 41, 0
13, 297637, Note_on_c, 12, 45, 80
13, 298116, Note_off_c, 12, 45, 0
13, 298117, Note_on_c, 12, 50, 80
13, 298596, Note_off_c, 12, 50, 0
13, 298597, Note_on_c, 12, 49, 80
13, 299076, Note_off_c, 12, 49, 0
13, 299077, Note_on_c, 12, 36, 80
13, 299556, Note_off_c, 12, 36, 0
13, 299557, Note_on_c, 12, 40, 80
13, 300036, Note_off_c, 12, 40, 0
13, 300037, Note_on_c, 12, 43, 80
13, 300516, Note_off_c, 12, 43, 0
13, 300517, Note_on_c, 12, 40, 80
13, 300996, Note_off_c, 12, 40, 0
13, 300997, Note_on_c, 12, 33, 80
13, 301476, Note_off_c, 12, 33, 0
13, 301477, Note_on_c, 12, 35, 80
13, 301956, Note_off_c, 12, 35, 0
13, 301957, Note_on_c, 12, 36, 80
13, 302436, Note_off_c, 12, 36, 0
13, 302437, Note_on_c, 12, 37, 80
13, 302916, Note_off_c, 12, 37, 0
13, 302917, Note_on_c, 12, 38, 80
13, 303396, Note_off_c, 12, 38, 0
13, 303397, Note_on_c, 12, 40, 80
13, 303876, Note_off_c, 12, 40, 0
13, 303877, Note_on_c, 12, 41, 80
13, 304356, Note_off_c, 12, 41, 0
13, 304357, Note_on_c, 12, 42, 80
13, 304836, Note_off_c, 12, 42, 0
13, 304837, Note_on_c, 12, 43, 80
13, 305316, Note_off_c, 12, 43, 0
13, 305317, Note_on_c, 12, 31, 80
13, 305796, Note_off_c, 12, 31, 0
13, 305797, Note_on_c, 12, 33, 80
13, 306276, Note_off_c, 12, 33, 0
13, 306277, Note_on_c, 12, 35, 80
13, 306756, Note_off_c, 12, 35, 0
13, 306757, Note_on_c, 12, 36, 80
13, 307236, Note_off_c, 12, 36, 0
13, 307237, Note_on_c, 12, 36, 80
13, 307716, Note_off_c, 12, 36, 0
13, 307717, Note_on_c, 12, 36, 80
13, 308196, Note_off_c, 12, 36, 0
13, 308197, Note_on_c, 12, 36, 80
13, 308676, Note_off_c, 12, 36, 0
13, 308677, Note_on_c, 12, 36, 80
13, 309439, Note_off_c, 12, 36, 0
13, 309444, Note_on_c, 12, 38, 80
13, 310115, Note_off_c, 12, 38, 0
13, 310117, Note_on_c, 12, 40, 80
13, 310596, Note_off_c, 12, 40, 0
13, 310597, Note_on_c, 12, 41, 80
13, 311076, Note_off_c, 12, 41, 0
13, 312325, Note_on_c, 12, 43, 80
13, 312804, Note_off_c, 12, 43, 0
13, 312997, Note_on_c, 12, 31, 80
13, 313956, Note_off_c, 12, 31, 0
13, 313957, Note_on_c, 12, 31, 80
13, 314196, Note_off_c, 12, 31, 0
13, 314437, Note_on_c, 12, 36, 80
13, 314916, Note_off_c, 12, 36, 0
13, 314917, Note_on_c, 12, 38, 80
13, 315396, Note_off_c, 12, 38, 0
13, 315397, Note_on_c, 12, 40, 80
13, 315876, Note_off_c, 12, 40, 0
13, 315877, Note_on_c, 12, 36, 80
13, 316356, Note_off_c, 12, 36, 0
13, 316357, Note_on_c, 12, 33, 80
13, 316836, Note_off_c, 12, 33, 0
13, 316837, Note_on_c, 12, 37, 80
13, 317316, Note_off_c, 12, 37, 0
13, 317317, Note_on_c, 12, 40, 80
13, 317796, Note_off_c, 12, 40, 0
13, 317797, Note_on_c, 12, 45, 80
13, 318276, Note_off_c, 12, 45, 0
13, 318277, Note_on_c, 12, 38, 80
13, 318277, Note_on_c, 12, 50, 80
13, 318756, Note_off_c, 12, 38, 0
13, 318756, Note_off_c, 12, 50, 0
13, 320197, Note_on_c, 12, 38, 80
13, 320197, Note_on_c, 12, 50, 80
13, 320676, Note_off_c, 12, 50, 0
13, 320676, Note_off_c, 12, 38, 0
13, 322117, Note_on_c, 12, 31, 80
13, 322879, Note_off_c, 12, 31, 0
13, 322885, Note_on_c, 12, 33, 80
13, 323841, Note_off_c, 12, 33, 0
13, 323845, Note_on_c, 12, 34, 80
13, 324799, Note_off_c, 12, 34, 0
13, 324805, Note_on_c, 12, 35, 80
13, 325956, Note_off_c, 12, 35, 0
13, 326277, Note_on_c, 12, 31, 80
13, 326596, Note_off_c, 12, 31, 0
13, 326597, Note_on_c, 12, 31, 80
13, 326916, Note_off_c, 12, 31, 0
13, 326917, Note_on_c, 12, 31, 80
13, 327236, Note_off_c, 12, 31, 0
13, 327237, Note_on_c, 12, 32, 80
13, 327556, Note_off_c, 12, 32, 0
13, 327557, Note_on_c, 12, 33, 80
13, 327876, Note_off_c, 12, 33, 0
13, 327877, Note_on_c, 12, 34, 80
13, 328356, Note_off_c, 12, 34, 0
13, 329797, Note_on_c, 12, 41, 80
13, 330276, Note_off_c, 12, 41, 0
13, 330277, Note_on_c, 12, 43, 80
13, 330756, Note_off_c, 12, 43, 0
13, 330757, Note_on_c, 12, 44, 80
13, 331236, Note_off_c, 12, 44, 0
13, 331237, Note_on_c, 12, 45, 80
13, 331716, Note_off_c, 12, 45, 0
13, 331717, Note_on_c, 12, 46, 80
13, 332004, Note_off_c, 12, 46, 0
13, 332005, Note_on_c, 12, 34, 80
13, 332196, Note_off_c, 12, 34, 0
13, 332197, Note_on_c, 12, 34, 80
13, 332676, Note_off_c, 12, 34, 0
13, 332677, Note_on_c, 12, 36, 80
13, 333156, Note_off_c, 12, 36, 0
13, 333157, Note_on_c, 12, 38, 80
13, 333636, Note_off_c, 12, 38, 0
13, 333637, Note_on_c, 12, 39, 80
13, 334116, Note_off_c, 12, 39, 0
13, 334117, Note_on_c, 12, 43, 80
13, 334596, Note_off_c, 12, 43, 0
13, 334597, Note_on_c, 12, 46, 80
13, 335076, Note_off_c, 12, 46, 0
13, 335077, Note_on_c, 12, 43, 80
13, 335556, Note_off_c, 12, 43, 0
13, 335557, Note_on_c, 12, 36, 80
13, 335844, Note_off_c, 12, 36, 0
13, 335845, Note_on_c, 12, 36, 80
13, 336036, Note_off_c, 12, 36, 0
13, 336037, Note_on_c, 12, 38, 80
13, 336516, Note_off_c, 12, 38, 0
13, 336517, Note_on_c, 12, 39, 80
13, 336996, Note_off_c, 12, 39, 0
13, 336997, Note_on_c, 12, 40, 80
13, 337476, Note_off_c, 12, 40, 0
13, 337477, Note_on_c, 12, 41, 80
13, 337956, Note_off_c, 12, 41, 0
13, 337957, Note_on_c, 12, 44, 80
13, 338436, Note_off_c, 12, 44, 0
13, 338437, Note_on_c, 12, 48, 80
13, 338916, Note_off_c, 12, 48, 0
13, 338917, Note_on_c, 12, 47, 80
13, 339396, Note_off_c, 12, 47, 0
13, 339397, Note_on_c, 12, 46, 80
13, 339876, Note_off_c, 12, 46, 0
13, 339877, Note_on_c, 12, 41, 80
13, 340356, Note_off_c, 12, 41, 0
13, 340357, Note_on_c, 12, 43, 80
13, 340836, Note_off_c, 12, 43, 0
13, 340837, Note_on_c, 12, 44, 80
13, 341316, Note_off_c, 12, 44, 0
13, 341317, Note_on_c, 12, 43, 80
13, 341796, Note_off_c, 12, 43, 0
13, 341797, Note_on_c, 12, 43, 80
13, 342276, Note_off_c, 12, 43, 0
13, 342277, Note_on_c, 12, 37, 80
13, 342756, Note_off_c, 12, 37, 0
13, 342757, Note_on_c, 12, 37, 80
13, 343236, Note_off_c, 12, 37, 0
13, 343237, Note_on_c, 12, 36, 80
13, 343716, Note_off_c, 12, 36, 0
13, 343717, Note_on_c, 12, 38, 80
13, 344196, Note_off_c, 12, 38, 0
13, 344197, Note_on_c, 12, 39, 80
13, 344676, Note_off_c, 12, 39, 0
13, 344677, Note_on_c, 12, 40, 80
13, 345156, Note_off_c, 12, 40, 0
13, 345157, Note_on_c, 12, 41, 80
13, 345636, Note_off_c, 12, 41, 0
13, 345637, Note_on_c, 12, 43, 80
13, 346116, Note_off_c, 12, 43, 0
13, 346117, Note_on_c, 12, 44, 80
13, 346596, Note_off_c, 12, 44, 0
13, 346597, Note_on_c, 12, 45, 80
13, 347076, Note_off_c, 12, 45, 0
13, 347077, Note_on_c, 12, 46, 80
13, 347364, Note_off_c, 12, 46, 0
13, 347365, Note_on_c, 12, 34, 80
13, 347556, Note_off_c, 12, 34, 0
13, 347557, Note_on_c, 12, 34, 80
13, 348036, Note_off_c, 12, 34, 0
13, 348037, Note_on_c, 12, 36, 80
13, 348516, Note_off_c, 12, 36, 0
13, 348517, Note_on_c, 12, 38, 80
13, 348996, Note_off_c, 12, 38, 0
13, 348997, Note_on_c, 12, 39, 80
13, 349476, Note_off_c, 12, 39, 0
13, 349477, Note_on_c, 12, 43, 80
13, 349956, Note_off_c, 12, 43, 0
13, 349957, Note_on_c, 12, 46, 80
13, 350436, Note_off_c, 12, 46, 0
13, 350437, Note_on_c, 12, 43, 80
13, 350916, Note_off_c, 12, 43, 0
13, 350917, Note_on_c, 12, 36, 80
13, 351204, Note_off_c, 12, 36, 0
13, 351205, Note_on_c, 12, 36, 80
13, 351396, Note_off_c, 12, 36, 0
13, 351397, Note_on_c, 12, 38, 80
13, 351876, Note_off_c, 12, 38, 0
13, 351877, Note_on_c, 12, 39, 80
13, 352356, Note_off_c, 12, 39, 0
13, 352357, Note_on_c, 12, 40, 80
13, 352836, Note_off_c, 12, 40, 0
13, 352837, Note_on_c, 12, 41, 80
13, 353316, Note_off_c, 12, 41, 0
13, 353317, Note_on_c, 12, 44, 80
13, 353796, Note_off_c, 12, 44, 0
13, 353797, Note_on_c, 12, 48, 80
13, 354276, Note_off_c, 12, 48, 0
13, 354277, Note_on_c, 12, 47, 80
13, 354756, Note_off_c, 12, 47, 0
13, 354757, Note_on_c, 12, 46, 80
13, 355236, Note_off_c, 12, 46, 0
13, 355237, Note_on_c, 12, 46, 80
13, 355716, Note_off_c, 12, 46, 0
13, 355717, Note_on_c, 12, 34, 80
13, 356196, Note_off_c, 12, 34, 0
13, 356197, Note_on_c, 12, 34, 80
13, 356676, Note_off_c, 12, 34, 0
13, 356677, Note_on_c, 12, 39, 80
13, 357156, Note_off_c, 12, 39, 0
13, 357157, Note_on_c, 12, 39, 80
13, 357636, Note_off_c, 12, 39, 0
13, 357637, Note_on_c, 12, 40, 80
13, 358116, Note_off_c, 12, 40, 0
13, 358117, Note_on_c, 12, 40, 80
13, 358596, Note_off_c, 12, 40, 0
13, 358597, Note_on_c, 12, 41, 80
13, 359076, Note_off_c, 12, 41, 0
13, 359077, Note_on_c, 12, 41, 80
13, 359556, Note_off_c, 12, 41, 0
13, 359557, Note_on_c, 12, 34, 80
13, 360036, Note_off_c, 12, 34, 0
13, 360037, Note_on_c, 12, 34, 80
13, 360516, Note_off_c, 12, 34, 0
13, 360517, Note_on_c, 12, 41, 80
13, 360996, Note_off_c, 12, 41, 0
13, 360997, Note_on_c, 12, 43, 80
13, 361476, Note_off_c, 12, 43, 0
13, 361477, Note_on_c, 12, 44, 80
13, 361956, Note_off_c, 12, 44, 0
13, 361957, Note_on_c, 12, 45, 80
13, 362436, Note_off_c, 12, 45, 0
13, 362437, Note_on_c, 12, 46, 80
13, 362724, Note_off_c, 12, 46, 0
13, 362725, Note_on_c, 12, 34, 80
13, 362916, Note_off_c, 12, 34, 0
13, 362917, Note_on_c, 12, 34, 80
13, 363396, Note_off_c, 12, 34, 0
13, 363397, Note_on_c, 12, 36, 80
13, 363876, Note_off_c, 12, 36, 0
13, 363877, Note_on_c, 12, 38, 80
13, 364356, Note_off_c, 12, 38, 0
13, 364357, Note_on_c, 12, 39, 80
13, 364836, Note_off_c, 12, 39, 0
13, 364837, Note_on_c, 12, 43, 80
13, 365316, Note_off_c, 12, 43, 0
13, 365317, Note_on_c, 12, 46, 80
13, 365796, Note_off_c, 12, 46, 0
13, 365797, Note_on_c, 12, 43, 80
13, 366276, Note_off_c, 12, 43, 0
13, 366277, Note_on_c, 12, 36, 80
13, 366564, Note_off_c, 12, 36, 0
13, 366565, Note_on_c, 12, 36, 80
13, 366756, Note_off_c, 12, 36, 0
13, 366757, Note_on_c, 12, 38, 80
13, 367236, Note_off_c, 12, 38, 0
13, 367237, Note_on_c, 12, 39, 80
13, 367716, Note_off_c, 12, 39, 0
13, 367717, Note_on_c, 12, 40, 80
13, 368196, Note_off_c, 12, 40, 0
13, 368197, Note_on_c, 12, 41, 80
13, 368676, Note_off_c, 12, 41, 0
13, 368677, Note_on_c, 12, 44, 80
13, 369156, Note_off_c, 12, 44, 0
13, 369157, Note_on_c, 12, 48, 80
13, 369636, Note_off_c, 12, 48, 0
13, 369637, Note_on_c, 12, 47, 80
13, 370116, Note_off_c, 12, 47, 0
13, 370117, Note_on_c, 12, 46, 80
13, 370596, Note_off_c, 12, 46, 0
13, 370597, Note_on_c, 12, 41, 80
13, 371076, Note_off_c, 12, 41, 0
13, 371077, Note_on_c, 12, 43, 80
13, 371556, Note_off_c, 12, 43, 0
13, 371557, Note_on_c, 12, 44, 80
13, 372036, Note_off_c, 12, 44, 0
13, 372037, Note_on_c, 12, 43, 80
13, 372516, Note_off_c, 12, 43, 0
13, 372517, Note_on_c, 12, 43, 80
13, 372996, Note_off_c, 12, 43, 0
13, 372997, Note_on_c, 12, 37, 80
13, 373476, Note_off_c, 12, 37, 0
13, 373477, Note_on_c, 12, 37, 80
13, 373956, Note_off_c, 12, 37, 0
13, 373957, Note_on_c, 12, 36, 80
13, 374436, Note_off_c, 12, 36, 0
13, 374437, Note_on_c, 12, 38, 80
13, 374916, Note_off_c, 12, 38, 0
13, 374917, Note_on_c, 12, 39, 80
13, 375396, Note_off_c, 12, 39, 0
13, 375397, Note_on_c, 12, 40, 80
13, 375876, Note_off_c, 12, 40, 0
13, 375877, Note_on_c, 12, 41, 80
13, 376356, Note_off_c, 12, 41, 0
13, 376357, Note_on_c, 12, 43, 80
13, 376836, Note_off_c, 12, 43, 0
13, 376837, Note_on_c, 12, 44, 80
13, 377316, Note_off_c, 12, 44, 0
13, 377317, Note_on_c, 12, 45, 80
13, 377796, Note_off_c, 12, 45, 0
13, 377797, Note_on_c, 12, 46, 80
13, 378084, Note_off_c, 12, 46, 0
13, 378085, Note_on_c, 12, 34, 80
13, 378276, Note_off_c, 12, 34, 0
13, 378277, Note_on_c, 12, 34, 80
13, 378756, Note_off_c, 12, 34, 0
13, 378757, Note_on_c, 12, 36, 80
13, 379236, Note_off_c, 12, 36, 0
13, 379237, Note_on_c, 12, 38, 80
13, 379716, Note_off_c, 12, 38, 0
13, 379717, Note_on_c, 12, 39, 80
13, 380196, Note_off_c, 12, 39, 0
13, 380197, Note_on_c, 12, 43, 80
13, 380676, Note_off_c, 12, 43, 0
13, 380677, Note_on_c, 12, 46, 80
13, 381156, Note_off_c, 12, 46, 0
13, 381157, Note_on_c, 12, 43, 80
13, 381636, Note_off_c, 12, 43, 0
13, 381637, Note_on_c, 12, 36, 80
13, 381924, Note_off_c, 12, 36, 0
13, 381925, Note_on_c, 12, 36, 80
13, 382116, Note_off_c, 12, 36, 0
13, 382117, Note_on_c, 12, 38, 80
13, 382596, Note_off_c, 12, 38, 0
13, 382597, Note_on_c, 12, 39, 80
13, 383076, Note_off_c, 12, 39, 0
13, 383077, Note_on_c, 12, 40, 80
13, 383556, Note_off_c, 12, 40, 0
13, 383557, Note_on_c, 12, 41, 80
13, 384036, Note_off_c, 12, 41, 0
13, 384037, Note_on_c, 12, 44, 80
13, 384516, Note_off_c, 12, 44, 0
13, 384517, Note_on_c, 12, 48, 80
13, 384996, Note_off_c, 12, 48, 0
13, 384997, Note_on_c, 12, 47, 80
13, 385476, Note_off_c, 12, 47, 0
13, 385477, Note_on_c, 12, 46, 80
13, 385956, Note_off_c, 12, 46, 0
13, 385957, Note_on_c, 12, 41, 80
13, 386436, Note_off_c, 12, 41, 0
13, 386437, Note_on_c, 12, 43, 80
13, 386916, Note_off_c, 12, 43, 0
13, 386917, Note_on_c, 12, 44, 80
13, 387396, Note_off_c, 12, 44, 0
13, 387397, Note_on_c, 12, 43, 80
13, 387876, Note_off_c, 12, 43, 0
13, 387877, Note_on_c, 12, 46, 80
13, 388356, Note_off_c, 12, 46, 0
13, 388357, Note_on_c, 12, 50, 80
13, 388836, Note_off_c, 12, 50, 0
13, 388837, Note_on_c, 12, 53, 80
13, 389316, Note_off_c, 12, 53, 0
13, 389317, Note_on_c, 12, 36, 80
13, 389796, Note_off_c, 12, 36, 0
13, 389797, Note_on_c, 12, 38, 80
13, 390276, Note_off_c, 12, 38, 0
13, 390277, Note_on_c, 12, 39, 80
13, 390756, Note_off_c, 12, 39, 0
13, 390757, Note_on_c, 12, 40, 80
13, 391236, Note_off_c, 12, 40, 0
13, 391237, Note_on_c, 12, 41, 80
13, 391716, Note_off_c, 12, 41, 0
13, 391717, Note_on_c, 12, 43, 80
13, 392196, Note_off_c, 12, 43, 0
13, 392197, Note_on_c, 12, 44, 80
13, 392676, Note_off_c, 12, 44, 0
13, 392677, Note_on_c, 12, 45, 80
13, 393156, Note_off_c, 12, 45, 0
13, 393157, Note_on_c, 12, 46, 80
13, 393636, Note_off_c, 12, 46, 0
13, 393637, Note_on_c, 12, 46, 80
13, 394116, Note_off_c, 12, 46, 0
13, 394117, Note_on_c, 12, 34, 80
13, 394596, Note_off_c, 12, 34, 0
13, 394597, Note_on_c, 12, 34, 80
13, 395076, Note_off_c, 12, 34, 0
13, 398917, Note_on_c, 12, 39, 80
13, 399396, Note_off_c, 12, 39, 0
13, 399685, Note_on_c, 12, 43, 80
13, 399876, Note_off_c, 12, 43, 0
13, 400165, Note_on_c, 12, 46, 80
13, 400356, Note_off_c, 12, 46, 0
13, 400357, Note_on_c, 12, 48, 80
13, 400644, Note_off_c, 12, 48, 0
13, 400645, Note_on_c, 12, 46, 80
13, 400836, Note_off_c, 12, 46, 0
13, 400837, Note_on_c, 12, 39, 80
13, 401316, Note_off_c, 12, 39, 0
13, 401605, Note_on_c, 12, 43, 80
13, 401796, Note_off_c, 12, 43, 0
13, 402085, Note_on_c, 12, 46, 80
13, 402276, Note_off_c, 12, 46, 0
13, 402277, Note_on_c, 12, 48, 80
13, 402564, Note_off_c, 12, 48, 0
13, 402565, Note_on_c, 12, 46, 80
13, 402756, Note_off_c, 12, 46, 0
13, 402757, Note_on_c, 12, 49, 80
13, 403236, Note_off_c, 12, 49, 0
13, 403237, Note_on_c, 12, 48, 80
13, 403524, Note_off_c, 12, 48, 0
13, 403525, Note_on_c, 12, 46, 80
13, 403716, Note_off_c, 12, 46, 0
13, 404005, Note_on_c, 12, 42, 80
13, 404196, Note_off_c, 12, 42, 0
13, 404197, Note_on_c, 12, 43, 80
13, 404484, Note_off_c, 12, 43, 0
13, 404485, Note_on_c, 12, 39, 80
13, 404964, Note_off_c, 12, 39, 0
13, 406597, Note_on_c, 12, 39, 80
13, 407076, Note_off_c, 12, 39, 0
13, 407365, Note_on_c, 12, 43, 80
13, 407556, Note_off_c, 12, 43, 0
13, 407845, Note_on_c, 12, 46, 80
13, 408036, Note_off_c, 12, 46, 0
13, 408037, Note_on_c, 12, 48, 80
13, 408324, Note_off_c, 12, 48, 0
13, 408325, Note_on_c, 12, 46, 80
13, 408516, Note_off_c, 12, 46, 0
13, 408517, Note_on_c, 12, 39, 80
13, 408996, Note_off_c, 12, 39, 0
13, 409285, Note_on_c, 12, 43, 80
13, 409476, Note_off_c, 12, 43, 0
13, 409765, Note_on_c, 12, 46, 80
13, 409956, Note_off_c, 12, 46, 0
13, 409957, Note_on_c, 12, 48, 80
13, 410244, Note_off_c, 12, 48, 0
13, 410245, Note_on_c, 12, 46, 80
13, 410436, Note_off_c, 12, 46, 0
13, 410437, Note_on_c, 12, 49, 80
13, 410916, Note_off_c, 12, 49, 0
13, 410917, Note_on_c, 12, 48, 80
13, 411204, Note_off_c, 12, 48, 0
13, 411205, Note_on_c, 12, 46, 80
13, 411396, Note_off_c, 12, 46, 0
13, 411685, Note_on_c, 12, 42, 80
13, 411876, Note_off_c, 12, 42, 0
13, 411877, Note_on_c, 12, 43, 80
13, 412164, Note_off_c, 12, 43, 0
13, 412165, Note_on_c, 12, 51, 80
13, 412644, Note_off_c, 12, 51, 0
13, 414277, Note_on_c, 12, 39, 80
13, 414756, Note_off_c, 12, 39, 0
13, 415045, Note_on_c, 12, 43, 80
13, 415236, Note_off_c, 12, 43, 0
13, 415525, Note_on_c, 12, 46, 80
13, 415716, Note_off_c, 12, 46, 0
13, 415717, Note_on_c, 12, 48, 80
13, 416004, Note_off_c, 12, 48, 0
13, 416005, Note_on_c, 12, 46, 80
13, 416196, Note_off_c, 12, 46, 0
13, 416197, Note_on_c, 12, 39, 80
13, 416676, Note_off_c, 12, 39, 0
13, 416965, Note_on_c, 12, 43, 80
13, 417156, Note_off_c, 12, 43, 0
13, 417445, Note_on_c, 12, 46, 80
13, 417636, Note_off_c, 12, 46, 0
13, 417637, Note_on_c, 12, 48, 80
13, 417924, Note_off_c, 12, 48, 0
13, 417925, Note_on_c, 12, 46, 80
13, 418116, Note_off_c, 12, 46, 0
13, 418117, Note_on_c, 12, 49, 80
13, 418596, Note_off_c, 12, 49, 0
13, 418597, Note_on_c, 12, 48, 80
13, 418884, Note_off_c, 12, 48, 0
13, 418885, Note_on_c, 12, 46, 80
13, 419076, Note_off_c, 12, 46, 0
13, 419365, Note_on_c, 12, 42, 80
13, 419556, Note_off_c, 12, 42, 0
13, 419557, Note_on_c, 12, 43, 80
13, 419844, Note_off_c, 12, 43, 0
13, 419845, Note_on_c, 12, 39, 80
13, 420036, Note_off_c, 12, 39, 0
13, 421957, Note_on_c, 12, 39, 80
13, 422436, Note_off_c, 12, 39, 0
13, 422725, Note_on_c, 12, 43, 80
13, 422916, Note_off_c, 12, 43, 0
13, 423205, Note_on_c, 12, 46, 80
13, 423396, Note_off_c, 12, 46, 0
13, 423397, Note_on_c, 12, 48, 80
13, 423684, Note_off_c, 12, 48, 0
13, 423685, Note_on_c, 12, 46, 80
13, 423876, Note_off_c, 12, 46, 0
13, 423877, Note_on_c, 12, 39, 80
13, 424356, Note_off_c, 12, 39, 0
13, 424645, Note_on_c, 12, 43, 80
13, 424836, Note_off_c, 12, 43, 0
13, 425125, Note_on_c, 12, 46, 80
13, 425316, Note_off_c, 12, 46, 0
13, 425317, Note_on_c, 12, 48, 80
13, 425604, Note_off_c, 12, 48, 0
13, 425605, Note_on_c, 12, 46, 80
13, 425796, Note_off_c, 12, 46, 0
13, 425797, Note_on_c, 12, 49, 80
13, 426276, Note_off_c, 12, 49, 0
13, 426277, Note_on_c, 12, 48, 80
13, 426564, Note_off_c, 12, 48, 0
13, 426565, Note_on_c, 12, 46, 80
13, 426756, Note_off_c, 12, 46, 0
13, 427045, Note_on_c, 12, 42, 80
13, 427236, Note_off_c, 12, 42, 0
13, 427237, Note_on_c, 12, 43, 80
13, 427524, Note_off_c, 12, 43, 0
13, 427525, Note_on_c, 12, 51, 80
13, 427716, Note_off_c, 12, 51, 0
13, 429637, Note_on_c, 12, 38, 80
13, 430399, Note_off_c, 12, 38, 0
13, 430405, Note_on_c, 12, 38, 80
13, 430596, Note_off_c, 12, 38, 0
13, 431077, Note_on_c, 12, 38, 80
13, 431844, Note_off_c, 12, 38, 0
13, 431845, Note_on_c, 12, 38, 80
13, 432036, Note_off_c, 12, 38, 0
13, 432517, Note_on_c, 12, 26, 80
13, 432804, Note_off_c, 12, 26, 0
13, 432805, Note_on_c, 12, 28, 80
13, 432996, Note_off_c, 12, 28, 0
13, 432997, Note_on_c, 12, 29, 80
13, 433284, Note_off_c, 12, 29, 0
13, 433285, Note_on_c, 12, 30, 80
13, 433476, Note_off_c, 12, 30, 0
13, 433477, Note_on_c, 12, 31, 80
13, 433764, Note_off_c, 12, 31, 0
13, 435397, Note_on_c, 12, 43, 80
13, 435636, Note_off_c, 12, 43, 0
13, 435877, Note_on_c, 12, 38, 80
13, 436356, Note_off_c, 12, 38, 0
13, 436357, Note_on_c, 12, 31, 80
13, 436836, Note_off_c, 12, 31, 0
13, 437249, Note_on_c, 12, 42, 80
13, 437728, Note_off_c, 12, 42, 0
13, 437729, Note_on_c, 12, 44, 80
13, 438208, Note_off_c, 12, 44, 0
13, 438209, Note_on_c, 12, 45, 80
13, 438688, Note_off_c, 12, 45, 0
13, 438689, Note_on_c, 12, 46, 80
13, 439168, Note_off_c, 12, 46, 0
13, 439169, Note_on_c, 12, 47, 80
13, 439456, Note_off_c, 12, 47, 0
13, 439457, Note_on_c, 12, 35, 80
13, 439648, Note_off_c, 12, 35, 0
13, 439649, Note_on_c, 12, 35, 80
13, 440128, Note_off_c, 12, 35, 0
13, 440129, Note_on_c, 12, 37, 80
13, 440608, Note_off_c, 12, 37, 0
13, 440609, Note_on_c, 12, 39, 80
13, 441088, Note_off_c, 12, 39, 0
13, 441089, Note_on_c, 12, 40, 80
13, 441568, Note_off_c, 12, 40, 0
13, 441569, Note_on_c, 12, 44, 80
13, 442048, Note_off_c, 12, 44, 0
13, 442049, Note_on_c, 12, 47, 80
13, 442528, Note_off_c, 12, 47, 0
13, 442529, Note_on_c, 12, 44, 80
13, 443008, Note_off_c, 12, 44, 0
13, 443009, Note_on_c, 12, 37, 80
13, 443296, Note_off_c, 12, 37, 0
13, 443297, Note_on_c, 12, 37, 80
13, 443488, Note_off_c, 12, 37, 0
13, 443489, Note_on_c, 12, 39, 80
13, 443968, Note_off_c, 12, 39, 0
13, 443969, Note_on_c, 12, 40, 80
13, 444448, Note_off_c, 12, 40, 0
13, 444449, Note_on_c, 12, 41, 80
13, 444928, Note_off_c, 12, 41, 0
13, 444929, Note_on_c, 12, 42, 80
13, 445408, Note_off_c, 12, 42, 0
13, 445409, Note_on_c, 12, 45, 80
13, 445888, Note_off_c, 12, 45, 0
13, 445889, Note_on_c, 12, 49, 80
13, 446368, Note_off_c, 12, 49, 0
13, 446369, Note_on_c, 12, 48, 80
13, 446848, Note_off_c, 12, 48, 0
13, 446849, Note_on_c, 12, 47, 80
13, 447328, Note_off_c, 12, 47, 0
13, 447329, Note_on_c, 12, 42, 80
13, 447808, Note_off_c, 12, 42, 0
13, 447809, Note_on_c, 12, 44, 80
13, 448288, Note_off_c, 12, 44, 0
13, 448289, Note_on_c, 12, 45, 80
13, 448768, Note_off_c, 12, 45, 0
13, 448769, Note_on_c, 12, 44, 80
13, 449248, Note_off_c, 12, 44, 0
13, 449249, Note_on_c, 12, 44, 80
13, 449728, Note_off_c, 12, 44, 0
13, 449729, Note_on_c, 12, 38, 80
13, 450208, Note_off_c, 12, 38, 0
13, 450209, Note_on_c, 12, 38, 80
13, 450688, Note_off_c, 12, 38, 0
13, 450689, Note_on_c, 12, 37, 80
13, 451168, Note_off_c, 12, 37, 0
13, 451169, Note_on_c, 12, 39, 80
13, 451648, Note_off_c, 12, 39, 0
13, 451649, Note_on_c, 12, 40, 80
13, 452128, Note_off_c, 12, 40, 0
13, 452129, Note_on_c, 12, 41, 80
13, 452608, Note_off_c, 12, 41, 0
13, 452609, Note_on_c, 12, 42, 80
13, 453088, Note_off_c, 12, 42, 0
13, 453089, Note_on_c, 12, 44, 80
13, 453568, Note_off_c, 12, 44, 0
13, 453569, Note_on_c, 12, 45, 80
13, 454048, Note_off_c, 12, 45, 0
13, 454049, Note_on_c, 12, 46, 80
13, 454528, Note_off_c, 12, 46, 0
13, 454529, Note_on_c, 12, 47, 80
13, 454816, Note_off_c, 12, 47, 0
13, 454817, Note_on_c, 12, 35, 80
13, 455008, Note_off_c, 12, 35, 0
13, 455009, Note_on_c, 12, 35, 80
13, 455488, Note_off_c, 12, 35, 0
13, 455489, Note_on_c, 12, 37, 80
13, 455968, Note_off_c, 12, 37, 0
13, 455969, Note_on_c, 12, 39, 80
13, 456448, Note_off_c, 12, 39, 0
13, 456449, Note_on_c, 12, 40, 80
13, 456928, Note_off_c, 12, 40, 0
13, 456929, Note_on_c, 12, 44, 80
13, 457408, Note_off_c, 12, 44, 0
13, 457409, Note_on_c, 12, 47, 80
13, 457888, Note_off_c, 12, 47, 0
13, 457889, Note_on_c, 12, 44, 80
13, 458368, Note_off_c, 12, 44, 0
13, 458369, Note_on_c, 12, 37, 80
13, 458656, Note_off_c, 12, 37, 0
13, 458657, Note_on_c, 12, 37, 80
13, 458848, Note_off_c, 12, 37, 0
13, 458849, Note_on_c, 12, 39, 80
13, 459328, Note_off_c, 12, 39, 0
13, 459329, Note_on_c, 12, 40, 80
13, 459808, Note_off_c, 12, 40, 0
13, 459809, Note_on_c, 12, 41, 80
13, 460288, Note_off_c, 12, 41, 0
13, 460289, Note_on_c, 12, 42, 80
13, 460768, Note_off_c, 12, 42, 0
13, 460769, Note_on_c, 12, 45, 80
13, 461248, Note_off_c, 12, 45, 0
13, 461249, Note_on_c, 12, 49, 80
13, 461728, Note_off_c, 12, 49, 0
13, 461729, Note_on_c, 12, 48, 80
13, 462208, Note_off_c, 12, 48, 0
13, 462209, Note_on_c, 12, 47, 80
13, 462688, Note_off_c, 12, 47, 0
13, 462689, Note_on_c, 12, 47, 80
13, 463168, Note_off_c, 12, 47, 0
13, 463169, Note_on_c, 12, 35, 80
13, 463648, Note_off_c, 12, 35, 0
13, 463649, Note_on_c, 12, 35, 80
13, 464128, Note_off_c, 12, 35, 0
13, 464129, Note_on_c, 12, 40, 80
13, 464608, Note_off_c, 12, 40, 0
13, 464609, Note_on_c, 12, 40, 80
13, 465088, Note_off_c, 12, 40, 0
13, 465089, Note_on_c, 12, 35, 80
13, 465568, Note_off_c, 12, 35, 0
13, 465569, Note_on_c, 12, 39, 80
13, 466048, Note_off_c, 12, 39, 0
13, 466049, Note_on_c, 12, 40, 80
13, 466528, Note_off_c, 12, 40, 0
13, 466529, Note_on_c, 12, 40, 80
13, 467008, Note_off_c, 12, 40, 0
13, 467009, Note_on_c, 12, 35, 80
13, 467488, Note_off_c, 12, 35, 0
13, 467489, Note_on_c, 12, 34, 80
13, 467968, Note_off_c, 12, 34, 0
13, 467969, Note_on_c, 12, 42, 80
13, 468448, Note_off_c, 12, 42, 0
13, 468449, Note_on_c, 12, 44, 80
13, 468928, Note_off_c, 12, 44, 0
13, 468929, Note_on_c, 12, 45, 80
13, 469408, Note_off_c, 12, 45, 0
13, 469409, Note_on_c, 12, 46, 80
13, 469888, Note_off_c, 12, 46, 0
13, 469889, Note_on_c, 12, 47, 80
13, 470176, Note_off_c, 12, 47, 0
13, 470177, Note_on_c, 12, 35, 80
13, 470368, Note_off_c, 12, 35, 0
13, 470369, Note_on_c, 12, 35, 80
13, 470848, Note_off_c, 12, 35, 0
13, 470849, Note_on_c, 12, 37, 80
13, 471328, Note_off_c, 12, 37, 0
13, 471329, Note_on_c, 12, 39, 80
13, 471808, Note_off_c, 12, 39, 0
13, 471809, Note_on_c, 12, 40, 80
13, 472288, Note_off_c, 12, 40, 0
13, 472289, Note_on_c, 12, 44, 80
13, 472768, Note_off_c, 12, 44, 0
13, 472769, Note_on_c, 12, 47, 80
13, 473248, Note_off_c, 12, 47, 0
13, 473249, Note_on_c, 12, 44, 80
13, 473728, Note_off_c, 12, 44, 0
13, 473729, Note_on_c, 12, 37, 80
13, 474016, Note_off_c, 12, 37, 0
13, 474017, Note_on_c, 12, 37, 80
13, 474208, Note_off_c, 12, 37, 0
13, 474209, Note_on_c, 12, 39, 80
13, 474688, Note_off_c, 12, 39, 0
13, 474689, Note_on_c, 12, 40, 80
13, 475168, Note_off_c, 12, 40, 0
13, 475169, Note_on_c, 12, 41, 80
13, 475648, Note_off_c, 12, 41, 0
13, 475649, Note_on_c, 12, 42, 80
13, 476128, Note_off_c, 12, 42, 0
13, 476129, Note_on_c, 12, 45, 80
13, 476608, Note_off_c, 12, 45, 0
13, 476609, Note_on_c, 12, 49, 80
13, 477088, Note_off_c, 12, 49, 0
13, 477089, Note_on_c, 12, 48, 80
13, 477568, Note_off_c, 12, 48, 0
13, 477569, Note_on_c, 12, 47, 80
13, 478048, Note_off_c, 12, 47, 0
13, 478049, Note_on_c, 12, 42, 80
13, 478528, Note_off_c, 12, 42, 0
13, 478529, Note_on_c, 12, 44, 80
13, 479008, Note_off_c, 12, 44, 0
13, 479009, Note_on_c, 12, 45, 80
13, 479488, Note_off_c, 12, 45, 0
13, 479489, Note_on_c, 12, 44, 80
13, 479968, Note_off_c, 12, 44, 0
13, 479969, Note_on_c, 12, 44, 80
13, 480448, Note_off_c, 12, 44, 0
13, 480449, Note_on_c, 12, 38, 80
13, 480928, Note_off_c, 12, 38, 0
13, 480929, Note_on_c, 12, 38, 80
13, 481408, Note_off_c, 12, 38, 0
13, 481409, Note_on_c, 12, 37, 80
13, 481888, Note_off_c, 12, 37, 0
13, 481889, Note_on_c, 12, 39, 80
13, 482368, Note_off_c, 12, 39, 0
13, 482369, Note_on_c, 12, 40, 80
13, 482848, Note_off_c, 12, 40, 0
13, 482849, Note_on_c, 12, 41, 80
13, 483328, Note_off_c, 12, 41, 0
13, 483329, Note_on_c, 12, 42, 80
13, 483808, Note_off_c, 12, 42, 0
13, 483809, Note_on_c, 12, 44, 80
13, 484288, Note_off_c, 12, 44, 0
13, 484289, Note_on_c, 12, 45, 80
13, 484768, Note_off_c, 12, 45, 0
13, 484769, Note_on_c, 12, 46, 80
13, 485248, Note_off_c, 12, 46, 0
13, 485249, Note_on_c, 12, 47, 80
13, 485536, Note_off_c, 12, 47, 0
13, 485537, Note_on_c, 12, 35, 80
13, 485728, Note_off_c, 12, 35, 0
13, 485729, Note_on_c, 12, 35, 80
13, 486208, Note_off_c, 12, 35, 0
13, 486209, Note_on_c, 12, 37, 80
13, 486688, Note_off_c, 12, 37, 0
13, 486689, Note_on_c, 12, 39, 80
13, 487168, Note_off_c, 12, 39, 0
13, 487169, Note_on_c, 12, 40, 80
13, 487648, Note_off_c, 12, 40, 0
13, 487649, Note_on_c, 12, 44, 80
13, 488128, Note_off_c, 12, 44, 0
13, 488129, Note_on_c, 12, 47, 80
13, 488608, Note_off_c, 12, 47, 0
13, 488609, Note_on_c, 12, 44, 80
13, 489088, Note_off_c, 12, 44, 0
13, 489089, Note_on_c, 12, 37, 80
13, 489376, Note_off_c, 12, 37, 0
13, 489377, Note_on_c, 12, 37, 80
13, 489568, Note_off_c, 12, 37, 0
13, 489569, Note_on_c, 12, 39, 80
13, 490048, Note_off_c, 12, 39, 0
13, 490049, Note_on_c, 12, 40, 80
13, 490528, Note_off_c, 12, 40, 0
13, 490529, Note_on_c, 12, 41, 80
13, 491008, Note_off_c, 12, 41, 0
13, 491009, Note_on_c, 12, 42, 80
13, 491488, Note_off_c, 12, 42, 0
13, 491489, Note_on_c, 12, 45, 80
13, 491968, Note_off_c, 12, 45, 0
13, 491969, Note_on_c, 12, 49, 80
13, 492448, Note_off_c, 12, 49, 0
13, 492449, Note_on_c, 12, 48, 80
13, 492928, Note_off_c, 12, 48, 0
13, 492929, Note_on_c, 12, 47, 80
13, 493408, Note_off_c, 12, 47, 0
13, 493409, Note_on_c, 12, 42, 80
13, 493888, Note_off_c, 12, 42, 0
13, 493889, Note_on_c, 12, 44, 80
13, 494368, Note_off_c, 12, 44, 0
13, 494369, Note_on_c, 12, 45, 80
13, 494848, Note_off_c, 12, 45, 0
13, 494849, Note_on_c, 12, 44, 80
13, 495328, Note_off_c, 12, 44, 0
13, 495329, Note_on_c, 12, 47, 80
13, 495808, Note_off_c, 12, 47, 0
13, 495809, Note_on_c, 12, 51, 80
13, 496288, Note_off_c, 12, 51, 0
13, 496289, Note_on_c, 12, 54, 80
13, 496768, Note_off_c, 12, 54, 0
13, 496769, Note_on_c, 12, 37, 80
13, 497248, Note_off_c, 12, 37, 0
13, 497249, Note_on_c, 12, 39, 80
13, 497728, Note_off_c, 12, 39, 0
13, 497729, Note_on_c, 12, 40, 80
13, 498208, Note_off_c, 12, 40, 0
13, 498209, Note_on_c, 12, 41, 80
13, 498688, Note_off_c, 12, 41, 0
13, 498689, Note_on_c, 12, 42, 80
13, 499168, Note_off_c, 12, 42, 0
13, 499169, Note_on_c, 12, 44, 80
13, 499648, Note_off_c, 12, 44, 0
13, 499649, Note_on_c, 12, 45, 80
13, 500128, Note_off_c, 12, 45, 0
13, 500129, Note_on_c, 12, 46, 80
13, 500608, Note_off_c, 12, 46, 0
13, 500609, Note_on_c, 12, 47, 80
13, 501088, Note_off_c, 12, 47, 0
13, 501089, Note_on_c, 12, 47, 80
13, 501568, Note_off_c, 12, 47, 0
13, 501569, Note_on_c, 12, 35, 80
13, 502048, Note_off_c, 12, 35, 0
13, 502049, Note_on_c, 12, 35, 80
13, 502528, Note_off_c, 12, 35, 0
13, 502528, End_track
14, 0, Start_track
14, 0, Title_t, "Rhodes"
14, 0, Instrument_name_t, "Rhodes"
14, 0, Program_c, 13, 0
14, 263557, Note_on_c, 13, 52, 80
14, 263708, Note_off_c, 13, 52, 0
14, 263717, Note_on_c, 13, 51, 80
14, 263868, Note_off_c, 13, 51, 0
14, 263877, Note_on_c, 13, 50, 80
14, 264028, Note_off_c, 13, 50, 0
14, 264037, Note_on_c, 13, 48, 80
14, 264188, Note_off_c, 13, 48, 0
14, 264197, Note_on_c, 13, 47, 80
14, 264348, Note_off_c, 13, 47, 0
14, 264357, Note_on_c, 13, 45, 80
14, 264508, Note_off_c, 13, 45, 0
14, 264517, Note_on_c, 13, 31, 80
14, 267252, Note_off_c, 13, 31, 0
14, 267397, Note_on_c, 13, 31, 80
14, 267672, Note_off_c, 13, 31, 0
14, 267685, Note_on_c, 13, 32, 80
14, 267866, Note_off_c, 13, 32, 0
14, 267877, Note_on_c, 13, 33, 80
14, 268152, Note_off_c, 13, 33, 0
14, 268165, Note_on_c, 13, 34, 80
14, 271082, Note_off_c, 13, 34, 0
14, 271237, Note_on_c, 13, 34, 80
14, 271512, Note_off_c, 13, 34, 0
14, 271525, Note_on_c, 13, 33, 80
14, 271706, Note_off_c, 13, 33, 0
14, 271717, Note_on_c, 13, 32, 80
14, 271992, Note_off_c, 13, 32, 0
14, 272005, Note_on_c, 13, 31, 80
14, 274922, Note_off_c, 13, 31, 0
14, 276037, Note_on_c, 13, 50, 80
14, 276037, Note_on_c, 13, 54, 80
14, 276312, Note_off_c, 13, 50, 0
14, 276312, Note_off_c, 13, 54, 0
14, 276325, Note_on_c, 13, 50, 80
14, 276325, Note_on_c, 13, 54, 80
14, 276506, Note_off_c, 13, 50, 0
14, 276506, Note_off_c, 13, 54, 0
14, 276805, Note_on_c, 13, 50, 80
14, 276805, Note_on_c, 13, 54, 80
14, 276986, Note_off_c, 13, 50, 0
14, 276986, Note_off_c, 13, 54, 0
14, 277285, Note_on_c, 13, 54, 80
14, 277285, Note_on_c, 13, 57, 80
14, 277466, Note_off_c, 13, 54, 0
14, 277466, Note_off_c, 13, 57, 0
14, 277477, Note_on_c, 13, 54, 80
14, 277477, Note_on_c, 13, 57, 80
14, 277752, Note_off_c, 13, 54, 0
14, 277752, Note_off_c, 13, 57, 0
14, 277957, Note_on_c, 13, 50, 80
14, 277957, Note_on_c, 13, 59, 80
14, 277957, Note_on_c, 13, 55, 80
14, 278868, Note_off_c, 13, 50, 0
14, 278868, Note_off_c, 13, 55, 0
14, 278868, Note_off_c, 13, 59, 0
14, 278917, Note_on_c, 13, 31, 80
14, 278917, Note_on_c, 13, 43, 80
14, 279372, Note_off_c, 13, 31, 0
14, 279372, Note_off_c, 13, 43, 0
14, 310597, Note_on_c, 13, 41, 80
14, 310597, Note_on_c, 13, 53, 80
14, 311052, Note_off_c, 13, 41, 0
14, 311052, Note_off_c, 13, 53, 0
14, 312325, Note_on_c, 13, 43, 80
14, 312325, Note_on_c, 13, 55, 80
14, 312782, Note_off_c, 13, 43, 0
14, 312782, Note_off_c, 13, 55, 0
14, 312997, Note_on_c, 13, 31, 80
14, 312997, Note_on_c, 13, 43, 80
14, 313908, Note_off_c, 13, 31, 0
14, 313908, Note_off_c, 13, 43, 0
14, 313957, Note_on_c, 13, 31, 80
14, 313957, Note_on_c, 13, 43, 80
14, 314196, Note_off_c, 13, 31, 0
14, 314196, Note_off_c, 13, 43, 0
14, 318277, Note_on_c, 13, 38, 80
14, 318277, Note_on_c, 13, 50, 80
14, 318732, Note_off_c, 13, 38, 0
14, 318732, Note_off_c, 13, 50, 0
14, 320197, Note_on_c, 13, 38, 80
14, 320197, Note_on_c, 13, 50, 80
14, 320652, Note_off_c, 13, 38, 0
14, 320652, Note_off_c, 13, 50, 0
14, 326277, Note_on_c, 13, 43, 96
14, 326277, Note_on_c, 13, 55, 96
14, 326580, Note_off_c, 13, 55, 0
14, 326580, Note_off_c, 13, 43, 0
14, 326597, Note_on_c, 13, 43, 96
14, 326597, Note_on_c, 13, 55, 96
14, 326900, Note_off_c, 13, 55, 0
14, 326900, Note_off_c, 13, 43, 0
14, 326917, Note_on_c, 13, 55, 96
14, 326917, Note_on_c, 13, 43, 96
14, 327220, Note_off_c, 13, 55, 0
14, 327220, Note_off_c, 13, 43, 0
14, 327237, Note_on_c, 13, 56, 96
14, 327237, Note_on_c, 13, 44, 96
14, 327540, Note_off_c, 13, 56, 0
14, 327540, Note_off_c, 13, 44, 0
14, 327557, Note_on_c, 13, 57, 96
14, 327557, Note_on_c, 13, 45, 96
14, 327860, Note_off_c, 13, 57, 0
14, 327860, Note_off_c, 13, 45, 0
14, 327877, Note_on_c, 13, 46, 96
14, 327877, Note_on_c, 13, 58, 96
14, 328332, Note_off_c, 13, 46, 0
14, 328332, Note_off_c, 13, 58, 0
14, 341317, Note_on_c, 13, 55, 96
14, 341317, Note_on_c, 13, 43, 96
14, 342228, Note_off_c, 13, 43, 0
14, 342228, Note_off_c, 13, 55, 0
14, 342277, Note_on_c, 13, 49, 96
14, 342277, Note_on_c, 13, 53, 96
14, 343188, Note_off_c, 13, 49, 0
14, 343188, Note_off_c, 13, 53, 0
14, 343237, Note_on_c, 13, 24, 96
14, 343237, Note_on_c, 13, 36, 96
14, 343476, Note_off_c, 13, 36, 0
14, 343476, Note_off_c, 13, 24, 0
14, 356677, Note_on_c, 13, 51, 96
14, 356677, Note_on_c, 13, 58, 96
14, 357132, Note_off_c, 13, 51, 0
14, 357132, Note_off_c, 13, 58, 0
14, 357157, Note_on_c, 13, 51, 96
14, 357157, Note_on_c, 13, 58, 96
14, 357612, Note_off_c, 13, 51, 0
14, 357612, Note_off_c, 13, 58, 0
14, 357637, Note_on_c, 13, 52, 96
14, 357637, Note_on_c, 13, 61, 96
14, 358092, Note_off_c, 13, 52, 0
14, 358092, Note_off_c, 13, 61, 0
14, 358117, Note_on_c, 13, 52, 96
14, 358117, Note_on_c, 13, 61, 96
14, 358572, Note_off_c, 13, 61, 0
14, 358572, Note_off_c, 13, 52, 0
14, 358597, Note_on_c, 13, 60, 96
14, 358597, Note_on_c, 13, 53, 96
14, 359052, Note_off_c, 13, 60, 0
14, 359052, Note_off_c, 13, 53, 0
14, 359077, Note_on_c, 13, 53, 96
14, 359077, Note_on_c, 13, 60, 96
14, 359532, Note_off_c, 13, 60, 0
14, 359532, Note_off_c, 13, 53, 0
14, 359557, Note_on_c, 13, 46, 96
14, 359557, Note_on_c, 13, 58, 96
14, 360012, Note_off_c, 13, 58, 0
14, 360012, Note_off_c, 13, 46, 0
14, 360037, Note_on_c, 13, 58, 96
14, 360037, Note_on_c, 13, 50, 96
14, 360492, Note_off_c, 13, 58, 0
14, 360492, Note_off_c, 13, 50, 0
14, 372037, Note_on_c, 13, 43, 96
14, 372037, Note_on_c, 13, 55, 96
14, 372948, Note_off_c, 13, 43, 0
14, 372948, Note_off_c, 13, 55, 0
14, 372997, Note_on_c, 13, 53, 96
14, 372997, Note_on_c, 13, 49, 96
14, 373908, Note_off_c, 13, 53, 0
14, 373908, Note_off_c, 13, 49, 0
14, 395364, Note_on_c, 13, 49, 96
14, 395364, Note_on_c, 13, 39, 96
14, 396001, Note_off_c, 13, 49, 0
14, 396001, Note_off_c, 13, 39, 0
14, 396037, Note_on_c, 13, 49, 96
14, 396037, Note_on_c, 13, 44, 96
14, 396763, Note_off_c, 13, 44, 0
14, 396763, Note_off_c, 13, 49, 0
14, 396805, Note_on_c, 13, 37, 96
14, 396805, Note_on_c, 13, 49, 96
14, 398810, Note_off_c, 13, 37, 0
14, 398810, Note_off_c, 13, 49, 0
14, 398917, Note_on_c, 13, 39, 96
14, 399372, Note_off_c, 13, 39, 0
14, 399685, Note_on_c, 13, 43, 96
14, 399866, Note_off_c, 13, 43, 0
14, 400165, Note_on_c, 13, 46, 96
14, 400346, Note_off_c, 13, 46, 0
14, 400357, Note_on_c, 13, 48, 96
14, 400632, Note_off_c, 13, 48, 0
14, 400645, Note_on_c, 13, 46, 96
14, 400826, Note_off_c, 13, 46, 0
14, 400837, Note_on_c, 13, 39, 96
14, 401292, Note_off_c, 13, 39, 0
14, 401605, Note_on_c, 13, 43, 96
14, 401786, Note_off_c, 13, 43, 0
14, 402085, Note_on_c, 13, 46, 96
14, 402266, Note_off_c, 13, 46, 0
14, 402277, Note_on_c, 13, 48, 96
14, 402552, Note_off_c, 13, 48, 0
14, 402565, Note_on_c, 13, 46, 96
14, 402746, Note_off_c, 13, 46, 0
14, 402757, Note_on_c, 13, 49, 96
14, 403212, Note_off_c, 13, 49, 0
14, 403237, Note_on_c, 13, 48, 96
14, 403512, Note_off_c, 13, 48, 0
14, 403525, Note_on_c, 13, 46, 96
14, 403706, Note_off_c, 13, 46, 0
14, 404005, Note_on_c, 13, 42, 96
14, 404186, Note_off_c, 13, 42, 0
14, 404197, Note_on_c, 13, 43, 96
14, 404472, Note_off_c, 13, 43, 0
14, 404485, Note_on_c, 13, 39, 96
14, 404942, Note_off_c, 13, 39, 0
14, 406597, Note_on_c, 13, 39, 96
14, 407052, Note_off_c, 13, 39, 0
14, 407365, Note_on_c, 13, 43, 96
14, 407546, Note_off_c, 13, 43, 0
14, 407845, Note_on_c, 13, 46, 96
14, 408026, Note_off_c, 13, 46, 0
14, 408037, Note_on_c, 13, 48, 96
14, 408312, Note_off_c, 13, 48, 0
14, 408325, Note_on_c, 13, 46, 96
14, 408506, Note_off_c, 13, 46, 0
14, 408517, Note_on_c, 13, 39, 96
14, 408972, Note_off_c, 13, 39, 0
14, 409285, Note_on_c, 13, 43, 96
14, 409466, Note_off_c, 13, 43, 0
14, 409765, Note_on_c, 13, 46, 96
14, 409946, Note_off_c, 13, 46, 0
14, 409957, Note_on_c, 13, 48, 96
14, 410232, Note_off_c, 13, 48, 0
14, 410245, Note_on_c, 13, 46, 96
14, 410426, Note_off_c, 13, 46, 0
14, 410437, Note_on_c, 13, 49, 96
14, 410892, Note_off_c, 13, 49, 0
14, 410917, Note_on_c, 13, 48, 96
14, 411192, Note_off_c, 13, 48, 0
14, 411205, Note_on_c, 13, 46, 96
14, 411386, Note_off_c, 13, 46, 0
14, 411685, Note_on_c, 13, 42, 96
14, 411866, Note_off_c, 13, 42, 0
14, 411877, Note_on_c, 13, 43, 96
14, 412152, Note_off_c, 13, 43, 0
14, 412165, Note_on_c, 13, 51, 96
14, 412622, Note_off_c, 13, 51, 0
14, 414277, Note_on_c, 13, 39, 96
14, 414732, Note_off_c, 13, 39, 0
14, 415045, Note_on_c, 13, 43, 96
14, 415226, Note_off_c, 13, 43, 0
14, 415525, Note_on_c, 13, 46, 96
14, 415706, Note_off_c, 13, 46, 0
14, 415717, Note_on_c, 13, 48, 96
14, 415992, Note_off_c, 13, 48, 0
14, 416005, Note_on_c, 13, 46, 96
14, 416186, Note_off_c, 13, 46, 0
14, 416197, Note_on_c, 13, 39, 96
14, 416652, Note_off_c, 13, 39, 0
14, 416965, Note_on_c, 13, 43, 96
14, 417146, Note_off_c, 13, 43, 0
14, 417445, Note_on_c, 13, 46, 96
14, 417626, Note_off_c, 13, 46, 0
14, 417637, Note_on_c, 13, 48, 96
14, 417912, Note_off_c, 13, 48, 0
14, 417925, Note_on_c, 13, 46, 96
14, 418106, Note_off_c, 13, 46, 0
14, 418117, Note_on_c, 13, 49, 96
14, 418572, Note_off_c, 13, 49, 0
14, 418597, Note_on_c, 13, 48, 96
14, 418872, Note_off_c, 13, 48, 0
14, 418885, Note_on_c, 13, 46, 96
14, 419066, Note_off_c, 13, 46, 0
14, 419365, Note_on_c, 13, 42, 96
14, 419546, Note_off_c, 13, 42, 0
14, 419557, Note_on_c, 13, 43, 96
14, 419832, Note_off_c, 13, 43, 0
14, 419845, Note_on_c, 13, 39, 96
14, 420026, Note_off_c, 13, 39, 0
14, 421957, Note_on_c, 13, 39, 96
14, 422412, Note_off_c, 13, 39, 0
14, 422725, Note_on_c, 13, 43, 96
14, 422906, Note_off_c, 13, 43, 0
14, 423205, Note_on_c, 13, 46, 96
14, 423386, Note_off_c, 13, 46, 0
14, 423397, Note_on_c, 13, 48, 96
14, 423672, Note_off_c, 13, 48, 0
14, 423685, Note_on_c, 13, 46, 96
14, 423866, Note_off_c, 13, 46, 0
14, 423877, Note_on_c, 13, 39, 96
14, 424332, Note_off_c, 13, 39, 0
14, 424645, Note_on_c, 13, 43, 96
14, 424826, Note_off_c, 13, 43, 0
14, 425125, Note_on_c, 13, 46, 96
14, 425306, Note_off_c, 13, 46, 0
14, 425317, Note_on_c, 13, 48, 96
14, 425592, Note_off_c, 13, 48, 0
14, 425605, Note_on_c, 13, 46, 96
14, 425786, Note_off_c, 13, 46, 0
14, 425797, Note_on_c, 13, 49, 96
14, 426252, Note_off_c, 13, 49, 0
14, 426277, Note_on_c, 13, 48, 96
14, 426552, Note_off_c, 13, 48, 0
14, 426565, Note_on_c, 13, 46, 96
14, 426746, Note_off_c, 13, 46, 0
14, 427045, Note_on_c, 13, 42, 96
14, 427226, Note_off_c, 13, 42, 0
14, 427237, Note_on_c, 13, 43, 96
14, 427512, Note_off_c, 13, 43, 0
14, 427525, Note_on_c, 13, 51, 96
14, 427706, Note_off_c, 13, 51, 0
14, 429637, Note_on_c, 13, 38, 96
14, 429637, Note_on_c, 13, 50, 96
14, 430363, Note_off_c, 13, 50, 0
14, 430363, Note_off_c, 13, 38, 0
14, 430405, Note_on_c, 13, 50, 96
14, 430405, Note_on_c, 13, 38, 96
14, 430586, Note_off_c, 13, 50, 0
14, 430586, Note_off_c, 13, 38, 0
14, 431077, Note_on_c, 13, 50, 96
14, 431077, Note_on_c, 13, 38, 96
14, 431808, Note_off_c, 13, 50, 0
14, 431808, Note_off_c, 13, 38, 0
14, 431845, Note_on_c, 13, 50, 96
14, 431845, Note_on_c, 13, 38, 96
14, 432026, Note_off_c, 13, 50, 0
14, 432026, Note_off_c, 13, 38, 0
14, 432517, Note_on_c, 13, 38, 96
14, 432517, Note_on_c, 13, 26, 96
14, 432792, Note_off_c, 13, 38, 0
14, 432792, Note_off_c, 13, 26, 0
14, 432805, Note_on_c, 13, 40, 96
14, 432805, Note_on_c, 13, 28, 96
14, 432986, Note_off_c, 13, 40, 0
14, 432986, Note_off_c, 13, 28, 0
14, 432997, Note_on_c, 13, 41, 96
14, 432997, Note_on_c, 13, 29, 96
14, 433272, Note_off_c, 13, 41, 0
14, 433272, Note_off_c, 13, 29, 0
14, 433285, Note_on_c, 13, 42, 96
14, 433285, Note_on_c, 13, 30, 96
14, 433466, Note_off_c, 13, 42, 0
14, 433466, Note_off_c, 13, 30, 0
14, 433477, Note_on_c, 13, 43, 96
14, 433477, Note_on_c, 13, 31, 96
14, 433752, Note_off_c, 13, 43, 0
14, 433752, Note_off_c, 13, 31, 0
14, 435397, Note_on_c, 13, 55, 96
14, 435636, Note_off_c, 13, 55, 0
14, 435877, Note_on_c, 13, 50, 96
14, 436332, Note_off_c, 13, 50, 0
14, 436357, Note_on_c, 13, 31, 96
14, 436357, Note_on_c, 13, 43, 96
14, 436812, Note_off_c, 13, 31, 0
14, 436812, Note_off_c, 13, 43, 0
14, 448769, Note_on_c, 13, 44, 96
14, 448769, Note_on_c, 13, 56, 96
14, 449680, Note_off_c, 13, 44, 0
14, 449680, Note_off_c, 13, 56, 0
14, 449729, Note_on_c, 13, 50, 96
14, 449729, Note_on_c, 13, 54, 96
14, 450640, Note_off_c, 13, 50, 0
14, 450640, Note_off_c, 13, 54, 0
14, 450689, Note_on_c, 13, 37, 96
14, 450689, Note_on_c, 13, 25, 96
14, 450928, Note_off_c, 13, 37, 0
14, 450928, Note_off_c, 13, 25, 0
14, 479489, Note_on_c, 13, 44, 96
14, 479489, Note_on_c, 13, 56, 96
14, 480400, Note_off_c, 13, 56, 0
14, 480400, Note_off_c, 13, 44, 0
14, 480449, Note_on_c, 13, 54, 96
14, 480449, Note_on_c, 13, 50, 96
14, 481360, Note_off_c, 13, 50, 0
14, 481360, Note_off_c, 13, 54, 0
14, 502816, Note_on_c, 13, 50, 96
14, 502816, Note_on_c, 13, 40, 96
14, 503453, Note_off_c, 13, 50, 0
14, 503453, Note_off_c, 13, 40, 0
14, 503489, Note_on_c, 13, 50, 96
14, 503489, Note_on_c, 13, 45, 96
14, 504215, Note_off_c, 13, 50, 0
14, 504215, Note_off_c, 13, 45, 0
14, 504257, Note_on_c, 13, 50, 96
14, 504257, Note_on_c, 13, 38, 96
14, 506262, Note_off_c, 13, 50, 0
14, 506262, Note_off_c, 13, 38, 0
14, 506369, Note_on_c, 13, 56, 96
14, 506369, Note_on_c, 13, 49, 96
14, 511840, Note_off_c, 13, 56, 0
14, 511840, Note_off_c, 13, 49, 0
14, 511840, End_track
15, 0, Start_track
15, 0, Title_t, "Vibraphone"
15, 0, Instrument_name_t, "Vibraphone"
15, 0, Program_c, 14, 0
15, 130736, Note_on_c, 14, 49, 69
15, 131701, Note_off_c, 14, 49, 0
15, 131713, Note_on_c, 14, 49, 67
15, 131941, Note_off_c, 14, 49, 0
15, 131945, Note_on_c, 14, 49, 64
15, 132652, Note_off_c, 14, 49, 0
15, 132654, Note_on_c, 14, 49, 69
15, 133621, Note_off_c, 14, 49, 0
15, 133622, Note_on_c, 14, 66, 67
15, 133633, Note_on_c, 14, 47, 67
15, 133635, Note_on_c, 14, 69, 67
15, 133861, Note_off_c, 14, 66, 0
15, 133861, Note_off_c, 14, 69, 0
15, 133861, Note_on_c, 14, 68, 64
15, 134097, Note_off_c, 14, 47, 0
15, 134097, Note_off_c, 14, 68, 0
15, 134098, Note_on_c, 14, 47, 65
15, 134098, Note_on_c, 14, 66, 65
15, 134104, Note_on_c, 14, 69, 65
15, 134334, Note_off_c, 14, 66, 0
15, 134334, Note_off_c, 14, 69, 0
15, 134334, Note_on_c, 14, 71, 64
15, 134572, Note_off_c, 14, 47, 0
15, 134572, Note_off_c, 14, 71, 0
15, 134574, Note_on_c, 14, 61, 64
15, 134574, Note_on_c, 14, 68, 64
15, 134581, Note_on_c, 14, 49, 69
15, 135541, Note_off_c, 14, 49, 0
15, 135555, Note_on_c, 14, 49, 67
15, 135781, Note_off_c, 14, 49, 0
15, 135782, Note_on_c, 14, 49, 64
15, 136017, Note_off_c, 14, 61, 0
15, 136017, Note_off_c, 14, 68, 0
15, 136492, Note_off_c, 14, 49, 0
15, 136494, Note_on_c, 14, 49, 69
15, 137222, Note_off_c, 14, 49, 0
15, 137223, Note_on_c, 14, 47, 52
15, 137223, Note_on_c, 14, 66, 64
15, 137339, Note_off_c, 14, 66, 0
15, 137339, Note_on_c, 14, 64, 64
15, 137461, Note_off_c, 14, 64, 0
15, 137461, Note_off_c, 14, 47, 0
15, 137462, Note_on_c, 14, 66, 67
15, 137472, Note_on_c, 14, 47, 55
15, 137701, Note_off_c, 14, 66, 0
15, 137701, Note_off_c, 14, 47, 0
15, 137701, Note_on_c, 14, 64, 64
15, 137702, Note_on_c, 14, 47, 52
15, 137709, Note_on_c, 14, 68, 64
15, 137937, Note_off_c, 14, 64, 0
15, 137937, Note_off_c, 14, 47, 0
15, 137937, Note_off_c, 14, 68, 0
15, 137943, Note_on_c, 14, 69, 65
15, 137948, Note_on_c, 14, 47, 53
15, 137949, Note_on_c, 14, 66, 65
15, 138174, Note_on_c, 14, 47, 52
15, 138174, Note_on_c, 14, 66, 64
15, 138174, Note_off_c, 14, 47, 0
15, 138174, Note_off_c, 14, 66, 0
15, 138174, Note_off_c, 14, 69, 0
15, 138178, Note_on_c, 14, 71, 64
15, 138181, Note_off_c, 14, 66, 0
15, 138181, Note_off_c, 14, 47, 0
15, 138412, Note_off_c, 14, 71, 0
15, 138414, Note_on_c, 14, 61, 64
15, 138414, Note_on_c, 14, 68, 64
15, 138422, Note_on_c, 14, 49, 69
15, 139381, Note_off_c, 14, 49, 0
15, 139388, Note_on_c, 14, 49, 67
15, 139621, Note_off_c, 14, 49, 0
15, 139625, Note_on_c, 14, 49, 64
15, 139857, Note_off_c, 14, 61, 0
15, 139857, Note_off_c, 14, 68, 0
15, 140332, Note_off_c, 14, 49, 0
15, 140342, Note_on_c, 14, 49, 69
15, 140826, Note_on_c, 14, 59, 65
15, 140826, Note_off_c, 14, 49, 0
15, 140838, Note_on_c, 14, 49, 53
15, 140838, Note_on_c, 14, 63, 65
15, 141062, Note_off_c, 14, 59, 0
15, 141062, Note_off_c, 14, 49, 0
15, 141062, Note_off_c, 14, 63, 0
15, 141063, Note_on_c, 14, 49, 52
15, 141072, Note_on_c, 14, 61, 64
15, 141075, Note_on_c, 14, 64, 64
15, 141301, Note_off_c, 14, 49, 0
15, 141301, Note_off_c, 14, 61, 0
15, 141301, Note_off_c, 14, 64, 0
15, 141307, Note_on_c, 14, 66, 67
15, 141310, Note_on_c, 14, 61, 67
15, 141315, Note_on_c, 14, 47, 67
15, 141777, Note_off_c, 14, 47, 0
15, 141777, Note_off_c, 14, 61, 0
15, 141777, Note_off_c, 14, 66, 0
15, 141778, Note_on_c, 14, 61, 65
15, 141784, Note_on_c, 14, 64, 65
15, 141788, Note_on_c, 14, 47, 53
15, 142014, Note_off_c, 14, 61, 0
15, 142014, Note_off_c, 14, 64, 0
15, 142014, Note_off_c, 14, 47, 0
15, 142014, Note_on_c, 14, 47, 52
15, 142014, Note_on_c, 14, 59, 64
15, 142017, Note_on_c, 14, 63, 64
15, 142252, Note_off_c, 14, 47, 0
15, 142252, Note_off_c, 14, 59, 0
15, 142252, Note_off_c, 14, 63, 0
15, 142254, Note_on_c, 14, 56, 69
15, 142255, Note_on_c, 14, 61, 69
15, 142261, Note_on_c, 14, 49, 69
15, 142746, Note_off_c, 14, 56, 0
15, 142746, Note_off_c, 14, 61, 0
15, 142746, Note_off_c, 14, 49, 0
15, 142746, Note_on_c, 14, 61, 65
15, 142746, Note_on_c, 14, 68, 65
15, 142747, Note_on_c, 14, 49, 65
15, 143221, Note_off_c, 14, 49, 0
15, 143232, Note_on_c, 14, 49, 67
15, 143461, Note_off_c, 14, 49, 0
15, 143470, Note_on_c, 14, 49, 64
15, 143697, Note_off_c, 14, 61, 0
15, 143697, Note_off_c, 14, 68, 0
15, 144172, Note_off_c, 14, 49, 0
15, 144174, Note_on_c, 14, 49, 69
15, 145141, Note_off_c, 14, 49, 0
15, 145143, Note_on_c, 14, 47, 67
15, 145144, Note_on_c, 14, 54, 67
15, 145149, Note_on_c, 14, 66, 67
15, 145151, Note_on_c, 14, 73, 67
15, 145617, Note_off_c, 14, 47, 0
15, 145617, Note_off_c, 14, 54, 0
15, 145617, Note_off_c, 14, 66, 0
15, 145617, Note_off_c, 14, 73, 0
15, 145624, Note_on_c, 14, 47, 53
15, 145625, Note_on_c, 14, 54, 53
15, 145628, Note_on_c, 14, 71, 53
15, 145631, Note_on_c, 14, 66, 53
15, 145854, Note_off_c, 14, 47, 0
15, 145854, Note_off_c, 14, 54, 0
15, 145854, Note_off_c, 14, 71, 0
15, 145854, Note_off_c, 14, 66, 0
15, 145854, Note_on_c, 14, 47, 52
15, 145854, Note_on_c, 14, 66, 52
15, 145858, Note_on_c, 14, 57, 52
15, 145868, Note_on_c, 14, 69, 52
15, 146092, Note_off_c, 14, 69, 0
15, 146092, Note_off_c, 14, 66, 0
15, 146092, Note_off_c, 14, 57, 0
15, 146092, Note_off_c, 14, 47, 0
15, 146094, Note_on_c, 14, 61, 69
15, 146094, Note_on_c, 14, 68, 69
15, 146103, Note_on_c, 14, 49, 69
15, 146107, Note_on_c, 14, 56, 69
15, 147061, Note_off_c, 14, 61, 0
15, 147061, Note_off_c, 14, 68, 0
15, 147061, Note_off_c, 14, 49, 0
15, 147061, Note_off_c, 14, 56, 0
15, 147069, Note_on_c, 14, 49, 67
15, 147301, Note_off_c, 14, 49, 0
15, 147314, Note_on_c, 14, 49, 64
15, 148012, Note_off_c, 14, 49, 0
15, 148014, Note_on_c, 14, 49, 69
15, 148981, Note_off_c, 14, 49, 0
15, 148982, Note_on_c, 14, 66, 67
15, 148991, Note_on_c, 14, 47, 67
15, 148991, Note_on_c, 14, 69, 67
15, 148993, Note_on_c, 14, 54, 67
15, 149221, Note_off_c, 14, 66, 0
15, 149221, Note_off_c, 14, 69, 0
15, 149221, Note_on_c, 14, 68, 64
15, 149457, Note_off_c, 14, 47, 0
15, 149457, Note_off_c, 14, 54, 0
15, 149457, Note_off_c, 14, 68, 0
15, 149458, Note_on_c, 14, 47, 65
15, 149458, Note_on_c, 14, 54, 65
15, 149458, Note_on_c, 14, 66, 65
15, 149468, Note_on_c, 14, 69, 65
15, 149694, Note_off_c, 14, 66, 0
15, 149694, Note_off_c, 14, 69, 0
15, 149694, Note_on_c, 14, 71, 64
15, 149932, Note_off_c, 14, 47, 0
15, 149932, Note_off_c, 14, 54, 0
15, 149932, Note_off_c, 14, 71, 0
15, 149934, Note_on_c, 14, 61, 64
15, 149934, Note_on_c, 14, 68, 64
15, 149942, Note_on_c, 14, 52, 69
15, 149947, Note_on_c, 14, 49, 69
15, 150901, Note_off_c, 14, 52, 0
15, 150901, Note_off_c, 14, 49, 0
15, 150913, Note_on_c, 14, 49, 67
15, 151141, Note_off_c, 14, 49, 0
15, 151144, Note_on_c, 14, 49, 64
15, 151377, Note_off_c, 14, 61, 0
15, 151377, Note_off_c, 14, 68, 0
15, 151852, Note_off_c, 14, 49, 0
15, 151854, Note_on_c, 14, 49, 69
15, 152821, Note_off_c, 14, 49, 0
15, 152822, Note_on_c, 14, 47, 67
15, 152822, Note_on_c, 14, 66, 67
15, 152825, Note_on_c, 14, 51, 67
15, 152827, Note_on_c, 14, 69, 67
15, 153061, Note_off_c, 14, 66, 0
15, 153061, Note_off_c, 14, 69, 0
15, 153061, Note_on_c, 14, 68, 64
15, 153297, Note_off_c, 14, 47, 0
15, 153297, Note_off_c, 14, 51, 0
15, 153297, Note_off_c, 14, 68, 0
15, 153298, Note_on_c, 14, 47, 65
15, 153298, Note_on_c, 14, 66, 65
15, 153299, Note_on_c, 14, 69, 65
15, 153310, Note_on_c, 14, 51, 65
15, 153534, Note_off_c, 14, 66, 0
15, 153534, Note_off_c, 14, 69, 0
15, 153534, Note_on_c, 14, 71, 64
15, 153772, Note_off_c, 14, 47, 0
15, 153772, Note_off_c, 14, 71, 0
15, 153772, Note_off_c, 14, 51, 0
15, 153774, Note_on_c, 14, 49, 64
15, 153774, Note_on_c, 14, 61, 64
15, 153774, Note_on_c, 14, 68, 64
15, 155217, Note_off_c, 14, 61, 0
15, 155217, Note_off_c, 14, 68, 0
15, 155692, Note_off_c, 14, 49, 0
15, 156186, Note_on_c, 14, 72, 65
15, 156187, Note_on_c, 14, 75, 65
15, 156194, Note_on_c, 14, 45, 53
15, 156422, Note_off_c, 14, 72, 0
15, 156422, Note_off_c, 14, 75, 0
15, 156422, Note_off_c, 14, 45, 0
15, 156423, Note_on_c, 14, 76, 64
15, 156423, Note_on_c, 14, 45, 52
15, 156423, Note_on_c, 14, 73, 64
15, 156661, Note_off_c, 14, 73, 0
15, 156661, Note_off_c, 14, 45, 0
15, 156661, Note_off_c, 14, 76, 0
15, 156662, Note_on_c, 14, 75, 67
15, 156668, Note_on_c, 14, 44, 67
15, 156669, Note_on_c, 14, 78, 67
15, 157137, Note_off_c, 14, 75, 0
15, 157137, Note_off_c, 14, 44, 0
15, 157137, Note_off_c, 14, 78, 0
15, 157138, Note_on_c, 14, 73, 65
15, 157142, Note_on_c, 14, 44, 53
15, 157151, Note_on_c, 14, 76, 65
15, 157374, Note_off_c, 14, 73, 0
15, 157374, Note_off_c, 14, 44, 0
15, 157374, Note_off_c, 14, 76, 0
15, 157374, Note_on_c, 14, 72, 64
15, 157374, Note_on_c, 14, 44, 52
15, 157379, Note_on_c, 14, 75, 64
15, 157612, Note_off_c, 14, 72, 0
15, 157612, Note_off_c, 14, 75, 0
15, 157612, Note_off_c, 14, 44, 0
15, 157615, Note_on_c, 14, 76, 69
15, 157619, Note_on_c, 14, 49, 69
15, 157626, Note_on_c, 14, 73, 69
15, 158106, Note_off_c, 14, 76, 0
15, 158106, Note_off_c, 14, 49, 0
15, 158106, Note_off_c, 14, 73, 0
15, 158106, Note_on_c, 14, 73, 64
15, 158107, Note_on_c, 14, 49, 64
15, 159532, Note_off_c, 14, 73, 0
15, 159532, Note_off_c, 14, 49, 0
15, 159534, Note_on_c, 14, 76, 69
15, 159534, Note_on_c, 14, 49, 69
15, 159539, Note_on_c, 14, 80, 69
15, 160026, Note_off_c, 14, 49, 0
15, 160026, Note_off_c, 14, 80, 0
15, 160026, Note_on_c, 14, 51, 65
15, 160026, Note_on_c, 14, 75, 65
15, 160026, Note_off_c, 14, 76, 0
15, 160037, Note_on_c, 14, 78, 65
15, 160501, Note_off_c, 14, 51, 0
15, 160501, Note_off_c, 14, 75, 0
15, 160501, Note_off_c, 14, 78, 0
15, 160502, Note_on_c, 14, 52, 67
15, 160502, Note_on_c, 14, 73, 67
15, 160503, Note_on_c, 14, 76, 67
15, 160977, Note_off_c, 14, 52, 0
15, 160978, Note_on_c, 14, 54, 65
15, 161452, Note_off_c, 14, 73, 0
15, 161452, Note_off_c, 14, 76, 0
15, 161452, Note_off_c, 14, 54, 0
15, 161454, Note_on_c, 14, 51, 49
15, 161454, Note_on_c, 14, 75, 54
15, 162421, Note_off_c, 14, 75, 0
15, 162422, Note_on_c, 14, 76, 52
15, 162897, Note_off_c, 14, 76, 0
15, 162908, Note_on_c, 14, 78, 50
15, 163372, Note_off_c, 14, 78, 0
15, 163372, Note_off_c, 14, 51, 0
15, 163374, Note_on_c, 14, 44, 49
15, 163374, Note_on_c, 14, 78, 54
15, 163866, Note_off_c, 14, 78, 0
15, 163866, Note_on_c, 14, 76, 50
15, 164341, Note_off_c, 14, 76, 0
15, 164349, Note_on_c, 14, 75, 52
15, 165292, Note_off_c, 14, 44, 0
15, 165292, Note_off_c, 14, 75, 0
15, 165294, Note_on_c, 14, 49, 49
15, 165294, Note_on_c, 14, 75, 54
15, 165786, Note_off_c, 14, 75, 0
15, 165788, Note_on_c, 14, 73, 50
15, 166261, Note_off_c, 14, 73, 0
15, 166274, Note_on_c, 14, 73, 52
15, 167212, Note_off_c, 14, 73, 0
15, 167212, Note_off_c, 14, 49, 0
15, 167214, Note_on_c, 14, 53, 49
15, 167219, Note_on_c, 14, 73, 54
15, 167227, Note_on_c, 14, 65, 54
15, 168181, Note_off_c, 14, 73, 0
15, 168181, Note_off_c, 14, 65, 0
15, 168182, Note_on_c, 14, 65, 52
15, 168189, Note_on_c, 14, 73, 52
15, 169132, Note_off_c, 14, 53, 0
15, 169132, Note_off_c, 14, 65, 0
15, 169132, Note_off_c, 14, 73, 0
15, 169134, Note_on_c, 14, 46, 54
15, 169134, Note_on_c, 14, 63, 54
15, 170101, Note_off_c, 14, 46, 0
15, 170101, Note_off_c, 14, 63, 0
15, 170102, Note_on_c, 14, 64, 52
15, 170102, Note_on_c, 14, 45, 52
15, 170577, Note_off_c, 14, 64, 0
15, 170579, Note_on_c, 14, 66, 50
15, 171052, Note_off_c, 14, 66, 0
15, 171052, Note_off_c, 14, 45, 0
15, 171054, Note_on_c, 14, 44, 54
15, 171054, Note_on_c, 14, 66, 54
15, 171546, Note_off_c, 14, 66, 0
15, 171546, Note_on_c, 14, 64, 50
15, 172021, Note_off_c, 14, 44, 0
15, 172021, Note_off_c, 14, 64, 0
15, 172022, Note_on_c, 14, 48, 52
15, 172022, Note_on_c, 14, 63, 52
15, 172972, Note_off_c, 14, 48, 0
15, 172972, Note_off_c, 14, 63, 0
15, 172974, Note_on_c, 14, 49, 54
15, 172974, Note_on_c, 14, 64, 54
15, 173466, Note_on_c, 14, 66, 50
15, 173466, Note_off_c, 14, 49, 0
15, 173466, Note_on_c, 14, 51, 50
15, 173466, Note_off_c, 14, 64, 0
15, 173941, Note_off_c, 14, 51, 0
15, 173941, Note_off_c, 14, 66, 0
15, 173942, Note_on_c, 14, 52, 52
15, 173942, Note_on_c, 14, 68, 52
15, 174417, Note_off_c, 14, 52, 0
15, 174417, Note_off_c, 14, 68, 0
15, 174418, Note_on_c, 14, 51, 50
15, 174418, Note_on_c, 14, 78, 50
15, 174892, Note_off_c, 14, 51, 0
15, 174892, Note_off_c, 14, 78, 0
15, 174894, Note_on_c, 14, 52, 54
15, 174894, Note_on_c, 14, 80, 49
15, 175386, Note_off_c, 14, 52, 0
15, 175386, Note_on_c, 14, 54, 50
15, 175861, Note_off_c, 14, 54, 0
15, 175862, Note_on_c, 14, 56, 52
15, 176337, Note_off_c, 14, 56, 0
15, 176338, Note_on_c, 14, 58, 50
15, 176812, Note_off_c, 14, 58, 0
15, 176812, Note_off_c, 14, 80, 0
15, 176814, Note_on_c, 14, 54, 54
15, 176826, Note_on_c, 14, 59, 42
15, 177068, Note_off_c, 14, 59, 0
15, 177080, Note_on_c, 14, 59, 37
15, 177306, Note_off_c, 14, 59, 0
15, 177315, Note_on_c, 14, 59, 38
15, 177542, Note_off_c, 14, 59, 0
15, 177556, Note_on_c, 14, 59, 37
15, 177781, Note_off_c, 14, 54, 0
15, 177781, Note_off_c, 14, 59, 0
15, 177782, Note_on_c, 14, 56, 52
15, 177796, Note_on_c, 14, 59, 40
15, 178021, Note_off_c, 14, 59, 0
15, 178028, Note_on_c, 14, 59, 37
15, 178257, Note_off_c, 14, 56, 0
15, 178257, Note_off_c, 14, 59, 0
15, 178258, Note_on_c, 14, 57, 50
15, 178260, Note_on_c, 14, 59, 38
15, 178494, Note_off_c, 14, 59, 0
15, 178498, Note_on_c, 14, 59, 37
15, 178732, Note_off_c, 14, 57, 0
15, 178732, Note_off_c, 14, 59, 0
15, 178734, Note_on_c, 14, 56, 54
15, 178741, Note_on_c, 14, 59, 42
15, 178988, Note_off_c, 14, 59, 0
15, 179000, Note_on_c, 14, 59, 37
15, 179226, Note_off_c, 14, 56, 0
15, 179226, Note_off_c, 14, 59, 0
15, 179226, Note_on_c, 14, 54, 50
15, 179226, Note_on_c, 14, 59, 38
15, 179462, Note_off_c, 14, 59, 0
15, 179473, Note_on_c, 14, 71, 37
15, 179701, Note_off_c, 14, 54, 0
15, 179701, Note_off_c, 14, 71, 0
15, 179706, Note_on_c, 14, 52, 52
15, 179712, Note_on_c, 14, 71, 40
15, 179941, Note_off_c, 14, 71, 0
15, 179941, Note_on_c, 14, 71, 37
15, 180177, Note_off_c, 14, 71, 0
15, 180181, Note_on_c, 14, 69, 38
15, 180414, Note_off_c, 14, 69, 0
15, 180414, Note_on_c, 14, 69, 37
15, 180652, Note_off_c, 14, 52, 0
15, 180652, Note_off_c, 14, 69, 0
15, 180652, Note_on_c, 14, 64, 49
15, 180652, Note_on_c, 14, 68, 54
15, 180664, Note_on_c, 14, 52, 42
15, 180759, Note_off_c, 14, 64, 0
15, 180759, Note_off_c, 14, 68, 0
15, 180759, Note_on_c, 14, 64, 49
15, 180759, Note_on_c, 14, 68, 49
15, 180865, Note_off_c, 14, 64, 0
15, 180865, Note_off_c, 14, 68, 0
15, 180865, Note_on_c, 14, 64, 49
15, 180865, Note_on_c, 14, 68, 49
15, 180872, Note_off_c, 14, 68, 0
15, 180908, Note_off_c, 14, 52, 0
15, 180909, Note_on_c, 14, 52, 37
15, 180971, Note_on_c, 14, 64, 49
15, 180971, Note_on_c, 14, 68, 49
15, 180971, Note_off_c, 14, 64, 0
15, 181078, Note_off_c, 14, 64, 0
15, 181078, Note_off_c, 14, 68, 0
15, 181078, Note_on_c, 14, 64, 49
15, 181078, Note_on_c, 14, 68, 49
15, 181146, Note_off_c, 14, 52, 0
15, 181150, Note_on_c, 14, 52, 38
15, 181184, Note_off_c, 14, 68, 0
15, 181184, Note_on_c, 14, 68, 49
15, 181184, Note_off_c, 14, 64, 0
15, 181184, Note_on_c, 14, 64, 49
15, 181291, Note_off_c, 14, 64, 0
15, 181291, Note_off_c, 14, 68, 0
15, 181291, Note_on_c, 14, 64, 49
15, 181291, Note_on_c, 14, 68, 49
15, 181382, Note_off_c, 14, 52, 0
15, 181394, Note_on_c, 14, 52, 37
15, 181397, Note_off_c, 14, 64, 0
15, 181397, Note_off_c, 14, 68, 0
15, 181397, Note_on_c, 14, 64, 49
15, 181397, Note_on_c, 14, 68, 49
15, 181503, Note_off_c, 14, 64, 0
15, 181503, Note_off_c, 14, 68, 0
15, 181503, Note_on_c, 14, 64, 49
15, 181503, Note_on_c, 14, 68, 49
15, 181610, Note_off_c, 14, 64, 0
15, 181610, Note_off_c, 14, 68, 0
15, 181612, Note_on_c, 14, 64, 49
15, 181612, Note_on_c, 14, 69, 52
15, 181621, Note_off_c, 14, 52, 0
15, 181632, Note_on_c, 14, 52, 40
15, 181732, Note_off_c, 14, 64, 0
15, 181732, Note_off_c, 14, 69, 0
15, 181732, Note_on_c, 14, 64, 49
15, 181732, Note_on_c, 14, 69, 49
15, 181852, Note_off_c, 14, 64, 0
15, 181852, Note_off_c, 14, 69, 0
15, 181852, Note_on_c, 14, 64, 49
15, 181852, Note_on_c, 14, 69, 49
15, 181861, Note_off_c, 14, 52, 0
15, 181866, Note_on_c, 14, 52, 37
15, 181972, Note_off_c, 14, 69, 0
15, 181972, Note_on_c, 14, 64, 49
15, 181972, Note_on_c, 14, 69, 49
15, 181972, Note_off_c, 14, 64, 0
15, 181979, Note_off_c, 14, 64, 0
15, 182092, Note_off_c, 14, 69, 0
15, 182092, Note_on_c, 14, 64, 49
15, 182092, Note_on_c, 14, 71, 50
15, 182097, Note_off_c, 14, 52, 0
15, 182109, Note_on_c, 14, 52, 38
15, 182212, Note_off_c, 14, 64, 0
15, 182212, Note_off_c, 14, 71, 0
15, 182212, Note_on_c, 14, 64, 49
15, 182212, Note_on_c, 14, 71, 49
15, 182219, Note_off_c, 14, 71, 0
15, 182332, Note_on_c, 14, 64, 49
15, 182332, Note_on_c, 14, 71, 49
15, 182332, Note_off_c, 14, 64, 0
15, 182334, Note_off_c, 14, 52, 0
15, 182339, Note_off_c, 14, 71, 0
15, 182345, Note_on_c, 14, 52, 37
15, 182452, Note_on_c, 14, 64, 49
15, 182452, Note_on_c, 14, 71, 49
15, 182452, Note_off_c, 14, 64, 0
15, 182459, Note_off_c, 14, 64, 0
15, 182572, Note_off_c, 14, 52, 0
15, 182572, Note_off_c, 14, 71, 0
15, 182572, Note_on_c, 14, 64, 49
15, 182572, Note_on_c, 14, 71, 54
15, 182585, Note_on_c, 14, 52, 42
15, 182585, Note_on_c, 14, 59, 42
15, 182692, Note_off_c, 14, 64, 0
15, 182692, Note_off_c, 14, 71, 0
15, 182692, Note_on_c, 14, 64, 49
15, 182692, Note_on_c, 14, 71, 49
15, 182812, Note_off_c, 14, 71, 0
15, 182812, Note_on_c, 14, 71, 49
15, 182812, Note_off_c, 14, 64, 0
15, 182812, Note_on_c, 14, 64, 49
15, 182828, Note_off_c, 14, 59, 0
15, 182828, Note_off_c, 14, 52, 0
15, 182829, Note_on_c, 14, 52, 37
15, 182932, Note_off_c, 14, 64, 0
15, 182932, Note_off_c, 14, 71, 0
15, 182932, Note_on_c, 14, 64, 49
15, 182932, Note_on_c, 14, 71, 49
15, 183052, Note_off_c, 14, 64, 0
15, 183052, Note_off_c, 14, 71, 0
15, 183052, Note_on_c, 14, 64, 49
15, 183052, Note_on_c, 14, 69, 50
15, 183066, Note_off_c, 14, 52, 0
15, 183073, Note_on_c, 14, 57, 38
15, 183078, Note_on_c, 14, 52, 38
15, 183172, Note_off_c, 14, 64, 0
15, 183172, Note_on_c, 14, 64, 49
15, 183172, Note_off_c, 14, 69, 0
15, 183172, Note_on_c, 14, 69, 49
15, 183292, Note_off_c, 14, 64, 0
15, 183292, Note_off_c, 14, 69, 0
15, 183292, Note_on_c, 14, 64, 49
15, 183292, Note_on_c, 14, 69, 49
15, 183302, Note_off_c, 14, 52, 0
15, 183302, Note_off_c, 14, 57, 0
15, 183314, Note_on_c, 14, 52, 37
15, 183412, Note_off_c, 14, 64, 0
15, 183412, Note_off_c, 14, 69, 0
15, 183412, Note_on_c, 14, 64, 49
15, 183412, Note_on_c, 14, 69, 49
15, 183532, Note_on_c, 14, 68, 52
15, 183532, Note_off_c, 14, 64, 0
15, 183532, Note_off_c, 14, 69, 0
15, 183532, Note_on_c, 14, 64, 49
15, 183541, Note_off_c, 14, 52, 0
15, 183543, Note_on_c, 14, 52, 40
15, 183545, Note_on_c, 14, 56, 40
15, 183639, Note_off_c, 14, 64, 0
15, 183639, Note_off_c, 14, 68, 0
15, 183639, Note_on_c, 14, 64, 49
15, 183639, Note_on_c, 14, 68, 49
15, 183745, Note_off_c, 14, 64, 0
15, 183745, Note_off_c, 14, 68, 0
15, 183745, Note_on_c, 14, 64, 49
15, 183745, Note_on_c, 14, 68, 49
15, 183781, Note_off_c, 14, 52, 0
15, 183781, Note_off_c, 14, 56, 0
15, 183786, Note_on_c, 14, 52, 37
15, 183851, Note_off_c, 14, 68, 0
15, 183851, Note_off_c, 14, 64, 0
15, 183851, Note_on_c, 14, 64, 49
15, 183851, Note_on_c, 14, 68, 49
15, 183958, Note_off_c, 14, 64, 0
15, 183958, Note_off_c, 14, 68, 0
15, 183958, Note_on_c, 14, 64, 49
15, 183958, Note_on_c, 14, 68, 49
15, 184017, Note_off_c, 14, 52, 0
15, 184024, Note_on_c, 14, 52, 38
15, 184064, Note_off_c, 14, 64, 0
15, 184064, Note_off_c, 14, 68, 0
15, 184064, Note_on_c, 14, 64, 49
15, 184064, Note_on_c, 14, 68, 49
15, 184171, Note_on_c, 14, 68, 49
15, 184171, Note_off_c, 14, 64, 0
15, 184171, Note_off_c, 14, 68, 0
15, 184171, Note_on_c, 14, 64, 49
15, 184254, Note_off_c, 14, 52, 0
15, 184254, Note_on_c, 14, 52, 37
15, 184277, Note_off_c, 14, 64, 0
15, 184277, Note_off_c, 14, 68, 0
15, 184277, Note_on_c, 14, 64, 49
15, 184277, Note_on_c, 14, 68, 49
15, 184383, Note_off_c, 14, 64, 0
15, 184383, Note_off_c, 14, 68, 0
15, 184383, Note_on_c, 14, 64, 49
15, 184383, Note_on_c, 14, 68, 49
15, 184490, Note_off_c, 14, 64, 0
15, 184490, Note_off_c, 14, 68, 0
15, 184492, Note_off_c, 14, 52, 0
15, 184492, Note_on_c, 14, 67, 49
15, 184492, Note_on_c, 14, 70, 54
15, 184494, Note_on_c, 14, 55, 54
15, 184494, Note_on_c, 14, 51, 54
15, 184497, Note_on_c, 14, 58, 54
15, 184599, Note_off_c, 14, 70, 0
15, 184599, Note_on_c, 14, 67, 49
15, 184599, Note_on_c, 14, 70, 49
15, 184599, Note_off_c, 14, 67, 0
15, 184606, Note_off_c, 14, 67, 0
15, 184705, Note_off_c, 14, 70, 0
15, 184705, Note_on_c, 14, 67, 49
15, 184705, Note_on_c, 14, 70, 49
15, 184811, Note_off_c, 14, 67, 0
15, 184811, Note_off_c, 14, 70, 0
15, 184811, Note_on_c, 14, 67, 49
15, 184811, Note_on_c, 14, 70, 49
15, 184918, Note_on_c, 14, 70, 49
15, 184918, Note_off_c, 14, 67, 0
15, 184918, Note_off_c, 14, 70, 0
15, 184918, Note_on_c, 14, 67, 49
15, 184925, Note_off_c, 14, 70, 0
15, 185024, Note_off_c, 14, 67, 0
15, 185024, Note_on_c, 14, 67, 49
15, 185024, Note_on_c, 14, 70, 49
15, 185131, Note_off_c, 14, 67, 0
15, 185131, Note_off_c, 14, 70, 0
15, 185131, Note_on_c, 14, 67, 49
15, 185131, Note_on_c, 14, 70, 49
15, 185237, Note_on_c, 14, 70, 49
15, 185237, Note_off_c, 14, 67, 0
15, 185237, Note_off_c, 14, 70, 0
15, 185237, Note_on_c, 14, 67, 49
15, 185244, Note_off_c, 14, 70, 0
15, 185343, Note_on_c, 14, 70, 49
15, 185343, Note_off_c, 14, 67, 0
15, 185343, Note_on_c, 14, 67, 49
15, 185450, Note_off_c, 14, 67, 0
15, 185450, Note_off_c, 14, 70, 0
15, 185452, Note_on_c, 14, 68, 49
15, 185452, Note_on_c, 14, 71, 52
15, 185461, Note_off_c, 14, 55, 0
15, 185461, Note_off_c, 14, 51, 0
15, 185461, Note_off_c, 14, 58, 0
15, 185462, Note_on_c, 14, 56, 52
15, 185462, Note_on_c, 14, 59, 52
15, 185572, Note_off_c, 14, 68, 0
15, 185572, Note_off_c, 14, 71, 0
15, 185572, Note_on_c, 14, 68, 49
15, 185572, Note_on_c, 14, 71, 49
15, 185692, Note_off_c, 14, 68, 0
15, 185692, Note_off_c, 14, 71, 0
15, 185692, Note_on_c, 14, 68, 49
15, 185692, Note_on_c, 14, 71, 49
15, 185700, Note_off_c, 14, 68, 0
15, 185812, Note_off_c, 14, 71, 0
15, 185812, Note_on_c, 14, 71, 49
15, 185812, Note_on_c, 14, 68, 49
15, 185932, Note_off_c, 14, 68, 0
15, 185932, Note_off_c, 14, 71, 0
15, 185932, Note_on_c, 14, 70, 49
15, 185932, Note_on_c, 14, 73, 50
15, 185937, Note_off_c, 14, 56, 0
15, 185937, Note_off_c, 14, 59, 0
15, 185938, Note_on_c, 14, 58, 50
15, 185949, Note_on_c, 14, 61, 50
15, 186052, Note_off_c, 14, 70, 0
15, 186052, Note_off_c, 14, 73, 0
15, 186052, Note_on_c, 14, 70, 49
15, 186052, Note_on_c, 14, 73, 49
15, 186060, Note_off_c, 14, 73, 0
15, 186172, Note_off_c, 14, 70, 0
15, 186172, Note_on_c, 14, 70, 49
15, 186172, Note_on_c, 14, 73, 49
15, 186292, Note_off_c, 14, 73, 0
15, 186292, Note_on_c, 14, 73, 49
15, 186292, Note_off_c, 14, 70, 0
15, 186292, Note_on_c, 14, 70, 49
15, 186412, Note_off_c, 14, 58, 0
15, 186412, Note_off_c, 14, 70, 0
15, 186412, Note_off_c, 14, 73, 0
15, 186412, Note_on_c, 14, 70, 49
15, 186412, Note_on_c, 14, 73, 54
15, 186412, Note_off_c, 14, 61, 0
15, 186414, Note_on_c, 14, 58, 54
15, 186421, Note_on_c, 14, 61, 54
15, 186532, Note_off_c, 14, 70, 0
15, 186532, Note_off_c, 14, 73, 0
15, 186532, Note_on_c, 14, 73, 49
15, 186532, Note_on_c, 14, 70, 49
15, 186652, Note_off_c, 14, 73, 0
15, 186652, Note_on_c, 14, 73, 49
15, 186652, Note_off_c, 14, 70, 0
15, 186652, Note_on_c, 14, 70, 49
15, 186772, Note_off_c, 14, 70, 0
15, 186772, Note_off_c, 14, 73, 0
15, 186772, Note_on_c, 14, 70, 49
15, 186772, Note_on_c, 14, 73, 49
15, 186892, Note_off_c, 14, 70, 0
15, 186892, Note_off_c, 14, 73, 0
15, 186892, Note_on_c, 14, 68, 49
15, 186892, Note_on_c, 14, 71, 50
15, 186906, Note_off_c, 14, 58, 0
15, 186906, Note_off_c, 14, 61, 0
15, 186910, Note_on_c, 14, 59, 50
15, 186915, Note_on_c, 14, 56, 50
15, 187012, Note_on_c, 14, 71, 49
15, 187012, Note_off_c, 14, 68, 0
15, 187012, Note_off_c, 14, 71, 0
15, 187012, Note_on_c, 14, 68, 49
15, 187132, Note_off_c, 14, 68, 0
15, 187132, Note_off_c, 14, 71, 0
15, 187132, Note_on_c, 14, 68, 49
15, 187132, Note_on_c, 14, 71, 49
15, 187252, Note_off_c, 14, 68, 0
15, 187252, Note_off_c, 14, 71, 0
15, 187252, Note_on_c, 14, 68, 49
15, 187252, Note_on_c, 14, 71, 49
15, 187372, Note_off_c, 14, 68, 0
15, 187372, Note_off_c, 14, 71, 0
15, 187372, Note_on_c, 14, 68, 49
15, 187372, Note_on_c, 14, 71, 52
15, 187381, Note_off_c, 14, 56, 0
15, 187381, Note_off_c, 14, 59, 0
15, 187382, Note_on_c, 14, 56, 52
15, 187389, Note_on_c, 14, 59, 52
15, 187492, Note_off_c, 14, 68, 0
15, 187492, Note_off_c, 14, 71, 0
15, 187492, Note_on_c, 14, 68, 49
15, 187492, Note_on_c, 14, 71, 49
15, 187612, Note_off_c, 14, 68, 0
15, 187612, Note_off_c, 14, 71, 0
15, 187612, Note_on_c, 14, 68, 49
15, 187612, Note_on_c, 14, 71, 49
15, 187732, Note_off_c, 14, 71, 0
15, 187732, Note_on_c, 14, 71, 49
15, 187732, Note_off_c, 14, 68, 0
15, 187732, Note_on_c, 14, 68, 49
15, 187852, Note_off_c, 14, 68, 0
15, 187852, Note_off_c, 14, 71, 0
15, 187852, Note_on_c, 14, 67, 49
15, 187852, Note_on_c, 14, 70, 50
15, 187857, Note_off_c, 14, 56, 0
15, 187857, Note_off_c, 14, 59, 0
15, 187858, Note_on_c, 14, 55, 50
15, 187870, Note_on_c, 14, 58, 50
15, 187972, Note_off_c, 14, 70, 0
15, 187972, Note_on_c, 14, 70, 49
15, 187972, Note_off_c, 14, 67, 0
15, 187972, Note_on_c, 14, 67, 49
15, 188092, Note_off_c, 14, 67, 0
15, 188092, Note_off_c, 14, 70, 0
15, 188092, Note_on_c, 14, 67, 49
15, 188092, Note_on_c, 14, 70, 49
15, 188212, Note_off_c, 14, 67, 0
15, 188212, Note_off_c, 14, 70, 0
15, 188212, Note_on_c, 14, 67, 49
15, 188212, Note_on_c, 14, 70, 49
15, 188332, Note_off_c, 14, 58, 0
15, 188332, Note_off_c, 14, 70, 0
15, 188332, Note_off_c, 14, 67, 0
15, 188332, Note_off_c, 14, 55, 0
15, 188334, Note_on_c, 14, 56, 54
15, 188339, Note_on_c, 14, 68, 54
15, 188341, Note_on_c, 14, 63, 54
15, 188345, Note_on_c, 14, 75, 54
15, 189301, Note_off_c, 14, 68, 0
15, 189301, Note_off_c, 14, 63, 0
15, 189301, Note_off_c, 14, 75, 0
15, 189301, Note_off_c, 14, 56, 0
15, 189302, Note_on_c, 14, 54, 52
15, 189302, Note_on_c, 14, 63, 52
15, 189302, Note_on_c, 14, 68, 52
15, 189312, Note_on_c, 14, 75, 52
15, 190252, Note_off_c, 14, 54, 0
15, 190252, Note_off_c, 14, 63, 0
15, 190252, Note_off_c, 14, 68, 0
15, 190252, Note_off_c, 14, 75, 0
15, 190254, Note_on_c, 14, 52, 54
15, 191221, Note_off_c, 14, 52, 0
15, 191222, Note_on_c, 14, 68, 52
15, 191222, Note_on_c, 14, 51, 52
15, 191230, Note_on_c, 14, 56, 52
15, 192172, Note_off_c, 14, 51, 0
15, 192172, Note_off_c, 14, 68, 0
15, 192172, Note_off_c, 14, 56, 0
15, 192174, Note_on_c, 14, 42, 54
15, 192174, Note_on_c, 14, 61, 54
15, 192174, Note_on_c, 14, 66, 54
15, 192182, Note_on_c, 14, 73, 54
15, 192428, Note_off_c, 14, 42, 0
15, 192428, Note_on_c, 14, 44, 49
15, 192666, Note_off_c, 14, 44, 0
15, 192666, Note_on_c, 14, 46, 50
15, 192902, Note_off_c, 14, 46, 0
15, 192903, Note_on_c, 14, 47, 49
15, 193141, Note_off_c, 14, 66, 0
15, 193141, Note_off_c, 14, 61, 0
15, 193141, Note_off_c, 14, 47, 0
15, 193141, Note_off_c, 14, 73, 0
15, 193142, Note_on_c, 14, 49, 52
15, 193145, Note_on_c, 14, 73, 52
15, 193381, Note_off_c, 14, 49, 0
15, 193381, Note_on_c, 14, 47, 49
15, 193617, Note_off_c, 14, 47, 0
15, 193618, Note_on_c, 14, 49, 50
15, 193854, Note_off_c, 14, 73, 0
15, 193854, Note_off_c, 14, 49, 0
15, 193854, Note_on_c, 14, 51, 49
15, 193866, Note_on_c, 14, 73, 37
15, 193970, Note_off_c, 14, 73, 0
15, 193971, Note_on_c, 14, 73, 37
15, 194092, Note_off_c, 14, 51, 0
15, 194092, Note_off_c, 14, 73, 0
15, 194094, Note_on_c, 14, 78, 49
15, 194094, Note_on_c, 14, 52, 54
15, 194348, Note_off_c, 14, 52, 0
15, 194348, Note_on_c, 14, 51, 49
15, 194586, Note_off_c, 14, 51, 0
15, 194586, Note_on_c, 14, 52, 50
15, 194822, Note_off_c, 14, 52, 0
15, 194823, Note_on_c, 14, 54, 49
15, 195061, Note_off_c, 14, 54, 0
15, 195062, Note_on_c, 14, 56, 52
15, 195301, Note_off_c, 14, 56, 0
15, 195301, Note_on_c, 14, 58, 49
15, 195537, Note_off_c, 14, 58, 0
15, 195538, Note_on_c, 14, 59, 50
15, 195774, Note_off_c, 14, 59, 0
15, 195774, Note_on_c, 14, 60, 49
15, 196012, Note_off_c, 14, 78, 0
15, 196012, Note_off_c, 14, 60, 0
15, 196014, Note_on_c, 14, 64, 54
15, 196018, Note_on_c, 14, 52, 54
15, 196021, Note_on_c, 14, 68, 54
15, 196023, Note_on_c, 14, 61, 54
15, 196981, Note_off_c, 14, 64, 0
15, 196981, Note_off_c, 14, 52, 0
15, 196981, Note_off_c, 14, 68, 0
15, 196981, Note_off_c, 14, 61, 0
15, 196982, Note_on_c, 14, 52, 52
15, 196982, Note_on_c, 14, 64, 52
15, 196988, Note_on_c, 14, 68, 52
15, 196990, Note_on_c, 14, 61, 52
15, 197457, Note_off_c, 14, 52, 0
15, 197457, Note_off_c, 14, 64, 0
15, 197457, Note_off_c, 14, 68, 0
15, 197457, Note_off_c, 14, 61, 0
15, 197458, Note_on_c, 14, 48, 50
15, 197458, Note_on_c, 14, 60, 50
15, 197461, Note_on_c, 14, 56, 50
15, 197464, Note_on_c, 14, 66, 50
15, 197932, Note_off_c, 14, 60, 0
15, 197932, Note_off_c, 14, 56, 0
15, 197932, Note_off_c, 14, 66, 0
15, 197932, Note_off_c, 14, 48, 0
15, 197934, Note_on_c, 14, 52, 54
15, 197934, Note_on_c, 14, 64, 54
15, 197938, Note_on_c, 14, 68, 54
15, 197944, Note_on_c, 14, 61, 54
15, 198426, Note_off_c, 14, 52, 0
15, 198426, Note_off_c, 14, 64, 0
15, 198426, Note_off_c, 14, 68, 0
15, 198426, Note_off_c, 14, 61, 0
15, 198426, Note_on_c, 14, 48, 50
15, 198426, Note_on_c, 14, 60, 50
15, 198429, Note_on_c, 14, 66, 50
15, 198439, Note_on_c, 14, 56, 50
15, 198901, Note_off_c, 14, 56, 0
15, 198901, Note_off_c, 14, 48, 0
15, 198901, Note_off_c, 14, 66, 0
15, 198901, Note_off_c, 14, 60, 0
15, 198902, Note_on_c, 14, 49, 52
15, 198907, Note_on_c, 14, 64, 52
15, 198908, Note_on_c, 14, 61, 52
15, 198911, Note_on_c, 14, 56, 52
15, 199852, Note_off_c, 14, 49, 0
15, 199852, Note_off_c, 14, 64, 0
15, 199852, Note_off_c, 14, 61, 0
15, 199852, Note_off_c, 14, 56, 0
15, 199854, Note_on_c, 14, 42, 54
15, 199854, Note_on_c, 14, 61, 54
15, 199854, Note_on_c, 14, 66, 54
15, 199867, Note_on_c, 14, 73, 54
15, 200108, Note_off_c, 14, 42, 0
15, 200108, Note_on_c, 14, 44, 49
15, 200346, Note_off_c, 14, 44, 0
15, 200346, Note_on_c, 14, 46, 50
15, 200582, Note_off_c, 14, 46, 0
15, 200583, Note_on_c, 14, 47, 49
15, 200821, Note_off_c, 14, 61, 0
15, 200821, Note_off_c, 14, 73, 0
15, 200821, Note_off_c, 14, 66, 0
15, 200821, Note_off_c, 14, 47, 0
15, 200822, Note_on_c, 14, 49, 52
15, 200834, Note_on_c, 14, 73, 52
15, 201061, Note_off_c, 14, 49, 0
15, 201061, Note_on_c, 14, 47, 49
15, 201297, Note_off_c, 14, 47, 0
15, 201298, Note_on_c, 14, 49, 50
15, 201534, Note_off_c, 14, 73, 0
15, 201534, Note_off_c, 14, 49, 0
15, 201534, Note_on_c, 14, 51, 49
15, 201541, Note_on_c, 14, 73, 37
15, 201650, Note_off_c, 14, 73, 0
15, 201651, Note_on_c, 14, 73, 37
15, 201772, Note_off_c, 14, 51, 0
15, 201772, Note_off_c, 14, 73, 0
15, 201774, Note_on_c, 14, 52, 54
15, 201774, Note_on_c, 14, 78, 49
15, 202028, Note_off_c, 14, 52, 0
15, 202028, Note_on_c, 14, 51, 49
15, 202266, Note_off_c, 14, 51, 0
15, 202266, Note_on_c, 14, 52, 50
15, 202502, Note_off_c, 14, 52, 0
15, 202503, Note_on_c, 14, 54, 49
15, 202741, Note_off_c, 14, 54, 0
15, 202742, Note_on_c, 14, 56, 52
15, 202981, Note_on_c, 14, 58, 49
15, 202981, Note_off_c, 14, 56, 0
15, 203217, Note_off_c, 14, 58, 0
15, 203218, Note_on_c, 14, 59, 50
15, 203454, Note_off_c, 14, 59, 0
15, 203454, Note_on_c, 14, 60, 49
15, 203692, Note_off_c, 14, 60, 0
15, 203692, Note_off_c, 14, 78, 0
15, 203694, Note_on_c, 14, 54, 49
15, 203694, Note_on_c, 14, 69, 54
15, 203697, Note_on_c, 14, 73, 54
15, 204661, Note_off_c, 14, 69, 0
15, 204661, Note_off_c, 14, 73, 0
15, 204662, Note_on_c, 14, 71, 52
15, 204675, Note_on_c, 14, 75, 52
15, 205137, Note_off_c, 14, 71, 0
15, 205137, Note_off_c, 14, 75, 0
15, 205138, Note_on_c, 14, 73, 50
15, 205140, Note_on_c, 14, 76, 50
15, 205612, Note_off_c, 14, 76, 0
15, 205612, Note_off_c, 14, 54, 0
15, 205612, Note_off_c, 14, 73, 0
15, 205614, Note_on_c, 14, 47, 49
15, 205614, Note_on_c, 14, 71, 54
15, 205616, Note_on_c, 14, 75, 54
15, 206106, Note_off_c, 14, 71, 0
15, 206106, Note_off_c, 14, 75, 0
15, 206106, Note_on_c, 14, 69, 50
15, 206116, Note_on_c, 14, 73, 50
15, 206581, Note_off_c, 14, 69, 0
15, 206581, Note_off_c, 14, 73, 0
15, 206582, Note_on_c, 14, 68, 52
15, 206594, Note_on_c, 14, 71, 52
15, 207057, Note_off_c, 14, 68, 0
15, 207057, Note_off_c, 14, 71, 0
15, 207058, Note_on_c, 14, 66, 50
15, 207058, Note_on_c, 14, 69, 50
15, 207532, Note_off_c, 14, 66, 0
15, 207532, Note_off_c, 14, 69, 0
15, 207532, Note_off_c, 14, 47, 0
15, 221466, Note_on_c, 14, 64, 89
15, 221587, Note_off_c, 14, 64, 0
15, 221587, Note_on_c, 14, 68, 88
15, 221702, Note_off_c, 14, 68, 0
15, 221703, Note_on_c, 14, 71, 88
15, 221819, Note_off_c, 14, 71, 0
15, 221819, Note_on_c, 14, 76, 88
15, 221941, Note_off_c, 14, 76, 0
15, 221942, Note_on_c, 14, 68, 91
15, 222065, Note_off_c, 14, 68, 0
15, 222065, Note_on_c, 14, 71, 88
15, 222181, Note_off_c, 14, 71, 0
15, 222181, Note_on_c, 14, 76, 88
15, 222297, Note_on_c, 14, 80, 88
15, 222297, Note_off_c, 14, 76, 0
15, 222417, Note_off_c, 14, 80, 0
15, 222418, Note_on_c, 14, 71, 89
15, 222538, Note_off_c, 14, 71, 0
15, 222538, Note_on_c, 14, 76, 88
15, 222654, Note_off_c, 14, 76, 0
15, 222654, Note_on_c, 14, 80, 88
15, 222770, Note_off_c, 14, 80, 0
15, 222771, Note_on_c, 14, 83, 88
15, 222892, Note_off_c, 14, 83, 0
15, 222894, Note_on_c, 14, 52, 93
15, 222902, Note_on_c, 14, 56, 93
15, 222905, Note_on_c, 14, 64, 93
15, 222906, Note_on_c, 14, 68, 93
15, 222907, Note_on_c, 14, 71, 93
15, 223861, Note_off_c, 14, 52, 0
15, 223861, Note_off_c, 14, 56, 0
15, 223861, Note_off_c, 14, 64, 0
15, 223861, Note_off_c, 14, 68, 0
15, 223861, Note_off_c, 14, 71, 0
15, 223862, Note_on_c, 14, 56, 91
15, 223862, Note_on_c, 14, 68, 91
15, 223867, Note_on_c, 14, 64, 91
15, 223875, Note_on_c, 14, 71, 91
15, 224337, Note_off_c, 14, 56, 0
15, 224337, Note_off_c, 14, 68, 0
15, 224337, Note_off_c, 14, 64, 0
15, 224337, Note_off_c, 14, 71, 0
15, 224338, Note_on_c, 14, 57, 89
15, 224338, Note_on_c, 14, 69, 89
15, 224342, Note_on_c, 14, 64, 89
15, 224347, Note_on_c, 14, 73, 89
15, 224812, Note_off_c, 14, 57, 0
15, 224812, Note_off_c, 14, 69, 0
15, 224812, Note_off_c, 14, 64, 0
15, 224812, Note_off_c, 14, 73, 0
15, 224814, Note_on_c, 14, 52, 93
15, 224814, Note_on_c, 14, 56, 93
15, 224814, Note_on_c, 14, 64, 93
15, 224814, Note_on_c, 14, 68, 93
15, 224826, Note_on_c, 14, 71, 93
15, 225306, Note_on_c, 14, 66, 89
15, 225306, Note_off_c, 14, 56, 0
15, 225306, Note_off_c, 14, 64, 0
15, 225306, Note_off_c, 14, 68, 0
15, 225306, Note_off_c, 14, 71, 0
15, 225306, Note_on_c, 14, 54, 89
15, 225306, Note_on_c, 14, 61, 89
15, 225306, Note_off_c, 14, 52, 0
15, 225312, Note_on_c, 14, 69, 89
15, 225781, Note_off_c, 14, 61, 0
15, 225781, Note_off_c, 14, 66, 0
15, 225781, Note_off_c, 14, 69, 0
15, 225781, Note_off_c, 14, 54, 0
15, 225782, Note_on_c, 14, 59, 91
15, 225782, Note_on_c, 14, 64, 91
15, 225782, Note_on_c, 14, 52, 91
15, 225791, Note_on_c, 14, 68, 91
15, 226732, Note_off_c, 14, 59, 0
15, 226732, Note_off_c, 14, 52, 0
15, 226732, Note_off_c, 14, 64, 0
15, 226732, Note_off_c, 14, 68, 0
15, 226734, Note_on_c, 14, 71, 93
15, 226737, Note_on_c, 14, 63, 93
15, 226746, Note_on_c, 14, 47, 93
15, 227701, Note_off_c, 14, 71, 0
15, 227701, Note_off_c, 14, 63, 0
15, 227701, Note_off_c, 14, 47, 0
15, 227702, Note_on_c, 14, 47, 91
15, 227702, Note_on_c, 14, 63, 91
15, 227707, Note_on_c, 14, 71, 91
15, 228177, Note_off_c, 14, 47, 0
15, 228177, Note_off_c, 14, 63, 0
15, 228177, Note_off_c, 14, 71, 0
15, 228178, Note_on_c, 14, 49, 89
15, 228178, Note_on_c, 14, 64, 89
15, 228186, Note_on_c, 14, 73, 89
15, 228652, Note_off_c, 14, 49, 0
15, 228652, Note_off_c, 14, 64, 0
15, 228652, Note_off_c, 14, 73, 0
15, 228654, Note_on_c, 14, 50, 93
15, 228660, Note_on_c, 14, 65, 93
15, 228664, Note_on_c, 14, 74, 93
15, 229621, Note_off_c, 14, 50, 0
15, 229621, Note_off_c, 14, 65, 0
15, 229621, Note_off_c, 14, 74, 0
15, 229622, Note_on_c, 14, 57, 91
15, 229622, Note_on_c, 14, 65, 91
15, 229622, Note_on_c, 14, 69, 91
15, 229622, Note_on_c, 14, 74, 91
15, 230097, Note_off_c, 14, 74, 0
15, 230097, Note_off_c, 14, 65, 0
15, 230097, Note_off_c, 14, 69, 0
15, 230097, Note_off_c, 14, 57, 0
15, 230098, Note_on_c, 14, 56, 89
15, 230098, Note_on_c, 14, 62, 89
15, 230098, Note_on_c, 14, 68, 89
15, 230106, Note_on_c, 14, 74, 89
15, 230572, Note_off_c, 14, 56, 0
15, 230572, Note_off_c, 14, 62, 0
15, 230572, Note_off_c, 14, 68, 0
15, 230572, Note_off_c, 14, 74, 0
15, 230574, Note_on_c, 14, 49, 93
15, 230574, Note_on_c, 14, 69, 93
15, 230580, Note_on_c, 14, 73, 93
15, 230584, Note_on_c, 14, 57, 93
15, 231541, Note_off_c, 14, 49, 0
15, 231541, Note_off_c, 14, 73, 0
15, 231541, Note_off_c, 14, 57, 0
15, 231541, Note_off_c, 14, 69, 0
15, 231542, Note_on_c, 14, 54, 91
15, 231542, Note_on_c, 14, 66, 91
15, 231542, Note_on_c, 14, 73, 91
15, 232017, Note_off_c, 14, 54, 0
15, 232017, Note_off_c, 14, 66, 0
15, 232017, Note_off_c, 14, 73, 0
15, 232018, Note_on_c, 14, 56, 89
15, 232018, Note_on_c, 14, 68, 89
15, 232025, Note_on_c, 14, 73, 89
15, 232492, Note_off_c, 14, 56, 0
15, 232492, Note_off_c, 14, 68, 0
15, 232492, Note_off_c, 14, 73, 0
15, 232494, Note_on_c, 14, 54, 93
15, 232494, Note_on_c, 14, 69, 93
15, 232505, Note_on_c, 14, 57, 93
15, 232506, Note_on_c, 14, 73, 93
15, 232508, Note_on_c, 14, 63, 93
15, 233461, Note_off_c, 14, 63, 0
15, 233461, Note_off_c, 14, 69, 0
15, 233461, Note_off_c, 14, 57, 0
15, 233461, Note_off_c, 14, 73, 0
15, 233461, Note_off_c, 14, 54, 0
15, 233462, Note_on_c, 14, 51, 91
15, 233462, Note_on_c, 14, 63, 91
15, 233462, Note_on_c, 14, 66, 91
15, 233463, Note_on_c, 14, 56, 91
15, 233474, Note_on_c, 14, 71, 91
15, 234412, Note_off_c, 14, 51, 0
15, 234412, Note_off_c, 14, 63, 0
15, 234412, Note_off_c, 14, 66, 0
15, 234412, Note_off_c, 14, 56, 0
15, 234412, Note_off_c, 14, 71, 0
15, 234414, Note_on_c, 14, 69, 88
15, 234424, Note_on_c, 14, 76, 88
15, 234426, Note_on_c, 14, 57, 88
15, 235857, Note_off_c, 14, 69, 0
15, 235857, Note_off_c, 14, 76, 0
15, 235858, Note_on_c, 14, 78, 89
15, 236332, Note_off_c, 14, 78, 0
15, 236334, Note_on_c, 14, 81, 93
15, 236826, Note_off_c, 14, 81, 0
15, 236826, Note_on_c, 14, 80, 89
15, 237301, Note_off_c, 14, 80, 0
15, 237302, Note_on_c, 14, 78, 91
15, 237777, Note_off_c, 14, 78, 0
15, 237778, Note_on_c, 14, 76, 89
15, 238252, Note_off_c, 14, 57, 0
15, 238252, Note_off_c, 14, 76, 0
15, 238254, Note_on_c, 14, 48, 81
15, 238254, Note_on_c, 14, 79, 93
15, 238508, Note_off_c, 14, 48, 0
15, 238516, Note_on_c, 14, 48, 76
15, 238746, Note_off_c, 14, 48, 0
15, 238757, Note_on_c, 14, 48, 77
15, 238982, Note_off_c, 14, 48, 0
15, 238991, Note_on_c, 14, 48, 76
15, 239221, Note_off_c, 14, 79, 0
15, 239221, Note_off_c, 14, 48, 0
15, 239234, Note_on_c, 14, 48, 79
15, 239236, Note_on_c, 14, 76, 91
15, 239461, Note_off_c, 14, 48, 0
15, 239467, Note_on_c, 14, 48, 76
15, 239697, Note_off_c, 14, 48, 0
15, 239707, Note_on_c, 14, 48, 77
15, 239934, Note_off_c, 14, 48, 0
15, 239934, Note_on_c, 14, 48, 76
15, 240172, Note_off_c, 14, 48, 0
15, 240177, Note_on_c, 14, 50, 81
15, 240428, Note_off_c, 14, 50, 0
15, 240432, Note_on_c, 14, 50, 76
15, 240666, Note_off_c, 14, 50, 0
15, 240670, Note_on_c, 14, 50, 77
15, 240902, Note_off_c, 14, 50, 0
15, 240906, Note_on_c, 14, 50, 76
15, 241141, Note_off_c, 14, 50, 0
15, 241154, Note_on_c, 14, 50, 79
15, 241381, Note_off_c, 14, 50, 0
15, 241388, Note_on_c, 14, 50, 76
15, 241617, Note_off_c, 14, 50, 0
15, 241624, Note_on_c, 14, 50, 77
15, 241854, Note_off_c, 14, 50, 0
15, 241854, Note_on_c, 14, 50, 76
15, 242092, Note_off_c, 14, 76, 0
15, 242092, Note_off_c, 14, 50, 0
15, 242094, Note_on_c, 14, 67, 88
15, 242095, Note_on_c, 14, 51, 81
15, 242348, Note_off_c, 14, 51, 0
15, 242358, Note_on_c, 14, 51, 76
15, 242586, Note_off_c, 14, 51, 0
15, 242586, Note_on_c, 14, 51, 77
15, 242822, Note_off_c, 14, 51, 0
15, 242824, Note_on_c, 14, 51, 76
15, 243061, Note_off_c, 14, 51, 0
15, 243076, Note_on_c, 14, 51, 79
15, 243301, Note_off_c, 14, 51, 0
15, 243306, Note_on_c, 14, 51, 76
15, 243537, Note_off_c, 14, 67, 0
15, 243537, Note_off_c, 14, 51, 0
15, 243538, Note_on_c, 14, 69, 89
15, 243546, Note_on_c, 14, 51, 77
15, 243774, Note_off_c, 14, 51, 0
15, 243782, Note_on_c, 14, 51, 76
15, 244012, Note_off_c, 14, 69, 0
15, 244012, Note_off_c, 14, 51, 0
15, 244014, Note_on_c, 14, 72, 93
15, 244023, Note_on_c, 14, 51, 81
15, 244268, Note_off_c, 14, 51, 0
15, 244274, Note_on_c, 14, 51, 76
15, 244506, Note_off_c, 14, 72, 0
15, 244506, Note_off_c, 14, 51, 0
15, 244506, Note_on_c, 14, 70, 89
15, 244515, Note_on_c, 14, 51, 77
15, 244742, Note_off_c, 14, 51, 0
15, 244751, Note_on_c, 14, 51, 76
15, 244981, Note_off_c, 14, 70, 0
15, 244981, Note_off_c, 14, 51, 0
15, 244982, Note_on_c, 14, 69, 91
15, 244984, Note_on_c, 14, 51, 79
15, 245221, Note_off_c, 14, 51, 0
15, 245226, Note_on_c, 14, 51, 76
15, 245457, Note_off_c, 14, 69, 0
15, 245457, Note_off_c, 14, 51, 0
15, 245458, Note_on_c, 14, 67, 89
15, 245467, Note_on_c, 14, 51, 77
15, 245694, Note_off_c, 14, 51, 0
15, 245694, Note_on_c, 14, 51, 76
15, 245932, Note_off_c, 14, 67, 0
15, 245932, Note_off_c, 14, 51, 0
15, 245941, Note_on_c, 14, 48, 81
15, 246188, Note_off_c, 14, 48, 0
15, 246199, Note_on_c, 14, 48, 76
15, 246426, Note_off_c, 14, 48, 0
15, 246432, Note_on_c, 14, 48, 77
15, 246662, Note_off_c, 14, 48, 0
15, 246670, Note_on_c, 14, 48, 76
15, 246901, Note_off_c, 14, 48, 0
15, 246915, Note_on_c, 14, 48, 79
15, 247141, Note_off_c, 14, 48, 0
15, 247149, Note_on_c, 14, 48, 76
15, 247377, Note_off_c, 14, 48, 0
15, 247388, Note_on_c, 14, 48, 77
15, 247614, Note_off_c, 14, 48, 0
15, 247614, Note_on_c, 14, 48, 76
15, 247852, Note_off_c, 14, 48, 0
15, 247861, Note_on_c, 14, 41, 81
15, 248108, Note_off_c, 14, 41, 0
15, 248118, Note_on_c, 14, 41, 76
15, 248346, Note_off_c, 14, 41, 0
15, 248357, Note_on_c, 14, 41, 77
15, 248582, Note_off_c, 14, 41, 0
15, 248585, Note_on_c, 14, 41, 76
15, 248821, Note_off_c, 14, 41, 0
15, 248832, Note_on_c, 14, 41, 79
15, 249061, Note_off_c, 14, 41, 0
15, 249069, Note_on_c, 14, 41, 76
15, 249297, Note_off_c, 14, 41, 0
15, 249308, Note_on_c, 14, 41, 77
15, 249534, Note_off_c, 14, 41, 0
15, 249534, Note_on_c, 14, 41, 76
15, 249772, Note_off_c, 14, 41, 0
15, 249777, Note_on_c, 14, 43, 81
15, 250028, Note_off_c, 14, 43, 0
15, 250039, Note_on_c, 14, 43, 76
15, 250266, Note_off_c, 14, 43, 0
15, 250275, Note_on_c, 14, 43, 77
15, 250502, Note_off_c, 14, 43, 0
15, 250504, Note_on_c, 14, 43, 76
15, 250741, Note_off_c, 14, 43, 0
15, 250742, Note_on_c, 14, 79, 91
15, 250756, Note_on_c, 14, 43, 79
15, 250865, Note_off_c, 14, 79, 0
15, 250865, Note_on_c, 14, 74, 88
15, 250981, Note_off_c, 14, 43, 0
15, 250981, Note_off_c, 14, 74, 0
15, 250981, Note_on_c, 14, 79, 88
15, 250987, Note_on_c, 14, 43, 76
15, 251097, Note_off_c, 14, 79, 0
15, 251108, Note_on_c, 14, 83, 88
15, 251217, Note_off_c, 14, 43, 0
15, 251217, Note_off_c, 14, 83, 0
15, 251218, Note_on_c, 14, 83, 89
15, 251231, Note_on_c, 14, 43, 77
15, 251338, Note_off_c, 14, 83, 0
15, 251338, Note_on_c, 14, 79, 88
15, 251454, Note_off_c, 14, 43, 0
15, 251454, Note_off_c, 14, 79, 0
15, 251454, Note_on_c, 14, 83, 88
15, 251467, Note_on_c, 14, 43, 76
15, 251570, Note_off_c, 14, 83, 0
15, 251583, Note_on_c, 14, 91, 88
15, 251692, Note_off_c, 14, 43, 0
15, 251692, Note_off_c, 14, 91, 0
15, 251694, Note_on_c, 14, 91, 93
15, 251697, Note_on_c, 14, 43, 81
15, 251831, Note_off_c, 14, 91, 0
15, 251831, Note_on_c, 14, 86, 88
15, 251948, Note_off_c, 14, 43, 0
15, 251948, Note_off_c, 14, 86, 0
15, 251948, Note_on_c, 14, 83, 88
15, 251956, Note_on_c, 14, 43, 76
15, 252064, Note_off_c, 14, 83, 0
15, 252065, Note_on_c, 14, 79, 88
15, 252186, Note_off_c, 14, 43, 0
15, 252186, Note_off_c, 14, 79, 0
15, 252196, Note_on_c, 14, 43, 77
15, 252422, Note_off_c, 14, 43, 0
15, 252423, Note_on_c, 14, 43, 76
15, 252661, Note_off_c, 14, 43, 0
15, 252665, Note_on_c, 14, 41, 79
15, 252901, Note_off_c, 14, 41, 0
15, 252901, Note_on_c, 14, 41, 76
15, 253137, Note_off_c, 14, 41, 0
15, 253142, Note_on_c, 14, 41, 77
15, 253374, Note_off_c, 14, 41, 0
15, 253374, Note_on_c, 14, 41, 76
15, 253612, Note_off_c, 14, 41, 0
15, 253625, Note_on_c, 14, 43, 81
15, 253868, Note_off_c, 14, 43, 0
15, 253878, Note_on_c, 14, 43, 76
15, 254106, Note_off_c, 14, 43, 0
15, 254108, Note_on_c, 14, 43, 77
15, 254342, Note_off_c, 14, 43, 0
15, 254355, Note_on_c, 14, 43, 76
15, 254581, Note_off_c, 14, 43, 0
15, 254582, Note_on_c, 14, 79, 91
15, 254594, Note_on_c, 14, 43, 79
15, 254705, Note_on_c, 14, 74, 88
15, 254705, Note_off_c, 14, 79, 0
15, 254821, Note_off_c, 14, 43, 0
15, 254821, Note_off_c, 14, 74, 0
15, 254821, Note_on_c, 14, 79, 88
15, 254825, Note_on_c, 14, 43, 76
15, 254937, Note_off_c, 14, 79, 0
15, 254949, Note_on_c, 14, 83, 88
15, 255057, Note_off_c, 14, 43, 0
15, 255057, Note_off_c, 14, 83, 0
15, 255058, Note_on_c, 14, 83, 89
15, 255066, Note_on_c, 14, 43, 77
15, 255178, Note_off_c, 14, 83, 0
15, 255178, Note_on_c, 14, 79, 88
15, 255294, Note_off_c, 14, 43, 0
15, 255294, Note_on_c, 14, 83, 88
15, 255294, Note_off_c, 14, 79, 0
15, 255299, Note_on_c, 14, 43, 76
15, 255410, Note_off_c, 14, 83, 0
15, 255422, Note_on_c, 14, 91, 88
15, 255532, Note_off_c, 14, 43, 0
15, 255532, Note_off_c, 14, 91, 0
15, 255534, Note_on_c, 14, 91, 93
15, 255540, Note_on_c, 14, 43, 81
15, 255671, Note_off_c, 14, 91, 0
15, 255671, Note_on_c, 14, 86, 88
15, 255788, Note_off_c, 14, 43, 0
15, 255788, Note_off_c, 14, 86, 0
15, 255788, Note_on_c, 14, 83, 88
15, 255802, Note_on_c, 14, 43, 76
15, 255904, Note_off_c, 14, 83, 0
15, 255905, Note_on_c, 14, 79, 88
15, 256026, Note_off_c, 14, 43, 0
15, 256026, Note_off_c, 14, 79, 0
15, 256031, Note_on_c, 14, 43, 77
15, 256262, Note_off_c, 14, 43, 0
15, 256263, Note_on_c, 14, 43, 76
15, 256501, Note_off_c, 14, 43, 0
15, 256502, Note_on_c, 14, 69, 91
15, 256507, Note_on_c, 14, 72, 91
15, 256510, Note_on_c, 14, 41, 79
15, 256741, Note_off_c, 14, 41, 0
15, 256742, Note_on_c, 14, 41, 76
15, 256977, Note_off_c, 14, 41, 0
15, 256988, Note_on_c, 14, 41, 77
15, 257214, Note_off_c, 14, 41, 0
15, 257214, Note_on_c, 14, 41, 76
15, 257452, Note_off_c, 14, 69, 0
15, 257452, Note_off_c, 14, 72, 0
15, 257452, Note_off_c, 14, 41, 0
15, 257454, Note_on_c, 14, 71, 127
15, 257454, Note_on_c, 14, 74, 127
15, 257455, Note_on_c, 14, 79, 127
15, 257466, Note_on_c, 14, 47, 81
15, 257708, Note_off_c, 14, 47, 0
15, 257708, Note_on_c, 14, 47, 88
15, 257824, Note_off_c, 14, 47, 0
15, 257825, Note_on_c, 14, 48, 88
15, 257946, Note_off_c, 14, 71, 0
15, 257946, Note_off_c, 14, 74, 0
15, 257946, Note_off_c, 14, 79, 0
15, 257946, Note_off_c, 14, 48, 0
15, 257946, Note_on_c, 14, 50, 89
15, 258067, Note_off_c, 14, 50, 0
15, 258067, Note_on_c, 14, 52, 88
15, 258182, Note_off_c, 14, 52, 0
15, 258183, Note_on_c, 14, 53, 88
15, 258299, Note_off_c, 14, 53, 0
15, 258299, Note_on_c, 14, 55, 88
15, 258421, Note_off_c, 14, 55, 0
15, 258422, Note_on_c, 14, 57, 91
15, 258545, Note_off_c, 14, 57, 0
15, 258545, Note_on_c, 14, 54, 88
15, 258661, Note_off_c, 14, 54, 0
15, 258661, Note_on_c, 14, 55, 88
15, 258777, Note_off_c, 14, 55, 0
15, 258777, Note_on_c, 14, 57, 88
15, 258897, Note_off_c, 14, 57, 0
15, 258898, Note_on_c, 14, 59, 89
15, 259018, Note_off_c, 14, 59, 0
15, 259018, Note_on_c, 14, 60, 88
15, 259134, Note_off_c, 14, 60, 0
15, 259134, Note_on_c, 14, 62, 88
15, 259250, Note_off_c, 14, 62, 0
15, 259251, Note_on_c, 14, 64, 88
15, 259372, Note_off_c, 14, 64, 0
15, 259374, Note_on_c, 14, 65, 88
15, 259376, Note_on_c, 14, 72, 88
15, 259380, Note_on_c, 14, 53, 88
15, 260817, Note_off_c, 14, 72, 0
15, 260817, Note_off_c, 14, 53, 0
15, 260817, Note_off_c, 14, 65, 0
15, 260820, Note_on_c, 14, 53, 99
15, 260821, Note_on_c, 14, 72, 99
15, 260825, Note_on_c, 14, 77, 99
15, 260831, Note_on_c, 14, 48, 99
15, 260977, Note_off_c, 14, 53, 0
15, 260977, Note_off_c, 14, 72, 0
15, 260977, Note_off_c, 14, 77, 0
15, 260977, Note_off_c, 14, 48, 0
15, 260979, Note_on_c, 14, 53, 98
15, 260982, Note_on_c, 14, 77, 98
15, 260987, Note_on_c, 14, 72, 98
15, 260990, Note_on_c, 14, 48, 98
15, 261131, Note_off_c, 14, 48, 0
15, 261131, Note_off_c, 14, 53, 0
15, 261131, Note_off_c, 14, 77, 0
15, 261131, Note_off_c, 14, 72, 0
15, 261132, Note_on_c, 14, 48, 98
15, 261132, Note_on_c, 14, 72, 98
15, 261138, Note_on_c, 14, 77, 98
15, 261144, Note_on_c, 14, 53, 98
15, 261292, Note_off_c, 14, 48, 0
15, 261292, Note_off_c, 14, 72, 0
15, 261292, Note_off_c, 14, 77, 0
15, 261292, Note_off_c, 14, 53, 0
15, 261294, Note_on_c, 14, 50, 93
15, 261294, Note_on_c, 14, 74, 93
15, 261300, Note_on_c, 14, 79, 93
15, 261304, Note_on_c, 14, 55, 93
15, 261786, Note_off_c, 14, 50, 0
15, 261786, Note_off_c, 14, 74, 0
15, 261786, Note_off_c, 14, 55, 0
15, 261786, Note_off_c, 14, 79, 0
15, 261796, Note_on_c, 14, 67, 99
15, 261800, Note_on_c, 14, 43, 99
15, 261946, Note_off_c, 14, 67, 0
15, 261946, Note_off_c, 14, 43, 0
15, 261955, Note_on_c, 14, 67, 98
15, 261958, Note_on_c, 14, 43, 98
15, 262100, Note_off_c, 14, 67, 0
15, 262100, Note_off_c, 14, 43, 0
15, 262101, Note_on_c, 14, 67, 98
15, 262104, Note_on_c, 14, 43, 98
15, 262261, Note_off_c, 14, 67, 0
15, 262261, Note_off_c, 14, 43, 0
15, 262262, Note_on_c, 14, 43, 113
15, 262262, Note_on_c, 14, 67, 113
15, 262737, Note_off_c, 14, 43, 0
15, 262737, Note_off_c, 14, 67, 0
15, 262737, End_track
16, 0, Start_track
16, 0, Title_t, "Glockenspiel 2"
16, 0, Instrument_name_t, "Glockenspiel 2"
16, 0, Program_c, 15, 0
16, 263557, Note_on_c, 15, 67, 80
16, 263708, Note_off_c, 15, 67, 0
16, 263717, Note_on_c, 15, 69, 80
16, 263868, Note_off_c, 15, 69, 0
16, 263877, Note_on_c, 15, 71, 80
16, 264028, Note_off_c, 15, 71, 0
16, 264037, Note_on_c, 15, 72, 80
16, 264188, Note_off_c, 15, 72, 0
16, 264197, Note_on_c, 15, 74, 80
16, 264348, Note_off_c, 15, 74, 0
16, 264357, Note_on_c, 15, 75, 80
16, 264508, Note_off_c, 15, 75, 0
16, 264517, Note_on_c, 15, 76, 80
16, 264517, Note_on_c, 15, 64, 80
16, 264517, Note_on_c, 15, 72, 80
16, 264517, Note_on_c, 15, 67, 80
16, 265428, Note_off_c, 15, 64, 0
16, 265428, Note_off_c, 15, 72, 0
16, 265428, Note_off_c, 15, 67, 0
16, 265428, Note_off_c, 15, 76, 0
16, 265477, Note_on_c, 15, 64, 80
16, 265477, Note_on_c, 15, 67, 80
16, 265477, Note_on_c, 15, 72, 80
16, 265477, Note_on_c, 15, 76, 80
16, 266388, Note_off_c, 15, 64, 0
16, 266388, Note_off_c, 15, 67, 0
16, 266388, Note_off_c, 15, 72, 0
16, 266388, Note_off_c, 15, 76, 0
16, 266437, Note_on_c, 15, 67, 80
16, 266437, Note_on_c, 15, 72, 80
16, 266437, Note_on_c, 15, 64, 80
16, 266437, Note_on_c, 15, 60, 80
16, 267348, Note_off_c, 15, 67, 0
16, 267348, Note_off_c, 15, 60, 0
16, 267348, Note_off_c, 15, 72, 0
16, 267348, Note_off_c, 15, 64, 0
16, 267397, Note_on_c, 15, 69, 80
16, 267397, Note_on_c, 15, 81, 80
16, 267397, Note_on_c, 15, 76, 80
16, 267397, Note_on_c, 15, 72, 80
16, 268308, Note_off_c, 15, 81, 0
16, 268308, Note_off_c, 15, 76, 0
16, 268308, Note_off_c, 15, 69, 0
16, 268308, Note_off_c, 15, 72, 0
16, 268357, Note_on_c, 15, 67, 80
16, 268357, Note_on_c, 15, 70, 80
16, 268357, Note_on_c, 15, 75, 80
16, 268357, Note_on_c, 15, 79, 80
16, 269268, Note_off_c, 15, 67, 0
16, 269268, Note_off_c, 15, 70, 0
16, 269268, Note_off_c, 15, 75, 0
16, 269268, Note_off_c, 15, 79, 0
16, 269317, Note_on_c, 15, 70, 80
16, 269317, Note_on_c, 15, 75, 80
16, 269317, Note_on_c, 15, 67, 80
16, 269317, Note_on_c, 15, 63, 80
16, 270228, Note_off_c, 15, 67, 0
16, 270228, Note_off_c, 15, 70, 0
16, 270228, Note_off_c, 15, 75, 0
16, 270228, Note_off_c, 15, 63, 0
16, 270277, Note_on_c, 15, 67, 80
16, 270277, Note_on_c, 15, 70, 80
16, 270277, Note_on_c, 15, 75, 80
16, 270277, Note_on_c, 15, 79, 80
16, 271188, Note_off_c, 15, 67, 0
16, 271188, Note_off_c, 15, 70, 0
16, 271188, Note_off_c, 15, 79, 0
16, 271188, Note_off_c, 15, 75, 0
16, 271237, Note_on_c, 15, 72, 80
16, 271237, Note_on_c, 15, 84, 80
16, 271237, Note_on_c, 15, 79, 80
16, 271237, Note_on_c, 15, 75, 80
16, 272148, Note_off_c, 15, 75, 0
16, 272148, Note_off_c, 15, 72, 0
16, 272148, Note_off_c, 15, 84, 0
16, 272148, Note_off_c, 15, 79, 0
16, 272197, Note_on_c, 15, 72, 80
16, 272197, Note_on_c, 15, 76, 80
16, 272197, Note_on_c, 15, 79, 80
16, 272197, Note_on_c, 15, 67, 80
16, 273108, Note_off_c, 15, 72, 0
16, 273108, Note_off_c, 15, 76, 0
16, 273108, Note_off_c, 15, 79, 0
16, 273108, Note_off_c, 15, 67, 0
16, 273157, Note_on_c, 15, 64, 80
16, 273157, Note_on_c, 15, 67, 80
16, 273157, Note_on_c, 15, 72, 80
16, 273157, Note_on_c, 15, 76, 80
16, 274068, Note_off_c, 15, 64, 0
16, 274068, Note_off_c, 15, 67, 0
16, 274068, Note_off_c, 15, 72, 0
16, 274068, Note_off_c, 15, 76, 0
16, 274117, Note_on_c, 15, 60, 80
16, 274117, Note_on_c, 15, 64, 80
16, 274117, Note_on_c, 15, 67, 80
16, 274117, Note_on_c, 15, 72, 80
16, 275028, Note_off_c, 15, 60, 0
16, 275028, Note_off_c, 15, 64, 0
16, 275028, Note_off_c, 15, 67, 0
16, 275028, Note_off_c, 15, 72, 0
16, 275077, Note_on_c, 15, 57, 80
16, 275077, Note_on_c, 15, 69, 80
16, 275352, Note_off_c, 15, 57, 0
16, 275352, Note_off_c, 15, 69, 0
16, 275365, Note_on_c, 15, 59, 80
16, 275365, Note_on_c, 15, 71, 80
16, 275546, Note_off_c, 15, 59, 0
16, 275546, Note_off_c, 15, 71, 0
16, 275557, Note_on_c, 15, 60, 80
16, 275557, Note_on_c, 15, 72, 80
16, 275832, Note_off_c, 15, 60, 0
16, 275832, Note_off_c, 15, 72, 0
16, 275845, Note_on_c, 15, 62, 80
16, 275845, Note_on_c, 15, 74, 80
16, 276026, Note_off_c, 15, 74, 0
16, 276026, Note_off_c, 15, 62, 0
16, 276037, Note_on_c, 15, 76, 80
16, 276037, Note_on_c, 15, 72, 80
16, 276037, Note_on_c, 15, 66, 80
16, 276312, Note_off_c, 15, 76, 0
16, 276312, Note_off_c, 15, 72, 0
16, 276312, Note_off_c, 15, 66, 0
16, 276325, Note_on_c, 15, 72, 80
16, 276325, Note_on_c, 15, 66, 80
16, 276325, Note_on_c, 15, 76, 80
16, 276506, Note_off_c, 15, 72, 0
16, 276506, Note_off_c, 15, 66, 0
16, 276506, Note_off_c, 15, 76, 0
16, 276805, Note_on_c, 15, 76, 80
16, 276805, Note_on_c, 15, 72, 80
16, 276805, Note_on_c, 15, 66, 80
16, 276986, Note_off_c, 15, 72, 0
16, 276986, Note_off_c, 15, 66, 0
16, 276986, Note_off_c, 15, 76, 0
16, 277285, Note_on_c, 15, 66, 80
16, 277285, Note_on_c, 15, 72, 80
16, 277466, Note_off_c, 15, 66, 0
16, 277466, Note_off_c, 15, 72, 0
16, 277477, Note_on_c, 15, 76, 80
16, 277477, Note_on_c, 15, 72, 80
16, 277477, Note_on_c, 15, 66, 80
16, 277752, Note_off_c, 15, 76, 0
16, 277752, Note_off_c, 15, 72, 0
16, 277752, Note_off_c, 15, 66, 0
16, 277957, Note_on_c, 15, 79, 80
16, 277957, Note_on_c, 15, 71, 80
16, 277957, Note_on_c, 15, 67, 80
16, 277957, Note_on_c, 15, 74, 80
16, 278868, Note_off_c, 15, 71, 0
16, 278868, Note_off_c, 15, 74, 0
16, 278868, Note_off_c, 15, 79, 0
16, 278868, Note_off_c, 15, 67, 0
16, 278917, Note_on_c, 15, 62, 80
16, 278917, Note_on_c, 15, 67, 80
16, 279372, Note_off_c, 15, 62, 0
16, 279372, Note_off_c, 15, 67, 0
16, 280644, Note_on_c, 15, 64, 80
16, 280644, Note_on_c, 15, 67, 80
16, 280644, Note_on_c, 15, 70, 80
16, 280644, Note_on_c, 15, 72, 80
16, 281281, Note_off_c, 15, 64, 0
16, 281281, Note_off_c, 15, 67, 0
16, 281281, Note_off_c, 15, 70, 0
16, 281281, Note_off_c, 15, 72, 0
16, 281317, Note_on_c, 15, 64, 80
16, 281317, Note_on_c, 15, 67, 80
16, 281317, Note_on_c, 15, 70, 80
16, 281317, Note_on_c, 15, 72, 80
16, 281556, Note_off_c, 15, 64, 0
16, 281556, Note_off_c, 15, 67, 0
16, 281556, Note_off_c, 15, 70, 0
16, 281556, Note_off_c, 15, 72, 0
16, 282564, Note_on_c, 15, 72, 80
16, 282564, Note_on_c, 15, 69, 80
16, 282564, Note_on_c, 15, 63, 80
16, 282564, Note_on_c, 15, 65, 80
16, 283201, Note_off_c, 15, 65, 0
16, 283201, Note_off_c, 15, 69, 0
16, 283201, Note_off_c, 15, 63, 0
16, 283201, Note_off_c, 15, 72, 0
16, 283237, Note_on_c, 15, 72, 80
16, 283237, Note_on_c, 15, 63, 80
16, 283237, Note_on_c, 15, 65, 80
16, 283237, Note_on_c, 15, 69, 80
16, 283476, Note_off_c, 15, 63, 0
16, 283476, Note_off_c, 15, 65, 0
16, 283476, Note_off_c, 15, 69, 0
16, 283476, Note_off_c, 15, 72, 0
16, 284004, Note_on_c, 15, 72, 80
16, 284004, Note_on_c, 15, 64, 80
16, 284004, Note_on_c, 15, 67, 80
16, 284004, Note_on_c, 15, 70, 80
16, 284641, Note_off_c, 15, 64, 0
16, 284641, Note_off_c, 15, 67, 0
16, 284641, Note_off_c, 15, 70, 0
16, 284641, Note_off_c, 15, 72, 0
16, 284677, Note_on_c, 15, 72, 80
16, 284677, Note_on_c, 15, 64, 80
16, 284677, Note_on_c, 15, 67, 80
16, 284916, Note_off_c, 15, 72, 0
16, 284916, Note_off_c, 15, 64, 0
16, 284916, Note_off_c, 15, 67, 0
16, 285157, Note_on_c, 15, 64, 80
16, 285157, Note_on_c, 15, 67, 80
16, 285157, Note_on_c, 15, 72, 80
16, 285396, Note_off_c, 15, 64, 0
16, 285396, Note_off_c, 15, 67, 0
16, 285396, Note_off_c, 15, 72, 0
16, 286117, Note_on_c, 15, 76, 80
16, 286268, Note_off_c, 15, 76, 0
16, 286277, Note_on_c, 15, 77, 80
16, 286428, Note_off_c, 15, 77, 0
16, 286437, Note_on_c, 15, 78, 80
16, 286588, Note_off_c, 15, 78, 0
16, 286597, Note_on_c, 15, 79, 80
16, 286872, Note_off_c, 15, 79, 0
16, 286885, Note_on_c, 15, 76, 80
16, 287066, Note_off_c, 15, 76, 0
16, 287077, Note_on_c, 15, 72, 80
16, 287352, Note_off_c, 15, 72, 0
16, 287365, Note_on_c, 15, 67, 80
16, 287546, Note_off_c, 15, 67, 0
16, 287557, Note_on_c, 15, 65, 80
16, 287557, Note_on_c, 15, 69, 80
16, 287557, Note_on_c, 15, 72, 80
16, 287796, Note_off_c, 15, 65, 0
16, 287796, Note_off_c, 15, 69, 0
16, 287796, Note_off_c, 15, 72, 0
16, 288037, Note_on_c, 15, 65, 80
16, 288037, Note_on_c, 15, 69, 80
16, 288037, Note_on_c, 15, 72, 80
16, 288948, Note_off_c, 15, 65, 0
16, 288948, Note_off_c, 15, 69, 0
16, 288948, Note_off_c, 15, 72, 0
16, 288997, Note_on_c, 15, 72, 80
16, 288997, Note_on_c, 15, 65, 80
16, 288997, Note_on_c, 15, 69, 80
16, 289452, Note_off_c, 15, 72, 0
16, 289452, Note_off_c, 15, 65, 0
16, 289452, Note_off_c, 15, 69, 0
16, 289764, Note_on_c, 15, 65, 80
16, 289764, Note_on_c, 15, 69, 80
16, 289764, Note_on_c, 15, 72, 80
16, 290401, Note_off_c, 15, 65, 0
16, 290401, Note_off_c, 15, 69, 0
16, 290401, Note_off_c, 15, 72, 0
16, 290437, Note_on_c, 15, 65, 80
16, 290437, Note_on_c, 15, 69, 80
16, 290437, Note_on_c, 15, 72, 80
16, 290676, Note_off_c, 15, 65, 0
16, 290676, Note_off_c, 15, 69, 0
16, 290676, Note_off_c, 15, 72, 0
16, 290917, Note_on_c, 15, 65, 80
16, 290917, Note_on_c, 15, 69, 80
16, 290917, Note_on_c, 15, 72, 80
16, 291156, Note_off_c, 15, 72, 0
16, 291156, Note_off_c, 15, 65, 0
16, 291156, Note_off_c, 15, 69, 0
16, 291684, Note_on_c, 15, 67, 80
16, 291684, Note_on_c, 15, 72, 80
16, 291684, Note_on_c, 15, 76, 80
16, 292321, Note_off_c, 15, 67, 0
16, 292321, Note_off_c, 15, 72, 0
16, 292321, Note_off_c, 15, 76, 0
16, 292644, Note_on_c, 15, 64, 80
16, 292644, Note_on_c, 15, 69, 80
16, 292644, Note_on_c, 15, 72, 80
16, 293281, Note_off_c, 15, 64, 0
16, 293281, Note_off_c, 15, 69, 0
16, 293281, Note_off_c, 15, 72, 0
16, 293604, Note_on_c, 15, 74, 80
16, 293604, Note_on_c, 15, 65, 80
16, 293604, Note_on_c, 15, 69, 80
16, 294241, Note_off_c, 15, 74, 0
16, 294241, Note_off_c, 15, 69, 0
16, 294241, Note_off_c, 15, 65, 0
16, 294564, Note_on_c, 15, 67, 80
16, 294564, Note_on_c, 15, 71, 80
16, 294564, Note_on_c, 15, 74, 80
16, 294564, Note_on_c, 15, 79, 80
16, 295201, Note_off_c, 15, 67, 0
16, 295201, Note_off_c, 15, 71, 0
16, 295201, Note_off_c, 15, 74, 0
16, 295201, Note_off_c, 15, 79, 0
16, 296004, Note_on_c, 15, 64, 80
16, 296004, Note_on_c, 15, 67, 80
16, 296004, Note_on_c, 15, 70, 80
16, 296004, Note_on_c, 15, 72, 80
16, 296641, Note_off_c, 15, 72, 0
16, 296641, Note_off_c, 15, 67, 0
16, 296641, Note_off_c, 15, 70, 0
16, 296641, Note_off_c, 15, 64, 0
16, 296677, Note_on_c, 15, 67, 80
16, 296677, Note_on_c, 15, 70, 80
16, 296677, Note_on_c, 15, 72, 80
16, 296677, Note_on_c, 15, 64, 80
16, 296916, Note_off_c, 15, 64, 0
16, 296916, Note_off_c, 15, 67, 0
16, 296916, Note_off_c, 15, 70, 0
16, 296916, Note_off_c, 15, 72, 0
16, 297924, Note_on_c, 15, 63, 80
16, 297924, Note_on_c, 15, 65, 80
16, 297924, Note_on_c, 15, 69, 80
16, 297924, Note_on_c, 15, 72, 80
16, 298561, Note_off_c, 15, 63, 0
16, 298561, Note_off_c, 15, 65, 0
16, 298561, Note_off_c, 15, 69, 0
16, 298561, Note_off_c, 15, 72, 0
16, 298597, Note_on_c, 15, 63, 80
16, 298597, Note_on_c, 15, 65, 80
16, 298597, Note_on_c, 15, 69, 80
16, 298597, Note_on_c, 15, 72, 80
16, 298836, Note_off_c, 15, 63, 0
16, 298836, Note_off_c, 15, 65, 0
16, 298836, Note_off_c, 15, 69, 0
16, 298836, Note_off_c, 15, 72, 0
16, 299364, Note_on_c, 15, 72, 80
16, 299364, Note_on_c, 15, 67, 80
16, 299364, Note_on_c, 15, 70, 80
16, 299364, Note_on_c, 15, 64, 80
16, 300001, Note_off_c, 15, 64, 0
16, 300001, Note_off_c, 15, 70, 0
16, 300001, Note_off_c, 15, 67, 0
16, 300001, Note_off_c, 15, 72, 0
16, 300037, Note_on_c, 15, 64, 80
16, 300037, Note_on_c, 15, 67, 80
16, 300037, Note_on_c, 15, 72, 80
16, 300276, Note_off_c, 15, 64, 0
16, 300276, Note_off_c, 15, 67, 0
16, 300276, Note_off_c, 15, 72, 0
16, 300517, Note_on_c, 15, 64, 80
16, 300517, Note_on_c, 15, 67, 80
16, 300517, Note_on_c, 15, 72, 80
16, 300756, Note_off_c, 15, 64, 0
16, 300756, Note_off_c, 15, 67, 0
16, 300756, Note_off_c, 15, 72, 0
16, 301284, Note_on_c, 15, 64, 80
16, 301284, Note_on_c, 15, 76, 80
16, 301284, Note_on_c, 15, 69, 80
16, 301284, Note_on_c, 15, 73, 80
16, 301921, Note_off_c, 15, 73, 0
16, 301921, Note_off_c, 15, 64, 0
16, 301921, Note_off_c, 15, 76, 0
16, 301921, Note_off_c, 15, 69, 0
16, 301957, Note_on_c, 15, 64, 80
16, 301957, Note_on_c, 15, 69, 80
16, 301957, Note_on_c, 15, 73, 80
16, 301957, Note_on_c, 15, 76, 80
16, 302196, Note_off_c, 15, 64, 0
16, 302196, Note_off_c, 15, 69, 0
16, 302196, Note_off_c, 15, 73, 0
16, 302196, Note_off_c, 15, 76, 0
16, 302437, Note_on_c, 15, 64, 80
16, 302437, Note_on_c, 15, 69, 80
16, 302437, Note_on_c, 15, 73, 80
16, 302437, Note_on_c, 15, 76, 80
16, 302676, Note_off_c, 15, 76, 0
16, 302676, Note_off_c, 15, 64, 0
16, 302676, Note_off_c, 15, 69, 0
16, 302676, Note_off_c, 15, 73, 0
16, 302917, Note_on_c, 15, 69, 80
16, 302917, Note_on_c, 15, 74, 80
16, 302917, Note_on_c, 15, 65, 80
16, 303156, Note_off_c, 15, 69, 0
16, 303156, Note_off_c, 15, 65, 0
16, 303156, Note_off_c, 15, 74, 0
16, 303397, Note_on_c, 15, 69, 80
16, 303397, Note_on_c, 15, 74, 80
16, 303397, Note_on_c, 15, 65, 80
16, 304308, Note_off_c, 15, 65, 0
16, 304308, Note_off_c, 15, 69, 0
16, 304308, Note_off_c, 15, 74, 0
16, 304357, Note_on_c, 15, 65, 80
16, 304357, Note_on_c, 15, 69, 80
16, 304357, Note_on_c, 15, 74, 80
16, 304812, Note_off_c, 15, 65, 0
16, 304812, Note_off_c, 15, 69, 0
16, 304812, Note_off_c, 15, 74, 0
16, 304837, Note_on_c, 15, 62, 80
16, 304837, Note_on_c, 15, 65, 80
16, 304837, Note_on_c, 15, 67, 80
16, 304837, Note_on_c, 15, 71, 80
16, 305076, Note_off_c, 15, 62, 0
16, 305076, Note_off_c, 15, 65, 0
16, 305076, Note_off_c, 15, 67, 0
16, 305076, Note_off_c, 15, 71, 0
16, 305317, Note_on_c, 15, 65, 80
16, 305317, Note_on_c, 15, 67, 80
16, 305317, Note_on_c, 15, 71, 80
16, 305317, Note_on_c, 15, 62, 80
16, 306228, Note_off_c, 15, 67, 0
16, 306228, Note_off_c, 15, 71, 0
16, 306228, Note_off_c, 15, 65, 0
16, 306228, Note_off_c, 15, 62, 0
16, 306277, Note_on_c, 15, 62, 80
16, 306277, Note_on_c, 15, 65, 80
16, 306277, Note_on_c, 15, 67, 80
16, 306277, Note_on_c, 15, 71, 80
16, 306732, Note_off_c, 15, 62, 0
16, 306732, Note_off_c, 15, 65, 0
16, 306732, Note_off_c, 15, 67, 0
16, 306732, Note_off_c, 15, 71, 0
16, 306757, Note_on_c, 15, 64, 80
16, 306757, Note_on_c, 15, 72, 80
16, 306757, Note_on_c, 15, 67, 80
16, 307032, Note_off_c, 15, 72, 0
16, 307032, Note_off_c, 15, 67, 0
16, 307032, Note_off_c, 15, 64, 0
16, 307045, Note_on_c, 15, 64, 80
16, 307045, Note_on_c, 15, 76, 80
16, 307226, Note_off_c, 15, 64, 0
16, 307226, Note_off_c, 15, 76, 0
16, 307717, Note_on_c, 15, 64, 80
16, 307717, Note_on_c, 15, 76, 80
16, 308172, Note_off_c, 15, 64, 0
16, 308172, Note_off_c, 15, 76, 0
16, 308197, Note_on_c, 15, 65, 80
16, 308197, Note_on_c, 15, 77, 80
16, 308472, Note_off_c, 15, 65, 0
16, 308472, Note_off_c, 15, 77, 0
16, 308485, Note_on_c, 15, 66, 80
16, 308485, Note_on_c, 15, 78, 80
16, 308666, Note_off_c, 15, 78, 0
16, 308666, Note_off_c, 15, 66, 0
16, 308677, Note_on_c, 15, 67, 80
16, 308677, Note_on_c, 15, 79, 80
16, 308952, Note_off_c, 15, 67, 0
16, 308952, Note_off_c, 15, 79, 0
16, 308965, Note_on_c, 15, 66, 80
16, 308965, Note_on_c, 15, 78, 80
16, 309146, Note_off_c, 15, 66, 0
16, 309146, Note_off_c, 15, 78, 0
16, 309157, Note_on_c, 15, 67, 80
16, 309157, Note_on_c, 15, 79, 80
16, 309432, Note_off_c, 15, 67, 0
16, 309432, Note_off_c, 15, 79, 0
16, 309445, Note_on_c, 15, 82, 80
16, 309445, Note_on_c, 15, 70, 80
16, 310356, Note_off_c, 15, 70, 0
16, 310356, Note_off_c, 15, 82, 0
16, 312302, Note_on_c, 15, 71, 80
16, 312302, Note_on_c, 15, 74, 80
16, 312302, Note_on_c, 15, 79, 80
16, 312302, Note_on_c, 15, 67, 80
16, 312759, Note_off_c, 15, 67, 0
16, 312759, Note_off_c, 15, 71, 0
16, 312759, Note_off_c, 15, 74, 0
16, 312759, Note_off_c, 15, 79, 0
16, 312974, Note_on_c, 15, 59, 80
16, 312974, Note_on_c, 15, 62, 80
16, 312974, Note_on_c, 15, 67, 80
16, 312974, Note_on_c, 15, 71, 80
16, 313885, Note_off_c, 15, 59, 0
16, 313885, Note_off_c, 15, 62, 0
16, 313885, Note_off_c, 15, 71, 0
16, 313885, Note_off_c, 15, 67, 0
16, 313934, Note_on_c, 15, 67, 80
16, 313934, Note_on_c, 15, 55, 80
16, 314173, Note_off_c, 15, 67, 0
16, 314173, Note_off_c, 15, 55, 0
16, 314414, Note_on_c, 15, 67, 80
16, 314414, Note_on_c, 15, 64, 80
16, 314414, Note_on_c, 15, 60, 80
16, 314869, Note_off_c, 15, 67, 0
16, 314869, Note_off_c, 15, 64, 0
16, 314869, Note_off_c, 15, 60, 0
16, 314894, Note_on_c, 15, 64, 80
16, 314894, Note_on_c, 15, 60, 80
16, 315169, Note_off_c, 15, 64, 0
16, 315169, Note_off_c, 15, 60, 0
16, 315182, Note_on_c, 15, 60, 80
16, 315182, Note_on_c, 15, 63, 80
16, 315363, Note_off_c, 15, 60, 0
16, 315363, Note_off_c, 15, 63, 0
16, 315374, Note_on_c, 15, 60, 80
16, 315374, Note_on_c, 15, 64, 80
16, 315649, Note_off_c, 15, 60, 0
16, 315649, Note_off_c, 15, 64, 0
16, 315662, Note_on_c, 15, 60, 80
16, 315843, Note_off_c, 15, 60, 0
16, 315854, Note_on_c, 15, 60, 80
16, 315854, Note_on_c, 15, 64, 80
16, 316129, Note_off_c, 15, 60, 0
16, 316129, Note_off_c, 15, 64, 0
16, 316142, Note_on_c, 15, 62, 80
16, 316323, Note_off_c, 15, 62, 0
16, 316334, Note_on_c, 15, 52, 80
16, 316334, Note_on_c, 15, 57, 80
16, 316334, Note_on_c, 15, 61, 80
16, 316789, Note_off_c, 15, 52, 0
16, 316789, Note_off_c, 15, 57, 0
16, 316789, Note_off_c, 15, 61, 0
16, 316814, Note_on_c, 15, 52, 80
16, 316814, Note_on_c, 15, 57, 80
16, 316814, Note_on_c, 15, 61, 80
16, 317269, Note_off_c, 15, 52, 0
16, 317269, Note_off_c, 15, 57, 0
16, 317269, Note_off_c, 15, 61, 0
16, 317294, Note_on_c, 15, 52, 80
16, 317294, Note_on_c, 15, 57, 80
16, 317294, Note_on_c, 15, 62, 80
16, 317749, Note_off_c, 15, 52, 0
16, 317749, Note_off_c, 15, 57, 0
16, 317749, Note_off_c, 15, 62, 0
16, 317774, Note_on_c, 15, 64, 80
16, 317774, Note_on_c, 15, 52, 80
16, 317774, Note_on_c, 15, 57, 80
16, 317774, Note_on_c, 15, 61, 80
16, 318229, Note_off_c, 15, 64, 0
16, 318229, Note_off_c, 15, 52, 0
16, 318229, Note_off_c, 15, 57, 0
16, 318229, Note_off_c, 15, 61, 0
16, 322094, Note_on_c, 15, 55, 80
16, 322094, Note_on_c, 15, 67, 80
16, 322369, Note_off_c, 15, 55, 0
16, 322369, Note_off_c, 15, 67, 0
16, 322382, Note_on_c, 15, 54, 80
16, 322382, Note_on_c, 15, 66, 80
16, 322563, Note_off_c, 15, 66, 0
16, 322563, Note_off_c, 15, 54, 0
16, 322574, Note_on_c, 15, 67, 80
16, 322574, Note_on_c, 15, 55, 80
16, 322849, Note_off_c, 15, 55, 0
16, 322849, Note_off_c, 15, 67, 0
16, 322862, Note_on_c, 15, 57, 80
16, 322862, Note_on_c, 15, 69, 80
16, 323314, Note_off_c, 15, 57, 0
16, 323314, Note_off_c, 15, 69, 0
16, 323342, Note_on_c, 15, 68, 80
16, 323342, Note_on_c, 15, 56, 80
16, 323523, Note_off_c, 15, 56, 0
16, 323523, Note_off_c, 15, 68, 0
16, 323534, Note_on_c, 15, 57, 80
16, 323534, Note_on_c, 15, 69, 80
16, 323809, Note_off_c, 15, 57, 0
16, 323809, Note_off_c, 15, 69, 0
16, 323822, Note_on_c, 15, 70, 80
16, 323822, Note_on_c, 15, 58, 80
16, 324279, Note_off_c, 15, 58, 0
16, 324279, Note_off_c, 15, 70, 0
16, 324302, Note_on_c, 15, 57, 80
16, 324302, Note_on_c, 15, 69, 80
16, 324483, Note_off_c, 15, 69, 0
16, 324483, Note_off_c, 15, 57, 0
16, 324494, Note_on_c, 15, 58, 80
16, 324494, Note_on_c, 15, 70, 80
16, 324769, Note_off_c, 15, 58, 0
16, 324769, Note_off_c, 15, 70, 0
16, 324782, Note_on_c, 15, 59, 80
16, 324782, Note_on_c, 15, 71, 80
16, 325693, Note_off_c, 15, 59, 0
16, 325693, Note_off_c, 15, 71, 0
16, 326254, Note_on_c, 15, 74, 96
16, 326254, Note_on_c, 15, 67, 96
16, 326254, Note_on_c, 15, 79, 96
16, 326557, Note_off_c, 15, 67, 0
16, 326557, Note_off_c, 15, 74, 0
16, 326557, Note_off_c, 15, 79, 0
16, 326574, Note_on_c, 15, 74, 96
16, 326574, Note_on_c, 15, 67, 96
16, 326574, Note_on_c, 15, 79, 96
16, 326877, Note_off_c, 15, 67, 0
16, 326877, Note_off_c, 15, 74, 0
16, 326877, Note_off_c, 15, 79, 0
16, 326894, Note_on_c, 15, 67, 96
16, 326894, Note_on_c, 15, 74, 96
16, 326894, Note_on_c, 15, 79, 96
16, 327197, Note_off_c, 15, 79, 0
16, 327197, Note_off_c, 15, 67, 0
16, 327197, Note_off_c, 15, 74, 0
16, 327214, Note_on_c, 15, 75, 96
16, 327214, Note_on_c, 15, 80, 96
16, 327214, Note_on_c, 15, 68, 96
16, 327517, Note_off_c, 15, 68, 0
16, 327517, Note_off_c, 15, 80, 0
16, 327517, Note_off_c, 15, 75, 0
16, 327534, Note_on_c, 15, 81, 96
16, 327534, Note_on_c, 15, 69, 96
16, 327534, Note_on_c, 15, 76, 96
16, 327837, Note_off_c, 15, 69, 0
16, 327837, Note_off_c, 15, 76, 0
16, 327837, Note_off_c, 15, 81, 0
16, 327854, Note_on_c, 15, 82, 96
16, 327854, Note_on_c, 15, 70, 96
16, 327854, Note_on_c, 15, 77, 96
16, 328309, Note_off_c, 15, 82, 0
16, 328309, Note_off_c, 15, 70, 0
16, 328309, Note_off_c, 15, 77, 0
16, 329797, Note_on_c, 15, 53, 96
16, 329797, Note_on_c, 15, 56, 96
16, 329797, Note_on_c, 15, 60, 96
16, 330036, Note_off_c, 15, 53, 0
16, 330036, Note_off_c, 15, 56, 0
16, 330036, Note_off_c, 15, 60, 0
16, 330277, Note_on_c, 15, 56, 96
16, 330277, Note_on_c, 15, 60, 96
16, 330277, Note_on_c, 15, 53, 96
16, 331188, Note_off_c, 15, 53, 0
16, 331188, Note_off_c, 15, 56, 0
16, 331188, Note_off_c, 15, 60, 0
16, 331237, Note_on_c, 15, 60, 96
16, 331237, Note_on_c, 15, 53, 96
16, 331237, Note_on_c, 15, 56, 96
16, 331476, Note_off_c, 15, 53, 0
16, 331476, Note_off_c, 15, 56, 0
16, 331476, Note_off_c, 15, 60, 0
16, 331717, Note_on_c, 15, 53, 96
16, 331717, Note_on_c, 15, 58, 96
16, 331717, Note_on_c, 15, 62, 96
16, 333540, Note_off_c, 15, 53, 0
16, 333540, Note_off_c, 15, 58, 0
16, 333540, Note_off_c, 15, 62, 0
16, 333637, Note_on_c, 15, 63, 96
16, 333637, Note_on_c, 15, 58, 96
16, 333637, Note_on_c, 15, 55, 96
16, 333876, Note_off_c, 15, 55, 0
16, 333876, Note_off_c, 15, 58, 0
16, 333876, Note_off_c, 15, 63, 0
16, 334117, Note_on_c, 15, 55, 96
16, 334117, Note_on_c, 15, 58, 96
16, 334117, Note_on_c, 15, 63, 96
16, 334843, Note_off_c, 15, 55, 0
16, 334843, Note_off_c, 15, 63, 0
16, 334843, Note_off_c, 15, 58, 0
16, 334884, Note_on_c, 15, 58, 96
16, 334884, Note_on_c, 15, 55, 96
16, 334884, Note_on_c, 15, 63, 96
16, 335521, Note_off_c, 15, 55, 0
16, 335521, Note_off_c, 15, 58, 0
16, 335521, Note_off_c, 15, 63, 0
16, 335557, Note_on_c, 15, 55, 96
16, 335557, Note_on_c, 15, 64, 96
16, 335557, Note_on_c, 15, 60, 96
16, 335557, Note_on_c, 15, 58, 96
16, 337380, Note_off_c, 15, 64, 0
16, 337380, Note_off_c, 15, 60, 0
16, 337380, Note_off_c, 15, 58, 0
16, 337380, Note_off_c, 15, 55, 0
16, 337477, Note_on_c, 15, 68, 96
16, 337477, Note_on_c, 15, 65, 96
16, 337477, Note_on_c, 15, 60, 96
16, 337716, Note_off_c, 15, 65, 0
16, 337716, Note_off_c, 15, 68, 0
16, 337716, Note_off_c, 15, 60, 0
16, 337957, Note_on_c, 15, 65, 96
16, 337957, Note_on_c, 15, 68, 96
16, 337957, Note_on_c, 15, 60, 96
16, 338868, Note_off_c, 15, 68, 0
16, 338868, Note_off_c, 15, 65, 0
16, 338868, Note_off_c, 15, 60, 0
16, 338917, Note_on_c, 15, 60, 96
16, 338917, Note_on_c, 15, 68, 96
16, 338917, Note_on_c, 15, 65, 96
16, 339156, Note_off_c, 15, 68, 0
16, 339156, Note_off_c, 15, 65, 0
16, 339156, Note_off_c, 15, 60, 0
16, 339397, Note_on_c, 15, 65, 96
16, 339397, Note_on_c, 15, 62, 96
16, 339397, Note_on_c, 15, 70, 96
16, 341220, Note_off_c, 15, 65, 0
16, 341220, Note_off_c, 15, 62, 0
16, 341220, Note_off_c, 15, 70, 0
16, 341317, Note_on_c, 15, 67, 96
16, 341317, Note_on_c, 15, 70, 96
16, 341317, Note_on_c, 15, 74, 96
16, 341772, Note_off_c, 15, 74, 0
16, 341772, Note_off_c, 15, 70, 0
16, 341772, Note_off_c, 15, 67, 0
16, 341797, Note_on_c, 15, 67, 96
16, 341797, Note_on_c, 15, 74, 96
16, 341797, Note_on_c, 15, 70, 96
16, 342252, Note_off_c, 15, 67, 0
16, 342252, Note_off_c, 15, 74, 0
16, 342252, Note_off_c, 15, 70, 0
16, 342277, Note_on_c, 15, 65, 96
16, 342277, Note_on_c, 15, 79, 96
16, 342277, Note_on_c, 15, 77, 96
16, 342277, Note_on_c, 15, 61, 96
16, 342277, Note_on_c, 15, 67, 96
16, 342277, Note_on_c, 15, 73, 96
16, 343188, Note_off_c, 15, 79, 0
16, 343188, Note_off_c, 15, 61, 0
16, 343188, Note_off_c, 15, 77, 0
16, 343188, Note_off_c, 15, 73, 0
16, 343188, Note_off_c, 15, 67, 0
16, 343188, Note_off_c, 15, 65, 0
16, 343237, Note_on_c, 15, 76, 96
16, 343237, Note_on_c, 15, 72, 96
16, 343237, Note_on_c, 15, 67, 96
16, 343237, Note_on_c, 15, 79, 96
16, 343476, Note_off_c, 15, 76, 0
16, 343476, Note_off_c, 15, 72, 0
16, 343476, Note_off_c, 15, 67, 0
16, 343476, Note_off_c, 15, 79, 0
16, 345157, Note_on_c, 15, 60, 96
16, 345157, Note_on_c, 15, 53, 96
16, 345157, Note_on_c, 15, 56, 96
16, 345396, Note_off_c, 15, 53, 0
16, 345396, Note_off_c, 15, 60, 0
16, 345396, Note_off_c, 15, 56, 0
16, 345637, Note_on_c, 15, 60, 96
16, 345637, Note_on_c, 15, 56, 96
16, 345637, Note_on_c, 15, 53, 96
16, 346548, Note_off_c, 15, 60, 0
16, 346548, Note_off_c, 15, 56, 0
16, 346548, Note_off_c, 15, 53, 0
16, 346597, Note_on_c, 15, 53, 96
16, 346597, Note_on_c, 15, 56, 96
16, 346597, Note_on_c, 15, 60, 96
16, 346836, Note_off_c, 15, 53, 0
16, 346836, Note_off_c, 15, 56, 0
16, 346836, Note_off_c, 15, 60, 0
16, 347077, Note_on_c, 15, 62, 96
16, 347077, Note_on_c, 15, 53, 96
16, 347077, Note_on_c, 15, 58, 96
16, 348900, Note_off_c, 15, 62, 0
16, 348900, Note_off_c, 15, 53, 0
16, 348900, Note_off_c, 15, 58, 0
16, 348997, Note_on_c, 15, 63, 96
16, 348997, Note_on_c, 15, 58, 96
16, 348997, Note_on_c, 15, 55, 96
16, 349236, Note_off_c, 15, 63, 0
16, 349236, Note_off_c, 15, 58, 0
16, 349236, Note_off_c, 15, 55, 0
16, 349477, Note_on_c, 15, 55, 96
16, 349477, Note_on_c, 15, 63, 96
16, 349477, Note_on_c, 15, 58, 96
16, 350203, Note_off_c, 15, 58, 0
16, 350203, Note_off_c, 15, 63, 0
16, 350203, Note_off_c, 15, 55, 0
16, 350244, Note_on_c, 15, 55, 96
16, 350244, Note_on_c, 15, 58, 96
16, 350244, Note_on_c, 15, 63, 96
16, 350881, Note_off_c, 15, 55, 0
16, 350881, Note_off_c, 15, 58, 0
16, 350881, Note_off_c, 15, 63, 0
16, 350917, Note_on_c, 15, 55, 96
16, 350917, Note_on_c, 15, 58, 96
16, 350917, Note_on_c, 15, 60, 96
16, 350917, Note_on_c, 15, 64, 96
16, 352740, Note_off_c, 15, 58, 0
16, 352740, Note_off_c, 15, 55, 0
16, 352740, Note_off_c, 15, 64, 0
16, 352740, Note_off_c, 15, 60, 0
16, 352837, Note_on_c, 15, 56, 96
16, 352837, Note_on_c, 15, 60, 96
16, 352837, Note_on_c, 15, 65, 96
16, 353292, Note_off_c, 15, 56, 0
16, 353292, Note_off_c, 15, 60, 0
16, 353292, Note_off_c, 15, 65, 0
16, 353317, Note_on_c, 15, 65, 96
16, 353317, Note_on_c, 15, 56, 96
16, 353317, Note_on_c, 15, 60, 96
16, 354228, Note_off_c, 15, 60, 0
16, 354228, Note_off_c, 15, 65, 0
16, 354228, Note_off_c, 15, 56, 0
16, 354277, Note_on_c, 15, 65, 96
16, 354277, Note_on_c, 15, 60, 96
16, 354277, Note_on_c, 15, 56, 96
16, 354732, Note_off_c, 15, 56, 0
16, 354732, Note_off_c, 15, 65, 0
16, 354732, Note_off_c, 15, 60, 0
16, 354757, Note_on_c, 15, 65, 96
16, 354757, Note_on_c, 15, 70, 96
16, 355668, Note_off_c, 15, 65, 0
16, 355668, Note_off_c, 15, 70, 0
16, 355717, Note_on_c, 15, 70, 96
16, 355717, Note_on_c, 15, 65, 96
16, 355717, Note_on_c, 15, 62, 96
16, 355717, Note_on_c, 15, 58, 96
16, 356628, Note_off_c, 15, 70, 0
16, 356628, Note_off_c, 15, 65, 0
16, 356628, Note_off_c, 15, 62, 0
16, 356628, Note_off_c, 15, 58, 0
16, 356965, Note_on_c, 15, 70, 96
16, 356965, Note_on_c, 15, 82, 96
16, 357146, Note_off_c, 15, 70, 0
16, 357146, Note_off_c, 15, 82, 0
16, 357157, Note_on_c, 15, 91, 96
16, 357157, Note_on_c, 15, 79, 96
16, 357612, Note_off_c, 15, 79, 0
16, 357612, Note_off_c, 15, 91, 0
16, 357637, Note_on_c, 15, 79, 96
16, 357637, Note_on_c, 15, 91, 96
16, 358092, Note_off_c, 15, 79, 0
16, 358092, Note_off_c, 15, 91, 0
16, 358117, Note_on_c, 15, 70, 96
16, 358117, Note_on_c, 15, 82, 96
16, 358572, Note_off_c, 15, 82, 0
16, 358572, Note_off_c, 15, 70, 0
16, 358597, Note_on_c, 15, 80, 96
16, 358597, Note_on_c, 15, 68, 96
16, 359052, Note_off_c, 15, 68, 0
16, 359052, Note_off_c, 15, 80, 0
16, 359077, Note_on_c, 15, 68, 96
16, 359077, Note_on_c, 15, 80, 96
16, 359352, Note_off_c, 15, 68, 0
16, 359352, Note_off_c, 15, 80, 0
16, 359365, Note_on_c, 15, 77, 96
16, 359365, Note_on_c, 15, 89, 96
16, 359817, Note_off_c, 15, 89, 0
16, 359817, Note_off_c, 15, 77, 0
16, 360517, Note_on_c, 15, 53, 96
16, 360517, Note_on_c, 15, 56, 96
16, 360517, Note_on_c, 15, 60, 96
16, 360756, Note_off_c, 15, 56, 0
16, 360756, Note_off_c, 15, 60, 0
16, 360756, Note_off_c, 15, 53, 0
16, 360997, Note_on_c, 15, 60, 96
16, 360997, Note_on_c, 15, 56, 96
16, 360997, Note_on_c, 15, 53, 96
16, 361908, Note_off_c, 15, 53, 0
16, 361908, Note_off_c, 15, 56, 0
16, 361908, Note_off_c, 15, 60, 0
16, 361957, Note_on_c, 15, 53, 96
16, 361957, Note_on_c, 15, 60, 96
16, 361957, Note_on_c, 15, 56, 96
16, 362196, Note_off_c, 15, 60, 0
16, 362196, Note_off_c, 15, 56, 0
16, 362196, Note_off_c, 15, 53, 0
16, 362437, Note_on_c, 15, 53, 96
16, 362437, Note_on_c, 15, 62, 96
16, 362437, Note_on_c, 15, 58, 96
16, 364260, Note_off_c, 15, 58, 0
16, 364260, Note_off_c, 15, 62, 0
16, 364260, Note_off_c, 15, 53, 0
16, 364357, Note_on_c, 15, 58, 96
16, 364357, Note_on_c, 15, 63, 96
16, 364357, Note_on_c, 15, 55, 96
16, 364596, Note_off_c, 15, 55, 0
16, 364596, Note_off_c, 15, 58, 0
16, 364596, Note_off_c, 15, 63, 0
16, 364837, Note_on_c, 15, 55, 96
16, 364837, Note_on_c, 15, 58, 96
16, 364837, Note_on_c, 15, 63, 96
16, 365563, Note_off_c, 15, 55, 0
16, 365563, Note_off_c, 15, 58, 0
16, 365563, Note_off_c, 15, 63, 0
16, 365604, Note_on_c, 15, 55, 96
16, 365604, Note_on_c, 15, 58, 96
16, 365604, Note_on_c, 15, 63, 96
16, 366241, Note_off_c, 15, 55, 0
16, 366241, Note_off_c, 15, 58, 0
16, 366241, Note_off_c, 15, 63, 0
16, 366277, Note_on_c, 15, 55, 96
16, 366277, Note_on_c, 15, 58, 96
16, 366277, Note_on_c, 15, 60, 96
16, 366277, Note_on_c, 15, 64, 96
16, 368100, Note_off_c, 15, 58, 0
16, 368100, Note_off_c, 15, 60, 0
16, 368100, Note_off_c, 15, 64, 0
16, 368100, Note_off_c, 15, 55, 0
16, 368197, Note_on_c, 15, 65, 96
16, 368197, Note_on_c, 15, 68, 96
16, 368197, Note_on_c, 15, 60, 96
16, 368436, Note_off_c, 15, 60, 0
16, 368436, Note_off_c, 15, 65, 0
16, 368436, Note_off_c, 15, 68, 0
16, 368677, Note_on_c, 15, 60, 96
16, 368677, Note_on_c, 15, 65, 96
16, 368677, Note_on_c, 15, 68, 96
16, 369588, Note_off_c, 15, 60, 0
16, 369588, Note_off_c, 15, 65, 0
16, 369588, Note_off_c, 15, 68, 0
16, 369637, Note_on_c, 15, 65, 96
16, 369637, Note_on_c, 15, 68, 96
16, 369637, Note_on_c, 15, 60, 96
16, 369876, Note_off_c, 15, 60, 0
16, 369876, Note_off_c, 15, 65, 0
16, 369876, Note_off_c, 15, 68, 0
16, 370117, Note_on_c, 15, 62, 96
16, 370117, Note_on_c, 15, 65, 96
16, 370117, Note_on_c, 15, 70, 96
16, 371940, Note_off_c, 15, 62, 0
16, 371940, Note_off_c, 15, 65, 0
16, 371940, Note_off_c, 15, 70, 0
16, 372037, Note_on_c, 15, 67, 96
16, 372037, Note_on_c, 15, 70, 96
16, 372037, Note_on_c, 15, 74, 96
16, 372492, Note_off_c, 15, 67, 0
16, 372492, Note_off_c, 15, 74, 0
16, 372492, Note_off_c, 15, 70, 0
16, 372517, Note_on_c, 15, 67, 96
16, 372517, Note_on_c, 15, 70, 96
16, 372517, Note_on_c, 15, 74, 96
16, 372972, Note_off_c, 15, 70, 0
16, 372972, Note_off_c, 15, 74, 0
16, 372972, Note_off_c, 15, 67, 0
16, 372997, Note_on_c, 15, 61, 96
16, 372997, Note_on_c, 15, 65, 96
16, 372997, Note_on_c, 15, 79, 96
16, 372997, Note_on_c, 15, 67, 96
16, 372997, Note_on_c, 15, 73, 96
16, 372997, Note_on_c, 15, 77, 96
16, 373908, Note_off_c, 15, 61, 0
16, 373908, Note_off_c, 15, 67, 0
16, 373908, Note_off_c, 15, 73, 0
16, 373908, Note_off_c, 15, 77, 0
16, 373908, Note_off_c, 15, 79, 0
16, 373908, Note_off_c, 15, 65, 0
16, 373957, Note_on_c, 15, 67, 96
16, 373957, Note_on_c, 15, 72, 96
16, 373957, Note_on_c, 15, 79, 96
16, 373957, Note_on_c, 15, 76, 96
16, 374196, Note_off_c, 15, 67, 0
16, 374196, Note_off_c, 15, 72, 0
16, 374196, Note_off_c, 15, 76, 0
16, 374196, Note_off_c, 15, 79, 0
16, 375877, Note_on_c, 15, 53, 96
16, 375877, Note_on_c, 15, 56, 96
16, 375877, Note_on_c, 15, 60, 96
16, 376116, Note_off_c, 15, 53, 0
16, 376116, Note_off_c, 15, 56, 0
16, 376116, Note_off_c, 15, 60, 0
16, 376357, Note_on_c, 15, 53, 96
16, 376357, Note_on_c, 15, 56, 96
16, 376357, Note_on_c, 15, 60, 96
16, 377268, Note_off_c, 15, 56, 0
16, 377268, Note_off_c, 15, 60, 0
16, 377268, Note_off_c, 15, 53, 0
16, 377317, Note_on_c, 15, 56, 96
16, 377317, Note_on_c, 15, 60, 96
16, 377317, Note_on_c, 15, 53, 96
16, 377556, Note_off_c, 15, 53, 0
16, 377556, Note_off_c, 15, 56, 0
16, 377556, Note_off_c, 15, 60, 0
16, 377797, Note_on_c, 15, 53, 96
16, 377797, Note_on_c, 15, 58, 96
16, 377797, Note_on_c, 15, 62, 96
16, 379620, Note_off_c, 15, 53, 0
16, 379620, Note_off_c, 15, 62, 0
16, 379620, Note_off_c, 15, 58, 0
16, 379717, Note_on_c, 15, 55, 96
16, 379717, Note_on_c, 15, 58, 96
16, 379717, Note_on_c, 15, 63, 96
16, 379956, Note_off_c, 15, 58, 0
16, 379956, Note_off_c, 15, 63, 0
16, 379956, Note_off_c, 15, 55, 0
16, 380197, Note_on_c, 15, 55, 96
16, 380197, Note_on_c, 15, 58, 96
16, 380197, Note_on_c, 15, 63, 96
16, 380923, Note_off_c, 15, 55, 0
16, 380923, Note_off_c, 15, 58, 0
16, 380923, Note_off_c, 15, 63, 0
16, 380964, Note_on_c, 15, 55, 96
16, 380964, Note_on_c, 15, 58, 96
16, 380964, Note_on_c, 15, 63, 96
16, 381601, Note_off_c, 15, 55, 0
16, 381601, Note_off_c, 15, 58, 0
16, 381601, Note_off_c, 15, 63, 0
16, 381637, Note_on_c, 15, 58, 96
16, 381637, Note_on_c, 15, 60, 96
16, 381637, Note_on_c, 15, 64, 96
16, 381637, Note_on_c, 15, 55, 96
16, 383460, Note_off_c, 15, 55, 0
16, 383460, Note_off_c, 15, 58, 0
16, 383460, Note_off_c, 15, 60, 0
16, 383460, Note_off_c, 15, 64, 0
16, 383557, Note_on_c, 15, 53, 96
16, 383557, Note_on_c, 15, 56, 96
16, 383557, Note_on_c, 15, 60, 96
16, 383796, Note_off_c, 15, 53, 0
16, 383796, Note_off_c, 15, 60, 0
16, 383796, Note_off_c, 15, 56, 0
16, 384037, Note_on_c, 15, 53, 96
16, 384037, Note_on_c, 15, 56, 96
16, 384037, Note_on_c, 15, 60, 96
16, 384948, Note_off_c, 15, 53, 0
16, 384948, Note_off_c, 15, 56, 0
16, 384948, Note_off_c, 15, 60, 0
16, 384997, Note_on_c, 15, 53, 96
16, 384997, Note_on_c, 15, 56, 96
16, 384997, Note_on_c, 15, 60, 96
16, 385236, Note_off_c, 15, 53, 0
16, 385236, Note_off_c, 15, 56, 0
16, 385236, Note_off_c, 15, 60, 0
16, 385477, Note_on_c, 15, 58, 96
16, 385477, Note_on_c, 15, 62, 96
16, 385477, Note_on_c, 15, 53, 96
16, 387300, Note_off_c, 15, 62, 0
16, 387300, Note_off_c, 15, 53, 0
16, 387300, Note_off_c, 15, 58, 0
16, 387397, Note_on_c, 15, 55, 96
16, 387397, Note_on_c, 15, 58, 96
16, 387397, Note_on_c, 15, 62, 96
16, 387636, Note_off_c, 15, 62, 0
16, 387636, Note_off_c, 15, 58, 0
16, 387636, Note_off_c, 15, 55, 0
16, 387877, Note_on_c, 15, 62, 96
16, 387877, Note_on_c, 15, 58, 96
16, 387877, Note_on_c, 15, 55, 96
16, 388603, Note_off_c, 15, 62, 0
16, 388603, Note_off_c, 15, 58, 0
16, 388603, Note_off_c, 15, 55, 0
16, 388644, Note_on_c, 15, 62, 96
16, 388644, Note_on_c, 15, 58, 96
16, 388644, Note_on_c, 15, 55, 96
16, 389281, Note_off_c, 15, 58, 0
16, 389281, Note_off_c, 15, 62, 0
16, 389281, Note_off_c, 15, 55, 0
16, 389317, Note_on_c, 15, 58, 96
16, 389317, Note_on_c, 15, 64, 96
16, 389317, Note_on_c, 15, 60, 96
16, 389317, Note_on_c, 15, 55, 96
16, 391140, Note_off_c, 15, 58, 0
16, 391140, Note_off_c, 15, 64, 0
16, 391140, Note_off_c, 15, 60, 0
16, 391140, Note_off_c, 15, 55, 0
16, 391237, Note_on_c, 15, 72, 96
16, 391237, Note_on_c, 15, 68, 96
16, 391237, Note_on_c, 15, 65, 96
16, 391476, Note_off_c, 15, 72, 0
16, 391476, Note_off_c, 15, 68, 0
16, 391476, Note_off_c, 15, 65, 0
16, 391717, Note_on_c, 15, 68, 96
16, 391717, Note_on_c, 15, 65, 96
16, 392628, Note_off_c, 15, 68, 0
16, 392628, Note_off_c, 15, 65, 0
16, 392677, Note_on_c, 15, 65, 96
16, 392677, Note_on_c, 15, 72, 96
16, 392677, Note_on_c, 15, 75, 96
16, 392677, Note_on_c, 15, 68, 96
16, 392916, Note_off_c, 15, 65, 0
16, 392916, Note_off_c, 15, 68, 0
16, 392916, Note_off_c, 15, 72, 0
16, 392916, Note_off_c, 15, 75, 0
16, 393157, Note_on_c, 15, 65, 96
16, 393157, Note_on_c, 15, 70, 96
16, 393157, Note_on_c, 15, 74, 96
16, 393157, Note_on_c, 15, 68, 96
16, 394068, Note_off_c, 15, 65, 0
16, 394068, Note_off_c, 15, 68, 0
16, 394068, Note_off_c, 15, 70, 0
16, 394068, Note_off_c, 15, 74, 0
16, 394117, Note_on_c, 15, 62, 96
16, 394117, Note_on_c, 15, 65, 96
16, 394117, Note_on_c, 15, 70, 96
16, 395028, Note_off_c, 15, 70, 0
16, 395028, Note_off_c, 15, 65, 0
16, 395028, Note_off_c, 15, 62, 0
16, 395364, Note_on_c, 15, 72, 96
16, 395364, Note_on_c, 15, 65, 96
16, 396001, Note_off_c, 15, 72, 0
16, 396001, Note_off_c, 15, 65, 0
16, 396037, Note_on_c, 15, 72, 96
16, 396037, Note_on_c, 15, 65, 96
16, 396763, Note_off_c, 15, 65, 0
16, 396763, Note_off_c, 15, 72, 0
16, 396805, Note_on_c, 15, 65, 96
16, 396805, Note_on_c, 15, 72, 96
16, 397898, Note_off_c, 15, 72, 0
16, 397898, Note_off_c, 15, 65, 0
16, 404965, Note_on_c, 15, 74, 96
16, 404965, Note_on_c, 15, 62, 96
16, 405146, Note_off_c, 15, 74, 0
16, 405146, Note_off_c, 15, 62, 0
16, 405157, Note_on_c, 15, 63, 96
16, 405157, Note_on_c, 15, 75, 96
16, 405276, Note_off_c, 15, 75, 0
16, 405276, Note_off_c, 15, 63, 0
16, 405445, Note_on_c, 15, 66, 96
16, 405445, Note_on_c, 15, 78, 96
16, 405626, Note_off_c, 15, 66, 0
16, 405626, Note_off_c, 15, 78, 0
16, 405637, Note_on_c, 15, 69, 96
16, 405637, Note_on_c, 15, 81, 96
16, 405756, Note_off_c, 15, 69, 0
16, 405756, Note_off_c, 15, 81, 0
16, 405925, Note_on_c, 15, 70, 96
16, 405925, Note_on_c, 15, 82, 96
16, 406106, Note_off_c, 15, 70, 0
16, 406106, Note_off_c, 15, 82, 0
16, 406405, Note_on_c, 15, 62, 96
16, 406405, Note_on_c, 15, 74, 96
16, 406586, Note_off_c, 15, 62, 0
16, 406586, Note_off_c, 15, 74, 0
16, 406597, Note_on_c, 15, 63, 96
16, 406597, Note_on_c, 15, 67, 96
16, 406597, Note_on_c, 15, 75, 96
16, 406872, Note_off_c, 15, 63, 0
16, 406872, Note_off_c, 15, 67, 0
16, 406872, Note_off_c, 15, 75, 0
16, 412645, Note_on_c, 15, 62, 96
16, 412645, Note_on_c, 15, 74, 96
16, 412826, Note_off_c, 15, 62, 0
16, 412826, Note_off_c, 15, 74, 0
16, 412837, Note_on_c, 15, 63, 96
16, 412837, Note_on_c, 15, 75, 96
16, 412956, Note_off_c, 15, 63, 0
16, 412956, Note_off_c, 15, 75, 0
16, 413125, Note_on_c, 15, 78, 96
16, 413125, Note_on_c, 15, 66, 96
16, 413306, Note_off_c, 15, 78, 0
16, 413306, Note_off_c, 15, 66, 0
16, 413317, Note_on_c, 15, 69, 96
16, 413317, Note_on_c, 15, 81, 96
16, 413436, Note_off_c, 15, 69, 0
16, 413436, Note_off_c, 15, 81, 0
16, 413605, Note_on_c, 15, 70, 96
16, 413605, Note_on_c, 15, 82, 96
16, 413786, Note_off_c, 15, 70, 0
16, 413786, Note_off_c, 15, 82, 0
16, 413797, Note_on_c, 15, 68, 96
16, 413797, Note_on_c, 15, 80, 96
16, 413916, Note_off_c, 15, 80, 0
16, 413916, Note_off_c, 15, 68, 0
16, 414085, Note_on_c, 15, 66, 96
16, 414085, Note_on_c, 15, 78, 96
16, 414266, Note_off_c, 15, 66, 0
16, 414266, Note_off_c, 15, 78, 0
16, 414277, Note_on_c, 15, 67, 96
16, 414277, Note_on_c, 15, 70, 96
16, 414277, Note_on_c, 15, 75, 96
16, 414277, Note_on_c, 15, 79, 96
16, 414552, Note_off_c, 15, 67, 0
16, 414552, Note_off_c, 15, 70, 0
16, 414552, Note_off_c, 15, 75, 0
16, 414552, Note_off_c, 15, 79, 0
16, 420517, Note_on_c, 15, 75, 96
16, 420517, Note_on_c, 15, 87, 96
16, 420792, Note_off_c, 15, 87, 0
16, 420792, Note_off_c, 15, 75, 0
16, 420805, Note_on_c, 15, 70, 96
16, 420805, Note_on_c, 15, 82, 96
16, 420900, Note_off_c, 15, 82, 0
16, 420900, Note_off_c, 15, 70, 0
16, 420997, Note_on_c, 15, 68, 96
16, 420997, Note_on_c, 15, 80, 96
16, 421272, Note_off_c, 15, 68, 0
16, 421272, Note_off_c, 15, 80, 0
16, 421285, Note_on_c, 15, 78, 96
16, 421285, Note_on_c, 15, 66, 96
16, 421380, Note_off_c, 15, 78, 0
16, 421380, Note_off_c, 15, 66, 0
16, 421477, Note_on_c, 15, 63, 96
16, 421477, Note_on_c, 15, 75, 96
16, 421752, Note_off_c, 15, 75, 0
16, 421752, Note_off_c, 15, 63, 0
16, 421765, Note_on_c, 15, 73, 96
16, 421765, Note_on_c, 15, 61, 96
16, 421860, Note_off_c, 15, 73, 0
16, 421860, Note_off_c, 15, 61, 0
16, 421957, Note_on_c, 15, 70, 96
16, 421957, Note_on_c, 15, 63, 96
16, 421957, Note_on_c, 15, 73, 96
16, 421957, Note_on_c, 15, 75, 96
16, 422232, Note_off_c, 15, 63, 0
16, 422232, Note_off_c, 15, 70, 0
16, 422232, Note_off_c, 15, 73, 0
16, 422232, Note_off_c, 15, 75, 0
16, 428197, Note_on_c, 15, 76, 96
16, 428197, Note_on_c, 15, 64, 96
16, 428348, Note_off_c, 15, 76, 0
16, 428348, Note_off_c, 15, 64, 0
16, 428357, Note_on_c, 15, 67, 96
16, 428357, Note_on_c, 15, 79, 96
16, 428508, Note_off_c, 15, 67, 0
16, 428508, Note_off_c, 15, 79, 0
16, 428517, Note_on_c, 15, 84, 96
16, 428517, Note_on_c, 15, 72, 96
16, 428668, Note_off_c, 15, 72, 0
16, 428668, Note_off_c, 15, 84, 0
16, 428677, Note_on_c, 15, 76, 96
16, 428677, Note_on_c, 15, 88, 96
16, 428952, Note_off_c, 15, 88, 0
16, 428952, Note_off_c, 15, 76, 0
16, 428965, Note_on_c, 15, 72, 96
16, 428965, Note_on_c, 15, 84, 96
16, 429146, Note_off_c, 15, 84, 0
16, 429146, Note_off_c, 15, 72, 0
16, 429637, Note_on_c, 15, 72, 96
16, 429637, Note_on_c, 15, 76, 96
16, 429637, Note_on_c, 15, 69, 96
16, 430363, Note_off_c, 15, 76, 0
16, 430363, Note_off_c, 15, 72, 0
16, 430363, Note_off_c, 15, 69, 0
16, 430405, Note_on_c, 15, 72, 96
16, 430405, Note_on_c, 15, 74, 96
16, 430405, Note_on_c, 15, 65, 96
16, 430586, Note_off_c, 15, 72, 0
16, 430586, Note_off_c, 15, 74, 0
16, 430586, Note_off_c, 15, 65, 0
16, 431077, Note_on_c, 15, 76, 96
16, 431077, Note_on_c, 15, 69, 96
16, 431077, Note_on_c, 15, 72, 96
16, 431808, Note_off_c, 15, 72, 0
16, 431808, Note_off_c, 15, 69, 0
16, 431808, Note_off_c, 15, 76, 0
16, 431844, Note_on_c, 15, 74, 96
16, 431844, Note_on_c, 15, 72, 96
16, 431844, Note_on_c, 15, 65, 96
16, 432481, Note_off_c, 15, 74, 0
16, 432481, Note_off_c, 15, 65, 0
16, 432481, Note_off_c, 15, 72, 0
16, 432517, Note_on_c, 15, 76, 96
16, 432517, Note_on_c, 15, 69, 96
16, 432517, Note_on_c, 15, 72, 96
16, 432756, Note_off_c, 15, 69, 0
16, 432756, Note_off_c, 15, 72, 0
16, 432756, Note_off_c, 15, 76, 0
16, 432997, Note_on_c, 15, 72, 96
16, 432997, Note_on_c, 15, 74, 96
16, 432997, Note_on_c, 15, 65, 96
16, 433236, Note_off_c, 15, 72, 0
16, 433236, Note_off_c, 15, 74, 0
16, 433236, Note_off_c, 15, 65, 0
16, 433477, Note_on_c, 15, 79, 96
16, 433477, Note_on_c, 15, 67, 96
16, 433477, Note_on_c, 15, 71, 96
16, 433752, Note_off_c, 15, 71, 0
16, 433752, Note_off_c, 15, 67, 0
16, 433752, Note_off_c, 15, 79, 0
16, 433765, Note_on_c, 15, 79, 96
16, 433946, Note_off_c, 15, 79, 0
16, 433957, Note_on_c, 15, 78, 96
16, 434232, Note_off_c, 15, 78, 0
16, 434245, Note_on_c, 15, 77, 96
16, 434426, Note_off_c, 15, 77, 0
16, 434437, Note_on_c, 15, 74, 96
16, 434712, Note_off_c, 15, 74, 0
16, 434725, Note_on_c, 15, 71, 96
16, 434906, Note_off_c, 15, 71, 0
16, 434917, Note_on_c, 15, 69, 96
16, 435192, Note_off_c, 15, 69, 0
16, 435205, Note_on_c, 15, 68, 96
16, 435386, Note_off_c, 15, 68, 0
16, 435397, Note_on_c, 15, 67, 96
16, 435397, Note_on_c, 15, 65, 96
16, 435397, Note_on_c, 15, 62, 96
16, 435636, Note_off_c, 15, 67, 0
16, 435636, Note_off_c, 15, 65, 0
16, 435636, Note_off_c, 15, 62, 0
16, 435877, Note_on_c, 15, 74, 96
16, 435877, Note_on_c, 15, 79, 96
16, 435877, Note_on_c, 15, 71, 96
16, 436332, Note_off_c, 15, 79, 0
16, 436332, Note_off_c, 15, 74, 0
16, 436332, Note_off_c, 15, 71, 0
16, 436357, Note_on_c, 15, 62, 96
16, 436357, Note_on_c, 15, 67, 96
16, 436357, Note_on_c, 15, 65, 96
16, 436812, Note_off_c, 15, 62, 0
16, 436812, Note_off_c, 15, 67, 0
16, 436812, Note_off_c, 15, 65, 0
16, 437249, Note_on_c, 15, 61, 96
16, 437249, Note_on_c, 15, 57, 96
16, 437249, Note_on_c, 15, 54, 96
16, 437488, Note_off_c, 15, 57, 0
16, 437488, Note_off_c, 15, 54, 0
16, 437488, Note_off_c, 15, 61, 0
16, 437729, Note_on_c, 15, 57, 96
16, 437729, Note_on_c, 15, 54, 96
16, 437729, Note_on_c, 15, 61, 96
16, 438640, Note_off_c, 15, 61, 0
16, 438640, Note_off_c, 15, 54, 0
16, 438640, Note_off_c, 15, 57, 0
16, 438689, Note_on_c, 15, 61, 96
16, 438689, Note_on_c, 15, 57, 96
16, 438689, Note_on_c, 15, 54, 96
16, 438928, Note_off_c, 15, 54, 0
16, 438928, Note_off_c, 15, 61, 0
16, 438928, Note_off_c, 15, 57, 0
16, 439169, Note_on_c, 15, 54, 96
16, 439169, Note_on_c, 15, 63, 96
16, 439169, Note_on_c, 15, 59, 96
16, 440992, Note_off_c, 15, 54, 0
16, 440992, Note_off_c, 15, 63, 0
16, 440992, Note_off_c, 15, 59, 0
16, 441089, Note_on_c, 15, 59, 96
16, 441089, Note_on_c, 15, 64, 96
16, 441089, Note_on_c, 15, 56, 96
16, 441328, Note_off_c, 15, 64, 0
16, 441328, Note_off_c, 15, 59, 0
16, 441328, Note_off_c, 15, 56, 0
16, 441569, Note_on_c, 15, 59, 96
16, 441569, Note_on_c, 15, 56, 96
16, 441569, Note_on_c, 15, 64, 96
16, 442295, Note_off_c, 15, 64, 0
16, 442295, Note_off_c, 15, 59, 0
16, 442295, Note_off_c, 15, 56, 0
16, 442336, Note_on_c, 15, 59, 96
16, 442336, Note_on_c, 15, 56, 96
16, 442336, Note_on_c, 15, 64, 96
16, 442973, Note_off_c, 15, 56, 0
16, 442973, Note_off_c, 15, 64, 0
16, 442973, Note_off_c, 15, 59, 0
16, 443009, Note_on_c, 15, 61, 96
16, 443009, Note_on_c, 15, 65, 96
16, 443009, Note_on_c, 15, 56, 96
16, 443009, Note_on_c, 15, 59, 96
16, 444832, Note_off_c, 15, 65, 0
16, 444832, Note_off_c, 15, 59, 0
16, 444832, Note_off_c, 15, 61, 0
16, 444832, Note_off_c, 15, 56, 0
16, 444929, Note_on_c, 15, 61, 96
16, 444929, Note_on_c, 15, 66, 96
16, 444929, Note_on_c, 15, 69, 96
16, 445168, Note_off_c, 15, 61, 0
16, 445168, Note_off_c, 15, 66, 0
16, 445168, Note_off_c, 15, 69, 0
16, 445409, Note_on_c, 15, 61, 96
16, 445409, Note_on_c, 15, 69, 96
16, 445409, Note_on_c, 15, 66, 96
16, 446320, Note_off_c, 15, 69, 0
16, 446320, Note_off_c, 15, 66, 0
16, 446320, Note_off_c, 15, 61, 0
16, 446369, Note_on_c, 15, 61, 96
16, 446369, Note_on_c, 15, 66, 96
16, 446369, Note_on_c, 15, 69, 96
16, 446608, Note_off_c, 15, 69, 0
16, 446608, Note_off_c, 15, 66, 0
16, 446608, Note_off_c, 15, 61, 0
16, 446849, Note_on_c, 15, 71, 96
16, 446849, Note_on_c, 15, 66, 96
16, 446849, Note_on_c, 15, 63, 96
16, 448672, Note_off_c, 15, 71, 0
16, 448672, Note_off_c, 15, 66, 0
16, 448672, Note_off_c, 15, 63, 0
16, 448769, Note_on_c, 15, 75, 96
16, 448769, Note_on_c, 15, 71, 96
16, 448769, Note_on_c, 15, 68, 96
16, 449224, Note_off_c, 15, 68, 0
16, 449224, Note_off_c, 15, 75, 0
16, 449224, Note_off_c, 15, 71, 0
16, 449249, Note_on_c, 15, 68, 96
16, 449249, Note_on_c, 15, 71, 96
16, 449249, Note_on_c, 15, 75, 96
16, 449704, Note_off_c, 15, 68, 0
16, 449704, Note_off_c, 15, 71, 0
16, 449704, Note_off_c, 15, 75, 0
16, 449729, Note_on_c, 15, 62, 96
16, 449729, Note_on_c, 15, 66, 96
16, 449729, Note_on_c, 15, 68, 96
16, 449729, Note_on_c, 15, 74, 96
16, 449729, Note_on_c, 15, 78, 96
16, 449729, Note_on_c, 15, 80, 96
16, 450640, Note_off_c, 15, 62, 0
16, 450640, Note_off_c, 15, 66, 0
16, 450640, Note_off_c, 15, 74, 0
16, 450640, Note_off_c, 15, 78, 0
16, 450640, Note_off_c, 15, 68, 0
16, 450640, Note_off_c, 15, 80, 0
16, 450689, Note_on_c, 15, 73, 96
16, 450689, Note_on_c, 15, 77, 96
16, 450689, Note_on_c, 15, 80, 96
16, 450689, Note_on_c, 15, 68, 96
16, 450928, Note_off_c, 15, 68, 0
16, 450928, Note_off_c, 15, 77, 0
16, 450928, Note_off_c, 15, 80, 0
16, 450928, Note_off_c, 15, 73, 0
16, 452609, Note_on_c, 15, 61, 96
16, 452609, Note_on_c, 15, 54, 96
16, 452609, Note_on_c, 15, 57, 96
16, 452848, Note_off_c, 15, 61, 0
16, 452848, Note_off_c, 15, 57, 0
16, 452848, Note_off_c, 15, 54, 0
16, 453089, Note_on_c, 15, 61, 96
16, 453089, Note_on_c, 15, 57, 96
16, 453089, Note_on_c, 15, 54, 96
16, 454000, Note_off_c, 15, 61, 0
16, 454000, Note_off_c, 15, 57, 0
16, 454000, Note_off_c, 15, 54, 0
16, 454049, Note_on_c, 15, 61, 96
16, 454049, Note_on_c, 15, 57, 96
16, 454049, Note_on_c, 15, 54, 96
16, 454288, Note_off_c, 15, 61, 0
16, 454288, Note_off_c, 15, 57, 0
16, 454288, Note_off_c, 15, 54, 0
16, 454529, Note_on_c, 15, 59, 96
16, 454529, Note_on_c, 15, 54, 96
16, 454529, Note_on_c, 15, 63, 96
16, 456352, Note_off_c, 15, 59, 0
16, 456352, Note_off_c, 15, 63, 0
16, 456352, Note_off_c, 15, 54, 0
16, 456449, Note_on_c, 15, 64, 96
16, 456449, Note_on_c, 15, 56, 96
16, 456449, Note_on_c, 15, 59, 96
16, 456688, Note_off_c, 15, 64, 0
16, 456688, Note_off_c, 15, 59, 0
16, 456688, Note_off_c, 15, 56, 0
16, 456929, Note_on_c, 15, 64, 96
16, 456929, Note_on_c, 15, 59, 96
16, 456929, Note_on_c, 15, 56, 96
16, 457655, Note_off_c, 15, 59, 0
16, 457655, Note_off_c, 15, 56, 0
16, 457655, Note_off_c, 15, 64, 0
16, 457696, Note_on_c, 15, 64, 96
16, 457696, Note_on_c, 15, 59, 96
16, 457696, Note_on_c, 15, 56, 96
16, 458333, Note_off_c, 15, 64, 0
16, 458333, Note_off_c, 15, 59, 0
16, 458333, Note_off_c, 15, 56, 0
16, 458369, Note_on_c, 15, 56, 96
16, 458369, Note_on_c, 15, 61, 96
16, 458369, Note_on_c, 15, 65, 96
16, 458369, Note_on_c, 15, 59, 96
16, 460192, Note_off_c, 15, 56, 0
16, 460192, Note_off_c, 15, 59, 0
16, 460192, Note_off_c, 15, 61, 0
16, 460192, Note_off_c, 15, 65, 0
16, 460289, Note_on_c, 15, 61, 96
16, 460289, Note_on_c, 15, 66, 96
16, 460289, Note_on_c, 15, 57, 96
16, 460744, Note_off_c, 15, 66, 0
16, 460744, Note_off_c, 15, 61, 0
16, 460744, Note_off_c, 15, 57, 0
16, 460769, Note_on_c, 15, 57, 96
16, 460769, Note_on_c, 15, 61, 96
16, 460769, Note_on_c, 15, 66, 96
16, 461680, Note_off_c, 15, 57, 0
16, 461680, Note_off_c, 15, 61, 0
16, 461680, Note_off_c, 15, 66, 0
16, 461729, Note_on_c, 15, 66, 96
16, 461729, Note_on_c, 15, 61, 96
16, 461729, Note_on_c, 15, 57, 96
16, 462184, Note_off_c, 15, 57, 0
16, 462184, Note_off_c, 15, 61, 0
16, 462184, Note_off_c, 15, 66, 0
16, 462209, Note_on_c, 15, 66, 96
16, 462209, Note_on_c, 15, 71, 96
16, 463120, Note_off_c, 15, 66, 0
16, 463120, Note_off_c, 15, 71, 0
16, 463169, Note_on_c, 15, 59, 96
16, 463169, Note_on_c, 15, 63, 96
16, 463169, Note_on_c, 15, 66, 96
16, 463169, Note_on_c, 15, 71, 96
16, 464080, Note_off_c, 15, 59, 0
16, 464080, Note_off_c, 15, 63, 0
16, 464080, Note_off_c, 15, 66, 0
16, 464080, Note_off_c, 15, 71, 0
16, 464129, Note_on_c, 15, 68, 96
16, 464129, Note_on_c, 15, 80, 96
16, 464404, Note_off_c, 15, 68, 0
16, 464404, Note_off_c, 15, 80, 0
16, 464417, Note_on_c, 15, 67, 96
16, 464417, Note_on_c, 15, 79, 96
16, 464598, Note_off_c, 15, 67, 0
16, 464598, Note_off_c, 15, 79, 0
16, 464609, Note_on_c, 15, 68, 96
16, 464609, Note_on_c, 15, 80, 96
16, 464884, Note_off_c, 15, 68, 0
16, 464884, Note_off_c, 15, 80, 0
16, 464897, Note_on_c, 15, 83, 96
16, 464897, Note_on_c, 15, 71, 96
16, 465078, Note_off_c, 15, 83, 0
16, 465078, Note_off_c, 15, 71, 0
16, 465377, Note_on_c, 15, 73, 96
16, 465377, Note_on_c, 15, 85, 96
16, 465558, Note_off_c, 15, 85, 0
16, 465558, Note_off_c, 15, 73, 0
16, 465569, Note_on_c, 15, 83, 96
16, 465569, Note_on_c, 15, 71, 96
16, 465844, Note_off_c, 15, 83, 0
16, 465844, Note_off_c, 15, 71, 0
16, 466049, Note_on_c, 15, 76, 96
16, 466049, Note_on_c, 15, 64, 96
16, 466960, Note_off_c, 15, 76, 0
16, 466960, Note_off_c, 15, 64, 0
16, 467969, Note_on_c, 15, 54, 96
16, 467969, Note_on_c, 15, 57, 96
16, 467969, Note_on_c, 15, 61, 96
16, 468208, Note_off_c, 15, 57, 0
16, 468208, Note_off_c, 15, 61, 0
16, 468208, Note_off_c, 15, 54, 0
16, 468449, Note_on_c, 15, 54, 96
16, 468449, Note_on_c, 15, 57, 96
16, 468449, Note_on_c, 15, 61, 96
16, 469360, Note_off_c, 15, 54, 0
16, 469360, Note_off_c, 15, 57, 0
16, 469360, Note_off_c, 15, 61, 0
16, 469409, Note_on_c, 15, 57, 96
16, 469409, Note_on_c, 15, 61, 96
16, 469409, Note_on_c, 15, 54, 96
16, 469648, Note_off_c, 15, 57, 0
16, 469648, Note_off_c, 15, 54, 0
16, 469648, Note_off_c, 15, 61, 0
16, 469889, Note_on_c, 15, 54, 96
16, 469889, Note_on_c, 15, 59, 96
16, 469889, Note_on_c, 15, 63, 96
16, 471712, Note_off_c, 15, 54, 0
16, 471712, Note_off_c, 15, 59, 0
16, 471712, Note_off_c, 15, 63, 0
16, 471809, Note_on_c, 15, 64, 96
16, 471809, Note_on_c, 15, 59, 96
16, 471809, Note_on_c, 15, 56, 96
16, 472048, Note_off_c, 15, 64, 0
16, 472048, Note_off_c, 15, 56, 0
16, 472048, Note_off_c, 15, 59, 0
16, 472289, Note_on_c, 15, 56, 96
16, 472289, Note_on_c, 15, 59, 96
16, 472289, Note_on_c, 15, 64, 96
16, 473015, Note_off_c, 15, 56, 0
16, 473015, Note_off_c, 15, 59, 0
16, 473015, Note_off_c, 15, 64, 0
16, 473056, Note_on_c, 15, 56, 96
16, 473056, Note_on_c, 15, 64, 96
16, 473056, Note_on_c, 15, 59, 96
16, 473693, Note_off_c, 15, 64, 0
16, 473693, Note_off_c, 15, 59, 0
16, 473693, Note_off_c, 15, 56, 0
16, 473729, Note_on_c, 15, 65, 96
16, 473729, Note_on_c, 15, 61, 96
16, 473729, Note_on_c, 15, 59, 96
16, 473729, Note_on_c, 15, 56, 96
16, 475552, Note_off_c, 15, 65, 0
16, 475552, Note_off_c, 15, 61, 0
16, 475552, Note_off_c, 15, 59, 0
16, 475552, Note_off_c, 15, 56, 0
16, 475649, Note_on_c, 15, 66, 96
16, 475649, Note_on_c, 15, 69, 96
16, 475649, Note_on_c, 15, 61, 96
16, 475888, Note_off_c, 15, 66, 0
16, 475888, Note_off_c, 15, 69, 0
16, 475888, Note_off_c, 15, 61, 0
16, 476129, Note_on_c, 15, 61, 96
16, 476129, Note_on_c, 15, 66, 96
16, 476129, Note_on_c, 15, 69, 96
16, 477040, Note_off_c, 15, 61, 0
16, 477040, Note_off_c, 15, 66, 0
16, 477040, Note_off_c, 15, 69, 0
16, 477089, Note_on_c, 15, 66, 96
16, 477089, Note_on_c, 15, 69, 96
16, 477089, Note_on_c, 15, 61, 96
16, 477328, Note_off_c, 15, 61, 0
16, 477328, Note_off_c, 15, 66, 0
16, 477328, Note_off_c, 15, 69, 0
16, 477569, Note_on_c, 15, 63, 96
16, 477569, Note_on_c, 15, 66, 96
16, 477569, Note_on_c, 15, 71, 96
16, 479392, Note_off_c, 15, 63, 0
16, 479392, Note_off_c, 15, 66, 0
16, 479392, Note_off_c, 15, 71, 0
16, 479489, Note_on_c, 15, 75, 96
16, 479489, Note_on_c, 15, 68, 96
16, 479489, Note_on_c, 15, 71, 96
16, 479944, Note_off_c, 15, 68, 0
16, 479944, Note_off_c, 15, 71, 0
16, 479944, Note_off_c, 15, 75, 0
16, 479969, Note_on_c, 15, 68, 96
16, 479969, Note_on_c, 15, 71, 96
16, 479969, Note_on_c, 15, 75, 96
16, 480424, Note_off_c, 15, 68, 0
16, 480424, Note_off_c, 15, 71, 0
16, 480424, Note_off_c, 15, 75, 0
16, 480449, Note_on_c, 15, 62, 96
16, 480449, Note_on_c, 15, 66, 96
16, 480449, Note_on_c, 15, 68, 96
16, 480449, Note_on_c, 15, 74, 96
16, 480449, Note_on_c, 15, 80, 96
16, 480449, Note_on_c, 15, 78, 96
16, 481360, Note_off_c, 15, 80, 0
16, 481360, Note_off_c, 15, 62, 0
16, 481360, Note_off_c, 15, 66, 0
16, 481360, Note_off_c, 15, 68, 0
16, 481360, Note_off_c, 15, 78, 0
16, 481360, Note_off_c, 15, 74, 0
16, 481409, Note_on_c, 15, 68, 96
16, 481409, Note_on_c, 15, 73, 96
16, 481409, Note_on_c, 15, 77, 96
16, 481409, Note_on_c, 15, 80, 96
16, 481648, Note_off_c, 15, 68, 0
16, 481648, Note_off_c, 15, 73, 0
16, 481648, Note_off_c, 15, 77, 0
16, 481648, Note_off_c, 15, 80, 0
16, 483329, Note_on_c, 15, 54, 96
16, 483329, Note_on_c, 15, 57, 96
16, 483329, Note_on_c, 15, 61, 96
16, 483568, Note_off_c, 15, 61, 0
16, 483568, Note_off_c, 15, 54, 0
16, 483568, Note_off_c, 15, 57, 0
16, 483809, Note_on_c, 15, 54, 96
16, 483809, Note_on_c, 15, 57, 96
16, 483809, Note_on_c, 15, 61, 96
16, 484720, Note_off_c, 15, 54, 0
16, 484720, Note_off_c, 15, 57, 0
16, 484720, Note_off_c, 15, 61, 0
16, 484769, Note_on_c, 15, 54, 96
16, 484769, Note_on_c, 15, 57, 96
16, 484769, Note_on_c, 15, 61, 96
16, 485008, Note_off_c, 15, 54, 0
16, 485008, Note_off_c, 15, 57, 0
16, 485008, Note_off_c, 15, 61, 0
16, 485249, Note_on_c, 15, 59, 96
16, 485249, Note_on_c, 15, 54, 96
16, 485249, Note_on_c, 15, 63, 96
16, 487072, Note_off_c, 15, 54, 0
16, 487072, Note_off_c, 15, 59, 0
16, 487072, Note_off_c, 15, 63, 0
16, 487169, Note_on_c, 15, 64, 96
16, 487169, Note_on_c, 15, 59, 96
16, 487169, Note_on_c, 15, 56, 96
16, 487408, Note_off_c, 15, 59, 0
16, 487408, Note_off_c, 15, 56, 0
16, 487408, Note_off_c, 15, 64, 0
16, 487649, Note_on_c, 15, 64, 96
16, 487649, Note_on_c, 15, 59, 96
16, 487649, Note_on_c, 15, 56, 96
16, 488375, Note_off_c, 15, 64, 0
16, 488375, Note_off_c, 15, 59, 0
16, 488375, Note_off_c, 15, 56, 0
16, 488416, Note_on_c, 15, 64, 96
16, 488416, Note_on_c, 15, 59, 96
16, 488416, Note_on_c, 15, 56, 96
16, 489053, Note_off_c, 15, 59, 0
16, 489053, Note_off_c, 15, 56, 0
16, 489053, Note_off_c, 15, 64, 0
16, 489089, Note_on_c, 15, 59, 96
16, 489089, Note_on_c, 15, 65, 96
16, 489089, Note_on_c, 15, 56, 96
16, 489089, Note_on_c, 15, 61, 96
16, 490912, Note_off_c, 15, 59, 0
16, 490912, Note_off_c, 15, 61, 0
16, 490912, Note_off_c, 15, 65, 0
16, 490912, Note_off_c, 15, 56, 0
16, 491009, Note_on_c, 15, 54, 96
16, 491009, Note_on_c, 15, 57, 96
16, 491009, Note_on_c, 15, 61, 96
16, 491248, Note_off_c, 15, 61, 0
16, 491248, Note_off_c, 15, 54, 0
16, 491248, Note_off_c, 15, 57, 0
16, 491489, Note_on_c, 15, 57, 96
16, 491489, Note_on_c, 15, 61, 96
16, 491489, Note_on_c, 15, 54, 96
16, 492400, Note_off_c, 15, 54, 0
16, 492400, Note_off_c, 15, 57, 0
16, 492400, Note_off_c, 15, 61, 0
16, 492449, Note_on_c, 15, 54, 96
16, 492449, Note_on_c, 15, 57, 96
16, 492449, Note_on_c, 15, 61, 96
16, 492688, Note_off_c, 15, 54, 0
16, 492688, Note_off_c, 15, 57, 0
16, 492688, Note_off_c, 15, 61, 0
16, 492929, Note_on_c, 15, 54, 96
16, 492929, Note_on_c, 15, 59, 96
16, 492929, Note_on_c, 15, 63, 96
16, 494752, Note_off_c, 15, 63, 0
16, 494752, Note_off_c, 15, 54, 0
16, 494752, Note_off_c, 15, 59, 0
16, 494849, Note_on_c, 15, 56, 96
16, 494849, Note_on_c, 15, 59, 96
16, 494849, Note_on_c, 15, 63, 96
16, 495088, Note_off_c, 15, 59, 0
16, 495088, Note_off_c, 15, 63, 0
16, 495088, Note_off_c, 15, 56, 0
16, 495329, Note_on_c, 15, 56, 96
16, 495329, Note_on_c, 15, 59, 96
16, 495329, Note_on_c, 15, 63, 96
16, 496055, Note_off_c, 15, 56, 0
16, 496055, Note_off_c, 15, 59, 0
16, 496055, Note_off_c, 15, 63, 0
16, 496096, Note_on_c, 15, 56, 96
16, 496096, Note_on_c, 15, 59, 96
16, 496096, Note_on_c, 15, 63, 96
16, 496733, Note_off_c, 15, 63, 0
16, 496733, Note_off_c, 15, 56, 0
16, 496733, Note_off_c, 15, 59, 0
16, 496769, Note_on_c, 15, 56, 96
16, 496769, Note_on_c, 15, 59, 96
16, 496769, Note_on_c, 15, 61, 96
16, 496769, Note_on_c, 15, 65, 96
16, 498592, Note_off_c, 15, 56, 0
16, 498592, Note_off_c, 15, 59, 0
16, 498592, Note_off_c, 15, 61, 0
16, 498592, Note_off_c, 15, 65, 0
16, 498689, Note_on_c, 15, 69, 96
16, 498689, Note_on_c, 15, 73, 96
16, 498689, Note_on_c, 15, 66, 96
16, 498928, Note_off_c, 15, 73, 0
16, 498928, Note_off_c, 15, 69, 0
16, 498928, Note_off_c, 15, 66, 0
16, 499169, Note_on_c, 15, 69, 96
16, 499169, Note_on_c, 15, 66, 96
16, 500080, Note_off_c, 15, 69, 0
16, 500080, Note_off_c, 15, 66, 0
16, 500129, Note_on_c, 15, 66, 96
16, 500129, Note_on_c, 15, 76, 96
16, 500129, Note_on_c, 15, 73, 96
16, 500129, Note_on_c, 15, 69, 96
16, 500368, Note_off_c, 15, 66, 0
16, 500368, Note_off_c, 15, 76, 0
16, 500368, Note_off_c, 15, 73, 0
16, 500368, Note_off_c, 15, 69, 0
16, 500609, Note_on_c, 15, 75, 96
16, 500609, Note_on_c, 15, 71, 96
16, 500609, Note_on_c, 15, 69, 96
16, 500609, Note_on_c, 15, 66, 96
16, 501520, Note_off_c, 15, 66, 0
16, 501520, Note_off_c, 15, 69, 0
16, 501520, Note_off_c, 15, 71, 0
16, 501520, Note_off_c, 15, 75, 0
16, 501569, Note_on_c, 15, 63, 96
16, 501569, Note_on_c, 15, 66, 96
16, 501569, Note_on_c, 15, 71, 96
16, 502480, Note_off_c, 15, 63, 0
16, 502480, Note_off_c, 15, 66, 0
16, 502480, Note_off_c, 15, 71, 0
16, 502816, Note_on_c, 15, 66, 96
16, 502816, Note_on_c, 15, 73, 96
16, 503453, Note_off_c, 15, 66, 0
16, 503453, Note_off_c, 15, 73, 0
16, 503489, Note_on_c, 15, 66, 96
16, 503489, Note_on_c, 15, 73, 96
16, 504215, Note_off_c, 15, 66, 0
16, 504215, Note_off_c, 15, 73, 0
16, 504257, Note_on_c, 15, 66, 96
16, 504257, Note_on_c, 15, 73, 96
16, 505350, Note_off_c, 15, 66, 0
16, 505350, Note_off_c, 15, 73, 0
16, 506369, Note_on_c, 15, 60, 96
16, 506369, Note_on_c, 15, 63, 96
16, 506369, Note_on_c, 15, 68, 96
16, 506369, Note_on_c, 15, 73, 96
16, 511840, Note_off_c, 15, 60, 0
16, 511840, Note_off_c, 15, 63, 0
16, 511840, Note_off_c, 15, 68, 0
16, 511840, Note_off_c, 15, 73, 0
16, 511840, End_track
17, 0, Start_track
17, 0, Title_t, "JU: Verse/Bridge Melody"
17, 0, Instrument_name_t, "Ocarina"
17, 0, Program_c, 0, 0
17, 279205, Note_on_c, 0, 55, 112
17, 279396, Note_off_c, 0, 55, 0
17, 279397, Note_on_c, 0, 57, 112
17, 279684, Note_off_c, 0, 57, 0
17, 279685, Note_on_c, 0, 60, 112
17, 279877, Note_off_c, 0, 60, 0
17, 281125, Note_on_c, 0, 55, 112
17, 281316, Note_off_c, 0, 55, 0
17, 281317, Note_on_c, 0, 57, 112
17, 281436, Note_off_c, 0, 57, 0
17, 281605, Note_on_c, 0, 60, 112
17, 282084, Note_off_c, 0, 60, 0
17, 283045, Note_on_c, 0, 55, 112
17, 283236, Note_off_c, 0, 55, 0
17, 283237, Note_on_c, 0, 57, 112
17, 283356, Note_off_c, 0, 57, 0
17, 283525, Note_on_c, 0, 60, 112
17, 284196, Note_off_c, 0, 60, 0
17, 284197, Note_on_c, 0, 57, 112
17, 284676, Note_off_c, 0, 57, 0
17, 284677, Note_on_c, 0, 60, 112
17, 284916, Note_off_c, 0, 60, 0
17, 285157, Note_on_c, 0, 57, 112
17, 285396, Note_off_c, 0, 57, 0
17, 285637, Note_on_c, 0, 63, 112
17, 285924, Note_off_c, 0, 63, 0
17, 285925, Note_on_c, 0, 62, 112
17, 286399, Note_off_c, 0, 62, 0
17, 286405, Note_on_c, 0, 60, 112
17, 287361, Note_off_c, 0, 60, 0
17, 288037, Note_on_c, 0, 57, 112
17, 288276, Note_off_c, 0, 57, 0
17, 288517, Note_on_c, 0, 60, 112
17, 288804, Note_off_c, 0, 60, 0
17, 288805, Note_on_c, 0, 62, 112
17, 289279, Note_off_c, 0, 62, 0
17, 289285, Note_on_c, 0, 63, 112
17, 289956, Note_off_c, 0, 63, 0
17, 289957, Note_on_c, 0, 62, 112
17, 290196, Note_off_c, 0, 62, 0
17, 290437, Note_on_c, 0, 60, 112
17, 290676, Note_off_c, 0, 60, 0
17, 290917, Note_on_c, 0, 56, 112
17, 291204, Note_off_c, 0, 56, 0
17, 291205, Note_on_c, 0, 55, 112
17, 293316, Note_off_c, 0, 55, 0
17, 294565, Note_on_c, 0, 55, 112
17, 294756, Note_off_c, 0, 55, 0
17, 294757, Note_on_c, 0, 57, 112
17, 295044, Note_off_c, 0, 57, 0
17, 295045, Note_on_c, 0, 60, 112
17, 295237, Note_off_c, 0, 60, 0
17, 296485, Note_on_c, 0, 55, 112
17, 296676, Note_off_c, 0, 55, 0
17, 296677, Note_on_c, 0, 57, 112
17, 296964, Note_off_c, 0, 57, 0
17, 296965, Note_on_c, 0, 60, 112
17, 297444, Note_off_c, 0, 60, 0
17, 298405, Note_on_c, 0, 60, 112
17, 298596, Note_off_c, 0, 60, 0
17, 298597, Note_on_c, 0, 62, 112
17, 298884, Note_off_c, 0, 62, 0
17, 298885, Note_on_c, 0, 64, 112
17, 299556, Note_off_c, 0, 64, 0
17, 299557, Note_on_c, 0, 60, 112
17, 300036, Note_off_c, 0, 60, 0
17, 300037, Note_on_c, 0, 64, 112
17, 300516, Note_off_c, 0, 64, 0
17, 300517, Note_on_c, 0, 60, 112
17, 300996, Note_off_c, 0, 60, 0
17, 300997, Note_on_c, 0, 69, 112
17, 301284, Note_off_c, 0, 69, 0
17, 301285, Note_on_c, 0, 69, 112
17, 301759, Note_off_c, 0, 69, 0
17, 301765, Note_on_c, 0, 64, 112
17, 302721, Note_off_c, 0, 64, 0
17, 302725, Note_on_c, 0, 57, 112
17, 302916, Note_off_c, 0, 57, 0
17, 302917, Note_on_c, 0, 64, 112
17, 303396, Note_off_c, 0, 64, 0
17, 303397, Note_on_c, 0, 63, 112
17, 303876, Note_off_c, 0, 63, 0
17, 303877, Note_on_c, 0, 64, 112
17, 304164, Note_off_c, 0, 64, 0
17, 304165, Note_on_c, 0, 67, 112
17, 304639, Note_off_c, 0, 67, 0
17, 304645, Note_on_c, 0, 64, 112
17, 305316, Note_off_c, 0, 64, 0
17, 305317, Note_on_c, 0, 55, 112
17, 305796, Note_off_c, 0, 55, 0
17, 305797, Note_on_c, 0, 57, 112
17, 306276, Note_off_c, 0, 57, 0
17, 306277, Note_on_c, 0, 60, 112
17, 306564, Note_off_c, 0, 60, 0
17, 306565, Note_on_c, 0, 60, 112
17, 308676, Note_off_c, 0, 60, 0
17, 308964, Note_on_c, 0, 64, 112
17, 309635, Note_off_c, 0, 64, 0
17, 309637, Note_on_c, 0, 65, 112
17, 310116, Note_off_c, 0, 65, 0
17, 310117, Note_on_c, 0, 67, 112
17, 310596, Note_off_c, 0, 67, 0
17, 310597, Note_on_c, 0, 69, 112
17, 310884, Note_off_c, 0, 69, 0
17, 310885, Note_on_c, 0, 65, 112
17, 311076, Note_off_c, 0, 65, 0
17, 311077, Note_on_c, 0, 67, 112
17, 311364, Note_off_c, 0, 67, 0
17, 311365, Note_on_c, 0, 69, 112
17, 311556, Note_off_c, 0, 69, 0
17, 311845, Note_on_c, 0, 65, 112
17, 312036, Note_off_c, 0, 65, 0
17, 312037, Note_on_c, 0, 67, 112
17, 312324, Note_off_c, 0, 67, 0
17, 312325, Note_on_c, 0, 69, 112
17, 312804, Note_off_c, 0, 69, 0
17, 312997, Note_on_c, 0, 72, 112
17, 313956, Note_off_c, 0, 72, 0
17, 313957, Note_on_c, 0, 71, 112
17, 314436, Note_off_c, 0, 71, 0
17, 314917, Note_on_c, 0, 67, 112
17, 315679, Note_off_c, 0, 67, 0
17, 315684, Note_on_c, 0, 64, 112
17, 316355, Note_off_c, 0, 64, 0
17, 316357, Note_on_c, 0, 70, 112
17, 316644, Note_off_c, 0, 70, 0
17, 316837, Note_on_c, 0, 70, 112
17, 317124, Note_off_c, 0, 70, 0
17, 317125, Note_on_c, 0, 69, 112
17, 318081, Note_off_c, 0, 69, 0
17, 318277, Note_on_c, 0, 64, 112
17, 318564, Note_off_c, 0, 64, 0
17, 318757, Note_on_c, 0, 64, 112
17, 319044, Note_off_c, 0, 64, 0
17, 319045, Note_on_c, 0, 60, 112
17, 319236, Note_off_c, 0, 60, 0
17, 319524, Note_on_c, 0, 57, 112
17, 320195, Note_off_c, 0, 57, 0
17, 320197, Note_on_c, 0, 64, 112
17, 320484, Note_off_c, 0, 64, 0
17, 320677, Note_on_c, 0, 64, 112
17, 320964, Note_off_c, 0, 64, 0
17, 320965, Note_on_c, 0, 60, 112
17, 321156, Note_off_c, 0, 60, 0
17, 321444, Note_on_c, 0, 55, 112
17, 322115, Note_off_c, 0, 55, 0
17, 322117, Note_on_c, 0, 67, 112
17, 324036, Note_off_c, 0, 67, 0
17, 436645, Note_on_c, 0, 55, 112
17, 436836, Note_off_c, 0, 55, 0
17, 436837, Note_on_c, 0, 57, 112
17, 437124, Note_off_c, 0, 57, 0
17, 437125, Note_on_c, 0, 60, 112
17, 437152, Note_off_c, 0, 60, 0
17, 438977, Note_on_c, 0, 71, 112
17, 438977, Note_on_c, 0, 66, 112
17, 439648, Note_off_c, 0, 71, 0
17, 439648, Note_off_c, 0, 66, 0
17, 439649, Note_on_c, 0, 69, 112
17, 439649, Note_on_c, 0, 66, 112
17, 440128, Note_off_c, 0, 66, 0
17, 440128, Note_off_c, 0, 69, 0
17, 440129, Note_on_c, 0, 64, 112
17, 440129, Note_on_c, 0, 68, 112
17, 440608, Note_off_c, 0, 64, 0
17, 440608, Note_off_c, 0, 68, 0
17, 440609, Note_on_c, 0, 66, 112
17, 440609, Note_on_c, 0, 69, 112
17, 440896, Note_off_c, 0, 66, 0
17, 440896, Note_off_c, 0, 69, 0
17, 440897, Note_on_c, 0, 68, 112
17, 440897, Note_on_c, 0, 71, 112
17, 441568, Note_off_c, 0, 68, 0
17, 441568, Note_off_c, 0, 71, 0
17, 442817, Note_on_c, 0, 71, 112
17, 442817, Note_on_c, 0, 68, 112
17, 443488, Note_off_c, 0, 68, 0
17, 443488, Note_off_c, 0, 71, 0
17, 443489, Note_on_c, 0, 69, 112
17, 443489, Note_on_c, 0, 65, 112
17, 443968, Note_off_c, 0, 65, 0
17, 443968, Note_off_c, 0, 69, 0
17, 443969, Note_on_c, 0, 65, 112
17, 443969, Note_on_c, 0, 68, 112
17, 444256, Note_off_c, 0, 65, 0
17, 444256, Note_off_c, 0, 68, 0
17, 444257, Note_on_c, 0, 65, 112
17, 444257, Note_on_c, 0, 69, 112
17, 444731, Note_off_c, 0, 65, 0
17, 444731, Note_off_c, 0, 69, 0
17, 444737, Note_on_c, 0, 71, 112
17, 444737, Note_on_c, 0, 68, 112
17, 444737, Note_on_c, 0, 66, 112
17, 445408, Note_off_c, 0, 71, 0
17, 445408, Note_off_c, 0, 68, 0
17, 445408, Note_off_c, 0, 66, 0
17, 449249, Note_on_c, 0, 68, 112
17, 449249, Note_on_c, 0, 63, 112
17, 449728, Note_off_c, 0, 68, 0
17, 449728, Note_off_c, 0, 63, 0
17, 449729, Note_on_c, 0, 68, 112
17, 449729, Note_on_c, 0, 74, 112
17, 450208, Note_off_c, 0, 68, 0
17, 450208, Note_off_c, 0, 74, 0
17, 450209, Note_on_c, 0, 78, 112
17, 450209, Note_on_c, 0, 74, 112
17, 450688, Note_off_c, 0, 78, 0
17, 450688, Note_off_c, 0, 74, 0
17, 450689, Note_on_c, 0, 77, 112
17, 450689, Note_on_c, 0, 73, 112
17, 451168, Note_off_c, 0, 77, 0
17, 451168, Note_off_c, 0, 73, 0
17, 454337, Note_on_c, 0, 66, 112
17, 454337, Note_on_c, 0, 71, 112
17, 455008, Note_off_c, 0, 66, 0
17, 455008, Note_off_c, 0, 71, 0
17, 455009, Note_on_c, 0, 69, 112
17, 455009, Note_on_c, 0, 66, 112
17, 455488, Note_off_c, 0, 69, 0
17, 455488, Note_off_c, 0, 66, 0
17, 455489, Note_on_c, 0, 68, 112
17, 455489, Note_on_c, 0, 66, 112
17, 455776, Note_off_c, 0, 68, 0
17, 455776, Note_off_c, 0, 66, 0
17, 455777, Note_on_c, 0, 69, 112
17, 455777, Note_on_c, 0, 66, 112
17, 456251, Note_off_c, 0, 69, 0
17, 456251, Note_off_c, 0, 66, 0
17, 456257, Note_on_c, 0, 71, 112
17, 456257, Note_on_c, 0, 66, 112
17, 457408, Note_off_c, 0, 66, 0
17, 457408, Note_off_c, 0, 71, 0
17, 508609, Note_on_c, 0, 65, 112
17, 508928, Note_off_c, 0, 65, 0
17, 508929, Note_on_c, 0, 68, 112
17, 509248, Note_off_c, 0, 68, 0
17, 509249, Note_on_c, 0, 77, 112
17, 509568, Note_off_c, 0, 77, 0
17, 509569, Note_on_c, 0, 73, 112
17, 509888, Note_off_c, 0, 73, 0
17, 509889, Note_on_c, 0, 75, 112
17, 510208, Note_off_c, 0, 75, 0
17, 510209, Note_on_c, 0, 80, 112
17, 512128, Note_off_c, 0, 80, 0
17, 512128, End_track
18, 0, Start_track
18, 0, Title_t, "celtic harp"
18, 0, Instrument_name_t, "Celtic Harp"
18, 0, Program_c, 1, 0
18, 19200, Note_on_c, 1, 33, 81
18, 19440, Note_off_c, 1, 33, 0
18, 19440, Note_on_c, 1, 35, 77
18, 19680, Note_off_c, 1, 35, 0
18, 19680, Note_on_c, 1, 40, 80
18, 19920, Note_off_c, 1, 40, 0
18, 19920, Note_on_c, 1, 45, 84
18, 20160, Note_off_c, 1, 45, 0
18, 20160, Note_on_c, 1, 47, 85
18, 20400, Note_off_c, 1, 47, 0
18, 20400, Note_on_c, 1, 52, 88
18, 20640, Note_off_c, 1, 52, 0
18, 20640, Note_on_c, 1, 57, 88
18, 20880, Note_off_c, 1, 57, 0
18, 20880, Note_on_c, 1, 59, 88
18, 21120, Note_off_c, 1, 59, 0
18, 21120, Note_on_c, 1, 64, 91
18, 21360, Note_off_c, 1, 64, 0
18, 21360, Note_on_c, 1, 69, 88
18, 21600, Note_off_c, 1, 69, 0
18, 21600, Note_on_c, 1, 71, 88
18, 21840, Note_off_c, 1, 71, 0
18, 21840, Note_on_c, 1, 76, 88
18, 22080, Note_off_c, 1, 76, 0
18, 22080, Note_on_c, 1, 81, 88
18, 22320, Note_off_c, 1, 81, 0
18, 22320, Note_on_c, 1, 83, 88
18, 22560, Note_off_c, 1, 83, 0
18, 22560, Note_on_c, 1, 88, 88
18, 22800, Note_off_c, 1, 88, 0
18, 22800, Note_on_c, 1, 93, 88
18, 23040, Note_off_c, 1, 93, 0
18, 84480, Note_on_c, 1, 52, 81
18, 84480, Note_on_c, 1, 57, 81
18, 84480, Note_on_c, 1, 60, 81
18, 85440, Note_off_c, 1, 52, 0
18, 85440, Note_off_c, 1, 57, 0
18, 85440, Note_off_c, 1, 60, 0
18, 86400, Note_on_c, 1, 57, 82
18, 86400, Note_on_c, 1, 60, 82
18, 86400, Note_on_c, 1, 69, 82
18, 87360, Note_off_c, 1, 57, 0
18, 87360, Note_off_c, 1, 60, 0
18, 87360, Note_off_c, 1, 69, 0
18, 88320, Note_on_c, 1, 55, 79
18, 88320, Note_on_c, 1, 59, 79
18, 88320, Note_on_c, 1, 62, 79
18, 89280, Note_off_c, 1, 55, 0
18, 89280, Note_off_c, 1, 59, 0
18, 89280, Note_off_c, 1, 62, 0
18, 90240, Note_on_c, 1, 59, 81
18, 90240, Note_on_c, 1, 62, 81
18, 90240, Note_on_c, 1, 67, 81
18, 91200, Note_off_c, 1, 59, 0
18, 91200, Note_off_c, 1, 62, 0
18, 91200, Note_off_c, 1, 67, 0
18, 92160, Note_on_c, 1, 67, 81
18, 92160, Note_on_c, 1, 62, 81
18, 92160, Note_on_c, 1, 59, 81
18, 93120, Note_off_c, 1, 62, 0
18, 93120, Note_off_c, 1, 67, 0
18, 93120, Note_off_c, 1, 59, 0
18, 94080, Note_on_c, 1, 62, 81
18, 94080, Note_on_c, 1, 67, 81
18, 94080, Note_on_c, 1, 71, 81
18, 95040, Note_off_c, 1, 62, 0
18, 95040, Note_off_c, 1, 67, 0
18, 95040, Note_off_c, 1, 71, 0
18, 96000, Note_on_c, 1, 52, 77
18, 96000, Note_on_c, 1, 55, 77
18, 96000, Note_on_c, 1, 59, 77
18, 96960, Note_off_c, 1, 52, 0
18, 96960, Note_off_c, 1, 55, 0
18, 96960, Note_off_c, 1, 59, 0
18, 97920, Note_on_c, 1, 55, 80
18, 97920, Note_on_c, 1, 59, 80
18, 97920, Note_on_c, 1, 64, 80
18, 98880, Note_off_c, 1, 55, 0
18, 98880, Note_off_c, 1, 59, 0
18, 98880, Note_off_c, 1, 64, 0
18, 115200, Note_on_c, 1, 52, 81
18, 115200, Note_on_c, 1, 57, 81
18, 115200, Note_on_c, 1, 60, 81
18, 115201, Note_off_c, 1, 60, 0
18, 115201, Note_off_c, 1, 52, 0
18, 115201, Note_off_c, 1, 57, 0
18, 115201, End_track
19, 0, Start_track
19, 0, Title_t, "Alto Sax. 1"
19, 0, Instrument_name_t, "Alto Saxophone"
19, 0, Program_c, 2, 65
19, 145039, Note_on_c, 2, 73, 83
19, 145473, Note_off_c, 2, 73, 0
19, 145515, Note_on_c, 2, 71, 81
19, 145710, Note_off_c, 2, 71, 0
19, 145751, Note_on_c, 2, 69, 80
19, 145948, Note_off_c, 2, 69, 0
19, 145991, Note_on_c, 2, 68, 80
19, 148838, Note_off_c, 2, 68, 0
19, 148879, Note_on_c, 2, 66, 83
19, 149077, Note_off_c, 2, 66, 0
19, 149118, Note_on_c, 2, 68, 80
19, 149313, Note_off_c, 2, 68, 0
19, 149355, Note_on_c, 2, 69, 81
19, 149550, Note_off_c, 2, 69, 0
19, 149591, Note_on_c, 2, 71, 80
19, 149788, Note_off_c, 2, 71, 0
19, 149831, Note_on_c, 2, 68, 80
19, 152678, Note_off_c, 2, 68, 0
19, 152719, Note_on_c, 2, 66, 83
19, 152917, Note_off_c, 2, 66, 0
19, 152958, Note_on_c, 2, 68, 80
19, 153153, Note_off_c, 2, 68, 0
19, 153195, Note_on_c, 2, 69, 81
19, 153390, Note_off_c, 2, 69, 0
19, 153431, Note_on_c, 2, 71, 80
19, 153628, Note_off_c, 2, 71, 0
19, 153671, Note_on_c, 2, 68, 80
19, 155548, Note_off_c, 2, 68, 0
19, 156083, Note_on_c, 2, 63, 80
19, 156279, Note_off_c, 2, 63, 0
19, 156320, Note_on_c, 2, 64, 79
19, 156518, Note_off_c, 2, 64, 0
19, 156559, Note_on_c, 2, 66, 82
19, 156993, Note_off_c, 2, 66, 0
19, 157035, Note_on_c, 2, 64, 80
19, 157230, Note_off_c, 2, 64, 0
19, 157271, Note_on_c, 2, 63, 79
19, 157468, Note_off_c, 2, 63, 0
19, 157511, Note_on_c, 2, 64, 84
19, 157962, Note_off_c, 2, 64, 0
19, 158003, Note_on_c, 2, 61, 79
19, 159388, Note_off_c, 2, 61, 0
19, 159431, Note_on_c, 2, 68, 84
19, 159882, Note_off_c, 2, 68, 0
19, 159923, Note_on_c, 2, 66, 80
19, 160358, Note_off_c, 2, 66, 0
19, 160399, Note_on_c, 2, 64, 82
19, 161308, Note_off_c, 2, 64, 0
19, 169031, Note_on_c, 2, 63, 98
19, 169959, Note_off_c, 2, 63, 0
19, 169999, Note_on_c, 2, 64, 96
19, 170435, Note_off_c, 2, 64, 0
19, 170475, Note_on_c, 2, 66, 94
19, 170909, Note_off_c, 2, 66, 0
19, 170951, Note_on_c, 2, 66, 98
19, 171403, Note_off_c, 2, 66, 0
19, 171443, Note_on_c, 2, 64, 94
19, 171879, Note_off_c, 2, 64, 0
19, 171919, Note_on_c, 2, 63, 96
19, 172829, Note_off_c, 2, 63, 0
19, 172871, Note_on_c, 2, 64, 98
19, 173323, Note_off_c, 2, 64, 0
19, 173363, Note_on_c, 2, 66, 94
19, 173799, Note_off_c, 2, 66, 0
19, 173839, Note_on_c, 2, 68, 96
19, 176669, Note_off_c, 2, 68, 0
19, 176711, Note_on_c, 2, 66, 98
19, 177639, Note_off_c, 2, 66, 0
19, 177679, Note_on_c, 2, 68, 96
19, 178115, Note_off_c, 2, 68, 0
19, 178155, Note_on_c, 2, 69, 94
19, 178589, Note_off_c, 2, 69, 0
19, 178631, Note_on_c, 2, 69, 98
19, 179083, Note_off_c, 2, 69, 0
19, 179123, Note_on_c, 2, 68, 94
19, 179559, Note_off_c, 2, 68, 0
19, 179599, Note_on_c, 2, 66, 96
19, 180509, Note_off_c, 2, 66, 0
19, 180551, Note_on_c, 2, 64, 86
19, 180750, Note_off_c, 2, 64, 0
19, 180805, Note_on_c, 2, 64, 81
19, 180988, Note_off_c, 2, 64, 0
19, 181043, Note_on_c, 2, 64, 82
19, 181225, Note_off_c, 2, 64, 0
19, 181280, Note_on_c, 2, 64, 81
19, 181464, Note_off_c, 2, 64, 0
19, 181519, Note_on_c, 2, 64, 84
19, 181703, Note_off_c, 2, 64, 0
19, 181758, Note_on_c, 2, 64, 81
19, 181940, Note_off_c, 2, 64, 0
19, 181995, Note_on_c, 2, 64, 82
19, 182176, Note_off_c, 2, 64, 0
19, 182231, Note_on_c, 2, 64, 81
19, 182414, Note_off_c, 2, 64, 0
19, 182471, Note_on_c, 2, 64, 86
19, 182670, Note_off_c, 2, 64, 0
19, 182725, Note_on_c, 2, 64, 81
19, 182908, Note_off_c, 2, 64, 0
19, 182963, Note_on_c, 2, 64, 82
19, 183145, Note_off_c, 2, 64, 0
19, 183200, Note_on_c, 2, 64, 81
19, 183384, Note_off_c, 2, 64, 0
19, 183439, Note_on_c, 2, 64, 84
19, 183623, Note_off_c, 2, 64, 0
19, 183678, Note_on_c, 2, 64, 81
19, 183860, Note_off_c, 2, 64, 0
19, 183915, Note_on_c, 2, 64, 82
19, 184096, Note_off_c, 2, 64, 0
19, 184151, Note_on_c, 2, 64, 81
19, 184382, Note_off_c, 2, 64, 0
19, 184391, Note_on_c, 2, 70, 98
19, 185319, Note_off_c, 2, 70, 0
19, 185359, Note_on_c, 2, 71, 96
19, 185795, Note_off_c, 2, 71, 0
19, 185835, Note_on_c, 2, 73, 94
19, 186269, Note_off_c, 2, 73, 0
19, 186311, Note_on_c, 2, 73, 98
19, 186763, Note_off_c, 2, 73, 0
19, 186803, Note_on_c, 2, 71, 94
19, 187239, Note_off_c, 2, 71, 0
19, 187279, Note_on_c, 2, 71, 96
19, 187715, Note_off_c, 2, 71, 0
19, 187755, Note_on_c, 2, 70, 94
19, 188189, Note_off_c, 2, 70, 0
19, 192071, Note_on_c, 2, 73, 116
19, 195869, Note_off_c, 2, 73, 0
19, 199751, Note_on_c, 2, 73, 115
19, 203549, Note_off_c, 2, 73, 0
19, 222791, Note_on_c, 2, 68, 97
19, 223719, Note_off_c, 2, 68, 0
19, 223759, Note_on_c, 2, 68, 95
19, 224195, Note_off_c, 2, 68, 0
19, 224235, Note_on_c, 2, 69, 93
19, 224669, Note_off_c, 2, 69, 0
19, 224711, Note_on_c, 2, 68, 97
19, 225163, Note_off_c, 2, 68, 0
19, 225203, Note_on_c, 2, 66, 93
19, 225639, Note_off_c, 2, 66, 0
19, 225679, Note_on_c, 2, 64, 95
19, 226589, Note_off_c, 2, 64, 0
19, 226631, Note_on_c, 2, 71, 97
19, 227559, Note_off_c, 2, 71, 0
19, 227599, Note_on_c, 2, 71, 95
19, 228035, Note_off_c, 2, 71, 0
19, 228075, Note_on_c, 2, 73, 93
19, 228509, Note_off_c, 2, 73, 0
19, 228551, Note_on_c, 2, 71, 97
19, 229479, Note_off_c, 2, 71, 0
19, 229519, Note_on_c, 2, 69, 95
19, 229955, Note_off_c, 2, 69, 0
19, 229995, Note_on_c, 2, 68, 93
19, 230429, Note_off_c, 2, 68, 0
19, 230471, Note_on_c, 2, 69, 97
19, 231399, Note_off_c, 2, 69, 0
19, 231439, Note_on_c, 2, 66, 95
19, 231875, Note_off_c, 2, 66, 0
19, 231915, Note_on_c, 2, 68, 93
19, 232349, Note_off_c, 2, 68, 0
19, 232391, Note_on_c, 2, 69, 97
19, 233319, Note_off_c, 2, 69, 0
19, 233359, Note_on_c, 2, 66, 95
19, 234269, Note_off_c, 2, 66, 0
19, 234311, Note_on_c, 2, 64, 92
19, 236188, Note_off_c, 2, 64, 0
19, 242483, Note_on_c, 2, 67, 117
19, 243393, Note_off_c, 2, 67, 0
19, 243435, Note_on_c, 2, 69, 117
19, 243868, Note_off_c, 2, 69, 0
19, 243911, Note_on_c, 2, 72, 121
19, 244362, Note_off_c, 2, 72, 0
19, 244403, Note_on_c, 2, 70, 117
19, 244838, Note_off_c, 2, 70, 0
19, 244879, Note_on_c, 2, 69, 119
19, 245313, Note_off_c, 2, 69, 0
19, 245355, Note_on_c, 2, 67, 117
19, 245788, Note_off_c, 2, 67, 0
19, 245831, Note_on_c, 2, 70, 121
19, 246758, Note_off_c, 2, 70, 0
19, 246799, Note_on_c, 2, 67, 119
19, 248678, Note_off_c, 2, 67, 0
19, 248719, Note_on_c, 2, 72, 121
19, 249628, Note_off_c, 2, 72, 0
19, 249671, Note_on_c, 2, 71, 118
19, 252450, Note_off_c, 2, 71, 0
19, 252559, Note_on_c, 2, 72, 121
19, 253468, Note_off_c, 2, 72, 0
19, 253511, Note_on_c, 2, 71, 118
19, 256290, Note_off_c, 2, 71, 0
19, 256399, Note_on_c, 2, 72, 121
19, 257308, Note_off_c, 2, 72, 0
19, 259271, Note_on_c, 2, 65, 104
19, 261148, Note_off_c, 2, 65, 0
19, 261191, Note_on_c, 2, 67, 127
19, 261443, Note_off_c, 2, 67, 0
19, 261683, Note_on_c, 2, 55, 127
19, 261792, Note_off_c, 2, 55, 0
19, 261843, Note_on_c, 2, 55, 127
19, 261946, Note_off_c, 2, 55, 0
19, 261997, Note_on_c, 2, 55, 127
19, 262108, Note_off_c, 2, 55, 0
19, 262159, Note_on_c, 2, 55, 127
19, 262593, Note_off_c, 2, 55, 0
19, 262593, End_track
20, 0, Start_track
20, 0, Title_t, "1984"
20, 0, Instrument_name_t, "1984"
20, 0, Program_c, 3, 30
20, 263557, Note_on_c, 3, 55, 80
20, 263716, Note_off_c, 3, 55, 0
20, 263717, Note_on_c, 3, 57, 80
20, 263876, Note_off_c, 3, 57, 0
20, 263877, Note_on_c, 3, 59, 80
20, 264036, Note_off_c, 3, 59, 0
20, 264037, Note_on_c, 3, 60, 80
20, 264196, Note_off_c, 3, 60, 0
20, 264197, Note_on_c, 3, 62, 80
20, 264356, Note_off_c, 3, 62, 0
20, 264357, Note_on_c, 3, 63, 80
20, 264516, Note_off_c, 3, 63, 0
20, 264517, Note_on_c, 3, 60, 80
20, 264996, Note_off_c, 3, 60, 0
20, 264997, Note_on_c, 3, 60, 80
20, 265476, Note_off_c, 3, 60, 0
20, 265477, Note_on_c, 3, 60, 80
20, 265956, Note_off_c, 3, 60, 0
20, 265957, Note_on_c, 3, 60, 80
20, 266436, Note_off_c, 3, 60, 0
20, 266437, Note_on_c, 3, 60, 80
20, 266916, Note_off_c, 3, 60, 0
20, 266917, Note_on_c, 3, 60, 80
20, 267396, Note_off_c, 3, 60, 0
20, 267397, Note_on_c, 3, 60, 80
20, 267876, Note_off_c, 3, 60, 0
20, 267877, Note_on_c, 3, 60, 80
20, 268356, Note_off_c, 3, 60, 0
20, 268357, Note_on_c, 3, 63, 80
20, 268836, Note_off_c, 3, 63, 0
20, 268837, Note_on_c, 3, 63, 80
20, 269316, Note_off_c, 3, 63, 0
20, 269317, Note_on_c, 3, 63, 80
20, 269796, Note_off_c, 3, 63, 0
20, 269797, Note_on_c, 3, 63, 80
20, 270276, Note_off_c, 3, 63, 0
20, 270277, Note_on_c, 3, 63, 80
20, 270756, Note_off_c, 3, 63, 0
20, 270757, Note_on_c, 3, 63, 80
20, 271236, Note_off_c, 3, 63, 0
20, 271237, Note_on_c, 3, 63, 80
20, 271716, Note_off_c, 3, 63, 0
20, 271717, Note_on_c, 3, 63, 80
20, 272196, Note_off_c, 3, 63, 0
20, 272197, Note_on_c, 3, 60, 80
20, 272676, Note_off_c, 3, 60, 0
20, 272677, Note_on_c, 3, 60, 80
20, 273156, Note_off_c, 3, 60, 0
20, 273157, Note_on_c, 3, 60, 80
20, 273636, Note_off_c, 3, 60, 0
20, 273637, Note_on_c, 3, 60, 80
20, 274116, Note_off_c, 3, 60, 0
20, 274117, Note_on_c, 3, 60, 80
20, 274596, Note_off_c, 3, 60, 0
20, 274597, Note_on_c, 3, 60, 80
20, 275076, Note_off_c, 3, 60, 0
20, 275077, Note_on_c, 3, 60, 80
20, 275556, Note_off_c, 3, 60, 0
20, 275557, Note_on_c, 3, 60, 80
20, 276036, Note_off_c, 3, 60, 0
20, 276037, Note_on_c, 3, 62, 80
20, 276516, Note_off_c, 3, 62, 0
20, 276517, Note_on_c, 3, 62, 80
20, 276996, Note_off_c, 3, 62, 0
20, 276997, Note_on_c, 3, 62, 80
20, 277476, Note_off_c, 3, 62, 0
20, 277477, Note_on_c, 3, 62, 80
20, 277956, Note_off_c, 3, 62, 0
20, 277957, Note_on_c, 3, 67, 80
20, 278436, Note_off_c, 3, 67, 0
20, 278437, Note_on_c, 3, 67, 80
20, 278916, Note_off_c, 3, 67, 0
20, 278917, Note_on_c, 3, 67, 80
20, 279396, Note_off_c, 3, 67, 0
20, 279877, Note_on_c, 3, 60, 80
20, 280356, Note_off_c, 3, 60, 0
20, 280357, Note_on_c, 3, 60, 80
20, 280836, Note_off_c, 3, 60, 0
20, 280837, Note_on_c, 3, 60, 80
20, 281316, Note_off_c, 3, 60, 0
20, 281317, Note_on_c, 3, 60, 80
20, 281796, Note_off_c, 3, 60, 0
20, 281797, Note_on_c, 3, 53, 80
20, 282276, Note_off_c, 3, 53, 0
20, 282277, Note_on_c, 3, 53, 80
20, 282756, Note_off_c, 3, 53, 0
20, 282757, Note_on_c, 3, 53, 80
20, 283236, Note_off_c, 3, 53, 0
20, 283237, Note_on_c, 3, 53, 80
20, 283716, Note_off_c, 3, 53, 0
20, 283717, Note_on_c, 3, 60, 80
20, 284196, Note_off_c, 3, 60, 0
20, 284197, Note_on_c, 3, 60, 80
20, 284676, Note_off_c, 3, 60, 0
20, 284677, Note_on_c, 3, 60, 80
20, 285156, Note_off_c, 3, 60, 0
20, 285157, Note_on_c, 3, 60, 80
20, 285636, Note_off_c, 3, 60, 0
20, 285637, Note_on_c, 3, 60, 80
20, 286116, Note_off_c, 3, 60, 0
20, 286117, Note_on_c, 3, 60, 80
20, 286596, Note_off_c, 3, 60, 0
20, 286597, Note_on_c, 3, 60, 80
20, 287076, Note_off_c, 3, 60, 0
20, 287077, Note_on_c, 3, 60, 80
20, 287556, Note_off_c, 3, 60, 0
20, 287557, Note_on_c, 3, 53, 80
20, 288036, Note_off_c, 3, 53, 0
20, 288037, Note_on_c, 3, 53, 80
20, 288516, Note_off_c, 3, 53, 0
20, 288517, Note_on_c, 3, 53, 80
20, 288996, Note_off_c, 3, 53, 0
20, 288997, Note_on_c, 3, 53, 80
20, 289476, Note_off_c, 3, 53, 0
20, 289477, Note_on_c, 3, 53, 80
20, 289956, Note_off_c, 3, 53, 0
20, 289957, Note_on_c, 3, 53, 80
20, 290436, Note_off_c, 3, 53, 0
20, 290437, Note_on_c, 3, 53, 80
20, 290916, Note_off_c, 3, 53, 0
20, 290917, Note_on_c, 3, 53, 80
20, 291396, Note_off_c, 3, 53, 0
20, 291397, Note_on_c, 3, 60, 80
20, 291876, Note_off_c, 3, 60, 0
20, 291877, Note_on_c, 3, 60, 80
20, 292356, Note_off_c, 3, 60, 0
20, 292357, Note_on_c, 3, 57, 80
20, 292836, Note_off_c, 3, 57, 0
20, 292837, Note_on_c, 3, 57, 80
20, 293316, Note_off_c, 3, 57, 0
20, 293317, Note_on_c, 3, 62, 80
20, 293796, Note_off_c, 3, 62, 0
20, 293797, Note_on_c, 3, 62, 80
20, 294276, Note_off_c, 3, 62, 0
20, 294277, Note_on_c, 3, 55, 80
20, 294756, Note_off_c, 3, 55, 0
20, 294757, Note_on_c, 3, 55, 80
20, 295236, Note_off_c, 3, 55, 0
20, 295237, Note_on_c, 3, 60, 80
20, 295716, Note_off_c, 3, 60, 0
20, 295717, Note_on_c, 3, 60, 80
20, 296196, Note_off_c, 3, 60, 0
20, 296197, Note_on_c, 3, 60, 80
20, 296676, Note_off_c, 3, 60, 0
20, 296677, Note_on_c, 3, 60, 80
20, 297156, Note_off_c, 3, 60, 0
20, 297157, Note_on_c, 3, 53, 80
20, 297636, Note_off_c, 3, 53, 0
20, 297637, Note_on_c, 3, 53, 80
20, 298116, Note_off_c, 3, 53, 0
20, 298117, Note_on_c, 3, 53, 80
20, 298596, Note_off_c, 3, 53, 0
20, 298597, Note_on_c, 3, 53, 80
20, 299076, Note_off_c, 3, 53, 0
20, 299077, Note_on_c, 3, 60, 80
20, 299556, Note_off_c, 3, 60, 0
20, 299557, Note_on_c, 3, 60, 80
20, 300036, Note_off_c, 3, 60, 0
20, 300037, Note_on_c, 3, 60, 80
20, 300516, Note_off_c, 3, 60, 0
20, 300517, Note_on_c, 3, 60, 80
20, 300996, Note_off_c, 3, 60, 0
20, 300997, Note_on_c, 3, 57, 80
20, 301476, Note_off_c, 3, 57, 0
20, 301477, Note_on_c, 3, 57, 80
20, 301956, Note_off_c, 3, 57, 0
20, 301957, Note_on_c, 3, 57, 80
20, 302436, Note_off_c, 3, 57, 0
20, 302437, Note_on_c, 3, 57, 80
20, 302916, Note_off_c, 3, 57, 0
20, 302917, Note_on_c, 3, 62, 80
20, 303396, Note_off_c, 3, 62, 0
20, 303397, Note_on_c, 3, 62, 80
20, 303876, Note_off_c, 3, 62, 0
20, 303877, Note_on_c, 3, 62, 80
20, 304356, Note_off_c, 3, 62, 0
20, 304357, Note_on_c, 3, 62, 80
20, 304836, Note_off_c, 3, 62, 0
20, 304837, Note_on_c, 3, 55, 80
20, 305316, Note_off_c, 3, 55, 0
20, 305317, Note_on_c, 3, 55, 80
20, 305796, Note_off_c, 3, 55, 0
20, 305797, Note_on_c, 3, 55, 80
20, 306276, Note_off_c, 3, 55, 0
20, 306277, Note_on_c, 3, 55, 80
20, 306756, Note_off_c, 3, 55, 0
20, 306757, Note_on_c, 3, 60, 80
20, 307236, Note_off_c, 3, 60, 0
20, 307237, Note_on_c, 3, 60, 80
20, 307716, Note_off_c, 3, 60, 0
20, 307717, Note_on_c, 3, 60, 80
20, 308196, Note_off_c, 3, 60, 0
20, 308197, Note_on_c, 3, 60, 80
20, 308676, Note_off_c, 3, 60, 0
20, 308677, Note_on_c, 3, 60, 80
20, 309156, Note_off_c, 3, 60, 0
20, 309157, Note_on_c, 3, 60, 80
20, 309636, Note_off_c, 3, 60, 0
20, 309637, Note_on_c, 3, 60, 80
20, 310116, Note_off_c, 3, 60, 0
20, 310117, Note_on_c, 3, 60, 80
20, 310596, Note_off_c, 3, 60, 0
20, 310597, Note_on_c, 3, 53, 80
20, 311076, Note_off_c, 3, 53, 0
20, 312325, Note_on_c, 3, 55, 80
20, 312996, Note_off_c, 3, 55, 0
20, 312997, Note_on_c, 3, 55, 80
20, 313476, Note_off_c, 3, 55, 0
20, 313477, Note_on_c, 3, 55, 80
20, 313956, Note_off_c, 3, 55, 0
20, 313957, Note_on_c, 3, 55, 80
20, 314436, Note_off_c, 3, 55, 0
20, 314437, Note_on_c, 3, 60, 80
20, 314916, Note_off_c, 3, 60, 0
20, 314917, Note_on_c, 3, 60, 80
20, 315396, Note_off_c, 3, 60, 0
20, 315397, Note_on_c, 3, 60, 80
20, 315876, Note_off_c, 3, 60, 0
20, 315877, Note_on_c, 3, 60, 80
20, 316356, Note_off_c, 3, 60, 0
20, 316357, Note_on_c, 3, 57, 80
20, 316836, Note_off_c, 3, 57, 0
20, 316837, Note_on_c, 3, 57, 80
20, 317316, Note_off_c, 3, 57, 0
20, 317317, Note_on_c, 3, 57, 80
20, 317796, Note_off_c, 3, 57, 0
20, 317797, Note_on_c, 3, 57, 80
20, 318276, Note_off_c, 3, 57, 0
20, 318277, Note_on_c, 3, 62, 80
20, 318756, Note_off_c, 3, 62, 0
20, 320197, Note_on_c, 3, 62, 80
20, 320676, Note_off_c, 3, 62, 0
20, 322117, Note_on_c, 3, 55, 80
20, 322879, Note_off_c, 3, 55, 0
20, 322885, Note_on_c, 3, 57, 80
20, 323841, Note_off_c, 3, 57, 0
20, 323845, Note_on_c, 3, 58, 80
20, 324799, Note_off_c, 3, 58, 0
20, 324805, Note_on_c, 3, 59, 80
20, 325956, Note_off_c, 3, 59, 0
20, 326277, Note_on_c, 3, 55, 80
20, 326596, Note_off_c, 3, 55, 0
20, 326597, Note_on_c, 3, 55, 80
20, 326916, Note_off_c, 3, 55, 0
20, 326917, Note_on_c, 3, 55, 80
20, 327236, Note_off_c, 3, 55, 0
20, 327237, Note_on_c, 3, 56, 80
20, 327556, Note_off_c, 3, 56, 0
20, 327557, Note_on_c, 3, 57, 80
20, 327876, Note_off_c, 3, 57, 0
20, 327877, Note_on_c, 3, 58, 80
20, 328356, Note_off_c, 3, 58, 0
20, 329797, Note_on_c, 3, 53, 80
20, 330276, Note_off_c, 3, 53, 0
20, 330277, Note_on_c, 3, 53, 80
20, 330756, Note_off_c, 3, 53, 0
20, 330757, Note_on_c, 3, 53, 80
20, 331236, Note_off_c, 3, 53, 0
20, 331237, Note_on_c, 3, 53, 80
20, 331716, Note_off_c, 3, 53, 0
20, 331717, Note_on_c, 3, 58, 80
20, 332196, Note_off_c, 3, 58, 0
20, 332197, Note_on_c, 3, 58, 80
20, 332676, Note_off_c, 3, 58, 0
20, 332677, Note_on_c, 3, 58, 80
20, 333156, Note_off_c, 3, 58, 0
20, 333157, Note_on_c, 3, 58, 80
20, 333636, Note_off_c, 3, 58, 0
20, 333637, Note_on_c, 3, 63, 80
20, 334116, Note_off_c, 3, 63, 0
20, 334117, Note_on_c, 3, 63, 80
20, 334596, Note_off_c, 3, 63, 0
20, 334597, Note_on_c, 3, 63, 80
20, 335076, Note_off_c, 3, 63, 0
20, 335077, Note_on_c, 3, 63, 80
20, 335556, Note_off_c, 3, 63, 0
20, 335557, Note_on_c, 3, 60, 80
20, 336036, Note_off_c, 3, 60, 0
20, 336037, Note_on_c, 3, 60, 80
20, 336516, Note_off_c, 3, 60, 0
20, 336517, Note_on_c, 3, 60, 80
20, 336996, Note_off_c, 3, 60, 0
20, 336997, Note_on_c, 3, 60, 80
20, 337476, Note_off_c, 3, 60, 0
20, 337477, Note_on_c, 3, 53, 80
20, 337956, Note_off_c, 3, 53, 0
20, 337957, Note_on_c, 3, 53, 80
20, 338436, Note_off_c, 3, 53, 0
20, 338437, Note_on_c, 3, 53, 80
20, 338916, Note_off_c, 3, 53, 0
20, 338917, Note_on_c, 3, 53, 80
20, 339396, Note_off_c, 3, 53, 0
20, 339397, Note_on_c, 3, 58, 80
20, 339876, Note_off_c, 3, 58, 0
20, 339877, Note_on_c, 3, 58, 80
20, 340356, Note_off_c, 3, 58, 0
20, 340357, Note_on_c, 3, 58, 80
20, 340836, Note_off_c, 3, 58, 0
20, 340837, Note_on_c, 3, 58, 80
20, 341316, Note_off_c, 3, 58, 0
20, 341317, Note_on_c, 3, 55, 80
20, 341796, Note_off_c, 3, 55, 0
20, 341797, Note_on_c, 3, 55, 80
20, 342276, Note_off_c, 3, 55, 0
20, 342277, Note_on_c, 3, 61, 80
20, 342756, Note_off_c, 3, 61, 0
20, 342757, Note_on_c, 3, 61, 80
20, 343236, Note_off_c, 3, 61, 0
20, 343237, Note_on_c, 3, 60, 80
20, 343716, Note_off_c, 3, 60, 0
20, 345157, Note_on_c, 3, 53, 80
20, 345636, Note_off_c, 3, 53, 0
20, 345637, Note_on_c, 3, 53, 80
20, 346116, Note_off_c, 3, 53, 0
20, 346117, Note_on_c, 3, 53, 80
20, 346596, Note_off_c, 3, 53, 0
20, 346597, Note_on_c, 3, 53, 80
20, 347076, Note_off_c, 3, 53, 0
20, 347077, Note_on_c, 3, 58, 80
20, 347556, Note_off_c, 3, 58, 0
20, 347557, Note_on_c, 3, 58, 80
20, 348036, Note_off_c, 3, 58, 0
20, 348037, Note_on_c, 3, 58, 80
20, 348516, Note_off_c, 3, 58, 0
20, 348517, Note_on_c, 3, 58, 80
20, 348996, Note_off_c, 3, 58, 0
20, 348997, Note_on_c, 3, 63, 80
20, 349476, Note_off_c, 3, 63, 0
20, 349477, Note_on_c, 3, 63, 80
20, 349956, Note_off_c, 3, 63, 0
20, 349957, Note_on_c, 3, 63, 80
20, 350436, Note_off_c, 3, 63, 0
20, 350437, Note_on_c, 3, 63, 80
20, 350916, Note_off_c, 3, 63, 0
20, 350917, Note_on_c, 3, 60, 80
20, 351396, Note_off_c, 3, 60, 0
20, 351397, Note_on_c, 3, 60, 80
20, 351876, Note_off_c, 3, 60, 0
20, 351877, Note_on_c, 3, 60, 80
20, 352356, Note_off_c, 3, 60, 0
20, 352357, Note_on_c, 3, 60, 80
20, 352836, Note_off_c, 3, 60, 0
20, 352837, Note_on_c, 3, 53, 80
20, 353316, Note_off_c, 3, 53, 0
20, 353317, Note_on_c, 3, 53, 80
20, 353796, Note_off_c, 3, 53, 0
20, 353797, Note_on_c, 3, 53, 80
20, 354276, Note_off_c, 3, 53, 0
20, 354277, Note_on_c, 3, 53, 80
20, 354756, Note_off_c, 3, 53, 0
20, 354757, Note_on_c, 3, 58, 80
20, 355236, Note_off_c, 3, 58, 0
20, 355237, Note_on_c, 3, 58, 80
20, 355716, Note_off_c, 3, 58, 0
20, 355717, Note_on_c, 3, 58, 80
20, 356196, Note_off_c, 3, 58, 0
20, 356197, Note_on_c, 3, 58, 80
20, 356676, Note_off_c, 3, 58, 0
20, 356677, Note_on_c, 3, 63, 80
20, 357156, Note_off_c, 3, 63, 0
20, 357157, Note_on_c, 3, 63, 80
20, 357636, Note_off_c, 3, 63, 0
20, 357637, Note_on_c, 3, 63, 80
20, 358116, Note_off_c, 3, 63, 0
20, 358117, Note_on_c, 3, 63, 80
20, 358596, Note_off_c, 3, 63, 0
20, 358597, Note_on_c, 3, 53, 80
20, 359076, Note_off_c, 3, 53, 0
20, 359077, Note_on_c, 3, 53, 80
20, 359556, Note_off_c, 3, 53, 0
20, 359557, Note_on_c, 3, 58, 80
20, 360036, Note_off_c, 3, 58, 0
20, 360037, Note_on_c, 3, 58, 80
20, 360516, Note_off_c, 3, 58, 0
20, 360517, Note_on_c, 3, 53, 80
20, 360996, Note_off_c, 3, 53, 0
20, 360997, Note_on_c, 3, 53, 80
20, 361476, Note_off_c, 3, 53, 0
20, 361477, Note_on_c, 3, 53, 80
20, 361956, Note_off_c, 3, 53, 0
20, 361957, Note_on_c, 3, 53, 80
20, 362436, Note_off_c, 3, 53, 0
20, 362437, Note_on_c, 3, 58, 80
20, 362916, Note_off_c, 3, 58, 0
20, 362917, Note_on_c, 3, 58, 80
20, 363396, Note_off_c, 3, 58, 0
20, 363397, Note_on_c, 3, 58, 80
20, 363876, Note_off_c, 3, 58, 0
20, 363877, Note_on_c, 3, 58, 80
20, 364356, Note_off_c, 3, 58, 0
20, 364357, Note_on_c, 3, 63, 80
20, 364836, Note_off_c, 3, 63, 0
20, 364837, Note_on_c, 3, 63, 80
20, 365316, Note_off_c, 3, 63, 0
20, 365317, Note_on_c, 3, 63, 80
20, 365796, Note_off_c, 3, 63, 0
20, 365797, Note_on_c, 3, 63, 80
20, 366276, Note_off_c, 3, 63, 0
20, 366277, Note_on_c, 3, 60, 80
20, 366756, Note_off_c, 3, 60, 0
20, 366757, Note_on_c, 3, 60, 80
20, 367236, Note_off_c, 3, 60, 0
20, 367237, Note_on_c, 3, 60, 80
20, 367716, Note_off_c, 3, 60, 0
20, 367717, Note_on_c, 3, 60, 80
20, 368196, Note_off_c, 3, 60, 0
20, 368197, Note_on_c, 3, 53, 80
20, 368676, Note_off_c, 3, 53, 0
20, 368677, Note_on_c, 3, 53, 80
20, 369156, Note_off_c, 3, 53, 0
20, 369157, Note_on_c, 3, 53, 80
20, 369636, Note_off_c, 3, 53, 0
20, 369637, Note_on_c, 3, 53, 80
20, 370116, Note_off_c, 3, 53, 0
20, 370117, Note_on_c, 3, 58, 80
20, 370596, Note_off_c, 3, 58, 0
20, 370597, Note_on_c, 3, 58, 80
20, 371076, Note_off_c, 3, 58, 0
20, 371077, Note_on_c, 3, 58, 80
20, 371556, Note_off_c, 3, 58, 0
20, 371557, Note_on_c, 3, 58, 80
20, 372036, Note_off_c, 3, 58, 0
20, 372037, Note_on_c, 3, 55, 80
20, 372516, Note_off_c, 3, 55, 0
20, 372517, Note_on_c, 3, 55, 80
20, 372996, Note_off_c, 3, 55, 0
20, 372997, Note_on_c, 3, 61, 80
20, 373476, Note_off_c, 3, 61, 0
20, 373477, Note_on_c, 3, 61, 80
20, 373956, Note_off_c, 3, 61, 0
20, 373957, Note_on_c, 3, 60, 80
20, 374436, Note_off_c, 3, 60, 0
20, 375877, Note_on_c, 3, 53, 80
20, 376356, Note_off_c, 3, 53, 0
20, 376357, Note_on_c, 3, 53, 80
20, 376836, Note_off_c, 3, 53, 0
20, 376837, Note_on_c, 3, 53, 80
20, 377316, Note_off_c, 3, 53, 0
20, 377317, Note_on_c, 3, 53, 80
20, 377796, Note_off_c, 3, 53, 0
20, 377797, Note_on_c, 3, 58, 80
20, 378276, Note_off_c, 3, 58, 0
20, 378277, Note_on_c, 3, 58, 80
20, 378756, Note_off_c, 3, 58, 0
20, 378757, Note_on_c, 3, 58, 80
20, 379236, Note_off_c, 3, 58, 0
20, 379237, Note_on_c, 3, 58, 80
20, 379716, Note_off_c, 3, 58, 0
20, 379717, Note_on_c, 3, 51, 80
20, 380196, Note_off_c, 3, 51, 0
20, 380197, Note_on_c, 3, 51, 80
20, 380676, Note_off_c, 3, 51, 0
20, 380677, Note_on_c, 3, 51, 80
20, 381156, Note_off_c, 3, 51, 0
20, 381157, Note_on_c, 3, 51, 80
20, 381636, Note_off_c, 3, 51, 0
20, 381637, Note_on_c, 3, 60, 80
20, 382116, Note_off_c, 3, 60, 0
20, 382117, Note_on_c, 3, 60, 80
20, 382596, Note_off_c, 3, 60, 0
20, 382597, Note_on_c, 3, 60, 80
20, 383076, Note_off_c, 3, 60, 0
20, 383077, Note_on_c, 3, 60, 80
20, 383556, Note_off_c, 3, 60, 0
20, 383557, Note_on_c, 3, 53, 80
20, 384036, Note_off_c, 3, 53, 0
20, 384037, Note_on_c, 3, 53, 80
20, 384516, Note_off_c, 3, 53, 0
20, 384517, Note_on_c, 3, 53, 80
20, 384996, Note_off_c, 3, 53, 0
20, 384997, Note_on_c, 3, 53, 80
20, 385476, Note_off_c, 3, 53, 0
20, 385477, Note_on_c, 3, 58, 80
20, 385956, Note_off_c, 3, 58, 0
20, 385957, Note_on_c, 3, 58, 80
20, 386436, Note_off_c, 3, 58, 0
20, 386437, Note_on_c, 3, 58, 80
20, 386916, Note_off_c, 3, 58, 0
20, 386917, Note_on_c, 3, 58, 80
20, 387396, Note_off_c, 3, 58, 0
20, 387397, Note_on_c, 3, 55, 80
20, 387876, Note_off_c, 3, 55, 0
20, 387877, Note_on_c, 3, 55, 80
20, 388356, Note_off_c, 3, 55, 0
20, 388357, Note_on_c, 3, 55, 80
20, 388836, Note_off_c, 3, 55, 0
20, 388837, Note_on_c, 3, 55, 80
20, 389316, Note_off_c, 3, 55, 0
20, 389317, Note_on_c, 3, 60, 80
20, 389796, Note_off_c, 3, 60, 0
20, 389797, Note_on_c, 3, 60, 80
20, 390276, Note_off_c, 3, 60, 0
20, 390277, Note_on_c, 3, 60, 80
20, 390756, Note_off_c, 3, 60, 0
20, 390757, Note_on_c, 3, 60, 80
20, 391236, Note_off_c, 3, 60, 0
20, 391237, Note_on_c, 3, 53, 80
20, 391716, Note_off_c, 3, 53, 0
20, 391717, Note_on_c, 3, 53, 80
20, 392196, Note_off_c, 3, 53, 0
20, 392197, Note_on_c, 3, 53, 80
20, 392676, Note_off_c, 3, 53, 0
20, 392677, Note_on_c, 3, 53, 80
20, 393156, Note_off_c, 3, 53, 0
20, 393157, Note_on_c, 3, 58, 80
20, 393636, Note_off_c, 3, 58, 0
20, 393637, Note_on_c, 3, 58, 80
20, 394116, Note_off_c, 3, 58, 0
20, 394117, Note_on_c, 3, 58, 80
20, 394596, Note_off_c, 3, 58, 0
20, 394597, Note_on_c, 3, 58, 80
20, 395076, Note_off_c, 3, 58, 0
20, 395364, Note_on_c, 3, 54, 80
20, 396035, Note_off_c, 3, 54, 0
20, 396037, Note_on_c, 3, 59, 80
20, 396799, Note_off_c, 3, 59, 0
20, 396805, Note_on_c, 3, 52, 80
20, 397476, Note_off_c, 3, 52, 0
20, 398917, Note_on_c, 3, 51, 80
20, 399396, Note_off_c, 3, 51, 0
20, 399397, Note_on_c, 3, 51, 80
20, 399876, Note_off_c, 3, 51, 0
20, 399877, Note_on_c, 3, 51, 80
20, 400356, Note_off_c, 3, 51, 0
20, 400357, Note_on_c, 3, 51, 80
20, 400836, Note_off_c, 3, 51, 0
20, 400837, Note_on_c, 3, 51, 80
20, 401316, Note_off_c, 3, 51, 0
20, 401317, Note_on_c, 3, 51, 80
20, 401796, Note_off_c, 3, 51, 0
20, 401797, Note_on_c, 3, 51, 80
20, 402276, Note_off_c, 3, 51, 0
20, 402277, Note_on_c, 3, 51, 80
20, 402756, Note_off_c, 3, 51, 0
20, 402757, Note_on_c, 3, 51, 80
20, 403236, Note_off_c, 3, 51, 0
20, 403237, Note_on_c, 3, 51, 80
20, 403716, Note_off_c, 3, 51, 0
20, 403717, Note_on_c, 3, 51, 80
20, 404196, Note_off_c, 3, 51, 0
20, 404197, Note_on_c, 3, 51, 80
20, 404676, Note_off_c, 3, 51, 0
20, 404677, Note_on_c, 3, 51, 80
20, 405156, Note_off_c, 3, 51, 0
20, 406597, Note_on_c, 3, 51, 80
20, 407076, Note_off_c, 3, 51, 0
20, 407077, Note_on_c, 3, 51, 80
20, 407556, Note_off_c, 3, 51, 0
20, 407557, Note_on_c, 3, 51, 80
20, 408036, Note_off_c, 3, 51, 0
20, 408037, Note_on_c, 3, 51, 80
20, 408516, Note_off_c, 3, 51, 0
20, 408517, Note_on_c, 3, 51, 80
20, 408996, Note_off_c, 3, 51, 0
20, 408997, Note_on_c, 3, 51, 80
20, 409476, Note_off_c, 3, 51, 0
20, 409477, Note_on_c, 3, 51, 80
20, 409956, Note_off_c, 3, 51, 0
20, 409957, Note_on_c, 3, 51, 80
20, 410436, Note_off_c, 3, 51, 0
20, 410437, Note_on_c, 3, 51, 80
20, 410916, Note_off_c, 3, 51, 0
20, 410917, Note_on_c, 3, 51, 80
20, 411396, Note_off_c, 3, 51, 0
20, 411397, Note_on_c, 3, 51, 80
20, 411876, Note_off_c, 3, 51, 0
20, 411877, Note_on_c, 3, 51, 80
20, 412356, Note_off_c, 3, 51, 0
20, 412357, Note_on_c, 3, 51, 80
20, 412836, Note_off_c, 3, 51, 0
20, 414277, Note_on_c, 3, 51, 80
20, 414756, Note_off_c, 3, 51, 0
20, 414757, Note_on_c, 3, 51, 80
20, 415236, Note_off_c, 3, 51, 0
20, 415237, Note_on_c, 3, 51, 80
20, 415716, Note_off_c, 3, 51, 0
20, 415717, Note_on_c, 3, 51, 80
20, 416196, Note_off_c, 3, 51, 0
20, 416197, Note_on_c, 3, 51, 80
20, 416676, Note_off_c, 3, 51, 0
20, 416677, Note_on_c, 3, 51, 80
20, 417156, Note_off_c, 3, 51, 0
20, 417157, Note_on_c, 3, 51, 80
20, 417636, Note_off_c, 3, 51, 0
20, 417637, Note_on_c, 3, 51, 80
20, 418116, Note_off_c, 3, 51, 0
20, 418117, Note_on_c, 3, 51, 80
20, 418596, Note_off_c, 3, 51, 0
20, 418597, Note_on_c, 3, 51, 80
20, 419076, Note_off_c, 3, 51, 0
20, 419077, Note_on_c, 3, 51, 80
20, 419556, Note_off_c, 3, 51, 0
20, 419557, Note_on_c, 3, 51, 80
20, 420036, Note_off_c, 3, 51, 0
20, 420037, Note_on_c, 3, 51, 80
20, 420516, Note_off_c, 3, 51, 0
20, 421957, Note_on_c, 3, 51, 80
20, 422436, Note_off_c, 3, 51, 0
20, 422437, Note_on_c, 3, 51, 80
20, 422916, Note_off_c, 3, 51, 0
20, 422917, Note_on_c, 3, 51, 80
20, 423396, Note_off_c, 3, 51, 0
20, 423397, Note_on_c, 3, 51, 80
20, 423876, Note_off_c, 3, 51, 0
20, 423877, Note_on_c, 3, 51, 80
20, 424356, Note_off_c, 3, 51, 0
20, 424357, Note_on_c, 3, 51, 80
20, 424836, Note_off_c, 3, 51, 0
20, 424837, Note_on_c, 3, 51, 80
20, 425316, Note_off_c, 3, 51, 0
20, 425317, Note_on_c, 3, 51, 80
20, 425796, Note_off_c, 3, 51, 0
20, 425797, Note_on_c, 3, 51, 80
20, 426276, Note_off_c, 3, 51, 0
20, 426277, Note_on_c, 3, 51, 80
20, 426756, Note_off_c, 3, 51, 0
20, 426757, Note_on_c, 3, 51, 80
20, 427236, Note_off_c, 3, 51, 0
20, 427237, Note_on_c, 3, 51, 80
20, 427716, Note_off_c, 3, 51, 0
20, 427717, Note_on_c, 3, 51, 80
20, 428196, Note_off_c, 3, 51, 0
20, 429637, Note_on_c, 3, 50, 80
20, 430116, Note_off_c, 3, 50, 0
20, 430117, Note_on_c, 3, 50, 80
20, 430596, Note_off_c, 3, 50, 0
20, 430597, Note_on_c, 3, 50, 80
20, 431076, Note_off_c, 3, 50, 0
20, 431077, Note_on_c, 3, 50, 80
20, 431556, Note_off_c, 3, 50, 0
20, 431557, Note_on_c, 3, 50, 80
20, 432036, Note_off_c, 3, 50, 0
20, 432037, Note_on_c, 3, 50, 80
20, 432516, Note_off_c, 3, 50, 0
20, 432517, Note_on_c, 3, 50, 80
20, 432996, Note_off_c, 3, 50, 0
20, 432997, Note_on_c, 3, 50, 80
20, 433476, Note_off_c, 3, 50, 0
20, 433477, Note_on_c, 3, 55, 80
20, 433956, Note_off_c, 3, 55, 0
20, 435397, Note_on_c, 3, 55, 80
20, 435876, Note_off_c, 3, 55, 0
20, 435877, Note_on_c, 3, 55, 80
20, 436356, Note_off_c, 3, 55, 0
20, 436357, Note_on_c, 3, 55, 80
20, 436836, Note_off_c, 3, 55, 0
20, 437249, Note_on_c, 3, 54, 80
20, 437728, Note_off_c, 3, 54, 0
20, 437729, Note_on_c, 3, 54, 80
20, 438208, Note_off_c, 3, 54, 0
20, 438209, Note_on_c, 3, 54, 80
20, 438688, Note_off_c, 3, 54, 0
20, 438689, Note_on_c, 3, 54, 80
20, 439168, Note_off_c, 3, 54, 0
20, 439169, Note_on_c, 3, 59, 80
20, 439648, Note_off_c, 3, 59, 0
20, 439649, Note_on_c, 3, 59, 80
20, 440128, Note_off_c, 3, 59, 0
20, 440129, Note_on_c, 3, 59, 80
20, 440608, Note_off_c, 3, 59, 0
20, 440609, Note_on_c, 3, 59, 80
20, 441088, Note_off_c, 3, 59, 0
20, 441089, Note_on_c, 3, 64, 80
20, 441568, Note_off_c, 3, 64, 0
20, 441569, Note_on_c, 3, 64, 80
20, 442048, Note_off_c, 3, 64, 0
20, 442049, Note_on_c, 3, 64, 80
20, 442528, Note_off_c, 3, 64, 0
20, 442529, Note_on_c, 3, 64, 80
20, 443008, Note_off_c, 3, 64, 0
20, 443009, Note_on_c, 3, 61, 80
20, 443488, Note_off_c, 3, 61, 0
20, 443489, Note_on_c, 3, 61, 80
20, 443968, Note_off_c, 3, 61, 0
20, 443969, Note_on_c, 3, 61, 80
20, 444448, Note_off_c, 3, 61, 0
20, 444449, Note_on_c, 3, 61, 80
20, 444928, Note_off_c, 3, 61, 0
20, 444929, Note_on_c, 3, 54, 80
20, 445408, Note_off_c, 3, 54, 0
20, 445409, Note_on_c, 3, 54, 80
20, 445888, Note_off_c, 3, 54, 0
20, 445889, Note_on_c, 3, 54, 80
20, 446368, Note_off_c, 3, 54, 0
20, 446369, Note_on_c, 3, 54, 80
20, 446848, Note_off_c, 3, 54, 0
20, 446849, Note_on_c, 3, 59, 80
20, 447328, Note_off_c, 3, 59, 0
20, 447329, Note_on_c, 3, 59, 80
20, 447808, Note_off_c, 3, 59, 0
20, 447809, Note_on_c, 3, 59, 80
20, 448288, Note_off_c, 3, 59, 0
20, 448289, Note_on_c, 3, 59, 80
20, 448768, Note_off_c, 3, 59, 0
20, 448769, Note_on_c, 3, 56, 80
20, 449248, Note_off_c, 3, 56, 0
20, 449249, Note_on_c, 3, 56, 80
20, 449728, Note_off_c, 3, 56, 0
20, 449729, Note_on_c, 3, 62, 80
20, 450208, Note_off_c, 3, 62, 0
20, 450209, Note_on_c, 3, 62, 80
20, 450688, Note_off_c, 3, 62, 0
20, 450689, Note_on_c, 3, 61, 80
20, 451168, Note_off_c, 3, 61, 0
20, 452609, Note_on_c, 3, 54, 80
20, 453088, Note_off_c, 3, 54, 0
20, 453089, Note_on_c, 3, 54, 80
20, 453568, Note_off_c, 3, 54, 0
20, 453569, Note_on_c, 3, 54, 80
20, 454048, Note_off_c, 3, 54, 0
20, 454049, Note_on_c, 3, 54, 80
20, 454528, Note_off_c, 3, 54, 0
20, 454529, Note_on_c, 3, 59, 80
20, 455008, Note_off_c, 3, 59, 0
20, 455009, Note_on_c, 3, 59, 80
20, 455488, Note_off_c, 3, 59, 0
20, 455489, Note_on_c, 3, 59, 80
20, 455968, Note_off_c, 3, 59, 0
20, 455969, Note_on_c, 3, 59, 80
20, 456448, Note_off_c, 3, 59, 0
20, 456449, Note_on_c, 3, 64, 80
20, 456928, Note_off_c, 3, 64, 0
20, 456929, Note_on_c, 3, 64, 80
20, 457408, Note_off_c, 3, 64, 0
20, 457409, Note_on_c, 3, 64, 80
20, 457888, Note_off_c, 3, 64, 0
20, 457889, Note_on_c, 3, 64, 80
20, 458368, Note_off_c, 3, 64, 0
20, 458369, Note_on_c, 3, 61, 80
20, 458848, Note_off_c, 3, 61, 0
20, 458849, Note_on_c, 3, 61, 80
20, 459328, Note_off_c, 3, 61, 0
20, 459329, Note_on_c, 3, 61, 80
20, 459808, Note_off_c, 3, 61, 0
20, 459809, Note_on_c, 3, 61, 80
20, 460288, Note_off_c, 3, 61, 0
20, 460289, Note_on_c, 3, 54, 80
20, 460768, Note_off_c, 3, 54, 0
20, 460769, Note_on_c, 3, 54, 80
20, 461248, Note_off_c, 3, 54, 0
20, 461249, Note_on_c, 3, 54, 80
20, 461728, Note_off_c, 3, 54, 0
20, 461729, Note_on_c, 3, 54, 80
20, 462208, Note_off_c, 3, 54, 0
20, 462209, Note_on_c, 3, 59, 80
20, 462688, Note_off_c, 3, 59, 0
20, 462689, Note_on_c, 3, 59, 80
20, 463168, Note_off_c, 3, 59, 0
20, 463169, Note_on_c, 3, 59, 80
20, 463648, Note_off_c, 3, 59, 0
20, 463649, Note_on_c, 3, 59, 80
20, 464128, Note_off_c, 3, 59, 0
20, 464129, Note_on_c, 3, 64, 80
20, 464608, Note_off_c, 3, 64, 0
20, 464609, Note_on_c, 3, 64, 80
20, 465088, Note_off_c, 3, 64, 0
20, 465089, Note_on_c, 3, 64, 80
20, 465568, Note_off_c, 3, 64, 0
20, 465569, Note_on_c, 3, 64, 80
20, 466048, Note_off_c, 3, 64, 0
20, 466049, Note_on_c, 3, 64, 80
20, 466528, Note_off_c, 3, 64, 0
20, 466529, Note_on_c, 3, 64, 80
20, 467008, Note_off_c, 3, 64, 0
20, 467009, Note_on_c, 3, 59, 80
20, 467488, Note_off_c, 3, 59, 0
20, 467489, Note_on_c, 3, 59, 80
20, 467968, Note_off_c, 3, 59, 0
20, 467969, Note_on_c, 3, 54, 80
20, 468448, Note_off_c, 3, 54, 0
20, 468449, Note_on_c, 3, 54, 80
20, 468928, Note_off_c, 3, 54, 0
20, 468929, Note_on_c, 3, 54, 80
20, 469408, Note_off_c, 3, 54, 0
20, 469409, Note_on_c, 3, 54, 80
20, 469888, Note_off_c, 3, 54, 0
20, 469889, Note_on_c, 3, 59, 80
20, 470368, Note_off_c, 3, 59, 0
20, 470369, Note_on_c, 3, 59, 80
20, 470848, Note_off_c, 3, 59, 0
20, 470849, Note_on_c, 3, 59, 80
20, 471328, Note_off_c, 3, 59, 0
20, 471329, Note_on_c, 3, 59, 80
20, 471808, Note_off_c, 3, 59, 0
20, 471809, Note_on_c, 3, 64, 80
20, 472288, Note_off_c, 3, 64, 0
20, 472289, Note_on_c, 3, 64, 80
20, 472768, Note_off_c, 3, 64, 0
20, 472769, Note_on_c, 3, 64, 80
20, 473248, Note_off_c, 3, 64, 0
20, 473249, Note_on_c, 3, 64, 80
20, 473728, Note_off_c, 3, 64, 0
20, 473729, Note_on_c, 3, 61, 80
20, 474208, Note_off_c, 3, 61, 0
20, 474209, Note_on_c, 3, 61, 80
20, 474688, Note_off_c, 3, 61, 0
20, 474689, Note_on_c, 3, 61, 80
20, 475168, Note_off_c, 3, 61, 0
20, 475169, Note_on_c, 3, 61, 80
20, 475648, Note_off_c, 3, 61, 0
20, 475649, Note_on_c, 3, 54, 80
20, 476128, Note_off_c, 3, 54, 0
20, 476129, Note_on_c, 3, 54, 80
20, 476608, Note_off_c, 3, 54, 0
20, 476609, Note_on_c, 3, 54, 80
20, 477088, Note_off_c, 3, 54, 0
20, 477089, Note_on_c, 3, 54, 80
20, 477568, Note_off_c, 3, 54, 0
20, 477569, Note_on_c, 3, 59, 80
20, 478048, Note_off_c, 3, 59, 0
20, 478049, Note_on_c, 3, 59, 80
20, 478528, Note_off_c, 3, 59, 0
20, 478529, Note_on_c, 3, 59, 80
20, 479008, Note_off_c, 3, 59, 0
20, 479009, Note_on_c, 3, 59, 80
20, 479488, Note_off_c, 3, 59, 0
20, 479489, Note_on_c, 3, 56, 80
20, 479968, Note_off_c, 3, 56, 0
20, 479969, Note_on_c, 3, 56, 80
20, 480448, Note_off_c, 3, 56, 0
20, 480449, Note_on_c, 3, 62, 80
20, 480928, Note_off_c, 3, 62, 0
20, 480929, Note_on_c, 3, 62, 80
20, 481408, Note_off_c, 3, 62, 0
20, 481409, Note_on_c, 3, 61, 80
20, 481888, Note_off_c, 3, 61, 0
20, 483329, Note_on_c, 3, 54, 80
20, 483808, Note_off_c, 3, 54, 0
20, 483809, Note_on_c, 3, 54, 80
20, 484288, Note_off_c, 3, 54, 0
20, 484289, Note_on_c, 3, 54, 80
20, 484768, Note_off_c, 3, 54, 0
20, 484769, Note_on_c, 3, 54, 80
20, 485248, Note_off_c, 3, 54, 0
20, 485249, Note_on_c, 3, 59, 80
20, 485728, Note_off_c, 3, 59, 0
20, 485729, Note_on_c, 3, 59, 80
20, 486208, Note_off_c, 3, 59, 0
20, 486209, Note_on_c, 3, 59, 80
20, 486688, Note_off_c, 3, 59, 0
20, 486689, Note_on_c, 3, 59, 80
20, 487168, Note_off_c, 3, 59, 0
20, 487169, Note_on_c, 3, 64, 80
20, 487648, Note_off_c, 3, 64, 0
20, 487649, Note_on_c, 3, 64, 80
20, 488128, Note_off_c, 3, 64, 0
20, 488129, Note_on_c, 3, 64, 80
20, 488608, Note_off_c, 3, 64, 0
20, 488609, Note_on_c, 3, 64, 80
20, 489088, Note_off_c, 3, 64, 0
20, 489089, Note_on_c, 3, 61, 80
20, 489568, Note_off_c, 3, 61, 0
20, 489569, Note_on_c, 3, 61, 80
20, 490048, Note_off_c, 3, 61, 0
20, 490049, Note_on_c, 3, 61, 80
20, 490528, Note_off_c, 3, 61, 0
20, 490529, Note_on_c, 3, 61, 80
20, 491008, Note_off_c, 3, 61, 0
20, 491009, Note_on_c, 3, 54, 80
20, 491488, Note_off_c, 3, 54, 0
20, 491489, Note_on_c, 3, 54, 80
20, 491968, Note_off_c, 3, 54, 0
20, 491969, Note_on_c, 3, 54, 80
20, 492448, Note_off_c, 3, 54, 0
20, 492449, Note_on_c, 3, 54, 80
20, 492928, Note_off_c, 3, 54, 0
20, 492929, Note_on_c, 3, 59, 80
20, 493408, Note_off_c, 3, 59, 0
20, 493409, Note_on_c, 3, 59, 80
20, 493888, Note_off_c, 3, 59, 0
20, 493889, Note_on_c, 3, 59, 80
20, 494368, Note_off_c, 3, 59, 0
20, 494369, Note_on_c, 3, 59, 80
20, 494848, Note_off_c, 3, 59, 0
20, 494849, Note_on_c, 3, 64, 80
20, 495328, Note_off_c, 3, 64, 0
20, 495329, Note_on_c, 3, 64, 80
20, 495808, Note_off_c, 3, 64, 0
20, 495809, Note_on_c, 3, 64, 80
20, 496288, Note_off_c, 3, 64, 0
20, 496289, Note_on_c, 3, 64, 80
20, 496768, Note_off_c, 3, 64, 0
20, 496769, Note_on_c, 3, 61, 80
20, 497248, Note_off_c, 3, 61, 0
20, 497249, Note_on_c, 3, 61, 80
20, 497728, Note_off_c, 3, 61, 0
20, 497729, Note_on_c, 3, 61, 80
20, 498208, Note_off_c, 3, 61, 0
20, 498209, Note_on_c, 3, 61, 80
20, 498688, Note_off_c, 3, 61, 0
20, 498689, Note_on_c, 3, 54, 80
20, 499168, Note_off_c, 3, 54, 0
20, 499169, Note_on_c, 3, 54, 80
20, 499648, Note_off_c, 3, 54, 0
20, 499649, Note_on_c, 3, 54, 80
20, 500128, Note_off_c, 3, 54, 0
20, 500129, Note_on_c, 3, 54, 80
20, 500608, Note_off_c, 3, 54, 0
20, 500609, Note_on_c, 3, 59, 80
20, 501088, Note_off_c, 3, 59, 0
20, 501089, Note_on_c, 3, 59, 80
20, 501568, Note_off_c, 3, 59, 0
20, 501569, Note_on_c, 3, 59, 80
20, 502048, Note_off_c, 3, 59, 0
20, 502049, Note_on_c, 3, 59, 80
20, 502528, Note_off_c, 3, 59, 0
20, 502816, Note_on_c, 3, 55, 80
20, 503487, Note_off_c, 3, 55, 0
20, 503489, Note_on_c, 3, 60, 80
20, 504251, Note_off_c, 3, 60, 0
20, 504257, Note_on_c, 3, 53, 80
20, 504928, Note_off_c, 3, 53, 0
20, 506369, Note_on_c, 3, 61, 80
20, 512128, Note_off_c, 3, 61, 0
20, 512128, End_track
21, 0, Start_track
21, 0, Title_t, "Timpani"
21, 0, Instrument_name_t, "Timpani"
21, 0, Program_c, 4, 0
21, 118878, Note_on_c, 4, 40, 80
21, 119109, Note_off_c, 4, 40, 0
21, 119111, Note_on_c, 4, 40, 64
21, 121029, Note_off_c, 4, 40, 0
21, 188231, Note_on_c, 4, 44, 69
21, 189198, Note_off_c, 4, 44, 0
21, 189199, Note_on_c, 4, 42, 67
21, 190149, Note_off_c, 4, 42, 0
21, 190151, Note_on_c, 4, 40, 69
21, 191118, Note_off_c, 4, 40, 0
21, 191119, Note_on_c, 4, 39, 67
21, 192069, Note_off_c, 4, 39, 0
21, 220882, Note_on_c, 4, 40, 90
21, 222789, Note_off_c, 4, 40, 0
21, 222791, Note_on_c, 4, 40, 127
21, 223758, Note_off_c, 4, 40, 0
21, 223759, Note_on_c, 4, 44, 91
21, 224709, Note_off_c, 4, 44, 0
21, 226631, Note_on_c, 4, 40, 127
21, 227598, Note_off_c, 4, 40, 0
21, 227599, Note_on_c, 4, 44, 91
21, 228549, Note_off_c, 4, 44, 0
21, 230471, Note_on_c, 4, 40, 127
21, 231438, Note_off_c, 4, 40, 0
21, 231439, Note_on_c, 4, 44, 91
21, 232389, Note_off_c, 4, 44, 0
21, 261203, Note_on_c, 4, 43, 115
21, 261443, Note_off_c, 4, 43, 0
21, 261684, Note_on_c, 4, 43, 124
21, 261842, Note_off_c, 4, 43, 0
21, 261852, Note_on_c, 4, 43, 123
21, 261997, Note_off_c, 4, 43, 0
21, 262005, Note_on_c, 4, 43, 123
21, 262158, Note_off_c, 4, 43, 0
21, 262159, Note_on_c, 4, 43, 126
21, 262634, Note_off_c, 4, 43, 0
21, 262634, End_track
22, 0, Start_track
22, 0, Title_t, "Gong"
22, 0, Instrument_name_t, "Steel Pans"
22, 0, Program_c, 5, 0
22, 128031, Note_on_c, 5, 52, 127
22, 129942, Note_off_c, 5, 52, 0
22, 146255, Note_on_c, 5, 52, 106
22, 147222, Note_off_c, 5, 52, 0
22, 224029, Note_on_c, 5, 52, 127
22, 226418, Note_off_c, 5, 52, 0
22, 227866, Note_on_c, 5, 52, 127
22, 230258, Note_off_c, 5, 52, 0
22, 231706, Note_on_c, 5, 52, 127
22, 234098, Note_off_c, 5, 52, 0
22, 234575, Note_on_c, 5, 52, 127
22, 236493, Note_off_c, 5, 52, 0
22, 236493, End_track
23, 0, Start_track
23, 0, Title_t, "Trumpet in Bb 1"
23, 0, Instrument_name_t, "Trumpet"
23, 0, Program_c, 6, 56
23, 127283, Note_on_c, 6, 76, 127
23, 127392, Note_off_c, 6, 76, 0
23, 127443, Note_on_c, 6, 76, 127
23, 127546, Note_off_c, 6, 76, 0
23, 127597, Note_on_c, 6, 76, 127
23, 127708, Note_off_c, 6, 76, 0
23, 127759, Note_on_c, 6, 76, 107
23, 129638, Note_off_c, 6, 76, 0
23, 129679, Note_on_c, 6, 73, 106
23, 130113, Note_off_c, 6, 73, 0
23, 130155, Note_on_c, 6, 71, 104
23, 130350, Note_off_c, 6, 71, 0
23, 130391, Note_on_c, 6, 69, 103
23, 130588, Note_off_c, 6, 69, 0
23, 130631, Note_on_c, 6, 68, 103
23, 132508, Note_off_c, 6, 68, 0
23, 133519, Note_on_c, 6, 66, 95
23, 133717, Note_off_c, 6, 66, 0
23, 133758, Note_on_c, 6, 68, 92
23, 133953, Note_off_c, 6, 68, 0
23, 133995, Note_on_c, 6, 69, 93
23, 134190, Note_off_c, 6, 69, 0
23, 134231, Note_on_c, 6, 71, 92
23, 134428, Note_off_c, 6, 71, 0
23, 134471, Note_on_c, 6, 68, 92
23, 136348, Note_off_c, 6, 68, 0
23, 137120, Note_on_c, 6, 66, 88
23, 137318, Note_off_c, 6, 66, 0
23, 137359, Note_on_c, 6, 66, 91
23, 137557, Note_off_c, 6, 66, 0
23, 137598, Note_on_c, 6, 68, 88
23, 137793, Note_off_c, 6, 68, 0
23, 137835, Note_on_c, 6, 69, 89
23, 138030, Note_off_c, 6, 69, 0
23, 138071, Note_on_c, 6, 71, 88
23, 138268, Note_off_c, 6, 71, 0
23, 138311, Note_on_c, 6, 68, 88
23, 140188, Note_off_c, 6, 68, 0
23, 140723, Note_on_c, 6, 63, 92
23, 140919, Note_off_c, 6, 63, 0
23, 140960, Note_on_c, 6, 64, 91
23, 141158, Note_off_c, 6, 64, 0
23, 141199, Note_on_c, 6, 66, 94
23, 141633, Note_off_c, 6, 66, 0
23, 141675, Note_on_c, 6, 64, 92
23, 141870, Note_off_c, 6, 64, 0
23, 141911, Note_on_c, 6, 63, 91
23, 142108, Note_off_c, 6, 63, 0
23, 142151, Note_on_c, 6, 61, 96
23, 142602, Note_off_c, 6, 61, 0
23, 142643, Note_on_c, 6, 68, 91
23, 144028, Note_off_c, 6, 68, 0
23, 147911, Note_on_c, 6, 68, 96
23, 148838, Note_off_c, 6, 68, 0
23, 148879, Note_on_c, 6, 66, 94
23, 149788, Note_off_c, 6, 66, 0
23, 149831, Note_on_c, 6, 64, 91
23, 151708, Note_off_c, 6, 64, 0
23, 152719, Note_on_c, 6, 63, 95
23, 153628, Note_off_c, 6, 63, 0
23, 153671, Note_on_c, 6, 61, 92
23, 155548, Note_off_c, 6, 61, 0
23, 159431, Note_on_c, 6, 80, 97
23, 159882, Note_off_c, 6, 80, 0
23, 159923, Note_on_c, 6, 78, 93
23, 160358, Note_off_c, 6, 78, 0
23, 160399, Note_on_c, 6, 76, 95
23, 161240, Note_off_c, 6, 76, 0
23, 161351, Note_on_c, 6, 73, 85
23, 163229, Note_off_c, 6, 73, 0
23, 163271, Note_on_c, 6, 72, 85
23, 165149, Note_off_c, 6, 72, 0
23, 165191, Note_on_c, 6, 73, 90
23, 165643, Note_off_c, 6, 73, 0
23, 165683, Note_on_c, 6, 73, 86
23, 166119, Note_off_c, 6, 73, 0
23, 166159, Note_on_c, 6, 73, 88
23, 166595, Note_off_c, 6, 73, 0
23, 166635, Note_on_c, 6, 73, 86
23, 167069, Note_off_c, 6, 73, 0
23, 167111, Note_on_c, 6, 73, 95
23, 167563, Note_off_c, 6, 73, 0
23, 167603, Note_on_c, 6, 73, 91
23, 168039, Note_off_c, 6, 73, 0
23, 168079, Note_on_c, 6, 73, 93
23, 168515, Note_off_c, 6, 73, 0
23, 168555, Note_on_c, 6, 73, 91
23, 168989, Note_off_c, 6, 73, 0
23, 169031, Note_on_c, 6, 63, 97
23, 169959, Note_off_c, 6, 63, 0
23, 169999, Note_on_c, 6, 64, 95
23, 170435, Note_off_c, 6, 64, 0
23, 170475, Note_on_c, 6, 66, 93
23, 170909, Note_off_c, 6, 66, 0
23, 170951, Note_on_c, 6, 66, 97
23, 171403, Note_off_c, 6, 66, 0
23, 171443, Note_on_c, 6, 64, 93
23, 171879, Note_off_c, 6, 64, 0
23, 171919, Note_on_c, 6, 63, 95
23, 172829, Note_off_c, 6, 63, 0
23, 172871, Note_on_c, 6, 64, 97
23, 173323, Note_off_c, 6, 64, 0
23, 173363, Note_on_c, 6, 66, 93
23, 173799, Note_off_c, 6, 66, 0
23, 173839, Note_on_c, 6, 68, 95
23, 176669, Note_off_c, 6, 68, 0
23, 176711, Note_on_c, 6, 71, 83
23, 176910, Note_off_c, 6, 71, 0
23, 176965, Note_on_c, 6, 71, 78
23, 177148, Note_off_c, 6, 71, 0
23, 177203, Note_on_c, 6, 71, 79
23, 177385, Note_off_c, 6, 71, 0
23, 177440, Note_on_c, 6, 71, 78
23, 177624, Note_off_c, 6, 71, 0
23, 177679, Note_on_c, 6, 71, 81
23, 177863, Note_off_c, 6, 71, 0
23, 177918, Note_on_c, 6, 71, 78
23, 178100, Note_off_c, 6, 71, 0
23, 178155, Note_on_c, 6, 71, 79
23, 178336, Note_off_c, 6, 71, 0
23, 178391, Note_on_c, 6, 71, 78
23, 178574, Note_off_c, 6, 71, 0
23, 178631, Note_on_c, 6, 71, 83
23, 178830, Note_off_c, 6, 71, 0
23, 178885, Note_on_c, 6, 71, 78
23, 179068, Note_off_c, 6, 71, 0
23, 179123, Note_on_c, 6, 71, 79
23, 179305, Note_off_c, 6, 71, 0
23, 179360, Note_on_c, 6, 71, 78
23, 179592, Note_off_c, 6, 71, 0
23, 179599, Note_on_c, 6, 69, 81
23, 179783, Note_off_c, 6, 69, 0
23, 179838, Note_on_c, 6, 69, 78
23, 180020, Note_off_c, 6, 69, 0
23, 180075, Note_on_c, 6, 69, 79
23, 180256, Note_off_c, 6, 69, 0
23, 180311, Note_on_c, 6, 69, 78
23, 180542, Note_off_c, 6, 69, 0
23, 180551, Note_on_c, 6, 68, 83
23, 180750, Note_off_c, 6, 68, 0
23, 180805, Note_on_c, 6, 68, 78
23, 180988, Note_off_c, 6, 68, 0
23, 181043, Note_on_c, 6, 68, 79
23, 181225, Note_off_c, 6, 68, 0
23, 181280, Note_on_c, 6, 68, 78
23, 181464, Note_off_c, 6, 68, 0
23, 181519, Note_on_c, 6, 68, 81
23, 181703, Note_off_c, 6, 68, 0
23, 181758, Note_on_c, 6, 68, 78
23, 181940, Note_off_c, 6, 68, 0
23, 181995, Note_on_c, 6, 68, 79
23, 182176, Note_off_c, 6, 68, 0
23, 182231, Note_on_c, 6, 68, 78
23, 182414, Note_off_c, 6, 68, 0
23, 182471, Note_on_c, 6, 68, 83
23, 182670, Note_off_c, 6, 68, 0
23, 182725, Note_on_c, 6, 68, 78
23, 182908, Note_off_c, 6, 68, 0
23, 182963, Note_on_c, 6, 68, 79
23, 183145, Note_off_c, 6, 68, 0
23, 183200, Note_on_c, 6, 68, 78
23, 183384, Note_off_c, 6, 68, 0
23, 183439, Note_on_c, 6, 68, 81
23, 183623, Note_off_c, 6, 68, 0
23, 183678, Note_on_c, 6, 68, 78
23, 183860, Note_off_c, 6, 68, 0
23, 183915, Note_on_c, 6, 68, 79
23, 184096, Note_off_c, 6, 68, 0
23, 184151, Note_on_c, 6, 68, 78
23, 184382, Note_off_c, 6, 68, 0
23, 184391, Note_on_c, 6, 70, 97
23, 185319, Note_off_c, 6, 70, 0
23, 185359, Note_on_c, 6, 71, 95
23, 185795, Note_off_c, 6, 71, 0
23, 185835, Note_on_c, 6, 73, 93
23, 186269, Note_off_c, 6, 73, 0
23, 186311, Note_on_c, 6, 73, 97
23, 186763, Note_off_c, 6, 73, 0
23, 186803, Note_on_c, 6, 71, 93
23, 187239, Note_off_c, 6, 71, 0
23, 187279, Note_on_c, 6, 71, 95
23, 187715, Note_off_c, 6, 71, 0
23, 187755, Note_on_c, 6, 70, 93
23, 188189, Note_off_c, 6, 70, 0
23, 193039, Note_on_c, 6, 73, 127
23, 193711, Note_off_c, 6, 73, 0
23, 193751, Note_on_c, 6, 73, 127
23, 193826, Note_off_c, 6, 73, 0
23, 193868, Note_on_c, 6, 73, 127
23, 193991, Note_on_c, 6, 78, 127
23, 193996, Note_off_c, 6, 73, 0
23, 195869, Note_off_c, 6, 78, 0
23, 195911, Note_on_c, 6, 80, 109
23, 196839, Note_off_c, 6, 80, 0
23, 196879, Note_on_c, 6, 80, 107
23, 197315, Note_off_c, 6, 80, 0
23, 197355, Note_on_c, 6, 78, 105
23, 197789, Note_off_c, 6, 78, 0
23, 197831, Note_on_c, 6, 80, 109
23, 198283, Note_off_c, 6, 80, 0
23, 198323, Note_on_c, 6, 78, 105
23, 198759, Note_off_c, 6, 78, 0
23, 198799, Note_on_c, 6, 76, 107
23, 199709, Note_off_c, 6, 76, 0
23, 200719, Note_on_c, 6, 73, 127
23, 201391, Note_off_c, 6, 73, 0
23, 201431, Note_on_c, 6, 73, 127
23, 201506, Note_off_c, 6, 73, 0
23, 201548, Note_on_c, 6, 73, 127
23, 201671, Note_on_c, 6, 78, 127
23, 201676, Note_off_c, 6, 73, 0
23, 203549, Note_off_c, 6, 78, 0
23, 203591, Note_on_c, 6, 73, 118
23, 204519, Note_off_c, 6, 73, 0
23, 204559, Note_on_c, 6, 75, 116
23, 204995, Note_off_c, 6, 75, 0
23, 205035, Note_on_c, 6, 76, 114
23, 205469, Note_off_c, 6, 76, 0
23, 205511, Note_on_c, 6, 75, 118
23, 205963, Note_off_c, 6, 75, 0
23, 206003, Note_on_c, 6, 73, 114
23, 206439, Note_off_c, 6, 73, 0
23, 206479, Note_on_c, 6, 71, 116
23, 206915, Note_off_c, 6, 71, 0
23, 206955, Note_on_c, 6, 69, 114
23, 207389, Note_off_c, 6, 69, 0
23, 207431, Note_on_c, 6, 71, 118
23, 208359, Note_off_c, 6, 71, 0
23, 208399, Note_on_c, 6, 71, 116
23, 208835, Note_off_c, 6, 71, 0
23, 208875, Note_on_c, 6, 73, 114
23, 209309, Note_off_c, 6, 73, 0
23, 209351, Note_on_c, 6, 71, 118
23, 209803, Note_off_c, 6, 71, 0
23, 209843, Note_on_c, 6, 69, 114
23, 210279, Note_off_c, 6, 69, 0
23, 210319, Note_on_c, 6, 68, 116
23, 211229, Note_off_c, 6, 68, 0
23, 211271, Note_on_c, 6, 75, 118
23, 212199, Note_off_c, 6, 75, 0
23, 212239, Note_on_c, 6, 75, 116
23, 212675, Note_off_c, 6, 75, 0
23, 212715, Note_on_c, 6, 75, 114
23, 213149, Note_off_c, 6, 75, 0
23, 213191, Note_on_c, 6, 74, 118
23, 214119, Note_off_c, 6, 74, 0
23, 214159, Note_on_c, 6, 74, 116
23, 214595, Note_off_c, 6, 74, 0
23, 214635, Note_on_c, 6, 74, 114
23, 215069, Note_off_c, 6, 74, 0
23, 215111, Note_on_c, 6, 73, 118
23, 216039, Note_off_c, 6, 73, 0
23, 216079, Note_on_c, 6, 73, 116
23, 216515, Note_off_c, 6, 73, 0
23, 216555, Note_on_c, 6, 73, 114
23, 216989, Note_off_c, 6, 73, 0
23, 217031, Note_on_c, 6, 73, 118
23, 217959, Note_off_c, 6, 73, 0
23, 217999, Note_on_c, 6, 71, 116
23, 218435, Note_off_c, 6, 71, 0
23, 218475, Note_on_c, 6, 69, 114
23, 218909, Note_off_c, 6, 69, 0
23, 218951, Note_on_c, 6, 69, 118
23, 219403, Note_off_c, 6, 69, 0
23, 219443, Note_on_c, 6, 68, 114
23, 219879, Note_off_c, 6, 68, 0
23, 219919, Note_on_c, 6, 71, 116
23, 222749, Note_off_c, 6, 71, 0
23, 222791, Note_on_c, 6, 68, 117
23, 223719, Note_off_c, 6, 68, 0
23, 223759, Note_on_c, 6, 68, 115
23, 224195, Note_off_c, 6, 68, 0
23, 224235, Note_on_c, 6, 69, 113
23, 224669, Note_off_c, 6, 69, 0
23, 224711, Note_on_c, 6, 68, 117
23, 225163, Note_off_c, 6, 68, 0
23, 225203, Note_on_c, 6, 66, 113
23, 225639, Note_off_c, 6, 66, 0
23, 225679, Note_on_c, 6, 64, 115
23, 226589, Note_off_c, 6, 64, 0
23, 226631, Note_on_c, 6, 71, 117
23, 227559, Note_off_c, 6, 71, 0
23, 227599, Note_on_c, 6, 71, 115
23, 228035, Note_off_c, 6, 71, 0
23, 228075, Note_on_c, 6, 73, 113
23, 228509, Note_off_c, 6, 73, 0
23, 228551, Note_on_c, 6, 71, 117
23, 229479, Note_off_c, 6, 71, 0
23, 229519, Note_on_c, 6, 69, 115
23, 229955, Note_off_c, 6, 69, 0
23, 229995, Note_on_c, 6, 68, 113
23, 230429, Note_off_c, 6, 68, 0
23, 230471, Note_on_c, 6, 69, 117
23, 231399, Note_off_c, 6, 69, 0
23, 231439, Note_on_c, 6, 66, 115
23, 231875, Note_off_c, 6, 66, 0
23, 231915, Note_on_c, 6, 68, 113
23, 232349, Note_off_c, 6, 68, 0
23, 232391, Note_on_c, 6, 69, 117
23, 233319, Note_off_c, 6, 69, 0
23, 233359, Note_on_c, 6, 66, 115
23, 234269, Note_off_c, 6, 66, 0
23, 234311, Note_on_c, 6, 76, 127
23, 235713, Note_off_c, 6, 76, 0
23, 235755, Note_on_c, 6, 78, 114
23, 236188, Note_off_c, 6, 78, 0
23, 236231, Note_on_c, 6, 81, 118
23, 236682, Note_off_c, 6, 81, 0
23, 236723, Note_on_c, 6, 80, 114
23, 237158, Note_off_c, 6, 80, 0
23, 237199, Note_on_c, 6, 78, 116
23, 237633, Note_off_c, 6, 78, 0
23, 237675, Note_on_c, 6, 76, 114
23, 238108, Note_off_c, 6, 76, 0
23, 238151, Note_on_c, 6, 79, 118
23, 239078, Note_off_c, 6, 79, 0
23, 239119, Note_on_c, 6, 76, 127
23, 241948, Note_off_c, 6, 76, 0
23, 241991, Note_on_c, 6, 79, 127
23, 242619, Note_off_c, 6, 79, 0
23, 248719, Note_on_c, 6, 77, 127
23, 248719, Note_on_c, 6, 84, 127
23, 249628, Note_off_c, 6, 77, 0
23, 249628, Note_off_c, 6, 84, 0
23, 249671, Note_on_c, 6, 79, 111
23, 252518, Note_off_c, 6, 79, 0
23, 252559, Note_on_c, 6, 77, 127
23, 252559, Note_on_c, 6, 84, 127
23, 253468, Note_off_c, 6, 84, 0
23, 253468, Note_off_c, 6, 77, 0
23, 253511, Note_on_c, 6, 79, 111
23, 256358, Note_off_c, 6, 79, 0
23, 256399, Note_on_c, 6, 77, 127
23, 256399, Note_on_c, 6, 84, 127
23, 257240, Note_off_c, 6, 77, 0
23, 257240, Note_off_c, 6, 84, 0
23, 257351, Note_on_c, 6, 79, 127
23, 257802, Note_off_c, 6, 79, 0
23, 260715, Note_on_c, 6, 77, 90
23, 260823, Note_off_c, 6, 77, 0
23, 260874, Note_on_c, 6, 77, 89
23, 260978, Note_off_c, 6, 77, 0
23, 261029, Note_on_c, 6, 77, 89
23, 261188, Note_off_c, 6, 77, 0
23, 261191, Note_on_c, 6, 79, 127
23, 261443, Note_off_c, 6, 79, 0
23, 261683, Note_on_c, 6, 67, 127
23, 261792, Note_off_c, 6, 67, 0
23, 261843, Note_on_c, 6, 67, 127
23, 261946, Note_off_c, 6, 67, 0
23, 261997, Note_on_c, 6, 67, 127
23, 262108, Note_off_c, 6, 67, 0
23, 262159, Note_on_c, 6, 67, 127
23, 262593, Note_off_c, 6, 67, 0
23, 262593, End_track
24, 0, Start_track
24, 0, Title_t, "Kick Bass Grain 1"
24, 0, Instrument_name_t, "Kick Bass Grain 1"
24, 0, Program_c, 7, 27
24, 318981, Note_on_c, 7, 74, 80
24, 318998, Note_off_c, 7, 74, 0
24, 319000, Note_on_c, 7, 75, 80
24, 319017, Note_off_c, 7, 75, 0
24, 319020, Note_on_c, 7, 76, 80
24, 319037, Note_off_c, 7, 76, 0
24, 319041, Note_on_c, 7, 77, 80
24, 319058, Note_off_c, 7, 77, 0
24, 319060, Note_on_c, 7, 78, 80
24, 319077, Note_off_c, 7, 78, 0
24, 319080, Note_on_c, 7, 79, 80
24, 319097, Note_off_c, 7, 79, 0
24, 319101, Note_on_c, 7, 80, 80
24, 319118, Note_off_c, 7, 80, 0
24, 319120, Note_on_c, 7, 81, 80
24, 319137, Note_off_c, 7, 81, 0
24, 319140, Note_on_c, 7, 82, 80
24, 319157, Note_off_c, 7, 82, 0
24, 319161, Note_on_c, 7, 83, 80
24, 319178, Note_off_c, 7, 83, 0
24, 319180, Note_on_c, 7, 84, 80
24, 319197, Note_off_c, 7, 84, 0
24, 319200, Note_on_c, 7, 85, 80
24, 319217, Note_off_c, 7, 85, 0
24, 319221, Note_on_c, 7, 86, 80
24, 319496, Note_off_c, 7, 86, 0
24, 319496, End_track
25, 0, Start_track
25, 0, Title_t, "Bone bass"
25, 0, Instrument_name_t, "Bone Bass"
25, 0, Program_c, 8, 27
25, 0, Note_on_c, 8, 43, 81
25, 0, Note_on_c, 8, 47, 81
25, 0, Note_on_c, 8, 52, 81
25, 0, Note_on_c, 8, 40, 81
25, 240, Note_off_c, 8, 43, 0
25, 240, Note_off_c, 8, 47, 0
25, 240, Note_off_c, 8, 52, 0
25, 240, Note_off_c, 8, 40, 0
25, 960, Note_on_c, 8, 40, 76
25, 960, Note_on_c, 8, 47, 76
25, 960, Note_on_c, 8, 43, 76
25, 960, Note_on_c, 8, 52, 76
25, 2160, Note_off_c, 8, 40, 0
25, 2160, Note_off_c, 8, 43, 0
25, 2160, Note_off_c, 8, 47, 0
25, 2160, Note_off_c, 8, 52, 0
25, 2400, Note_on_c, 8, 52, 76
25, 2400, Note_on_c, 8, 40, 76
25, 2400, Note_on_c, 8, 43, 76
25, 2400, Note_on_c, 8, 47, 76
25, 2640, Note_off_c, 8, 43, 0
25, 2640, Note_off_c, 8, 40, 0
25, 2640, Note_off_c, 8, 47, 0
25, 2640, Note_off_c, 8, 52, 0
25, 2880, Note_on_c, 8, 52, 76
25, 2880, Note_on_c, 8, 47, 76
25, 2880, Note_on_c, 8, 40, 76
25, 2880, Note_on_c, 8, 43, 76
25, 3120, Note_off_c, 8, 52, 0
25, 3120, Note_off_c, 8, 47, 0
25, 3120, Note_off_c, 8, 43, 0
25, 3120, Note_off_c, 8, 40, 0
25, 3360, Note_on_c, 8, 52, 76
25, 3360, Note_on_c, 8, 47, 76
25, 3360, Note_on_c, 8, 40, 76
25, 3360, Note_on_c, 8, 43, 76
25, 3600, Note_off_c, 8, 52, 0
25, 3600, Note_off_c, 8, 47, 0
25, 3600, Note_off_c, 8, 43, 0
25, 3600, Note_off_c, 8, 40, 0
25, 3840, Note_on_c, 8, 61, 92
25, 3840, Note_on_c, 8, 57, 92
25, 3840, Note_on_c, 8, 52, 92
25, 3840, Note_on_c, 8, 49, 92
25, 4080, Note_off_c, 8, 57, 0
25, 4080, Note_off_c, 8, 49, 0
25, 4080, Note_off_c, 8, 52, 0
25, 4080, Note_off_c, 8, 61, 0
25, 4800, Note_on_c, 8, 57, 84
25, 4800, Note_on_c, 8, 61, 84
25, 4800, Note_on_c, 8, 49, 84
25, 4800, Note_on_c, 8, 52, 84
25, 6000, Note_off_c, 8, 52, 0
25, 6000, Note_off_c, 8, 57, 0
25, 6000, Note_off_c, 8, 61, 0
25, 6000, Note_off_c, 8, 49, 0
25, 6240, Note_on_c, 8, 49, 79
25, 6240, Note_on_c, 8, 52, 79
25, 6240, Note_on_c, 8, 57, 79
25, 6240, Note_on_c, 8, 61, 79
25, 6480, Note_off_c, 8, 49, 0
25, 6480, Note_off_c, 8, 52, 0
25, 6480, Note_off_c, 8, 61, 0
25, 6480, Note_off_c, 8, 57, 0
25, 6720, Note_on_c, 8, 49, 78
25, 6720, Note_on_c, 8, 52, 78
25, 6720, Note_on_c, 8, 57, 78
25, 6720, Note_on_c, 8, 61, 78
25, 6960, Note_off_c, 8, 49, 0
25, 6960, Note_off_c, 8, 57, 0
25, 6960, Note_off_c, 8, 61, 0
25, 6960, Note_off_c, 8, 52, 0
25, 7200, Note_on_c, 8, 61, 77
25, 7200, Note_on_c, 8, 49, 77
25, 7200, Note_on_c, 8, 57, 77
25, 7200, Note_on_c, 8, 52, 77
25, 7440, Note_off_c, 8, 52, 0
25, 7440, Note_off_c, 8, 61, 0
25, 7440, Note_off_c, 8, 57, 0
25, 7440, Note_off_c, 8, 49, 0
25, 7680, Note_on_c, 8, 60, 79
25, 7680, Note_on_c, 8, 57, 79
25, 7680, Note_on_c, 8, 52, 79
25, 7680, Note_on_c, 8, 48, 79
25, 7920, Note_off_c, 8, 60, 0
25, 7920, Note_off_c, 8, 57, 0
25, 7920, Note_off_c, 8, 52, 0
25, 7920, Note_off_c, 8, 48, 0
25, 8640, Note_on_c, 8, 59, 74
25, 8640, Note_on_c, 8, 55, 74
25, 8640, Note_on_c, 8, 47, 74
25, 9840, Note_off_c, 8, 47, 0
25, 9840, Note_off_c, 8, 59, 0
25, 9840, Note_off_c, 8, 55, 0
25, 10080, Note_on_c, 8, 55, 72
25, 10080, Note_on_c, 8, 43, 72
25, 10320, Note_off_c, 8, 55, 0
25, 10320, Note_off_c, 8, 43, 0
25, 10560, Note_on_c, 8, 57, 76
25, 10560, Note_on_c, 8, 45, 76
25, 10800, Note_off_c, 8, 57, 0
25, 10800, Note_off_c, 8, 45, 0
25, 11040, Note_on_c, 8, 59, 79
25, 11040, Note_on_c, 8, 47, 79
25, 11280, Note_off_c, 8, 59, 0
25, 11280, Note_off_c, 8, 47, 0
25, 11520, Note_on_c, 8, 57, 80
25, 11520, Note_on_c, 8, 52, 80
25, 11520, Note_on_c, 8, 48, 80
25, 11520, Note_on_c, 8, 45, 80
25, 11760, Note_off_c, 8, 57, 0
25, 11760, Note_off_c, 8, 52, 0
25, 11760, Note_off_c, 8, 48, 0
25, 11760, Note_off_c, 8, 45, 0
25, 12480, Note_on_c, 8, 55, 73
25, 12480, Note_on_c, 8, 43, 73
25, 13680, Note_off_c, 8, 43, 0
25, 13680, Note_off_c, 8, 55, 0
25, 13920, Note_on_c, 8, 42, 74
25, 13920, Note_on_c, 8, 54, 74
25, 14160, Note_off_c, 8, 42, 0
25, 14160, Note_off_c, 8, 54, 0
25, 14400, Note_on_c, 8, 45, 78
25, 14400, Note_on_c, 8, 57, 78
25, 14640, Note_off_c, 8, 45, 0
25, 14880, Note_on_c, 8, 50, 84
25, 14880, Note_on_c, 8, 62, 84
25, 15061, Note_off_c, 8, 57, 0
25, 15120, Note_off_c, 8, 62, 0
25, 15120, Note_off_c, 8, 50, 0
25, 23760, Note_on_c, 8, 48, 76
25, 23760, Note_on_c, 8, 52, 76
25, 23760, Note_on_c, 8, 43, 76
25, 24000, Note_off_c, 8, 52, 0
25, 24000, Note_off_c, 8, 48, 0
25, 24000, Note_off_c, 8, 43, 0
25, 24480, Note_on_c, 8, 52, 76
25, 24480, Note_on_c, 8, 48, 76
25, 24480, Note_on_c, 8, 43, 76
25, 24720, Note_off_c, 8, 52, 0
25, 24720, Note_off_c, 8, 48, 0
25, 24720, Note_off_c, 8, 43, 0
25, 24960, Note_on_c, 8, 54, 81
25, 24960, Note_on_c, 8, 45, 81
25, 24960, Note_on_c, 8, 50, 81
25, 26400, Note_on_c, 8, 45, 77
25, 26400, Note_off_c, 8, 50, 0
25, 26400, Note_off_c, 8, 45, 0
25, 26400, Note_on_c, 8, 50, 77
25, 26400, Note_off_c, 8, 54, 0
25, 26400, Note_on_c, 8, 54, 77
25, 26640, Note_off_c, 8, 45, 0
25, 26640, Note_off_c, 8, 50, 0
25, 26640, Note_off_c, 8, 54, 0
25, 27600, Note_on_c, 8, 52, 75
25, 27600, Note_on_c, 8, 48, 75
25, 27600, Note_on_c, 8, 43, 75
25, 27840, Note_off_c, 8, 43, 0
25, 27840, Note_off_c, 8, 48, 0
25, 27840, Note_off_c, 8, 52, 0
25, 28320, Note_on_c, 8, 52, 76
25, 28320, Note_on_c, 8, 48, 76
25, 28320, Note_on_c, 8, 43, 76
25, 28560, Note_off_c, 8, 52, 0
25, 28560, Note_off_c, 8, 43, 0
25, 28560, Note_off_c, 8, 48, 0
25, 28800, Note_on_c, 8, 50, 81
25, 28800, Note_on_c, 8, 45, 81
25, 28800, Note_on_c, 8, 54, 81
25, 30240, Note_on_c, 8, 50, 77
25, 30240, Note_off_c, 8, 54, 0
25, 30240, Note_on_c, 8, 54, 77
25, 30240, Note_off_c, 8, 45, 0
25, 30240, Note_off_c, 8, 50, 0
25, 30240, Note_on_c, 8, 45, 77
25, 30480, Note_off_c, 8, 50, 0
25, 30480, Note_off_c, 8, 54, 0
25, 30480, Note_off_c, 8, 45, 0
25, 31440, Note_on_c, 8, 43, 75
25, 31440, Note_on_c, 8, 48, 75
25, 31440, Note_on_c, 8, 52, 75
25, 31680, Note_off_c, 8, 43, 0
25, 31680, Note_off_c, 8, 48, 0
25, 31680, Note_off_c, 8, 52, 0
25, 32160, Note_on_c, 8, 52, 76
25, 32160, Note_on_c, 8, 48, 76
25, 32160, Note_on_c, 8, 43, 76
25, 32400, Note_off_c, 8, 52, 0
25, 32400, Note_off_c, 8, 48, 0
25, 32400, Note_off_c, 8, 43, 0
25, 32640, Note_on_c, 8, 45, 81
25, 32640, Note_on_c, 8, 54, 81
25, 32640, Note_on_c, 8, 50, 81
25, 34080, Note_off_c, 8, 45, 0
25, 34080, Note_off_c, 8, 50, 0
25, 34080, Note_off_c, 8, 54, 0
25, 34080, Note_on_c, 8, 45, 77
25, 34080, Note_on_c, 8, 50, 77
25, 34080, Note_on_c, 8, 54, 77
25, 34320, Note_off_c, 8, 50, 0
25, 34320, Note_off_c, 8, 45, 0
25, 34320, Note_off_c, 8, 54, 0
25, 34560, Note_on_c, 8, 48, 79
25, 34560, Note_on_c, 8, 45, 79
25, 34560, Note_on_c, 8, 52, 79
25, 34800, Note_off_c, 8, 45, 0
25, 34800, Note_off_c, 8, 48, 0
25, 34800, Note_off_c, 8, 52, 0
25, 35280, Note_on_c, 8, 45, 75
25, 35280, Note_on_c, 8, 48, 75
25, 35280, Note_on_c, 8, 52, 75
25, 35520, Note_off_c, 8, 45, 0
25, 35520, Note_off_c, 8, 48, 0
25, 35520, Note_off_c, 8, 52, 0
25, 36000, Note_on_c, 8, 48, 76
25, 36000, Note_on_c, 8, 45, 76
25, 36000, Note_on_c, 8, 52, 76
25, 36480, Note_off_c, 8, 48, 0
25, 36480, Note_off_c, 8, 52, 0
25, 36480, Note_on_c, 8, 43, 76
25, 36480, Note_on_c, 8, 47, 76
25, 36480, Note_on_c, 8, 50, 76
25, 36480, Note_off_c, 8, 45, 0
25, 36720, Note_off_c, 8, 43, 0
25, 36720, Note_off_c, 8, 47, 0
25, 36720, Note_off_c, 8, 50, 0
25, 39120, Note_on_c, 8, 43, 76
25, 39120, Note_on_c, 8, 48, 76
25, 39120, Note_on_c, 8, 52, 76
25, 39360, Note_off_c, 8, 43, 0
25, 39360, Note_off_c, 8, 48, 0
25, 39360, Note_off_c, 8, 52, 0
25, 39840, Note_on_c, 8, 52, 76
25, 39840, Note_on_c, 8, 43, 76
25, 39840, Note_on_c, 8, 48, 76
25, 40080, Note_off_c, 8, 48, 0
25, 40080, Note_off_c, 8, 52, 0
25, 40080, Note_off_c, 8, 43, 0
25, 40320, Note_on_c, 8, 54, 81
25, 40320, Note_on_c, 8, 50, 81
25, 40320, Note_on_c, 8, 45, 81
25, 41760, Note_off_c, 8, 50, 0
25, 41760, Note_off_c, 8, 45, 0
25, 41760, Note_off_c, 8, 54, 0
25, 41760, Note_on_c, 8, 54, 77
25, 41760, Note_on_c, 8, 50, 77
25, 41760, Note_on_c, 8, 45, 77
25, 42000, Note_off_c, 8, 54, 0
25, 42000, Note_off_c, 8, 50, 0
25, 42000, Note_off_c, 8, 45, 0
25, 42240, Note_on_c, 8, 52, 79
25, 42240, Note_on_c, 8, 48, 79
25, 42240, Note_on_c, 8, 45, 79
25, 42480, Note_off_c, 8, 52, 0
25, 42480, Note_off_c, 8, 48, 0
25, 42480, Note_off_c, 8, 45, 0
25, 42960, Note_on_c, 8, 43, 76
25, 42960, Note_on_c, 8, 52, 75
25, 42960, Note_on_c, 8, 48, 75
25, 42960, Note_on_c, 8, 45, 76
25, 42960, Note_on_c, 8, 52, 75
25, 42960, Note_on_c, 8, 48, 75
25, 42968, Note_off_c, 8, 48, 0
25, 42968, Note_off_c, 8, 52, 0
25, 43080, Note_off_c, 8, 48, 0
25, 43080, Note_off_c, 8, 52, 0
25, 43200, Note_off_c, 8, 43, 0
25, 43200, Note_off_c, 8, 45, 0
25, 43680, Note_on_c, 8, 52, 76
25, 43680, Note_on_c, 8, 43, 76
25, 43680, Note_on_c, 8, 48, 76
25, 43920, Note_off_c, 8, 52, 0
25, 43920, Note_off_c, 8, 43, 0
25, 43920, Note_off_c, 8, 48, 0
25, 44160, Note_on_c, 8, 54, 81
25, 44160, Note_on_c, 8, 50, 81
25, 44160, Note_on_c, 8, 45, 81
25, 45600, Note_on_c, 8, 54, 77
25, 45600, Note_on_c, 8, 50, 77
25, 45600, Note_on_c, 8, 45, 77
25, 45600, Note_off_c, 8, 54, 0
25, 45600, Note_off_c, 8, 50, 0
25, 45600, Note_off_c, 8, 45, 0
25, 45840, Note_off_c, 8, 54, 0
25, 45840, Note_off_c, 8, 45, 0
25, 45840, Note_off_c, 8, 50, 0
25, 46800, Note_on_c, 8, 52, 75
25, 46800, Note_on_c, 8, 48, 75
25, 46800, Note_on_c, 8, 45, 75
25, 47040, Note_off_c, 8, 52, 0
25, 47040, Note_off_c, 8, 48, 0
25, 47040, Note_off_c, 8, 45, 0
25, 47520, Note_on_c, 8, 45, 76
25, 47520, Note_on_c, 8, 52, 76
25, 47520, Note_on_c, 8, 48, 76
25, 47760, Note_off_c, 8, 45, 0
25, 47760, Note_off_c, 8, 48, 0
25, 47760, Note_off_c, 8, 52, 0
25, 48000, Note_on_c, 8, 45, 79
25, 48000, Note_on_c, 8, 48, 79
25, 48000, Note_on_c, 8, 52, 79
25, 49440, Note_on_c, 8, 52, 83
25, 49440, Note_off_c, 8, 45, 0
25, 49440, Note_off_c, 8, 48, 0
25, 49440, Note_on_c, 8, 45, 83
25, 49440, Note_off_c, 8, 52, 0
25, 49440, Note_on_c, 8, 48, 83
25, 49448, Note_off_c, 8, 52, 0
25, 49680, Note_off_c, 8, 45, 0
25, 49680, Note_off_c, 8, 48, 0
25, 49920, Note_on_c, 8, 57, 90
25, 49920, Note_on_c, 8, 54, 90
25, 49920, Note_on_c, 8, 50, 90
25, 51840, Note_on_c, 8, 56, 80
25, 51840, Note_on_c, 8, 52, 80
25, 51840, Note_on_c, 8, 47, 80
25, 51840, Note_off_c, 8, 57, 0
25, 51840, Note_off_c, 8, 54, 0
25, 51840, Note_off_c, 8, 50, 0
25, 53760, Note_off_c, 8, 56, 0
25, 53760, Note_off_c, 8, 52, 0
25, 53760, Note_off_c, 8, 47, 0
25, 54480, Note_on_c, 8, 52, 76
25, 54480, Note_on_c, 8, 48, 76
25, 54480, Note_on_c, 8, 43, 76
25, 54720, Note_off_c, 8, 43, 0
25, 54720, Note_off_c, 8, 48, 0
25, 54720, Note_off_c, 8, 52, 0
25, 55200, Note_on_c, 8, 52, 76
25, 55200, Note_on_c, 8, 48, 76
25, 55200, Note_on_c, 8, 43, 76
25, 55440, Note_off_c, 8, 52, 0
25, 55440, Note_off_c, 8, 48, 0
25, 55440, Note_off_c, 8, 43, 0
25, 55680, Note_on_c, 8, 50, 81
25, 55680, Note_on_c, 8, 45, 81
25, 55680, Note_on_c, 8, 54, 81
25, 57120, Note_off_c, 8, 54, 0
25, 57120, Note_off_c, 8, 50, 0
25, 57120, Note_off_c, 8, 45, 0
25, 57120, Note_on_c, 8, 50, 77
25, 57120, Note_on_c, 8, 45, 77
25, 57120, Note_on_c, 8, 54, 77
25, 57360, Note_off_c, 8, 50, 0
25, 57360, Note_off_c, 8, 45, 0
25, 57360, Note_off_c, 8, 54, 0
25, 58320, Note_on_c, 8, 48, 75
25, 58320, Note_on_c, 8, 52, 75
25, 58320, Note_on_c, 8, 43, 75
25, 58560, Note_off_c, 8, 43, 0
25, 58560, Note_off_c, 8, 48, 0
25, 58560, Note_off_c, 8, 52, 0
25, 59040, Note_on_c, 8, 43, 76
25, 59040, Note_on_c, 8, 48, 76
25, 59040, Note_on_c, 8, 52, 76
25, 59280, Note_off_c, 8, 43, 0
25, 59280, Note_off_c, 8, 48, 0
25, 59280, Note_off_c, 8, 52, 0
25, 59520, Note_on_c, 8, 54, 81
25, 59520, Note_on_c, 8, 45, 81
25, 59520, Note_on_c, 8, 50, 81
25, 60960, Note_off_c, 8, 50, 0
25, 60960, Note_off_c, 8, 54, 0
25, 60960, Note_on_c, 8, 45, 77
25, 60960, Note_on_c, 8, 50, 77
25, 60960, Note_on_c, 8, 54, 77
25, 60960, Note_off_c, 8, 45, 0
25, 60968, Note_off_c, 8, 50, 0
25, 61200, Note_off_c, 8, 45, 0
25, 61200, Note_off_c, 8, 54, 0
25, 62160, Note_on_c, 8, 43, 75
25, 62160, Note_on_c, 8, 48, 75
25, 62160, Note_on_c, 8, 52, 75
25, 62400, Note_off_c, 8, 48, 0
25, 62400, Note_off_c, 8, 52, 0
25, 62400, Note_off_c, 8, 43, 0
25, 62880, Note_on_c, 8, 43, 76
25, 62880, Note_on_c, 8, 48, 76
25, 62880, Note_on_c, 8, 52, 76
25, 63120, Note_off_c, 8, 48, 0
25, 63120, Note_off_c, 8, 43, 0
25, 63120, Note_off_c, 8, 52, 0
25, 63360, Note_on_c, 8, 45, 81
25, 63360, Note_on_c, 8, 50, 81
25, 63360, Note_on_c, 8, 54, 81
25, 64800, Note_off_c, 8, 45, 0
25, 64800, Note_off_c, 8, 54, 0
25, 64800, Note_on_c, 8, 45, 77
25, 64800, Note_on_c, 8, 50, 77
25, 64800, Note_on_c, 8, 54, 77
25, 64800, Note_off_c, 8, 50, 0
25, 65040, Note_off_c, 8, 45, 0
25, 65040, Note_off_c, 8, 50, 0
25, 65040, Note_off_c, 8, 54, 0
25, 65280, Note_on_c, 8, 45, 79
25, 65280, Note_on_c, 8, 48, 79
25, 65280, Note_on_c, 8, 52, 79
25, 65520, Note_off_c, 8, 52, 0
25, 65520, Note_off_c, 8, 48, 0
25, 65520, Note_off_c, 8, 45, 0
25, 66000, Note_on_c, 8, 45, 75
25, 66000, Note_on_c, 8, 48, 75
25, 66000, Note_on_c, 8, 52, 75
25, 66240, Note_off_c, 8, 45, 0
25, 66240, Note_off_c, 8, 48, 0
25, 66240, Note_off_c, 8, 52, 0
25, 66720, Note_on_c, 8, 45, 76
25, 66720, Note_on_c, 8, 52, 76
25, 66720, Note_on_c, 8, 48, 76
25, 67200, Note_off_c, 8, 45, 0
25, 67200, Note_off_c, 8, 48, 0
25, 67200, Note_off_c, 8, 52, 0
25, 67200, Note_on_c, 8, 43, 76
25, 67200, Note_on_c, 8, 47, 76
25, 67200, Note_on_c, 8, 50, 76
25, 67440, Note_off_c, 8, 43, 0
25, 67440, Note_off_c, 8, 47, 0
25, 67440, Note_off_c, 8, 50, 0
25, 69840, Note_on_c, 8, 52, 76
25, 69840, Note_on_c, 8, 43, 76
25, 69840, Note_on_c, 8, 48, 76
25, 70080, Note_off_c, 8, 48, 0
25, 70080, Note_off_c, 8, 43, 0
25, 70080, Note_off_c, 8, 52, 0
25, 70560, Note_on_c, 8, 43, 76
25, 70560, Note_on_c, 8, 48, 76
25, 70560, Note_on_c, 8, 52, 76
25, 70800, Note_off_c, 8, 43, 0
25, 70800, Note_off_c, 8, 48, 0
25, 70800, Note_off_c, 8, 52, 0
25, 71040, Note_on_c, 8, 54, 81
25, 71040, Note_on_c, 8, 50, 81
25, 71040, Note_on_c, 8, 45, 81
25, 72480, Note_off_c, 8, 50, 0
25, 72480, Note_off_c, 8, 54, 0
25, 72480, Note_on_c, 8, 45, 77
25, 72480, Note_on_c, 8, 50, 77
25, 72480, Note_on_c, 8, 54, 77
25, 72480, Note_off_c, 8, 45, 0
25, 72720, Note_off_c, 8, 45, 0
25, 72720, Note_off_c, 8, 50, 0
25, 72720, Note_off_c, 8, 54, 0
25, 72960, Note_on_c, 8, 45, 79
25, 72960, Note_on_c, 8, 52, 79
25, 72960, Note_on_c, 8, 48, 79
25, 73200, Note_off_c, 8, 48, 0
25, 73200, Note_off_c, 8, 52, 0
25, 73200, Note_off_c, 8, 45, 0
25, 73680, Note_on_c, 8, 43, 76
25, 73680, Note_on_c, 8, 52, 75
25, 73680, Note_on_c, 8, 45, 76
25, 73680, Note_on_c, 8, 48, 75
25, 73680, Note_on_c, 8, 48, 75
25, 73680, Note_on_c, 8, 52, 75
25, 73688, Note_off_c, 8, 52, 0
25, 73688, Note_off_c, 8, 48, 0
25, 73800, Note_off_c, 8, 48, 0
25, 73800, Note_off_c, 8, 52, 0
25, 73920, Note_off_c, 8, 43, 0
25, 73920, Note_off_c, 8, 45, 0
25, 74400, Note_on_c, 8, 52, 76
25, 74400, Note_on_c, 8, 48, 76
25, 74400, Note_on_c, 8, 43, 76
25, 74640, Note_off_c, 8, 52, 0
25, 74640, Note_off_c, 8, 48, 0
25, 74640, Note_off_c, 8, 43, 0
25, 74880, Note_on_c, 8, 54, 81
25, 74880, Note_on_c, 8, 45, 81
25, 74880, Note_on_c, 8, 50, 81
25, 76320, Note_off_c, 8, 45, 0
25, 76320, Note_off_c, 8, 50, 0
25, 76320, Note_off_c, 8, 54, 0
25, 76320, Note_on_c, 8, 45, 77
25, 76320, Note_on_c, 8, 50, 77
25, 76320, Note_on_c, 8, 54, 77
25, 76560, Note_off_c, 8, 45, 0
25, 76560, Note_off_c, 8, 50, 0
25, 76560, Note_off_c, 8, 54, 0
25, 77520, Note_on_c, 8, 45, 75
25, 77520, Note_on_c, 8, 52, 75
25, 77520, Note_on_c, 8, 48, 75
25, 77760, Note_off_c, 8, 45, 0
25, 77760, Note_off_c, 8, 48, 0
25, 77760, Note_off_c, 8, 52, 0
25, 78240, Note_on_c, 8, 45, 76
25, 78240, Note_on_c, 8, 48, 76
25, 78240, Note_on_c, 8, 52, 76
25, 78480, Note_off_c, 8, 45, 0
25, 78480, Note_off_c, 8, 48, 0
25, 78480, Note_off_c, 8, 52, 0
25, 78720, Note_on_c, 8, 52, 79
25, 78720, Note_on_c, 8, 45, 79
25, 78720, Note_on_c, 8, 48, 79
25, 80160, Note_off_c, 8, 48, 0
25, 80160, Note_off_c, 8, 45, 0
25, 80160, Note_off_c, 8, 52, 0
25, 80160, Note_on_c, 8, 45, 76
25, 80160, Note_on_c, 8, 48, 76
25, 80160, Note_on_c, 8, 52, 76
25, 80400, Note_off_c, 8, 45, 0
25, 80400, Note_off_c, 8, 48, 0
25, 80400, Note_off_c, 8, 52, 0
25, 107520, Note_on_c, 8, 26, 81
25, 107520, Note_on_c, 8, 30, 81
25, 108000, Note_off_c, 8, 26, 0
25, 108000, Note_off_c, 8, 30, 0
25, 108480, Note_on_c, 8, 26, 76
25, 108480, Note_on_c, 8, 30, 76
25, 108960, Note_off_c, 8, 26, 0
25, 108960, Note_off_c, 8, 30, 0
25, 109440, Note_on_c, 8, 30, 80
25, 109440, Note_on_c, 8, 33, 80
25, 109920, Note_off_c, 8, 30, 0
25, 109920, Note_off_c, 8, 33, 0
25, 110400, Note_on_c, 8, 33, 77
25, 110400, Note_on_c, 8, 30, 77
25, 110880, Note_off_c, 8, 30, 0
25, 110880, Note_off_c, 8, 33, 0
25, 110880, End_track
26, 0, Start_track
26, 0, Title_t, "Bass"
26, 0, Instrument_name_t, "Bass VI Clean"
26, 0, Program_c, 10, 27
26, 118871, Note_on_c, 10, 28, 89
26, 119068, Note_off_c, 10, 28, 0
26, 119111, Note_on_c, 10, 28, 73
26, 126748, Note_off_c, 10, 28, 0
26, 126791, Note_on_c, 10, 40, 78
26, 127718, Note_off_c, 10, 40, 0
26, 127759, Note_on_c, 10, 40, 76
26, 128668, Note_off_c, 10, 40, 0
26, 128711, Note_on_c, 10, 40, 78
26, 129162, Note_off_c, 10, 40, 0
26, 129440, Note_on_c, 10, 40, 73
26, 129638, Note_off_c, 10, 40, 0
26, 129679, Note_on_c, 10, 35, 76
26, 130588, Note_off_c, 10, 35, 0
26, 130631, Note_on_c, 10, 37, 66
26, 130829, Note_off_c, 10, 37, 0
26, 130885, Note_on_c, 10, 37, 61
26, 131117, Note_off_c, 10, 37, 0
26, 131599, Note_on_c, 10, 37, 55
26, 131782, Note_off_c, 10, 37, 0
26, 131838, Note_on_c, 10, 37, 52
26, 132068, Note_off_c, 10, 37, 0
26, 132551, Note_on_c, 10, 37, 57
26, 132749, Note_off_c, 10, 37, 0
26, 132805, Note_on_c, 10, 37, 52
26, 133037, Note_off_c, 10, 37, 0
26, 133519, Note_on_c, 10, 35, 67
26, 133717, Note_off_c, 10, 35, 0
26, 133758, Note_on_c, 10, 35, 64
26, 134428, Note_off_c, 10, 35, 0
26, 134471, Note_on_c, 10, 37, 57
26, 134669, Note_off_c, 10, 37, 0
26, 134725, Note_on_c, 10, 37, 52
26, 134957, Note_off_c, 10, 37, 0
26, 135439, Note_on_c, 10, 37, 55
26, 135622, Note_off_c, 10, 37, 0
26, 135678, Note_on_c, 10, 37, 52
26, 135908, Note_off_c, 10, 37, 0
26, 136391, Note_on_c, 10, 37, 57
26, 136589, Note_off_c, 10, 37, 0
26, 136645, Note_on_c, 10, 37, 52
26, 136877, Note_off_c, 10, 37, 0
26, 137359, Note_on_c, 10, 35, 67
26, 137557, Note_off_c, 10, 35, 0
26, 137598, Note_on_c, 10, 35, 64
26, 138268, Note_off_c, 10, 35, 0
26, 138311, Note_on_c, 10, 37, 57
26, 138509, Note_off_c, 10, 37, 0
26, 138565, Note_on_c, 10, 37, 52
26, 138797, Note_off_c, 10, 37, 0
26, 139279, Note_on_c, 10, 37, 55
26, 139462, Note_off_c, 10, 37, 0
26, 139518, Note_on_c, 10, 37, 52
26, 139748, Note_off_c, 10, 37, 0
26, 140231, Note_on_c, 10, 37, 57
26, 140429, Note_off_c, 10, 37, 0
26, 140485, Note_on_c, 10, 37, 52
26, 140717, Note_off_c, 10, 37, 0
26, 141199, Note_on_c, 10, 35, 67
26, 141397, Note_off_c, 10, 35, 0
26, 141438, Note_on_c, 10, 35, 64
26, 142108, Note_off_c, 10, 35, 0
26, 142151, Note_on_c, 10, 37, 57
26, 142349, Note_off_c, 10, 37, 0
26, 142405, Note_on_c, 10, 37, 52
26, 142637, Note_off_c, 10, 37, 0
26, 143119, Note_on_c, 10, 37, 55
26, 143302, Note_off_c, 10, 37, 0
26, 143358, Note_on_c, 10, 37, 52
26, 143588, Note_off_c, 10, 37, 0
26, 144071, Note_on_c, 10, 37, 69
26, 144998, Note_off_c, 10, 37, 0
26, 145039, Note_on_c, 10, 35, 67
26, 145948, Note_off_c, 10, 35, 0
26, 145991, Note_on_c, 10, 37, 57
26, 146189, Note_off_c, 10, 37, 0
26, 146245, Note_on_c, 10, 37, 52
26, 146477, Note_off_c, 10, 37, 0
26, 146959, Note_on_c, 10, 37, 55
26, 147142, Note_off_c, 10, 37, 0
26, 147198, Note_on_c, 10, 37, 52
26, 147428, Note_off_c, 10, 37, 0
26, 147911, Note_on_c, 10, 37, 57
26, 148109, Note_off_c, 10, 37, 0
26, 148165, Note_on_c, 10, 37, 52
26, 148397, Note_off_c, 10, 37, 0
26, 148879, Note_on_c, 10, 35, 67
26, 149077, Note_off_c, 10, 35, 0
26, 149118, Note_on_c, 10, 35, 64
26, 149788, Note_off_c, 10, 35, 0
26, 149831, Note_on_c, 10, 37, 57
26, 150029, Note_off_c, 10, 37, 0
26, 150085, Note_on_c, 10, 37, 52
26, 150317, Note_off_c, 10, 37, 0
26, 150799, Note_on_c, 10, 37, 55
26, 150982, Note_off_c, 10, 37, 0
26, 151038, Note_on_c, 10, 37, 52
26, 151268, Note_off_c, 10, 37, 0
26, 151751, Note_on_c, 10, 37, 57
26, 151949, Note_off_c, 10, 37, 0
26, 152005, Note_on_c, 10, 37, 52
26, 152237, Note_off_c, 10, 37, 0
26, 152719, Note_on_c, 10, 35, 67
26, 152917, Note_off_c, 10, 35, 0
26, 152958, Note_on_c, 10, 35, 64
26, 153628, Note_off_c, 10, 35, 0
26, 153671, Note_on_c, 10, 37, 57
26, 153869, Note_off_c, 10, 37, 0
26, 153925, Note_on_c, 10, 37, 52
26, 154157, Note_off_c, 10, 37, 0
26, 154639, Note_on_c, 10, 37, 55
26, 154822, Note_off_c, 10, 37, 0
26, 154878, Note_on_c, 10, 37, 52
26, 155108, Note_off_c, 10, 37, 0
26, 155591, Note_on_c, 10, 30, 69
26, 156518, Note_off_c, 10, 30, 0
26, 156559, Note_on_c, 10, 32, 67
26, 157468, Note_off_c, 10, 32, 0
26, 157511, Note_on_c, 10, 37, 57
26, 157709, Note_off_c, 10, 37, 0
26, 157765, Note_on_c, 10, 37, 52
26, 157997, Note_off_c, 10, 37, 0
26, 158479, Note_on_c, 10, 37, 55
26, 158662, Note_off_c, 10, 37, 0
26, 158718, Note_on_c, 10, 37, 52
26, 158948, Note_off_c, 10, 37, 0
26, 159431, Note_on_c, 10, 37, 69
26, 159882, Note_off_c, 10, 37, 0
26, 159923, Note_on_c, 10, 39, 65
26, 160358, Note_off_c, 10, 39, 0
26, 160399, Note_on_c, 10, 40, 67
26, 160833, Note_off_c, 10, 40, 0
26, 160875, Note_on_c, 10, 44, 65
26, 161308, Note_off_c, 10, 44, 0
26, 161351, Note_on_c, 10, 42, 65
26, 163229, Note_off_c, 10, 42, 0
26, 163271, Note_on_c, 10, 32, 65
26, 165149, Note_off_c, 10, 32, 0
26, 165191, Note_on_c, 10, 37, 65
26, 167069, Note_off_c, 10, 37, 0
26, 167111, Note_on_c, 10, 37, 65
26, 168989, Note_off_c, 10, 37, 0
26, 169031, Note_on_c, 10, 34, 70
26, 169959, Note_off_c, 10, 34, 0
26, 169999, Note_on_c, 10, 33, 68
26, 170909, Note_off_c, 10, 33, 0
26, 170951, Note_on_c, 10, 32, 70
26, 171879, Note_off_c, 10, 32, 0
26, 171919, Note_on_c, 10, 36, 68
26, 172829, Note_off_c, 10, 36, 0
26, 172871, Note_on_c, 10, 37, 70
26, 173323, Note_off_c, 10, 37, 0
26, 173363, Note_on_c, 10, 39, 66
26, 173799, Note_off_c, 10, 39, 0
26, 173839, Note_on_c, 10, 40, 68
26, 174275, Note_off_c, 10, 40, 0
26, 174315, Note_on_c, 10, 39, 66
26, 174749, Note_off_c, 10, 39, 0
26, 174791, Note_on_c, 10, 40, 70
26, 175243, Note_off_c, 10, 40, 0
26, 175283, Note_on_c, 10, 42, 66
26, 175719, Note_off_c, 10, 42, 0
26, 175759, Note_on_c, 10, 44, 68
26, 176195, Note_off_c, 10, 44, 0
26, 176235, Note_on_c, 10, 46, 66
26, 176669, Note_off_c, 10, 46, 0
26, 176711, Note_on_c, 10, 35, 58
26, 176910, Note_off_c, 10, 35, 0
26, 176965, Note_on_c, 10, 35, 53
26, 177148, Note_off_c, 10, 35, 0
26, 177203, Note_on_c, 10, 35, 54
26, 177385, Note_off_c, 10, 35, 0
26, 177440, Note_on_c, 10, 35, 53
26, 177624, Note_off_c, 10, 35, 0
26, 177679, Note_on_c, 10, 35, 56
26, 177863, Note_off_c, 10, 35, 0
26, 177918, Note_on_c, 10, 35, 53
26, 178100, Note_off_c, 10, 35, 0
26, 178155, Note_on_c, 10, 35, 54
26, 178336, Note_off_c, 10, 35, 0
26, 178391, Note_on_c, 10, 35, 53
26, 178574, Note_off_c, 10, 35, 0
26, 178631, Note_on_c, 10, 35, 58
26, 178830, Note_off_c, 10, 35, 0
26, 178885, Note_on_c, 10, 35, 53
26, 179068, Note_off_c, 10, 35, 0
26, 179123, Note_on_c, 10, 35, 54
26, 179305, Note_off_c, 10, 35, 0
26, 179360, Note_on_c, 10, 35, 53
26, 179544, Note_off_c, 10, 35, 0
26, 179599, Note_on_c, 10, 35, 56
26, 179783, Note_off_c, 10, 35, 0
26, 179838, Note_on_c, 10, 35, 53
26, 180020, Note_off_c, 10, 35, 0
26, 180075, Note_on_c, 10, 35, 54
26, 180256, Note_off_c, 10, 35, 0
26, 180311, Note_on_c, 10, 35, 53
26, 180542, Note_off_c, 10, 35, 0
26, 180551, Note_on_c, 10, 40, 58
26, 180750, Note_off_c, 10, 40, 0
26, 180805, Note_on_c, 10, 40, 53
26, 180988, Note_off_c, 10, 40, 0
26, 181043, Note_on_c, 10, 40, 54
26, 181225, Note_off_c, 10, 40, 0
26, 181280, Note_on_c, 10, 40, 53
26, 181464, Note_off_c, 10, 40, 0
26, 181519, Note_on_c, 10, 40, 56
26, 181703, Note_off_c, 10, 40, 0
26, 181758, Note_on_c, 10, 40, 53
26, 181940, Note_off_c, 10, 40, 0
26, 181995, Note_on_c, 10, 40, 54
26, 182176, Note_off_c, 10, 40, 0
26, 182231, Note_on_c, 10, 40, 53
26, 182414, Note_off_c, 10, 40, 0
26, 182471, Note_on_c, 10, 40, 58
26, 182670, Note_off_c, 10, 40, 0
26, 182725, Note_on_c, 10, 40, 53
26, 182908, Note_off_c, 10, 40, 0
26, 182963, Note_on_c, 10, 40, 54
26, 183145, Note_off_c, 10, 40, 0
26, 183200, Note_on_c, 10, 40, 53
26, 183384, Note_off_c, 10, 40, 0
26, 183439, Note_on_c, 10, 40, 56
26, 183623, Note_off_c, 10, 40, 0
26, 183678, Note_on_c, 10, 40, 53
26, 183860, Note_off_c, 10, 40, 0
26, 183915, Note_on_c, 10, 40, 54
26, 184096, Note_off_c, 10, 40, 0
26, 184151, Note_on_c, 10, 40, 53
26, 184382, Note_off_c, 10, 40, 0
26, 184391, Note_on_c, 10, 39, 58
26, 184590, Note_off_c, 10, 39, 0
26, 184645, Note_on_c, 10, 39, 53
26, 184828, Note_off_c, 10, 39, 0
26, 184883, Note_on_c, 10, 39, 54
26, 185065, Note_off_c, 10, 39, 0
26, 185120, Note_on_c, 10, 39, 53
26, 185304, Note_off_c, 10, 39, 0
26, 185359, Note_on_c, 10, 39, 56
26, 185543, Note_off_c, 10, 39, 0
26, 185598, Note_on_c, 10, 39, 53
26, 185780, Note_off_c, 10, 39, 0
26, 185835, Note_on_c, 10, 39, 54
26, 186016, Note_off_c, 10, 39, 0
26, 186071, Note_on_c, 10, 39, 53
26, 186254, Note_off_c, 10, 39, 0
26, 186311, Note_on_c, 10, 39, 58
26, 186510, Note_off_c, 10, 39, 0
26, 186565, Note_on_c, 10, 39, 53
26, 186748, Note_off_c, 10, 39, 0
26, 186803, Note_on_c, 10, 39, 54
26, 186985, Note_off_c, 10, 39, 0
26, 187040, Note_on_c, 10, 39, 53
26, 187224, Note_off_c, 10, 39, 0
26, 187279, Note_on_c, 10, 39, 56
26, 187463, Note_off_c, 10, 39, 0
26, 187518, Note_on_c, 10, 39, 53
26, 187700, Note_off_c, 10, 39, 0
26, 187755, Note_on_c, 10, 39, 54
26, 187936, Note_off_c, 10, 39, 0
26, 187991, Note_on_c, 10, 39, 53
26, 188222, Note_off_c, 10, 39, 0
26, 188231, Note_on_c, 10, 32, 70
26, 189159, Note_off_c, 10, 32, 0
26, 189199, Note_on_c, 10, 30, 68
26, 190109, Note_off_c, 10, 30, 0
26, 190151, Note_on_c, 10, 28, 70
26, 191079, Note_off_c, 10, 28, 0
26, 191119, Note_on_c, 10, 27, 68
26, 192029, Note_off_c, 10, 27, 0
26, 192071, Note_on_c, 10, 30, 70
26, 192285, Note_off_c, 10, 30, 0
26, 192325, Note_on_c, 10, 32, 65
26, 192523, Note_off_c, 10, 32, 0
26, 192563, Note_on_c, 10, 34, 66
26, 192760, Note_off_c, 10, 34, 0
26, 192800, Note_on_c, 10, 35, 65
26, 192999, Note_off_c, 10, 35, 0
26, 193039, Note_on_c, 10, 37, 68
26, 193238, Note_off_c, 10, 37, 0
26, 193278, Note_on_c, 10, 35, 65
26, 193475, Note_off_c, 10, 35, 0
26, 193515, Note_on_c, 10, 37, 66
26, 193711, Note_off_c, 10, 37, 0
26, 193751, Note_on_c, 10, 39, 65
26, 193949, Note_off_c, 10, 39, 0
26, 193991, Note_on_c, 10, 40, 70
26, 194205, Note_off_c, 10, 40, 0
26, 194245, Note_on_c, 10, 39, 65
26, 194443, Note_off_c, 10, 39, 0
26, 194483, Note_on_c, 10, 40, 66
26, 194680, Note_off_c, 10, 40, 0
26, 194720, Note_on_c, 10, 42, 65
26, 194919, Note_off_c, 10, 42, 0
26, 194959, Note_on_c, 10, 44, 68
26, 195158, Note_off_c, 10, 44, 0
26, 195198, Note_on_c, 10, 46, 65
26, 195395, Note_off_c, 10, 46, 0
26, 195435, Note_on_c, 10, 47, 66
26, 195631, Note_off_c, 10, 47, 0
26, 195671, Note_on_c, 10, 48, 65
26, 195869, Note_off_c, 10, 48, 0
26, 195911, Note_on_c, 10, 37, 70
26, 196839, Note_off_c, 10, 37, 0
26, 196879, Note_on_c, 10, 37, 68
26, 197315, Note_off_c, 10, 37, 0
26, 197355, Note_on_c, 10, 36, 66
26, 197789, Note_off_c, 10, 36, 0
26, 197831, Note_on_c, 10, 37, 70
26, 198283, Note_off_c, 10, 37, 0
26, 198323, Note_on_c, 10, 33, 66
26, 198759, Note_off_c, 10, 33, 0
26, 198799, Note_on_c, 10, 32, 68
26, 199709, Note_off_c, 10, 32, 0
26, 199751, Note_on_c, 10, 30, 70
26, 199965, Note_off_c, 10, 30, 0
26, 200005, Note_on_c, 10, 32, 65
26, 200203, Note_off_c, 10, 32, 0
26, 200243, Note_on_c, 10, 34, 66
26, 200440, Note_off_c, 10, 34, 0
26, 200480, Note_on_c, 10, 35, 65
26, 200679, Note_off_c, 10, 35, 0
26, 200719, Note_on_c, 10, 37, 68
26, 200918, Note_off_c, 10, 37, 0
26, 200958, Note_on_c, 10, 35, 65
26, 201155, Note_off_c, 10, 35, 0
26, 201195, Note_on_c, 10, 37, 66
26, 201391, Note_off_c, 10, 37, 0
26, 201431, Note_on_c, 10, 39, 65
26, 201629, Note_off_c, 10, 39, 0
26, 201671, Note_on_c, 10, 40, 70
26, 201885, Note_off_c, 10, 40, 0
26, 201925, Note_on_c, 10, 39, 65
26, 202123, Note_off_c, 10, 39, 0
26, 202163, Note_on_c, 10, 40, 66
26, 202360, Note_off_c, 10, 40, 0
26, 202400, Note_on_c, 10, 42, 65
26, 202599, Note_off_c, 10, 42, 0
26, 202639, Note_on_c, 10, 44, 68
26, 202838, Note_off_c, 10, 44, 0
26, 202878, Note_on_c, 10, 46, 65
26, 203075, Note_off_c, 10, 46, 0
26, 203115, Note_on_c, 10, 47, 66
26, 203311, Note_off_c, 10, 47, 0
26, 203351, Note_on_c, 10, 48, 65
26, 203549, Note_off_c, 10, 48, 0
26, 203591, Note_on_c, 10, 42, 70
26, 204519, Note_off_c, 10, 42, 0
26, 204559, Note_on_c, 10, 45, 68
26, 204995, Note_off_c, 10, 45, 0
26, 205035, Note_on_c, 10, 44, 66
26, 205469, Note_off_c, 10, 44, 0
26, 205511, Note_on_c, 10, 42, 70
26, 205963, Note_off_c, 10, 42, 0
26, 206003, Note_on_c, 10, 40, 66
26, 206439, Note_off_c, 10, 40, 0
26, 206479, Note_on_c, 10, 39, 68
26, 206915, Note_off_c, 10, 39, 0
26, 206955, Note_on_c, 10, 35, 66
26, 207389, Note_off_c, 10, 35, 0
26, 222791, Note_on_c, 10, 44, 62
26, 223719, Note_off_c, 10, 44, 0
26, 223759, Note_on_c, 10, 44, 60
26, 224195, Note_off_c, 10, 44, 0
26, 224235, Note_on_c, 10, 45, 58
26, 224669, Note_off_c, 10, 45, 0
26, 224711, Note_on_c, 10, 44, 62
26, 225163, Note_off_c, 10, 44, 0
26, 225203, Note_on_c, 10, 42, 58
26, 225639, Note_off_c, 10, 42, 0
26, 225679, Note_on_c, 10, 40, 60
26, 226589, Note_off_c, 10, 40, 0
26, 226631, Note_on_c, 10, 47, 62
26, 227559, Note_off_c, 10, 47, 0
26, 227599, Note_on_c, 10, 47, 60
26, 228035, Note_off_c, 10, 47, 0
26, 228075, Note_on_c, 10, 49, 58
26, 228509, Note_off_c, 10, 49, 0
26, 228551, Note_on_c, 10, 47, 62
26, 229479, Note_off_c, 10, 47, 0
26, 229519, Note_on_c, 10, 45, 60
26, 229955, Note_off_c, 10, 45, 0
26, 229995, Note_on_c, 10, 44, 58
26, 230429, Note_off_c, 10, 44, 0
26, 230471, Note_on_c, 10, 37, 57
26, 232349, Note_off_c, 10, 37, 0
26, 232391, Note_on_c, 10, 35, 57
26, 234269, Note_off_c, 10, 35, 0
26, 234311, Note_on_c, 10, 33, 57
26, 238108, Note_off_c, 10, 33, 0
26, 238151, Note_on_c, 10, 36, 57
26, 240028, Note_off_c, 10, 36, 0
26, 240071, Note_on_c, 10, 38, 57
26, 241948, Note_off_c, 10, 38, 0
26, 241991, Note_on_c, 10, 39, 57
26, 245788, Note_off_c, 10, 39, 0
26, 245831, Note_on_c, 10, 36, 57
26, 247708, Note_off_c, 10, 36, 0
26, 247751, Note_on_c, 10, 29, 57
26, 249628, Note_off_c, 10, 29, 0
26, 249671, Note_on_c, 10, 31, 62
26, 249884, Note_off_c, 10, 31, 0
26, 249925, Note_on_c, 10, 33, 57
26, 250122, Note_off_c, 10, 33, 0
26, 250163, Note_on_c, 10, 35, 58
26, 250359, Note_off_c, 10, 35, 0
26, 250400, Note_on_c, 10, 33, 57
26, 250598, Note_off_c, 10, 33, 0
26, 250639, Note_on_c, 10, 35, 60
26, 250837, Note_off_c, 10, 35, 0
26, 250878, Note_on_c, 10, 36, 57
26, 251073, Note_off_c, 10, 36, 0
26, 251115, Note_on_c, 10, 38, 58
26, 251310, Note_off_c, 10, 38, 0
26, 251351, Note_on_c, 10, 36, 57
26, 251548, Note_off_c, 10, 36, 0
26, 251591, Note_on_c, 10, 38, 62
26, 251804, Note_off_c, 10, 38, 0
26, 251845, Note_on_c, 10, 40, 57
26, 252042, Note_off_c, 10, 40, 0
26, 252083, Note_on_c, 10, 41, 58
26, 252279, Note_off_c, 10, 41, 0
26, 252320, Note_on_c, 10, 40, 57
26, 252518, Note_off_c, 10, 40, 0
26, 252559, Note_on_c, 10, 41, 60
26, 252757, Note_off_c, 10, 41, 0
26, 252798, Note_on_c, 10, 43, 57
26, 252993, Note_off_c, 10, 43, 0
26, 253035, Note_on_c, 10, 45, 58
26, 253230, Note_off_c, 10, 45, 0
26, 253271, Note_on_c, 10, 47, 57
26, 253468, Note_off_c, 10, 47, 0
26, 253511, Note_on_c, 10, 31, 62
26, 253724, Note_off_c, 10, 31, 0
26, 253765, Note_on_c, 10, 33, 57
26, 253962, Note_off_c, 10, 33, 0
26, 254003, Note_on_c, 10, 35, 58
26, 254199, Note_off_c, 10, 35, 0
26, 254240, Note_on_c, 10, 33, 57
26, 254438, Note_off_c, 10, 33, 0
26, 254479, Note_on_c, 10, 35, 60
26, 254677, Note_off_c, 10, 35, 0
26, 254718, Note_on_c, 10, 36, 57
26, 254913, Note_off_c, 10, 36, 0
26, 254955, Note_on_c, 10, 38, 58
26, 255150, Note_off_c, 10, 38, 0
26, 255191, Note_on_c, 10, 36, 57
26, 255388, Note_off_c, 10, 36, 0
26, 255431, Note_on_c, 10, 38, 62
26, 255644, Note_off_c, 10, 38, 0
26, 255685, Note_on_c, 10, 40, 57
26, 255882, Note_off_c, 10, 40, 0
26, 255923, Note_on_c, 10, 41, 58
26, 256119, Note_off_c, 10, 41, 0
26, 256160, Note_on_c, 10, 40, 57
26, 256358, Note_off_c, 10, 40, 0
26, 256399, Note_on_c, 10, 41, 60
26, 256597, Note_off_c, 10, 41, 0
26, 256638, Note_on_c, 10, 43, 57
26, 256833, Note_off_c, 10, 43, 0
26, 256875, Note_on_c, 10, 45, 58
26, 257070, Note_off_c, 10, 45, 0
26, 257111, Note_on_c, 10, 47, 57
26, 257308, Note_off_c, 10, 47, 0
26, 257351, Note_on_c, 10, 43, 62
26, 257802, Note_off_c, 10, 43, 0
26, 259271, Note_on_c, 10, 38, 55
26, 261148, Note_off_c, 10, 38, 0
26, 261191, Note_on_c, 10, 31, 60
26, 261642, Note_off_c, 10, 31, 0
26, 261683, Note_on_c, 10, 31, 64
26, 261792, Note_off_c, 10, 31, 0
26, 261843, Note_on_c, 10, 31, 63
26, 261946, Note_off_c, 10, 31, 0
26, 261997, Note_on_c, 10, 31, 63
26, 262108, Note_off_c, 10, 31, 0
26, 262159, Note_on_c, 10, 31, 78
26, 262593, Note_off_c, 10, 31, 0
26, 262593, End_track
27, 0, Start_track
27, 0, Title_t, "Timpani"
27, 0, Instrument_name_t, "Timpani"
27, 0, Program_c, 11, 0
27, 0, Note_on_c, 11, 24, 81
27, 3840, Note_off_c, 11, 24, 0
27, 3840, Note_on_c, 11, 24, 81
27, 7680, Note_off_c, 11, 24, 0
27, 7680, Note_on_c, 11, 24, 81
27, 11520, Note_off_c, 11, 24, 0
27, 12480, Note_on_c, 11, 24, 76
27, 15360, Note_off_c, 11, 24, 0
27, 15360, Note_on_c, 11, 24, 81
27, 16320, Note_off_c, 11, 24, 0
27, 23040, Note_on_c, 11, 24, 81
27, 23040, Note_on_c, 11, 38, 81
27, 23760, Note_off_c, 11, 38, 0
27, 27840, Note_off_c, 11, 24, 0
27, 29280, Note_on_c, 11, 35, 76
27, 29520, Note_off_c, 11, 35, 0
27, 29760, Note_on_c, 11, 38, 77
27, 30000, Note_off_c, 11, 38, 0
27, 30720, Note_on_c, 11, 24, 81
27, 34560, Note_off_c, 11, 24, 0
27, 36960, Note_on_c, 11, 35, 76
27, 37200, Note_off_c, 11, 35, 0
27, 37440, Note_on_c, 11, 38, 77
27, 37680, Note_off_c, 11, 38, 0
27, 38400, Note_on_c, 11, 38, 81
27, 38400, Note_on_c, 11, 24, 81
27, 39120, Note_off_c, 11, 38, 0
27, 42240, Note_off_c, 11, 24, 0
27, 44640, Note_on_c, 11, 35, 76
27, 44880, Note_off_c, 11, 35, 0
27, 45120, Note_on_c, 11, 38, 77
27, 45360, Note_off_c, 11, 38, 0
27, 46080, Note_on_c, 11, 24, 76
27, 49920, Note_off_c, 11, 24, 0
27, 52320, Note_on_c, 11, 35, 76
27, 52560, Note_off_c, 11, 35, 0
27, 52800, Note_on_c, 11, 38, 77
27, 53040, Note_off_c, 11, 38, 0
27, 53760, Note_on_c, 11, 38, 81
27, 53760, Note_on_c, 11, 24, 81
27, 54480, Note_off_c, 11, 38, 0
27, 57600, Note_off_c, 11, 24, 0
27, 60000, Note_on_c, 11, 35, 76
27, 60240, Note_off_c, 11, 35, 0
27, 60480, Note_on_c, 11, 38, 77
27, 60720, Note_off_c, 11, 38, 0
27, 61440, Note_on_c, 11, 24, 76
27, 65280, Note_off_c, 11, 24, 0
27, 67680, Note_on_c, 11, 35, 76
27, 67920, Note_off_c, 11, 35, 0
27, 68160, Note_on_c, 11, 38, 77
27, 68400, Note_off_c, 11, 38, 0
27, 69120, Note_on_c, 11, 38, 81
27, 69120, Note_on_c, 11, 24, 81
27, 69840, Note_off_c, 11, 38, 0
27, 72960, Note_off_c, 11, 24, 0
27, 75360, Note_on_c, 11, 35, 76
27, 75600, Note_off_c, 11, 35, 0
27, 75840, Note_on_c, 11, 38, 77
27, 76080, Note_off_c, 11, 38, 0
27, 76800, Note_on_c, 11, 24, 76
27, 80640, Note_off_c, 11, 24, 0
27, 83040, Note_on_c, 11, 35, 76
27, 83280, Note_off_c, 11, 35, 0
27, 83520, Note_on_c, 11, 38, 77
27, 83760, Note_off_c, 11, 38, 0
27, 84480, Note_on_c, 11, 24, 76
27, 88320, Note_off_c, 11, 24, 0
27, 88320, End_track
28, 0, Start_track
28, 0, Title_t, "Oboe"
28, 0, Instrument_name_t, "Accordion Oboe"
28, 0, Program_c, 12, 0
28, 126435, Note_on_c, 12, 76, 88
28, 126525, Note_off_c, 12, 76, 0
28, 126551, Note_on_c, 12, 78, 88
28, 126610, Note_off_c, 12, 78, 0
28, 126629, Note_on_c, 12, 80, 88
28, 126689, Note_off_c, 12, 80, 0
28, 126707, Note_on_c, 12, 81, 88
28, 126771, Note_off_c, 12, 81, 0
28, 126791, Note_on_c, 12, 83, 88
28, 129638, Note_off_c, 12, 83, 0
28, 129679, Note_on_c, 12, 73, 91
28, 130113, Note_off_c, 12, 73, 0
28, 130155, Note_on_c, 12, 71, 89
28, 130350, Note_off_c, 12, 71, 0
28, 130391, Note_on_c, 12, 69, 88
28, 130588, Note_off_c, 12, 69, 0
28, 130631, Note_on_c, 12, 68, 88
28, 132429, Note_off_c, 12, 68, 0
28, 133519, Note_on_c, 12, 66, 91
28, 133717, Note_off_c, 12, 66, 0
28, 133758, Note_on_c, 12, 68, 88
28, 133953, Note_off_c, 12, 68, 0
28, 133995, Note_on_c, 12, 69, 89
28, 134190, Note_off_c, 12, 69, 0
28, 134231, Note_on_c, 12, 71, 88
28, 134428, Note_off_c, 12, 71, 0
28, 134471, Note_on_c, 12, 68, 88
28, 136348, Note_off_c, 12, 68, 0
28, 137120, Note_on_c, 12, 66, 88
28, 137318, Note_off_c, 12, 66, 0
28, 137359, Note_on_c, 12, 66, 91
28, 137557, Note_off_c, 12, 66, 0
28, 137598, Note_on_c, 12, 68, 88
28, 137793, Note_off_c, 12, 68, 0
28, 137835, Note_on_c, 12, 69, 89
28, 138030, Note_off_c, 12, 69, 0
28, 138071, Note_on_c, 12, 71, 88
28, 138268, Note_off_c, 12, 71, 0
28, 138311, Note_on_c, 12, 68, 88
28, 140188, Note_off_c, 12, 68, 0
28, 140723, Note_on_c, 12, 63, 92
28, 140919, Note_off_c, 12, 63, 0
28, 140960, Note_on_c, 12, 64, 91
28, 141158, Note_off_c, 12, 64, 0
28, 141199, Note_on_c, 12, 66, 94
28, 141633, Note_off_c, 12, 66, 0
28, 141675, Note_on_c, 12, 64, 92
28, 141870, Note_off_c, 12, 64, 0
28, 141911, Note_on_c, 12, 63, 91
28, 142108, Note_off_c, 12, 63, 0
28, 142151, Note_on_c, 12, 61, 96
28, 142602, Note_off_c, 12, 61, 0
28, 142643, Note_on_c, 12, 68, 91
28, 144028, Note_off_c, 12, 68, 0
28, 145039, Note_on_c, 12, 73, 95
28, 145473, Note_off_c, 12, 73, 0
28, 145515, Note_on_c, 12, 71, 93
28, 145710, Note_off_c, 12, 71, 0
28, 145751, Note_on_c, 12, 69, 92
28, 145948, Note_off_c, 12, 69, 0
28, 145991, Note_on_c, 12, 68, 92
28, 148838, Note_off_c, 12, 68, 0
28, 148879, Note_on_c, 12, 66, 95
28, 149077, Note_off_c, 12, 66, 0
28, 149118, Note_on_c, 12, 68, 92
28, 149313, Note_off_c, 12, 68, 0
28, 149355, Note_on_c, 12, 69, 93
28, 149550, Note_off_c, 12, 69, 0
28, 149591, Note_on_c, 12, 71, 92
28, 149788, Note_off_c, 12, 71, 0
28, 149831, Note_on_c, 12, 68, 92
28, 152678, Note_off_c, 12, 68, 0
28, 152719, Note_on_c, 12, 66, 95
28, 152917, Note_off_c, 12, 66, 0
28, 152958, Note_on_c, 12, 68, 92
28, 153153, Note_off_c, 12, 68, 0
28, 153195, Note_on_c, 12, 69, 93
28, 153390, Note_off_c, 12, 69, 0
28, 153431, Note_on_c, 12, 71, 92
28, 153628, Note_off_c, 12, 71, 0
28, 153671, Note_on_c, 12, 68, 92
28, 155548, Note_off_c, 12, 68, 0
28, 156083, Note_on_c, 12, 75, 93
28, 156279, Note_off_c, 12, 75, 0
28, 156320, Note_on_c, 12, 76, 92
28, 156518, Note_off_c, 12, 76, 0
28, 156559, Note_on_c, 12, 78, 95
28, 156993, Note_off_c, 12, 78, 0
28, 157035, Note_on_c, 12, 76, 93
28, 157230, Note_off_c, 12, 76, 0
28, 157271, Note_on_c, 12, 75, 92
28, 157468, Note_off_c, 12, 75, 0
28, 157511, Note_on_c, 12, 76, 97
28, 157962, Note_off_c, 12, 76, 0
28, 158003, Note_on_c, 12, 73, 92
28, 159388, Note_off_c, 12, 73, 0
28, 159431, Note_on_c, 12, 73, 97
28, 159882, Note_off_c, 12, 73, 0
28, 159923, Note_on_c, 12, 72, 93
28, 160358, Note_off_c, 12, 72, 0
28, 160399, Note_on_c, 12, 73, 95
28, 161240, Note_off_c, 12, 73, 0
28, 161351, Note_on_c, 12, 75, 97
28, 162279, Note_off_c, 12, 75, 0
28, 162319, Note_on_c, 12, 76, 95
28, 162755, Note_off_c, 12, 76, 0
28, 162795, Note_on_c, 12, 78, 93
28, 163229, Note_off_c, 12, 78, 0
28, 163271, Note_on_c, 12, 78, 97
28, 163723, Note_off_c, 12, 78, 0
28, 163763, Note_on_c, 12, 76, 93
28, 164199, Note_off_c, 12, 76, 0
28, 164239, Note_on_c, 12, 75, 95
28, 165149, Note_off_c, 12, 75, 0
28, 165191, Note_on_c, 12, 75, 97
28, 165643, Note_off_c, 12, 75, 0
28, 165683, Note_on_c, 12, 73, 93
28, 166119, Note_off_c, 12, 73, 0
28, 166159, Note_on_c, 12, 73, 95
28, 168910, Note_off_c, 12, 73, 0
28, 169031, Note_on_c, 12, 63, 97
28, 169959, Note_off_c, 12, 63, 0
28, 169999, Note_on_c, 12, 64, 95
28, 170435, Note_off_c, 12, 64, 0
28, 170475, Note_on_c, 12, 66, 93
28, 170909, Note_off_c, 12, 66, 0
28, 170951, Note_on_c, 12, 66, 97
28, 171403, Note_off_c, 12, 66, 0
28, 171443, Note_on_c, 12, 64, 93
28, 171879, Note_off_c, 12, 64, 0
28, 171919, Note_on_c, 12, 63, 95
28, 172829, Note_off_c, 12, 63, 0
28, 172871, Note_on_c, 12, 64, 97
28, 173323, Note_off_c, 12, 64, 0
28, 173363, Note_on_c, 12, 66, 93
28, 173799, Note_off_c, 12, 66, 0
28, 173839, Note_on_c, 12, 68, 95
28, 176669, Note_off_c, 12, 68, 0
28, 180551, Note_on_c, 12, 68, 93
28, 181479, Note_off_c, 12, 68, 0
28, 181519, Note_on_c, 12, 69, 91
28, 181955, Note_off_c, 12, 69, 0
28, 181995, Note_on_c, 12, 71, 89
28, 182429, Note_off_c, 12, 71, 0
28, 182471, Note_on_c, 12, 71, 93
28, 182923, Note_off_c, 12, 71, 0
28, 182963, Note_on_c, 12, 69, 89
28, 183399, Note_off_c, 12, 69, 0
28, 183439, Note_on_c, 12, 68, 91
28, 184349, Note_off_c, 12, 68, 0
28, 195911, Note_on_c, 12, 73, 97
28, 196839, Note_off_c, 12, 73, 0
28, 196879, Note_on_c, 12, 73, 95
28, 197315, Note_off_c, 12, 73, 0
28, 197355, Note_on_c, 12, 72, 93
28, 197789, Note_off_c, 12, 72, 0
28, 197831, Note_on_c, 12, 73, 97
28, 198283, Note_off_c, 12, 73, 0
28, 198323, Note_on_c, 12, 72, 93
28, 198759, Note_off_c, 12, 72, 0
28, 198799, Note_on_c, 12, 73, 95
28, 199709, Note_off_c, 12, 73, 0
28, 199751, Note_on_c, 12, 54, 97
28, 199965, Note_off_c, 12, 54, 0
28, 200005, Note_on_c, 12, 56, 92
28, 200203, Note_off_c, 12, 56, 0
28, 200243, Note_on_c, 12, 58, 93
28, 200440, Note_off_c, 12, 58, 0
28, 200480, Note_on_c, 12, 59, 92
28, 200679, Note_off_c, 12, 59, 0
28, 200719, Note_on_c, 12, 61, 95
28, 200918, Note_off_c, 12, 61, 0
28, 200958, Note_on_c, 12, 59, 92
28, 201155, Note_off_c, 12, 59, 0
28, 201195, Note_on_c, 12, 61, 93
28, 201391, Note_off_c, 12, 61, 0
28, 201431, Note_on_c, 12, 63, 92
28, 201629, Note_off_c, 12, 63, 0
28, 201671, Note_on_c, 12, 64, 97
28, 201885, Note_off_c, 12, 64, 0
28, 201925, Note_on_c, 12, 63, 92
28, 202123, Note_off_c, 12, 63, 0
28, 202163, Note_on_c, 12, 64, 93
28, 202360, Note_off_c, 12, 64, 0
28, 202400, Note_on_c, 12, 66, 92
28, 202599, Note_off_c, 12, 66, 0
28, 202639, Note_on_c, 12, 68, 95
28, 202838, Note_off_c, 12, 68, 0
28, 202878, Note_on_c, 12, 70, 92
28, 203075, Note_off_c, 12, 70, 0
28, 203115, Note_on_c, 12, 71, 93
28, 203311, Note_off_c, 12, 71, 0
28, 203351, Note_on_c, 12, 72, 92
28, 203549, Note_off_c, 12, 72, 0
28, 203591, Note_on_c, 12, 64, 92
28, 205469, Note_off_c, 12, 64, 0
28, 205511, Note_on_c, 12, 63, 92
28, 207389, Note_off_c, 12, 63, 0
28, 207431, Note_on_c, 12, 68, 97
28, 208359, Note_off_c, 12, 68, 0
28, 208399, Note_on_c, 12, 68, 95
28, 208835, Note_off_c, 12, 68, 0
28, 208875, Note_on_c, 12, 69, 93
28, 209309, Note_off_c, 12, 69, 0
28, 209351, Note_on_c, 12, 68, 97
28, 209803, Note_off_c, 12, 68, 0
28, 209843, Note_on_c, 12, 66, 93
28, 210279, Note_off_c, 12, 66, 0
28, 210319, Note_on_c, 12, 64, 95
28, 211229, Note_off_c, 12, 64, 0
28, 211271, Note_on_c, 12, 71, 97
28, 212199, Note_off_c, 12, 71, 0
28, 212239, Note_on_c, 12, 71, 95
28, 212675, Note_off_c, 12, 71, 0
28, 212715, Note_on_c, 12, 73, 93
28, 213149, Note_off_c, 12, 73, 0
28, 213191, Note_on_c, 12, 71, 97
28, 214119, Note_off_c, 12, 71, 0
28, 214159, Note_on_c, 12, 69, 95
28, 214595, Note_off_c, 12, 69, 0
28, 214635, Note_on_c, 12, 68, 93
28, 215069, Note_off_c, 12, 68, 0
28, 215111, Note_on_c, 12, 69, 97
28, 216039, Note_off_c, 12, 69, 0
28, 216079, Note_on_c, 12, 66, 95
28, 216515, Note_off_c, 12, 66, 0
28, 216555, Note_on_c, 12, 68, 93
28, 216989, Note_off_c, 12, 68, 0
28, 217031, Note_on_c, 12, 69, 97
28, 217959, Note_off_c, 12, 69, 0
28, 217999, Note_on_c, 12, 68, 95
28, 218435, Note_off_c, 12, 68, 0
28, 218475, Note_on_c, 12, 66, 93
28, 218909, Note_off_c, 12, 66, 0
28, 218951, Note_on_c, 12, 66, 97
28, 219403, Note_off_c, 12, 66, 0
28, 219443, Note_on_c, 12, 64, 93
28, 219879, Note_off_c, 12, 64, 0
28, 219919, Note_on_c, 12, 68, 95
28, 222749, Note_off_c, 12, 68, 0
28, 222791, Note_on_c, 12, 80, 97
28, 223719, Note_off_c, 12, 80, 0
28, 223759, Note_on_c, 12, 80, 95
28, 224195, Note_off_c, 12, 80, 0
28, 224235, Note_on_c, 12, 81, 93
28, 224669, Note_off_c, 12, 81, 0
28, 224711, Note_on_c, 12, 80, 97
28, 225163, Note_off_c, 12, 80, 0
28, 225203, Note_on_c, 12, 78, 93
28, 225639, Note_off_c, 12, 78, 0
28, 225679, Note_on_c, 12, 76, 95
28, 226589, Note_off_c, 12, 76, 0
28, 226631, Note_on_c, 12, 83, 97
28, 227559, Note_off_c, 12, 83, 0
28, 227599, Note_on_c, 12, 83, 95
28, 228035, Note_off_c, 12, 83, 0
28, 228075, Note_on_c, 12, 85, 93
28, 228509, Note_off_c, 12, 85, 0
28, 228551, Note_on_c, 12, 83, 97
28, 229479, Note_off_c, 12, 83, 0
28, 229519, Note_on_c, 12, 81, 95
28, 229955, Note_off_c, 12, 81, 0
28, 229995, Note_on_c, 12, 80, 93
28, 230429, Note_off_c, 12, 80, 0
28, 230471, Note_on_c, 12, 81, 97
28, 231399, Note_off_c, 12, 81, 0
28, 231439, Note_on_c, 12, 78, 95
28, 231875, Note_off_c, 12, 78, 0
28, 231915, Note_on_c, 12, 80, 93
28, 232349, Note_off_c, 12, 80, 0
28, 232391, Note_on_c, 12, 81, 97
28, 233319, Note_off_c, 12, 81, 0
28, 233359, Note_on_c, 12, 78, 95
28, 234269, Note_off_c, 12, 78, 0
28, 234311, Note_on_c, 12, 76, 92
28, 236188, Note_off_c, 12, 76, 0
28, 242483, Note_on_c, 12, 67, 116
28, 243393, Note_off_c, 12, 67, 0
28, 243435, Note_on_c, 12, 69, 116
28, 243868, Note_off_c, 12, 69, 0
28, 243911, Note_on_c, 12, 72, 120
28, 244362, Note_off_c, 12, 72, 0
28, 244403, Note_on_c, 12, 70, 116
28, 244838, Note_off_c, 12, 70, 0
28, 244879, Note_on_c, 12, 69, 118
28, 245313, Note_off_c, 12, 69, 0
28, 245355, Note_on_c, 12, 67, 116
28, 245788, Note_off_c, 12, 67, 0
28, 245831, Note_on_c, 12, 70, 120
28, 246758, Note_off_c, 12, 70, 0
28, 246799, Note_on_c, 12, 67, 118
28, 248678, Note_off_c, 12, 67, 0
28, 248719, Note_on_c, 12, 72, 120
28, 249628, Note_off_c, 12, 72, 0
28, 249671, Note_on_c, 12, 71, 117
28, 252450, Note_off_c, 12, 71, 0
28, 252559, Note_on_c, 12, 72, 120
28, 253468, Note_off_c, 12, 72, 0
28, 253511, Note_on_c, 12, 71, 117
28, 256290, Note_off_c, 12, 71, 0
28, 256399, Note_on_c, 12, 72, 120
28, 257308, Note_off_c, 12, 72, 0
28, 257351, Note_on_c, 12, 59, 120
28, 257564, Note_off_c, 12, 59, 0
28, 257605, Note_on_c, 12, 59, 115
28, 257695, Note_off_c, 12, 59, 0
28, 257722, Note_on_c, 12, 60, 115
28, 257816, Note_off_c, 12, 60, 0
28, 257843, Note_on_c, 12, 62, 116
28, 257937, Note_off_c, 12, 62, 0
28, 257964, Note_on_c, 12, 64, 115
28, 258053, Note_off_c, 12, 64, 0
28, 258080, Note_on_c, 12, 65, 115
28, 258169, Note_off_c, 12, 65, 0
28, 258196, Note_on_c, 12, 67, 115
28, 258292, Note_off_c, 12, 67, 0
28, 258319, Note_on_c, 12, 69, 118
28, 258415, Note_off_c, 12, 69, 0
28, 258442, Note_on_c, 12, 66, 115
28, 258531, Note_off_c, 12, 66, 0
28, 258558, Note_on_c, 12, 67, 115
28, 258647, Note_off_c, 12, 67, 0
28, 258674, Note_on_c, 12, 69, 115
28, 258768, Note_off_c, 12, 69, 0
28, 258795, Note_on_c, 12, 71, 116
28, 258888, Note_off_c, 12, 71, 0
28, 258915, Note_on_c, 12, 72, 115
28, 259005, Note_off_c, 12, 72, 0
28, 259031, Note_on_c, 12, 74, 115
28, 259121, Note_off_c, 12, 74, 0
28, 259148, Note_on_c, 12, 76, 115
28, 259242, Note_off_c, 12, 76, 0
28, 259269, Note_on_c, 12, 77, 93
28, 259411, Note_on_c, 12, 78, 88
28, 259428, Note_off_c, 12, 77, 0
28, 259536, Note_on_c, 12, 77, 88
28, 259551, Note_off_c, 12, 78, 0
28, 259644, Note_on_c, 12, 78, 88
28, 259657, Note_off_c, 12, 77, 0
28, 259736, Note_on_c, 12, 77, 88
28, 259747, Note_off_c, 12, 78, 0
28, 259821, Note_on_c, 12, 78, 88
28, 259831, Note_off_c, 12, 77, 0
28, 259907, Note_on_c, 12, 77, 88
28, 259916, Note_off_c, 12, 78, 0
28, 259992, Note_on_c, 12, 78, 88
28, 260002, Note_off_c, 12, 77, 0
28, 260077, Note_on_c, 12, 77, 88
28, 260087, Note_off_c, 12, 78, 0
28, 260162, Note_on_c, 12, 78, 88
28, 260172, Note_off_c, 12, 77, 0
28, 260248, Note_on_c, 12, 77, 88
28, 260258, Note_off_c, 12, 78, 0
28, 260333, Note_on_c, 12, 78, 88
28, 260343, Note_off_c, 12, 77, 0
28, 260418, Note_on_c, 12, 77, 88
28, 260428, Note_off_c, 12, 78, 0
28, 260504, Note_on_c, 12, 78, 88
28, 260514, Note_off_c, 12, 77, 0
28, 260589, Note_on_c, 12, 77, 88
28, 260599, Note_off_c, 12, 78, 0
28, 260674, Note_on_c, 12, 78, 88
28, 260684, Note_off_c, 12, 77, 0
28, 260760, Note_on_c, 12, 77, 88
28, 260769, Note_off_c, 12, 78, 0
28, 260845, Note_on_c, 12, 78, 88
28, 260855, Note_off_c, 12, 77, 0
28, 260930, Note_on_c, 12, 77, 88
28, 260940, Note_off_c, 12, 78, 0
28, 261016, Note_on_c, 12, 78, 88
28, 261025, Note_off_c, 12, 77, 0
28, 261101, Note_on_c, 12, 77, 88
28, 261111, Note_off_c, 12, 78, 0
28, 261199, Note_off_c, 12, 77, 0
28, 261199, End_track
29, 0, Start_track
29, 0, Title_t, "Clarinet in Bb 1"
29, 0, Instrument_name_t, "Clarinet"
29, 0, Program_c, 13, 71
29, 126435, Note_on_c, 13, 64, 80
29, 126435, Note_on_c, 13, 76, 80
29, 126525, Note_off_c, 13, 64, 0
29, 126525, Note_off_c, 13, 76, 0
29, 126551, Note_on_c, 13, 66, 80
29, 126551, Note_on_c, 13, 78, 80
29, 126610, Note_off_c, 13, 66, 0
29, 126610, Note_off_c, 13, 78, 0
29, 126629, Note_on_c, 13, 68, 80
29, 126629, Note_on_c, 13, 80, 80
29, 126689, Note_off_c, 13, 68, 0
29, 126689, Note_off_c, 13, 80, 0
29, 126707, Note_on_c, 13, 69, 80
29, 126707, Note_on_c, 13, 81, 80
29, 126771, Note_off_c, 13, 69, 0
29, 126771, Note_off_c, 13, 81, 0
29, 126791, Note_on_c, 13, 71, 80
29, 126791, Note_on_c, 13, 83, 80
29, 129638, Note_off_c, 13, 71, 0
29, 129638, Note_off_c, 13, 83, 0
29, 129679, Note_on_c, 13, 66, 83
29, 129679, Note_on_c, 13, 73, 83
29, 130113, Note_off_c, 13, 66, 0
29, 130113, Note_off_c, 13, 73, 0
29, 130155, Note_on_c, 13, 66, 69
29, 130155, Note_on_c, 13, 71, 81
29, 130335, Note_off_c, 13, 66, 0
29, 130350, Note_off_c, 13, 71, 0
29, 130391, Note_on_c, 13, 66, 68
29, 130391, Note_on_c, 13, 69, 80
29, 130588, Note_off_c, 13, 69, 0
29, 130622, Note_off_c, 13, 66, 0
29, 130631, Note_on_c, 13, 64, 80
29, 130631, Note_on_c, 13, 68, 80
29, 132429, Note_off_c, 13, 68, 0
29, 132508, Note_off_c, 13, 64, 0
29, 133519, Note_on_c, 13, 63, 78
29, 133519, Note_on_c, 13, 66, 78
29, 133717, Note_off_c, 13, 63, 0
29, 133717, Note_off_c, 13, 66, 0
29, 133758, Note_on_c, 13, 64, 75
29, 133758, Note_on_c, 13, 68, 75
29, 133953, Note_off_c, 13, 64, 0
29, 133953, Note_off_c, 13, 68, 0
29, 133995, Note_on_c, 13, 69, 76
29, 133995, Note_on_c, 13, 66, 76
29, 134190, Note_off_c, 13, 69, 0
29, 134190, Note_off_c, 13, 66, 0
29, 134231, Note_on_c, 13, 68, 75
29, 134231, Note_on_c, 13, 71, 75
29, 134428, Note_off_c, 13, 68, 0
29, 134428, Note_off_c, 13, 71, 0
29, 134471, Note_on_c, 13, 64, 75
29, 134471, Note_on_c, 13, 68, 75
29, 136348, Note_off_c, 13, 64, 0
29, 136348, Note_off_c, 13, 68, 0
29, 137120, Note_on_c, 13, 63, 75
29, 137120, Note_on_c, 13, 66, 75
29, 137318, Note_off_c, 13, 63, 0
29, 137318, Note_off_c, 13, 66, 0
29, 137359, Note_on_c, 13, 63, 78
29, 137359, Note_on_c, 13, 66, 78
29, 137557, Note_off_c, 13, 63, 0
29, 137557, Note_off_c, 13, 66, 0
29, 137598, Note_on_c, 13, 68, 75
29, 137598, Note_on_c, 13, 64, 75
29, 137793, Note_off_c, 13, 68, 0
29, 137793, Note_off_c, 13, 64, 0
29, 137835, Note_on_c, 13, 69, 76
29, 137835, Note_on_c, 13, 66, 76
29, 138030, Note_off_c, 13, 66, 0
29, 138030, Note_off_c, 13, 69, 0
29, 138071, Note_on_c, 13, 68, 75
29, 138071, Note_on_c, 13, 71, 75
29, 138268, Note_off_c, 13, 68, 0
29, 138268, Note_off_c, 13, 71, 0
29, 138311, Note_on_c, 13, 64, 75
29, 138311, Note_on_c, 13, 68, 75
29, 140188, Note_off_c, 13, 64, 0
29, 140188, Note_off_c, 13, 68, 0
29, 140723, Note_on_c, 13, 63, 80
29, 140723, Note_on_c, 13, 63, 80
29, 140730, Note_off_c, 13, 63, 0
29, 140731, Note_off_c, 13, 63, 0
29, 140960, Note_on_c, 13, 64, 79
29, 140960, Note_on_c, 13, 64, 79
29, 140967, Note_off_c, 13, 64, 0
29, 140967, Note_off_c, 13, 64, 0
29, 141199, Note_on_c, 13, 66, 82
29, 141199, Note_on_c, 13, 66, 82
29, 141206, Note_off_c, 13, 66, 0
29, 141206, Note_off_c, 13, 66, 0
29, 141675, Note_on_c, 13, 64, 80
29, 141675, Note_on_c, 13, 64, 80
29, 141682, Note_off_c, 13, 64, 0
29, 141682, Note_off_c, 13, 64, 0
29, 141911, Note_on_c, 13, 63, 79
29, 141911, Note_on_c, 13, 63, 79
29, 141918, Note_off_c, 13, 63, 0
29, 141919, Note_off_c, 13, 63, 0
29, 142151, Note_on_c, 13, 56, 84
29, 142151, Note_on_c, 13, 61, 84
29, 142602, Note_off_c, 13, 56, 0
29, 142602, Note_off_c, 13, 61, 0
29, 142643, Note_on_c, 13, 61, 79
29, 142643, Note_on_c, 13, 68, 79
29, 144028, Note_off_c, 13, 61, 0
29, 144028, Note_off_c, 13, 68, 0
29, 145039, Note_on_c, 13, 66, 83
29, 145039, Note_on_c, 13, 73, 83
29, 145473, Note_off_c, 13, 73, 0
29, 145473, Note_off_c, 13, 66, 0
29, 145515, Note_on_c, 13, 66, 69
29, 145515, Note_on_c, 13, 71, 81
29, 145695, Note_off_c, 13, 66, 0
29, 145710, Note_off_c, 13, 71, 0
29, 145751, Note_on_c, 13, 66, 68
29, 145751, Note_on_c, 13, 69, 80
29, 145948, Note_off_c, 13, 69, 0
29, 145982, Note_off_c, 13, 66, 0
29, 145991, Note_on_c, 13, 64, 80
29, 145991, Note_on_c, 13, 68, 80
29, 148838, Note_off_c, 13, 64, 0
29, 148838, Note_off_c, 13, 68, 0
29, 148879, Note_on_c, 13, 63, 83
29, 148879, Note_on_c, 13, 66, 83
29, 149077, Note_off_c, 13, 63, 0
29, 149077, Note_off_c, 13, 66, 0
29, 149118, Note_on_c, 13, 64, 80
29, 149118, Note_on_c, 13, 68, 80
29, 149313, Note_off_c, 13, 68, 0
29, 149313, Note_off_c, 13, 64, 0
29, 149355, Note_on_c, 13, 69, 81
29, 149355, Note_on_c, 13, 66, 81
29, 149550, Note_off_c, 13, 66, 0
29, 149550, Note_off_c, 13, 69, 0
29, 149591, Note_on_c, 13, 68, 80
29, 149591, Note_on_c, 13, 71, 80
29, 149788, Note_off_c, 13, 68, 0
29, 149788, Note_off_c, 13, 71, 0
29, 149831, Note_on_c, 13, 64, 80
29, 149831, Note_on_c, 13, 68, 80
29, 152678, Note_off_c, 13, 64, 0
29, 152678, Note_off_c, 13, 68, 0
29, 152719, Note_on_c, 13, 63, 83
29, 152719, Note_on_c, 13, 66, 83
29, 152917, Note_off_c, 13, 63, 0
29, 152917, Note_off_c, 13, 66, 0
29, 152958, Note_on_c, 13, 64, 80
29, 152958, Note_on_c, 13, 68, 80
29, 153153, Note_off_c, 13, 64, 0
29, 153153, Note_off_c, 13, 68, 0
29, 153195, Note_on_c, 13, 66, 81
29, 153195, Note_on_c, 13, 69, 81
29, 153390, Note_off_c, 13, 69, 0
29, 153390, Note_off_c, 13, 66, 0
29, 153431, Note_on_c, 13, 68, 80
29, 153431, Note_on_c, 13, 71, 80
29, 153628, Note_off_c, 13, 68, 0
29, 153628, Note_off_c, 13, 71, 0
29, 153671, Note_on_c, 13, 64, 80
29, 153671, Note_on_c, 13, 68, 80
29, 155548, Note_off_c, 13, 64, 0
29, 155548, Note_off_c, 13, 68, 0
29, 156083, Note_on_c, 13, 72, 80
29, 156083, Note_on_c, 13, 75, 80
29, 156279, Note_off_c, 13, 72, 0
29, 156279, Note_off_c, 13, 75, 0
29, 156320, Note_on_c, 13, 73, 79
29, 156320, Note_on_c, 13, 76, 79
29, 156518, Note_off_c, 13, 73, 0
29, 156518, Note_off_c, 13, 76, 0
29, 156559, Note_on_c, 13, 75, 82
29, 156559, Note_on_c, 13, 78, 82
29, 156993, Note_off_c, 13, 78, 0
29, 156993, Note_off_c, 13, 75, 0
29, 157035, Note_on_c, 13, 73, 80
29, 157035, Note_on_c, 13, 76, 80
29, 157230, Note_off_c, 13, 73, 0
29, 157230, Note_off_c, 13, 76, 0
29, 157271, Note_on_c, 13, 72, 79
29, 157271, Note_on_c, 13, 75, 79
29, 157468, Note_off_c, 13, 72, 0
29, 157468, Note_off_c, 13, 75, 0
29, 157511, Note_on_c, 13, 73, 84
29, 157511, Note_on_c, 13, 76, 84
29, 157962, Note_off_c, 13, 73, 0
29, 157962, Note_off_c, 13, 76, 0
29, 158003, Note_on_c, 13, 73, 79
29, 158003, Note_on_c, 13, 73, 79
29, 158010, Note_off_c, 13, 73, 0
29, 158011, Note_off_c, 13, 73, 0
29, 159431, Note_on_c, 13, 76, 84
29, 159431, Note_on_c, 13, 80, 84
29, 159882, Note_off_c, 13, 76, 0
29, 159882, Note_off_c, 13, 80, 0
29, 159923, Note_on_c, 13, 75, 80
29, 159923, Note_on_c, 13, 78, 80
29, 160358, Note_off_c, 13, 75, 0
29, 160358, Note_off_c, 13, 78, 0
29, 160399, Note_on_c, 13, 73, 82
29, 160399, Note_on_c, 13, 76, 82
29, 161240, Note_off_c, 13, 76, 0
29, 161308, Note_off_c, 13, 73, 0
29, 161351, Note_on_c, 13, 66, 103
29, 161351, Note_on_c, 13, 75, 84
29, 162279, Note_off_c, 13, 75, 0
29, 162319, Note_on_c, 13, 76, 82
29, 162755, Note_off_c, 13, 76, 0
29, 162795, Note_on_c, 13, 78, 80
29, 163229, Note_off_c, 13, 66, 0
29, 163229, Note_off_c, 13, 78, 0
29, 163271, Note_on_c, 13, 68, 103
29, 163271, Note_on_c, 13, 78, 84
29, 163723, Note_off_c, 13, 78, 0
29, 163763, Note_on_c, 13, 76, 80
29, 164199, Note_off_c, 13, 76, 0
29, 164239, Note_on_c, 13, 75, 82
29, 165149, Note_off_c, 13, 68, 0
29, 165149, Note_off_c, 13, 75, 0
29, 165191, Note_on_c, 13, 64, 108
29, 165191, Note_on_c, 13, 75, 84
29, 165643, Note_off_c, 13, 64, 0
29, 165643, Note_off_c, 13, 75, 0
29, 165683, Note_on_c, 13, 64, 104
29, 165683, Note_on_c, 13, 73, 80
29, 166119, Note_off_c, 13, 64, 0
29, 166119, Note_off_c, 13, 73, 0
29, 166159, Note_on_c, 13, 64, 106
29, 166159, Note_on_c, 13, 73, 82
29, 166595, Note_off_c, 13, 64, 0
29, 166635, Note_on_c, 13, 64, 104
29, 167069, Note_off_c, 13, 64, 0
29, 167111, Note_on_c, 13, 65, 100
29, 167563, Note_off_c, 13, 65, 0
29, 167603, Note_on_c, 13, 65, 96
29, 168039, Note_off_c, 13, 65, 0
29, 168079, Note_on_c, 13, 65, 98
29, 168515, Note_off_c, 13, 65, 0
29, 168555, Note_on_c, 13, 65, 96
29, 168989, Note_off_c, 13, 65, 0
29, 168989, Note_off_c, 13, 73, 0
29, 176711, Note_on_c, 13, 66, 55
29, 176711, Note_on_c, 13, 71, 55
29, 176910, Note_off_c, 13, 66, 0
29, 176910, Note_off_c, 13, 71, 0
29, 176965, Note_on_c, 13, 66, 50
29, 176965, Note_on_c, 13, 71, 50
29, 177148, Note_off_c, 13, 66, 0
29, 177148, Note_off_c, 13, 71, 0
29, 177203, Note_on_c, 13, 66, 51
29, 177203, Note_on_c, 13, 71, 51
29, 177385, Note_off_c, 13, 66, 0
29, 177385, Note_off_c, 13, 71, 0
29, 177440, Note_on_c, 13, 66, 50
29, 177440, Note_on_c, 13, 71, 50
29, 177624, Note_off_c, 13, 66, 0
29, 177624, Note_off_c, 13, 71, 0
29, 177679, Note_on_c, 13, 66, 53
29, 177679, Note_on_c, 13, 71, 53
29, 177863, Note_off_c, 13, 66, 0
29, 177863, Note_off_c, 13, 71, 0
29, 177918, Note_on_c, 13, 66, 50
29, 177918, Note_on_c, 13, 71, 50
29, 178100, Note_off_c, 13, 66, 0
29, 178100, Note_off_c, 13, 71, 0
29, 178155, Note_on_c, 13, 66, 51
29, 178155, Note_on_c, 13, 71, 51
29, 178336, Note_off_c, 13, 66, 0
29, 178336, Note_off_c, 13, 71, 0
29, 178391, Note_on_c, 13, 66, 50
29, 178391, Note_on_c, 13, 71, 50
29, 178574, Note_off_c, 13, 66, 0
29, 178574, Note_off_c, 13, 71, 0
29, 178631, Note_on_c, 13, 66, 55
29, 178631, Note_on_c, 13, 71, 55
29, 178830, Note_off_c, 13, 66, 0
29, 178830, Note_off_c, 13, 71, 0
29, 178885, Note_on_c, 13, 66, 50
29, 178885, Note_on_c, 13, 71, 50
29, 179068, Note_off_c, 13, 66, 0
29, 179068, Note_off_c, 13, 71, 0
29, 179123, Note_on_c, 13, 66, 51
29, 179123, Note_on_c, 13, 71, 51
29, 179305, Note_off_c, 13, 66, 0
29, 179305, Note_off_c, 13, 71, 0
29, 179360, Note_on_c, 13, 66, 50
29, 179360, Note_on_c, 13, 71, 50
29, 179544, Note_off_c, 13, 66, 0
29, 179592, Note_off_c, 13, 71, 0
29, 179599, Note_on_c, 13, 66, 53
29, 179599, Note_on_c, 13, 69, 53
29, 179783, Note_off_c, 13, 66, 0
29, 179783, Note_off_c, 13, 69, 0
29, 179838, Note_on_c, 13, 66, 50
29, 179838, Note_on_c, 13, 69, 50
29, 180020, Note_off_c, 13, 66, 0
29, 180020, Note_off_c, 13, 69, 0
29, 180075, Note_on_c, 13, 66, 51
29, 180075, Note_on_c, 13, 69, 51
29, 180256, Note_off_c, 13, 66, 0
29, 180256, Note_off_c, 13, 69, 0
29, 180311, Note_on_c, 13, 66, 50
29, 180311, Note_on_c, 13, 69, 50
29, 180542, Note_off_c, 13, 66, 0
29, 180542, Note_off_c, 13, 69, 0
29, 180551, Note_on_c, 13, 56, 93
29, 180551, Note_on_c, 13, 68, 93
29, 181479, Note_off_c, 13, 56, 0
29, 181479, Note_off_c, 13, 68, 0
29, 181519, Note_on_c, 13, 57, 91
29, 181519, Note_on_c, 13, 69, 91
29, 181955, Note_off_c, 13, 57, 0
29, 181955, Note_off_c, 13, 69, 0
29, 181995, Note_on_c, 13, 59, 89
29, 181995, Note_on_c, 13, 71, 89
29, 182429, Note_off_c, 13, 59, 0
29, 182429, Note_off_c, 13, 71, 0
29, 182471, Note_on_c, 13, 59, 93
29, 182471, Note_on_c, 13, 71, 93
29, 182923, Note_off_c, 13, 59, 0
29, 182923, Note_off_c, 13, 71, 0
29, 182963, Note_on_c, 13, 57, 89
29, 182963, Note_on_c, 13, 69, 89
29, 183399, Note_off_c, 13, 57, 0
29, 183399, Note_off_c, 13, 69, 0
29, 183439, Note_on_c, 13, 56, 91
29, 183439, Note_on_c, 13, 68, 91
29, 184349, Note_off_c, 13, 56, 0
29, 184349, Note_off_c, 13, 68, 0
29, 188231, Note_on_c, 13, 75, 122
29, 189159, Note_off_c, 13, 75, 0
29, 189199, Note_on_c, 13, 75, 120
29, 191079, Note_off_c, 13, 75, 0
29, 191119, Note_on_c, 13, 68, 120
29, 192029, Note_off_c, 13, 68, 0
29, 192071, Note_on_c, 13, 73, 117
29, 193039, Note_off_c, 13, 73, 0
29, 193039, Note_on_c, 13, 73, 112
29, 193711, Note_off_c, 13, 73, 0
29, 193751, Note_on_c, 13, 73, 97
29, 193826, Note_off_c, 13, 73, 0
29, 193868, Note_on_c, 13, 73, 97
29, 193991, Note_on_c, 13, 78, 98
29, 193996, Note_off_c, 13, 73, 0
29, 195869, Note_off_c, 13, 78, 0
29, 195911, Note_on_c, 13, 68, 84
29, 195911, Note_on_c, 13, 61, 87
29, 196839, Note_off_c, 13, 68, 0
29, 196839, Note_off_c, 13, 61, 0
29, 196879, Note_on_c, 13, 61, 85
29, 196879, Note_on_c, 13, 68, 82
29, 197315, Note_off_c, 13, 61, 0
29, 197315, Note_off_c, 13, 68, 0
29, 197355, Note_on_c, 13, 60, 83
29, 197355, Note_on_c, 13, 66, 80
29, 197789, Note_off_c, 13, 60, 0
29, 197789, Note_off_c, 13, 66, 0
29, 197831, Note_on_c, 13, 61, 87
29, 197831, Note_on_c, 13, 68, 84
29, 198283, Note_off_c, 13, 61, 0
29, 198283, Note_off_c, 13, 68, 0
29, 198323, Note_on_c, 13, 60, 83
29, 198323, Note_on_c, 13, 66, 80
29, 198759, Note_off_c, 13, 60, 0
29, 198759, Note_off_c, 13, 66, 0
29, 198799, Note_on_c, 13, 64, 82
29, 198799, Note_on_c, 13, 61, 85
29, 199709, Note_off_c, 13, 64, 0
29, 199709, Note_off_c, 13, 61, 0
29, 199751, Note_on_c, 13, 54, 87
29, 199751, Note_on_c, 13, 66, 84
29, 199965, Note_off_c, 13, 54, 0
29, 199965, Note_off_c, 13, 66, 0
29, 200005, Note_on_c, 13, 56, 82
29, 200005, Note_on_c, 13, 68, 79
29, 200203, Note_off_c, 13, 56, 0
29, 200203, Note_off_c, 13, 68, 0
29, 200243, Note_on_c, 13, 58, 83
29, 200243, Note_on_c, 13, 70, 80
29, 200440, Note_off_c, 13, 58, 0
29, 200440, Note_off_c, 13, 70, 0
29, 200480, Note_on_c, 13, 59, 82
29, 200480, Note_on_c, 13, 71, 79
29, 200679, Note_off_c, 13, 59, 0
29, 200679, Note_off_c, 13, 71, 0
29, 200719, Note_on_c, 13, 73, 82
29, 200719, Note_on_c, 13, 61, 85
29, 200918, Note_off_c, 13, 61, 0
29, 200918, Note_off_c, 13, 73, 0
29, 200958, Note_on_c, 13, 59, 82
29, 200958, Note_on_c, 13, 71, 79
29, 201155, Note_off_c, 13, 59, 0
29, 201155, Note_off_c, 13, 71, 0
29, 201195, Note_on_c, 13, 61, 83
29, 201195, Note_on_c, 13, 73, 80
29, 201391, Note_off_c, 13, 61, 0
29, 201391, Note_off_c, 13, 73, 0
29, 201431, Note_on_c, 13, 63, 82
29, 201431, Note_on_c, 13, 75, 79
29, 201629, Note_off_c, 13, 63, 0
29, 201629, Note_off_c, 13, 75, 0
29, 201671, Note_on_c, 13, 64, 87
29, 201671, Note_on_c, 13, 76, 84
29, 201885, Note_off_c, 13, 64, 0
29, 201885, Note_off_c, 13, 76, 0
29, 201925, Note_on_c, 13, 63, 82
29, 201925, Note_on_c, 13, 75, 79
29, 202123, Note_off_c, 13, 63, 0
29, 202123, Note_off_c, 13, 75, 0
29, 202163, Note_on_c, 13, 64, 83
29, 202163, Note_on_c, 13, 76, 80
29, 202360, Note_off_c, 13, 64, 0
29, 202360, Note_off_c, 13, 76, 0
29, 202400, Note_on_c, 13, 66, 82
29, 202400, Note_on_c, 13, 78, 79
29, 202599, Note_off_c, 13, 66, 0
29, 202599, Note_off_c, 13, 78, 0
29, 202639, Note_on_c, 13, 68, 85
29, 202639, Note_on_c, 13, 80, 82
29, 202838, Note_off_c, 13, 68, 0
29, 202838, Note_off_c, 13, 80, 0
29, 202878, Note_on_c, 13, 70, 82
29, 202878, Note_on_c, 13, 82, 79
29, 203075, Note_off_c, 13, 70, 0
29, 203075, Note_off_c, 13, 82, 0
29, 203115, Note_on_c, 13, 71, 83
29, 203115, Note_on_c, 13, 83, 80
29, 203311, Note_off_c, 13, 71, 0
29, 203311, Note_off_c, 13, 83, 0
29, 203351, Note_on_c, 13, 72, 82
29, 203351, Note_on_c, 13, 84, 79
29, 203549, Note_off_c, 13, 72, 0
29, 203549, Note_off_c, 13, 84, 0
29, 203591, Note_on_c, 13, 69, 79
29, 203591, Note_on_c, 13, 64, 82
29, 205469, Note_off_c, 13, 69, 0
29, 205469, Note_off_c, 13, 64, 0
29, 205511, Note_on_c, 13, 63, 82
29, 205511, Note_on_c, 13, 66, 79
29, 207389, Note_off_c, 13, 63, 0
29, 207389, Note_off_c, 13, 66, 0
29, 222791, Note_on_c, 13, 68, 97
29, 222791, Note_on_c, 13, 68, 97
29, 222798, Note_off_c, 13, 68, 0
29, 222798, Note_off_c, 13, 68, 0
29, 223759, Note_on_c, 13, 68, 95
29, 223759, Note_on_c, 13, 68, 95
29, 223766, Note_off_c, 13, 68, 0
29, 223766, Note_off_c, 13, 68, 0
29, 224235, Note_on_c, 13, 69, 93
29, 224235, Note_on_c, 13, 69, 93
29, 224242, Note_off_c, 13, 69, 0
29, 224242, Note_off_c, 13, 69, 0
29, 224711, Note_on_c, 13, 68, 97
29, 224711, Note_on_c, 13, 68, 97
29, 224718, Note_off_c, 13, 68, 0
29, 224718, Note_off_c, 13, 68, 0
29, 225203, Note_on_c, 13, 66, 93
29, 225203, Note_on_c, 13, 66, 93
29, 225210, Note_off_c, 13, 66, 0
29, 225211, Note_off_c, 13, 66, 0
29, 225679, Note_on_c, 13, 64, 95
29, 225679, Note_on_c, 13, 64, 95
29, 225686, Note_off_c, 13, 64, 0
29, 225686, Note_off_c, 13, 64, 0
29, 226631, Note_on_c, 13, 71, 97
29, 226631, Note_on_c, 13, 71, 97
29, 226638, Note_off_c, 13, 71, 0
29, 226638, Note_off_c, 13, 71, 0
29, 227599, Note_on_c, 13, 71, 95
29, 227599, Note_on_c, 13, 71, 95
29, 227606, Note_off_c, 13, 71, 0
29, 227606, Note_off_c, 13, 71, 0
29, 228075, Note_on_c, 13, 73, 93
29, 228075, Note_on_c, 13, 73, 93
29, 228082, Note_off_c, 13, 73, 0
29, 228082, Note_off_c, 13, 73, 0
29, 228551, Note_on_c, 13, 71, 97
29, 228551, Note_on_c, 13, 71, 97
29, 228558, Note_off_c, 13, 71, 0
29, 228558, Note_off_c, 13, 71, 0
29, 229519, Note_on_c, 13, 69, 95
29, 229519, Note_on_c, 13, 69, 95
29, 229526, Note_off_c, 13, 69, 0
29, 229526, Note_off_c, 13, 69, 0
29, 229995, Note_on_c, 13, 68, 93
29, 229995, Note_on_c, 13, 68, 93
29, 230002, Note_off_c, 13, 68, 0
29, 230002, Note_off_c, 13, 68, 0
29, 230471, Note_on_c, 13, 69, 97
29, 230471, Note_on_c, 13, 69, 97
29, 230478, Note_off_c, 13, 69, 0
29, 230478, Note_off_c, 13, 69, 0
29, 231439, Note_on_c, 13, 66, 95
29, 231439, Note_on_c, 13, 66, 95
29, 231446, Note_off_c, 13, 66, 0
29, 231446, Note_off_c, 13, 66, 0
29, 231915, Note_on_c, 13, 68, 93
29, 231915, Note_on_c, 13, 68, 93
29, 231922, Note_off_c, 13, 68, 0
29, 231922, Note_off_c, 13, 68, 0
29, 232391, Note_on_c, 13, 69, 97
29, 232391, Note_on_c, 13, 69, 97
29, 232398, Note_off_c, 13, 69, 0
29, 232398, Note_off_c, 13, 69, 0
29, 233359, Note_on_c, 13, 66, 95
29, 233359, Note_on_c, 13, 66, 95
29, 233366, Note_off_c, 13, 66, 0
29, 233366, Note_off_c, 13, 66, 0
29, 234311, Note_on_c, 13, 64, 92
29, 234311, Note_on_c, 13, 64, 92
29, 234318, Note_off_c, 13, 64, 0
29, 234318, Note_off_c, 13, 64, 0
29, 242483, Note_on_c, 13, 67, 117
29, 243393, Note_off_c, 13, 67, 0
29, 243435, Note_on_c, 13, 69, 117
29, 243868, Note_off_c, 13, 69, 0
29, 243911, Note_on_c, 13, 72, 121
29, 244362, Note_off_c, 13, 72, 0
29, 244403, Note_on_c, 13, 70, 117
29, 244838, Note_off_c, 13, 70, 0
29, 244879, Note_on_c, 13, 69, 119
29, 245313, Note_off_c, 13, 69, 0
29, 245355, Note_on_c, 13, 67, 117
29, 245788, Note_off_c, 13, 67, 0
29, 245831, Note_on_c, 13, 70, 121
29, 246758, Note_off_c, 13, 70, 0
29, 246799, Note_on_c, 13, 67, 119
29, 248678, Note_off_c, 13, 67, 0
29, 248719, Note_on_c, 13, 60, 120
29, 248719, Note_on_c, 13, 72, 121
29, 249628, Note_off_c, 13, 60, 0
29, 249628, Note_off_c, 13, 72, 0
29, 249671, Note_on_c, 13, 59, 117
29, 249671, Note_on_c, 13, 71, 118
29, 252450, Note_off_c, 13, 59, 0
29, 252450, Note_off_c, 13, 71, 0
29, 252559, Note_on_c, 13, 60, 120
29, 252559, Note_on_c, 13, 72, 121
29, 253468, Note_off_c, 13, 60, 0
29, 253468, Note_off_c, 13, 72, 0
29, 253511, Note_on_c, 13, 59, 117
29, 253511, Note_on_c, 13, 71, 118
29, 256290, Note_off_c, 13, 59, 0
29, 256290, Note_off_c, 13, 71, 0
29, 256399, Note_on_c, 13, 60, 120
29, 256399, Note_on_c, 13, 72, 121
29, 257308, Note_off_c, 13, 60, 0
29, 257308, Note_off_c, 13, 72, 0
29, 259271, Note_on_c, 13, 74, 104
29, 259271, Note_on_c, 13, 77, 104
29, 260673, Note_off_c, 13, 74, 0
29, 260673, Note_off_c, 13, 77, 0
29, 260715, Note_on_c, 13, 77, 93
29, 260715, Note_on_c, 13, 77, 93
29, 260722, Note_off_c, 13, 77, 0
29, 260722, Note_off_c, 13, 77, 0
29, 260874, Note_on_c, 13, 77, 92
29, 260874, Note_on_c, 13, 77, 92
29, 260881, Note_off_c, 13, 77, 0
29, 260882, Note_off_c, 13, 77, 0
29, 261029, Note_on_c, 13, 77, 92
29, 261029, Note_on_c, 13, 77, 92
29, 261036, Note_off_c, 13, 77, 0
29, 261036, Note_off_c, 13, 77, 0
29, 261191, Note_on_c, 13, 79, 127
29, 261191, Note_on_c, 13, 79, 127
29, 261198, Note_off_c, 13, 79, 0
29, 261198, Note_off_c, 13, 79, 0
29, 261683, Note_on_c, 13, 67, 127
29, 261683, Note_on_c, 13, 67, 127
29, 261690, Note_off_c, 13, 67, 0
29, 261691, Note_off_c, 13, 67, 0
29, 261843, Note_on_c, 13, 67, 127
29, 261843, Note_on_c, 13, 67, 127
29, 261850, Note_off_c, 13, 67, 0
29, 261850, Note_off_c, 13, 67, 0
29, 261997, Note_on_c, 13, 67, 127
29, 261997, Note_on_c, 13, 67, 127
29, 262004, Note_off_c, 13, 67, 0
29, 262005, Note_off_c, 13, 67, 0
29, 262159, Note_on_c, 13, 67, 127
29, 262159, Note_on_c, 13, 67, 127
29, 262166, Note_off_c, 13, 67, 0
29, 262166, Note_off_c, 13, 67, 0
29, 262166, End_track
30, 0, Start_track
30, 0, Title_t, "Grand Piano"
30, 0, Instrument_name_t, "Grand Piano"
30, 0, Program_c, 14, 0
30, 263557, Note_on_c, 14, 67, 80
30, 263708, Note_off_c, 14, 67, 0
30, 263717, Note_on_c, 14, 69, 80
30, 263868, Note_off_c, 14, 69, 0
30, 263877, Note_on_c, 14, 71, 80
30, 264028, Note_off_c, 14, 71, 0
30, 264037, Note_on_c, 14, 72, 80
30, 264188, Note_off_c, 14, 72, 0
30, 264197, Note_on_c, 14, 74, 80
30, 264348, Note_off_c, 14, 74, 0
30, 264357, Note_on_c, 14, 75, 80
30, 264508, Note_off_c, 14, 75, 0
30, 264517, Note_on_c, 14, 76, 80
30, 264517, Note_on_c, 14, 67, 80
30, 264517, Note_on_c, 14, 72, 80
30, 264517, Note_on_c, 14, 64, 80
30, 265428, Note_off_c, 14, 67, 0
30, 265428, Note_off_c, 14, 72, 0
30, 265428, Note_off_c, 14, 64, 0
30, 265428, Note_off_c, 14, 76, 0
30, 265477, Note_on_c, 14, 64, 80
30, 265477, Note_on_c, 14, 76, 80
30, 265477, Note_on_c, 14, 72, 80
30, 265477, Note_on_c, 14, 67, 80
30, 266388, Note_off_c, 14, 72, 0
30, 266388, Note_off_c, 14, 64, 0
30, 266388, Note_off_c, 14, 76, 0
30, 266388, Note_off_c, 14, 67, 0
30, 266437, Note_on_c, 14, 64, 80
30, 266437, Note_on_c, 14, 60, 80
30, 266437, Note_on_c, 14, 72, 80
30, 266437, Note_on_c, 14, 67, 80
30, 267348, Note_off_c, 14, 60, 0
30, 267348, Note_off_c, 14, 72, 0
30, 267348, Note_off_c, 14, 67, 0
30, 267348, Note_off_c, 14, 64, 0
30, 267397, Note_on_c, 14, 81, 80
30, 267397, Note_on_c, 14, 76, 80
30, 267397, Note_on_c, 14, 72, 80
30, 267397, Note_on_c, 14, 69, 80
30, 268308, Note_off_c, 14, 81, 0
30, 268308, Note_off_c, 14, 76, 0
30, 268308, Note_off_c, 14, 72, 0
30, 268308, Note_off_c, 14, 69, 0
30, 268357, Note_on_c, 14, 79, 80
30, 268357, Note_on_c, 14, 75, 80
30, 268357, Note_on_c, 14, 70, 80
30, 268357, Note_on_c, 14, 67, 80
30, 269268, Note_off_c, 14, 79, 0
30, 269268, Note_off_c, 14, 75, 0
30, 269268, Note_off_c, 14, 70, 0
30, 269268, Note_off_c, 14, 67, 0
30, 269317, Note_on_c, 14, 70, 80
30, 269317, Note_on_c, 14, 67, 80
30, 269317, Note_on_c, 14, 63, 80
30, 269317, Note_on_c, 14, 75, 80
30, 270228, Note_off_c, 14, 67, 0
30, 270228, Note_off_c, 14, 63, 0
30, 270228, Note_off_c, 14, 75, 0
30, 270228, Note_off_c, 14, 70, 0
30, 270277, Note_on_c, 14, 75, 80
30, 270277, Note_on_c, 14, 79, 80
30, 270277, Note_on_c, 14, 67, 80
30, 270277, Note_on_c, 14, 70, 80
30, 271188, Note_off_c, 14, 70, 0
30, 271188, Note_off_c, 14, 75, 0
30, 271188, Note_off_c, 14, 79, 0
30, 271188, Note_off_c, 14, 67, 0
30, 271237, Note_on_c, 14, 72, 80
30, 271237, Note_on_c, 14, 75, 80
30, 271237, Note_on_c, 14, 79, 80
30, 271237, Note_on_c, 14, 84, 80
30, 272148, Note_off_c, 14, 72, 0
30, 272148, Note_off_c, 14, 75, 0
30, 272148, Note_off_c, 14, 79, 0
30, 272148, Note_off_c, 14, 84, 0
30, 272197, Note_on_c, 14, 67, 80
30, 272197, Note_on_c, 14, 72, 80
30, 272197, Note_on_c, 14, 76, 80
30, 272197, Note_on_c, 14, 79, 80
30, 273108, Note_off_c, 14, 67, 0
30, 273108, Note_off_c, 14, 72, 0
30, 273108, Note_off_c, 14, 76, 0
30, 273108, Note_off_c, 14, 79, 0
30, 273157, Note_on_c, 14, 64, 80
30, 273157, Note_on_c, 14, 67, 80
30, 273157, Note_on_c, 14, 72, 80
30, 273157, Note_on_c, 14, 76, 80
30, 274068, Note_off_c, 14, 67, 0
30, 274068, Note_off_c, 14, 72, 0
30, 274068, Note_off_c, 14, 76, 0
30, 274068, Note_off_c, 14, 64, 0
30, 274117, Note_on_c, 14, 72, 80
30, 274117, Note_on_c, 14, 67, 80
30, 274117, Note_on_c, 14, 64, 80
30, 274117, Note_on_c, 14, 60, 80
30, 275028, Note_off_c, 14, 67, 0
30, 275028, Note_off_c, 14, 64, 0
30, 275028, Note_off_c, 14, 60, 0
30, 275028, Note_off_c, 14, 72, 0
30, 275077, Note_on_c, 14, 57, 80
30, 275077, Note_on_c, 14, 69, 80
30, 275352, Note_off_c, 14, 57, 0
30, 275352, Note_off_c, 14, 69, 0
30, 275365, Note_on_c, 14, 71, 80
30, 275365, Note_on_c, 14, 59, 80
30, 275546, Note_off_c, 14, 59, 0
30, 275546, Note_off_c, 14, 71, 0
30, 275557, Note_on_c, 14, 60, 80
30, 275557, Note_on_c, 14, 72, 80
30, 275832, Note_off_c, 14, 60, 0
30, 275832, Note_off_c, 14, 72, 0
30, 275845, Note_on_c, 14, 62, 80
30, 275845, Note_on_c, 14, 74, 80
30, 276026, Note_off_c, 14, 62, 0
30, 276026, Note_off_c, 14, 74, 0
30, 276037, Note_on_c, 14, 66, 80
30, 276037, Note_on_c, 14, 76, 80
30, 276037, Note_on_c, 14, 72, 80
30, 276312, Note_off_c, 14, 66, 0
30, 276312, Note_off_c, 14, 76, 0
30, 276312, Note_off_c, 14, 72, 0
30, 276325, Note_on_c, 14, 72, 80
30, 276325, Note_on_c, 14, 66, 80
30, 276325, Note_on_c, 14, 76, 80
30, 276506, Note_off_c, 14, 66, 0
30, 276506, Note_off_c, 14, 72, 0
30, 276506, Note_off_c, 14, 76, 0
30, 276805, Note_on_c, 14, 66, 80
30, 276805, Note_on_c, 14, 72, 80
30, 276805, Note_on_c, 14, 76, 80
30, 276986, Note_off_c, 14, 66, 0
30, 276986, Note_off_c, 14, 72, 0
30, 276986, Note_off_c, 14, 76, 0
30, 277285, Note_on_c, 14, 72, 80
30, 277285, Note_on_c, 14, 66, 80
30, 277466, Note_off_c, 14, 66, 0
30, 277466, Note_off_c, 14, 72, 0
30, 277477, Note_on_c, 14, 66, 80
30, 277477, Note_on_c, 14, 72, 80
30, 277477, Note_on_c, 14, 76, 80
30, 277752, Note_off_c, 14, 66, 0
30, 277752, Note_off_c, 14, 72, 0
30, 277752, Note_off_c, 14, 76, 0
30, 277957, Note_on_c, 14, 74, 80
30, 277957, Note_on_c, 14, 71, 80
30, 277957, Note_on_c, 14, 67, 80
30, 277957, Note_on_c, 14, 79, 80
30, 278868, Note_off_c, 14, 71, 0
30, 278868, Note_off_c, 14, 74, 0
30, 278868, Note_off_c, 14, 79, 0
30, 278868, Note_off_c, 14, 67, 0
30, 278917, Note_on_c, 14, 62, 80
30, 278917, Note_on_c, 14, 67, 80
30, 279372, Note_off_c, 14, 62, 0
30, 279372, Note_off_c, 14, 67, 0
30, 280644, Note_on_c, 14, 72, 80
30, 280644, Note_on_c, 14, 70, 80
30, 280644, Note_on_c, 14, 64, 80
30, 280644, Note_on_c, 14, 67, 80
30, 281281, Note_off_c, 14, 70, 0
30, 281281, Note_off_c, 14, 67, 0
30, 281281, Note_off_c, 14, 72, 0
30, 281281, Note_off_c, 14, 64, 0
30, 281317, Note_on_c, 14, 72, 80
30, 281317, Note_on_c, 14, 70, 80
30, 281317, Note_on_c, 14, 64, 80
30, 281317, Note_on_c, 14, 67, 80
30, 281556, Note_off_c, 14, 67, 0
30, 281556, Note_off_c, 14, 70, 0
30, 281556, Note_off_c, 14, 72, 0
30, 281556, Note_off_c, 14, 64, 0
30, 282564, Note_on_c, 14, 72, 80
30, 282564, Note_on_c, 14, 63, 80
30, 282564, Note_on_c, 14, 69, 80
30, 282564, Note_on_c, 14, 65, 80
30, 283201, Note_off_c, 14, 63, 0
30, 283201, Note_off_c, 14, 65, 0
30, 283201, Note_off_c, 14, 69, 0
30, 283201, Note_off_c, 14, 72, 0
30, 283237, Note_on_c, 14, 63, 80
30, 283237, Note_on_c, 14, 65, 80
30, 283237, Note_on_c, 14, 69, 80
30, 283237, Note_on_c, 14, 72, 80
30, 283476, Note_off_c, 14, 63, 0
30, 283476, Note_off_c, 14, 65, 0
30, 283476, Note_off_c, 14, 69, 0
30, 283476, Note_off_c, 14, 72, 0
30, 284004, Note_on_c, 14, 64, 80
30, 284004, Note_on_c, 14, 67, 80
30, 284004, Note_on_c, 14, 70, 80
30, 284004, Note_on_c, 14, 72, 80
30, 284641, Note_off_c, 14, 70, 0
30, 284641, Note_off_c, 14, 64, 0
30, 284641, Note_off_c, 14, 67, 0
30, 284641, Note_off_c, 14, 72, 0
30, 284677, Note_on_c, 14, 64, 80
30, 284677, Note_on_c, 14, 67, 80
30, 284677, Note_on_c, 14, 72, 80
30, 284916, Note_off_c, 14, 64, 0
30, 284916, Note_off_c, 14, 67, 0
30, 284916, Note_off_c, 14, 72, 0
30, 285157, Note_on_c, 14, 64, 80
30, 285157, Note_on_c, 14, 72, 80
30, 285157, Note_on_c, 14, 67, 80
30, 285396, Note_off_c, 14, 64, 0
30, 285396, Note_off_c, 14, 67, 0
30, 285396, Note_off_c, 14, 72, 0
30, 286117, Note_on_c, 14, 76, 80
30, 286268, Note_off_c, 14, 76, 0
30, 286277, Note_on_c, 14, 77, 80
30, 286428, Note_off_c, 14, 77, 0
30, 286437, Note_on_c, 14, 78, 80
30, 286588, Note_off_c, 14, 78, 0
30, 286597, Note_on_c, 14, 79, 80
30, 286872, Note_off_c, 14, 79, 0
30, 286885, Note_on_c, 14, 76, 80
30, 287066, Note_off_c, 14, 76, 0
30, 287077, Note_on_c, 14, 72, 80
30, 287352, Note_off_c, 14, 72, 0
30, 287365, Note_on_c, 14, 67, 80
30, 287546, Note_off_c, 14, 67, 0
30, 287557, Note_on_c, 14, 65, 80
30, 287557, Note_on_c, 14, 69, 80
30, 287557, Note_on_c, 14, 72, 80
30, 287796, Note_off_c, 14, 65, 0
30, 287796, Note_off_c, 14, 69, 0
30, 287796, Note_off_c, 14, 72, 0
30, 288037, Note_on_c, 14, 72, 80
30, 288037, Note_on_c, 14, 69, 80
30, 288037, Note_on_c, 14, 65, 80
30, 288948, Note_off_c, 14, 65, 0
30, 288948, Note_off_c, 14, 72, 0
30, 288948, Note_off_c, 14, 69, 0
30, 288997, Note_on_c, 14, 69, 80
30, 288997, Note_on_c, 14, 65, 80
30, 288997, Note_on_c, 14, 72, 80
30, 289452, Note_off_c, 14, 72, 0
30, 289452, Note_off_c, 14, 69, 0
30, 289452, Note_off_c, 14, 65, 0
30, 289764, Note_on_c, 14, 72, 80
30, 289764, Note_on_c, 14, 69, 80
30, 289764, Note_on_c, 14, 65, 80
30, 290401, Note_off_c, 14, 72, 0
30, 290401, Note_off_c, 14, 69, 0
30, 290401, Note_off_c, 14, 65, 0
30, 290437, Note_on_c, 14, 69, 80
30, 290437, Note_on_c, 14, 65, 80
30, 290437, Note_on_c, 14, 72, 80
30, 290676, Note_off_c, 14, 65, 0
30, 290676, Note_off_c, 14, 69, 0
30, 290676, Note_off_c, 14, 72, 0
30, 290917, Note_on_c, 14, 65, 80
30, 290917, Note_on_c, 14, 69, 80
30, 290917, Note_on_c, 14, 72, 80
30, 291156, Note_off_c, 14, 72, 0
30, 291156, Note_off_c, 14, 65, 0
30, 291156, Note_off_c, 14, 69, 0
30, 291684, Note_on_c, 14, 76, 80
30, 291684, Note_on_c, 14, 67, 80
30, 291684, Note_on_c, 14, 72, 80
30, 292321, Note_off_c, 14, 76, 0
30, 292321, Note_off_c, 14, 72, 0
30, 292321, Note_off_c, 14, 67, 0
30, 292644, Note_on_c, 14, 72, 80
30, 292644, Note_on_c, 14, 69, 80
30, 292644, Note_on_c, 14, 64, 80
30, 293281, Note_off_c, 14, 72, 0
30, 293281, Note_off_c, 14, 69, 0
30, 293281, Note_off_c, 14, 64, 0
30, 293604, Note_on_c, 14, 69, 80
30, 293604, Note_on_c, 14, 65, 80
30, 293604, Note_on_c, 14, 74, 80
30, 294241, Note_off_c, 14, 69, 0
30, 294241, Note_off_c, 14, 74, 0
30, 294241, Note_off_c, 14, 65, 0
30, 294564, Note_on_c, 14, 67, 80
30, 294564, Note_on_c, 14, 71, 80
30, 294564, Note_on_c, 14, 74, 80
30, 294564, Note_on_c, 14, 79, 80
30, 295201, Note_off_c, 14, 67, 0
30, 295201, Note_off_c, 14, 79, 0
30, 295201, Note_off_c, 14, 71, 0
30, 295201, Note_off_c, 14, 74, 0
30, 296004, Note_on_c, 14, 64, 80
30, 296004, Note_on_c, 14, 67, 80
30, 296004, Note_on_c, 14, 70, 80
30, 296004, Note_on_c, 14, 72, 80
30, 296641, Note_off_c, 14, 64, 0
30, 296641, Note_off_c, 14, 70, 0
30, 296641, Note_off_c, 14, 72, 0
30, 296641, Note_off_c, 14, 67, 0
30, 296677, Note_on_c, 14, 67, 80
30, 296677, Note_on_c, 14, 70, 80
30, 296677, Note_on_c, 14, 72, 80
30, 296677, Note_on_c, 14, 64, 80
30, 296916, Note_off_c, 14, 64, 0
30, 296916, Note_off_c, 14, 67, 0
30, 296916, Note_off_c, 14, 70, 0
30, 296916, Note_off_c, 14, 72, 0
30, 297924, Note_on_c, 14, 72, 80
30, 297924, Note_on_c, 14, 63, 80
30, 297924, Note_on_c, 14, 65, 80
30, 297924, Note_on_c, 14, 69, 80
30, 298561, Note_off_c, 14, 63, 0
30, 298561, Note_off_c, 14, 65, 0
30, 298561, Note_off_c, 14, 69, 0
30, 298561, Note_off_c, 14, 72, 0
30, 298597, Note_on_c, 14, 63, 80
30, 298597, Note_on_c, 14, 65, 80
30, 298597, Note_on_c, 14, 69, 80
30, 298597, Note_on_c, 14, 72, 80
30, 298836, Note_off_c, 14, 63, 0
30, 298836, Note_off_c, 14, 65, 0
30, 298836, Note_off_c, 14, 69, 0
30, 298836, Note_off_c, 14, 72, 0
30, 299364, Note_on_c, 14, 64, 80
30, 299364, Note_on_c, 14, 67, 80
30, 299364, Note_on_c, 14, 72, 80
30, 299364, Note_on_c, 14, 70, 80
30, 300001, Note_off_c, 14, 64, 0
30, 300001, Note_off_c, 14, 67, 0
30, 300001, Note_off_c, 14, 70, 0
30, 300001, Note_off_c, 14, 72, 0
30, 300037, Note_on_c, 14, 64, 80
30, 300037, Note_on_c, 14, 67, 80
30, 300037, Note_on_c, 14, 72, 80
30, 300276, Note_off_c, 14, 64, 0
30, 300276, Note_off_c, 14, 67, 0
30, 300276, Note_off_c, 14, 72, 0
30, 300517, Note_on_c, 14, 64, 80
30, 300517, Note_on_c, 14, 67, 80
30, 300517, Note_on_c, 14, 72, 80
30, 300756, Note_off_c, 14, 72, 0
30, 300756, Note_off_c, 14, 64, 0
30, 300756, Note_off_c, 14, 67, 0
30, 301284, Note_on_c, 14, 64, 80
30, 301284, Note_on_c, 14, 69, 80
30, 301284, Note_on_c, 14, 73, 80
30, 301284, Note_on_c, 14, 76, 80
30, 301921, Note_off_c, 14, 64, 0
30, 301921, Note_off_c, 14, 69, 0
30, 301921, Note_off_c, 14, 73, 0
30, 301921, Note_off_c, 14, 76, 0
30, 301957, Note_on_c, 14, 73, 80
30, 301957, Note_on_c, 14, 64, 80
30, 301957, Note_on_c, 14, 69, 80
30, 301957, Note_on_c, 14, 76, 80
30, 302196, Note_off_c, 14, 64, 0
30, 302196, Note_off_c, 14, 69, 0
30, 302196, Note_off_c, 14, 73, 0
30, 302196, Note_off_c, 14, 76, 0
30, 302437, Note_on_c, 14, 73, 80
30, 302437, Note_on_c, 14, 76, 80
30, 302437, Note_on_c, 14, 64, 80
30, 302437, Note_on_c, 14, 69, 80
30, 302676, Note_off_c, 14, 73, 0
30, 302676, Note_off_c, 14, 76, 0
30, 302676, Note_off_c, 14, 69, 0
30, 302676, Note_off_c, 14, 64, 0
30, 302917, Note_on_c, 14, 65, 80
30, 302917, Note_on_c, 14, 69, 80
30, 302917, Note_on_c, 14, 74, 80
30, 303156, Note_off_c, 14, 65, 0
30, 303156, Note_off_c, 14, 69, 0
30, 303156, Note_off_c, 14, 74, 0
30, 303397, Note_on_c, 14, 65, 80
30, 303397, Note_on_c, 14, 69, 80
30, 303397, Note_on_c, 14, 74, 80
30, 304308, Note_off_c, 14, 65, 0
30, 304308, Note_off_c, 14, 69, 0
30, 304308, Note_off_c, 14, 74, 0
30, 304357, Note_on_c, 14, 65, 80
30, 304357, Note_on_c, 14, 69, 80
30, 304357, Note_on_c, 14, 74, 80
30, 304812, Note_off_c, 14, 65, 0
30, 304812, Note_off_c, 14, 69, 0
30, 304812, Note_off_c, 14, 74, 0
30, 304837, Note_on_c, 14, 62, 80
30, 304837, Note_on_c, 14, 65, 80
30, 304837, Note_on_c, 14, 67, 80
30, 304837, Note_on_c, 14, 71, 80
30, 305076, Note_off_c, 14, 62, 0
30, 305076, Note_off_c, 14, 65, 0
30, 305076, Note_off_c, 14, 67, 0
30, 305076, Note_off_c, 14, 71, 0
30, 305317, Note_on_c, 14, 71, 80
30, 305317, Note_on_c, 14, 67, 80
30, 305317, Note_on_c, 14, 65, 80
30, 305317, Note_on_c, 14, 62, 80
30, 306228, Note_off_c, 14, 71, 0
30, 306228, Note_off_c, 14, 67, 0
30, 306228, Note_off_c, 14, 65, 0
30, 306228, Note_off_c, 14, 62, 0
30, 306277, Note_on_c, 14, 71, 80
30, 306277, Note_on_c, 14, 67, 80
30, 306277, Note_on_c, 14, 65, 80
30, 306277, Note_on_c, 14, 62, 80
30, 306732, Note_off_c, 14, 71, 0
30, 306732, Note_off_c, 14, 67, 0
30, 306732, Note_off_c, 14, 65, 0
30, 306732, Note_off_c, 14, 62, 0
30, 306757, Note_on_c, 14, 72, 80
30, 306757, Note_on_c, 14, 67, 80
30, 306757, Note_on_c, 14, 64, 80
30, 307032, Note_off_c, 14, 72, 0
30, 307032, Note_off_c, 14, 67, 0
30, 307032, Note_off_c, 14, 64, 0
30, 307045, Note_on_c, 14, 76, 80
30, 307045, Note_on_c, 14, 64, 80
30, 307226, Note_off_c, 14, 76, 0
30, 307226, Note_off_c, 14, 64, 0
30, 307717, Note_on_c, 14, 76, 80
30, 307717, Note_on_c, 14, 64, 80
30, 308172, Note_off_c, 14, 64, 0
30, 308172, Note_off_c, 14, 76, 0
30, 308197, Note_on_c, 14, 65, 80
30, 308197, Note_on_c, 14, 77, 80
30, 308472, Note_off_c, 14, 65, 0
30, 308472, Note_off_c, 14, 77, 0
30, 308485, Note_on_c, 14, 78, 80
30, 308485, Note_on_c, 14, 66, 80
30, 308666, Note_off_c, 14, 78, 0
30, 308666, Note_off_c, 14, 66, 0
30, 308677, Note_on_c, 14, 67, 80
30, 308677, Note_on_c, 14, 79, 80
30, 308952, Note_off_c, 14, 67, 0
30, 308952, Note_off_c, 14, 79, 0
30, 308965, Note_on_c, 14, 66, 80
30, 308965, Note_on_c, 14, 78, 80
30, 309146, Note_off_c, 14, 66, 0
30, 309146, Note_off_c, 14, 78, 0
30, 309157, Note_on_c, 14, 67, 80
30, 309157, Note_on_c, 14, 79, 80
30, 309432, Note_off_c, 14, 67, 0
30, 309432, Note_off_c, 14, 79, 0
30, 309445, Note_on_c, 14, 70, 80
30, 309445, Note_on_c, 14, 82, 80
30, 310356, Note_off_c, 14, 70, 0
30, 310356, Note_off_c, 14, 82, 0
30, 312302, Note_on_c, 14, 67, 80
30, 312302, Note_on_c, 14, 71, 80
30, 312302, Note_on_c, 14, 74, 80
30, 312302, Note_on_c, 14, 79, 80
30, 312759, Note_off_c, 14, 79, 0
30, 312759, Note_off_c, 14, 67, 0
30, 312759, Note_off_c, 14, 74, 0
30, 312759, Note_off_c, 14, 71, 0
30, 312974, Note_on_c, 14, 59, 80
30, 312974, Note_on_c, 14, 62, 80
30, 312974, Note_on_c, 14, 67, 80
30, 312974, Note_on_c, 14, 71, 80
30, 313885, Note_off_c, 14, 59, 0
30, 313885, Note_off_c, 14, 62, 0
30, 313885, Note_off_c, 14, 67, 0
30, 313885, Note_off_c, 14, 71, 0
30, 313934, Note_on_c, 14, 55, 80
30, 313934, Note_on_c, 14, 67, 80
30, 314173, Note_off_c, 14, 55, 0
30, 314173, Note_off_c, 14, 67, 0
30, 314414, Note_on_c, 14, 60, 80
30, 314414, Note_on_c, 14, 64, 80
30, 314414, Note_on_c, 14, 67, 80
30, 314869, Note_off_c, 14, 60, 0
30, 314869, Note_off_c, 14, 64, 0
30, 314869, Note_off_c, 14, 67, 0
30, 314894, Note_on_c, 14, 60, 80
30, 314894, Note_on_c, 14, 64, 80
30, 315169, Note_off_c, 14, 64, 0
30, 315169, Note_off_c, 14, 60, 0
30, 315182, Note_on_c, 14, 60, 80
30, 315182, Note_on_c, 14, 63, 80
30, 315363, Note_off_c, 14, 60, 0
30, 315363, Note_off_c, 14, 63, 0
30, 315374, Note_on_c, 14, 60, 80
30, 315374, Note_on_c, 14, 64, 80
30, 315649, Note_off_c, 14, 60, 0
30, 315649, Note_off_c, 14, 64, 0
30, 315662, Note_on_c, 14, 60, 80
30, 315843, Note_off_c, 14, 60, 0
30, 315854, Note_on_c, 14, 64, 80
30, 315854, Note_on_c, 14, 60, 80
30, 316129, Note_off_c, 14, 64, 0
30, 316129, Note_off_c, 14, 60, 0
30, 316142, Note_on_c, 14, 62, 80
30, 316323, Note_off_c, 14, 62, 0
30, 316334, Note_on_c, 14, 61, 80
30, 316334, Note_on_c, 14, 57, 80
30, 316334, Note_on_c, 14, 52, 80
30, 316789, Note_off_c, 14, 61, 0
30, 316789, Note_off_c, 14, 57, 0
30, 316789, Note_off_c, 14, 52, 0
30, 316814, Note_on_c, 14, 61, 80
30, 316814, Note_on_c, 14, 57, 80
30, 316814, Note_on_c, 14, 52, 80
30, 317269, Note_off_c, 14, 61, 0
30, 317269, Note_off_c, 14, 57, 0
30, 317269, Note_off_c, 14, 52, 0
30, 317294, Note_on_c, 14, 52, 80
30, 317294, Note_on_c, 14, 62, 80
30, 317294, Note_on_c, 14, 57, 80
30, 317749, Note_off_c, 14, 62, 0
30, 317749, Note_off_c, 14, 57, 0
30, 317749, Note_off_c, 14, 52, 0
30, 317774, Note_on_c, 14, 64, 80
30, 317774, Note_on_c, 14, 61, 80
30, 317774, Note_on_c, 14, 57, 80
30, 317774, Note_on_c, 14, 52, 80
30, 318229, Note_off_c, 14, 61, 0
30, 318229, Note_off_c, 14, 57, 0
30, 318229, Note_off_c, 14, 52, 0
30, 318229, Note_off_c, 14, 64, 0
30, 322094, Note_on_c, 14, 67, 80
30, 322094, Note_on_c, 14, 55, 80
30, 322369, Note_off_c, 14, 67, 0
30, 322369, Note_off_c, 14, 55, 0
30, 322382, Note_on_c, 14, 66, 80
30, 322382, Note_on_c, 14, 54, 80
30, 322563, Note_off_c, 14, 66, 0
30, 322563, Note_off_c, 14, 54, 0
30, 322574, Note_on_c, 14, 67, 80
30, 322574, Note_on_c, 14, 55, 80
30, 322849, Note_off_c, 14, 67, 0
30, 322849, Note_off_c, 14, 55, 0
30, 322862, Note_on_c, 14, 69, 80
30, 322862, Note_on_c, 14, 57, 80
30, 323314, Note_off_c, 14, 69, 0
30, 323314, Note_off_c, 14, 57, 0
30, 323342, Note_on_c, 14, 56, 80
30, 323342, Note_on_c, 14, 68, 80
30, 323523, Note_off_c, 14, 68, 0
30, 323523, Note_off_c, 14, 56, 0
30, 323534, Note_on_c, 14, 57, 80
30, 323534, Note_on_c, 14, 69, 80
30, 323809, Note_off_c, 14, 57, 0
30, 323809, Note_off_c, 14, 69, 0
30, 323822, Note_on_c, 14, 58, 80
30, 323822, Note_on_c, 14, 70, 80
30, 324279, Note_off_c, 14, 70, 0
30, 324279, Note_off_c, 14, 58, 0
30, 324302, Note_on_c, 14, 69, 80
30, 324302, Note_on_c, 14, 57, 80
30, 324483, Note_off_c, 14, 69, 0
30, 324483, Note_off_c, 14, 57, 0
30, 324494, Note_on_c, 14, 58, 80
30, 324494, Note_on_c, 14, 70, 80
30, 324769, Note_off_c, 14, 70, 0
30, 324769, Note_off_c, 14, 58, 0
30, 324782, Note_on_c, 14, 59, 80
30, 324782, Note_on_c, 14, 71, 80
30, 325693, Note_off_c, 14, 59, 0
30, 325693, Note_off_c, 14, 71, 0
30, 326254, Note_on_c, 14, 74, 96
30, 326254, Note_on_c, 14, 79, 96
30, 326254, Note_on_c, 14, 67, 96
30, 326557, Note_off_c, 14, 67, 0
30, 326557, Note_off_c, 14, 74, 0
30, 326557, Note_off_c, 14, 79, 0
30, 326574, Note_on_c, 14, 67, 96
30, 326574, Note_on_c, 14, 74, 96
30, 326574, Note_on_c, 14, 79, 96
30, 326877, Note_off_c, 14, 79, 0
30, 326877, Note_off_c, 14, 74, 0
30, 326877, Note_off_c, 14, 67, 0
30, 326894, Note_on_c, 14, 74, 96
30, 326894, Note_on_c, 14, 67, 96
30, 326894, Note_on_c, 14, 79, 96
30, 327197, Note_off_c, 14, 67, 0
30, 327197, Note_off_c, 14, 74, 0
30, 327197, Note_off_c, 14, 79, 0
30, 327214, Note_on_c, 14, 80, 96
30, 327214, Note_on_c, 14, 68, 96
30, 327214, Note_on_c, 14, 75, 96
30, 327517, Note_off_c, 14, 68, 0
30, 327517, Note_off_c, 14, 75, 0
30, 327517, Note_off_c, 14, 80, 0
30, 327534, Note_on_c, 14, 76, 96
30, 327534, Note_on_c, 14, 81, 96
30, 327534, Note_on_c, 14, 69, 96
30, 327837, Note_off_c, 14, 81, 0
30, 327837, Note_off_c, 14, 76, 0
30, 327837, Note_off_c, 14, 69, 0
30, 327854, Note_on_c, 14, 77, 96
30, 327854, Note_on_c, 14, 82, 96
30, 327854, Note_on_c, 14, 70, 96
30, 328309, Note_off_c, 14, 70, 0
30, 328309, Note_off_c, 14, 77, 0
30, 328309, Note_off_c, 14, 82, 0
30, 329797, Note_on_c, 14, 56, 96
30, 329797, Note_on_c, 14, 53, 96
30, 329797, Note_on_c, 14, 60, 96
30, 330036, Note_off_c, 14, 53, 0
30, 330036, Note_off_c, 14, 56, 0
30, 330036, Note_off_c, 14, 60, 0
30, 330277, Note_on_c, 14, 53, 96
30, 330277, Note_on_c, 14, 60, 96
30, 330277, Note_on_c, 14, 56, 96
30, 331188, Note_off_c, 14, 53, 0
30, 331188, Note_off_c, 14, 56, 0
30, 331188, Note_off_c, 14, 60, 0
30, 331237, Note_on_c, 14, 53, 96
30, 331237, Note_on_c, 14, 56, 96
30, 331237, Note_on_c, 14, 60, 96
30, 331476, Note_off_c, 14, 53, 0
30, 331476, Note_off_c, 14, 56, 0
30, 331476, Note_off_c, 14, 60, 0
30, 331717, Note_on_c, 14, 58, 96
30, 331717, Note_on_c, 14, 53, 96
30, 331717, Note_on_c, 14, 62, 96
30, 333540, Note_off_c, 14, 62, 0
30, 333540, Note_off_c, 14, 53, 0
30, 333540, Note_off_c, 14, 58, 0
30, 333637, Note_on_c, 14, 63, 96
30, 333637, Note_on_c, 14, 58, 96
30, 333637, Note_on_c, 14, 55, 96
30, 333876, Note_off_c, 14, 63, 0
30, 333876, Note_off_c, 14, 58, 0
30, 333876, Note_off_c, 14, 55, 0
30, 334117, Note_on_c, 14, 63, 96
30, 334117, Note_on_c, 14, 55, 96
30, 334117, Note_on_c, 14, 58, 96
30, 334843, Note_off_c, 14, 55, 0
30, 334843, Note_off_c, 14, 58, 0
30, 334843, Note_off_c, 14, 63, 0
30, 334884, Note_on_c, 14, 55, 96
30, 334884, Note_on_c, 14, 58, 96
30, 334884, Note_on_c, 14, 63, 96
30, 335521, Note_off_c, 14, 63, 0
30, 335521, Note_off_c, 14, 58, 0
30, 335521, Note_off_c, 14, 55, 0
30, 335557, Note_on_c, 14, 64, 96
30, 335557, Note_on_c, 14, 60, 96
30, 335557, Note_on_c, 14, 58, 96
30, 335557, Note_on_c, 14, 55, 96
30, 337380, Note_off_c, 14, 64, 0
30, 337380, Note_off_c, 14, 60, 0
30, 337380, Note_off_c, 14, 55, 0
30, 337380, Note_off_c, 14, 58, 0
30, 337477, Note_on_c, 14, 60, 96
30, 337477, Note_on_c, 14, 68, 96
30, 337477, Note_on_c, 14, 65, 96
30, 337716, Note_off_c, 14, 65, 0
30, 337716, Note_off_c, 14, 68, 0
30, 337716, Note_off_c, 14, 60, 0
30, 337957, Note_on_c, 14, 60, 96
30, 337957, Note_on_c, 14, 65, 96
30, 337957, Note_on_c, 14, 68, 96
30, 338868, Note_off_c, 14, 60, 0
30, 338868, Note_off_c, 14, 65, 0
30, 338868, Note_off_c, 14, 68, 0
30, 338917, Note_on_c, 14, 68, 96
30, 338917, Note_on_c, 14, 65, 96
30, 338917, Note_on_c, 14, 60, 96
30, 339156, Note_off_c, 14, 68, 0
30, 339156, Note_off_c, 14, 60, 0
30, 339156, Note_off_c, 14, 65, 0
30, 339397, Note_on_c, 14, 70, 96
30, 339397, Note_on_c, 14, 65, 96
30, 339397, Note_on_c, 14, 62, 96
30, 341220, Note_off_c, 14, 70, 0
30, 341220, Note_off_c, 14, 65, 0
30, 341220, Note_off_c, 14, 62, 0
30, 341317, Note_on_c, 14, 74, 96
30, 341317, Note_on_c, 14, 70, 96
30, 341317, Note_on_c, 14, 67, 96
30, 341772, Note_off_c, 14, 70, 0
30, 341772, Note_off_c, 14, 74, 0
30, 341772, Note_off_c, 14, 67, 0
30, 341797, Note_on_c, 14, 67, 96
30, 341797, Note_on_c, 14, 74, 96
30, 341797, Note_on_c, 14, 70, 96
30, 342252, Note_off_c, 14, 67, 0
30, 342252, Note_off_c, 14, 70, 0
30, 342252, Note_off_c, 14, 74, 0
30, 342277, Note_on_c, 14, 79, 96
30, 342277, Note_on_c, 14, 61, 96
30, 342277, Note_on_c, 14, 65, 96
30, 342277, Note_on_c, 14, 67, 96
30, 342277, Note_on_c, 14, 73, 96
30, 342277, Note_on_c, 14, 77, 96
30, 343188, Note_off_c, 14, 67, 0
30, 343188, Note_off_c, 14, 65, 0
30, 343188, Note_off_c, 14, 73, 0
30, 343188, Note_off_c, 14, 77, 0
30, 343188, Note_off_c, 14, 61, 0
30, 343188, Note_off_c, 14, 79, 0
30, 343237, Note_on_c, 14, 67, 96
30, 343237, Note_on_c, 14, 72, 96
30, 343237, Note_on_c, 14, 76, 96
30, 343237, Note_on_c, 14, 79, 96
30, 343476, Note_off_c, 14, 67, 0
30, 343476, Note_off_c, 14, 72, 0
30, 343476, Note_off_c, 14, 76, 0
30, 343476, Note_off_c, 14, 79, 0
30, 345157, Note_on_c, 14, 60, 96
30, 345157, Note_on_c, 14, 56, 96
30, 345157, Note_on_c, 14, 53, 96
30, 345396, Note_off_c, 14, 56, 0
30, 345396, Note_off_c, 14, 60, 0
30, 345396, Note_off_c, 14, 53, 0
30, 345637, Note_on_c, 14, 53, 96
30, 345637, Note_on_c, 14, 56, 96
30, 345637, Note_on_c, 14, 60, 96
30, 346548, Note_off_c, 14, 53, 0
30, 346548, Note_off_c, 14, 56, 0
30, 346548, Note_off_c, 14, 60, 0
30, 346597, Note_on_c, 14, 53, 96
30, 346597, Note_on_c, 14, 60, 96
30, 346597, Note_on_c, 14, 56, 96
30, 346836, Note_off_c, 14, 56, 0
30, 346836, Note_off_c, 14, 53, 0
30, 346836, Note_off_c, 14, 60, 0
30, 347077, Note_on_c, 14, 62, 96
30, 347077, Note_on_c, 14, 53, 96
30, 347077, Note_on_c, 14, 58, 96
30, 348900, Note_off_c, 14, 62, 0
30, 348900, Note_off_c, 14, 53, 0
30, 348900, Note_off_c, 14, 58, 0
30, 348997, Note_on_c, 14, 63, 96
30, 348997, Note_on_c, 14, 55, 96
30, 348997, Note_on_c, 14, 58, 96
30, 349236, Note_off_c, 14, 63, 0
30, 349236, Note_off_c, 14, 58, 0
30, 349236, Note_off_c, 14, 55, 0
30, 349477, Note_on_c, 14, 63, 96
30, 349477, Note_on_c, 14, 58, 96
30, 349477, Note_on_c, 14, 55, 96
30, 350203, Note_off_c, 14, 63, 0
30, 350203, Note_off_c, 14, 58, 0
30, 350203, Note_off_c, 14, 55, 0
30, 350244, Note_on_c, 14, 55, 96
30, 350244, Note_on_c, 14, 63, 96
30, 350244, Note_on_c, 14, 58, 96
30, 350881, Note_off_c, 14, 55, 0
30, 350881, Note_off_c, 14, 63, 0
30, 350881, Note_off_c, 14, 58, 0
30, 350917, Note_on_c, 14, 60, 96
30, 350917, Note_on_c, 14, 64, 96
30, 350917, Note_on_c, 14, 58, 96
30, 350917, Note_on_c, 14, 55, 96
30, 352740, Note_off_c, 14, 58, 0
30, 352740, Note_off_c, 14, 64, 0
30, 352740, Note_off_c, 14, 55, 0
30, 352740, Note_off_c, 14, 60, 0
30, 352837, Note_on_c, 14, 65, 96
30, 352837, Note_on_c, 14, 60, 96
30, 352837, Note_on_c, 14, 56, 96
30, 353292, Note_off_c, 14, 65, 0
30, 353292, Note_off_c, 14, 56, 0
30, 353292, Note_off_c, 14, 60, 0
30, 353317, Note_on_c, 14, 56, 96
30, 353317, Note_on_c, 14, 60, 96
30, 353317, Note_on_c, 14, 65, 96
30, 354228, Note_off_c, 14, 56, 0
30, 354228, Note_off_c, 14, 60, 0
30, 354228, Note_off_c, 14, 65, 0
30, 354277, Note_on_c, 14, 56, 96
30, 354277, Note_on_c, 14, 60, 96
30, 354277, Note_on_c, 14, 65, 96
30, 354732, Note_off_c, 14, 56, 0
30, 354732, Note_off_c, 14, 60, 0
30, 354732, Note_off_c, 14, 65, 0
30, 354757, Note_on_c, 14, 65, 96
30, 354757, Note_on_c, 14, 70, 96
30, 355668, Note_off_c, 14, 65, 0
30, 355668, Note_off_c, 14, 70, 0
30, 355717, Note_on_c, 14, 65, 96
30, 355717, Note_on_c, 14, 70, 96
30, 355717, Note_on_c, 14, 62, 96
30, 355717, Note_on_c, 14, 58, 96
30, 356628, Note_off_c, 14, 65, 0
30, 356628, Note_off_c, 14, 70, 0
30, 356628, Note_off_c, 14, 58, 0
30, 356628, Note_off_c, 14, 62, 0
30, 356965, Note_on_c, 14, 70, 96
30, 356965, Note_on_c, 14, 82, 96
30, 357146, Note_off_c, 14, 82, 0
30, 357146, Note_off_c, 14, 70, 0
30, 357157, Note_on_c, 14, 79, 96
30, 357157, Note_on_c, 14, 91, 96
30, 357612, Note_off_c, 14, 79, 0
30, 357612, Note_off_c, 14, 91, 0
30, 357637, Note_on_c, 14, 79, 96
30, 357637, Note_on_c, 14, 91, 96
30, 358092, Note_off_c, 14, 79, 0
30, 358092, Note_off_c, 14, 91, 0
30, 358117, Note_on_c, 14, 70, 96
30, 358117, Note_on_c, 14, 82, 96
30, 358572, Note_off_c, 14, 70, 0
30, 358572, Note_off_c, 14, 82, 0
30, 358597, Note_on_c, 14, 68, 96
30, 358597, Note_on_c, 14, 80, 96
30, 359052, Note_off_c, 14, 68, 0
30, 359052, Note_off_c, 14, 80, 0
30, 359077, Note_on_c, 14, 80, 96
30, 359077, Note_on_c, 14, 68, 96
30, 359352, Note_off_c, 14, 80, 0
30, 359352, Note_off_c, 14, 68, 0
30, 359365, Note_on_c, 14, 89, 96
30, 359365, Note_on_c, 14, 77, 96
30, 359817, Note_off_c, 14, 77, 0
30, 359817, Note_off_c, 14, 89, 0
30, 360630, Note_on_c, 14, 53, 96
30, 360630, Note_on_c, 14, 56, 96
30, 360630, Note_on_c, 14, 60, 96
30, 360869, Note_off_c, 14, 53, 0
30, 360869, Note_off_c, 14, 56, 0
30, 360869, Note_off_c, 14, 60, 0
30, 361110, Note_on_c, 14, 56, 96
30, 361110, Note_on_c, 14, 60, 96
30, 361110, Note_on_c, 14, 53, 96
30, 362021, Note_off_c, 14, 53, 0
30, 362021, Note_off_c, 14, 56, 0
30, 362021, Note_off_c, 14, 60, 0
30, 362070, Note_on_c, 14, 53, 96
30, 362070, Note_on_c, 14, 60, 96
30, 362070, Note_on_c, 14, 56, 96
30, 362309, Note_off_c, 14, 53, 0
30, 362309, Note_off_c, 14, 56, 0
30, 362309, Note_off_c, 14, 60, 0
30, 362550, Note_on_c, 14, 62, 96
30, 362550, Note_on_c, 14, 58, 96
30, 362550, Note_on_c, 14, 53, 96
30, 364373, Note_off_c, 14, 62, 0
30, 364373, Note_off_c, 14, 53, 0
30, 364373, Note_off_c, 14, 58, 0
30, 364470, Note_on_c, 14, 58, 96
30, 364470, Note_on_c, 14, 63, 96
30, 364470, Note_on_c, 14, 55, 96
30, 364709, Note_off_c, 14, 58, 0
30, 364709, Note_off_c, 14, 55, 0
30, 364709, Note_off_c, 14, 63, 0
30, 364950, Note_on_c, 14, 63, 96
30, 364950, Note_on_c, 14, 58, 96
30, 364950, Note_on_c, 14, 55, 96
30, 365676, Note_off_c, 14, 63, 0
30, 365676, Note_off_c, 14, 58, 0
30, 365676, Note_off_c, 14, 55, 0
30, 365717, Note_on_c, 14, 63, 96
30, 365717, Note_on_c, 14, 55, 96
30, 365717, Note_on_c, 14, 58, 96
30, 366354, Note_off_c, 14, 55, 0
30, 366354, Note_off_c, 14, 58, 0
30, 366354, Note_off_c, 14, 63, 0
30, 366390, Note_on_c, 14, 55, 96
30, 366390, Note_on_c, 14, 58, 96
30, 366390, Note_on_c, 14, 60, 96
30, 366390, Note_on_c, 14, 64, 96
30, 368213, Note_off_c, 14, 64, 0
30, 368213, Note_off_c, 14, 55, 0
30, 368213, Note_off_c, 14, 58, 0
30, 368213, Note_off_c, 14, 60, 0
30, 368310, Note_on_c, 14, 65, 96
30, 368310, Note_on_c, 14, 60, 96
30, 368310, Note_on_c, 14, 68, 96
30, 368549, Note_off_c, 14, 60, 0
30, 368549, Note_off_c, 14, 65, 0
30, 368549, Note_off_c, 14, 68, 0
30, 368790, Note_on_c, 14, 60, 96
30, 368790, Note_on_c, 14, 65, 96
30, 368790, Note_on_c, 14, 68, 96
30, 369701, Note_off_c, 14, 60, 0
30, 369701, Note_off_c, 14, 65, 0
30, 369701, Note_off_c, 14, 68, 0
30, 369750, Note_on_c, 14, 68, 96
30, 369750, Note_on_c, 14, 60, 96
30, 369750, Note_on_c, 14, 65, 96
30, 369989, Note_off_c, 14, 68, 0
30, 369989, Note_off_c, 14, 60, 0
30, 369989, Note_off_c, 14, 65, 0
30, 370230, Note_on_c, 14, 65, 96
30, 370230, Note_on_c, 14, 70, 96
30, 370230, Note_on_c, 14, 62, 96
30, 372053, Note_off_c, 14, 62, 0
30, 372053, Note_off_c, 14, 65, 0
30, 372053, Note_off_c, 14, 70, 0
30, 372150, Note_on_c, 14, 70, 96
30, 372150, Note_on_c, 14, 67, 96
30, 372150, Note_on_c, 14, 74, 96
30, 372605, Note_off_c, 14, 67, 0
30, 372605, Note_off_c, 14, 70, 0
30, 372605, Note_off_c, 14, 74, 0
30, 372630, Note_on_c, 14, 67, 96
30, 372630, Note_on_c, 14, 70, 96
30, 372630, Note_on_c, 14, 74, 96
30, 373085, Note_off_c, 14, 67, 0
30, 373085, Note_off_c, 14, 70, 0
30, 373085, Note_off_c, 14, 74, 0
30, 373110, Note_on_c, 14, 61, 96
30, 373110, Note_on_c, 14, 65, 96
30, 373110, Note_on_c, 14, 67, 96
30, 373110, Note_on_c, 14, 73, 96
30, 373110, Note_on_c, 14, 77, 96
30, 373110, Note_on_c, 14, 79, 96
30, 374021, Note_off_c, 14, 61, 0
30, 374021, Note_off_c, 14, 65, 0
30, 374021, Note_off_c, 14, 67, 0
30, 374021, Note_off_c, 14, 73, 0
30, 374021, Note_off_c, 14, 77, 0
30, 374021, Note_off_c, 14, 79, 0
30, 374070, Note_on_c, 14, 79, 96
30, 374070, Note_on_c, 14, 72, 96
30, 374070, Note_on_c, 14, 76, 96
30, 374070, Note_on_c, 14, 67, 96
30, 374309, Note_off_c, 14, 72, 0
30, 374309, Note_off_c, 14, 67, 0
30, 374309, Note_off_c, 14, 76, 0
30, 374309, Note_off_c, 14, 79, 0
30, 375990, Note_on_c, 14, 53, 96
30, 375990, Note_on_c, 14, 56, 96
30, 375990, Note_on_c, 14, 60, 96
30, 376229, Note_off_c, 14, 53, 0
30, 376229, Note_off_c, 14, 56, 0
30, 376229, Note_off_c, 14, 60, 0
30, 376470, Note_on_c, 14, 53, 96
30, 376470, Note_on_c, 14, 56, 96
30, 376470, Note_on_c, 14, 60, 96
30, 377381, Note_off_c, 14, 53, 0
30, 377381, Note_off_c, 14, 56, 0
30, 377381, Note_off_c, 14, 60, 0
30, 377430, Note_on_c, 14, 60, 96
30, 377430, Note_on_c, 14, 53, 96
30, 377430, Note_on_c, 14, 56, 96
30, 377669, Note_off_c, 14, 56, 0
30, 377669, Note_off_c, 14, 60, 0
30, 377669, Note_off_c, 14, 53, 0
30, 377910, Note_on_c, 14, 53, 96
30, 377910, Note_on_c, 14, 58, 96
30, 377910, Note_on_c, 14, 62, 96
30, 379733, Note_off_c, 14, 53, 0
30, 379733, Note_off_c, 14, 58, 0
30, 379733, Note_off_c, 14, 62, 0
30, 379830, Note_on_c, 14, 55, 96
30, 379830, Note_on_c, 14, 58, 96
30, 379830, Note_on_c, 14, 63, 96
30, 380069, Note_off_c, 14, 55, 0
30, 380069, Note_off_c, 14, 58, 0
30, 380069, Note_off_c, 14, 63, 0
30, 380310, Note_on_c, 14, 55, 96
30, 380310, Note_on_c, 14, 58, 96
30, 380310, Note_on_c, 14, 63, 96
30, 381036, Note_off_c, 14, 55, 0
30, 381036, Note_off_c, 14, 58, 0
30, 381036, Note_off_c, 14, 63, 0
30, 381077, Note_on_c, 14, 55, 96
30, 381077, Note_on_c, 14, 58, 96
30, 381077, Note_on_c, 14, 63, 96
30, 381714, Note_off_c, 14, 58, 0
30, 381714, Note_off_c, 14, 55, 0
30, 381714, Note_off_c, 14, 63, 0
30, 381750, Note_on_c, 14, 55, 96
30, 381750, Note_on_c, 14, 58, 96
30, 381750, Note_on_c, 14, 60, 96
30, 381750, Note_on_c, 14, 64, 96
30, 383573, Note_off_c, 14, 60, 0
30, 383573, Note_off_c, 14, 55, 0
30, 383573, Note_off_c, 14, 58, 0
30, 383573, Note_off_c, 14, 64, 0
30, 383670, Note_on_c, 14, 60, 96
30, 383670, Note_on_c, 14, 56, 96
30, 383670, Note_on_c, 14, 53, 96
30, 383909, Note_off_c, 14, 60, 0
30, 383909, Note_off_c, 14, 53, 0
30, 383909, Note_off_c, 14, 56, 0
30, 384150, Note_on_c, 14, 53, 96
30, 384150, Note_on_c, 14, 60, 96
30, 384150, Note_on_c, 14, 56, 96
30, 385061, Note_off_c, 14, 53, 0
30, 385061, Note_off_c, 14, 60, 0
30, 385061, Note_off_c, 14, 56, 0
30, 385110, Note_on_c, 14, 56, 96
30, 385110, Note_on_c, 14, 60, 96
30, 385110, Note_on_c, 14, 53, 96
30, 385349, Note_off_c, 14, 56, 0
30, 385349, Note_off_c, 14, 60, 0
30, 385349, Note_off_c, 14, 53, 0
30, 385590, Note_on_c, 14, 58, 96
30, 385590, Note_on_c, 14, 62, 96
30, 385590, Note_on_c, 14, 53, 96
30, 387413, Note_off_c, 14, 53, 0
30, 387413, Note_off_c, 14, 58, 0
30, 387413, Note_off_c, 14, 62, 0
30, 387510, Note_on_c, 14, 55, 96
30, 387510, Note_on_c, 14, 58, 96
30, 387510, Note_on_c, 14, 62, 96
30, 387749, Note_off_c, 14, 55, 0
30, 387749, Note_off_c, 14, 58, 0
30, 387749, Note_off_c, 14, 62, 0
30, 387990, Note_on_c, 14, 58, 96
30, 387990, Note_on_c, 14, 55, 96
30, 387990, Note_on_c, 14, 62, 96
30, 388716, Note_off_c, 14, 55, 0
30, 388716, Note_off_c, 14, 58, 0
30, 388716, Note_off_c, 14, 62, 0
30, 388757, Note_on_c, 14, 55, 96
30, 388757, Note_on_c, 14, 58, 96
30, 388757, Note_on_c, 14, 62, 96
30, 389394, Note_off_c, 14, 58, 0
30, 389394, Note_off_c, 14, 62, 0
30, 389394, Note_off_c, 14, 55, 0
30, 389430, Note_on_c, 14, 55, 96
30, 389430, Note_on_c, 14, 58, 96
30, 389430, Note_on_c, 14, 64, 96
30, 389430, Note_on_c, 14, 60, 96
30, 391253, Note_off_c, 14, 55, 0
30, 391253, Note_off_c, 14, 64, 0
30, 391253, Note_off_c, 14, 60, 0
30, 391253, Note_off_c, 14, 58, 0
30, 391350, Note_on_c, 14, 72, 96
30, 391350, Note_on_c, 14, 68, 96
30, 391350, Note_on_c, 14, 65, 96
30, 391589, Note_off_c, 14, 72, 0
30, 391589, Note_off_c, 14, 68, 0
30, 391589, Note_off_c, 14, 65, 0
30, 391830, Note_on_c, 14, 65, 96
30, 391830, Note_on_c, 14, 68, 96
30, 392741, Note_off_c, 14, 65, 0
30, 392741, Note_off_c, 14, 68, 0
30, 392790, Note_on_c, 14, 75, 96
30, 392790, Note_on_c, 14, 68, 96
30, 392790, Note_on_c, 14, 72, 96
30, 392790, Note_on_c, 14, 65, 96
30, 393029, Note_off_c, 14, 65, 0
30, 393029, Note_off_c, 14, 72, 0
30, 393029, Note_off_c, 14, 75, 0
30, 393029, Note_off_c, 14, 68, 0
30, 393270, Note_on_c, 14, 65, 96
30, 393270, Note_on_c, 14, 68, 96
30, 393270, Note_on_c, 14, 70, 96
30, 393270, Note_on_c, 14, 74, 96
30, 394181, Note_off_c, 14, 65, 0
30, 394181, Note_off_c, 14, 70, 0
30, 394181, Note_off_c, 14, 74, 0
30, 394181, Note_off_c, 14, 68, 0
30, 394230, Note_on_c, 14, 70, 96
30, 394230, Note_on_c, 14, 62, 96
30, 394230, Note_on_c, 14, 65, 96
30, 395141, Note_off_c, 14, 65, 0
30, 395141, Note_off_c, 14, 70, 0
30, 395141, Note_off_c, 14, 62, 0
30, 395477, Note_on_c, 14, 65, 96
30, 395477, Note_on_c, 14, 72, 96
30, 396114, Note_off_c, 14, 65, 0
30, 396114, Note_off_c, 14, 72, 0
30, 396150, Note_on_c, 14, 65, 96
30, 396150, Note_on_c, 14, 72, 96
30, 396876, Note_off_c, 14, 65, 0
30, 396876, Note_off_c, 14, 72, 0
30, 396918, Note_on_c, 14, 65, 96
30, 396918, Note_on_c, 14, 72, 96
30, 398011, Note_off_c, 14, 72, 0
30, 398011, Note_off_c, 14, 65, 0
30, 404965, Note_on_c, 14, 74, 96
30, 404965, Note_on_c, 14, 62, 96
30, 405146, Note_off_c, 14, 74, 0
30, 405146, Note_off_c, 14, 62, 0
30, 405157, Note_on_c, 14, 75, 96
30, 405157, Note_on_c, 14, 63, 96
30, 405276, Note_off_c, 14, 75, 0
30, 405276, Note_off_c, 14, 63, 0
30, 405445, Note_on_c, 14, 66, 96
30, 405445, Note_on_c, 14, 78, 96
30, 405626, Note_off_c, 14, 78, 0
30, 405626, Note_off_c, 14, 66, 0
30, 405637, Note_on_c, 14, 69, 96
30, 405637, Note_on_c, 14, 81, 96
30, 405756, Note_off_c, 14, 69, 0
30, 405756, Note_off_c, 14, 81, 0
30, 405925, Note_on_c, 14, 70, 96
30, 405925, Note_on_c, 14, 82, 96
30, 406106, Note_off_c, 14, 82, 0
30, 406106, Note_off_c, 14, 70, 0
30, 406405, Note_on_c, 14, 62, 96
30, 406405, Note_on_c, 14, 74, 96
30, 406586, Note_off_c, 14, 62, 0
30, 406586, Note_off_c, 14, 74, 0
30, 406597, Note_on_c, 14, 75, 96
30, 406597, Note_on_c, 14, 63, 96
30, 406597, Note_on_c, 14, 67, 96
30, 406872, Note_off_c, 14, 63, 0
30, 406872, Note_off_c, 14, 67, 0
30, 406872, Note_off_c, 14, 75, 0
30, 412645, Note_on_c, 14, 62, 96
30, 412645, Note_on_c, 14, 74, 96
30, 412826, Note_off_c, 14, 62, 0
30, 412826, Note_off_c, 14, 74, 0
30, 412837, Note_on_c, 14, 63, 96
30, 412837, Note_on_c, 14, 75, 96
30, 412956, Note_off_c, 14, 63, 0
30, 412956, Note_off_c, 14, 75, 0
30, 413125, Note_on_c, 14, 66, 96
30, 413125, Note_on_c, 14, 78, 96
30, 413306, Note_off_c, 14, 66, 0
30, 413306, Note_off_c, 14, 78, 0
30, 413317, Note_on_c, 14, 69, 96
30, 413317, Note_on_c, 14, 81, 96
30, 413436, Note_off_c, 14, 69, 0
30, 413436, Note_off_c, 14, 81, 0
30, 413605, Note_on_c, 14, 70, 96
30, 413605, Note_on_c, 14, 82, 96
30, 413786, Note_off_c, 14, 70, 0
30, 413786, Note_off_c, 14, 82, 0
30, 413797, Note_on_c, 14, 80, 96
30, 413797, Note_on_c, 14, 68, 96
30, 413916, Note_off_c, 14, 68, 0
30, 413916, Note_off_c, 14, 80, 0
30, 414085, Note_on_c, 14, 66, 96
30, 414085, Note_on_c, 14, 78, 96
30, 414266, Note_off_c, 14, 66, 0
30, 414266, Note_off_c, 14, 78, 0
30, 414277, Note_on_c, 14, 67, 96
30, 414277, Note_on_c, 14, 70, 96
30, 414277, Note_on_c, 14, 75, 96
30, 414277, Note_on_c, 14, 79, 96
30, 414552, Note_off_c, 14, 67, 0
30, 414552, Note_off_c, 14, 70, 0
30, 414552, Note_off_c, 14, 75, 0
30, 414552, Note_off_c, 14, 79, 0
30, 420517, Note_on_c, 14, 87, 96
30, 420517, Note_on_c, 14, 75, 96
30, 420792, Note_off_c, 14, 75, 0
30, 420792, Note_off_c, 14, 87, 0
30, 420805, Note_on_c, 14, 70, 96
30, 420805, Note_on_c, 14, 82, 96
30, 420900, Note_off_c, 14, 70, 0
30, 420900, Note_off_c, 14, 82, 0
30, 420997, Note_on_c, 14, 68, 96
30, 420997, Note_on_c, 14, 80, 96
30, 421272, Note_off_c, 14, 68, 0
30, 421272, Note_off_c, 14, 80, 0
30, 421285, Note_on_c, 14, 66, 96
30, 421285, Note_on_c, 14, 78, 96
30, 421380, Note_off_c, 14, 66, 0
30, 421380, Note_off_c, 14, 78, 0
30, 421477, Note_on_c, 14, 63, 96
30, 421477, Note_on_c, 14, 75, 96
30, 421752, Note_off_c, 14, 75, 0
30, 421752, Note_off_c, 14, 63, 0
30, 421765, Note_on_c, 14, 61, 96
30, 421765, Note_on_c, 14, 73, 96
30, 421860, Note_off_c, 14, 61, 0
30, 421860, Note_off_c, 14, 73, 0
30, 421957, Note_on_c, 14, 63, 96
30, 421957, Note_on_c, 14, 70, 96
30, 421957, Note_on_c, 14, 73, 96
30, 421957, Note_on_c, 14, 75, 96
30, 422232, Note_off_c, 14, 63, 0
30, 422232, Note_off_c, 14, 70, 0
30, 422232, Note_off_c, 14, 73, 0
30, 422232, Note_off_c, 14, 75, 0
30, 428197, Note_on_c, 14, 76, 96
30, 428197, Note_on_c, 14, 64, 96
30, 428348, Note_off_c, 14, 64, 0
30, 428348, Note_off_c, 14, 76, 0
30, 428357, Note_on_c, 14, 67, 96
30, 428357, Note_on_c, 14, 79, 96
30, 428508, Note_off_c, 14, 67, 0
30, 428508, Note_off_c, 14, 79, 0
30, 428517, Note_on_c, 14, 72, 96
30, 428517, Note_on_c, 14, 84, 96
30, 428668, Note_off_c, 14, 72, 0
30, 428668, Note_off_c, 14, 84, 0
30, 428677, Note_on_c, 14, 76, 96
30, 428677, Note_on_c, 14, 88, 96
30, 428952, Note_off_c, 14, 76, 0
30, 428952, Note_off_c, 14, 88, 0
30, 428965, Note_on_c, 14, 84, 96
30, 428965, Note_on_c, 14, 72, 96
30, 429146, Note_off_c, 14, 72, 0
30, 429146, Note_off_c, 14, 84, 0
30, 429637, Note_on_c, 14, 69, 96
30, 429637, Note_on_c, 14, 72, 96
30, 429637, Note_on_c, 14, 76, 96
30, 430363, Note_off_c, 14, 69, 0
30, 430363, Note_off_c, 14, 72, 0
30, 430363, Note_off_c, 14, 76, 0
30, 430405, Note_on_c, 14, 65, 96
30, 430405, Note_on_c, 14, 72, 96
30, 430405, Note_on_c, 14, 74, 96
30, 430586, Note_off_c, 14, 65, 0
30, 430586, Note_off_c, 14, 72, 0
30, 430586, Note_off_c, 14, 74, 0
30, 431077, Note_on_c, 14, 76, 96
30, 431077, Note_on_c, 14, 69, 96
30, 431077, Note_on_c, 14, 72, 96
30, 431808, Note_off_c, 14, 69, 0
30, 431808, Note_off_c, 14, 76, 0
30, 431808, Note_off_c, 14, 72, 0
30, 431844, Note_on_c, 14, 65, 96
30, 431844, Note_on_c, 14, 72, 96
30, 431844, Note_on_c, 14, 74, 96
30, 432481, Note_off_c, 14, 65, 0
30, 432481, Note_off_c, 14, 72, 0
30, 432481, Note_off_c, 14, 74, 0
30, 432517, Note_on_c, 14, 69, 96
30, 432517, Note_on_c, 14, 72, 96
30, 432517, Note_on_c, 14, 76, 96
30, 432756, Note_off_c, 14, 69, 0
30, 432756, Note_off_c, 14, 72, 0
30, 432756, Note_off_c, 14, 76, 0
30, 432997, Note_on_c, 14, 65, 96
30, 432997, Note_on_c, 14, 72, 96
30, 432997, Note_on_c, 14, 74, 96
30, 433236, Note_off_c, 14, 74, 0
30, 433236, Note_off_c, 14, 65, 0
30, 433236, Note_off_c, 14, 72, 0
30, 433477, Note_on_c, 14, 67, 96
30, 433477, Note_on_c, 14, 71, 96
30, 433477, Note_on_c, 14, 79, 96
30, 433752, Note_off_c, 14, 67, 0
30, 433752, Note_off_c, 14, 71, 0
30, 433752, Note_off_c, 14, 79, 0
30, 433765, Note_on_c, 14, 79, 96
30, 433946, Note_off_c, 14, 79, 0
30, 433957, Note_on_c, 14, 78, 96
30, 434232, Note_off_c, 14, 78, 0
30, 434245, Note_on_c, 14, 77, 96
30, 434426, Note_off_c, 14, 77, 0
30, 434437, Note_on_c, 14, 74, 96
30, 434712, Note_off_c, 14, 74, 0
30, 434725, Note_on_c, 14, 71, 96
30, 434906, Note_off_c, 14, 71, 0
30, 434917, Note_on_c, 14, 69, 96
30, 435192, Note_off_c, 14, 69, 0
30, 435205, Note_on_c, 14, 68, 96
30, 435386, Note_off_c, 14, 68, 0
30, 435397, Note_on_c, 14, 62, 96
30, 435397, Note_on_c, 14, 65, 96
30, 435397, Note_on_c, 14, 67, 96
30, 435636, Note_off_c, 14, 62, 0
30, 435636, Note_off_c, 14, 65, 0
30, 435636, Note_off_c, 14, 67, 0
30, 435877, Note_on_c, 14, 71, 96
30, 435877, Note_on_c, 14, 74, 96
30, 435877, Note_on_c, 14, 79, 96
30, 436332, Note_off_c, 14, 74, 0
30, 436332, Note_off_c, 14, 71, 0
30, 436332, Note_off_c, 14, 79, 0
30, 436357, Note_on_c, 14, 62, 96
30, 436357, Note_on_c, 14, 65, 96
30, 436357, Note_on_c, 14, 67, 96
30, 436812, Note_off_c, 14, 67, 0
30, 436812, Note_off_c, 14, 65, 0
30, 436812, Note_off_c, 14, 62, 0
30, 437249, Note_on_c, 14, 54, 96
30, 437249, Note_on_c, 14, 57, 96
30, 437249, Note_on_c, 14, 61, 96
30, 437488, Note_off_c, 14, 54, 0
30, 437488, Note_off_c, 14, 57, 0
30, 437488, Note_off_c, 14, 61, 0
30, 437729, Note_on_c, 14, 54, 96
30, 437729, Note_on_c, 14, 57, 96
30, 437729, Note_on_c, 14, 61, 96
30, 438640, Note_off_c, 14, 54, 0
30, 438640, Note_off_c, 14, 57, 0
30, 438640, Note_off_c, 14, 61, 0
30, 438689, Note_on_c, 14, 57, 96
30, 438689, Note_on_c, 14, 61, 96
30, 438689, Note_on_c, 14, 54, 96
30, 438928, Note_off_c, 14, 54, 0
30, 438928, Note_off_c, 14, 57, 0
30, 438928, Note_off_c, 14, 61, 0
30, 439169, Note_on_c, 14, 54, 96
30, 439169, Note_on_c, 14, 63, 96
30, 439169, Note_on_c, 14, 59, 96
30, 440992, Note_off_c, 14, 59, 0
30, 440992, Note_off_c, 14, 54, 0
30, 440992, Note_off_c, 14, 63, 0
30, 441089, Note_on_c, 14, 64, 96
30, 441089, Note_on_c, 14, 56, 96
30, 441089, Note_on_c, 14, 59, 96
30, 441328, Note_off_c, 14, 59, 0
30, 441328, Note_off_c, 14, 64, 0
30, 441328, Note_off_c, 14, 56, 0
30, 441569, Note_on_c, 14, 56, 96
30, 441569, Note_on_c, 14, 59, 96
30, 441569, Note_on_c, 14, 64, 96
30, 442295, Note_off_c, 14, 56, 0
30, 442295, Note_off_c, 14, 59, 0
30, 442295, Note_off_c, 14, 64, 0
30, 442336, Note_on_c, 14, 56, 96
30, 442336, Note_on_c, 14, 59, 96
30, 442336, Note_on_c, 14, 64, 96
30, 442973, Note_off_c, 14, 64, 0
30, 442973, Note_off_c, 14, 59, 0
30, 442973, Note_off_c, 14, 56, 0
30, 443009, Note_on_c, 14, 59, 96
30, 443009, Note_on_c, 14, 61, 96
30, 443009, Note_on_c, 14, 65, 96
30, 443009, Note_on_c, 14, 56, 96
30, 444832, Note_off_c, 14, 59, 0
30, 444832, Note_off_c, 14, 61, 0
30, 444832, Note_off_c, 14, 65, 0
30, 444832, Note_off_c, 14, 56, 0
30, 444929, Note_on_c, 14, 61, 96
30, 444929, Note_on_c, 14, 66, 96
30, 444929, Note_on_c, 14, 69, 96
30, 445168, Note_off_c, 14, 61, 0
30, 445168, Note_off_c, 14, 69, 0
30, 445168, Note_off_c, 14, 66, 0
30, 445409, Note_on_c, 14, 66, 96
30, 445409, Note_on_c, 14, 69, 96
30, 445409, Note_on_c, 14, 61, 96
30, 446320, Note_off_c, 14, 61, 0
30, 446320, Note_off_c, 14, 66, 0
30, 446320, Note_off_c, 14, 69, 0
30, 446369, Note_on_c, 14, 69, 96
30, 446369, Note_on_c, 14, 66, 96
30, 446369, Note_on_c, 14, 61, 96
30, 446608, Note_off_c, 14, 66, 0
30, 446608, Note_off_c, 14, 61, 0
30, 446608, Note_off_c, 14, 69, 0
30, 446849, Note_on_c, 14, 63, 96
30, 446849, Note_on_c, 14, 71, 96
30, 446849, Note_on_c, 14, 66, 96
30, 448672, Note_off_c, 14, 63, 0
30, 448672, Note_off_c, 14, 66, 0
30, 448672, Note_off_c, 14, 71, 0
30, 448769, Note_on_c, 14, 75, 96
30, 448769, Note_on_c, 14, 68, 96
30, 448769, Note_on_c, 14, 71, 96
30, 449224, Note_off_c, 14, 71, 0
30, 449224, Note_off_c, 14, 75, 0
30, 449224, Note_off_c, 14, 68, 0
30, 449249, Note_on_c, 14, 68, 96
30, 449249, Note_on_c, 14, 71, 96
30, 449249, Note_on_c, 14, 75, 96
30, 449704, Note_off_c, 14, 68, 0
30, 449704, Note_off_c, 14, 71, 0
30, 449704, Note_off_c, 14, 75, 0
30, 449729, Note_on_c, 14, 62, 96
30, 449729, Note_on_c, 14, 66, 96
30, 449729, Note_on_c, 14, 68, 96
30, 449729, Note_on_c, 14, 74, 96
30, 449729, Note_on_c, 14, 78, 96
30, 449729, Note_on_c, 14, 80, 96
30, 450640, Note_off_c, 14, 80, 0
30, 450640, Note_off_c, 14, 62, 0
30, 450640, Note_off_c, 14, 66, 0
30, 450640, Note_off_c, 14, 74, 0
30, 450640, Note_off_c, 14, 78, 0
30, 450640, Note_off_c, 14, 68, 0
30, 450689, Note_on_c, 14, 80, 96
30, 450689, Note_on_c, 14, 77, 96
30, 450689, Note_on_c, 14, 73, 96
30, 450689, Note_on_c, 14, 68, 96
30, 450928, Note_off_c, 14, 80, 0
30, 450928, Note_off_c, 14, 77, 0
30, 450928, Note_off_c, 14, 73, 0
30, 450928, Note_off_c, 14, 68, 0
30, 452609, Note_on_c, 14, 61, 96
30, 452609, Note_on_c, 14, 57, 96
30, 452609, Note_on_c, 14, 54, 96
30, 452848, Note_off_c, 14, 61, 0
30, 452848, Note_off_c, 14, 57, 0
30, 452848, Note_off_c, 14, 54, 0
30, 453089, Note_on_c, 14, 57, 96
30, 453089, Note_on_c, 14, 54, 96
30, 453089, Note_on_c, 14, 61, 96
30, 454000, Note_off_c, 14, 54, 0
30, 454000, Note_off_c, 14, 57, 0
30, 454000, Note_off_c, 14, 61, 0
30, 454049, Note_on_c, 14, 57, 96
30, 454049, Note_on_c, 14, 61, 96
30, 454049, Note_on_c, 14, 54, 96
30, 454288, Note_off_c, 14, 54, 0
30, 454288, Note_off_c, 14, 57, 0
30, 454288, Note_off_c, 14, 61, 0
30, 454529, Note_on_c, 14, 54, 96
30, 454529, Note_on_c, 14, 59, 96
30, 454529, Note_on_c, 14, 63, 96
30, 456352, Note_off_c, 14, 54, 0
30, 456352, Note_off_c, 14, 59, 0
30, 456352, Note_off_c, 14, 63, 0
30, 456449, Note_on_c, 14, 56, 96
30, 456449, Note_on_c, 14, 59, 96
30, 456449, Note_on_c, 14, 64, 96
30, 456688, Note_off_c, 14, 56, 0
30, 456688, Note_off_c, 14, 59, 0
30, 456688, Note_off_c, 14, 64, 0
30, 456929, Note_on_c, 14, 59, 96
30, 456929, Note_on_c, 14, 64, 96
30, 456929, Note_on_c, 14, 56, 96
30, 457655, Note_off_c, 14, 56, 0
30, 457655, Note_off_c, 14, 59, 0
30, 457655, Note_off_c, 14, 64, 0
30, 457696, Note_on_c, 14, 56, 96
30, 457696, Note_on_c, 14, 59, 96
30, 457696, Note_on_c, 14, 64, 96
30, 458333, Note_off_c, 14, 56, 0
30, 458333, Note_off_c, 14, 59, 0
30, 458333, Note_off_c, 14, 64, 0
30, 458369, Note_on_c, 14, 56, 96
30, 458369, Note_on_c, 14, 59, 96
30, 458369, Note_on_c, 14, 61, 96
30, 458369, Note_on_c, 14, 65, 96
30, 460192, Note_off_c, 14, 56, 0
30, 460192, Note_off_c, 14, 59, 0
30, 460192, Note_off_c, 14, 61, 0
30, 460192, Note_off_c, 14, 65, 0
30, 460289, Note_on_c, 14, 57, 96
30, 460289, Note_on_c, 14, 61, 96
30, 460289, Note_on_c, 14, 66, 96
30, 460744, Note_off_c, 14, 57, 0
30, 460744, Note_off_c, 14, 61, 0
30, 460744, Note_off_c, 14, 66, 0
30, 460769, Note_on_c, 14, 61, 96
30, 460769, Note_on_c, 14, 57, 96
30, 460769, Note_on_c, 14, 66, 96
30, 461680, Note_off_c, 14, 66, 0
30, 461680, Note_off_c, 14, 57, 0
30, 461680, Note_off_c, 14, 61, 0
30, 461729, Note_on_c, 14, 66, 96
30, 461729, Note_on_c, 14, 61, 96
30, 461729, Note_on_c, 14, 57, 96
30, 462184, Note_off_c, 14, 61, 0
30, 462184, Note_off_c, 14, 57, 0
30, 462184, Note_off_c, 14, 66, 0
30, 462209, Note_on_c, 14, 66, 96
30, 462209, Note_on_c, 14, 71, 96
30, 463120, Note_off_c, 14, 66, 0
30, 463120, Note_off_c, 14, 71, 0
30, 463169, Note_on_c, 14, 66, 96
30, 463169, Note_on_c, 14, 63, 96
30, 463169, Note_on_c, 14, 59, 96
30, 463169, Note_on_c, 14, 71, 96
30, 464080, Note_off_c, 14, 66, 0
30, 464080, Note_off_c, 14, 71, 0
30, 464080, Note_off_c, 14, 63, 0
30, 464080, Note_off_c, 14, 59, 0
30, 464129, Note_on_c, 14, 68, 96
30, 464129, Note_on_c, 14, 80, 96
30, 464404, Note_off_c, 14, 68, 0
30, 464404, Note_off_c, 14, 80, 0
30, 464417, Note_on_c, 14, 67, 96
30, 464417, Note_on_c, 14, 79, 96
30, 464598, Note_off_c, 14, 79, 0
30, 464598, Note_off_c, 14, 67, 0
30, 464609, Note_on_c, 14, 68, 96
30, 464609, Note_on_c, 14, 80, 96
30, 464884, Note_off_c, 14, 68, 0
30, 464884, Note_off_c, 14, 80, 0
30, 464897, Note_on_c, 14, 83, 96
30, 464897, Note_on_c, 14, 71, 96
30, 465078, Note_off_c, 14, 83, 0
30, 465078, Note_off_c, 14, 71, 0
30, 465377, Note_on_c, 14, 85, 96
30, 465377, Note_on_c, 14, 73, 96
30, 465558, Note_off_c, 14, 85, 0
30, 465558, Note_off_c, 14, 73, 0
30, 465569, Note_on_c, 14, 83, 96
30, 465569, Note_on_c, 14, 71, 96
30, 465844, Note_off_c, 14, 83, 0
30, 465844, Note_off_c, 14, 71, 0
30, 466049, Note_on_c, 14, 64, 96
30, 466049, Note_on_c, 14, 76, 96
30, 466960, Note_off_c, 14, 64, 0
30, 466960, Note_off_c, 14, 76, 0
30, 467969, Note_on_c, 14, 54, 96
30, 467969, Note_on_c, 14, 57, 96
30, 467969, Note_on_c, 14, 61, 96
30, 468208, Note_off_c, 14, 54, 0
30, 468208, Note_off_c, 14, 57, 0
30, 468208, Note_off_c, 14, 61, 0
30, 468449, Note_on_c, 14, 57, 96
30, 468449, Note_on_c, 14, 61, 96
30, 468449, Note_on_c, 14, 54, 96
30, 469360, Note_off_c, 14, 61, 0
30, 469360, Note_off_c, 14, 57, 0
30, 469360, Note_off_c, 14, 54, 0
30, 469409, Note_on_c, 14, 61, 96
30, 469409, Note_on_c, 14, 57, 96
30, 469409, Note_on_c, 14, 54, 96
30, 469648, Note_off_c, 14, 61, 0
30, 469648, Note_off_c, 14, 57, 0
30, 469648, Note_off_c, 14, 54, 0
30, 469889, Note_on_c, 14, 63, 96
30, 469889, Note_on_c, 14, 59, 96
30, 469889, Note_on_c, 14, 54, 96
30, 471712, Note_off_c, 14, 63, 0
30, 471712, Note_off_c, 14, 59, 0
30, 471712, Note_off_c, 14, 54, 0
30, 471809, Note_on_c, 14, 64, 96
30, 471809, Note_on_c, 14, 59, 96
30, 471809, Note_on_c, 14, 56, 96
30, 472048, Note_off_c, 14, 56, 0
30, 472048, Note_off_c, 14, 64, 0
30, 472048, Note_off_c, 14, 59, 0
30, 472289, Note_on_c, 14, 56, 96
30, 472289, Note_on_c, 14, 59, 96
30, 472289, Note_on_c, 14, 64, 96
30, 473015, Note_off_c, 14, 56, 0
30, 473015, Note_off_c, 14, 59, 0
30, 473015, Note_off_c, 14, 64, 0
30, 473056, Note_on_c, 14, 56, 96
30, 473056, Note_on_c, 14, 59, 96
30, 473056, Note_on_c, 14, 64, 96
30, 473693, Note_off_c, 14, 56, 0
30, 473693, Note_off_c, 14, 59, 0
30, 473693, Note_off_c, 14, 64, 0
30, 473729, Note_on_c, 14, 56, 96
30, 473729, Note_on_c, 14, 59, 96
30, 473729, Note_on_c, 14, 61, 96
30, 473729, Note_on_c, 14, 65, 96
30, 475552, Note_off_c, 14, 65, 0
30, 475552, Note_off_c, 14, 56, 0
30, 475552, Note_off_c, 14, 59, 0
30, 475552, Note_off_c, 14, 61, 0
30, 475649, Note_on_c, 14, 61, 96
30, 475649, Note_on_c, 14, 66, 96
30, 475649, Note_on_c, 14, 69, 96
30, 475888, Note_off_c, 14, 61, 0
30, 475888, Note_off_c, 14, 66, 0
30, 475888, Note_off_c, 14, 69, 0
30, 476129, Note_on_c, 14, 61, 96
30, 476129, Note_on_c, 14, 66, 96
30, 476129, Note_on_c, 14, 69, 96
30, 477040, Note_off_c, 14, 61, 0
30, 477040, Note_off_c, 14, 66, 0
30, 477040, Note_off_c, 14, 69, 0
30, 477089, Note_on_c, 14, 61, 96
30, 477089, Note_on_c, 14, 66, 96
30, 477089, Note_on_c, 14, 69, 96
30, 477328, Note_off_c, 14, 69, 0
30, 477328, Note_off_c, 14, 61, 0
30, 477328, Note_off_c, 14, 66, 0
30, 477569, Note_on_c, 14, 63, 96
30, 477569, Note_on_c, 14, 66, 96
30, 477569, Note_on_c, 14, 71, 96
30, 479392, Note_off_c, 14, 63, 0
30, 479392, Note_off_c, 14, 66, 0
30, 479392, Note_off_c, 14, 71, 0
30, 479489, Note_on_c, 14, 68, 96
30, 479489, Note_on_c, 14, 71, 96
30, 479489, Note_on_c, 14, 75, 96
30, 479944, Note_off_c, 14, 68, 0
30, 479944, Note_off_c, 14, 71, 0
30, 479944, Note_off_c, 14, 75, 0
30, 479969, Note_on_c, 14, 75, 96
30, 479969, Note_on_c, 14, 68, 96
30, 479969, Note_on_c, 14, 71, 96
30, 480424, Note_off_c, 14, 68, 0
30, 480424, Note_off_c, 14, 71, 0
30, 480424, Note_off_c, 14, 75, 0
30, 480449, Note_on_c, 14, 62, 96
30, 480449, Note_on_c, 14, 66, 96
30, 480449, Note_on_c, 14, 68, 96
30, 480449, Note_on_c, 14, 74, 96
30, 480449, Note_on_c, 14, 78, 96
30, 480449, Note_on_c, 14, 80, 96
30, 481360, Note_off_c, 14, 68, 0
30, 481360, Note_off_c, 14, 62, 0
30, 481360, Note_off_c, 14, 66, 0
30, 481360, Note_off_c, 14, 74, 0
30, 481360, Note_off_c, 14, 78, 0
30, 481360, Note_off_c, 14, 80, 0
30, 481409, Note_on_c, 14, 68, 96
30, 481409, Note_on_c, 14, 73, 96
30, 481409, Note_on_c, 14, 77, 96
30, 481409, Note_on_c, 14, 80, 96
30, 481648, Note_off_c, 14, 80, 0
30, 481648, Note_off_c, 14, 68, 0
30, 481648, Note_off_c, 14, 73, 0
30, 481648, Note_off_c, 14, 77, 0
30, 483329, Note_on_c, 14, 54, 96
30, 483329, Note_on_c, 14, 61, 96
30, 483329, Note_on_c, 14, 57, 96
30, 483568, Note_off_c, 14, 61, 0
30, 483568, Note_off_c, 14, 57, 0
30, 483568, Note_off_c, 14, 54, 0
30, 483809, Note_on_c, 14, 61, 96
30, 483809, Note_on_c, 14, 57, 96
30, 483809, Note_on_c, 14, 54, 96
30, 484720, Note_off_c, 14, 61, 0
30, 484720, Note_off_c, 14, 54, 0
30, 484720, Note_off_c, 14, 57, 0
30, 484769, Note_on_c, 14, 61, 96
30, 484769, Note_on_c, 14, 57, 96
30, 484769, Note_on_c, 14, 54, 96
30, 485008, Note_off_c, 14, 61, 0
30, 485008, Note_off_c, 14, 57, 0
30, 485008, Note_off_c, 14, 54, 0
30, 485249, Note_on_c, 14, 54, 96
30, 485249, Note_on_c, 14, 59, 96
30, 485249, Note_on_c, 14, 63, 96
30, 487072, Note_off_c, 14, 54, 0
30, 487072, Note_off_c, 14, 59, 0
30, 487072, Note_off_c, 14, 63, 0
30, 487169, Note_on_c, 14, 56, 96
30, 487169, Note_on_c, 14, 64, 96
30, 487169, Note_on_c, 14, 59, 96
30, 487408, Note_off_c, 14, 64, 0
30, 487408, Note_off_c, 14, 59, 0
30, 487408, Note_off_c, 14, 56, 0
30, 487649, Note_on_c, 14, 59, 96
30, 487649, Note_on_c, 14, 64, 96
30, 487649, Note_on_c, 14, 56, 96
30, 488375, Note_off_c, 14, 59, 0
30, 488375, Note_off_c, 14, 56, 0
30, 488375, Note_off_c, 14, 64, 0
30, 488416, Note_on_c, 14, 59, 96
30, 488416, Note_on_c, 14, 64, 96
30, 488416, Note_on_c, 14, 56, 96
30, 489053, Note_off_c, 14, 59, 0
30, 489053, Note_off_c, 14, 64, 0
30, 489053, Note_off_c, 14, 56, 0
30, 489089, Note_on_c, 14, 61, 96
30, 489089, Note_on_c, 14, 56, 96
30, 489089, Note_on_c, 14, 65, 96
30, 489089, Note_on_c, 14, 59, 96
30, 490912, Note_off_c, 14, 65, 0
30, 490912, Note_off_c, 14, 61, 0
30, 490912, Note_off_c, 14, 59, 0
30, 490912, Note_off_c, 14, 56, 0
30, 491009, Note_on_c, 14, 57, 96
30, 491009, Note_on_c, 14, 54, 96
30, 491009, Note_on_c, 14, 61, 96
30, 491248, Note_off_c, 14, 54, 0
30, 491248, Note_off_c, 14, 57, 0
30, 491248, Note_off_c, 14, 61, 0
30, 491489, Note_on_c, 14, 54, 96
30, 491489, Note_on_c, 14, 57, 96
30, 491489, Note_on_c, 14, 61, 96
30, 492400, Note_off_c, 14, 54, 0
30, 492400, Note_off_c, 14, 57, 0
30, 492400, Note_off_c, 14, 61, 0
30, 492449, Note_on_c, 14, 54, 96
30, 492449, Note_on_c, 14, 57, 96
30, 492449, Note_on_c, 14, 61, 96
30, 492688, Note_off_c, 14, 61, 0
30, 492688, Note_off_c, 14, 54, 0
30, 492688, Note_off_c, 14, 57, 0
30, 492929, Note_on_c, 14, 54, 96
30, 492929, Note_on_c, 14, 59, 96
30, 492929, Note_on_c, 14, 63, 96
30, 494752, Note_off_c, 14, 54, 0
30, 494752, Note_off_c, 14, 59, 0
30, 494752, Note_off_c, 14, 63, 0
30, 494849, Note_on_c, 14, 56, 96
30, 494849, Note_on_c, 14, 59, 96
30, 494849, Note_on_c, 14, 63, 96
30, 495088, Note_off_c, 14, 56, 0
30, 495088, Note_off_c, 14, 59, 0
30, 495088, Note_off_c, 14, 63, 0
30, 495329, Note_on_c, 14, 56, 96
30, 495329, Note_on_c, 14, 59, 96
30, 495329, Note_on_c, 14, 63, 96
30, 496055, Note_off_c, 14, 63, 0
30, 496055, Note_off_c, 14, 56, 0
30, 496055, Note_off_c, 14, 59, 0
30, 496096, Note_on_c, 14, 56, 96
30, 496096, Note_on_c, 14, 59, 96
30, 496096, Note_on_c, 14, 63, 96
30, 496733, Note_off_c, 14, 56, 0
30, 496733, Note_off_c, 14, 59, 0
30, 496733, Note_off_c, 14, 63, 0
30, 496769, Note_on_c, 14, 65, 96
30, 496769, Note_on_c, 14, 56, 96
30, 496769, Note_on_c, 14, 59, 96
30, 496769, Note_on_c, 14, 61, 96
30, 498592, Note_off_c, 14, 61, 0
30, 498592, Note_off_c, 14, 65, 0
30, 498592, Note_off_c, 14, 56, 0
30, 498592, Note_off_c, 14, 59, 0
30, 498689, Note_on_c, 14, 73, 96
30, 498689, Note_on_c, 14, 69, 96
30, 498689, Note_on_c, 14, 66, 96
30, 498928, Note_off_c, 14, 73, 0
30, 498928, Note_off_c, 14, 69, 0
30, 498928, Note_off_c, 14, 66, 0
30, 499169, Note_on_c, 14, 69, 96
30, 499169, Note_on_c, 14, 66, 96
30, 500080, Note_off_c, 14, 69, 0
30, 500080, Note_off_c, 14, 66, 0
30, 500129, Note_on_c, 14, 76, 96
30, 500129, Note_on_c, 14, 73, 96
30, 500129, Note_on_c, 14, 69, 96
30, 500129, Note_on_c, 14, 66, 96
30, 500368, Note_off_c, 14, 76, 0
30, 500368, Note_off_c, 14, 69, 0
30, 500368, Note_off_c, 14, 66, 0
30, 500368, Note_off_c, 14, 73, 0
30, 500609, Note_on_c, 14, 66, 96
30, 500609, Note_on_c, 14, 75, 96
30, 500609, Note_on_c, 14, 71, 96
30, 500609, Note_on_c, 14, 69, 96
30, 501520, Note_off_c, 14, 66, 0
30, 501520, Note_off_c, 14, 75, 0
30, 501520, Note_off_c, 14, 71, 0
30, 501520, Note_off_c, 14, 69, 0
30, 501569, Note_on_c, 14, 71, 96
30, 501569, Note_on_c, 14, 66, 96
30, 501569, Note_on_c, 14, 63, 96
30, 502480, Note_off_c, 14, 66, 0
30, 502480, Note_off_c, 14, 71, 0
30, 502480, Note_off_c, 14, 63, 0
30, 502816, Note_on_c, 14, 73, 96
30, 502816, Note_on_c, 14, 66, 96
30, 503453, Note_off_c, 14, 73, 0
30, 503453, Note_off_c, 14, 66, 0
30, 503489, Note_on_c, 14, 73, 96
30, 503489, Note_on_c, 14, 66, 96
30, 504215, Note_off_c, 14, 66, 0
30, 504215, Note_off_c, 14, 73, 0
30, 504257, Note_on_c, 14, 66, 96
30, 504257, Note_on_c, 14, 73, 96
30, 505350, Note_off_c, 14, 66, 0
30, 505350, Note_off_c, 14, 73, 0
30, 506369, Note_on_c, 14, 60, 96
30, 506369, Note_on_c, 14, 63, 96
30, 506369, Note_on_c, 14, 68, 96
30, 506369, Note_on_c, 14, 73, 96
30, 511840, Note_off_c, 14, 73, 0
30, 511840, Note_off_c, 14, 60, 0
30, 511840, Note_off_c, 14, 68, 0
30, 511840, Note_off_c, 14, 63, 0
30, 511840, End_track
31, 0, Start_track
31, 0, Title_t, "Baritone"
31, 0, Instrument_name_t, "Tuba"
31, 0, Program_c, 15, 58
31, 118871, Note_on_c, 15, 40, 89
31, 119068, Note_off_c, 15, 40, 0
31, 119111, Note_on_c, 15, 40, 73
31, 126748, Note_off_c, 15, 40, 0
31, 126791, Note_on_c, 15, 56, 78
31, 127718, Note_off_c, 15, 56, 0
31, 127759, Note_on_c, 15, 56, 76
31, 128668, Note_off_c, 15, 56, 0
31, 128711, Note_on_c, 15, 56, 66
31, 128909, Note_off_c, 15, 56, 0
31, 128965, Note_on_c, 15, 56, 61
31, 129197, Note_off_c, 15, 56, 0
31, 129440, Note_on_c, 15, 56, 61
31, 129672, Note_off_c, 15, 56, 0
31, 129679, Note_on_c, 15, 54, 76
31, 130588, Note_off_c, 15, 54, 0
31, 130631, Note_on_c, 15, 49, 66
31, 130829, Note_off_c, 15, 49, 0
31, 130885, Note_on_c, 15, 49, 61
31, 131117, Note_off_c, 15, 49, 0
31, 131599, Note_on_c, 15, 49, 55
31, 131782, Note_off_c, 15, 49, 0
31, 131838, Note_on_c, 15, 49, 52
31, 132068, Note_off_c, 15, 49, 0
31, 132551, Note_on_c, 15, 49, 57
31, 132749, Note_off_c, 15, 49, 0
31, 132805, Note_on_c, 15, 49, 52
31, 133037, Note_off_c, 15, 49, 0
31, 133519, Note_on_c, 15, 47, 67
31, 133717, Note_off_c, 15, 47, 0
31, 133758, Note_on_c, 15, 47, 64
31, 134428, Note_off_c, 15, 47, 0
31, 134471, Note_on_c, 15, 49, 57
31, 134669, Note_off_c, 15, 49, 0
31, 134725, Note_on_c, 15, 49, 52
31, 134957, Note_off_c, 15, 49, 0
31, 135439, Note_on_c, 15, 49, 55
31, 135622, Note_off_c, 15, 49, 0
31, 135678, Note_on_c, 15, 49, 52
31, 135908, Note_off_c, 15, 49, 0
31, 136391, Note_on_c, 15, 49, 57
31, 136589, Note_off_c, 15, 49, 0
31, 136645, Note_on_c, 15, 49, 52
31, 136877, Note_off_c, 15, 49, 0
31, 137359, Note_on_c, 15, 47, 67
31, 137557, Note_off_c, 15, 47, 0
31, 137598, Note_on_c, 15, 47, 64
31, 138268, Note_off_c, 15, 47, 0
31, 138311, Note_on_c, 15, 49, 57
31, 138509, Note_off_c, 15, 49, 0
31, 138565, Note_on_c, 15, 49, 52
31, 138797, Note_off_c, 15, 49, 0
31, 139279, Note_on_c, 15, 49, 55
31, 139462, Note_off_c, 15, 49, 0
31, 139518, Note_on_c, 15, 49, 52
31, 139748, Note_off_c, 15, 49, 0
31, 140231, Note_on_c, 15, 49, 57
31, 140429, Note_off_c, 15, 49, 0
31, 140485, Note_on_c, 15, 49, 52
31, 140717, Note_off_c, 15, 49, 0
31, 141199, Note_on_c, 15, 47, 67
31, 141397, Note_off_c, 15, 47, 0
31, 141438, Note_on_c, 15, 47, 64
31, 142108, Note_off_c, 15, 47, 0
31, 142151, Note_on_c, 15, 49, 57
31, 142349, Note_off_c, 15, 49, 0
31, 142405, Note_on_c, 15, 49, 52
31, 142637, Note_off_c, 15, 49, 0
31, 143119, Note_on_c, 15, 49, 55
31, 143302, Note_off_c, 15, 49, 0
31, 143358, Note_on_c, 15, 49, 52
31, 143588, Note_off_c, 15, 49, 0
31, 144071, Note_on_c, 15, 49, 57
31, 144269, Note_off_c, 15, 49, 0
31, 144325, Note_on_c, 15, 49, 52
31, 144557, Note_off_c, 15, 49, 0
31, 145039, Note_on_c, 15, 47, 67
31, 145237, Note_off_c, 15, 47, 0
31, 145278, Note_on_c, 15, 47, 64
31, 145948, Note_off_c, 15, 47, 0
31, 145991, Note_on_c, 15, 49, 57
31, 146189, Note_off_c, 15, 49, 0
31, 146245, Note_on_c, 15, 49, 52
31, 146477, Note_off_c, 15, 49, 0
31, 146959, Note_on_c, 15, 49, 55
31, 147142, Note_off_c, 15, 49, 0
31, 147198, Note_on_c, 15, 49, 52
31, 147428, Note_off_c, 15, 49, 0
31, 147911, Note_on_c, 15, 49, 57
31, 148109, Note_off_c, 15, 49, 0
31, 148165, Note_on_c, 15, 49, 52
31, 148397, Note_off_c, 15, 49, 0
31, 148879, Note_on_c, 15, 47, 67
31, 149077, Note_off_c, 15, 47, 0
31, 149118, Note_on_c, 15, 47, 64
31, 149788, Note_off_c, 15, 47, 0
31, 149831, Note_on_c, 15, 49, 57
31, 150029, Note_off_c, 15, 49, 0
31, 150085, Note_on_c, 15, 49, 52
31, 150317, Note_off_c, 15, 49, 0
31, 150799, Note_on_c, 15, 49, 55
31, 150982, Note_off_c, 15, 49, 0
31, 151038, Note_on_c, 15, 49, 52
31, 151268, Note_off_c, 15, 49, 0
31, 151751, Note_on_c, 15, 49, 69
31, 152202, Note_off_c, 15, 49, 0
31, 152719, Note_on_c, 15, 47, 67
31, 153628, Note_off_c, 15, 47, 0
31, 153671, Note_on_c, 15, 49, 57
31, 153869, Note_off_c, 15, 49, 0
31, 153925, Note_on_c, 15, 49, 52
31, 154157, Note_off_c, 15, 49, 0
31, 154639, Note_on_c, 15, 49, 55
31, 154822, Note_off_c, 15, 49, 0
31, 154878, Note_on_c, 15, 49, 52
31, 155108, Note_off_c, 15, 49, 0
31, 155591, Note_on_c, 15, 42, 69
31, 156518, Note_off_c, 15, 42, 0
31, 156559, Note_on_c, 15, 44, 67
31, 157468, Note_off_c, 15, 44, 0
31, 157511, Note_on_c, 15, 49, 57
31, 157709, Note_off_c, 15, 49, 0
31, 157765, Note_on_c, 15, 49, 52
31, 157997, Note_off_c, 15, 49, 0
31, 158479, Note_on_c, 15, 49, 55
31, 158662, Note_off_c, 15, 49, 0
31, 158718, Note_on_c, 15, 49, 52
31, 158948, Note_off_c, 15, 49, 0
31, 159431, Note_on_c, 15, 49, 69
31, 159882, Note_off_c, 15, 49, 0
31, 159923, Note_on_c, 15, 51, 65
31, 160358, Note_off_c, 15, 51, 0
31, 160399, Note_on_c, 15, 52, 67
31, 160833, Note_off_c, 15, 52, 0
31, 160875, Note_on_c, 15, 56, 65
31, 161308, Note_off_c, 15, 56, 0
31, 161351, Note_on_c, 15, 54, 65
31, 163229, Note_off_c, 15, 54, 0
31, 163271, Note_on_c, 15, 44, 65
31, 165149, Note_off_c, 15, 44, 0
31, 165191, Note_on_c, 15, 49, 65
31, 167069, Note_off_c, 15, 49, 0
31, 167111, Note_on_c, 15, 49, 65
31, 168989, Note_off_c, 15, 49, 0
31, 169031, Note_on_c, 15, 46, 70
31, 169959, Note_off_c, 15, 46, 0
31, 169999, Note_on_c, 15, 45, 68
31, 170909, Note_off_c, 15, 45, 0
31, 170951, Note_on_c, 15, 44, 70
31, 171879, Note_off_c, 15, 44, 0
31, 171919, Note_on_c, 15, 48, 68
31, 172829, Note_off_c, 15, 48, 0
31, 172871, Note_on_c, 15, 49, 70
31, 173323, Note_off_c, 15, 49, 0
31, 173363, Note_on_c, 15, 51, 66
31, 173799, Note_off_c, 15, 51, 0
31, 173839, Note_on_c, 15, 52, 68
31, 174275, Note_off_c, 15, 52, 0
31, 174315, Note_on_c, 15, 51, 66
31, 174749, Note_off_c, 15, 51, 0
31, 174791, Note_on_c, 15, 52, 70
31, 175243, Note_off_c, 15, 52, 0
31, 175283, Note_on_c, 15, 54, 66
31, 175719, Note_off_c, 15, 54, 0
31, 175759, Note_on_c, 15, 56, 68
31, 176195, Note_off_c, 15, 56, 0
31, 176235, Note_on_c, 15, 58, 66
31, 176669, Note_off_c, 15, 58, 0
31, 176711, Note_on_c, 15, 54, 70
31, 177639, Note_off_c, 15, 54, 0
31, 177679, Note_on_c, 15, 56, 68
31, 178115, Note_off_c, 15, 56, 0
31, 178155, Note_on_c, 15, 57, 66
31, 178589, Note_off_c, 15, 57, 0
31, 178631, Note_on_c, 15, 57, 70
31, 179083, Note_off_c, 15, 57, 0
31, 179123, Note_on_c, 15, 56, 66
31, 179559, Note_off_c, 15, 56, 0
31, 179599, Note_on_c, 15, 54, 68
31, 180509, Note_off_c, 15, 54, 0
31, 180551, Note_on_c, 15, 52, 58
31, 180750, Note_off_c, 15, 52, 0
31, 180805, Note_on_c, 15, 52, 53
31, 180988, Note_off_c, 15, 52, 0
31, 181043, Note_on_c, 15, 52, 54
31, 181225, Note_off_c, 15, 52, 0
31, 181280, Note_on_c, 15, 52, 53
31, 181464, Note_off_c, 15, 52, 0
31, 181519, Note_on_c, 15, 52, 56
31, 181703, Note_off_c, 15, 52, 0
31, 181758, Note_on_c, 15, 52, 53
31, 181940, Note_off_c, 15, 52, 0
31, 181995, Note_on_c, 15, 52, 54
31, 182176, Note_off_c, 15, 52, 0
31, 182231, Note_on_c, 15, 52, 53
31, 182414, Note_off_c, 15, 52, 0
31, 182471, Note_on_c, 15, 52, 58
31, 182670, Note_off_c, 15, 52, 0
31, 182725, Note_on_c, 15, 52, 53
31, 182908, Note_off_c, 15, 52, 0
31, 182963, Note_on_c, 15, 52, 54
31, 183145, Note_off_c, 15, 52, 0
31, 183200, Note_on_c, 15, 52, 53
31, 183384, Note_off_c, 15, 52, 0
31, 183439, Note_on_c, 15, 52, 56
31, 183623, Note_off_c, 15, 52, 0
31, 183678, Note_on_c, 15, 52, 53
31, 183860, Note_off_c, 15, 52, 0
31, 183915, Note_on_c, 15, 52, 54
31, 184096, Note_off_c, 15, 52, 0
31, 184151, Note_on_c, 15, 52, 53
31, 184382, Note_off_c, 15, 52, 0
31, 184391, Note_on_c, 15, 51, 58
31, 184590, Note_off_c, 15, 51, 0
31, 184645, Note_on_c, 15, 51, 53
31, 184828, Note_off_c, 15, 51, 0
31, 184883, Note_on_c, 15, 51, 54
31, 185065, Note_off_c, 15, 51, 0
31, 185120, Note_on_c, 15, 51, 53
31, 185304, Note_off_c, 15, 51, 0
31, 185359, Note_on_c, 15, 51, 56
31, 185543, Note_off_c, 15, 51, 0
31, 185598, Note_on_c, 15, 51, 53
31, 185780, Note_off_c, 15, 51, 0
31, 185835, Note_on_c, 15, 51, 54
31, 186016, Note_off_c, 15, 51, 0
31, 186071, Note_on_c, 15, 51, 53
31, 186254, Note_off_c, 15, 51, 0
31, 186311, Note_on_c, 15, 51, 58
31, 186510, Note_off_c, 15, 51, 0
31, 186565, Note_on_c, 15, 51, 53
31, 186748, Note_off_c, 15, 51, 0
31, 186803, Note_on_c, 15, 51, 54
31, 186985, Note_off_c, 15, 51, 0
31, 187040, Note_on_c, 15, 51, 53
31, 187224, Note_off_c, 15, 51, 0
31, 187279, Note_on_c, 15, 51, 56
31, 187463, Note_off_c, 15, 51, 0
31, 187518, Note_on_c, 15, 51, 53
31, 187700, Note_off_c, 15, 51, 0
31, 187755, Note_on_c, 15, 51, 54
31, 187936, Note_off_c, 15, 51, 0
31, 187991, Note_on_c, 15, 51, 53
31, 188222, Note_off_c, 15, 51, 0
31, 188231, Note_on_c, 15, 44, 70
31, 189159, Note_off_c, 15, 44, 0
31, 189199, Note_on_c, 15, 42, 68
31, 190109, Note_off_c, 15, 42, 0
31, 190151, Note_on_c, 15, 40, 70
31, 191079, Note_off_c, 15, 40, 0
31, 191119, Note_on_c, 15, 39, 68
31, 192029, Note_off_c, 15, 39, 0
31, 192071, Note_on_c, 15, 42, 70
31, 192285, Note_off_c, 15, 42, 0
31, 192325, Note_on_c, 15, 44, 65
31, 192523, Note_off_c, 15, 44, 0
31, 192563, Note_on_c, 15, 46, 66
31, 192760, Note_off_c, 15, 46, 0
31, 192800, Note_on_c, 15, 47, 65
31, 192999, Note_off_c, 15, 47, 0
31, 193039, Note_on_c, 15, 49, 68
31, 193238, Note_off_c, 15, 49, 0
31, 193278, Note_on_c, 15, 47, 65
31, 193475, Note_off_c, 15, 47, 0
31, 193515, Note_on_c, 15, 49, 66
31, 193711, Note_off_c, 15, 49, 0
31, 193751, Note_on_c, 15, 51, 65
31, 193949, Note_off_c, 15, 51, 0
31, 193991, Note_on_c, 15, 52, 70
31, 194205, Note_off_c, 15, 52, 0
31, 194245, Note_on_c, 15, 51, 65
31, 194443, Note_off_c, 15, 51, 0
31, 194483, Note_on_c, 15, 52, 66
31, 194680, Note_off_c, 15, 52, 0
31, 194720, Note_on_c, 15, 54, 65
31, 194919, Note_off_c, 15, 54, 0
31, 194959, Note_on_c, 15, 56, 68
31, 195158, Note_off_c, 15, 56, 0
31, 195198, Note_on_c, 15, 58, 65
31, 195395, Note_off_c, 15, 58, 0
31, 195435, Note_on_c, 15, 59, 66
31, 195631, Note_off_c, 15, 59, 0
31, 195671, Note_on_c, 15, 60, 65
31, 195869, Note_off_c, 15, 60, 0
31, 195911, Note_on_c, 15, 49, 70
31, 196839, Note_off_c, 15, 49, 0
31, 196879, Note_on_c, 15, 49, 68
31, 197315, Note_off_c, 15, 49, 0
31, 197355, Note_on_c, 15, 48, 66
31, 197789, Note_off_c, 15, 48, 0
31, 197831, Note_on_c, 15, 49, 70
31, 198283, Note_off_c, 15, 49, 0
31, 198323, Note_on_c, 15, 45, 66
31, 198759, Note_off_c, 15, 45, 0
31, 198799, Note_on_c, 15, 44, 68
31, 199709, Note_off_c, 15, 44, 0
31, 199751, Note_on_c, 15, 42, 70
31, 199965, Note_off_c, 15, 42, 0
31, 200005, Note_on_c, 15, 44, 65
31, 200203, Note_off_c, 15, 44, 0
31, 200243, Note_on_c, 15, 46, 66
31, 200440, Note_off_c, 15, 46, 0
31, 200480, Note_on_c, 15, 47, 65
31, 200679, Note_off_c, 15, 47, 0
31, 200719, Note_on_c, 15, 49, 68
31, 200918, Note_off_c, 15, 49, 0
31, 200958, Note_on_c, 15, 47, 65
31, 201155, Note_off_c, 15, 47, 0
31, 201195, Note_on_c, 15, 49, 66
31, 201391, Note_off_c, 15, 49, 0
31, 201431, Note_on_c, 15, 51, 65
31, 201629, Note_off_c, 15, 51, 0
31, 201671, Note_on_c, 15, 52, 70
31, 201885, Note_off_c, 15, 52, 0
31, 201925, Note_on_c, 15, 51, 65
31, 202123, Note_off_c, 15, 51, 0
31, 202163, Note_on_c, 15, 52, 66
31, 202360, Note_off_c, 15, 52, 0
31, 202400, Note_on_c, 15, 54, 65
31, 202599, Note_off_c, 15, 54, 0
31, 202639, Note_on_c, 15, 56, 68
31, 202838, Note_off_c, 15, 56, 0
31, 202878, Note_on_c, 15, 58, 65
31, 203075, Note_off_c, 15, 58, 0
31, 203115, Note_on_c, 15, 59, 66
31, 203311, Note_off_c, 15, 59, 0
31, 203351, Note_on_c, 15, 60, 65
31, 203549, Note_off_c, 15, 60, 0
31, 203591, Note_on_c, 15, 57, 65
31, 205469, Note_off_c, 15, 57, 0
31, 205511, Note_on_c, 15, 54, 65
31, 207389, Note_off_c, 15, 54, 0
31, 222791, Note_on_c, 15, 44, 88
31, 223719, Note_off_c, 15, 44, 0
31, 223759, Note_on_c, 15, 44, 86
31, 224195, Note_off_c, 15, 44, 0
31, 224235, Note_on_c, 15, 45, 84
31, 224669, Note_off_c, 15, 45, 0
31, 224711, Note_on_c, 15, 44, 88
31, 225163, Note_off_c, 15, 44, 0
31, 225203, Note_on_c, 15, 42, 84
31, 225639, Note_off_c, 15, 42, 0
31, 225679, Note_on_c, 15, 40, 86
31, 226589, Note_off_c, 15, 40, 0
31, 226631, Note_on_c, 15, 47, 88
31, 227559, Note_off_c, 15, 47, 0
31, 227599, Note_on_c, 15, 47, 86
31, 228035, Note_off_c, 15, 47, 0
31, 228075, Note_on_c, 15, 49, 84
31, 228509, Note_off_c, 15, 49, 0
31, 228551, Note_on_c, 15, 47, 88
31, 229479, Note_off_c, 15, 47, 0
31, 229519, Note_on_c, 15, 45, 86
31, 229955, Note_off_c, 15, 45, 0
31, 229995, Note_on_c, 15, 44, 84
31, 230429, Note_off_c, 15, 44, 0
31, 230471, Note_on_c, 15, 45, 88
31, 231399, Note_off_c, 15, 45, 0
31, 231439, Note_on_c, 15, 42, 86
31, 231875, Note_off_c, 15, 42, 0
31, 231915, Note_on_c, 15, 44, 84
31, 232349, Note_off_c, 15, 44, 0
31, 232391, Note_on_c, 15, 45, 88
31, 233319, Note_off_c, 15, 45, 0
31, 233359, Note_on_c, 15, 44, 86
31, 233795, Note_off_c, 15, 44, 0
31, 233835, Note_on_c, 15, 42, 84
31, 234269, Note_off_c, 15, 42, 0
31, 234311, Note_on_c, 15, 45, 83
31, 238108, Note_off_c, 15, 45, 0
31, 238151, Note_on_c, 15, 48, 83
31, 240028, Note_off_c, 15, 48, 0
31, 240071, Note_on_c, 15, 50, 83
31, 241948, Note_off_c, 15, 50, 0
31, 241991, Note_on_c, 15, 51, 83
31, 245788, Note_off_c, 15, 51, 0
31, 245831, Note_on_c, 15, 48, 83
31, 247708, Note_off_c, 15, 48, 0
31, 247751, Note_on_c, 15, 41, 83
31, 249628, Note_off_c, 15, 41, 0
31, 249671, Note_on_c, 15, 43, 88
31, 249884, Note_off_c, 15, 43, 0
31, 249925, Note_on_c, 15, 45, 83
31, 250122, Note_off_c, 15, 45, 0
31, 250163, Note_on_c, 15, 47, 84
31, 250359, Note_off_c, 15, 47, 0
31, 250400, Note_on_c, 15, 45, 83
31, 250598, Note_off_c, 15, 45, 0
31, 250639, Note_on_c, 15, 47, 86
31, 250837, Note_off_c, 15, 47, 0
31, 250878, Note_on_c, 15, 48, 83
31, 251073, Note_off_c, 15, 48, 0
31, 251115, Note_on_c, 15, 50, 84
31, 251310, Note_off_c, 15, 50, 0
31, 251351, Note_on_c, 15, 48, 83
31, 251548, Note_off_c, 15, 48, 0
31, 251591, Note_on_c, 15, 50, 88
31, 251804, Note_off_c, 15, 50, 0
31, 251845, Note_on_c, 15, 52, 83
31, 252042, Note_off_c, 15, 52, 0
31, 252083, Note_on_c, 15, 53, 84
31, 252279, Note_off_c, 15, 53, 0
31, 252320, Note_on_c, 15, 52, 83
31, 252518, Note_off_c, 15, 52, 0
31, 252559, Note_on_c, 15, 53, 86
31, 252757, Note_off_c, 15, 53, 0
31, 252798, Note_on_c, 15, 55, 83
31, 252993, Note_off_c, 15, 55, 0
31, 253035, Note_on_c, 15, 57, 84
31, 253230, Note_off_c, 15, 57, 0
31, 253271, Note_on_c, 15, 59, 83
31, 253468, Note_off_c, 15, 59, 0
31, 253511, Note_on_c, 15, 43, 88
31, 253724, Note_off_c, 15, 43, 0
31, 253765, Note_on_c, 15, 45, 83
31, 253962, Note_off_c, 15, 45, 0
31, 254003, Note_on_c, 15, 47, 84
31, 254199, Note_off_c, 15, 47, 0
31, 254240, Note_on_c, 15, 45, 83
31, 254438, Note_off_c, 15, 45, 0
31, 254479, Note_on_c, 15, 47, 86
31, 254677, Note_off_c, 15, 47, 0
31, 254718, Note_on_c, 15, 48, 83
31, 254913, Note_off_c, 15, 48, 0
31, 254955, Note_on_c, 15, 50, 84
31, 255150, Note_off_c, 15, 50, 0
31, 255191, Note_on_c, 15, 48, 83
31, 255388, Note_off_c, 15, 48, 0
31, 255431, Note_on_c, 15, 55, 88
31, 255644, Note_off_c, 15, 55, 0
31, 255685, Note_on_c, 15, 55, 83
31, 255882, Note_off_c, 15, 55, 0
31, 255923, Note_on_c, 15, 55, 84
31, 256119, Note_off_c, 15, 55, 0
31, 256160, Note_on_c, 15, 55, 83
31, 256358, Note_off_c, 15, 55, 0
31, 256399, Note_on_c, 15, 53, 86
31, 256597, Note_off_c, 15, 53, 0
31, 256638, Note_on_c, 15, 53, 83
31, 256833, Note_off_c, 15, 53, 0
31, 256875, Note_on_c, 15, 53, 84
31, 257070, Note_off_c, 15, 53, 0
31, 257111, Note_on_c, 15, 53, 83
31, 257308, Note_off_c, 15, 53, 0
31, 257351, Note_on_c, 15, 43, 93
31, 257802, Note_off_c, 15, 43, 0
31, 261191, Note_on_c, 15, 55, 115
31, 261443, Note_off_c, 15, 55, 0
31, 261683, Note_on_c, 15, 43, 112
31, 261792, Note_off_c, 15, 43, 0
31, 261843, Note_on_c, 15, 43, 111
31, 261946, Note_off_c, 15, 43, 0
31, 261997, Note_on_c, 15, 43, 111
31, 262108, Note_off_c, 15, 43, 0
31, 262159, Note_on_c, 15, 43, 126
31, 262593, Note_off_c, 15, 43, 0
31, 262593, End_track
32, 0, Start_track
32, 0, Title_t, "Piccolo"
32, 0, Instrument_name_t, "African Pan Flute"
32, 0, Program_c, 0, 0
32, 126435, Note_on_c, 0, 88, 85
32, 126525, Note_off_c, 0, 88, 0
32, 126551, Note_on_c, 0, 90, 85
32, 126610, Note_off_c, 0, 90, 0
32, 126629, Note_on_c, 0, 92, 85
32, 126689, Note_off_c, 0, 92, 0
32, 126707, Note_on_c, 0, 93, 85
32, 126771, Note_off_c, 0, 93, 0
32, 126791, Note_on_c, 0, 95, 85
32, 129638, Note_off_c, 0, 95, 0
32, 131599, Note_on_c, 0, 88, 91
32, 131695, Note_off_c, 0, 88, 0
32, 131722, Note_on_c, 0, 85, 88
32, 131811, Note_off_c, 0, 85, 0
32, 131838, Note_on_c, 0, 88, 88
32, 131927, Note_off_c, 0, 88, 0
32, 131954, Note_on_c, 0, 92, 88
32, 132048, Note_off_c, 0, 92, 0
32, 132075, Note_on_c, 0, 97, 89
32, 132168, Note_off_c, 0, 97, 0
32, 132195, Note_on_c, 0, 92, 88
32, 132285, Note_off_c, 0, 92, 0
32, 132311, Note_on_c, 0, 97, 88
32, 132401, Note_off_c, 0, 97, 0
32, 132428, Note_on_c, 0, 100, 88
32, 132522, Note_off_c, 0, 100, 0
32, 132551, Note_on_c, 0, 104, 93
32, 132662, Note_off_c, 0, 104, 0
32, 132688, Note_on_c, 0, 100, 88
32, 132778, Note_off_c, 0, 100, 0
32, 132805, Note_on_c, 0, 97, 88
32, 132895, Note_off_c, 0, 97, 0
32, 132922, Note_on_c, 0, 92, 88
32, 133016, Note_off_c, 0, 92, 0
32, 135439, Note_on_c, 0, 88, 91
32, 135535, Note_off_c, 0, 88, 0
32, 135562, Note_on_c, 0, 85, 88
32, 135651, Note_off_c, 0, 85, 0
32, 135678, Note_on_c, 0, 88, 88
32, 135767, Note_off_c, 0, 88, 0
32, 135794, Note_on_c, 0, 92, 88
32, 135888, Note_off_c, 0, 92, 0
32, 135915, Note_on_c, 0, 97, 89
32, 136008, Note_off_c, 0, 97, 0
32, 136035, Note_on_c, 0, 92, 88
32, 136125, Note_off_c, 0, 92, 0
32, 136151, Note_on_c, 0, 97, 88
32, 136241, Note_off_c, 0, 97, 0
32, 136268, Note_on_c, 0, 100, 88
32, 136362, Note_off_c, 0, 100, 0
32, 136391, Note_on_c, 0, 104, 93
32, 136502, Note_off_c, 0, 104, 0
32, 136528, Note_on_c, 0, 100, 88
32, 136618, Note_off_c, 0, 100, 0
32, 136645, Note_on_c, 0, 97, 88
32, 136735, Note_off_c, 0, 97, 0
32, 136762, Note_on_c, 0, 92, 88
32, 136856, Note_off_c, 0, 92, 0
32, 139279, Note_on_c, 0, 88, 91
32, 139375, Note_off_c, 0, 88, 0
32, 139402, Note_on_c, 0, 85, 88
32, 139491, Note_off_c, 0, 85, 0
32, 139518, Note_on_c, 0, 88, 88
32, 139607, Note_off_c, 0, 88, 0
32, 139634, Note_on_c, 0, 92, 88
32, 139728, Note_off_c, 0, 92, 0
32, 139755, Note_on_c, 0, 97, 89
32, 139848, Note_off_c, 0, 97, 0
32, 139875, Note_on_c, 0, 92, 88
32, 139965, Note_off_c, 0, 92, 0
32, 139991, Note_on_c, 0, 97, 88
32, 140081, Note_off_c, 0, 97, 0
32, 140108, Note_on_c, 0, 100, 88
32, 140202, Note_off_c, 0, 100, 0
32, 140231, Note_on_c, 0, 104, 93
32, 140342, Note_off_c, 0, 104, 0
32, 140368, Note_on_c, 0, 100, 88
32, 140458, Note_off_c, 0, 100, 0
32, 140485, Note_on_c, 0, 97, 88
32, 140575, Note_off_c, 0, 97, 0
32, 140602, Note_on_c, 0, 92, 88
32, 140696, Note_off_c, 0, 92, 0
32, 143119, Note_on_c, 0, 88, 91
32, 143215, Note_off_c, 0, 88, 0
32, 143242, Note_on_c, 0, 85, 88
32, 143331, Note_off_c, 0, 85, 0
32, 143358, Note_on_c, 0, 88, 88
32, 143447, Note_off_c, 0, 88, 0
32, 143474, Note_on_c, 0, 92, 88
32, 143568, Note_off_c, 0, 92, 0
32, 143595, Note_on_c, 0, 97, 89
32, 143688, Note_off_c, 0, 97, 0
32, 143715, Note_on_c, 0, 92, 88
32, 143805, Note_off_c, 0, 92, 0
32, 143831, Note_on_c, 0, 97, 88
32, 143921, Note_off_c, 0, 97, 0
32, 143948, Note_on_c, 0, 100, 88
32, 144042, Note_off_c, 0, 100, 0
32, 144071, Note_on_c, 0, 104, 93
32, 144182, Note_off_c, 0, 104, 0
32, 144208, Note_on_c, 0, 100, 88
32, 144298, Note_off_c, 0, 100, 0
32, 144325, Note_on_c, 0, 97, 88
32, 144415, Note_off_c, 0, 97, 0
32, 144442, Note_on_c, 0, 92, 88
32, 144536, Note_off_c, 0, 92, 0
32, 146959, Note_on_c, 0, 88, 91
32, 147055, Note_off_c, 0, 88, 0
32, 147082, Note_on_c, 0, 85, 88
32, 147171, Note_off_c, 0, 85, 0
32, 147198, Note_on_c, 0, 88, 88
32, 147287, Note_off_c, 0, 88, 0
32, 147314, Note_on_c, 0, 92, 88
32, 147408, Note_off_c, 0, 92, 0
32, 147435, Note_on_c, 0, 97, 89
32, 147528, Note_off_c, 0, 97, 0
32, 147555, Note_on_c, 0, 92, 88
32, 147645, Note_off_c, 0, 92, 0
32, 147671, Note_on_c, 0, 97, 88
32, 147761, Note_off_c, 0, 97, 0
32, 147788, Note_on_c, 0, 100, 88
32, 147882, Note_off_c, 0, 100, 0
32, 147911, Note_on_c, 0, 104, 93
32, 148022, Note_off_c, 0, 104, 0
32, 148048, Note_on_c, 0, 100, 88
32, 148138, Note_off_c, 0, 100, 0
32, 148165, Note_on_c, 0, 97, 88
32, 148255, Note_off_c, 0, 97, 0
32, 148282, Note_on_c, 0, 92, 88
32, 148376, Note_off_c, 0, 92, 0
32, 150799, Note_on_c, 0, 88, 91
32, 150895, Note_off_c, 0, 88, 0
32, 150922, Note_on_c, 0, 85, 88
32, 151011, Note_off_c, 0, 85, 0
32, 151038, Note_on_c, 0, 88, 88
32, 151127, Note_off_c, 0, 88, 0
32, 151154, Note_on_c, 0, 92, 88
32, 151248, Note_off_c, 0, 92, 0
32, 151275, Note_on_c, 0, 97, 89
32, 151368, Note_off_c, 0, 97, 0
32, 151395, Note_on_c, 0, 92, 88
32, 151485, Note_off_c, 0, 92, 0
32, 151511, Note_on_c, 0, 97, 88
32, 151601, Note_off_c, 0, 97, 0
32, 151628, Note_on_c, 0, 100, 88
32, 151722, Note_off_c, 0, 100, 0
32, 151751, Note_on_c, 0, 104, 93
32, 151862, Note_off_c, 0, 104, 0
32, 151888, Note_on_c, 0, 100, 88
32, 151978, Note_off_c, 0, 100, 0
32, 152005, Note_on_c, 0, 97, 88
32, 152095, Note_off_c, 0, 97, 0
32, 152122, Note_on_c, 0, 92, 88
32, 152216, Note_off_c, 0, 92, 0
32, 154639, Note_on_c, 0, 76, 91
32, 154735, Note_off_c, 0, 76, 0
32, 154762, Note_on_c, 0, 73, 88
32, 154851, Note_off_c, 0, 73, 0
32, 154878, Note_on_c, 0, 76, 88
32, 154967, Note_off_c, 0, 76, 0
32, 154994, Note_on_c, 0, 80, 88
32, 155088, Note_off_c, 0, 80, 0
32, 155115, Note_on_c, 0, 85, 89
32, 155208, Note_off_c, 0, 85, 0
32, 155235, Note_on_c, 0, 80, 88
32, 155325, Note_off_c, 0, 80, 0
32, 155351, Note_on_c, 0, 85, 88
32, 155441, Note_off_c, 0, 85, 0
32, 155468, Note_on_c, 0, 92, 88
32, 155562, Note_off_c, 0, 92, 0
32, 155591, Note_on_c, 0, 90, 93
32, 155702, Note_off_c, 0, 90, 0
32, 155728, Note_on_c, 0, 87, 88
32, 155818, Note_off_c, 0, 87, 0
32, 155845, Note_on_c, 0, 78, 88
32, 155935, Note_off_c, 0, 78, 0
32, 155962, Note_on_c, 0, 75, 88
32, 156056, Note_off_c, 0, 75, 0
32, 159431, Note_on_c, 0, 92, 101
32, 159882, Note_off_c, 0, 92, 0
32, 159923, Note_on_c, 0, 90, 97
32, 160358, Note_off_c, 0, 90, 0
32, 160399, Note_on_c, 0, 88, 99
32, 161240, Note_off_c, 0, 88, 0
32, 161351, Note_on_c, 0, 87, 100
32, 162279, Note_off_c, 0, 87, 0
32, 162319, Note_on_c, 0, 88, 98
32, 162755, Note_off_c, 0, 88, 0
32, 162795, Note_on_c, 0, 90, 96
32, 163229, Note_off_c, 0, 90, 0
32, 163271, Note_on_c, 0, 90, 100
32, 163723, Note_off_c, 0, 90, 0
32, 163763, Note_on_c, 0, 88, 96
32, 164199, Note_off_c, 0, 88, 0
32, 164239, Note_on_c, 0, 87, 98
32, 165149, Note_off_c, 0, 87, 0
32, 165191, Note_on_c, 0, 87, 100
32, 165643, Note_off_c, 0, 87, 0
32, 165683, Note_on_c, 0, 85, 96
32, 166119, Note_off_c, 0, 85, 0
32, 166159, Note_on_c, 0, 85, 98
32, 168989, Note_off_c, 0, 85, 0
32, 169031, Note_on_c, 0, 85, 97
32, 169483, Note_off_c, 0, 85, 0
32, 169523, Note_on_c, 0, 85, 93
32, 169959, Note_off_c, 0, 85, 0
32, 169999, Note_on_c, 0, 85, 95
32, 170435, Note_off_c, 0, 85, 0
32, 170475, Note_on_c, 0, 85, 93
32, 170909, Note_off_c, 0, 85, 0
32, 170951, Note_on_c, 0, 87, 97
32, 171403, Note_off_c, 0, 87, 0
32, 171443, Note_on_c, 0, 87, 93
32, 171879, Note_off_c, 0, 87, 0
32, 171919, Note_on_c, 0, 87, 95
32, 172355, Note_off_c, 0, 87, 0
32, 172395, Note_on_c, 0, 87, 93
32, 172829, Note_off_c, 0, 87, 0
32, 172871, Note_on_c, 0, 85, 97
32, 173323, Note_off_c, 0, 85, 0
32, 173363, Note_on_c, 0, 87, 93
32, 173799, Note_off_c, 0, 87, 0
32, 173839, Note_on_c, 0, 88, 95
32, 174275, Note_off_c, 0, 88, 0
32, 174315, Note_on_c, 0, 90, 119
32, 174749, Note_off_c, 0, 90, 0
32, 174791, Note_on_c, 0, 92, 118
32, 176669, Note_off_c, 0, 92, 0
32, 180551, Note_on_c, 0, 92, 93
32, 181479, Note_off_c, 0, 92, 0
32, 181519, Note_on_c, 0, 93, 91
32, 181955, Note_off_c, 0, 93, 0
32, 181995, Note_on_c, 0, 95, 89
32, 182429, Note_off_c, 0, 95, 0
32, 182471, Note_on_c, 0, 95, 93
32, 182923, Note_off_c, 0, 95, 0
32, 182963, Note_on_c, 0, 93, 89
32, 183399, Note_off_c, 0, 93, 0
32, 183439, Note_on_c, 0, 92, 91
32, 184349, Note_off_c, 0, 92, 0
32, 188723, Note_on_c, 0, 92, 89
32, 188817, Note_off_c, 0, 92, 0
32, 188844, Note_on_c, 0, 87, 88
32, 188933, Note_off_c, 0, 87, 0
32, 188960, Note_on_c, 0, 83, 88
32, 189049, Note_off_c, 0, 83, 0
32, 189076, Note_on_c, 0, 80, 88
32, 189172, Note_off_c, 0, 80, 0
32, 189675, Note_on_c, 0, 92, 89
32, 189768, Note_off_c, 0, 92, 0
32, 189795, Note_on_c, 0, 87, 88
32, 189885, Note_off_c, 0, 87, 0
32, 189911, Note_on_c, 0, 83, 88
32, 190001, Note_off_c, 0, 83, 0
32, 190028, Note_on_c, 0, 80, 88
32, 190122, Note_off_c, 0, 80, 0
32, 190643, Note_on_c, 0, 92, 89
32, 190737, Note_off_c, 0, 92, 0
32, 190764, Note_on_c, 0, 87, 88
32, 190853, Note_off_c, 0, 87, 0
32, 190880, Note_on_c, 0, 83, 88
32, 190969, Note_off_c, 0, 83, 0
32, 190996, Note_on_c, 0, 80, 88
32, 191092, Note_off_c, 0, 80, 0
32, 191595, Note_on_c, 0, 92, 89
32, 191688, Note_off_c, 0, 92, 0
32, 191715, Note_on_c, 0, 87, 88
32, 191805, Note_off_c, 0, 87, 0
32, 191831, Note_on_c, 0, 83, 88
32, 191921, Note_off_c, 0, 83, 0
32, 191948, Note_on_c, 0, 80, 88
32, 192042, Note_off_c, 0, 80, 0
32, 193039, Note_on_c, 0, 73, 121
32, 193711, Note_off_c, 0, 73, 0
32, 193751, Note_on_c, 0, 73, 106
32, 193826, Note_off_c, 0, 73, 0
32, 193868, Note_on_c, 0, 73, 106
32, 193991, Note_on_c, 0, 78, 107
32, 193996, Note_off_c, 0, 73, 0
32, 195869, Note_off_c, 0, 78, 0
32, 195911, Note_on_c, 0, 92, 93
32, 196839, Note_off_c, 0, 92, 0
32, 196879, Note_on_c, 0, 92, 91
32, 197315, Note_off_c, 0, 92, 0
32, 197355, Note_on_c, 0, 90, 89
32, 197789, Note_off_c, 0, 90, 0
32, 197831, Note_on_c, 0, 92, 93
32, 198283, Note_off_c, 0, 92, 0
32, 198323, Note_on_c, 0, 90, 89
32, 198759, Note_off_c, 0, 90, 0
32, 198799, Note_on_c, 0, 88, 91
32, 199709, Note_off_c, 0, 88, 0
32, 199751, Note_on_c, 0, 78, 93
32, 199965, Note_off_c, 0, 78, 0
32, 200005, Note_on_c, 0, 80, 88
32, 200203, Note_off_c, 0, 80, 0
32, 200243, Note_on_c, 0, 82, 89
32, 200440, Note_off_c, 0, 82, 0
32, 200480, Note_on_c, 0, 83, 88
32, 200679, Note_off_c, 0, 83, 0
32, 200719, Note_on_c, 0, 85, 91
32, 200918, Note_off_c, 0, 85, 0
32, 200958, Note_on_c, 0, 83, 88
32, 201155, Note_off_c, 0, 83, 0
32, 201195, Note_on_c, 0, 85, 89
32, 201391, Note_off_c, 0, 85, 0
32, 201431, Note_on_c, 0, 87, 88
32, 201629, Note_off_c, 0, 87, 0
32, 201671, Note_on_c, 0, 88, 93
32, 201885, Note_off_c, 0, 88, 0
32, 201925, Note_on_c, 0, 87, 88
32, 202123, Note_off_c, 0, 87, 0
32, 202163, Note_on_c, 0, 88, 89
32, 202360, Note_off_c, 0, 88, 0
32, 202400, Note_on_c, 0, 90, 88
32, 202599, Note_off_c, 0, 90, 0
32, 202639, Note_on_c, 0, 92, 91
32, 202838, Note_off_c, 0, 92, 0
32, 202878, Note_on_c, 0, 94, 88
32, 203075, Note_off_c, 0, 94, 0
32, 203115, Note_on_c, 0, 95, 89
32, 203311, Note_off_c, 0, 95, 0
32, 203351, Note_on_c, 0, 96, 88
32, 203549, Note_off_c, 0, 96, 0
32, 205511, Note_on_c, 0, 87, 100
32, 205963, Note_off_c, 0, 87, 0
32, 206003, Note_on_c, 0, 85, 96
32, 206439, Note_off_c, 0, 85, 0
32, 206479, Note_on_c, 0, 83, 98
32, 206915, Note_off_c, 0, 83, 0
32, 206955, Note_on_c, 0, 81, 96
32, 207389, Note_off_c, 0, 81, 0
32, 207431, Note_on_c, 0, 80, 100
32, 208359, Note_off_c, 0, 80, 0
32, 208399, Note_on_c, 0, 80, 98
32, 208835, Note_off_c, 0, 80, 0
32, 208875, Note_on_c, 0, 81, 96
32, 209309, Note_off_c, 0, 81, 0
32, 209351, Note_on_c, 0, 80, 100
32, 209803, Note_off_c, 0, 80, 0
32, 209843, Note_on_c, 0, 78, 96
32, 210279, Note_off_c, 0, 78, 0
32, 210319, Note_on_c, 0, 76, 98
32, 211229, Note_off_c, 0, 76, 0
32, 211271, Note_on_c, 0, 83, 100
32, 212199, Note_off_c, 0, 83, 0
32, 212239, Note_on_c, 0, 83, 98
32, 212675, Note_off_c, 0, 83, 0
32, 212715, Note_on_c, 0, 85, 96
32, 213149, Note_off_c, 0, 85, 0
32, 213191, Note_on_c, 0, 83, 100
32, 214119, Note_off_c, 0, 83, 0
32, 214159, Note_on_c, 0, 81, 98
32, 214595, Note_off_c, 0, 81, 0
32, 214635, Note_on_c, 0, 80, 96
32, 215069, Note_off_c, 0, 80, 0
32, 215111, Note_on_c, 0, 81, 100
32, 216039, Note_off_c, 0, 81, 0
32, 216079, Note_on_c, 0, 78, 98
32, 216515, Note_off_c, 0, 78, 0
32, 216555, Note_on_c, 0, 80, 96
32, 216989, Note_off_c, 0, 80, 0
32, 217031, Note_on_c, 0, 81, 100
32, 217959, Note_off_c, 0, 81, 0
32, 217999, Note_on_c, 0, 80, 98
32, 218435, Note_off_c, 0, 80, 0
32, 218475, Note_on_c, 0, 78, 96
32, 218909, Note_off_c, 0, 78, 0
32, 218951, Note_on_c, 0, 78, 100
32, 219403, Note_off_c, 0, 78, 0
32, 219443, Note_on_c, 0, 76, 96
32, 219879, Note_off_c, 0, 76, 0
32, 219919, Note_on_c, 0, 80, 98
32, 222749, Note_off_c, 0, 80, 0
32, 222791, Note_on_c, 0, 92, 101
32, 223719, Note_off_c, 0, 92, 0
32, 223759, Note_on_c, 0, 92, 99
32, 224195, Note_off_c, 0, 92, 0
32, 224235, Note_on_c, 0, 93, 97
32, 224669, Note_off_c, 0, 93, 0
32, 224711, Note_on_c, 0, 92, 101
32, 225163, Note_off_c, 0, 92, 0
32, 225203, Note_on_c, 0, 90, 97
32, 225639, Note_off_c, 0, 90, 0
32, 225679, Note_on_c, 0, 88, 99
32, 226589, Note_off_c, 0, 88, 0
32, 226631, Note_on_c, 0, 95, 101
32, 227559, Note_off_c, 0, 95, 0
32, 227599, Note_on_c, 0, 95, 99
32, 228035, Note_off_c, 0, 95, 0
32, 228075, Note_on_c, 0, 97, 97
32, 228509, Note_off_c, 0, 97, 0
32, 228551, Note_on_c, 0, 95, 101
32, 229479, Note_off_c, 0, 95, 0
32, 229519, Note_on_c, 0, 93, 99
32, 229955, Note_off_c, 0, 93, 0
32, 229995, Note_on_c, 0, 92, 97
32, 230429, Note_off_c, 0, 92, 0
32, 230471, Note_on_c, 0, 93, 101
32, 231399, Note_off_c, 0, 93, 0
32, 231439, Note_on_c, 0, 90, 99
32, 231875, Note_off_c, 0, 90, 0
32, 231915, Note_on_c, 0, 92, 97
32, 232349, Note_off_c, 0, 92, 0
32, 232391, Note_on_c, 0, 93, 101
32, 233319, Note_off_c, 0, 93, 0
32, 233359, Note_on_c, 0, 90, 99
32, 234269, Note_off_c, 0, 90, 0
32, 234311, Note_on_c, 0, 88, 96
32, 236188, Note_off_c, 0, 88, 0
32, 236231, Note_on_c, 0, 93, 101
32, 236682, Note_off_c, 0, 93, 0
32, 236723, Note_on_c, 0, 92, 97
32, 237158, Note_off_c, 0, 92, 0
32, 237199, Note_on_c, 0, 90, 99
32, 237633, Note_off_c, 0, 90, 0
32, 237675, Note_on_c, 0, 88, 97
32, 238108, Note_off_c, 0, 88, 0
32, 238151, Note_on_c, 0, 91, 101
32, 239078, Note_off_c, 0, 91, 0
32, 239119, Note_on_c, 0, 88, 91
32, 241869, Note_off_c, 0, 88, 0
32, 242483, Note_on_c, 0, 91, 102
32, 243393, Note_off_c, 0, 91, 0
32, 243435, Note_on_c, 0, 93, 102
32, 243868, Note_off_c, 0, 93, 0
32, 243911, Note_on_c, 0, 96, 106
32, 244362, Note_off_c, 0, 96, 0
32, 244403, Note_on_c, 0, 94, 102
32, 244838, Note_off_c, 0, 94, 0
32, 244879, Note_on_c, 0, 93, 104
32, 245313, Note_off_c, 0, 93, 0
32, 245355, Note_on_c, 0, 91, 102
32, 245788, Note_off_c, 0, 91, 0
32, 245831, Note_on_c, 0, 94, 106
32, 246758, Note_off_c, 0, 94, 0
32, 246799, Note_on_c, 0, 91, 104
32, 248678, Note_off_c, 0, 91, 0
32, 248719, Note_on_c, 0, 96, 104
32, 249628, Note_off_c, 0, 96, 0
32, 249671, Note_on_c, 0, 95, 91
32, 252518, Note_off_c, 0, 95, 0
32, 252559, Note_on_c, 0, 96, 104
32, 253468, Note_off_c, 0, 96, 0
32, 253511, Note_on_c, 0, 95, 91
32, 256358, Note_off_c, 0, 95, 0
32, 256399, Note_on_c, 0, 96, 104
32, 257308, Note_off_c, 0, 96, 0
32, 257351, Note_on_c, 0, 71, 106
32, 257564, Note_off_c, 0, 71, 0
32, 257605, Note_on_c, 0, 71, 101
32, 257695, Note_off_c, 0, 71, 0
32, 257722, Note_on_c, 0, 72, 101
32, 257816, Note_off_c, 0, 72, 0
32, 257843, Note_on_c, 0, 74, 102
32, 257937, Note_off_c, 0, 74, 0
32, 257964, Note_on_c, 0, 76, 101
32, 258053, Note_off_c, 0, 76, 0
32, 258080, Note_on_c, 0, 77, 101
32, 258169, Note_off_c, 0, 77, 0
32, 258196, Note_on_c, 0, 79, 101
32, 258292, Note_off_c, 0, 79, 0
32, 258319, Note_on_c, 0, 81, 104
32, 258415, Note_off_c, 0, 81, 0
32, 258442, Note_on_c, 0, 78, 101
32, 258531, Note_off_c, 0, 78, 0
32, 258558, Note_on_c, 0, 79, 101
32, 258647, Note_off_c, 0, 79, 0
32, 258674, Note_on_c, 0, 81, 101
32, 258768, Note_off_c, 0, 81, 0
32, 258795, Note_on_c, 0, 83, 102
32, 258888, Note_off_c, 0, 83, 0
32, 258915, Note_on_c, 0, 84, 101
32, 259005, Note_off_c, 0, 84, 0
32, 259031, Note_on_c, 0, 86, 101
32, 259121, Note_off_c, 0, 86, 0
32, 259148, Note_on_c, 0, 88, 101
32, 259242, Note_off_c, 0, 88, 0
32, 259269, Note_on_c, 0, 89, 106
32, 259448, Note_on_c, 0, 90, 101
32, 259469, Note_off_c, 0, 89, 0
32, 259599, Note_on_c, 0, 89, 101
32, 259617, Note_off_c, 0, 90, 0
32, 259723, Note_on_c, 0, 90, 101
32, 259737, Note_off_c, 0, 89, 0
32, 259818, Note_on_c, 0, 89, 101
32, 259830, Note_off_c, 0, 90, 0
32, 259916, Note_on_c, 0, 90, 101
32, 259927, Note_off_c, 0, 89, 0
32, 260013, Note_on_c, 0, 89, 101
32, 260025, Note_off_c, 0, 90, 0
32, 260111, Note_on_c, 0, 90, 101
32, 260122, Note_off_c, 0, 89, 0
32, 260208, Note_on_c, 0, 89, 101
32, 260220, Note_off_c, 0, 90, 0
32, 260306, Note_on_c, 0, 90, 101
32, 260317, Note_off_c, 0, 89, 0
32, 260403, Note_on_c, 0, 89, 101
32, 260415, Note_off_c, 0, 90, 0
32, 260501, Note_on_c, 0, 90, 101
32, 260512, Note_off_c, 0, 89, 0
32, 260598, Note_on_c, 0, 89, 101
32, 260610, Note_off_c, 0, 90, 0
32, 260696, Note_on_c, 0, 90, 101
32, 260707, Note_off_c, 0, 89, 0
32, 260793, Note_on_c, 0, 89, 101
32, 260805, Note_off_c, 0, 90, 0
32, 260891, Note_on_c, 0, 90, 101
32, 260902, Note_off_c, 0, 89, 0
32, 260988, Note_on_c, 0, 89, 101
32, 261000, Note_off_c, 0, 90, 0
32, 261086, Note_on_c, 0, 90, 101
32, 261097, Note_off_c, 0, 89, 0
32, 261191, Note_on_c, 0, 91, 127
32, 261201, Note_off_c, 0, 90, 0
32, 261443, Note_off_c, 0, 91, 0
32, 261683, Note_on_c, 0, 79, 125
32, 261792, Note_off_c, 0, 79, 0
32, 261843, Note_on_c, 0, 79, 124
32, 261946, Note_off_c, 0, 79, 0
32, 261997, Note_on_c, 0, 79, 124
32, 262108, Note_off_c, 0, 79, 0
32, 262159, Note_on_c, 0, 79, 127
32, 262593, Note_off_c, 0, 79, 0
32, 262593, End_track
33, 0, Start_track
33, 0, Title_t, "Solo Violin"
33, 0, Instrument_name_t, "Violin Chamber"
33, 0, Program_c, 1, 40
33, 84480, Note_on_c, 1, 81, 81
33, 85200, Note_off_c, 1, 81, 0
33, 85200, Note_on_c, 1, 81, 76
33, 85920, Note_off_c, 1, 81, 0
33, 85920, Note_on_c, 1, 81, 79
33, 86400, Note_off_c, 1, 81, 0
33, 86400, Note_on_c, 1, 81, 80
33, 88320, Note_off_c, 1, 81, 0
33, 88320, Note_on_c, 1, 79, 79
33, 89040, Note_off_c, 1, 79, 0
33, 89040, Note_on_c, 1, 77, 74
33, 89760, Note_off_c, 1, 77, 0
33, 89760, Note_on_c, 1, 79, 79
33, 90240, Note_off_c, 1, 79, 0
33, 90240, Note_on_c, 1, 74, 74
33, 92160, Note_off_c, 1, 74, 0
33, 92160, Note_on_c, 1, 83, 85
33, 92880, Note_off_c, 1, 83, 0
33, 92880, Note_on_c, 1, 83, 79
33, 93600, Note_off_c, 1, 83, 0
33, 93600, Note_on_c, 1, 83, 80
33, 94080, Note_off_c, 1, 83, 0
33, 94080, Note_on_c, 1, 83, 81
33, 94800, Note_off_c, 1, 83, 0
33, 94800, Note_on_c, 1, 79, 71
33, 95520, Note_off_c, 1, 79, 0
33, 95520, Note_on_c, 1, 76, 70
33, 96000, Note_off_c, 1, 76, 0
33, 96000, Note_on_c, 1, 74, 73
33, 96960, Note_off_c, 1, 74, 0
33, 96960, Note_on_c, 1, 72, 69
33, 98160, Note_off_c, 1, 72, 0
33, 98400, Note_on_c, 1, 72, 74
33, 98880, Note_off_c, 1, 72, 0
33, 98880, Note_on_c, 1, 71, 74
33, 99360, Note_off_c, 1, 71, 0
33, 99360, Note_on_c, 1, 72, 76
33, 99840, Note_off_c, 1, 72, 0
33, 99840, Note_on_c, 1, 69, 76
33, 101280, Note_off_c, 1, 69, 0
33, 101280, Note_on_c, 1, 81, 87
33, 101760, Note_off_c, 1, 81, 0
33, 101760, Note_on_c, 1, 81, 88
33, 102720, Note_off_c, 1, 81, 0
33, 102720, Note_on_c, 1, 76, 76
33, 103200, Note_off_c, 1, 76, 0
33, 103200, Note_on_c, 1, 75, 74
33, 105120, Note_off_c, 1, 75, 0
33, 105120, Note_on_c, 1, 78, 77
33, 106080, Note_off_c, 1, 78, 0
33, 106080, Note_on_c, 1, 84, 81
33, 106560, Note_off_c, 1, 84, 0
33, 106560, Note_on_c, 1, 83, 79
33, 107040, Note_off_c, 1, 83, 0
33, 107040, Note_on_c, 1, 81, 75
33, 107520, Note_off_c, 1, 81, 0
33, 107520, Note_on_c, 1, 81, 79
33, 109680, Note_off_c, 1, 81, 0
33, 109920, Note_on_c, 1, 80, 75
33, 110400, Note_off_c, 1, 80, 0
33, 110400, Note_on_c, 1, 81, 77
33, 110880, Note_off_c, 1, 81, 0
33, 110880, Note_on_c, 1, 83, 79
33, 111360, Note_off_c, 1, 83, 0
33, 111360, End_track
34, 0, Start_track
34, 0, Title_t, "bass harmonics"
34, 0, Instrument_name_t, "Bass Harmonics"
34, 0, Program_c, 2, 27
34, 23760, Note_on_c, 2, 55, 76
34, 23760, Note_on_c, 2, 60, 76
34, 23760, Note_on_c, 2, 64, 76
34, 24000, Note_off_c, 2, 55, 0
34, 24000, Note_off_c, 2, 60, 0
34, 24000, Note_off_c, 2, 64, 0
34, 24480, Note_on_c, 2, 55, 76
34, 24480, Note_on_c, 2, 60, 76
34, 24480, Note_on_c, 2, 64, 76
34, 24720, Note_off_c, 2, 55, 0
34, 24720, Note_off_c, 2, 60, 0
34, 24720, Note_off_c, 2, 64, 0
34, 24960, Note_on_c, 2, 57, 81
34, 24960, Note_on_c, 2, 62, 81
34, 24960, Note_on_c, 2, 66, 81
34, 26400, Note_off_c, 2, 62, 0
34, 26400, Note_off_c, 2, 57, 0
34, 26400, Note_off_c, 2, 66, 0
34, 26400, Note_on_c, 2, 57, 77
34, 26400, Note_on_c, 2, 62, 77
34, 26400, Note_on_c, 2, 66, 77
34, 26640, Note_off_c, 2, 57, 0
34, 26640, Note_off_c, 2, 62, 0
34, 26640, Note_off_c, 2, 66, 0
34, 27600, Note_on_c, 2, 55, 75
34, 27600, Note_on_c, 2, 60, 75
34, 27600, Note_on_c, 2, 64, 75
34, 27840, Note_off_c, 2, 55, 0
34, 27840, Note_off_c, 2, 60, 0
34, 27840, Note_off_c, 2, 64, 0
34, 28320, Note_on_c, 2, 64, 75
34, 28320, Note_on_c, 2, 60, 75
34, 28320, Note_on_c, 2, 55, 75
34, 28560, Note_off_c, 2, 60, 0
34, 28560, Note_off_c, 2, 64, 0
34, 28560, Note_off_c, 2, 55, 0
34, 28800, Note_on_c, 2, 57, 81
34, 28800, Note_on_c, 2, 62, 81
34, 28800, Note_on_c, 2, 66, 81
34, 30240, Note_on_c, 2, 66, 77
34, 30240, Note_off_c, 2, 57, 0
34, 30240, Note_off_c, 2, 62, 0
34, 30240, Note_off_c, 2, 66, 0
34, 30240, Note_on_c, 2, 57, 77
34, 30240, Note_on_c, 2, 62, 77
34, 30480, Note_off_c, 2, 57, 0
34, 30480, Note_off_c, 2, 66, 0
34, 30480, Note_off_c, 2, 62, 0
34, 31440, Note_on_c, 2, 60, 75
34, 31440, Note_on_c, 2, 64, 75
34, 31440, Note_on_c, 2, 55, 75
34, 31680, Note_off_c, 2, 55, 0
34, 31680, Note_off_c, 2, 60, 0
34, 31680, Note_off_c, 2, 64, 0
34, 32160, Note_on_c, 2, 55, 75
34, 32160, Note_on_c, 2, 60, 75
34, 32160, Note_on_c, 2, 64, 75
34, 32236, Note_on_c, 2, 66, 81
34, 32400, Note_off_c, 2, 55, 0
34, 32400, Note_off_c, 2, 60, 0
34, 32400, Note_off_c, 2, 64, 0
34, 32500, Note_off_c, 2, 66, 0
34, 32640, Note_on_c, 2, 62, 81
34, 32640, Note_on_c, 2, 57, 81
34, 34080, Note_off_c, 2, 57, 0
34, 34080, Note_off_c, 2, 62, 0
34, 34080, Note_on_c, 2, 57, 77
34, 34080, Note_on_c, 2, 62, 77
34, 34080, Note_on_c, 2, 66, 77
34, 34088, Note_off_c, 2, 66, 0
34, 34320, Note_off_c, 2, 57, 0
34, 34320, Note_off_c, 2, 62, 0
34, 34560, Note_on_c, 2, 57, 79
34, 34560, Note_on_c, 2, 60, 79
34, 34560, Note_on_c, 2, 64, 79
34, 34800, Note_off_c, 2, 60, 0
34, 34800, Note_off_c, 2, 64, 0
34, 34800, Note_off_c, 2, 57, 0
34, 35280, Note_on_c, 2, 57, 75
34, 35280, Note_on_c, 2, 60, 75
34, 35280, Note_on_c, 2, 64, 75
34, 35520, Note_off_c, 2, 57, 0
34, 35520, Note_off_c, 2, 60, 0
34, 35520, Note_off_c, 2, 64, 0
34, 36000, Note_on_c, 2, 57, 75
34, 36000, Note_on_c, 2, 60, 75
34, 36000, Note_on_c, 2, 64, 75
34, 36480, Note_on_c, 2, 59, 76
34, 36480, Note_off_c, 2, 57, 0
34, 36480, Note_off_c, 2, 60, 0
34, 36480, Note_on_c, 2, 62, 76
34, 36480, Note_on_c, 2, 55, 76
34, 36480, Note_off_c, 2, 64, 0
34, 36720, Note_off_c, 2, 55, 0
34, 36720, Note_off_c, 2, 62, 0
34, 36720, Note_off_c, 2, 59, 0
34, 39120, Note_on_c, 2, 55, 77
34, 39120, Note_on_c, 2, 60, 77
34, 39120, Note_on_c, 2, 64, 77
34, 39360, Note_off_c, 2, 55, 0
34, 39360, Note_off_c, 2, 60, 0
34, 39360, Note_off_c, 2, 64, 0
34, 39840, Note_on_c, 2, 55, 76
34, 39840, Note_on_c, 2, 60, 76
34, 39840, Note_on_c, 2, 64, 76
34, 40080, Note_off_c, 2, 60, 0
34, 40080, Note_off_c, 2, 55, 0
34, 40080, Note_off_c, 2, 64, 0
34, 40320, Note_on_c, 2, 57, 81
34, 40320, Note_on_c, 2, 62, 81
34, 40320, Note_on_c, 2, 66, 81
34, 41760, Note_off_c, 2, 57, 0
34, 41760, Note_off_c, 2, 62, 0
34, 41760, Note_off_c, 2, 66, 0
34, 41760, Note_on_c, 2, 57, 77
34, 41760, Note_on_c, 2, 62, 77
34, 41760, Note_on_c, 2, 66, 77
34, 42000, Note_off_c, 2, 57, 0
34, 42000, Note_off_c, 2, 62, 0
34, 42000, Note_off_c, 2, 66, 0
34, 42240, Note_on_c, 2, 64, 79
34, 42240, Note_on_c, 2, 60, 79
34, 42240, Note_on_c, 2, 57, 79
34, 42480, Note_off_c, 2, 60, 0
34, 42480, Note_off_c, 2, 64, 0
34, 42480, Note_off_c, 2, 57, 0
34, 42960, Note_on_c, 2, 64, 75
34, 42960, Note_on_c, 2, 55, 76
34, 42960, Note_on_c, 2, 57, 76
34, 42960, Note_on_c, 2, 60, 75
34, 42960, Note_on_c, 2, 60, 75
34, 42960, Note_on_c, 2, 64, 75
34, 42968, Note_off_c, 2, 60, 0
34, 42968, Note_off_c, 2, 64, 0
34, 43080, Note_off_c, 2, 60, 0
34, 43080, Note_off_c, 2, 64, 0
34, 43200, Note_off_c, 2, 55, 0
34, 43200, Note_off_c, 2, 57, 0
34, 43680, Note_on_c, 2, 55, 76
34, 43680, Note_on_c, 2, 60, 76
34, 43680, Note_on_c, 2, 64, 76
34, 43920, Note_off_c, 2, 55, 0
34, 43920, Note_off_c, 2, 60, 0
34, 43920, Note_off_c, 2, 64, 0
34, 44160, Note_on_c, 2, 57, 81
34, 44160, Note_on_c, 2, 62, 81
34, 44160, Note_on_c, 2, 66, 81
34, 45600, Note_off_c, 2, 57, 0
34, 45600, Note_off_c, 2, 62, 0
34, 45600, Note_off_c, 2, 66, 0
34, 45600, Note_on_c, 2, 57, 77
34, 45600, Note_on_c, 2, 62, 77
34, 45600, Note_on_c, 2, 66, 77
34, 45608, Note_off_c, 2, 66, 0
34, 45840, Note_off_c, 2, 62, 0
34, 45840, Note_off_c, 2, 57, 0
34, 46800, Note_on_c, 2, 57, 75
34, 46800, Note_on_c, 2, 60, 75
34, 46800, Note_on_c, 2, 64, 75
34, 47040, Note_off_c, 2, 57, 0
34, 47040, Note_off_c, 2, 60, 0
34, 47040, Note_off_c, 2, 64, 0
34, 47520, Note_on_c, 2, 57, 76
34, 47520, Note_on_c, 2, 60, 76
34, 47520, Note_on_c, 2, 64, 76
34, 47760, Note_off_c, 2, 57, 0
34, 47760, Note_off_c, 2, 64, 0
34, 47760, Note_off_c, 2, 60, 0
34, 48000, Note_on_c, 2, 57, 79
34, 48000, Note_on_c, 2, 60, 79
34, 48000, Note_on_c, 2, 64, 79
34, 49440, Note_off_c, 2, 57, 0
34, 49440, Note_off_c, 2, 60, 0
34, 49440, Note_off_c, 2, 64, 0
34, 49440, Note_on_c, 2, 57, 83
34, 49440, Note_on_c, 2, 60, 83
34, 49440, Note_on_c, 2, 64, 83
34, 49680, Note_off_c, 2, 57, 0
34, 49680, Note_off_c, 2, 60, 0
34, 49680, Note_off_c, 2, 64, 0
34, 49920, Note_on_c, 2, 62, 90
34, 49920, Note_on_c, 2, 69, 90
34, 49920, Note_on_c, 2, 66, 90
34, 51840, Note_off_c, 2, 62, 0
34, 51840, Note_off_c, 2, 69, 0
34, 51840, Note_on_c, 2, 59, 80
34, 51840, Note_on_c, 2, 64, 80
34, 51840, Note_on_c, 2, 68, 80
34, 51840, Note_off_c, 2, 66, 0
34, 53760, Note_off_c, 2, 59, 0
34, 53760, Note_off_c, 2, 64, 0
34, 53760, Note_off_c, 2, 68, 0
34, 54480, Note_on_c, 2, 67, 78
34, 54480, Note_on_c, 2, 72, 78
34, 54480, Note_on_c, 2, 76, 78
34, 54720, Note_off_c, 2, 67, 0
34, 54720, Note_off_c, 2, 72, 0
34, 54720, Note_off_c, 2, 76, 0
34, 55200, Note_on_c, 2, 67, 77
34, 55200, Note_on_c, 2, 72, 77
34, 55200, Note_on_c, 2, 76, 77
34, 55440, Note_off_c, 2, 76, 0
34, 55440, Note_off_c, 2, 72, 0
34, 55440, Note_off_c, 2, 67, 0
34, 55680, Note_on_c, 2, 69, 82
34, 55680, Note_on_c, 2, 74, 82
34, 55680, Note_on_c, 2, 78, 82
34, 57120, Note_off_c, 2, 69, 0
34, 57120, Note_off_c, 2, 74, 0
34, 57120, Note_off_c, 2, 78, 0
34, 57120, Note_on_c, 2, 69, 77
34, 57120, Note_on_c, 2, 74, 77
34, 57120, Note_on_c, 2, 78, 77
34, 57360, Note_off_c, 2, 69, 0
34, 57360, Note_off_c, 2, 78, 0
34, 57360, Note_off_c, 2, 74, 0
34, 58320, Note_on_c, 2, 67, 75
34, 58320, Note_on_c, 2, 72, 75
34, 58320, Note_on_c, 2, 76, 75
34, 58560, Note_off_c, 2, 67, 0
34, 58560, Note_off_c, 2, 72, 0
34, 58560, Note_off_c, 2, 76, 0
34, 59040, Note_on_c, 2, 67, 75
34, 59040, Note_on_c, 2, 72, 75
34, 59040, Note_on_c, 2, 76, 75
34, 59280, Note_off_c, 2, 67, 0
34, 59280, Note_off_c, 2, 72, 0
34, 59280, Note_off_c, 2, 76, 0
34, 59520, Note_on_c, 2, 78, 81
34, 59520, Note_on_c, 2, 74, 81
34, 59520, Note_on_c, 2, 69, 81
34, 60960, Note_off_c, 2, 69, 0
34, 60960, Note_off_c, 2, 78, 0
34, 60960, Note_on_c, 2, 69, 77
34, 60960, Note_on_c, 2, 74, 77
34, 60960, Note_on_c, 2, 78, 77
34, 60960, Note_off_c, 2, 74, 0
34, 61200, Note_off_c, 2, 69, 0
34, 61200, Note_off_c, 2, 74, 0
34, 61200, Note_off_c, 2, 78, 0
34, 62160, Note_on_c, 2, 67, 75
34, 62160, Note_on_c, 2, 72, 75
34, 62160, Note_on_c, 2, 76, 75
34, 62400, Note_off_c, 2, 67, 0
34, 62400, Note_off_c, 2, 72, 0
34, 62400, Note_off_c, 2, 76, 0
34, 62880, Note_on_c, 2, 67, 75
34, 62880, Note_on_c, 2, 72, 75
34, 62880, Note_on_c, 2, 76, 75
34, 63120, Note_off_c, 2, 67, 0
34, 63120, Note_off_c, 2, 72, 0
34, 63120, Note_off_c, 2, 76, 0
34, 63360, Note_on_c, 2, 69, 81
34, 63360, Note_on_c, 2, 74, 81
34, 63360, Note_on_c, 2, 78, 81
34, 64800, Note_off_c, 2, 69, 0
34, 64800, Note_off_c, 2, 74, 0
34, 64800, Note_off_c, 2, 78, 0
34, 64800, Note_on_c, 2, 69, 77
34, 64800, Note_on_c, 2, 74, 77
34, 64800, Note_on_c, 2, 78, 77
34, 65040, Note_off_c, 2, 78, 0
34, 65040, Note_off_c, 2, 74, 0
34, 65040, Note_off_c, 2, 69, 0
34, 65280, Note_on_c, 2, 69, 79
34, 65280, Note_on_c, 2, 72, 79
34, 65280, Note_on_c, 2, 76, 79
34, 65520, Note_off_c, 2, 69, 0
34, 65520, Note_off_c, 2, 72, 0
34, 65520, Note_off_c, 2, 76, 0
34, 66000, Note_on_c, 2, 69, 75
34, 66000, Note_on_c, 2, 72, 75
34, 66000, Note_on_c, 2, 76, 75
34, 66240, Note_off_c, 2, 69, 0
34, 66240, Note_off_c, 2, 72, 0
34, 66240, Note_off_c, 2, 76, 0
34, 66720, Note_on_c, 2, 72, 75
34, 66720, Note_on_c, 2, 76, 75
34, 66720, Note_on_c, 2, 69, 75
34, 67200, Note_off_c, 2, 69, 0
34, 67200, Note_off_c, 2, 72, 0
34, 67200, Note_off_c, 2, 76, 0
34, 67200, Note_on_c, 2, 67, 76
34, 67200, Note_on_c, 2, 71, 76
34, 67200, Note_on_c, 2, 74, 76
34, 67440, Note_off_c, 2, 67, 0
34, 67440, Note_off_c, 2, 71, 0
34, 67440, Note_off_c, 2, 74, 0
34, 69840, Note_on_c, 2, 67, 77
34, 69840, Note_on_c, 2, 72, 77
34, 69840, Note_on_c, 2, 76, 77
34, 70080, Note_off_c, 2, 67, 0
34, 70080, Note_off_c, 2, 72, 0
34, 70080, Note_off_c, 2, 76, 0
34, 70560, Note_on_c, 2, 76, 76
34, 70560, Note_on_c, 2, 72, 76
34, 70560, Note_on_c, 2, 67, 76
34, 70800, Note_off_c, 2, 72, 0
34, 70800, Note_off_c, 2, 67, 0
34, 70800, Note_off_c, 2, 76, 0
34, 71040, Note_on_c, 2, 69, 81
34, 71040, Note_on_c, 2, 74, 81
34, 71040, Note_on_c, 2, 78, 81
34, 72480, Note_off_c, 2, 69, 0
34, 72480, Note_off_c, 2, 74, 0
34, 72480, Note_off_c, 2, 78, 0
34, 72480, Note_on_c, 2, 69, 77
34, 72480, Note_on_c, 2, 74, 77
34, 72480, Note_on_c, 2, 78, 77
34, 72720, Note_off_c, 2, 74, 0
34, 72720, Note_off_c, 2, 78, 0
34, 72720, Note_off_c, 2, 69, 0
34, 72960, Note_on_c, 2, 69, 79
34, 72960, Note_on_c, 2, 72, 79
34, 72960, Note_on_c, 2, 76, 79
34, 73200, Note_off_c, 2, 69, 0
34, 73200, Note_off_c, 2, 72, 0
34, 73200, Note_off_c, 2, 76, 0
34, 73680, Note_on_c, 2, 76, 75
34, 73680, Note_on_c, 2, 67, 76
34, 73680, Note_on_c, 2, 69, 76
34, 73680, Note_on_c, 2, 72, 75
34, 73680, Note_on_c, 2, 72, 75
34, 73680, Note_on_c, 2, 76, 75
34, 73688, Note_off_c, 2, 72, 0
34, 73688, Note_off_c, 2, 76, 0
34, 73800, Note_off_c, 2, 76, 0
34, 73800, Note_off_c, 2, 72, 0
34, 73920, Note_off_c, 2, 67, 0
34, 73920, Note_off_c, 2, 69, 0
34, 74400, Note_on_c, 2, 72, 76
34, 74400, Note_on_c, 2, 76, 76
34, 74400, Note_on_c, 2, 67, 76
34, 74640, Note_off_c, 2, 67, 0
34, 74640, Note_off_c, 2, 72, 0
34, 74640, Note_off_c, 2, 76, 0
34, 74880, Note_on_c, 2, 69, 81
34, 74880, Note_on_c, 2, 74, 81
34, 74880, Note_on_c, 2, 78, 81
34, 76320, Note_on_c, 2, 78, 77
34, 76320, Note_off_c, 2, 69, 0
34, 76320, Note_off_c, 2, 74, 0
34, 76320, Note_off_c, 2, 78, 0
34, 76320, Note_on_c, 2, 69, 77
34, 76320, Note_on_c, 2, 74, 77
34, 76560, Note_off_c, 2, 74, 0
34, 76560, Note_off_c, 2, 69, 0
34, 76560, Note_off_c, 2, 78, 0
34, 77520, Note_on_c, 2, 69, 75
34, 77520, Note_on_c, 2, 72, 75
34, 77520, Note_on_c, 2, 76, 75
34, 77760, Note_off_c, 2, 69, 0
34, 77760, Note_off_c, 2, 72, 0
34, 77760, Note_off_c, 2, 76, 0
34, 78240, Note_on_c, 2, 69, 76
34, 78240, Note_on_c, 2, 76, 76
34, 78240, Note_on_c, 2, 72, 76
34, 78480, Note_off_c, 2, 72, 0
34, 78480, Note_off_c, 2, 69, 0
34, 78480, Note_off_c, 2, 76, 0
34, 78720, Note_on_c, 2, 69, 79
34, 78720, Note_on_c, 2, 72, 79
34, 78720, Note_on_c, 2, 76, 79
34, 80160, Note_off_c, 2, 69, 0
34, 80160, Note_off_c, 2, 72, 0
34, 80160, Note_off_c, 2, 76, 0
34, 80160, Note_on_c, 2, 69, 76
34, 80160, Note_on_c, 2, 72, 76
34, 80160, Note_on_c, 2, 76, 76
34, 80400, Note_off_c, 2, 76, 0
34, 80400, Note_off_c, 2, 72, 0
34, 80400, Note_off_c, 2, 69, 0
34, 80640, Note_on_c, 2, 81, 87
34, 80640, Note_on_c, 2, 69, 87
34, 81600, Note_off_c, 2, 69, 0
34, 81600, Note_off_c, 2, 81, 0
34, 81600, Note_on_c, 2, 74, 84
34, 81600, Note_on_c, 2, 86, 84
34, 82560, Note_off_c, 2, 74, 0
34, 82560, Note_off_c, 2, 86, 0
34, 82560, Note_on_c, 2, 71, 80
34, 82560, Note_on_c, 2, 83, 80
34, 84480, Note_off_c, 2, 71, 0
34, 84480, Note_off_c, 2, 83, 0
34, 84480, Note_on_c, 2, 57, 75
34, 88320, Note_on_c, 2, 59, 81
34, 88320, Note_off_c, 2, 57, 0
34, 92160, Note_off_c, 2, 59, 0
34, 92160, Note_on_c, 2, 62, 81
34, 96000, Note_off_c, 2, 62, 0
34, 96000, Note_on_c, 2, 55, 80
34, 99840, Note_off_c, 2, 55, 0
34, 99840, Note_on_c, 2, 52, 81
34, 103680, Note_off_c, 2, 52, 0
34, 103680, Note_on_c, 2, 51, 81
34, 107520, Note_off_c, 2, 51, 0
34, 107520, Note_on_c, 2, 54, 81
34, 107520, Note_on_c, 2, 62, 81
34, 107520, Note_on_c, 2, 66, 81
34, 108000, Note_off_c, 2, 66, 0
34, 108000, Note_off_c, 2, 62, 0
34, 108480, Note_on_c, 2, 62, 76
34, 108480, Note_on_c, 2, 66, 76
34, 108960, Note_off_c, 2, 62, 0
34, 108960, Note_off_c, 2, 66, 0
34, 109440, Note_on_c, 2, 66, 82
34, 109440, Note_on_c, 2, 69, 82
34, 109920, Note_off_c, 2, 66, 0
34, 109920, Note_off_c, 2, 69, 0
34, 110400, Note_on_c, 2, 66, 78
34, 110400, Note_on_c, 2, 69, 77
34, 110880, Note_off_c, 2, 66, 0
34, 110880, Note_off_c, 2, 69, 0
34, 111360, Note_off_c, 2, 54, 0
34, 111360, End_track
35, 0, Start_track
35, 0, Title_t, "Rhodes"
35, 0, Instrument_name_t, "Rhodes"
35, 0, Program_c, 3, 0
35, 280645, Note_on_c, 3, 52, 112
35, 280645, Note_on_c, 3, 55, 112
35, 280645, Note_on_c, 3, 58, 112
35, 280836, Note_off_c, 3, 55, 0
35, 280836, Note_off_c, 3, 58, 0
35, 280836, Note_off_c, 3, 52, 0
35, 282565, Note_on_c, 3, 57, 112
35, 282565, Note_on_c, 3, 60, 112
35, 282565, Note_on_c, 3, 65, 112
35, 282756, Note_off_c, 3, 65, 0
35, 282756, Note_off_c, 3, 57, 0
35, 282756, Note_off_c, 3, 60, 0
35, 285637, Note_on_c, 3, 58, 112
35, 285637, Note_on_c, 3, 60, 112
35, 285924, Note_off_c, 3, 60, 0
35, 285924, Note_off_c, 3, 58, 0
35, 285925, Note_on_c, 3, 57, 112
35, 286399, Note_off_c, 3, 57, 0
35, 286405, Note_on_c, 3, 60, 112
35, 286405, Note_on_c, 3, 55, 112
35, 287361, Note_off_c, 3, 60, 0
35, 287361, Note_off_c, 3, 55, 0
35, 291684, Note_on_c, 3, 60, 112
35, 291684, Note_on_c, 3, 55, 112
35, 292355, Note_off_c, 3, 60, 0
35, 292355, Note_off_c, 3, 55, 0
35, 292644, Note_on_c, 3, 60, 112
35, 292644, Note_on_c, 3, 57, 112
35, 293315, Note_off_c, 3, 60, 0
35, 293315, Note_off_c, 3, 57, 0
35, 293604, Note_on_c, 3, 62, 112
35, 293604, Note_on_c, 3, 57, 112
35, 294275, Note_off_c, 3, 62, 0
35, 294275, Note_off_c, 3, 57, 0
35, 294564, Note_on_c, 3, 59, 112
35, 294564, Note_on_c, 3, 55, 112
35, 295235, Note_off_c, 3, 59, 0
35, 295235, Note_off_c, 3, 55, 0
35, 296005, Note_on_c, 3, 55, 112
35, 296005, Note_on_c, 3, 58, 112
35, 296005, Note_on_c, 3, 52, 112
35, 296196, Note_off_c, 3, 55, 0
35, 296196, Note_off_c, 3, 58, 0
35, 296196, Note_off_c, 3, 52, 0
35, 297925, Note_on_c, 3, 57, 112
35, 297925, Note_on_c, 3, 60, 112
35, 297925, Note_on_c, 3, 65, 112
35, 298116, Note_off_c, 3, 57, 0
35, 298116, Note_off_c, 3, 60, 0
35, 298116, Note_off_c, 3, 65, 0
35, 300997, Note_on_c, 3, 57, 112
35, 300997, Note_on_c, 3, 61, 112
35, 301284, Note_off_c, 3, 57, 0
35, 301284, Note_off_c, 3, 61, 0
35, 301285, Note_on_c, 3, 56, 112
35, 301285, Note_on_c, 3, 60, 112
35, 301476, Note_off_c, 3, 56, 0
35, 301476, Note_off_c, 3, 60, 0
35, 301477, Note_on_c, 3, 57, 112
35, 301477, Note_on_c, 3, 61, 112
35, 301764, Note_off_c, 3, 61, 0
35, 301764, Note_off_c, 3, 57, 0
35, 301765, Note_on_c, 3, 62, 112
35, 301765, Note_on_c, 3, 59, 112
35, 301956, Note_off_c, 3, 62, 0
35, 301956, Note_off_c, 3, 59, 0
35, 301957, Note_on_c, 3, 64, 112
35, 301957, Note_on_c, 3, 61, 112
35, 301957, Note_on_c, 3, 57, 112
35, 302244, Note_off_c, 3, 57, 0
35, 302244, Note_off_c, 3, 64, 0
35, 302244, Note_off_c, 3, 61, 0
35, 302245, Note_on_c, 3, 57, 112
35, 302245, Note_on_c, 3, 61, 112
35, 302719, Note_off_c, 3, 57, 0
35, 302719, Note_off_c, 3, 61, 0
35, 302917, Note_on_c, 3, 53, 112
35, 302917, Note_on_c, 3, 59, 112
35, 303876, Note_off_c, 3, 53, 0
35, 303876, Note_off_c, 3, 59, 0
35, 303877, Note_on_c, 3, 53, 112
35, 303877, Note_on_c, 3, 50, 112
35, 304836, Note_off_c, 3, 50, 0
35, 304836, Note_off_c, 3, 53, 0
35, 304837, Note_on_c, 3, 55, 112
35, 304837, Note_on_c, 3, 59, 112
35, 305796, Note_off_c, 3, 55, 0
35, 305796, Note_off_c, 3, 59, 0
35, 305797, Note_on_c, 3, 59, 112
35, 305797, Note_on_c, 3, 62, 112
35, 306756, Note_off_c, 3, 59, 0
35, 306756, Note_off_c, 3, 62, 0
35, 307045, Note_on_c, 3, 55, 112
35, 307045, Note_on_c, 3, 60, 112
35, 307236, Note_off_c, 3, 60, 0
35, 307236, Note_off_c, 3, 55, 0
35, 307717, Note_on_c, 3, 55, 112
35, 307717, Note_on_c, 3, 60, 112
35, 308196, Note_off_c, 3, 55, 0
35, 308196, Note_off_c, 3, 60, 0
35, 308197, Note_on_c, 3, 55, 112
35, 308197, Note_on_c, 3, 62, 112
35, 308484, Note_off_c, 3, 62, 0
35, 308484, Note_off_c, 3, 55, 0
35, 308485, Note_on_c, 3, 63, 112
35, 308485, Note_on_c, 3, 55, 112
35, 308676, Note_off_c, 3, 63, 0
35, 308676, Note_off_c, 3, 55, 0
35, 308677, Note_on_c, 3, 64, 112
35, 308677, Note_on_c, 3, 60, 112
35, 308964, Note_off_c, 3, 64, 0
35, 308964, Note_off_c, 3, 60, 0
35, 308965, Note_on_c, 3, 63, 112
35, 308965, Note_on_c, 3, 59, 112
35, 309156, Note_off_c, 3, 59, 0
35, 309156, Note_off_c, 3, 63, 0
35, 309157, Note_on_c, 3, 60, 112
35, 309157, Note_on_c, 3, 64, 112
35, 309444, Note_off_c, 3, 60, 0
35, 309444, Note_off_c, 3, 64, 0
35, 309445, Note_on_c, 3, 60, 112
35, 309445, Note_on_c, 3, 64, 112
35, 309445, Note_on_c, 3, 67, 112
35, 310401, Note_off_c, 3, 60, 0
35, 310401, Note_off_c, 3, 64, 0
35, 310401, Note_off_c, 3, 67, 0
35, 310597, Note_on_c, 3, 60, 112
35, 310597, Note_on_c, 3, 57, 112
35, 310597, Note_on_c, 3, 53, 112
35, 311076, Note_off_c, 3, 60, 0
35, 311076, Note_off_c, 3, 57, 0
35, 311076, Note_off_c, 3, 53, 0
35, 312325, Note_on_c, 3, 62, 112
35, 312325, Note_on_c, 3, 55, 112
35, 312325, Note_on_c, 3, 59, 112
35, 312804, Note_off_c, 3, 62, 0
35, 312804, Note_off_c, 3, 55, 0
35, 312804, Note_off_c, 3, 59, 0
35, 312997, Note_on_c, 3, 55, 112
35, 312997, Note_on_c, 3, 62, 112
35, 312997, Note_on_c, 3, 59, 112
35, 313956, Note_off_c, 3, 55, 0
35, 313956, Note_off_c, 3, 62, 0
35, 313956, Note_off_c, 3, 59, 0
35, 313957, Note_on_c, 3, 55, 112
35, 313957, Note_on_c, 3, 59, 112
35, 313957, Note_on_c, 3, 62, 112
35, 314436, Note_off_c, 3, 59, 0
35, 314436, Note_off_c, 3, 55, 0
35, 314436, Note_off_c, 3, 62, 0
35, 316357, Note_on_c, 3, 57, 112
35, 316644, Note_off_c, 3, 57, 0
35, 316645, Note_on_c, 3, 56, 112
35, 316836, Note_off_c, 3, 56, 0
35, 316837, Note_on_c, 3, 57, 112
35, 317124, Note_off_c, 3, 57, 0
35, 317125, Note_on_c, 3, 64, 112
35, 318081, Note_off_c, 3, 64, 0
35, 318277, Note_on_c, 3, 57, 112
35, 318277, Note_on_c, 3, 53, 112
35, 318756, Note_off_c, 3, 57, 0
35, 318756, Note_off_c, 3, 53, 0
35, 320197, Note_on_c, 3, 57, 112
35, 320197, Note_on_c, 3, 53, 112
35, 320676, Note_off_c, 3, 57, 0
35, 320676, Note_off_c, 3, 53, 0
35, 322117, Note_on_c, 3, 59, 112
35, 322117, Note_on_c, 3, 55, 112
35, 324036, Note_off_c, 3, 55, 0
35, 324036, Note_off_c, 3, 59, 0
35, 328357, Note_on_c, 3, 60, 112
35, 328357, Note_on_c, 3, 48, 112
35, 328836, Note_off_c, 3, 60, 0
35, 328836, Note_off_c, 3, 48, 0
35, 328837, Note_on_c, 3, 63, 112
35, 328837, Note_on_c, 3, 51, 112
35, 329316, Note_off_c, 3, 63, 0
35, 329316, Note_off_c, 3, 51, 0
35, 329317, Note_on_c, 3, 60, 112
35, 329317, Note_on_c, 3, 48, 112
35, 329604, Note_off_c, 3, 60, 0
35, 329604, Note_off_c, 3, 48, 0
35, 329605, Note_on_c, 3, 56, 112
35, 329605, Note_on_c, 3, 60, 112
35, 329797, Note_off_c, 3, 56, 0
35, 329797, Note_off_c, 3, 60, 0
35, 330277, Note_on_c, 3, 60, 112
35, 330277, Note_on_c, 3, 53, 112
35, 330756, Note_off_c, 3, 60, 0
35, 330756, Note_off_c, 3, 53, 0
35, 330757, Note_on_c, 3, 53, 112
35, 330757, Note_on_c, 3, 58, 112
35, 331236, Note_off_c, 3, 53, 0
35, 331236, Note_off_c, 3, 58, 0
35, 331237, Note_on_c, 3, 56, 112
35, 331237, Note_on_c, 3, 60, 112
35, 331524, Note_off_c, 3, 56, 0
35, 331524, Note_off_c, 3, 60, 0
35, 331525, Note_on_c, 3, 58, 112
35, 331525, Note_on_c, 3, 62, 112
35, 333156, Note_off_c, 3, 62, 0
35, 333156, Note_off_c, 3, 58, 0
35, 333445, Note_on_c, 3, 51, 112
35, 333445, Note_on_c, 3, 63, 112
35, 334116, Note_off_c, 3, 63, 0
35, 334116, Note_off_c, 3, 51, 0
35, 334117, Note_on_c, 3, 51, 112
35, 334117, Note_on_c, 3, 58, 112
35, 334596, Note_off_c, 3, 51, 0
35, 334596, Note_off_c, 3, 58, 0
35, 334597, Note_on_c, 3, 58, 112
35, 334597, Note_on_c, 3, 55, 112
35, 334884, Note_off_c, 3, 55, 0
35, 334884, Note_off_c, 3, 58, 0
35, 334885, Note_on_c, 3, 55, 112
35, 334885, Note_on_c, 3, 58, 112
35, 335359, Note_off_c, 3, 55, 0
35, 335359, Note_off_c, 3, 58, 0
35, 335365, Note_on_c, 3, 60, 112
35, 335365, Note_on_c, 3, 55, 112
35, 336996, Note_off_c, 3, 60, 0
35, 336996, Note_off_c, 3, 55, 0
35, 337285, Note_on_c, 3, 60, 112
35, 337285, Note_on_c, 3, 53, 112
35, 337956, Note_off_c, 3, 53, 0
35, 337956, Note_off_c, 3, 60, 0
35, 337957, Note_on_c, 3, 60, 112
35, 337957, Note_on_c, 3, 56, 112
35, 338436, Note_off_c, 3, 56, 0
35, 338436, Note_off_c, 3, 60, 0
35, 338437, Note_on_c, 3, 60, 112
35, 338437, Note_on_c, 3, 56, 112
35, 338916, Note_off_c, 3, 60, 0
35, 338916, Note_off_c, 3, 56, 0
35, 338917, Note_on_c, 3, 53, 112
35, 338917, Note_on_c, 3, 60, 112
35, 339204, Note_off_c, 3, 53, 0
35, 339204, Note_off_c, 3, 60, 0
35, 339205, Note_on_c, 3, 62, 112
35, 339205, Note_on_c, 3, 55, 112
35, 339396, Note_off_c, 3, 55, 0
35, 339397, Note_on_c, 3, 55, 112
35, 339876, Note_off_c, 3, 55, 0
35, 339876, Note_off_c, 3, 62, 0
35, 339877, Note_on_c, 3, 58, 112
35, 339877, Note_on_c, 3, 55, 112
35, 340356, Note_off_c, 3, 55, 0
35, 340356, Note_off_c, 3, 58, 0
35, 340357, Note_on_c, 3, 55, 112
35, 340357, Note_on_c, 3, 58, 112
35, 340836, Note_off_c, 3, 55, 0
35, 340836, Note_off_c, 3, 58, 0
35, 340837, Note_on_c, 3, 55, 112
35, 340837, Note_on_c, 3, 58, 112
35, 341124, Note_off_c, 3, 55, 0
35, 341124, Note_off_c, 3, 58, 0
35, 341125, Note_on_c, 3, 58, 112
35, 341125, Note_on_c, 3, 55, 112
35, 341796, Note_off_c, 3, 55, 0
35, 341796, Note_off_c, 3, 58, 0
35, 341797, Note_on_c, 3, 58, 112
35, 341797, Note_on_c, 3, 50, 112
35, 342276, Note_off_c, 3, 58, 0
35, 342276, Note_off_c, 3, 50, 0
35, 342277, Note_on_c, 3, 49, 112
35, 342277, Note_on_c, 3, 53, 112
35, 342756, Note_off_c, 3, 49, 0
35, 342756, Note_off_c, 3, 53, 0
35, 342757, Note_on_c, 3, 56, 112
35, 342757, Note_on_c, 3, 46, 112
35, 343044, Note_off_c, 3, 46, 0
35, 343045, Note_on_c, 3, 49, 112
35, 343236, Note_off_c, 3, 56, 0
35, 343236, Note_off_c, 3, 49, 0
35, 343237, Note_on_c, 3, 55, 112
35, 343237, Note_on_c, 3, 48, 112
35, 343476, Note_off_c, 3, 55, 0
35, 343476, Note_off_c, 3, 48, 0
35, 343717, Note_on_c, 3, 60, 112
35, 343717, Note_on_c, 3, 48, 112
35, 344196, Note_off_c, 3, 60, 0
35, 344196, Note_off_c, 3, 48, 0
35, 344197, Note_on_c, 3, 63, 112
35, 344197, Note_on_c, 3, 51, 112
35, 344484, Note_off_c, 3, 63, 0
35, 344484, Note_off_c, 3, 51, 0
35, 344485, Note_on_c, 3, 60, 112
35, 344485, Note_on_c, 3, 48, 112
35, 344959, Note_off_c, 3, 60, 0
35, 344959, Note_off_c, 3, 48, 0
35, 344965, Note_on_c, 3, 60, 112
35, 344965, Note_on_c, 3, 53, 112
35, 345636, Note_off_c, 3, 60, 0
35, 345636, Note_off_c, 3, 53, 0
35, 345637, Note_on_c, 3, 60, 112
35, 345637, Note_on_c, 3, 56, 112
35, 346116, Note_off_c, 3, 60, 0
35, 346116, Note_off_c, 3, 56, 0
35, 346117, Note_on_c, 3, 58, 112
35, 346117, Note_on_c, 3, 56, 112
35, 346404, Note_off_c, 3, 56, 0
35, 346404, Note_off_c, 3, 58, 0
35, 346405, Note_on_c, 3, 56, 112
35, 346405, Note_on_c, 3, 60, 112
35, 346879, Note_off_c, 3, 56, 0
35, 346879, Note_off_c, 3, 60, 0
35, 346885, Note_on_c, 3, 58, 112
35, 346885, Note_on_c, 3, 62, 112
35, 348036, Note_off_c, 3, 58, 0
35, 348036, Note_off_c, 3, 62, 0
35, 348517, Note_on_c, 3, 55, 112
35, 348517, Note_on_c, 3, 58, 112
35, 348996, Note_off_c, 3, 55, 0
35, 348996, Note_off_c, 3, 58, 0
35, 348997, Note_on_c, 3, 51, 112
35, 348997, Note_on_c, 3, 58, 112
35, 348997, Note_on_c, 3, 63, 112
35, 349476, Note_off_c, 3, 58, 0
35, 349476, Note_off_c, 3, 51, 0
35, 349476, Note_off_c, 3, 63, 0
35, 349477, Note_on_c, 3, 63, 112
35, 349477, Note_on_c, 3, 60, 112
35, 349477, Note_on_c, 3, 51, 112
35, 349956, Note_off_c, 3, 63, 0
35, 349956, Note_off_c, 3, 60, 0
35, 349956, Note_off_c, 3, 51, 0
35, 349957, Note_on_c, 3, 67, 112
35, 349957, Note_on_c, 3, 62, 112
35, 349957, Note_on_c, 3, 55, 112
35, 350436, Note_off_c, 3, 67, 0
35, 350436, Note_off_c, 3, 62, 0
35, 350436, Note_off_c, 3, 55, 0
35, 350437, Note_on_c, 3, 51, 112
35, 350437, Note_on_c, 3, 67, 112
35, 350437, Note_on_c, 3, 63, 112
35, 350916, Note_off_c, 3, 67, 0
35, 350916, Note_off_c, 3, 63, 0
35, 350916, Note_off_c, 3, 51, 0
35, 350917, Note_on_c, 3, 48, 112
35, 350917, Note_on_c, 3, 55, 112
35, 350917, Note_on_c, 3, 60, 112
35, 350917, Note_on_c, 3, 64, 112
35, 351679, Note_off_c, 3, 48, 0
35, 351679, Note_off_c, 3, 55, 0
35, 351679, Note_off_c, 3, 60, 0
35, 351679, Note_off_c, 3, 64, 0
35, 351684, Note_on_c, 3, 52, 112
35, 351684, Note_on_c, 3, 55, 112
35, 351684, Note_on_c, 3, 60, 112
35, 352355, Note_off_c, 3, 60, 0
35, 352355, Note_off_c, 3, 55, 0
35, 352355, Note_off_c, 3, 52, 0
35, 352837, Note_on_c, 3, 53, 112
35, 352837, Note_on_c, 3, 60, 112
35, 353599, Note_off_c, 3, 53, 0
35, 353599, Note_off_c, 3, 60, 0
35, 353604, Note_on_c, 3, 55, 112
35, 353604, Note_on_c, 3, 60, 112
35, 354275, Note_off_c, 3, 55, 0
35, 354275, Note_off_c, 3, 60, 0
35, 354277, Note_on_c, 3, 51, 112
35, 354277, Note_on_c, 3, 60, 112
35, 354756, Note_off_c, 3, 51, 0
35, 354756, Note_off_c, 3, 60, 0
35, 354757, Note_on_c, 3, 58, 112
35, 354757, Note_on_c, 3, 62, 112
35, 355716, Note_off_c, 3, 58, 0
35, 355716, Note_off_c, 3, 62, 0
35, 355717, Note_on_c, 3, 56, 112
35, 355717, Note_on_c, 3, 58, 112
35, 355717, Note_on_c, 3, 62, 112
35, 356676, Note_off_c, 3, 56, 0
35, 356676, Note_off_c, 3, 58, 0
35, 356676, Note_off_c, 3, 62, 0
35, 356677, Note_on_c, 3, 55, 112
35, 356677, Note_on_c, 3, 58, 112
35, 358596, Note_off_c, 3, 55, 0
35, 358596, Note_off_c, 3, 58, 0
35, 359077, Note_on_c, 3, 48, 112
35, 359077, Note_on_c, 3, 60, 112
35, 359556, Note_off_c, 3, 48, 0
35, 359556, Note_off_c, 3, 60, 0
35, 359557, Note_on_c, 3, 51, 112
35, 359557, Note_on_c, 3, 63, 112
35, 359844, Note_off_c, 3, 51, 0
35, 359844, Note_off_c, 3, 63, 0
35, 359845, Note_on_c, 3, 48, 112
35, 359845, Note_on_c, 3, 60, 112
35, 360319, Note_off_c, 3, 48, 0
35, 360319, Note_off_c, 3, 60, 0
35, 360325, Note_on_c, 3, 53, 112
35, 360325, Note_on_c, 3, 60, 112
35, 360517, Note_off_c, 3, 53, 0
35, 360517, Note_off_c, 3, 60, 0
35, 360997, Note_on_c, 3, 60, 112
35, 360997, Note_on_c, 3, 56, 112
35, 361476, Note_off_c, 3, 60, 0
35, 361476, Note_off_c, 3, 56, 0
35, 361477, Note_on_c, 3, 56, 112
35, 361477, Note_on_c, 3, 58, 112
35, 361764, Note_off_c, 3, 56, 0
35, 361764, Note_off_c, 3, 58, 0
35, 361765, Note_on_c, 3, 56, 112
35, 361765, Note_on_c, 3, 60, 112
35, 362239, Note_off_c, 3, 56, 0
35, 362239, Note_off_c, 3, 60, 0
35, 362245, Note_on_c, 3, 62, 112
35, 362245, Note_on_c, 3, 58, 112
35, 363397, Note_off_c, 3, 58, 0
35, 363397, Note_on_c, 3, 58, 112
35, 363397, Note_on_c, 3, 46, 112
35, 363876, Note_off_c, 3, 58, 0
35, 363876, Note_off_c, 3, 46, 0
35, 363876, Note_off_c, 3, 62, 0
35, 363877, Note_on_c, 3, 58, 112
35, 363877, Note_on_c, 3, 46, 112
35, 364165, Note_on_c, 3, 63, 112
35, 364165, Note_on_c, 3, 51, 112
35, 364356, Note_off_c, 3, 58, 0
35, 364356, Note_off_c, 3, 46, 0
35, 364836, Note_off_c, 3, 63, 0
35, 364836, Note_off_c, 3, 51, 0
35, 364837, Note_on_c, 3, 51, 112
35, 364837, Note_on_c, 3, 58, 112
35, 365316, Note_off_c, 3, 58, 0
35, 365316, Note_off_c, 3, 51, 0
35, 365317, Note_on_c, 3, 55, 112
35, 365317, Note_on_c, 3, 58, 112
35, 365796, Note_off_c, 3, 55, 0
35, 365796, Note_off_c, 3, 58, 0
35, 365797, Note_on_c, 3, 55, 112
35, 365797, Note_on_c, 3, 58, 112
35, 366084, Note_off_c, 3, 55, 0
35, 366084, Note_off_c, 3, 58, 0
35, 366085, Note_on_c, 3, 55, 112
35, 366085, Note_on_c, 3, 60, 112
35, 367236, Note_off_c, 3, 55, 0
35, 367236, Note_off_c, 3, 60, 0
35, 367525, Note_on_c, 3, 48, 112
35, 367525, Note_on_c, 3, 60, 112
35, 367999, Note_off_c, 3, 48, 0
35, 367999, Note_off_c, 3, 60, 0
35, 368005, Note_on_c, 3, 53, 112
35, 368005, Note_on_c, 3, 60, 112
35, 368676, Note_off_c, 3, 53, 0
35, 368676, Note_off_c, 3, 60, 0
35, 368677, Note_on_c, 3, 60, 112
35, 368677, Note_on_c, 3, 56, 112
35, 369156, Note_off_c, 3, 60, 0
35, 369156, Note_off_c, 3, 56, 0
35, 369157, Note_on_c, 3, 56, 112
35, 369157, Note_on_c, 3, 60, 112
35, 369444, Note_off_c, 3, 56, 0
35, 369444, Note_off_c, 3, 60, 0
35, 369445, Note_on_c, 3, 53, 112
35, 369445, Note_on_c, 3, 60, 112
35, 369919, Note_off_c, 3, 60, 0
35, 369919, Note_off_c, 3, 53, 0
35, 369925, Note_on_c, 3, 62, 112
35, 369925, Note_on_c, 3, 55, 112
35, 370596, Note_off_c, 3, 55, 0
35, 370596, Note_off_c, 3, 62, 0
35, 370597, Note_on_c, 3, 63, 112
35, 370597, Note_on_c, 3, 51, 112
35, 371359, Note_off_c, 3, 51, 0
35, 371359, Note_off_c, 3, 63, 0
35, 371364, Note_on_c, 3, 62, 112
35, 371364, Note_on_c, 3, 50, 112
35, 372035, Note_off_c, 3, 62, 0
35, 372035, Note_off_c, 3, 50, 0
35, 372037, Note_on_c, 3, 55, 112
35, 372516, Note_off_c, 3, 55, 0
35, 372517, Note_on_c, 3, 50, 112
35, 372517, Note_on_c, 3, 55, 112
35, 372996, Note_off_c, 3, 50, 0
35, 372996, Note_off_c, 3, 55, 0
35, 372997, Note_on_c, 3, 49, 112
35, 372997, Note_on_c, 3, 53, 112
35, 372997, Note_on_c, 3, 61, 112
35, 373284, Note_off_c, 3, 49, 0
35, 373285, Note_on_c, 3, 48, 112
35, 373476, Note_off_c, 3, 53, 0
35, 373476, Note_off_c, 3, 61, 0
35, 373476, Note_off_c, 3, 48, 0
35, 373477, Note_on_c, 3, 46, 112
35, 373477, Note_on_c, 3, 55, 112
35, 373477, Note_on_c, 3, 61, 112
35, 373956, Note_off_c, 3, 46, 0
35, 373956, Note_off_c, 3, 55, 0
35, 373956, Note_off_c, 3, 61, 0
35, 373957, Note_on_c, 3, 48, 112
35, 373957, Note_on_c, 3, 55, 112
35, 374196, Note_off_c, 3, 48, 0
35, 374196, Note_off_c, 3, 55, 0
35, 374437, Note_on_c, 3, 60, 112
35, 374437, Note_on_c, 3, 48, 112
35, 374916, Note_off_c, 3, 48, 0
35, 374916, Note_off_c, 3, 60, 0
35, 374917, Note_on_c, 3, 63, 112
35, 374917, Note_on_c, 3, 51, 112
35, 375204, Note_off_c, 3, 51, 0
35, 375204, Note_off_c, 3, 63, 0
35, 375205, Note_on_c, 3, 48, 112
35, 375205, Note_on_c, 3, 60, 112
35, 375679, Note_off_c, 3, 48, 0
35, 375679, Note_off_c, 3, 60, 0
35, 375685, Note_on_c, 3, 53, 112
35, 375685, Note_on_c, 3, 60, 112
35, 376356, Note_off_c, 3, 60, 0
35, 376356, Note_off_c, 3, 53, 0
35, 376357, Note_on_c, 3, 56, 112
35, 376357, Note_on_c, 3, 60, 112
35, 376836, Note_off_c, 3, 56, 0
35, 376836, Note_off_c, 3, 60, 0
35, 376837, Note_on_c, 3, 56, 112
35, 376837, Note_on_c, 3, 58, 112
35, 377124, Note_off_c, 3, 56, 0
35, 377124, Note_off_c, 3, 58, 0
35, 377125, Note_on_c, 3, 60, 112
35, 377125, Note_on_c, 3, 56, 112
35, 377599, Note_off_c, 3, 56, 0
35, 377599, Note_off_c, 3, 60, 0
35, 377605, Note_on_c, 3, 58, 112
35, 377605, Note_on_c, 3, 62, 112
35, 378756, Note_off_c, 3, 58, 0
35, 378756, Note_off_c, 3, 62, 0
35, 379045, Note_on_c, 3, 55, 112
35, 379045, Note_on_c, 3, 58, 112
35, 379519, Note_off_c, 3, 55, 0
35, 379519, Note_off_c, 3, 58, 0
35, 379525, Note_on_c, 3, 58, 112
35, 379525, Note_on_c, 3, 55, 112
35, 379716, Note_off_c, 3, 55, 0
35, 379716, Note_off_c, 3, 58, 0
35, 379717, Note_on_c, 3, 51, 112
35, 379717, Note_on_c, 3, 58, 112
35, 379717, Note_on_c, 3, 63, 112
35, 380196, Note_off_c, 3, 51, 0
35, 380196, Note_off_c, 3, 58, 0
35, 380196, Note_off_c, 3, 63, 0
35, 380197, Note_on_c, 3, 51, 112
35, 380197, Note_on_c, 3, 60, 112
35, 380197, Note_on_c, 3, 63, 112
35, 380676, Note_off_c, 3, 63, 0
35, 380676, Note_off_c, 3, 51, 0
35, 380676, Note_off_c, 3, 60, 0
35, 380677, Note_on_c, 3, 55, 112
35, 380677, Note_on_c, 3, 62, 112
35, 380677, Note_on_c, 3, 67, 112
35, 381156, Note_off_c, 3, 55, 0
35, 381156, Note_off_c, 3, 62, 0
35, 381156, Note_off_c, 3, 67, 0
35, 381157, Note_on_c, 3, 67, 112
35, 381157, Note_on_c, 3, 51, 112
35, 381157, Note_on_c, 3, 63, 112
35, 381636, Note_off_c, 3, 51, 0
35, 381636, Note_off_c, 3, 63, 0
35, 381636, Note_off_c, 3, 67, 0
35, 381637, Note_on_c, 3, 48, 112
35, 381637, Note_on_c, 3, 55, 112
35, 381637, Note_on_c, 3, 60, 112
35, 381637, Note_on_c, 3, 64, 112
35, 382399, Note_off_c, 3, 48, 0
35, 382399, Note_off_c, 3, 55, 0
35, 382399, Note_off_c, 3, 60, 0
35, 382399, Note_off_c, 3, 64, 0
35, 382404, Note_on_c, 3, 55, 112
35, 382404, Note_on_c, 3, 52, 112
35, 382404, Note_on_c, 3, 60, 112
35, 383075, Note_off_c, 3, 52, 0
35, 383075, Note_off_c, 3, 55, 0
35, 383075, Note_off_c, 3, 60, 0
35, 383077, Note_on_c, 3, 48, 112
35, 383077, Note_on_c, 3, 60, 112
35, 383556, Note_off_c, 3, 48, 0
35, 383556, Note_off_c, 3, 60, 0
35, 383557, Note_on_c, 3, 53, 112
35, 383557, Note_on_c, 3, 56, 112
35, 383796, Note_off_c, 3, 53, 0
35, 383796, Note_off_c, 3, 56, 0
35, 384037, Note_on_c, 3, 53, 112
35, 384037, Note_on_c, 3, 56, 112
35, 384996, Note_off_c, 3, 53, 0
35, 384996, Note_off_c, 3, 56, 0
35, 384997, Note_on_c, 3, 53, 112
35, 384997, Note_on_c, 3, 56, 112
35, 385476, Note_off_c, 3, 53, 0
35, 385476, Note_off_c, 3, 56, 0
35, 385477, Note_on_c, 3, 53, 112
35, 385477, Note_on_c, 3, 58, 112
35, 386437, Note_off_c, 3, 58, 0
35, 386437, Note_on_c, 3, 58, 112
35, 386916, Note_off_c, 3, 53, 0
35, 386916, Note_off_c, 3, 58, 0
35, 386917, Note_on_c, 3, 55, 112
35, 386917, Note_on_c, 3, 58, 112
35, 387396, Note_off_c, 3, 58, 0
35, 387396, Note_off_c, 3, 55, 0
35, 387397, Note_on_c, 3, 58, 112
35, 387397, Note_on_c, 3, 55, 112
35, 387876, Note_off_c, 3, 58, 0
35, 387876, Note_off_c, 3, 55, 0
35, 387877, Note_on_c, 3, 58, 112
35, 387877, Note_on_c, 3, 55, 112
35, 388836, Note_off_c, 3, 58, 0
35, 388836, Note_off_c, 3, 55, 0
35, 388837, Note_on_c, 3, 62, 112
35, 388837, Note_on_c, 3, 51, 112
35, 389316, Note_off_c, 3, 62, 0
35, 389316, Note_off_c, 3, 51, 0
35, 389317, Note_on_c, 3, 64, 112
35, 389317, Note_on_c, 3, 60, 112
35, 389317, Note_on_c, 3, 52, 112
35, 389796, Note_off_c, 3, 64, 0
35, 389796, Note_off_c, 3, 60, 0
35, 389796, Note_off_c, 3, 52, 0
35, 389797, Note_on_c, 3, 53, 112
35, 389797, Note_on_c, 3, 50, 112
35, 390276, Note_off_c, 3, 53, 0
35, 390276, Note_off_c, 3, 50, 0
35, 390277, Note_on_c, 3, 54, 112
35, 390277, Note_on_c, 3, 51, 112
35, 390277, Note_on_c, 3, 63, 112
35, 390756, Note_off_c, 3, 51, 0
35, 390756, Note_off_c, 3, 63, 0
35, 390756, Note_off_c, 3, 54, 0
35, 390757, Note_on_c, 3, 52, 112
35, 390757, Note_on_c, 3, 55, 112
35, 390757, Note_on_c, 3, 64, 112
35, 391236, Note_off_c, 3, 64, 0
35, 391236, Note_off_c, 3, 55, 0
35, 391236, Note_off_c, 3, 52, 0
35, 391237, Note_on_c, 3, 53, 112
35, 391237, Note_on_c, 3, 60, 112
35, 391476, Note_off_c, 3, 60, 0
35, 391476, Note_off_c, 3, 53, 0
35, 391717, Note_on_c, 3, 60, 112
35, 391717, Note_on_c, 3, 55, 112
35, 392676, Note_off_c, 3, 60, 0
35, 392676, Note_off_c, 3, 55, 0
35, 392677, Note_on_c, 3, 60, 112
35, 392677, Note_on_c, 3, 51, 112
35, 393156, Note_off_c, 3, 60, 0
35, 393156, Note_off_c, 3, 51, 0
35, 393157, Note_on_c, 3, 62, 112
35, 393157, Note_on_c, 3, 58, 112
35, 394116, Note_off_c, 3, 62, 0
35, 394116, Note_off_c, 3, 58, 0
35, 394117, Note_on_c, 3, 62, 112
35, 394117, Note_on_c, 3, 58, 112
35, 394117, Note_on_c, 3, 56, 112
35, 395076, Note_off_c, 3, 62, 0
35, 395076, Note_off_c, 3, 58, 0
35, 395076, Note_off_c, 3, 56, 0
35, 395364, Note_on_c, 3, 56, 112
35, 395364, Note_on_c, 3, 51, 112
35, 395364, Note_on_c, 3, 61, 112
35, 396035, Note_off_c, 3, 61, 0
35, 396035, Note_off_c, 3, 51, 0
35, 396035, Note_off_c, 3, 56, 0
35, 396037, Note_on_c, 3, 56, 112
35, 396037, Note_on_c, 3, 61, 112
35, 396799, Note_off_c, 3, 56, 0
35, 396799, Note_off_c, 3, 61, 0
35, 396805, Note_on_c, 3, 49, 112
35, 396805, Note_on_c, 3, 56, 112
35, 396805, Note_on_c, 3, 61, 112
35, 398709, Note_off_c, 3, 61, 0
35, 398709, Note_off_c, 3, 56, 0
35, 398709, Note_off_c, 3, 49, 0
35, 399205, Note_on_c, 3, 51, 112
35, 399396, Note_off_c, 3, 51, 0
35, 399397, Note_on_c, 3, 51, 112
35, 399684, Note_off_c, 3, 51, 0
35, 399877, Note_on_c, 3, 51, 112
35, 400836, Note_off_c, 3, 51, 0
35, 400837, Note_on_c, 3, 51, 112
35, 401076, Note_off_c, 3, 51, 0
35, 401317, Note_on_c, 3, 51, 112
35, 401796, Note_off_c, 3, 51, 0
35, 403045, Note_on_c, 3, 51, 112
35, 403236, Note_off_c, 3, 51, 0
35, 403237, Note_on_c, 3, 51, 112
35, 403524, Note_off_c, 3, 51, 0
35, 403717, Note_on_c, 3, 51, 112
35, 404676, Note_off_c, 3, 51, 0
35, 404677, Note_on_c, 3, 51, 112
35, 404916, Note_off_c, 3, 51, 0
35, 405157, Note_on_c, 3, 51, 112
35, 405636, Note_off_c, 3, 51, 0
35, 406885, Note_on_c, 3, 51, 112
35, 406885, Note_on_c, 3, 55, 112
35, 407076, Note_off_c, 3, 55, 0
35, 407076, Note_off_c, 3, 51, 0
35, 407077, Note_on_c, 3, 55, 112
35, 407077, Note_on_c, 3, 51, 112
35, 407364, Note_off_c, 3, 51, 0
35, 407364, Note_off_c, 3, 55, 0
35, 407557, Note_on_c, 3, 51, 112
35, 407557, Note_on_c, 3, 55, 112
35, 408516, Note_off_c, 3, 51, 0
35, 408516, Note_off_c, 3, 55, 0
35, 408517, Note_on_c, 3, 51, 112
35, 408517, Note_on_c, 3, 55, 112
35, 408756, Note_off_c, 3, 55, 0
35, 408756, Note_off_c, 3, 51, 0
35, 408997, Note_on_c, 3, 55, 112
35, 408997, Note_on_c, 3, 51, 112
35, 409476, Note_off_c, 3, 55, 0
35, 409476, Note_off_c, 3, 51, 0
35, 410725, Note_on_c, 3, 55, 112
35, 410725, Note_on_c, 3, 51, 112
35, 410916, Note_off_c, 3, 55, 0
35, 410916, Note_off_c, 3, 51, 0
35, 410917, Note_on_c, 3, 55, 112
35, 410917, Note_on_c, 3, 51, 112
35, 411204, Note_off_c, 3, 55, 0
35, 411204, Note_off_c, 3, 51, 0
35, 411397, Note_on_c, 3, 55, 112
35, 411397, Note_on_c, 3, 51, 112
35, 412356, Note_off_c, 3, 55, 0
35, 412356, Note_off_c, 3, 51, 0
35, 412357, Note_on_c, 3, 51, 112
35, 412357, Note_on_c, 3, 55, 112
35, 412596, Note_off_c, 3, 55, 0
35, 412596, Note_off_c, 3, 51, 0
35, 412837, Note_on_c, 3, 55, 112
35, 412837, Note_on_c, 3, 51, 112
35, 413316, Note_off_c, 3, 51, 0
35, 413316, Note_off_c, 3, 55, 0
35, 414565, Note_on_c, 3, 55, 112
35, 414565, Note_on_c, 3, 58, 112
35, 414756, Note_off_c, 3, 55, 0
35, 414756, Note_off_c, 3, 58, 0
35, 414757, Note_on_c, 3, 58, 112
35, 414757, Note_on_c, 3, 55, 112
35, 415044, Note_off_c, 3, 55, 0
35, 415044, Note_off_c, 3, 58, 0
35, 415237, Note_on_c, 3, 55, 112
35, 415237, Note_on_c, 3, 58, 112
35, 416196, Note_off_c, 3, 55, 0
35, 416196, Note_off_c, 3, 58, 0
35, 416197, Note_on_c, 3, 58, 112
35, 416197, Note_on_c, 3, 55, 112
35, 416436, Note_off_c, 3, 55, 0
35, 416436, Note_off_c, 3, 58, 0
35, 416677, Note_on_c, 3, 58, 112
35, 416677, Note_on_c, 3, 55, 112
35, 417156, Note_off_c, 3, 55, 0
35, 417156, Note_off_c, 3, 58, 0
35, 418405, Note_on_c, 3, 58, 112
35, 418405, Note_on_c, 3, 55, 112
35, 418596, Note_off_c, 3, 58, 0
35, 418596, Note_off_c, 3, 55, 0
35, 418597, Note_on_c, 3, 58, 112
35, 418597, Note_on_c, 3, 55, 112
35, 418884, Note_off_c, 3, 58, 0
35, 418884, Note_off_c, 3, 55, 0
35, 419077, Note_on_c, 3, 55, 112
35, 419077, Note_on_c, 3, 58, 112
35, 420036, Note_off_c, 3, 55, 0
35, 420036, Note_off_c, 3, 58, 0
35, 420037, Note_on_c, 3, 55, 112
35, 420037, Note_on_c, 3, 58, 112
35, 420276, Note_off_c, 3, 55, 0
35, 420276, Note_off_c, 3, 58, 0
35, 420517, Note_on_c, 3, 58, 112
35, 420517, Note_on_c, 3, 55, 112
35, 420996, Note_off_c, 3, 58, 0
35, 420996, Note_off_c, 3, 55, 0
35, 422245, Note_on_c, 3, 55, 112
35, 422245, Note_on_c, 3, 58, 112
35, 422245, Note_on_c, 3, 61, 112
35, 422436, Note_off_c, 3, 55, 0
35, 422436, Note_off_c, 3, 58, 0
35, 422436, Note_off_c, 3, 61, 0
35, 422437, Note_on_c, 3, 61, 112
35, 422437, Note_on_c, 3, 58, 112
35, 422437, Note_on_c, 3, 55, 112
35, 422724, Note_off_c, 3, 55, 0
35, 422724, Note_off_c, 3, 61, 0
35, 422724, Note_off_c, 3, 58, 0
35, 422917, Note_on_c, 3, 61, 112
35, 422917, Note_on_c, 3, 58, 112
35, 422917, Note_on_c, 3, 55, 112
35, 423876, Note_off_c, 3, 58, 0
35, 423876, Note_off_c, 3, 55, 0
35, 423876, Note_off_c, 3, 61, 0
35, 423877, Note_on_c, 3, 55, 112
35, 423877, Note_on_c, 3, 58, 112
35, 423877, Note_on_c, 3, 61, 112
35, 424116, Note_off_c, 3, 58, 0
35, 424116, Note_off_c, 3, 55, 0
35, 424116, Note_off_c, 3, 61, 0
35, 424357, Note_on_c, 3, 61, 112
35, 424357, Note_on_c, 3, 55, 112
35, 424357, Note_on_c, 3, 58, 112
35, 424836, Note_off_c, 3, 61, 0
35, 424836, Note_off_c, 3, 55, 0
35, 424836, Note_off_c, 3, 58, 0
35, 425125, Note_on_c, 3, 58, 112
35, 425125, Note_on_c, 3, 61, 112
35, 425125, Note_on_c, 3, 55, 112
35, 425316, Note_off_c, 3, 58, 0
35, 425316, Note_off_c, 3, 61, 0
35, 425316, Note_off_c, 3, 55, 0
35, 425317, Note_on_c, 3, 58, 112
35, 425317, Note_on_c, 3, 55, 112
35, 425317, Note_on_c, 3, 61, 112
35, 425604, Note_off_c, 3, 55, 0
35, 425604, Note_off_c, 3, 61, 0
35, 425604, Note_off_c, 3, 58, 0
35, 425797, Note_on_c, 3, 55, 112
35, 425797, Note_on_c, 3, 61, 112
35, 425797, Note_on_c, 3, 58, 112
35, 426559, Note_off_c, 3, 61, 0
35, 426559, Note_off_c, 3, 58, 0
35, 426559, Note_off_c, 3, 55, 0
35, 426757, Note_on_c, 3, 61, 112
35, 426757, Note_on_c, 3, 58, 112
35, 426757, Note_on_c, 3, 55, 112
35, 427044, Note_off_c, 3, 61, 0
35, 427044, Note_off_c, 3, 55, 0
35, 427044, Note_off_c, 3, 58, 0
35, 427045, Note_on_c, 3, 55, 112
35, 427045, Note_on_c, 3, 61, 112
35, 427045, Note_on_c, 3, 58, 112
35, 427236, Note_off_c, 3, 55, 0
35, 427236, Note_off_c, 3, 58, 0
35, 427236, Note_off_c, 3, 61, 0
35, 427525, Note_on_c, 3, 58, 112
35, 427525, Note_on_c, 3, 61, 112
35, 427525, Note_on_c, 3, 55, 112
35, 427716, Note_off_c, 3, 61, 0
35, 427716, Note_off_c, 3, 58, 0
35, 427716, Note_off_c, 3, 55, 0
35, 437729, Note_on_c, 3, 61, 112
35, 437729, Note_on_c, 3, 54, 112
35, 438208, Note_off_c, 3, 61, 0
35, 438208, Note_off_c, 3, 54, 0
35, 438209, Note_on_c, 3, 59, 112
35, 438209, Note_on_c, 3, 54, 112
35, 438688, Note_off_c, 3, 59, 0
35, 438688, Note_off_c, 3, 54, 0
35, 438689, Note_on_c, 3, 57, 112
35, 438689, Note_on_c, 3, 61, 112
35, 438976, Note_off_c, 3, 57, 0
35, 438976, Note_off_c, 3, 61, 0
35, 438977, Note_on_c, 3, 59, 112
35, 438977, Note_on_c, 3, 63, 112
35, 440608, Note_off_c, 3, 59, 0
35, 440608, Note_off_c, 3, 63, 0
35, 440897, Note_on_c, 3, 52, 112
35, 440897, Note_on_c, 3, 64, 112
35, 441568, Note_off_c, 3, 52, 0
35, 441568, Note_off_c, 3, 64, 0
35, 441569, Note_on_c, 3, 59, 112
35, 441569, Note_on_c, 3, 52, 112
35, 442048, Note_off_c, 3, 59, 0
35, 442048, Note_off_c, 3, 52, 0
35, 442049, Note_on_c, 3, 59, 112
35, 442049, Note_on_c, 3, 56, 112
35, 442336, Note_off_c, 3, 59, 0
35, 442336, Note_off_c, 3, 56, 0
35, 442337, Note_on_c, 3, 59, 112
35, 442337, Note_on_c, 3, 56, 112
35, 442811, Note_off_c, 3, 56, 0
35, 442811, Note_off_c, 3, 59, 0
35, 442817, Note_on_c, 3, 56, 112
35, 442817, Note_on_c, 3, 61, 112
35, 444448, Note_off_c, 3, 56, 0
35, 444448, Note_off_c, 3, 61, 0
35, 444737, Note_on_c, 3, 54, 112
35, 444737, Note_on_c, 3, 61, 112
35, 445408, Note_off_c, 3, 54, 0
35, 445408, Note_off_c, 3, 61, 0
35, 445409, Note_on_c, 3, 57, 112
35, 445409, Note_on_c, 3, 61, 112
35, 445888, Note_off_c, 3, 57, 0
35, 445888, Note_off_c, 3, 61, 0
35, 445889, Note_on_c, 3, 57, 112
35, 445889, Note_on_c, 3, 61, 112
35, 446368, Note_off_c, 3, 61, 0
35, 446368, Note_off_c, 3, 57, 0
35, 446369, Note_on_c, 3, 61, 112
35, 446369, Note_on_c, 3, 54, 112
35, 446656, Note_off_c, 3, 54, 0
35, 446656, Note_off_c, 3, 61, 0
35, 446657, Note_on_c, 3, 56, 112
35, 446657, Note_on_c, 3, 63, 112
35, 446848, Note_off_c, 3, 56, 0
35, 446849, Note_on_c, 3, 56, 112
35, 447328, Note_off_c, 3, 63, 0
35, 447328, Note_off_c, 3, 56, 0
35, 447329, Note_on_c, 3, 56, 112
35, 447329, Note_on_c, 3, 59, 112
35, 447808, Note_off_c, 3, 56, 0
35, 447808, Note_off_c, 3, 59, 0
35, 447809, Note_on_c, 3, 56, 112
35, 447809, Note_on_c, 3, 59, 112
35, 448288, Note_off_c, 3, 56, 0
35, 448288, Note_off_c, 3, 59, 0
35, 448289, Note_on_c, 3, 56, 112
35, 448289, Note_on_c, 3, 59, 112
35, 448576, Note_off_c, 3, 59, 0
35, 448576, Note_off_c, 3, 56, 0
35, 448577, Note_on_c, 3, 59, 112
35, 448577, Note_on_c, 3, 56, 112
35, 449248, Note_off_c, 3, 56, 0
35, 449248, Note_off_c, 3, 59, 0
35, 449249, Note_on_c, 3, 51, 112
35, 449249, Note_on_c, 3, 59, 112
35, 449728, Note_off_c, 3, 51, 0
35, 449728, Note_off_c, 3, 59, 0
35, 449729, Note_on_c, 3, 50, 112
35, 449729, Note_on_c, 3, 54, 112
35, 450208, Note_off_c, 3, 50, 0
35, 450208, Note_off_c, 3, 54, 0
35, 450209, Note_on_c, 3, 47, 112
35, 450209, Note_on_c, 3, 57, 112
35, 450496, Note_off_c, 3, 47, 0
35, 450497, Note_on_c, 3, 50, 112
35, 450688, Note_off_c, 3, 57, 0
35, 450688, Note_off_c, 3, 50, 0
35, 450689, Note_on_c, 3, 56, 112
35, 450689, Note_on_c, 3, 49, 112
35, 450928, Note_off_c, 3, 49, 0
35, 450928, Note_off_c, 3, 56, 0
35, 451169, Note_on_c, 3, 49, 112
35, 451169, Note_on_c, 3, 61, 112
35, 451648, Note_off_c, 3, 49, 0
35, 451648, Note_off_c, 3, 61, 0
35, 451649, Note_on_c, 3, 52, 112
35, 451649, Note_on_c, 3, 64, 112
35, 451936, Note_off_c, 3, 52, 0
35, 451936, Note_off_c, 3, 64, 0
35, 451937, Note_on_c, 3, 49, 112
35, 451937, Note_on_c, 3, 61, 112
35, 452411, Note_off_c, 3, 61, 0
35, 452411, Note_off_c, 3, 49, 0
35, 452417, Note_on_c, 3, 61, 112
35, 452417, Note_on_c, 3, 54, 112
35, 453088, Note_off_c, 3, 54, 0
35, 453088, Note_off_c, 3, 61, 0
35, 453089, Note_on_c, 3, 61, 112
35, 453089, Note_on_c, 3, 57, 112
35, 453568, Note_off_c, 3, 61, 0
35, 453568, Note_off_c, 3, 57, 0
35, 453569, Note_on_c, 3, 59, 112
35, 453569, Note_on_c, 3, 57, 112
35, 453856, Note_off_c, 3, 57, 0
35, 453856, Note_off_c, 3, 59, 0
35, 453857, Note_on_c, 3, 61, 112
35, 453857, Note_on_c, 3, 57, 112
35, 454331, Note_off_c, 3, 57, 0
35, 454331, Note_off_c, 3, 61, 0
35, 454337, Note_on_c, 3, 63, 112
35, 454337, Note_on_c, 3, 59, 112
35, 455488, Note_off_c, 3, 63, 0
35, 455488, Note_off_c, 3, 59, 0
35, 455969, Note_on_c, 3, 59, 112
35, 455969, Note_on_c, 3, 56, 112
35, 456448, Note_off_c, 3, 59, 0
35, 456448, Note_off_c, 3, 56, 0
35, 456449, Note_on_c, 3, 59, 112
35, 456449, Note_on_c, 3, 52, 112
35, 456449, Note_on_c, 3, 64, 112
35, 456928, Note_off_c, 3, 52, 0
35, 456928, Note_off_c, 3, 59, 0
35, 456928, Note_off_c, 3, 64, 0
35, 456929, Note_on_c, 3, 52, 112
35, 456929, Note_on_c, 3, 61, 112
35, 456929, Note_on_c, 3, 64, 112
35, 457408, Note_off_c, 3, 52, 0
35, 457408, Note_off_c, 3, 61, 0
35, 457408, Note_off_c, 3, 64, 0
35, 457409, Note_on_c, 3, 68, 112
35, 457409, Note_on_c, 3, 56, 112
35, 457409, Note_on_c, 3, 63, 112
35, 457888, Note_off_c, 3, 68, 0
35, 457888, Note_off_c, 3, 56, 0
35, 457888, Note_off_c, 3, 63, 0
35, 457889, Note_on_c, 3, 64, 112
35, 457889, Note_on_c, 3, 68, 112
35, 457889, Note_on_c, 3, 52, 112
35, 458368, Note_off_c, 3, 52, 0
35, 458368, Note_off_c, 3, 64, 0
35, 458368, Note_off_c, 3, 68, 0
35, 458369, Note_on_c, 3, 49, 112
35, 458369, Note_on_c, 3, 56, 112
35, 458369, Note_on_c, 3, 65, 112
35, 458369, Note_on_c, 3, 61, 112
35, 459131, Note_off_c, 3, 49, 0
35, 459131, Note_off_c, 3, 56, 0
35, 459131, Note_off_c, 3, 65, 0
35, 459131, Note_off_c, 3, 61, 0
35, 459136, Note_on_c, 3, 53, 112
35, 459136, Note_on_c, 3, 56, 112
35, 459136, Note_on_c, 3, 61, 112
35, 459807, Note_off_c, 3, 53, 0
35, 459807, Note_off_c, 3, 56, 0
35, 459807, Note_off_c, 3, 61, 0
35, 460289, Note_on_c, 3, 54, 112
35, 460289, Note_on_c, 3, 61, 112
35, 461051, Note_off_c, 3, 54, 0
35, 461051, Note_off_c, 3, 61, 0
35, 461056, Note_on_c, 3, 61, 112
35, 461056, Note_on_c, 3, 56, 112
35, 461727, Note_off_c, 3, 56, 0
35, 461727, Note_off_c, 3, 61, 0
35, 461729, Note_on_c, 3, 61, 112
35, 461729, Note_on_c, 3, 52, 112
35, 462208, Note_off_c, 3, 61, 0
35, 462208, Note_off_c, 3, 52, 0
35, 462209, Note_on_c, 3, 63, 112
35, 462209, Note_on_c, 3, 59, 112
35, 463168, Note_off_c, 3, 59, 0
35, 463168, Note_off_c, 3, 63, 0
35, 463169, Note_on_c, 3, 63, 112
35, 463169, Note_on_c, 3, 59, 112
35, 463169, Note_on_c, 3, 57, 112
35, 464128, Note_off_c, 3, 63, 0
35, 464128, Note_off_c, 3, 59, 0
35, 464128, Note_off_c, 3, 57, 0
35, 464129, Note_on_c, 3, 56, 112
35, 464129, Note_on_c, 3, 59, 112
35, 466048, Note_off_c, 3, 56, 0
35, 466048, Note_off_c, 3, 59, 0
35, 466529, Note_on_c, 3, 49, 112
35, 466529, Note_on_c, 3, 61, 112
35, 467008, Note_off_c, 3, 61, 0
35, 467008, Note_off_c, 3, 49, 0
35, 467009, Note_on_c, 3, 52, 112
35, 467009, Note_on_c, 3, 64, 112
35, 467296, Note_off_c, 3, 52, 0
35, 467296, Note_off_c, 3, 64, 0
35, 467297, Note_on_c, 3, 49, 112
35, 467297, Note_on_c, 3, 61, 112
35, 467771, Note_off_c, 3, 61, 0
35, 467771, Note_off_c, 3, 49, 0
35, 467777, Note_on_c, 3, 61, 112
35, 467777, Note_on_c, 3, 54, 112
35, 467969, Note_off_c, 3, 54, 0
35, 467969, Note_off_c, 3, 61, 0
35, 468449, Note_on_c, 3, 61, 112
35, 468449, Note_on_c, 3, 57, 112
35, 468928, Note_off_c, 3, 57, 0
35, 468928, Note_off_c, 3, 61, 0
35, 468929, Note_on_c, 3, 57, 112
35, 468929, Note_on_c, 3, 59, 112
35, 469408, Note_off_c, 3, 57, 0
35, 469408, Note_off_c, 3, 59, 0
35, 469409, Note_on_c, 3, 57, 112
35, 469409, Note_on_c, 3, 61, 112
35, 469696, Note_off_c, 3, 57, 0
35, 469696, Note_off_c, 3, 61, 0
35, 469697, Note_on_c, 3, 59, 112
35, 469697, Note_on_c, 3, 63, 112
35, 471328, Note_off_c, 3, 59, 0
35, 471328, Note_off_c, 3, 63, 0
35, 471617, Note_on_c, 3, 52, 112
35, 471617, Note_on_c, 3, 64, 112
35, 472288, Note_off_c, 3, 52, 0
35, 472288, Note_off_c, 3, 64, 0
35, 472289, Note_on_c, 3, 52, 112
35, 472289, Note_on_c, 3, 59, 112
35, 472768, Note_off_c, 3, 52, 0
35, 472768, Note_off_c, 3, 59, 0
35, 472769, Note_on_c, 3, 56, 112
35, 472769, Note_on_c, 3, 59, 112
35, 473248, Note_off_c, 3, 56, 0
35, 473248, Note_off_c, 3, 59, 0
35, 473249, Note_on_c, 3, 56, 112
35, 473249, Note_on_c, 3, 59, 112
35, 473536, Note_off_c, 3, 56, 0
35, 473536, Note_off_c, 3, 59, 0
35, 473537, Note_on_c, 3, 56, 112
35, 473537, Note_on_c, 3, 61, 112
35, 474688, Note_off_c, 3, 56, 0
35, 474688, Note_off_c, 3, 61, 0
35, 474977, Note_on_c, 3, 61, 112
35, 474977, Note_on_c, 3, 49, 112
35, 475451, Note_off_c, 3, 49, 0
35, 475451, Note_off_c, 3, 61, 0
35, 475457, Note_on_c, 3, 54, 112
35, 475457, Note_on_c, 3, 61, 112
35, 476128, Note_off_c, 3, 54, 0
35, 476128, Note_off_c, 3, 61, 0
35, 476129, Note_on_c, 3, 57, 112
35, 476129, Note_on_c, 3, 61, 112
35, 476608, Note_off_c, 3, 57, 0
35, 476608, Note_off_c, 3, 61, 0
35, 476609, Note_on_c, 3, 57, 112
35, 476609, Note_on_c, 3, 61, 112
35, 476896, Note_off_c, 3, 57, 0
35, 476896, Note_off_c, 3, 61, 0
35, 476897, Note_on_c, 3, 54, 112
35, 476897, Note_on_c, 3, 61, 112
35, 477371, Note_off_c, 3, 54, 0
35, 477371, Note_off_c, 3, 61, 0
35, 477377, Note_on_c, 3, 56, 112
35, 477377, Note_on_c, 3, 63, 112
35, 478048, Note_off_c, 3, 56, 0
35, 478048, Note_off_c, 3, 63, 0
35, 478049, Note_on_c, 3, 52, 112
35, 478049, Note_on_c, 3, 64, 112
35, 478811, Note_off_c, 3, 52, 0
35, 478811, Note_off_c, 3, 64, 0
35, 478816, Note_on_c, 3, 63, 112
35, 478816, Note_on_c, 3, 51, 112
35, 479487, Note_off_c, 3, 51, 0
35, 479487, Note_off_c, 3, 63, 0
35, 479489, Note_on_c, 3, 56, 112
35, 479968, Note_off_c, 3, 56, 0
35, 479969, Note_on_c, 3, 51, 112
35, 479969, Note_on_c, 3, 56, 112
35, 480448, Note_off_c, 3, 51, 0
35, 480448, Note_off_c, 3, 56, 0
35, 480449, Note_on_c, 3, 50, 112
35, 480449, Note_on_c, 3, 54, 112
35, 480449, Note_on_c, 3, 62, 112
35, 480736, Note_off_c, 3, 50, 0
35, 480737, Note_on_c, 3, 49, 112
35, 480928, Note_off_c, 3, 54, 0
35, 480928, Note_off_c, 3, 62, 0
35, 480928, Note_off_c, 3, 49, 0
35, 480929, Note_on_c, 3, 47, 112
35, 480929, Note_on_c, 3, 56, 112
35, 480929, Note_on_c, 3, 62, 112
35, 481408, Note_off_c, 3, 47, 0
35, 481408, Note_off_c, 3, 56, 0
35, 481408, Note_off_c, 3, 62, 0
35, 481409, Note_on_c, 3, 49, 112
35, 481409, Note_on_c, 3, 56, 112
35, 481648, Note_off_c, 3, 49, 0
35, 481648, Note_off_c, 3, 56, 0
35, 481889, Note_on_c, 3, 49, 112
35, 481889, Note_on_c, 3, 61, 112
35, 482368, Note_off_c, 3, 61, 0
35, 482368, Note_off_c, 3, 49, 0
35, 482369, Note_on_c, 3, 52, 112
35, 482369, Note_on_c, 3, 64, 112
35, 482656, Note_off_c, 3, 64, 0
35, 482656, Note_off_c, 3, 52, 0
35, 482657, Note_on_c, 3, 61, 112
35, 482657, Note_on_c, 3, 49, 112
35, 483131, Note_off_c, 3, 49, 0
35, 483131, Note_off_c, 3, 61, 0
35, 483137, Note_on_c, 3, 54, 112
35, 483137, Note_on_c, 3, 61, 112
35, 483808, Note_off_c, 3, 54, 0
35, 483808, Note_off_c, 3, 61, 0
35, 483809, Note_on_c, 3, 57, 112
35, 483809, Note_on_c, 3, 61, 112
35, 484288, Note_off_c, 3, 57, 0
35, 484288, Note_off_c, 3, 61, 0
35, 484289, Note_on_c, 3, 57, 112
35, 484289, Note_on_c, 3, 59, 112
35, 484576, Note_off_c, 3, 57, 0
35, 484576, Note_off_c, 3, 59, 0
35, 484577, Note_on_c, 3, 57, 112
35, 484577, Note_on_c, 3, 61, 112
35, 485051, Note_off_c, 3, 57, 0
35, 485051, Note_off_c, 3, 61, 0
35, 485057, Note_on_c, 3, 59, 112
35, 485057, Note_on_c, 3, 63, 112
35, 486208, Note_off_c, 3, 59, 0
35, 486208, Note_off_c, 3, 63, 0
35, 486497, Note_on_c, 3, 56, 112
35, 486497, Note_on_c, 3, 59, 112
35, 486971, Note_off_c, 3, 59, 0
35, 486971, Note_off_c, 3, 56, 0
35, 486977, Note_on_c, 3, 59, 112
35, 486977, Note_on_c, 3, 56, 112
35, 487168, Note_off_c, 3, 59, 0
35, 487168, Note_off_c, 3, 56, 0
35, 487169, Note_on_c, 3, 64, 112
35, 487169, Note_on_c, 3, 59, 112
35, 487169, Note_on_c, 3, 52, 112
35, 487648, Note_off_c, 3, 64, 0
35, 487648, Note_off_c, 3, 59, 0
35, 487648, Note_off_c, 3, 52, 0
35, 487649, Note_on_c, 3, 64, 112
35, 487649, Note_on_c, 3, 61, 112
35, 487649, Note_on_c, 3, 52, 112
35, 488128, Note_off_c, 3, 64, 0
35, 488128, Note_off_c, 3, 61, 0
35, 488128, Note_off_c, 3, 52, 0
35, 488129, Note_on_c, 3, 68, 112
35, 488129, Note_on_c, 3, 63, 112
35, 488129, Note_on_c, 3, 56, 112
35, 488608, Note_off_c, 3, 68, 0
35, 488608, Note_off_c, 3, 63, 0
35, 488608, Note_off_c, 3, 56, 0
35, 488609, Note_on_c, 3, 64, 112
35, 488609, Note_on_c, 3, 52, 112
35, 488609, Note_on_c, 3, 68, 112
35, 489088, Note_off_c, 3, 52, 0
35, 489088, Note_off_c, 3, 68, 0
35, 489088, Note_off_c, 3, 64, 0
35, 489089, Note_on_c, 3, 56, 112
35, 489089, Note_on_c, 3, 61, 112
35, 489089, Note_on_c, 3, 65, 112
35, 489089, Note_on_c, 3, 49, 112
35, 489851, Note_off_c, 3, 56, 0
35, 489851, Note_off_c, 3, 61, 0
35, 489851, Note_off_c, 3, 65, 0
35, 489851, Note_off_c, 3, 49, 0
35, 489856, Note_on_c, 3, 53, 112
35, 489856, Note_on_c, 3, 56, 112
35, 489856, Note_on_c, 3, 61, 112
35, 490527, Note_off_c, 3, 53, 0
35, 490527, Note_off_c, 3, 56, 0
35, 490527, Note_off_c, 3, 61, 0
35, 490529, Note_on_c, 3, 49, 112
35, 490529, Note_on_c, 3, 61, 112
35, 491008, Note_off_c, 3, 49, 0
35, 491008, Note_off_c, 3, 61, 0
35, 491009, Note_on_c, 3, 54, 112
35, 491009, Note_on_c, 3, 57, 112
35, 491248, Note_off_c, 3, 54, 0
35, 491248, Note_off_c, 3, 57, 0
35, 491489, Note_on_c, 3, 54, 112
35, 491489, Note_on_c, 3, 57, 112
35, 492448, Note_off_c, 3, 54, 0
35, 492448, Note_off_c, 3, 57, 0
35, 492449, Note_on_c, 3, 54, 112
35, 492449, Note_on_c, 3, 57, 112
35, 492928, Note_off_c, 3, 57, 0
35, 492928, Note_off_c, 3, 54, 0
35, 492929, Note_on_c, 3, 54, 112
35, 492929, Note_on_c, 3, 59, 112
35, 494368, Note_off_c, 3, 54, 0
35, 494368, Note_off_c, 3, 59, 0
35, 494369, Note_on_c, 3, 56, 112
35, 494369, Note_on_c, 3, 59, 112
35, 494848, Note_off_c, 3, 56, 0
35, 494848, Note_off_c, 3, 59, 0
35, 494849, Note_on_c, 3, 56, 112
35, 494849, Note_on_c, 3, 59, 112
35, 495328, Note_off_c, 3, 56, 0
35, 495328, Note_off_c, 3, 59, 0
35, 495329, Note_on_c, 3, 56, 112
35, 495329, Note_on_c, 3, 59, 112
35, 496288, Note_off_c, 3, 56, 0
35, 496288, Note_off_c, 3, 59, 0
35, 496289, Note_on_c, 3, 52, 112
35, 496289, Note_on_c, 3, 63, 112
35, 496768, Note_off_c, 3, 52, 0
35, 496768, Note_off_c, 3, 63, 0
35, 496769, Note_on_c, 3, 53, 112
35, 496769, Note_on_c, 3, 61, 112
35, 496769, Note_on_c, 3, 65, 112
35, 497248, Note_off_c, 3, 53, 0
35, 497248, Note_off_c, 3, 61, 0
35, 497248, Note_off_c, 3, 65, 0
35, 497249, Note_on_c, 3, 54, 112
35, 497249, Note_on_c, 3, 51, 112
35, 497728, Note_off_c, 3, 51, 0
35, 497728, Note_off_c, 3, 54, 0
35, 497729, Note_on_c, 3, 52, 112
35, 497729, Note_on_c, 3, 55, 112
35, 497729, Note_on_c, 3, 64, 112
35, 498208, Note_off_c, 3, 52, 0
35, 498208, Note_off_c, 3, 55, 0
35, 498208, Note_off_c, 3, 64, 0
35, 498209, Note_on_c, 3, 53, 112
35, 498209, Note_on_c, 3, 56, 112
35, 498209, Note_on_c, 3, 65, 112
35, 498688, Note_off_c, 3, 53, 0
35, 498688, Note_off_c, 3, 56, 0
35, 498688, Note_off_c, 3, 65, 0
35, 498689, Note_on_c, 3, 54, 112
35, 498689, Note_on_c, 3, 61, 112
35, 498928, Note_off_c, 3, 54, 0
35, 498928, Note_off_c, 3, 61, 0
35, 499169, Note_on_c, 3, 56, 112
35, 499169, Note_on_c, 3, 61, 112
35, 500128, Note_off_c, 3, 56, 0
35, 500128, Note_off_c, 3, 61, 0
35, 500129, Note_on_c, 3, 52, 112
35, 500129, Note_on_c, 3, 61, 112
35, 500608, Note_off_c, 3, 52, 0
35, 500608, Note_off_c, 3, 61, 0
35, 500609, Note_on_c, 3, 63, 112
35, 500609, Note_on_c, 3, 59, 112
35, 501568, Note_off_c, 3, 59, 0
35, 501568, Note_off_c, 3, 63, 0
35, 501569, Note_on_c, 3, 57, 112
35, 501569, Note_on_c, 3, 59, 112
35, 501569, Note_on_c, 3, 63, 112
35, 502528, Note_off_c, 3, 57, 0
35, 502528, Note_off_c, 3, 59, 0
35, 502528, Note_off_c, 3, 63, 0
35, 502816, Note_on_c, 3, 52, 112
35, 502816, Note_on_c, 3, 57, 112
35, 502816, Note_on_c, 3, 62, 112
35, 503487, Note_off_c, 3, 52, 0
35, 503487, Note_off_c, 3, 57, 0
35, 503487, Note_off_c, 3, 62, 0
35, 503489, Note_on_c, 3, 57, 112
35, 503489, Note_on_c, 3, 62, 112
35, 504251, Note_off_c, 3, 57, 0
35, 504251, Note_off_c, 3, 62, 0
35, 504257, Note_on_c, 3, 50, 112
35, 504257, Note_on_c, 3, 57, 112
35, 504257, Note_on_c, 3, 62, 112
35, 506161, Note_off_c, 3, 50, 0
35, 506161, Note_off_c, 3, 57, 0
35, 506161, Note_off_c, 3, 62, 0
35, 506369, Note_on_c, 3, 65, 112
35, 506369, Note_on_c, 3, 49, 112
35, 506369, Note_on_c, 3, 56, 112
35, 512128, Note_off_c, 3, 49, 0
35, 512128, Note_off_c, 3, 56, 0
35, 512128, Note_off_c, 3, 65, 0
35, 512128, End_track
36, 0, Start_track
36, 0, Title_t, "Percussion"
36, 0, Instrument_name_t, "Fairlane"
36, 0, Program_c, 9, 0
36, 0, Note_on_c, 9, 50, 84
36, 0, Note_on_c, 9, 57, 84
36, 3840, Note_off_c, 9, 50, 0
36, 3840, Note_off_c, 9, 57, 0
36, 7680, Note_on_c, 9, 50, 85
36, 7680, Note_on_c, 9, 57, 85
36, 9120, Note_off_c, 9, 50, 0
36, 9120, Note_off_c, 9, 57, 0
36, 9120, Note_on_c, 9, 50, 79
36, 9120, Note_on_c, 9, 57, 79
36, 11520, Note_off_c, 9, 50, 0
36, 11520, Note_off_c, 9, 57, 0
36, 11520, Note_on_c, 9, 50, 84
36, 11520, Note_on_c, 9, 57, 84
36, 12960, Note_off_c, 9, 50, 0
36, 12960, Note_off_c, 9, 57, 0
36, 12960, Note_on_c, 9, 50, 74
36, 12960, Note_on_c, 9, 57, 74
36, 13440, Note_on_c, 9, 36, 127
36, 13440, Note_on_c, 9, 42, 127
36, 13560, Note_off_c, 9, 36, 0
36, 13560, Note_off_c, 9, 42, 0
36, 13560, Note_on_c, 9, 38, 127
36, 13680, Note_off_c, 9, 38, 0
36, 13680, Note_on_c, 9, 38, 127
36, 13680, Note_on_c, 9, 42, 127
36, 13800, Note_off_c, 9, 38, 0
36, 13800, Note_off_c, 9, 42, 0
36, 13920, Note_on_c, 9, 36, 127
36, 13920, Note_on_c, 9, 42, 127
36, 14040, Note_off_c, 9, 36, 0
36, 14040, Note_off_c, 9, 42, 0
36, 14040, Note_on_c, 9, 36, 127
36, 14160, Note_off_c, 9, 36, 0
36, 14160, Note_on_c, 9, 38, 127
36, 14160, Note_on_c, 9, 42, 127
36, 14280, Note_off_c, 9, 38, 0
36, 14280, Note_off_c, 9, 42, 0
36, 14280, Note_on_c, 9, 38, 127
36, 14400, Note_off_c, 9, 38, 0
36, 14400, Note_on_c, 9, 36, 127
36, 14400, Note_on_c, 9, 42, 127
36, 14520, Note_off_c, 9, 36, 0
36, 14520, Note_off_c, 9, 42, 0
36, 14640, Note_on_c, 9, 38, 127
36, 14640, Note_on_c, 9, 42, 127
36, 14760, Note_off_c, 9, 38, 0
36, 14760, Note_off_c, 9, 42, 0
36, 14760, Note_on_c, 9, 38, 127
36, 14880, Note_on_c, 9, 42, 127
36, 14880, Note_off_c, 9, 38, 0
36, 14880, Note_on_c, 9, 36, 127
36, 15000, Note_off_c, 9, 42, 0
36, 15000, Note_off_c, 9, 36, 0
36, 15000, Note_on_c, 9, 36, 127
36, 15120, Note_off_c, 9, 36, 0
36, 15120, Note_on_c, 9, 38, 127
36, 15120, Note_on_c, 9, 42, 127
36, 15240, Note_off_c, 9, 38, 0
36, 15240, Note_off_c, 9, 42, 0
36, 15240, Note_on_c, 9, 42, 127
36, 15360, Note_off_c, 9, 50, 0
36, 15360, Note_off_c, 9, 42, 0
36, 15360, Note_on_c, 9, 38, 85
36, 15360, Note_on_c, 9, 50, 84
36, 15360, Note_off_c, 9, 57, 0
36, 15360, Note_on_c, 9, 57, 84
36, 15600, Note_off_c, 9, 38, 0
36, 15600, Note_on_c, 9, 38, 73
36, 15840, Note_off_c, 9, 38, 0
36, 15840, Note_on_c, 9, 38, 80
36, 16080, Note_off_c, 9, 38, 0
36, 16080, Note_on_c, 9, 38, 78
36, 16320, Note_off_c, 9, 38, 0
36, 16320, Note_on_c, 9, 38, 77
36, 16560, Note_off_c, 9, 38, 0
36, 16560, Note_on_c, 9, 38, 79
36, 16800, Note_off_c, 9, 38, 0
36, 16800, Note_on_c, 9, 38, 76
36, 17040, Note_off_c, 9, 38, 0
36, 17040, Note_on_c, 9, 38, 77
36, 17280, Note_off_c, 9, 38, 0
36, 17280, Note_on_c, 9, 38, 83
36, 17520, Note_off_c, 9, 38, 0
36, 17520, Note_on_c, 9, 38, 80
36, 17760, Note_off_c, 9, 38, 0
36, 17760, Note_on_c, 9, 38, 74
36, 18000, Note_off_c, 9, 38, 0
36, 18000, Note_on_c, 9, 38, 76
36, 18240, Note_off_c, 9, 38, 0
36, 18240, Note_on_c, 9, 38, 78
36, 18480, Note_off_c, 9, 38, 0
36, 18480, Note_on_c, 9, 38, 74
36, 18720, Note_off_c, 9, 38, 0
36, 18720, Note_on_c, 9, 38, 77
36, 18960, Note_off_c, 9, 38, 0
36, 18960, Note_on_c, 9, 38, 80
36, 19200, Note_off_c, 9, 57, 0
36, 19200, Note_off_c, 9, 38, 0
36, 19200, Note_on_c, 9, 38, 85
36, 19200, Note_off_c, 9, 50, 0
36, 19440, Note_off_c, 9, 38, 0
36, 19440, Note_on_c, 9, 38, 73
36, 19680, Note_off_c, 9, 38, 0
36, 19680, Note_on_c, 9, 38, 77
36, 19920, Note_off_c, 9, 38, 0
36, 19920, Note_on_c, 9, 38, 78
36, 20160, Note_off_c, 9, 38, 0
36, 20160, Note_on_c, 9, 38, 77
36, 20400, Note_off_c, 9, 38, 0
36, 20400, Note_on_c, 9, 38, 75
36, 20640, Note_off_c, 9, 38, 0
36, 20640, Note_on_c, 9, 38, 75
36, 20880, Note_off_c, 9, 38, 0
36, 20880, Note_on_c, 9, 38, 74
36, 21120, Note_off_c, 9, 38, 0
36, 21120, Note_on_c, 9, 38, 82
36, 21360, Note_off_c, 9, 38, 0
36, 21360, Note_on_c, 9, 38, 78
36, 21600, Note_off_c, 9, 38, 0
36, 21600, Note_on_c, 9, 38, 76
36, 21840, Note_off_c, 9, 38, 0
36, 21840, Note_on_c, 9, 38, 76
36, 22080, Note_off_c, 9, 38, 0
36, 22080, Note_on_c, 9, 38, 81
36, 22320, Note_off_c, 9, 38, 0
36, 22320, Note_on_c, 9, 38, 74
36, 22560, Note_off_c, 9, 38, 0
36, 22560, Note_on_c, 9, 38, 78
36, 22800, Note_off_c, 9, 38, 0
36, 22800, Note_on_c, 9, 38, 77
36, 23040, Note_off_c, 9, 38, 0
36, 23040, Note_on_c, 9, 38, 82
36, 23040, Note_on_c, 9, 50, 89
36, 23040, Note_on_c, 9, 57, 89
36, 23520, Note_off_c, 9, 38, 0
36, 23520, Note_on_c, 9, 38, 75
36, 23760, Note_off_c, 9, 38, 0
36, 23760, Note_on_c, 9, 38, 75
36, 24000, Note_off_c, 9, 38, 0
36, 24000, Note_on_c, 9, 38, 83
36, 24480, Note_off_c, 9, 38, 0
36, 24480, Note_on_c, 9, 38, 76
36, 24720, Note_off_c, 9, 38, 0
36, 24720, Note_on_c, 9, 38, 77
36, 24960, Note_off_c, 9, 38, 0
36, 24960, Note_on_c, 9, 38, 80
36, 25440, Note_off_c, 9, 38, 0
36, 25440, Note_on_c, 9, 38, 74
36, 25680, Note_off_c, 9, 38, 0
36, 25680, Note_on_c, 9, 38, 78
36, 25920, Note_off_c, 9, 38, 0
36, 25920, Note_on_c, 9, 38, 75
36, 26400, Note_off_c, 9, 38, 0
36, 26400, Note_on_c, 9, 38, 69
36, 26640, Note_off_c, 9, 38, 0
36, 26640, Note_on_c, 9, 38, 79
36, 26880, Note_off_c, 9, 57, 0
36, 26880, Note_off_c, 9, 50, 0
36, 26880, Note_off_c, 9, 38, 0
36, 26880, Note_on_c, 9, 38, 84
36, 27360, Note_off_c, 9, 38, 0
36, 27360, Note_on_c, 9, 38, 80
36, 27600, Note_off_c, 9, 38, 0
36, 27600, Note_on_c, 9, 38, 76
36, 27840, Note_off_c, 9, 38, 0
36, 27840, Note_on_c, 9, 38, 80
36, 28320, Note_off_c, 9, 38, 0
36, 28320, Note_on_c, 9, 38, 79
36, 28560, Note_off_c, 9, 38, 0
36, 28560, Note_on_c, 9, 38, 75
36, 28800, Note_off_c, 9, 38, 0
36, 28800, Note_on_c, 9, 38, 81
36, 29280, Note_off_c, 9, 38, 0
36, 29280, Note_on_c, 9, 38, 78
36, 29520, Note_off_c, 9, 38, 0
36, 29520, Note_on_c, 9, 38, 79
36, 29760, Note_off_c, 9, 38, 0
36, 29760, Note_on_c, 9, 38, 78
36, 30240, Note_off_c, 9, 38, 0
36, 30240, Note_on_c, 9, 38, 77
36, 30480, Note_off_c, 9, 38, 0
36, 30480, Note_on_c, 9, 38, 75
36, 30720, Note_off_c, 9, 38, 0
36, 30720, Note_on_c, 9, 38, 82
36, 31200, Note_off_c, 9, 38, 0
36, 31200, Note_on_c, 9, 38, 76
36, 31440, Note_off_c, 9, 38, 0
36, 31440, Note_on_c, 9, 38, 79
36, 31680, Note_off_c, 9, 38, 0
36, 31680, Note_on_c, 9, 38, 76
36, 32160, Note_off_c, 9, 38, 0
36, 32160, Note_on_c, 9, 38, 75
36, 32400, Note_off_c, 9, 38, 0
36, 32400, Note_on_c, 9, 38, 76
36, 32640, Note_off_c, 9, 38, 0
36, 32640, Note_on_c, 9, 38, 85
36, 33120, Note_off_c, 9, 38, 0
36, 33120, Note_on_c, 9, 38, 78
36, 33360, Note_off_c, 9, 38, 0
36, 33360, Note_on_c, 9, 38, 78
36, 33600, Note_off_c, 9, 38, 0
36, 33600, Note_on_c, 9, 38, 77
36, 34080, Note_off_c, 9, 38, 0
36, 34080, Note_on_c, 9, 38, 81
36, 34320, Note_off_c, 9, 38, 0
36, 34320, Note_on_c, 9, 38, 78
36, 34560, Note_off_c, 9, 38, 0
36, 34560, Note_on_c, 9, 38, 83
36, 35040, Note_off_c, 9, 38, 0
36, 35040, Note_on_c, 9, 38, 77
36, 35280, Note_off_c, 9, 38, 0
36, 35280, Note_on_c, 9, 38, 78
36, 35520, Note_off_c, 9, 38, 0
36, 35520, Note_on_c, 9, 38, 76
36, 36000, Note_off_c, 9, 38, 0
36, 36000, Note_on_c, 9, 38, 74
36, 36240, Note_off_c, 9, 38, 0
36, 36240, Note_on_c, 9, 38, 79
36, 36480, Note_off_c, 9, 38, 0
36, 36480, Note_on_c, 9, 38, 83
36, 36720, Note_off_c, 9, 38, 0
36, 36720, Note_on_c, 9, 38, 72
36, 36960, Note_off_c, 9, 38, 0
36, 36960, Note_on_c, 9, 38, 79
36, 37200, Note_off_c, 9, 38, 0
36, 37200, Note_on_c, 9, 38, 75
36, 37440, Note_off_c, 9, 38, 0
36, 37440, Note_on_c, 9, 38, 84
36, 37680, Note_off_c, 9, 38, 0
36, 37680, Note_on_c, 9, 38, 78
36, 37920, Note_off_c, 9, 38, 0
36, 37920, Note_on_c, 9, 38, 78
36, 38160, Note_off_c, 9, 38, 0
36, 38160, Note_on_c, 9, 38, 76
36, 38400, Note_on_c, 9, 57, 85
36, 38400, Note_on_c, 9, 50, 85
36, 38400, Note_off_c, 9, 38, 0
36, 38400, Note_on_c, 9, 38, 85
36, 38880, Note_off_c, 9, 38, 0
36, 38880, Note_on_c, 9, 38, 74
36, 39120, Note_off_c, 9, 38, 0
36, 39120, Note_on_c, 9, 38, 77
36, 39360, Note_off_c, 9, 38, 0
36, 39360, Note_on_c, 9, 38, 78
36, 39840, Note_off_c, 9, 38, 0
36, 39840, Note_on_c, 9, 38, 74
36, 40080, Note_off_c, 9, 38, 0
36, 40080, Note_on_c, 9, 38, 71
36, 40320, Note_off_c, 9, 38, 0
36, 40320, Note_on_c, 9, 38, 83
36, 40800, Note_off_c, 9, 38, 0
36, 40800, Note_on_c, 9, 38, 75
36, 41040, Note_off_c, 9, 38, 0
36, 41040, Note_on_c, 9, 38, 77
36, 41280, Note_off_c, 9, 38, 0
36, 41280, Note_on_c, 9, 38, 75
36, 41760, Note_off_c, 9, 38, 0
36, 41760, Note_on_c, 9, 38, 74
36, 42000, Note_off_c, 9, 38, 0
36, 42000, Note_on_c, 9, 38, 74
36, 42240, Note_off_c, 9, 50, 0
36, 42240, Note_off_c, 9, 38, 0
36, 42240, Note_on_c, 9, 38, 88
36, 42240, Note_off_c, 9, 57, 0
36, 42720, Note_off_c, 9, 38, 0
36, 42720, Note_on_c, 9, 38, 75
36, 42960, Note_off_c, 9, 38, 0
36, 42960, Note_on_c, 9, 38, 75
36, 43200, Note_off_c, 9, 38, 0
36, 43200, Note_on_c, 9, 38, 81
36, 43680, Note_off_c, 9, 38, 0
36, 43680, Note_on_c, 9, 38, 75
36, 43920, Note_off_c, 9, 38, 0
36, 43920, Note_on_c, 9, 38, 77
36, 44160, Note_off_c, 9, 38, 0
36, 44160, Note_on_c, 9, 38, 78
36, 44640, Note_off_c, 9, 38, 0
36, 44640, Note_on_c, 9, 38, 77
36, 44880, Note_off_c, 9, 38, 0
36, 44880, Note_on_c, 9, 38, 72
36, 45120, Note_off_c, 9, 38, 0
36, 45120, Note_on_c, 9, 38, 73
36, 45600, Note_off_c, 9, 38, 0
36, 45600, Note_on_c, 9, 38, 79
36, 45840, Note_off_c, 9, 38, 0
36, 45840, Note_on_c, 9, 38, 78
36, 46080, Note_off_c, 9, 38, 0
36, 46080, Note_on_c, 9, 38, 86
36, 46560, Note_off_c, 9, 38, 0
36, 46560, Note_on_c, 9, 38, 79
36, 46800, Note_off_c, 9, 38, 0
36, 46800, Note_on_c, 9, 38, 74
36, 47040, Note_off_c, 9, 38, 0
36, 47040, Note_on_c, 9, 38, 81
36, 47520, Note_off_c, 9, 38, 0
36, 47520, Note_on_c, 9, 38, 79
36, 47760, Note_off_c, 9, 38, 0
36, 47760, Note_on_c, 9, 38, 75
36, 48000, Note_off_c, 9, 38, 0
36, 48000, Note_on_c, 9, 38, 85
36, 48480, Note_off_c, 9, 38, 0
36, 48480, Note_on_c, 9, 38, 77
36, 48720, Note_off_c, 9, 38, 0
36, 48720, Note_on_c, 9, 38, 75
36, 48960, Note_off_c, 9, 38, 0
36, 48960, Note_on_c, 9, 38, 75
36, 49440, Note_off_c, 9, 38, 0
36, 49440, Note_on_c, 9, 38, 72
36, 49680, Note_off_c, 9, 38, 0
36, 49680, Note_on_c, 9, 38, 78
36, 49920, Note_off_c, 9, 38, 0
36, 49920, Note_on_c, 9, 38, 85
36, 50400, Note_off_c, 9, 38, 0
36, 50400, Note_on_c, 9, 38, 70
36, 50640, Note_off_c, 9, 38, 0
36, 50640, Note_on_c, 9, 38, 74
36, 50880, Note_off_c, 9, 38, 0
36, 50880, Note_on_c, 9, 38, 73
36, 51360, Note_off_c, 9, 38, 0
36, 51360, Note_on_c, 9, 38, 80
36, 51600, Note_off_c, 9, 38, 0
36, 51600, Note_on_c, 9, 38, 74
36, 51840, Note_off_c, 9, 38, 0
36, 51840, Note_on_c, 9, 38, 83
36, 51840, Note_on_c, 9, 50, 127
36, 51960, Note_off_c, 9, 50, 0
36, 51960, Note_on_c, 9, 50, 127
36, 52080, Note_off_c, 9, 38, 0
36, 52080, Note_on_c, 9, 38, 76
36, 52080, Note_off_c, 9, 50, 0
36, 52320, Note_off_c, 9, 38, 0
36, 52320, Note_on_c, 9, 38, 76
36, 52320, Note_on_c, 9, 50, 127
36, 52440, Note_off_c, 9, 50, 0
36, 52440, Note_on_c, 9, 50, 127
36, 52560, Note_on_c, 9, 38, 77
36, 52560, Note_off_c, 9, 50, 0
36, 52560, Note_off_c, 9, 38, 0
36, 52800, Note_on_c, 9, 50, 127
36, 52800, Note_off_c, 9, 38, 0
36, 52800, Note_on_c, 9, 38, 76
36, 52920, Note_off_c, 9, 50, 0
36, 52920, Note_on_c, 9, 50, 127
36, 53040, Note_on_c, 9, 38, 74
36, 53040, Note_off_c, 9, 50, 0
36, 53040, Note_off_c, 9, 38, 0
36, 53280, Note_on_c, 9, 50, 127
36, 53280, Note_off_c, 9, 38, 0
36, 53280, Note_on_c, 9, 38, 75
36, 53400, Note_off_c, 9, 50, 0
36, 53400, Note_on_c, 9, 50, 127
36, 53520, Note_on_c, 9, 38, 75
36, 53520, Note_off_c, 9, 50, 0
36, 53520, Note_off_c, 9, 38, 0
36, 53760, Note_off_c, 9, 38, 0
36, 53760, Note_on_c, 9, 38, 88
36, 53760, Note_on_c, 9, 50, 85
36, 53760, Note_on_c, 9, 57, 85
36, 53880, Note_on_c, 9, 57, 127
36, 54000, Note_off_c, 9, 57, 0
36, 54000, Note_on_c, 9, 57, 127
36, 54120, Note_off_c, 9, 57, 0
36, 54120, Note_on_c, 9, 57, 127
36, 54240, Note_off_c, 9, 38, 0
36, 54240, Note_off_c, 9, 57, 0
36, 54240, Note_on_c, 9, 38, 78
36, 54480, Note_off_c, 9, 38, 0
36, 54480, Note_on_c, 9, 38, 74
36, 54720, Note_off_c, 9, 38, 0
36, 54720, Note_on_c, 9, 38, 78
36, 55200, Note_off_c, 9, 38, 0
36, 55200, Note_on_c, 9, 38, 80
36, 55440, Note_off_c, 9, 38, 0
36, 55440, Note_on_c, 9, 38, 74
36, 55680, Note_off_c, 9, 38, 0
36, 55680, Note_on_c, 9, 38, 83
36, 56160, Note_off_c, 9, 38, 0
36, 56160, Note_on_c, 9, 38, 74
36, 56400, Note_off_c, 9, 38, 0
36, 56400, Note_on_c, 9, 38, 78
36, 56640, Note_off_c, 9, 38, 0
36, 56640, Note_on_c, 9, 38, 79
36, 57120, Note_off_c, 9, 38, 0
36, 57120, Note_on_c, 9, 38, 78
36, 57360, Note_off_c, 9, 38, 0
36, 57360, Note_on_c, 9, 38, 75
36, 57600, Note_off_c, 9, 38, 0
36, 57600, Note_on_c, 9, 38, 88
36, 57600, Note_off_c, 9, 57, 0
36, 57600, Note_off_c, 9, 50, 0
36, 58080, Note_off_c, 9, 38, 0
36, 58080, Note_on_c, 9, 38, 77
36, 58320, Note_off_c, 9, 38, 0
36, 58320, Note_on_c, 9, 38, 76
36, 58560, Note_off_c, 9, 38, 0
36, 58560, Note_on_c, 9, 38, 78
36, 59040, Note_off_c, 9, 38, 0
36, 59040, Note_on_c, 9, 38, 79
36, 59280, Note_off_c, 9, 38, 0
36, 59280, Note_on_c, 9, 38, 78
36, 59520, Note_off_c, 9, 38, 0
36, 59520, Note_on_c, 9, 38, 82
36, 60000, Note_off_c, 9, 38, 0
36, 60000, Note_on_c, 9, 38, 77
36, 60240, Note_off_c, 9, 38, 0
36, 60240, Note_on_c, 9, 38, 75
36, 60480, Note_off_c, 9, 38, 0
36, 60480, Note_on_c, 9, 38, 76
36, 60960, Note_off_c, 9, 38, 0
36, 60960, Note_on_c, 9, 38, 75
36, 61200, Note_off_c, 9, 38, 0
36, 61200, Note_on_c, 9, 38, 75
36, 61440, Note_off_c, 9, 38, 0
36, 61440, Note_on_c, 9, 38, 86
36, 61920, Note_off_c, 9, 38, 0
36, 61920, Note_on_c, 9, 38, 79
36, 62160, Note_off_c, 9, 38, 0
36, 62160, Note_on_c, 9, 38, 77
36, 62400, Note_off_c, 9, 38, 0
36, 62400, Note_on_c, 9, 38, 80
36, 62880, Note_off_c, 9, 38, 0
36, 62880, Note_on_c, 9, 38, 78
36, 63120, Note_off_c, 9, 38, 0
36, 63120, Note_on_c, 9, 38, 76
36, 63360, Note_off_c, 9, 38, 0
36, 63360, Note_on_c, 9, 38, 80
36, 63840, Note_off_c, 9, 38, 0
36, 63840, Note_on_c, 9, 38, 78
36, 64080, Note_off_c, 9, 38, 0
36, 64080, Note_on_c, 9, 38, 75
36, 64320, Note_off_c, 9, 38, 0
36, 64320, Note_on_c, 9, 38, 76
36, 64800, Note_off_c, 9, 38, 0
36, 64800, Note_on_c, 9, 38, 72
36, 65040, Note_off_c, 9, 38, 0
36, 65040, Note_on_c, 9, 38, 75
36, 65280, Note_off_c, 9, 38, 0
36, 65280, Note_on_c, 9, 38, 89
36, 65760, Note_off_c, 9, 38, 0
36, 65760, Note_on_c, 9, 38, 73
36, 66000, Note_off_c, 9, 38, 0
36, 66000, Note_on_c, 9, 38, 74
36, 66240, Note_off_c, 9, 38, 0
36, 66240, Note_on_c, 9, 38, 77
36, 66720, Note_off_c, 9, 38, 0
36, 66720, Note_on_c, 9, 38, 76
36, 66960, Note_off_c, 9, 38, 0
36, 66960, Note_on_c, 9, 38, 76
36, 67200, Note_on_c, 9, 50, 127
36, 67200, Note_off_c, 9, 38, 0
36, 67200, Note_on_c, 9, 38, 81
36, 67320, Note_off_c, 9, 50, 0
36, 67320, Note_on_c, 9, 50, 127
36, 67440, Note_off_c, 9, 38, 0
36, 67440, Note_on_c, 9, 38, 75
36, 67440, Note_off_c, 9, 50, 0
36, 67680, Note_off_c, 9, 38, 0
36, 67680, Note_on_c, 9, 38, 76
36, 67680, Note_on_c, 9, 50, 127
36, 67800, Note_off_c, 9, 50, 0
36, 67800, Note_on_c, 9, 50, 127
36, 67920, Note_off_c, 9, 38, 0
36, 67920, Note_off_c, 9, 50, 0
36, 67920, Note_on_c, 9, 38, 77
36, 68160, Note_off_c, 9, 38, 0
36, 68160, Note_on_c, 9, 38, 74
36, 68160, Note_on_c, 9, 50, 127
36, 68280, Note_off_c, 9, 50, 0
36, 68280, Note_on_c, 9, 50, 127
36, 68400, Note_off_c, 9, 38, 0
36, 68400, Note_on_c, 9, 38, 80
36, 68400, Note_off_c, 9, 50, 0
36, 68640, Note_on_c, 9, 50, 127
36, 68640, Note_off_c, 9, 38, 0
36, 68640, Note_on_c, 9, 38, 78
36, 68760, Note_off_c, 9, 50, 0
36, 68760, Note_on_c, 9, 50, 127
36, 68880, Note_off_c, 9, 50, 0
36, 68880, Note_off_c, 9, 38, 0
36, 68880, Note_on_c, 9, 38, 75
36, 69120, Note_off_c, 9, 38, 0
36, 69120, Note_on_c, 9, 38, 90
36, 69120, Note_on_c, 9, 50, 86
36, 69120, Note_on_c, 9, 57, 86
36, 69240, Note_on_c, 9, 57, 127
36, 69360, Note_off_c, 9, 57, 0
36, 69360, Note_on_c, 9, 57, 127
36, 69480, Note_off_c, 9, 57, 0
36, 69480, Note_on_c, 9, 57, 127
36, 69600, Note_off_c, 9, 38, 0
36, 69600, Note_on_c, 9, 38, 77
36, 69600, Note_off_c, 9, 57, 0
36, 69840, Note_off_c, 9, 38, 0
36, 69840, Note_on_c, 9, 38, 77
36, 70080, Note_off_c, 9, 38, 0
36, 70080, Note_on_c, 9, 38, 74
36, 70560, Note_off_c, 9, 38, 0
36, 70560, Note_on_c, 9, 38, 76
36, 70800, Note_off_c, 9, 38, 0
36, 70800, Note_on_c, 9, 38, 72
36, 71040, Note_off_c, 9, 38, 0
36, 71040, Note_on_c, 9, 38, 81
36, 71520, Note_off_c, 9, 38, 0
36, 71520, Note_on_c, 9, 38, 78
36, 71760, Note_off_c, 9, 38, 0
36, 71760, Note_on_c, 9, 38, 77
36, 72000, Note_off_c, 9, 38, 0
36, 72000, Note_on_c, 9, 38, 75
36, 72480, Note_off_c, 9, 38, 0
36, 72480, Note_on_c, 9, 38, 79
36, 72720, Note_off_c, 9, 38, 0
36, 72720, Note_on_c, 9, 38, 78
36, 72960, Note_off_c, 9, 50, 0
36, 72960, Note_off_c, 9, 38, 0
36, 72960, Note_on_c, 9, 38, 86
36, 72960, Note_off_c, 9, 57, 0
36, 72968, Note_off_c, 9, 38, 0
36, 73440, Note_on_c, 9, 38, 71
36, 73680, Note_off_c, 9, 38, 0
36, 73680, Note_on_c, 9, 38, 76
36, 73920, Note_off_c, 9, 38, 0
36, 73920, Note_on_c, 9, 38, 72
36, 74400, Note_off_c, 9, 38, 0
36, 74400, Note_on_c, 9, 38, 74
36, 74640, Note_off_c, 9, 38, 0
36, 74640, Note_on_c, 9, 38, 76
36, 74880, Note_off_c, 9, 38, 0
36, 74880, Note_on_c, 9, 38, 89
36, 75360, Note_off_c, 9, 38, 0
36, 75360, Note_on_c, 9, 38, 74
36, 75600, Note_off_c, 9, 38, 0
36, 75600, Note_on_c, 9, 38, 74
36, 75840, Note_off_c, 9, 38, 0
36, 75840, Note_on_c, 9, 38, 80
36, 76320, Note_off_c, 9, 38, 0
36, 76320, Note_on_c, 9, 38, 76
36, 76560, Note_off_c, 9, 38, 0
36, 76560, Note_on_c, 9, 38, 74
36, 76800, Note_off_c, 9, 38, 0
36, 76800, Note_on_c, 9, 38, 89
36, 77280, Note_off_c, 9, 38, 0
36, 77280, Note_on_c, 9, 38, 81
36, 77520, Note_off_c, 9, 38, 0
36, 77520, Note_on_c, 9, 38, 73
36, 77760, Note_off_c, 9, 38, 0
36, 77760, Note_on_c, 9, 38, 77
36, 78240, Note_off_c, 9, 38, 0
36, 78240, Note_on_c, 9, 38, 75
36, 78480, Note_off_c, 9, 38, 0
36, 78480, Note_on_c, 9, 38, 79
36, 78720, Note_off_c, 9, 38, 0
36, 78720, Note_on_c, 9, 38, 88
36, 79200, Note_off_c, 9, 38, 0
36, 79200, Note_on_c, 9, 38, 79
36, 79440, Note_off_c, 9, 38, 0
36, 79440, Note_on_c, 9, 38, 80
36, 79680, Note_off_c, 9, 38, 0
36, 79680, Note_on_c, 9, 38, 79
36, 80160, Note_off_c, 9, 38, 0
36, 80160, Note_on_c, 9, 38, 78
36, 80400, Note_off_c, 9, 38, 0
36, 80400, Note_on_c, 9, 38, 77
36, 80640, Note_off_c, 9, 38, 0
36, 80640, Note_on_c, 9, 38, 84
36, 81120, Note_off_c, 9, 38, 0
36, 81120, Note_on_c, 9, 38, 77
36, 81360, Note_off_c, 9, 38, 0
36, 81360, Note_on_c, 9, 38, 73
36, 81600, Note_off_c, 9, 38, 0
36, 81600, Note_on_c, 9, 38, 79
36, 82080, Note_off_c, 9, 38, 0
36, 82080, Note_on_c, 9, 38, 74
36, 82320, Note_off_c, 9, 38, 0
36, 82320, Note_on_c, 9, 38, 75
36, 82560, Note_off_c, 9, 38, 0
36, 82560, Note_on_c, 9, 38, 82
36, 82560, Note_on_c, 9, 50, 127
36, 82680, Note_off_c, 9, 50, 0
36, 82680, Note_on_c, 9, 50, 127
36, 82800, Note_off_c, 9, 50, 0
36, 82800, Note_off_c, 9, 38, 0
36, 82800, Note_on_c, 9, 38, 74
36, 82920, Note_on_c, 9, 57, 127
36, 83040, Note_off_c, 9, 38, 0
36, 83040, Note_off_c, 9, 57, 0
36, 83040, Note_on_c, 9, 38, 77
36, 83040, Note_on_c, 9, 50, 127
36, 83160, Note_off_c, 9, 50, 0
36, 83160, Note_on_c, 9, 50, 127
36, 83280, Note_on_c, 9, 38, 77
36, 83280, Note_off_c, 9, 50, 0
36, 83280, Note_off_c, 9, 38, 0
36, 83400, Note_on_c, 9, 57, 127
36, 83520, Note_on_c, 9, 50, 127
36, 83520, Note_on_c, 9, 38, 75
36, 83520, Note_off_c, 9, 57, 0
36, 83520, Note_off_c, 9, 38, 0
36, 83640, Note_off_c, 9, 50, 0
36, 83640, Note_on_c, 9, 50, 127
36, 83760, Note_on_c, 9, 38, 78
36, 83760, Note_off_c, 9, 50, 0
36, 83760, Note_off_c, 9, 38, 0
36, 83880, Note_on_c, 9, 57, 127
36, 84000, Note_on_c, 9, 38, 80
36, 84000, Note_off_c, 9, 57, 0
36, 84000, Note_off_c, 9, 38, 0
36, 84000, Note_on_c, 9, 50, 127
36, 84120, Note_off_c, 9, 50, 0
36, 84120, Note_on_c, 9, 50, 127
36, 84240, Note_off_c, 9, 38, 0
36, 84240, Note_on_c, 9, 38, 76
36, 84240, Note_off_c, 9, 50, 0
36, 84360, Note_on_c, 9, 57, 127
36, 84480, Note_off_c, 9, 38, 0
36, 84480, Note_off_c, 9, 57, 0
36, 84480, Note_on_c, 9, 57, 84
36, 84480, Note_on_c, 9, 50, 84
36, 84600, Note_on_c, 9, 57, 127
36, 84720, Note_off_c, 9, 57, 0
36, 84720, Note_on_c, 9, 57, 127
36, 84840, Note_off_c, 9, 57, 0
36, 84840, Note_on_c, 9, 57, 127
36, 84960, Note_off_c, 9, 57, 0
36, 88320, Note_off_c, 9, 57, 0
36, 88320, Note_off_c, 9, 50, 0
36, 99840, Note_on_c, 9, 36, 93
36, 101760, Note_off_c, 9, 36, 0
36, 101760, Note_on_c, 9, 36, 83
36, 101760, Note_on_c, 9, 38, 83
36, 101760, Note_on_c, 9, 50, 85
36, 101760, Note_on_c, 9, 57, 85
36, 103680, Note_off_c, 9, 36, 0
36, 103680, Note_off_c, 9, 38, 0
36, 103680, Note_off_c, 9, 50, 0
36, 103680, Note_off_c, 9, 57, 0
36, 103680, Note_on_c, 9, 36, 87
36, 105600, Note_off_c, 9, 36, 0
36, 105600, Note_on_c, 9, 36, 82
36, 105600, Note_on_c, 9, 38, 82
36, 105600, Note_on_c, 9, 50, 83
36, 105600, Note_on_c, 9, 57, 83
36, 106560, Note_off_c, 9, 36, 0
36, 106560, Note_off_c, 9, 38, 0
36, 106560, Note_on_c, 9, 38, 79
36, 107520, Note_off_c, 9, 50, 0
36, 107520, Note_on_c, 9, 50, 88
36, 107520, Note_off_c, 9, 57, 0
36, 107520, Note_on_c, 9, 36, 85
36, 107520, Note_on_c, 9, 57, 88
36, 107520, Note_off_c, 9, 38, 0
36, 107520, Note_on_c, 9, 38, 85
36, 108000, Note_off_c, 9, 38, 0
36, 108000, Note_off_c, 9, 36, 0
36, 108000, Note_on_c, 9, 38, 76
36, 108240, Note_off_c, 9, 38, 0
36, 108240, Note_on_c, 9, 38, 74
36, 108480, Note_off_c, 9, 38, 0
36, 108480, Note_on_c, 9, 38, 78
36, 108960, Note_off_c, 9, 38, 0
36, 108960, Note_on_c, 9, 38, 77
36, 109200, Note_off_c, 9, 38, 0
36, 109200, Note_on_c, 9, 38, 72
36, 109440, Note_off_c, 9, 38, 0
36, 109440, Note_on_c, 9, 38, 85
36, 109920, Note_off_c, 9, 38, 0
36, 109920, Note_on_c, 9, 38, 72
36, 110160, Note_off_c, 9, 38, 0
36, 110160, Note_on_c, 9, 38, 75
36, 110400, Note_off_c, 9, 38, 0
36, 110400, Note_on_c, 9, 38, 76
36, 110880, Note_off_c, 9, 38, 0
36, 110880, Note_on_c, 9, 38, 76
36, 111120, Note_off_c, 9, 38, 0
36, 111120, Note_on_c, 9, 38, 72
36, 111360, Note_off_c, 9, 57, 0
36, 111360, Note_off_c, 9, 50, 0
36, 111360, Note_off_c, 9, 38, 0
36, 111360, Note_on_c, 9, 38, 81
36, 112080, Note_off_c, 9, 38, 0
36, 112080, Note_on_c, 9, 38, 73
36, 112800, Note_off_c, 9, 38, 0
36, 113520, Note_on_c, 9, 38, 74
36, 114240, Note_off_c, 9, 38, 0
36, 114240, Note_on_c, 9, 38, 79
36, 114240, Note_on_c, 9, 50, 76
36, 115200, Note_off_c, 9, 38, 0
36, 115200, Note_off_c, 9, 50, 0
36, 115200, End_track
37, 0, Start_track
37, 0, Title_t, "Trombone 1"
37, 0, Instrument_name_t, "Trombone"
37, 0, Program_c, 5, 57
37, 126791, Note_on_c, 5, 59, 93
37, 127718, Note_off_c, 5, 59, 0
37, 127759, Note_on_c, 5, 59, 91
37, 128668, Note_off_c, 5, 59, 0
37, 128711, Note_on_c, 5, 59, 81
37, 128909, Note_off_c, 5, 59, 0
37, 128965, Note_on_c, 5, 59, 76
37, 129197, Note_off_c, 5, 59, 0
37, 129440, Note_on_c, 5, 59, 76
37, 129672, Note_off_c, 5, 59, 0
37, 129679, Note_on_c, 5, 57, 91
37, 130588, Note_off_c, 5, 57, 0
37, 130631, Note_on_c, 5, 61, 93
37, 131082, Note_off_c, 5, 61, 0
37, 131599, Note_on_c, 5, 61, 79
37, 131782, Note_off_c, 5, 61, 0
37, 131838, Note_on_c, 5, 61, 76
37, 132068, Note_off_c, 5, 61, 0
37, 132551, Note_on_c, 5, 61, 93
37, 133002, Note_off_c, 5, 61, 0
37, 133519, Note_on_c, 5, 59, 91
37, 134428, Note_off_c, 5, 59, 0
37, 134471, Note_on_c, 5, 61, 93
37, 134922, Note_off_c, 5, 61, 0
37, 135439, Note_on_c, 5, 61, 79
37, 135622, Note_off_c, 5, 61, 0
37, 135678, Note_on_c, 5, 61, 76
37, 135908, Note_off_c, 5, 61, 0
37, 136391, Note_on_c, 5, 61, 93
37, 136842, Note_off_c, 5, 61, 0
37, 137359, Note_on_c, 5, 59, 91
37, 138268, Note_off_c, 5, 59, 0
37, 138311, Note_on_c, 5, 61, 93
37, 138762, Note_off_c, 5, 61, 0
37, 139279, Note_on_c, 5, 61, 79
37, 139462, Note_off_c, 5, 61, 0
37, 139518, Note_on_c, 5, 61, 76
37, 139748, Note_off_c, 5, 61, 0
37, 140231, Note_on_c, 5, 61, 93
37, 140682, Note_off_c, 5, 61, 0
37, 141199, Note_on_c, 5, 59, 91
37, 142108, Note_off_c, 5, 59, 0
37, 142151, Note_on_c, 5, 61, 93
37, 142602, Note_off_c, 5, 61, 0
37, 143119, Note_on_c, 5, 61, 79
37, 143302, Note_off_c, 5, 61, 0
37, 143358, Note_on_c, 5, 61, 76
37, 143588, Note_off_c, 5, 61, 0
37, 144071, Note_on_c, 5, 61, 93
37, 144522, Note_off_c, 5, 61, 0
37, 145039, Note_on_c, 5, 59, 91
37, 145948, Note_off_c, 5, 59, 0
37, 145991, Note_on_c, 5, 61, 93
37, 146442, Note_off_c, 5, 61, 0
37, 146959, Note_on_c, 5, 61, 79
37, 147142, Note_off_c, 5, 61, 0
37, 147198, Note_on_c, 5, 61, 76
37, 147428, Note_off_c, 5, 61, 0
37, 147911, Note_on_c, 5, 61, 93
37, 148362, Note_off_c, 5, 61, 0
37, 148879, Note_on_c, 5, 59, 91
37, 149788, Note_off_c, 5, 59, 0
37, 149831, Note_on_c, 5, 61, 93
37, 150282, Note_off_c, 5, 61, 0
37, 150799, Note_on_c, 5, 61, 79
37, 150982, Note_off_c, 5, 61, 0
37, 151038, Note_on_c, 5, 61, 76
37, 151268, Note_off_c, 5, 61, 0
37, 151751, Note_on_c, 5, 61, 93
37, 152202, Note_off_c, 5, 61, 0
37, 152719, Note_on_c, 5, 59, 91
37, 153628, Note_off_c, 5, 59, 0
37, 153671, Note_on_c, 5, 61, 93
37, 154122, Note_off_c, 5, 61, 0
37, 154639, Note_on_c, 5, 61, 82
37, 154822, Note_off_c, 5, 61, 0
37, 154878, Note_on_c, 5, 61, 79
37, 155108, Note_off_c, 5, 61, 0
37, 155591, Note_on_c, 5, 54, 96
37, 156518, Note_off_c, 5, 54, 0
37, 156559, Note_on_c, 5, 56, 94
37, 157468, Note_off_c, 5, 56, 0
37, 157511, Note_on_c, 5, 61, 96
37, 158438, Note_off_c, 5, 61, 0
37, 158479, Note_on_c, 5, 61, 94
37, 158677, Note_off_c, 5, 61, 0
37, 158718, Note_on_c, 5, 61, 91
37, 159388, Note_off_c, 5, 61, 0
37, 159431, Note_on_c, 5, 49, 96
37, 159882, Note_off_c, 5, 49, 0
37, 159923, Note_on_c, 5, 51, 92
37, 160358, Note_off_c, 5, 51, 0
37, 160399, Note_on_c, 5, 52, 94
37, 160833, Note_off_c, 5, 52, 0
37, 160875, Note_on_c, 5, 56, 92
37, 161308, Note_off_c, 5, 56, 0
37, 161351, Note_on_c, 5, 54, 85
37, 163229, Note_off_c, 5, 54, 0
37, 163271, Note_on_c, 5, 44, 85
37, 165149, Note_off_c, 5, 44, 0
37, 165191, Note_on_c, 5, 49, 85
37, 167069, Note_off_c, 5, 49, 0
37, 167111, Note_on_c, 5, 49, 85
37, 168989, Note_off_c, 5, 49, 0
37, 169031, Note_on_c, 5, 46, 90
37, 169959, Note_off_c, 5, 46, 0
37, 169999, Note_on_c, 5, 45, 88
37, 170909, Note_off_c, 5, 45, 0
37, 170951, Note_on_c, 5, 44, 90
37, 171879, Note_off_c, 5, 44, 0
37, 171919, Note_on_c, 5, 48, 88
37, 172829, Note_off_c, 5, 48, 0
37, 172871, Note_on_c, 5, 49, 90
37, 173323, Note_off_c, 5, 49, 0
37, 173363, Note_on_c, 5, 51, 86
37, 173799, Note_off_c, 5, 51, 0
37, 173839, Note_on_c, 5, 52, 88
37, 174275, Note_off_c, 5, 52, 0
37, 174315, Note_on_c, 5, 51, 86
37, 174749, Note_off_c, 5, 51, 0
37, 174791, Note_on_c, 5, 52, 90
37, 175243, Note_off_c, 5, 52, 0
37, 175283, Note_on_c, 5, 54, 86
37, 175719, Note_off_c, 5, 54, 0
37, 175759, Note_on_c, 5, 56, 88
37, 176195, Note_off_c, 5, 56, 0
37, 176235, Note_on_c, 5, 58, 86
37, 176669, Note_off_c, 5, 58, 0
37, 176711, Note_on_c, 5, 54, 90
37, 177639, Note_off_c, 5, 54, 0
37, 177679, Note_on_c, 5, 56, 88
37, 178115, Note_off_c, 5, 56, 0
37, 178155, Note_on_c, 5, 57, 86
37, 178589, Note_off_c, 5, 57, 0
37, 178631, Note_on_c, 5, 57, 90
37, 179083, Note_off_c, 5, 57, 0
37, 179123, Note_on_c, 5, 56, 86
37, 179559, Note_off_c, 5, 56, 0
37, 179599, Note_on_c, 5, 54, 88
37, 180509, Note_off_c, 5, 54, 0
37, 180551, Note_on_c, 5, 59, 78
37, 180750, Note_off_c, 5, 59, 0
37, 180805, Note_on_c, 5, 59, 73
37, 180988, Note_off_c, 5, 59, 0
37, 181043, Note_on_c, 5, 59, 74
37, 181225, Note_off_c, 5, 59, 0
37, 181280, Note_on_c, 5, 59, 73
37, 181464, Note_off_c, 5, 59, 0
37, 181519, Note_on_c, 5, 59, 76
37, 181703, Note_off_c, 5, 59, 0
37, 181758, Note_on_c, 5, 59, 73
37, 181940, Note_off_c, 5, 59, 0
37, 181995, Note_on_c, 5, 59, 74
37, 182176, Note_off_c, 5, 59, 0
37, 182231, Note_on_c, 5, 59, 73
37, 182414, Note_off_c, 5, 59, 0
37, 182471, Note_on_c, 5, 59, 78
37, 182670, Note_off_c, 5, 59, 0
37, 182725, Note_on_c, 5, 59, 73
37, 182908, Note_off_c, 5, 59, 0
37, 182963, Note_on_c, 5, 59, 74
37, 183145, Note_off_c, 5, 59, 0
37, 183200, Note_on_c, 5, 59, 73
37, 183384, Note_off_c, 5, 59, 0
37, 183439, Note_on_c, 5, 59, 76
37, 183623, Note_off_c, 5, 59, 0
37, 183678, Note_on_c, 5, 59, 73
37, 183860, Note_off_c, 5, 59, 0
37, 183915, Note_on_c, 5, 59, 74
37, 184096, Note_off_c, 5, 59, 0
37, 184151, Note_on_c, 5, 59, 73
37, 184382, Note_off_c, 5, 59, 0
37, 184391, Note_on_c, 5, 55, 78
37, 184590, Note_off_c, 5, 55, 0
37, 184645, Note_on_c, 5, 55, 73
37, 184828, Note_off_c, 5, 55, 0
37, 184883, Note_on_c, 5, 55, 74
37, 185065, Note_off_c, 5, 55, 0
37, 185120, Note_on_c, 5, 55, 73
37, 185304, Note_off_c, 5, 55, 0
37, 185359, Note_on_c, 5, 55, 76
37, 185543, Note_off_c, 5, 55, 0
37, 185598, Note_on_c, 5, 55, 73
37, 185780, Note_off_c, 5, 55, 0
37, 185835, Note_on_c, 5, 55, 74
37, 186016, Note_off_c, 5, 55, 0
37, 186071, Note_on_c, 5, 55, 73
37, 186254, Note_off_c, 5, 55, 0
37, 186311, Note_on_c, 5, 55, 78
37, 186510, Note_off_c, 5, 55, 0
37, 186565, Note_on_c, 5, 55, 73
37, 186748, Note_off_c, 5, 55, 0
37, 186803, Note_on_c, 5, 55, 74
37, 186985, Note_off_c, 5, 55, 0
37, 187040, Note_on_c, 5, 55, 73
37, 187224, Note_off_c, 5, 55, 0
37, 187279, Note_on_c, 5, 55, 76
37, 187463, Note_off_c, 5, 55, 0
37, 187518, Note_on_c, 5, 55, 73
37, 187700, Note_off_c, 5, 55, 0
37, 187755, Note_on_c, 5, 55, 74
37, 187936, Note_off_c, 5, 55, 0
37, 187991, Note_on_c, 5, 55, 73
37, 188222, Note_off_c, 5, 55, 0
37, 188231, Note_on_c, 5, 44, 90
37, 189159, Note_off_c, 5, 44, 0
37, 189199, Note_on_c, 5, 42, 88
37, 190109, Note_off_c, 5, 42, 0
37, 190151, Note_on_c, 5, 40, 90
37, 191079, Note_off_c, 5, 40, 0
37, 191119, Note_on_c, 5, 39, 88
37, 192029, Note_off_c, 5, 39, 0
37, 192071, Note_on_c, 5, 42, 90
37, 192285, Note_off_c, 5, 42, 0
37, 192325, Note_on_c, 5, 44, 85
37, 192523, Note_off_c, 5, 44, 0
37, 192563, Note_on_c, 5, 46, 86
37, 192760, Note_off_c, 5, 46, 0
37, 192800, Note_on_c, 5, 47, 85
37, 192999, Note_off_c, 5, 47, 0
37, 193039, Note_on_c, 5, 49, 88
37, 193238, Note_off_c, 5, 49, 0
37, 193278, Note_on_c, 5, 47, 85
37, 193475, Note_off_c, 5, 47, 0
37, 193515, Note_on_c, 5, 49, 86
37, 193711, Note_off_c, 5, 49, 0
37, 193751, Note_on_c, 5, 51, 85
37, 193949, Note_off_c, 5, 51, 0
37, 193991, Note_on_c, 5, 52, 90
37, 194205, Note_off_c, 5, 52, 0
37, 194245, Note_on_c, 5, 51, 85
37, 194443, Note_off_c, 5, 51, 0
37, 194483, Note_on_c, 5, 52, 86
37, 194680, Note_off_c, 5, 52, 0
37, 194720, Note_on_c, 5, 54, 85
37, 194919, Note_off_c, 5, 54, 0
37, 194959, Note_on_c, 5, 56, 88
37, 195158, Note_off_c, 5, 56, 0
37, 195198, Note_on_c, 5, 58, 85
37, 195395, Note_off_c, 5, 58, 0
37, 195435, Note_on_c, 5, 59, 86
37, 195631, Note_off_c, 5, 59, 0
37, 195671, Note_on_c, 5, 60, 85
37, 195869, Note_off_c, 5, 60, 0
37, 195911, Note_on_c, 5, 52, 90
37, 196839, Note_off_c, 5, 52, 0
37, 196879, Note_on_c, 5, 52, 88
37, 197315, Note_off_c, 5, 52, 0
37, 197355, Note_on_c, 5, 51, 86
37, 197789, Note_off_c, 5, 51, 0
37, 197831, Note_on_c, 5, 52, 90
37, 198283, Note_off_c, 5, 52, 0
37, 198323, Note_on_c, 5, 51, 86
37, 198759, Note_off_c, 5, 51, 0
37, 198799, Note_on_c, 5, 49, 88
37, 199709, Note_off_c, 5, 49, 0
37, 199751, Note_on_c, 5, 42, 90
37, 199965, Note_off_c, 5, 42, 0
37, 200005, Note_on_c, 5, 44, 85
37, 200203, Note_off_c, 5, 44, 0
37, 200243, Note_on_c, 5, 46, 86
37, 200440, Note_off_c, 5, 46, 0
37, 200480, Note_on_c, 5, 47, 85
37, 200679, Note_off_c, 5, 47, 0
37, 200719, Note_on_c, 5, 49, 88
37, 200918, Note_off_c, 5, 49, 0
37, 200958, Note_on_c, 5, 47, 85
37, 201155, Note_off_c, 5, 47, 0
37, 201195, Note_on_c, 5, 49, 86
37, 201391, Note_off_c, 5, 49, 0
37, 201431, Note_on_c, 5, 51, 85
37, 201629, Note_off_c, 5, 51, 0
37, 201671, Note_on_c, 5, 52, 90
37, 201885, Note_off_c, 5, 52, 0
37, 201925, Note_on_c, 5, 51, 85
37, 202123, Note_off_c, 5, 51, 0
37, 202163, Note_on_c, 5, 52, 86
37, 202360, Note_off_c, 5, 52, 0
37, 202400, Note_on_c, 5, 54, 85
37, 202599, Note_off_c, 5, 54, 0
37, 202639, Note_on_c, 5, 56, 88
37, 202838, Note_off_c, 5, 56, 0
37, 202878, Note_on_c, 5, 58, 85
37, 203075, Note_off_c, 5, 58, 0
37, 203115, Note_on_c, 5, 59, 86
37, 203311, Note_off_c, 5, 59, 0
37, 203351, Note_on_c, 5, 60, 85
37, 203549, Note_off_c, 5, 60, 0
37, 203591, Note_on_c, 5, 54, 90
37, 204519, Note_off_c, 5, 54, 0
37, 204559, Note_on_c, 5, 57, 88
37, 204995, Note_off_c, 5, 57, 0
37, 205035, Note_on_c, 5, 56, 86
37, 205469, Note_off_c, 5, 56, 0
37, 205511, Note_on_c, 5, 54, 90
37, 205963, Note_off_c, 5, 54, 0
37, 206003, Note_on_c, 5, 52, 86
37, 206439, Note_off_c, 5, 52, 0
37, 206479, Note_on_c, 5, 51, 88
37, 206915, Note_off_c, 5, 51, 0
37, 206955, Note_on_c, 5, 47, 86
37, 207389, Note_off_c, 5, 47, 0
37, 207431, Note_on_c, 5, 59, 90
37, 208359, Note_off_c, 5, 59, 0
37, 208399, Note_on_c, 5, 59, 88
37, 208835, Note_off_c, 5, 59, 0
37, 208875, Note_on_c, 5, 61, 86
37, 209309, Note_off_c, 5, 61, 0
37, 209351, Note_on_c, 5, 59, 90
37, 209803, Note_off_c, 5, 59, 0
37, 209843, Note_on_c, 5, 57, 86
37, 210279, Note_off_c, 5, 57, 0
37, 210319, Note_on_c, 5, 56, 88
37, 211229, Note_off_c, 5, 56, 0
37, 211271, Note_on_c, 5, 63, 90
37, 212199, Note_off_c, 5, 63, 0
37, 212239, Note_on_c, 5, 63, 88
37, 212675, Note_off_c, 5, 63, 0
37, 212715, Note_on_c, 5, 63, 86
37, 213149, Note_off_c, 5, 63, 0
37, 213191, Note_on_c, 5, 62, 90
37, 214119, Note_off_c, 5, 62, 0
37, 214159, Note_on_c, 5, 62, 88
37, 214595, Note_off_c, 5, 62, 0
37, 214635, Note_on_c, 5, 62, 86
37, 215069, Note_off_c, 5, 62, 0
37, 215111, Note_on_c, 5, 61, 90
37, 216039, Note_off_c, 5, 61, 0
37, 216079, Note_on_c, 5, 61, 88
37, 216515, Note_off_c, 5, 61, 0
37, 216555, Note_on_c, 5, 61, 86
37, 216989, Note_off_c, 5, 61, 0
37, 217031, Note_on_c, 5, 61, 90
37, 217959, Note_off_c, 5, 61, 0
37, 217999, Note_on_c, 5, 59, 88
37, 218435, Note_off_c, 5, 59, 0
37, 218475, Note_on_c, 5, 57, 86
37, 218909, Note_off_c, 5, 57, 0
37, 218951, Note_on_c, 5, 57, 90
37, 219403, Note_off_c, 5, 57, 0
37, 219443, Note_on_c, 5, 56, 86
37, 219879, Note_off_c, 5, 56, 0
37, 219919, Note_on_c, 5, 59, 88
37, 222749, Note_off_c, 5, 59, 0
37, 222791, Note_on_c, 5, 52, 96
37, 223719, Note_off_c, 5, 52, 0
37, 223759, Note_on_c, 5, 52, 94
37, 224195, Note_off_c, 5, 52, 0
37, 224235, Note_on_c, 5, 54, 92
37, 224669, Note_off_c, 5, 54, 0
37, 224711, Note_on_c, 5, 52, 96
37, 225163, Note_off_c, 5, 52, 0
37, 225203, Note_on_c, 5, 49, 92
37, 225639, Note_off_c, 5, 49, 0
37, 225679, Note_on_c, 5, 47, 94
37, 226589, Note_off_c, 5, 47, 0
37, 226631, Note_on_c, 5, 51, 96
37, 227559, Note_off_c, 5, 51, 0
37, 227599, Note_on_c, 5, 51, 94
37, 228035, Note_off_c, 5, 51, 0
37, 228075, Note_on_c, 5, 51, 92
37, 228509, Note_off_c, 5, 51, 0
37, 228551, Note_on_c, 5, 50, 96
37, 229479, Note_off_c, 5, 50, 0
37, 229519, Note_on_c, 5, 50, 94
37, 229955, Note_off_c, 5, 50, 0
37, 229995, Note_on_c, 5, 50, 92
37, 230429, Note_off_c, 5, 50, 0
37, 230471, Note_on_c, 5, 49, 96
37, 231399, Note_off_c, 5, 49, 0
37, 231439, Note_on_c, 5, 49, 94
37, 231875, Note_off_c, 5, 49, 0
37, 231915, Note_on_c, 5, 49, 92
37, 232349, Note_off_c, 5, 49, 0
37, 232391, Note_on_c, 5, 47, 91
37, 234269, Note_off_c, 5, 47, 0
37, 234311, Note_on_c, 5, 52, 84
37, 234509, Note_off_c, 5, 52, 0
37, 234565, Note_on_c, 5, 52, 79
37, 234747, Note_off_c, 5, 52, 0
37, 234803, Note_on_c, 5, 52, 80
37, 234984, Note_off_c, 5, 52, 0
37, 235040, Note_on_c, 5, 52, 79
37, 235223, Note_off_c, 5, 52, 0
37, 235279, Note_on_c, 5, 52, 82
37, 235462, Note_off_c, 5, 52, 0
37, 235518, Note_on_c, 5, 52, 79
37, 235698, Note_off_c, 5, 52, 0
37, 235755, Note_on_c, 5, 52, 80
37, 235935, Note_off_c, 5, 52, 0
37, 235991, Note_on_c, 5, 52, 79
37, 236173, Note_off_c, 5, 52, 0
37, 236231, Note_on_c, 5, 52, 84
37, 236429, Note_off_c, 5, 52, 0
37, 236485, Note_on_c, 5, 52, 79
37, 236667, Note_off_c, 5, 52, 0
37, 236723, Note_on_c, 5, 52, 80
37, 236904, Note_off_c, 5, 52, 0
37, 236960, Note_on_c, 5, 52, 79
37, 237143, Note_off_c, 5, 52, 0
37, 237199, Note_on_c, 5, 52, 82
37, 237382, Note_off_c, 5, 52, 0
37, 237438, Note_on_c, 5, 52, 79
37, 237618, Note_off_c, 5, 52, 0
37, 237675, Note_on_c, 5, 52, 80
37, 237855, Note_off_c, 5, 52, 0
37, 237911, Note_on_c, 5, 52, 79
37, 238142, Note_off_c, 5, 52, 0
37, 238151, Note_on_c, 5, 55, 84
37, 238349, Note_off_c, 5, 55, 0
37, 238405, Note_on_c, 5, 55, 79
37, 238587, Note_off_c, 5, 55, 0
37, 238643, Note_on_c, 5, 55, 80
37, 238824, Note_off_c, 5, 55, 0
37, 238880, Note_on_c, 5, 55, 79
37, 239063, Note_off_c, 5, 55, 0
37, 239119, Note_on_c, 5, 55, 82
37, 239302, Note_off_c, 5, 55, 0
37, 239358, Note_on_c, 5, 55, 79
37, 239538, Note_off_c, 5, 55, 0
37, 239595, Note_on_c, 5, 55, 80
37, 239775, Note_off_c, 5, 55, 0
37, 239831, Note_on_c, 5, 55, 79
37, 240013, Note_off_c, 5, 55, 0
37, 240071, Note_on_c, 5, 55, 84
37, 240269, Note_off_c, 5, 55, 0
37, 240325, Note_on_c, 5, 55, 79
37, 240507, Note_off_c, 5, 55, 0
37, 240563, Note_on_c, 5, 55, 80
37, 240744, Note_off_c, 5, 55, 0
37, 240800, Note_on_c, 5, 55, 79
37, 240983, Note_off_c, 5, 55, 0
37, 241039, Note_on_c, 5, 55, 82
37, 241222, Note_off_c, 5, 55, 0
37, 241278, Note_on_c, 5, 55, 79
37, 241458, Note_off_c, 5, 55, 0
37, 241515, Note_on_c, 5, 55, 80
37, 241695, Note_off_c, 5, 55, 0
37, 241751, Note_on_c, 5, 55, 79
37, 241982, Note_off_c, 5, 55, 0
37, 241991, Note_on_c, 5, 58, 84
37, 242189, Note_off_c, 5, 58, 0
37, 242245, Note_on_c, 5, 58, 79
37, 242427, Note_off_c, 5, 58, 0
37, 242483, Note_on_c, 5, 58, 80
37, 242664, Note_off_c, 5, 58, 0
37, 242720, Note_on_c, 5, 58, 79
37, 242903, Note_off_c, 5, 58, 0
37, 242959, Note_on_c, 5, 58, 82
37, 243142, Note_off_c, 5, 58, 0
37, 243198, Note_on_c, 5, 58, 79
37, 243378, Note_off_c, 5, 58, 0
37, 243435, Note_on_c, 5, 58, 80
37, 243615, Note_off_c, 5, 58, 0
37, 243671, Note_on_c, 5, 58, 79
37, 243853, Note_off_c, 5, 58, 0
37, 243911, Note_on_c, 5, 58, 84
37, 244109, Note_off_c, 5, 58, 0
37, 244165, Note_on_c, 5, 58, 79
37, 244347, Note_off_c, 5, 58, 0
37, 244403, Note_on_c, 5, 58, 80
37, 244584, Note_off_c, 5, 58, 0
37, 244640, Note_on_c, 5, 58, 79
37, 244823, Note_off_c, 5, 58, 0
37, 244879, Note_on_c, 5, 58, 82
37, 245062, Note_off_c, 5, 58, 0
37, 245118, Note_on_c, 5, 58, 79
37, 245298, Note_off_c, 5, 58, 0
37, 245355, Note_on_c, 5, 58, 80
37, 245535, Note_off_c, 5, 58, 0
37, 245591, Note_on_c, 5, 58, 79
37, 245773, Note_off_c, 5, 58, 0
37, 245831, Note_on_c, 5, 58, 84
37, 246029, Note_off_c, 5, 58, 0
37, 246085, Note_on_c, 5, 58, 79
37, 246267, Note_off_c, 5, 58, 0
37, 246323, Note_on_c, 5, 58, 80
37, 246504, Note_off_c, 5, 58, 0
37, 246560, Note_on_c, 5, 58, 79
37, 246743, Note_off_c, 5, 58, 0
37, 246799, Note_on_c, 5, 58, 82
37, 246982, Note_off_c, 5, 58, 0
37, 247038, Note_on_c, 5, 58, 79
37, 247218, Note_off_c, 5, 58, 0
37, 247275, Note_on_c, 5, 58, 80
37, 247455, Note_off_c, 5, 58, 0
37, 247511, Note_on_c, 5, 58, 79
37, 247693, Note_off_c, 5, 58, 0
37, 247751, Note_on_c, 5, 58, 84
37, 247949, Note_off_c, 5, 58, 0
37, 248005, Note_on_c, 5, 58, 79
37, 248187, Note_off_c, 5, 58, 0
37, 248243, Note_on_c, 5, 58, 80
37, 248424, Note_off_c, 5, 58, 0
37, 248480, Note_on_c, 5, 58, 79
37, 248712, Note_off_c, 5, 58, 0
37, 248719, Note_on_c, 5, 60, 82
37, 248902, Note_off_c, 5, 60, 0
37, 248958, Note_on_c, 5, 60, 79
37, 249138, Note_off_c, 5, 60, 0
37, 249195, Note_on_c, 5, 60, 80
37, 249375, Note_off_c, 5, 60, 0
37, 249431, Note_on_c, 5, 60, 79
37, 249662, Note_off_c, 5, 60, 0
37, 249671, Note_on_c, 5, 59, 84
37, 249869, Note_off_c, 5, 59, 0
37, 249925, Note_on_c, 5, 59, 79
37, 250107, Note_off_c, 5, 59, 0
37, 250163, Note_on_c, 5, 59, 80
37, 250344, Note_off_c, 5, 59, 0
37, 250400, Note_on_c, 5, 59, 79
37, 250583, Note_off_c, 5, 59, 0
37, 250639, Note_on_c, 5, 59, 82
37, 250822, Note_off_c, 5, 59, 0
37, 250878, Note_on_c, 5, 59, 79
37, 251058, Note_off_c, 5, 59, 0
37, 251115, Note_on_c, 5, 59, 80
37, 251295, Note_off_c, 5, 59, 0
37, 251351, Note_on_c, 5, 59, 79
37, 251533, Note_off_c, 5, 59, 0
37, 251591, Note_on_c, 5, 59, 84
37, 251789, Note_off_c, 5, 59, 0
37, 251845, Note_on_c, 5, 59, 79
37, 252027, Note_off_c, 5, 59, 0
37, 252083, Note_on_c, 5, 59, 80
37, 252264, Note_off_c, 5, 59, 0
37, 252320, Note_on_c, 5, 59, 79
37, 252552, Note_off_c, 5, 59, 0
37, 252559, Note_on_c, 5, 57, 82
37, 252742, Note_off_c, 5, 57, 0
37, 252798, Note_on_c, 5, 57, 79
37, 252978, Note_off_c, 5, 57, 0
37, 253035, Note_on_c, 5, 57, 80
37, 253215, Note_off_c, 5, 57, 0
37, 253271, Note_on_c, 5, 57, 79
37, 253502, Note_off_c, 5, 57, 0
37, 253511, Note_on_c, 5, 59, 84
37, 253709, Note_off_c, 5, 59, 0
37, 253765, Note_on_c, 5, 59, 79
37, 253947, Note_off_c, 5, 59, 0
37, 254003, Note_on_c, 5, 59, 80
37, 254184, Note_off_c, 5, 59, 0
37, 254240, Note_on_c, 5, 59, 79
37, 254423, Note_off_c, 5, 59, 0
37, 254479, Note_on_c, 5, 59, 82
37, 254662, Note_off_c, 5, 59, 0
37, 254718, Note_on_c, 5, 59, 79
37, 254898, Note_off_c, 5, 59, 0
37, 254955, Note_on_c, 5, 59, 80
37, 255135, Note_off_c, 5, 59, 0
37, 255191, Note_on_c, 5, 59, 79
37, 255373, Note_off_c, 5, 59, 0
37, 255431, Note_on_c, 5, 59, 84
37, 255629, Note_off_c, 5, 59, 0
37, 255685, Note_on_c, 5, 59, 79
37, 255867, Note_off_c, 5, 59, 0
37, 255923, Note_on_c, 5, 59, 80
37, 256104, Note_off_c, 5, 59, 0
37, 256160, Note_on_c, 5, 59, 79
37, 256392, Note_off_c, 5, 59, 0
37, 256399, Note_on_c, 5, 57, 82
37, 256582, Note_off_c, 5, 57, 0
37, 256638, Note_on_c, 5, 57, 79
37, 256818, Note_off_c, 5, 57, 0
37, 256875, Note_on_c, 5, 57, 80
37, 257055, Note_off_c, 5, 57, 0
37, 257111, Note_on_c, 5, 57, 79
37, 257342, Note_off_c, 5, 57, 0
37, 257351, Note_on_c, 5, 55, 96
37, 257802, Note_off_c, 5, 55, 0
37, 261191, Note_on_c, 5, 55, 115
37, 261443, Note_off_c, 5, 55, 0
37, 261683, Note_on_c, 5, 55, 112
37, 261792, Note_off_c, 5, 55, 0
37, 261843, Note_on_c, 5, 55, 111
37, 261946, Note_off_c, 5, 55, 0
37, 261997, Note_on_c, 5, 55, 111
37, 262108, Note_off_c, 5, 55, 0
37, 262159, Note_on_c, 5, 55, 126
37, 262593, Note_off_c, 5, 55, 0
37, 262593, End_track
38, 0, Start_track
38, 0, Title_t, "808 Rite 1"
38, 0, Instrument_name_t, "808 Rite 1"
38, 0, Program_c, 6, 27
38, 318981, Note_on_c, 6, 74, 80
38, 318998, Note_off_c, 6, 74, 0
38, 319000, Note_on_c, 6, 75, 80
38, 319017, Note_off_c, 6, 75, 0
38, 319020, Note_on_c, 6, 76, 80
38, 319037, Note_off_c, 6, 76, 0
38, 319041, Note_on_c, 6, 77, 80
38, 319058, Note_off_c, 6, 77, 0
38, 319060, Note_on_c, 6, 78, 80
38, 319077, Note_off_c, 6, 78, 0
38, 319080, Note_on_c, 6, 79, 80
38, 319097, Note_off_c, 6, 79, 0
38, 319101, Note_on_c, 6, 80, 80
38, 319118, Note_off_c, 6, 80, 0
38, 319120, Note_on_c, 6, 81, 80
38, 319137, Note_off_c, 6, 81, 0
38, 319140, Note_on_c, 6, 82, 80
38, 319157, Note_off_c, 6, 82, 0
38, 319161, Note_on_c, 6, 83, 80
38, 319178, Note_off_c, 6, 83, 0
38, 319180, Note_on_c, 6, 84, 80
38, 319197, Note_off_c, 6, 84, 0
38, 319200, Note_on_c, 6, 85, 80
38, 319217, Note_off_c, 6, 85, 0
38, 319221, Note_on_c, 6, 86, 80
38, 319496, Note_off_c, 6, 86, 0
38, 319496, End_track
39, 0, Start_track
39, 0, Title_t, "String Section"
39, 0, Instrument_name_t, "String Section"
39, 0, Program_c, 7, 48
39, 0, Note_on_c, 7, 55, 81
39, 0, Note_on_c, 7, 59, 81
39, 0, Note_on_c, 7, 64, 81
39, 720, Note_off_c, 7, 55, 0
39, 720, Note_off_c, 7, 59, 0
39, 720, Note_off_c, 7, 64, 0
39, 720, Note_on_c, 7, 57, 77
39, 720, Note_on_c, 7, 62, 77
39, 720, Note_on_c, 7, 66, 77
39, 1440, Note_off_c, 7, 57, 0
39, 1440, Note_off_c, 7, 62, 0
39, 1440, Note_off_c, 7, 66, 0
39, 1440, Note_on_c, 7, 59, 78
39, 1440, Note_on_c, 7, 64, 78
39, 1440, Note_on_c, 7, 67, 78
39, 2400, Note_off_c, 7, 59, 0
39, 2400, Note_off_c, 7, 64, 0
39, 2400, Note_off_c, 7, 67, 0
39, 2400, Note_on_c, 7, 52, 74
39, 2400, Note_on_c, 7, 64, 74
39, 2880, Note_off_c, 7, 52, 0
39, 2880, Note_off_c, 7, 64, 0
39, 2880, Note_on_c, 7, 55, 79
39, 2880, Note_on_c, 7, 67, 79
39, 3360, Note_off_c, 7, 55, 0
39, 3360, Note_off_c, 7, 67, 0
39, 3360, Note_on_c, 7, 62, 86
39, 3360, Note_on_c, 7, 74, 86
39, 3840, Note_on_c, 7, 73, 89
39, 3840, Note_off_c, 7, 62, 0
39, 3840, Note_off_c, 7, 74, 0
39, 3840, Note_on_c, 7, 64, 89
39, 3840, Note_on_c, 7, 69, 89
39, 4560, Note_off_c, 7, 69, 0
39, 4560, Note_off_c, 7, 64, 0
39, 4560, Note_off_c, 7, 73, 0
39, 4560, Note_on_c, 7, 59, 78
39, 4560, Note_on_c, 7, 71, 78
39, 5280, Note_off_c, 7, 59, 0
39, 5280, Note_off_c, 7, 71, 0
39, 5280, Note_on_c, 7, 61, 82
39, 5280, Note_on_c, 7, 73, 82
39, 5760, Note_off_c, 7, 61, 0
39, 5760, Note_off_c, 7, 73, 0
39, 5760, Note_on_c, 7, 69, 88
39, 5760, Note_on_c, 7, 73, 88
39, 5760, Note_on_c, 7, 76, 88
39, 7680, Note_off_c, 7, 69, 0
39, 7680, Note_off_c, 7, 73, 0
39, 7680, Note_off_c, 7, 76, 0
39, 7680, Note_on_c, 7, 64, 79
39, 7680, Note_on_c, 7, 69, 79
39, 7680, Note_on_c, 7, 72, 79
39, 8400, Note_off_c, 7, 64, 0
39, 8400, Note_off_c, 7, 69, 0
39, 8400, Note_off_c, 7, 72, 0
39, 8400, Note_on_c, 7, 59, 75
39, 8400, Note_on_c, 7, 67, 75
39, 8400, Note_on_c, 7, 71, 75
39, 9120, Note_on_c, 7, 69, 73
39, 9120, Note_off_c, 7, 59, 0
39, 9120, Note_off_c, 7, 67, 0
39, 9120, Note_off_c, 7, 71, 0
39, 9120, Note_on_c, 7, 62, 73
39, 9120, Note_on_c, 7, 66, 73
39, 10080, Note_off_c, 7, 62, 0
39, 10080, Note_off_c, 7, 66, 0
39, 10080, Note_off_c, 7, 69, 0
39, 10080, Note_on_c, 7, 55, 73
39, 10080, Note_on_c, 7, 67, 73
39, 10560, Note_off_c, 7, 55, 0
39, 10560, Note_off_c, 7, 67, 0
39, 10560, Note_on_c, 7, 57, 76
39, 10560, Note_on_c, 7, 69, 76
39, 11040, Note_off_c, 7, 57, 0
39, 11040, Note_on_c, 7, 59, 80
39, 11040, Note_on_c, 7, 71, 80
39, 11040, Note_off_c, 7, 69, 0
39, 11520, Note_off_c, 7, 59, 0
39, 11520, Note_off_c, 7, 71, 0
39, 11520, Note_on_c, 7, 60, 80
39, 11520, Note_on_c, 7, 64, 80
39, 11520, Note_on_c, 7, 69, 80
39, 12240, Note_on_c, 7, 55, 72
39, 12240, Note_off_c, 7, 60, 0
39, 12240, Note_off_c, 7, 64, 0
39, 12240, Note_on_c, 7, 67, 72
39, 12240, Note_off_c, 7, 69, 0
39, 12960, Note_off_c, 7, 55, 0
39, 12960, Note_off_c, 7, 67, 0
39, 12960, Note_on_c, 7, 57, 79
39, 12960, Note_on_c, 7, 62, 79
39, 12960, Note_on_c, 7, 66, 79
39, 12960, Note_on_c, 7, 69, 79
39, 13440, Note_on_c, 7, 66, 76
39, 13440, Note_off_c, 7, 57, 0
39, 13440, Note_off_c, 7, 62, 0
39, 13440, Note_off_c, 7, 66, 0
39, 13440, Note_on_c, 7, 54, 76
39, 13440, Note_off_c, 7, 69, 0
39, 14160, Note_off_c, 7, 54, 0
39, 14160, Note_off_c, 7, 66, 0
39, 14160, Note_on_c, 7, 57, 78
39, 14160, Note_on_c, 7, 69, 78
39, 14880, Note_off_c, 7, 57, 0
39, 14880, Note_off_c, 7, 69, 0
39, 14880, Note_on_c, 7, 62, 86
39, 14880, Note_on_c, 7, 74, 86
39, 15360, Note_off_c, 7, 62, 0
39, 15360, Note_off_c, 7, 74, 0
39, 15360, Note_on_c, 7, 64, 91
39, 15360, Note_on_c, 7, 69, 91
39, 15360, Note_on_c, 7, 76, 91
39, 23040, Note_off_c, 7, 64, 0
39, 23040, Note_off_c, 7, 69, 0
39, 23040, Note_off_c, 7, 76, 0
39, 23040, Note_on_c, 7, 55, 81
39, 24000, Note_off_c, 7, 55, 0
39, 24000, Note_on_c, 7, 57, 77
39, 24960, Note_off_c, 7, 57, 0
39, 24960, Note_on_c, 7, 54, 78
39, 26400, Note_on_c, 7, 52, 74
39, 26400, Note_off_c, 7, 54, 0
39, 26640, Note_off_c, 7, 52, 0
39, 26640, Note_on_c, 7, 54, 77
39, 26880, Note_on_c, 7, 55, 83
39, 26880, Note_off_c, 7, 54, 0
39, 27600, Note_off_c, 7, 55, 0
39, 27600, Note_on_c, 7, 57, 81
39, 28320, Note_on_c, 7, 59, 84
39, 28320, Note_off_c, 7, 57, 0
39, 28800, Note_on_c, 7, 57, 82
39, 28800, Note_off_c, 7, 59, 0
39, 30720, Note_on_c, 7, 55, 79
39, 30720, Note_off_c, 7, 57, 0
39, 31680, Note_off_c, 7, 55, 0
39, 31680, Note_on_c, 7, 57, 77
39, 32640, Note_on_c, 7, 54, 77
39, 32640, Note_off_c, 7, 57, 0
39, 33360, Note_off_c, 7, 54, 0
39, 33360, Note_on_c, 7, 52, 73
39, 34080, Note_on_c, 7, 50, 75
39, 34080, Note_off_c, 7, 52, 0
39, 34560, Note_on_c, 7, 52, 82
39, 34560, Note_off_c, 7, 50, 0
39, 38400, Note_off_c, 7, 52, 0
39, 38400, Note_on_c, 7, 55, 81
39, 39360, Note_off_c, 7, 55, 0
39, 39360, Note_on_c, 7, 57, 77
39, 40320, Note_off_c, 7, 57, 0
39, 40320, Note_on_c, 7, 54, 78
39, 41760, Note_off_c, 7, 54, 0
39, 41760, Note_on_c, 7, 52, 74
39, 42000, Note_on_c, 7, 54, 77
39, 42000, Note_off_c, 7, 52, 0
39, 42240, Note_on_c, 7, 55, 83
39, 42240, Note_off_c, 7, 54, 0
39, 42960, Note_on_c, 7, 57, 81
39, 42960, Note_off_c, 7, 55, 0
39, 43680, Note_on_c, 7, 59, 84
39, 43680, Note_off_c, 7, 57, 0
39, 44160, Note_on_c, 7, 57, 82
39, 44160, Note_off_c, 7, 59, 0
39, 44880, Note_on_c, 7, 54, 72
39, 44880, Note_off_c, 7, 57, 0
39, 45600, Note_off_c, 7, 54, 0
39, 45600, Note_on_c, 7, 50, 71
39, 46080, Note_off_c, 7, 50, 0
39, 46080, Note_on_c, 7, 52, 79
39, 48000, Note_off_c, 7, 52, 0
39, 48000, Note_on_c, 7, 52, 79
39, 48720, Note_off_c, 7, 52, 0
39, 48720, Note_on_c, 7, 54, 78
39, 49440, Note_off_c, 7, 54, 0
39, 49440, Note_on_c, 7, 55, 81
39, 49920, Note_off_c, 7, 55, 0
39, 49920, Note_on_c, 7, 57, 87
39, 50880, Note_off_c, 7, 57, 0
39, 50880, Note_on_c, 7, 53, 74
39, 51840, Note_on_c, 7, 59, 85
39, 51840, Note_off_c, 7, 53, 0
39, 53760, Note_on_c, 7, 79, 87
39, 53760, Note_on_c, 7, 67, 81
39, 53760, Note_on_c, 7, 55, 81
39, 53760, Note_off_c, 7, 59, 0
39, 54720, Note_on_c, 7, 81, 80
39, 54720, Note_on_c, 7, 69, 77
39, 54720, Note_on_c, 7, 57, 77
39, 54720, Note_off_c, 7, 79, 0
39, 54720, Note_off_c, 7, 55, 0
39, 54720, Note_off_c, 7, 67, 0
39, 55680, Note_on_c, 7, 78, 78
39, 55680, Note_on_c, 7, 66, 78
39, 55680, Note_on_c, 7, 54, 78
39, 55680, Note_off_c, 7, 81, 0
39, 55680, Note_off_c, 7, 57, 0
39, 55680, Note_off_c, 7, 69, 0
39, 57120, Note_on_c, 7, 52, 74
39, 57120, Note_on_c, 7, 76, 74
39, 57120, Note_on_c, 7, 64, 74
39, 57120, Note_off_c, 7, 66, 0
39, 57120, Note_off_c, 7, 54, 0
39, 57120, Note_off_c, 7, 78, 0
39, 57360, Note_on_c, 7, 66, 77
39, 57360, Note_off_c, 7, 64, 0
39, 57360, Note_on_c, 7, 54, 77
39, 57360, Note_off_c, 7, 52, 0
39, 57360, Note_off_c, 7, 76, 0
39, 57360, Note_on_c, 7, 78, 77
39, 57600, Note_off_c, 7, 54, 0
39, 57600, Note_on_c, 7, 79, 83
39, 57600, Note_on_c, 7, 67, 83
39, 57600, Note_on_c, 7, 55, 83
39, 57600, Note_off_c, 7, 66, 0
39, 57600, Note_off_c, 7, 78, 0
39, 58320, Note_off_c, 7, 55, 0
39, 58320, Note_on_c, 7, 69, 81
39, 58320, Note_on_c, 7, 57, 81
39, 58320, Note_off_c, 7, 79, 0
39, 58320, Note_on_c, 7, 81, 81
39, 58320, Note_off_c, 7, 67, 0
39, 59040, Note_on_c, 7, 83, 84
39, 59040, Note_off_c, 7, 81, 0
39, 59040, Note_off_c, 7, 69, 0
39, 59040, Note_on_c, 7, 71, 84
39, 59040, Note_off_c, 7, 57, 0
39, 59040, Note_on_c, 7, 59, 84
39, 59520, Note_on_c, 7, 81, 82
39, 59520, Note_off_c, 7, 83, 0
39, 59520, Note_off_c, 7, 71, 0
39, 59520, Note_off_c, 7, 59, 0
39, 59520, Note_on_c, 7, 69, 82
39, 59520, Note_on_c, 7, 57, 82
39, 61440, Note_off_c, 7, 57, 0
39, 61440, Note_off_c, 7, 81, 0
39, 61440, Note_on_c, 7, 55, 79
39, 61440, Note_on_c, 7, 67, 79
39, 61440, Note_on_c, 7, 79, 79
39, 61440, Note_off_c, 7, 69, 0
39, 62400, Note_off_c, 7, 55, 0
39, 62400, Note_off_c, 7, 67, 0
39, 62400, Note_off_c, 7, 79, 0
39, 62400, Note_on_c, 7, 57, 77
39, 62400, Note_on_c, 7, 69, 77
39, 62400, Note_on_c, 7, 81, 77
39, 63360, Note_off_c, 7, 69, 0
39, 63360, Note_off_c, 7, 81, 0
39, 63360, Note_on_c, 7, 54, 77
39, 63360, Note_on_c, 7, 66, 77
39, 63360, Note_on_c, 7, 78, 77
39, 63360, Note_off_c, 7, 57, 0
39, 64080, Note_on_c, 7, 64, 73
39, 64080, Note_on_c, 7, 76, 73
39, 64080, Note_off_c, 7, 54, 0
39, 64080, Note_off_c, 7, 66, 0
39, 64080, Note_off_c, 7, 78, 0
39, 64080, Note_on_c, 7, 52, 73
39, 64800, Note_on_c, 7, 74, 74
39, 64800, Note_on_c, 7, 62, 74
39, 64800, Note_on_c, 7, 50, 74
39, 64800, Note_off_c, 7, 76, 0
39, 64800, Note_off_c, 7, 64, 0
39, 64800, Note_off_c, 7, 52, 0
39, 65280, Note_on_c, 7, 76, 82
39, 65280, Note_on_c, 7, 64, 82
39, 65280, Note_on_c, 7, 52, 82
39, 65280, Note_off_c, 7, 62, 0
39, 65280, Note_off_c, 7, 74, 0
39, 65280, Note_off_c, 7, 50, 0
39, 69120, Note_on_c, 7, 67, 81
39, 69120, Note_off_c, 7, 52, 0
39, 69120, Note_off_c, 7, 64, 0
39, 69120, Note_off_c, 7, 76, 0
39, 69120, Note_on_c, 7, 55, 81
39, 69120, Note_on_c, 7, 79, 81
39, 70080, Note_off_c, 7, 55, 0
39, 70080, Note_on_c, 7, 69, 77
39, 70080, Note_on_c, 7, 57, 77
39, 70080, Note_off_c, 7, 79, 0
39, 70080, Note_off_c, 7, 67, 0
39, 70080, Note_on_c, 7, 81, 77
39, 71040, Note_on_c, 7, 78, 78
39, 71040, Note_on_c, 7, 66, 78
39, 71040, Note_on_c, 7, 54, 78
39, 71040, Note_off_c, 7, 81, 0
39, 71040, Note_off_c, 7, 69, 0
39, 71040, Note_off_c, 7, 57, 0
39, 72480, Note_off_c, 7, 78, 0
39, 72480, Note_on_c, 7, 76, 74
39, 72480, Note_off_c, 7, 66, 0
39, 72480, Note_off_c, 7, 54, 0
39, 72480, Note_on_c, 7, 52, 74
39, 72480, Note_on_c, 7, 64, 74
39, 72720, Note_off_c, 7, 52, 0
39, 72720, Note_off_c, 7, 64, 0
39, 72720, Note_off_c, 7, 76, 0
39, 72720, Note_on_c, 7, 54, 77
39, 72720, Note_on_c, 7, 66, 77
39, 72720, Note_on_c, 7, 78, 77
39, 72960, Note_on_c, 7, 67, 83
39, 72960, Note_on_c, 7, 79, 83
39, 72960, Note_off_c, 7, 66, 0
39, 72960, Note_off_c, 7, 78, 0
39, 72960, Note_on_c, 7, 55, 83
39, 72960, Note_off_c, 7, 54, 0
39, 73680, Note_on_c, 7, 81, 81
39, 73680, Note_on_c, 7, 69, 81
39, 73680, Note_on_c, 7, 57, 81
39, 73680, Note_off_c, 7, 79, 0
39, 73680, Note_off_c, 7, 67, 0
39, 73680, Note_off_c, 7, 55, 0
39, 74400, Note_on_c, 7, 83, 84
39, 74400, Note_off_c, 7, 69, 0
39, 74400, Note_off_c, 7, 81, 0
39, 74400, Note_on_c, 7, 59, 84
39, 74400, Note_off_c, 7, 57, 0
39, 74400, Note_on_c, 7, 71, 84
39, 74880, Note_off_c, 7, 71, 0
39, 74880, Note_on_c, 7, 69, 82
39, 74880, Note_off_c, 7, 59, 0
39, 74880, Note_on_c, 7, 81, 82
39, 74880, Note_on_c, 7, 57, 82
39, 74880, Note_off_c, 7, 83, 0
39, 75600, Note_on_c, 7, 78, 72
39, 75600, Note_on_c, 7, 54, 72
39, 75600, Note_off_c, 7, 81, 0
39, 75600, Note_off_c, 7, 69, 0
39, 75600, Note_off_c, 7, 57, 0
39, 75600, Note_on_c, 7, 66, 72
39, 76320, Note_on_c, 7, 74, 69
39, 76320, Note_off_c, 7, 78, 0
39, 76320, Note_on_c, 7, 62, 69
39, 76320, Note_off_c, 7, 66, 0
39, 76320, Note_off_c, 7, 54, 0
39, 76320, Note_on_c, 7, 50, 69
39, 76800, Note_off_c, 7, 62, 0
39, 76800, Note_off_c, 7, 74, 0
39, 76800, Note_on_c, 7, 64, 78
39, 76800, Note_on_c, 7, 52, 78
39, 76800, Note_off_c, 7, 50, 0
39, 76800, Note_on_c, 7, 76, 78
39, 78720, Note_off_c, 7, 52, 0
39, 78720, Note_off_c, 7, 64, 0
39, 78720, Note_off_c, 7, 76, 0
39, 78720, Note_on_c, 7, 52, 79
39, 78720, Note_on_c, 7, 64, 79
39, 78720, Note_on_c, 7, 76, 79
39, 79440, Note_on_c, 7, 66, 78
39, 79440, Note_on_c, 7, 78, 78
39, 79440, Note_off_c, 7, 52, 0
39, 79440, Note_off_c, 7, 64, 0
39, 79440, Note_on_c, 7, 54, 78
39, 79440, Note_off_c, 7, 76, 0
39, 80160, Note_on_c, 7, 79, 81
39, 80160, Note_on_c, 7, 67, 81
39, 80160, Note_off_c, 7, 78, 0
39, 80160, Note_off_c, 7, 66, 0
39, 80160, Note_on_c, 7, 55, 81
39, 80160, Note_off_c, 7, 54, 0
39, 80640, Note_off_c, 7, 79, 0
39, 80640, Note_on_c, 7, 57, 87
39, 80640, Note_on_c, 7, 69, 87
39, 80640, Note_on_c, 7, 81, 87
39, 80640, Note_off_c, 7, 55, 0
39, 80640, Note_off_c, 7, 67, 0
39, 81600, Note_off_c, 7, 57, 0
39, 81600, Note_off_c, 7, 69, 0
39, 81600, Note_on_c, 7, 62, 84
39, 81600, Note_on_c, 7, 74, 84
39, 81600, Note_on_c, 7, 86, 84
39, 81600, Note_off_c, 7, 81, 0
39, 82560, Note_off_c, 7, 74, 0
39, 82560, Note_off_c, 7, 86, 0
39, 82560, Note_off_c, 7, 62, 0
39, 82560, Note_on_c, 7, 71, 80
39, 82560, Note_on_c, 7, 83, 80
39, 82560, Note_on_c, 7, 59, 80
39, 84480, Note_off_c, 7, 59, 0
39, 84480, Note_off_c, 7, 71, 0
39, 84480, Note_off_c, 7, 83, 0
39, 84480, Note_on_c, 7, 84, 81
39, 84480, Note_on_c, 7, 81, 81
39, 84480, Note_on_c, 7, 76, 81
39, 88320, Note_off_c, 7, 76, 0
39, 88320, Note_off_c, 7, 84, 0
39, 88320, Note_on_c, 7, 79, 81
39, 88320, Note_on_c, 7, 83, 81
39, 88320, Note_on_c, 7, 86, 81
39, 88320, Note_off_c, 7, 81, 0
39, 92160, Note_off_c, 7, 79, 0
39, 92160, Note_off_c, 7, 83, 0
39, 92160, Note_off_c, 7, 86, 0
39, 92160, Note_on_c, 7, 83, 81
39, 92160, Note_on_c, 7, 86, 81
39, 92160, Note_on_c, 7, 91, 81
39, 96000, Note_off_c, 7, 83, 0
39, 96000, Note_on_c, 7, 83, 80
39, 96000, Note_off_c, 7, 86, 0
39, 96000, Note_off_c, 7, 91, 0
39, 96000, Note_on_c, 7, 79, 80
39, 96000, Note_on_c, 7, 76, 80
39, 99840, Note_on_c, 7, 72, 81
39, 99840, Note_off_c, 7, 79, 0
39, 99840, Note_off_c, 7, 76, 0
39, 99840, Note_on_c, 7, 76, 81
39, 99840, Note_on_c, 7, 81, 81
39, 99840, Note_off_c, 7, 83, 0
39, 103680, Note_off_c, 7, 72, 0
39, 103680, Note_off_c, 7, 76, 0
39, 103680, Note_off_c, 7, 81, 0
39, 103680, Note_on_c, 7, 71, 81
39, 103680, Note_on_c, 7, 75, 81
39, 103680, Note_on_c, 7, 78, 81
39, 107520, Note_on_c, 7, 74, 81
39, 107520, Note_off_c, 7, 71, 0
39, 107520, Note_off_c, 7, 75, 0
39, 107520, Note_off_c, 7, 78, 0
39, 107520, Note_on_c, 7, 69, 81
39, 107520, Note_on_c, 7, 78, 81
39, 107520, Note_on_c, 7, 81, 81
39, 111360, Note_off_c, 7, 69, 0
39, 111360, Note_off_c, 7, 74, 0
39, 111360, Note_off_c, 7, 78, 0
39, 111360, Note_off_c, 7, 81, 0
39, 111360, End_track
40, 0, Start_track
40, 0, Title_t, "Big Band Trumpet"
40, 0, Instrument_name_t, "Big Band Trumpet"
40, 0, Program_c, 8, 0
40, 280645, Note_on_c, 8, 67, 112
40, 280645, Note_on_c, 8, 64, 112
40, 280645, Note_on_c, 8, 72, 112
40, 280836, Note_off_c, 8, 64, 0
40, 280836, Note_off_c, 8, 67, 0
40, 280836, Note_off_c, 8, 72, 0
40, 282565, Note_on_c, 8, 69, 112
40, 282565, Note_on_c, 8, 72, 112
40, 282565, Note_on_c, 8, 75, 112
40, 282756, Note_off_c, 8, 69, 0
40, 282756, Note_off_c, 8, 72, 0
40, 282756, Note_off_c, 8, 75, 0
40, 285637, Note_on_c, 8, 63, 112
40, 285637, Note_on_c, 8, 67, 112
40, 285924, Note_off_c, 8, 63, 0
40, 285924, Note_off_c, 8, 67, 0
40, 285925, Note_on_c, 8, 62, 112
40, 285925, Note_on_c, 8, 65, 112
40, 286399, Note_off_c, 8, 62, 0
40, 286399, Note_off_c, 8, 65, 0
40, 286405, Note_on_c, 8, 60, 112
40, 286405, Note_on_c, 8, 64, 112
40, 287361, Note_off_c, 8, 60, 0
40, 287361, Note_off_c, 8, 64, 0
40, 291684, Note_on_c, 8, 67, 112
40, 291684, Note_on_c, 8, 72, 112
40, 291684, Note_on_c, 8, 76, 112
40, 292355, Note_off_c, 8, 67, 0
40, 292355, Note_off_c, 8, 72, 0
40, 292355, Note_off_c, 8, 76, 0
40, 292644, Note_on_c, 8, 64, 112
40, 292644, Note_on_c, 8, 69, 112
40, 292644, Note_on_c, 8, 72, 112
40, 293315, Note_off_c, 8, 69, 0
40, 293315, Note_off_c, 8, 72, 0
40, 293315, Note_off_c, 8, 64, 0
40, 293604, Note_on_c, 8, 65, 112
40, 293604, Note_on_c, 8, 69, 112
40, 293604, Note_on_c, 8, 74, 112
40, 294275, Note_off_c, 8, 65, 0
40, 294275, Note_off_c, 8, 69, 0
40, 294275, Note_off_c, 8, 74, 0
40, 294564, Note_on_c, 8, 71, 112
40, 294564, Note_on_c, 8, 74, 112
40, 294564, Note_on_c, 8, 79, 112
40, 294564, Note_on_c, 8, 67, 112
40, 295235, Note_off_c, 8, 74, 0
40, 295235, Note_off_c, 8, 67, 0
40, 295235, Note_off_c, 8, 79, 0
40, 295235, Note_off_c, 8, 71, 0
40, 296005, Note_on_c, 8, 64, 112
40, 296005, Note_on_c, 8, 72, 112
40, 296005, Note_on_c, 8, 67, 112
40, 296196, Note_off_c, 8, 64, 0
40, 296196, Note_off_c, 8, 67, 0
40, 296196, Note_off_c, 8, 72, 0
40, 297925, Note_on_c, 8, 69, 112
40, 297925, Note_on_c, 8, 72, 112
40, 297925, Note_on_c, 8, 75, 112
40, 298116, Note_off_c, 8, 69, 0
40, 298116, Note_off_c, 8, 72, 0
40, 298116, Note_off_c, 8, 75, 0
40, 300997, Note_on_c, 8, 69, 112
40, 300997, Note_on_c, 8, 64, 112
40, 301284, Note_off_c, 8, 69, 0
40, 301284, Note_off_c, 8, 64, 0
40, 301285, Note_on_c, 8, 68, 112
40, 301285, Note_on_c, 8, 64, 112
40, 301476, Note_off_c, 8, 68, 0
40, 301476, Note_off_c, 8, 64, 0
40, 301477, Note_on_c, 8, 69, 112
40, 301477, Note_on_c, 8, 64, 112
40, 301764, Note_off_c, 8, 69, 0
40, 301764, Note_off_c, 8, 64, 0
40, 301765, Note_on_c, 8, 67, 112
40, 301765, Note_on_c, 8, 71, 112
40, 301956, Note_off_c, 8, 71, 0
40, 301956, Note_off_c, 8, 67, 0
40, 301957, Note_on_c, 8, 69, 112
40, 301957, Note_on_c, 8, 73, 112
40, 302244, Note_off_c, 8, 69, 0
40, 302244, Note_off_c, 8, 73, 0
40, 302245, Note_on_c, 8, 64, 112
40, 302245, Note_on_c, 8, 69, 112
40, 302719, Note_off_c, 8, 64, 0
40, 302719, Note_off_c, 8, 69, 0
40, 302917, Note_on_c, 8, 65, 112
40, 302917, Note_on_c, 8, 62, 112
40, 303876, Note_off_c, 8, 65, 0
40, 303876, Note_off_c, 8, 62, 0
40, 303877, Note_on_c, 8, 57, 112
40, 303877, Note_on_c, 8, 62, 112
40, 304836, Note_off_c, 8, 57, 0
40, 304836, Note_off_c, 8, 62, 0
40, 304837, Note_on_c, 8, 62, 112
40, 304837, Note_on_c, 8, 67, 112
40, 305796, Note_off_c, 8, 62, 0
40, 305796, Note_off_c, 8, 67, 0
40, 305797, Note_on_c, 8, 67, 112
40, 305797, Note_on_c, 8, 71, 112
40, 306756, Note_off_c, 8, 67, 0
40, 306756, Note_off_c, 8, 71, 0
40, 307045, Note_on_c, 8, 64, 112
40, 307045, Note_on_c, 8, 76, 112
40, 307236, Note_off_c, 8, 64, 0
40, 307236, Note_off_c, 8, 76, 0
40, 307717, Note_on_c, 8, 64, 112
40, 307717, Note_on_c, 8, 76, 112
40, 308196, Note_off_c, 8, 64, 0
40, 308196, Note_off_c, 8, 76, 0
40, 308197, Note_on_c, 8, 65, 112
40, 308197, Note_on_c, 8, 77, 112
40, 308484, Note_off_c, 8, 65, 0
40, 308484, Note_off_c, 8, 77, 0
40, 308485, Note_on_c, 8, 66, 112
40, 308485, Note_on_c, 8, 78, 112
40, 308676, Note_off_c, 8, 78, 0
40, 308676, Note_off_c, 8, 66, 0
40, 308677, Note_on_c, 8, 79, 112
40, 308677, Note_on_c, 8, 67, 112
40, 308964, Note_off_c, 8, 67, 0
40, 308964, Note_off_c, 8, 79, 0
40, 308965, Note_on_c, 8, 66, 112
40, 308965, Note_on_c, 8, 78, 112
40, 309156, Note_off_c, 8, 66, 0
40, 309156, Note_off_c, 8, 78, 0
40, 309157, Note_on_c, 8, 79, 112
40, 309157, Note_on_c, 8, 67, 112
40, 309444, Note_off_c, 8, 67, 0
40, 309444, Note_off_c, 8, 79, 0
40, 309445, Note_on_c, 8, 70, 112
40, 309445, Note_on_c, 8, 82, 112
40, 310401, Note_off_c, 8, 82, 0
40, 310401, Note_off_c, 8, 70, 0
40, 310597, Note_on_c, 8, 65, 112
40, 310597, Note_on_c, 8, 69, 112
40, 311076, Note_off_c, 8, 65, 0
40, 311076, Note_off_c, 8, 69, 0
40, 312325, Note_on_c, 8, 67, 112
40, 312325, Note_on_c, 8, 71, 112
40, 312804, Note_off_c, 8, 71, 0
40, 312804, Note_off_c, 8, 67, 0
40, 312997, Note_on_c, 8, 71, 112
40, 312997, Note_on_c, 8, 67, 112
40, 313956, Note_off_c, 8, 67, 0
40, 313956, Note_off_c, 8, 71, 0
40, 313957, Note_on_c, 8, 67, 112
40, 313957, Note_on_c, 8, 71, 112
40, 314436, Note_off_c, 8, 71, 0
40, 314436, Note_off_c, 8, 67, 0
40, 316357, Note_on_c, 8, 69, 112
40, 316644, Note_off_c, 8, 69, 0
40, 316645, Note_on_c, 8, 68, 112
40, 316836, Note_off_c, 8, 68, 0
40, 316837, Note_on_c, 8, 69, 112
40, 317124, Note_off_c, 8, 69, 0
40, 317125, Note_on_c, 8, 76, 112
40, 318081, Note_off_c, 8, 76, 0
40, 318277, Note_on_c, 8, 74, 112
40, 318277, Note_on_c, 8, 69, 112
40, 318277, Note_on_c, 8, 65, 112
40, 318756, Note_off_c, 8, 65, 0
40, 318756, Note_off_c, 8, 74, 0
40, 318756, Note_off_c, 8, 69, 0
40, 320197, Note_on_c, 8, 69, 112
40, 320197, Note_on_c, 8, 74, 112
40, 320197, Note_on_c, 8, 65, 112
40, 320676, Note_off_c, 8, 65, 0
40, 320676, Note_off_c, 8, 69, 0
40, 320676, Note_off_c, 8, 74, 0
40, 322117, Note_on_c, 8, 67, 112
40, 322117, Note_on_c, 8, 71, 112
40, 322117, Note_on_c, 8, 62, 112
40, 324036, Note_off_c, 8, 67, 0
40, 324036, Note_off_c, 8, 71, 0
40, 324036, Note_off_c, 8, 62, 0
40, 328357, Note_on_c, 8, 60, 112
40, 328836, Note_off_c, 8, 60, 0
40, 328837, Note_on_c, 8, 63, 112
40, 329316, Note_off_c, 8, 63, 0
40, 329317, Note_on_c, 8, 60, 112
40, 329604, Note_off_c, 8, 60, 0
40, 329605, Note_on_c, 8, 65, 112
40, 329605, Note_on_c, 8, 70, 112
40, 329797, Note_off_c, 8, 65, 0
40, 329797, Note_off_c, 8, 70, 0
40, 330277, Note_on_c, 8, 65, 112
40, 330277, Note_on_c, 8, 68, 112
40, 330756, Note_off_c, 8, 68, 0
40, 330756, Note_off_c, 8, 65, 0
40, 330757, Note_on_c, 8, 67, 112
40, 330757, Note_on_c, 8, 63, 112
40, 331236, Note_off_c, 8, 67, 0
40, 331236, Note_off_c, 8, 63, 0
40, 331237, Note_on_c, 8, 68, 112
40, 331237, Note_on_c, 8, 65, 112
40, 331524, Note_off_c, 8, 65, 0
40, 331524, Note_off_c, 8, 68, 0
40, 331525, Note_on_c, 8, 70, 112
40, 331525, Note_on_c, 8, 65, 112
40, 333156, Note_off_c, 8, 65, 0
40, 333156, Note_off_c, 8, 70, 0
40, 333445, Note_on_c, 8, 67, 112
40, 333445, Note_on_c, 8, 70, 112
40, 334116, Note_off_c, 8, 67, 0
40, 334116, Note_off_c, 8, 70, 0
40, 334117, Note_on_c, 8, 63, 112
40, 334117, Note_on_c, 8, 68, 112
40, 334596, Note_off_c, 8, 68, 0
40, 334596, Note_off_c, 8, 63, 0
40, 334597, Note_on_c, 8, 67, 112
40, 334597, Note_on_c, 8, 63, 112
40, 334884, Note_off_c, 8, 67, 0
40, 334884, Note_off_c, 8, 63, 0
40, 334885, Note_on_c, 8, 68, 112
40, 334885, Note_on_c, 8, 63, 112
40, 335359, Note_off_c, 8, 68, 0
40, 335359, Note_off_c, 8, 63, 0
40, 335365, Note_on_c, 8, 64, 112
40, 335365, Note_on_c, 8, 67, 112
40, 335365, Note_on_c, 8, 70, 112
40, 336996, Note_off_c, 8, 70, 0
40, 336996, Note_off_c, 8, 67, 0
40, 336996, Note_off_c, 8, 64, 0
40, 337285, Note_on_c, 8, 70, 112
40, 337285, Note_on_c, 8, 65, 112
40, 337956, Note_off_c, 8, 70, 0
40, 337956, Note_off_c, 8, 65, 0
40, 337957, Note_on_c, 8, 68, 112
40, 337957, Note_on_c, 8, 63, 112
40, 338436, Note_off_c, 8, 68, 0
40, 338436, Note_off_c, 8, 63, 0
40, 338437, Note_on_c, 8, 67, 112
40, 338437, Note_on_c, 8, 65, 112
40, 338916, Note_off_c, 8, 67, 0
40, 338916, Note_off_c, 8, 65, 0
40, 338917, Note_on_c, 8, 68, 112
40, 338917, Note_on_c, 8, 65, 112
40, 339204, Note_off_c, 8, 68, 0
40, 339204, Note_off_c, 8, 65, 0
40, 339205, Note_on_c, 8, 67, 112
40, 339205, Note_on_c, 8, 70, 112
40, 339876, Note_off_c, 8, 67, 0
40, 339876, Note_off_c, 8, 70, 0
40, 339877, Note_on_c, 8, 65, 112
40, 339877, Note_on_c, 8, 68, 112
40, 340356, Note_off_c, 8, 65, 0
40, 340356, Note_off_c, 8, 68, 0
40, 340357, Note_on_c, 8, 62, 112
40, 340357, Note_on_c, 8, 67, 112
40, 340836, Note_off_c, 8, 62, 0
40, 340836, Note_off_c, 8, 67, 0
40, 340837, Note_on_c, 8, 62, 112
40, 340837, Note_on_c, 8, 65, 112
40, 341124, Note_off_c, 8, 62, 0
40, 341124, Note_off_c, 8, 65, 0
40, 341125, Note_on_c, 8, 62, 112
40, 341125, Note_on_c, 8, 67, 112
40, 341796, Note_off_c, 8, 62, 0
40, 341796, Note_off_c, 8, 67, 0
40, 341797, Note_on_c, 8, 62, 112
40, 341797, Note_on_c, 8, 67, 112
40, 342276, Note_off_c, 8, 62, 0
40, 342276, Note_off_c, 8, 67, 0
40, 342277, Note_on_c, 8, 61, 112
40, 342277, Note_on_c, 8, 65, 112
40, 342564, Note_off_c, 8, 61, 0
40, 342564, Note_off_c, 8, 65, 0
40, 342565, Note_on_c, 8, 63, 112
40, 342565, Note_on_c, 8, 67, 112
40, 342756, Note_off_c, 8, 63, 0
40, 342756, Note_off_c, 8, 67, 0
40, 342757, Note_on_c, 8, 73, 112
40, 342757, Note_on_c, 8, 65, 112
40, 343044, Note_off_c, 8, 65, 0
40, 343045, Note_on_c, 8, 67, 112
40, 343236, Note_off_c, 8, 67, 0
40, 343236, Note_off_c, 8, 73, 0
40, 343237, Note_on_c, 8, 72, 112
40, 343237, Note_on_c, 8, 67, 112
40, 343237, Note_on_c, 8, 64, 112
40, 343476, Note_off_c, 8, 72, 0
40, 343476, Note_off_c, 8, 67, 0
40, 343476, Note_off_c, 8, 64, 0
40, 343717, Note_on_c, 8, 60, 112
40, 344196, Note_off_c, 8, 60, 0
40, 344197, Note_on_c, 8, 63, 112
40, 344484, Note_off_c, 8, 63, 0
40, 344485, Note_on_c, 8, 60, 112
40, 344959, Note_off_c, 8, 60, 0
40, 344965, Note_on_c, 8, 70, 112
40, 344965, Note_on_c, 8, 65, 112
40, 345636, Note_off_c, 8, 70, 0
40, 345636, Note_off_c, 8, 65, 0
40, 345637, Note_on_c, 8, 68, 112
40, 345637, Note_on_c, 8, 65, 112
40, 346116, Note_off_c, 8, 68, 0
40, 346116, Note_off_c, 8, 65, 0
40, 346117, Note_on_c, 8, 67, 112
40, 346117, Note_on_c, 8, 65, 112
40, 346404, Note_off_c, 8, 67, 0
40, 346404, Note_off_c, 8, 65, 0
40, 346405, Note_on_c, 8, 68, 112
40, 346405, Note_on_c, 8, 65, 112
40, 346879, Note_off_c, 8, 68, 0
40, 346879, Note_off_c, 8, 65, 0
40, 346885, Note_on_c, 8, 70, 112
40, 346885, Note_on_c, 8, 65, 112
40, 348036, Note_off_c, 8, 65, 0
40, 348036, Note_off_c, 8, 70, 0
40, 348517, Note_on_c, 8, 63, 112
40, 348517, Note_on_c, 8, 67, 112
40, 348996, Note_off_c, 8, 63, 0
40, 348996, Note_off_c, 8, 67, 0
40, 348997, Note_on_c, 8, 67, 112
40, 348997, Note_on_c, 8, 70, 112
40, 349476, Note_off_c, 8, 67, 0
40, 349476, Note_off_c, 8, 70, 0
40, 349477, Note_on_c, 8, 67, 112
40, 349477, Note_on_c, 8, 72, 112
40, 349956, Note_off_c, 8, 67, 0
40, 349956, Note_off_c, 8, 72, 0
40, 349957, Note_on_c, 8, 70, 112
40, 349957, Note_on_c, 8, 74, 112
40, 350436, Note_off_c, 8, 70, 0
40, 350436, Note_off_c, 8, 74, 0
40, 350437, Note_on_c, 8, 70, 112
40, 350437, Note_on_c, 8, 75, 112
40, 350916, Note_off_c, 8, 70, 0
40, 350916, Note_off_c, 8, 75, 0
40, 350917, Note_on_c, 8, 67, 112
40, 350917, Note_on_c, 8, 70, 112
40, 350917, Note_on_c, 8, 74, 112
40, 351679, Note_off_c, 8, 67, 0
40, 351679, Note_off_c, 8, 70, 0
40, 351679, Note_off_c, 8, 74, 0
40, 351684, Note_on_c, 8, 64, 112
40, 351684, Note_on_c, 8, 72, 112
40, 351684, Note_on_c, 8, 67, 112
40, 352355, Note_off_c, 8, 72, 0
40, 352355, Note_off_c, 8, 67, 0
40, 352355, Note_off_c, 8, 64, 0
40, 352837, Note_on_c, 8, 65, 112
40, 352837, Note_on_c, 8, 70, 112
40, 353599, Note_off_c, 8, 65, 0
40, 353599, Note_off_c, 8, 70, 0
40, 353604, Note_on_c, 8, 60, 112
40, 353604, Note_on_c, 8, 63, 112
40, 354275, Note_off_c, 8, 60, 0
40, 354275, Note_off_c, 8, 63, 0
40, 354277, Note_on_c, 8, 60, 112
40, 354756, Note_off_c, 8, 60, 0
40, 354757, Note_on_c, 8, 62, 112
40, 354757, Note_on_c, 8, 67, 112
40, 355716, Note_off_c, 8, 62, 0
40, 355716, Note_off_c, 8, 67, 0
40, 355717, Note_on_c, 8, 62, 112
40, 355717, Note_on_c, 8, 67, 112
40, 356676, Note_off_c, 8, 62, 0
40, 356676, Note_off_c, 8, 67, 0
40, 356677, Note_on_c, 8, 63, 112
40, 358596, Note_off_c, 8, 63, 0
40, 359077, Note_on_c, 8, 60, 112
40, 359556, Note_off_c, 8, 60, 0
40, 359557, Note_on_c, 8, 63, 112
40, 359844, Note_off_c, 8, 63, 0
40, 359845, Note_on_c, 8, 60, 112
40, 360319, Note_off_c, 8, 60, 0
40, 360325, Note_on_c, 8, 70, 112
40, 360325, Note_on_c, 8, 65, 112
40, 360517, Note_off_c, 8, 65, 0
40, 360517, Note_off_c, 8, 70, 0
40, 360997, Note_on_c, 8, 65, 112
40, 360997, Note_on_c, 8, 68, 112
40, 361476, Note_off_c, 8, 65, 0
40, 361476, Note_off_c, 8, 68, 0
40, 361477, Note_on_c, 8, 65, 112
40, 361477, Note_on_c, 8, 67, 112
40, 361764, Note_off_c, 8, 65, 0
40, 361764, Note_off_c, 8, 67, 0
40, 361765, Note_on_c, 8, 65, 112
40, 361765, Note_on_c, 8, 68, 112
40, 362239, Note_off_c, 8, 68, 0
40, 362239, Note_off_c, 8, 65, 0
40, 362245, Note_on_c, 8, 70, 112
40, 362245, Note_on_c, 8, 65, 112
40, 363397, Note_on_c, 8, 58, 112
40, 363876, Note_off_c, 8, 70, 0
40, 363876, Note_off_c, 8, 58, 0
40, 363876, Note_off_c, 8, 65, 0
40, 363877, Note_on_c, 8, 58, 112
40, 364165, Note_on_c, 8, 67, 112
40, 364165, Note_on_c, 8, 70, 112
40, 364356, Note_off_c, 8, 58, 0
40, 364836, Note_off_c, 8, 67, 0
40, 364836, Note_off_c, 8, 70, 0
40, 364837, Note_on_c, 8, 63, 112
40, 364837, Note_on_c, 8, 68, 112
40, 365316, Note_off_c, 8, 63, 0
40, 365316, Note_off_c, 8, 68, 0
40, 365317, Note_on_c, 8, 67, 112
40, 365317, Note_on_c, 8, 63, 112
40, 365796, Note_off_c, 8, 63, 0
40, 365796, Note_off_c, 8, 67, 0
40, 365797, Note_on_c, 8, 68, 112
40, 365797, Note_on_c, 8, 63, 112
40, 366084, Note_off_c, 8, 68, 0
40, 366084, Note_off_c, 8, 63, 0
40, 366085, Note_on_c, 8, 70, 112
40, 366085, Note_on_c, 8, 64, 112
40, 366085, Note_on_c, 8, 67, 112
40, 367236, Note_off_c, 8, 64, 0
40, 367236, Note_off_c, 8, 67, 0
40, 367236, Note_off_c, 8, 70, 0
40, 367525, Note_on_c, 8, 60, 112
40, 367999, Note_off_c, 8, 60, 0
40, 368005, Note_on_c, 8, 70, 112
40, 368005, Note_on_c, 8, 65, 112
40, 368676, Note_off_c, 8, 70, 0
40, 368676, Note_off_c, 8, 65, 0
40, 368677, Note_on_c, 8, 68, 112
40, 368677, Note_on_c, 8, 63, 112
40, 369156, Note_off_c, 8, 68, 0
40, 369156, Note_off_c, 8, 63, 0
40, 369157, Note_on_c, 8, 65, 112
40, 369157, Note_on_c, 8, 67, 112
40, 369444, Note_off_c, 8, 65, 0
40, 369444, Note_off_c, 8, 67, 0
40, 369445, Note_on_c, 8, 65, 112
40, 369445, Note_on_c, 8, 68, 112
40, 369919, Note_off_c, 8, 65, 0
40, 369919, Note_off_c, 8, 68, 0
40, 369925, Note_on_c, 8, 67, 112
40, 369925, Note_on_c, 8, 70, 112
40, 370596, Note_off_c, 8, 67, 0
40, 370596, Note_off_c, 8, 70, 0
40, 370597, Note_on_c, 8, 63, 112
40, 370597, Note_on_c, 8, 75, 112
40, 371359, Note_off_c, 8, 75, 0
40, 371359, Note_off_c, 8, 63, 0
40, 371364, Note_on_c, 8, 74, 112
40, 371364, Note_on_c, 8, 62, 112
40, 372035, Note_off_c, 8, 74, 0
40, 372035, Note_off_c, 8, 62, 0
40, 372037, Note_on_c, 8, 70, 112
40, 372037, Note_on_c, 8, 67, 112
40, 372516, Note_off_c, 8, 70, 0
40, 372516, Note_off_c, 8, 67, 0
40, 372517, Note_on_c, 8, 74, 112
40, 372517, Note_on_c, 8, 67, 112
40, 372517, Note_on_c, 8, 70, 112
40, 372996, Note_off_c, 8, 74, 0
40, 372996, Note_off_c, 8, 70, 0
40, 372996, Note_off_c, 8, 67, 0
40, 372997, Note_on_c, 8, 77, 112
40, 372997, Note_on_c, 8, 73, 112
40, 372997, Note_on_c, 8, 65, 112
40, 373284, Note_off_c, 8, 65, 0
40, 373285, Note_on_c, 8, 67, 112
40, 373476, Note_off_c, 8, 67, 0
40, 373476, Note_off_c, 8, 77, 0
40, 373476, Note_off_c, 8, 73, 0
40, 373477, Note_on_c, 8, 67, 112
40, 373477, Note_on_c, 8, 73, 112
40, 373956, Note_off_c, 8, 67, 0
40, 373956, Note_off_c, 8, 73, 0
40, 373957, Note_on_c, 8, 67, 112
40, 373957, Note_on_c, 8, 72, 112
40, 373957, Note_on_c, 8, 64, 112
40, 374196, Note_off_c, 8, 64, 0
40, 374196, Note_off_c, 8, 67, 0
40, 374196, Note_off_c, 8, 72, 0
40, 374437, Note_on_c, 8, 60, 112
40, 374916, Note_off_c, 8, 60, 0
40, 374917, Note_on_c, 8, 63, 112
40, 375204, Note_off_c, 8, 63, 0
40, 375205, Note_on_c, 8, 60, 112
40, 375679, Note_off_c, 8, 60, 0
40, 375685, Note_on_c, 8, 70, 112
40, 375685, Note_on_c, 8, 65, 112
40, 376356, Note_off_c, 8, 70, 0
40, 376356, Note_off_c, 8, 65, 0
40, 376357, Note_on_c, 8, 68, 112
40, 376357, Note_on_c, 8, 65, 112
40, 376836, Note_off_c, 8, 68, 0
40, 376836, Note_off_c, 8, 65, 0
40, 376837, Note_on_c, 8, 67, 112
40, 376837, Note_on_c, 8, 65, 112
40, 377124, Note_off_c, 8, 65, 0
40, 377124, Note_off_c, 8, 67, 0
40, 377125, Note_on_c, 8, 65, 112
40, 377125, Note_on_c, 8, 68, 112
40, 377599, Note_off_c, 8, 65, 0
40, 377599, Note_off_c, 8, 68, 0
40, 377605, Note_on_c, 8, 70, 112
40, 377605, Note_on_c, 8, 65, 112
40, 378756, Note_off_c, 8, 65, 0
40, 378756, Note_off_c, 8, 70, 0
40, 379045, Note_on_c, 8, 67, 112
40, 379045, Note_on_c, 8, 63, 112
40, 379519, Note_off_c, 8, 67, 0
40, 379519, Note_off_c, 8, 63, 0
40, 379525, Note_on_c, 8, 68, 112
40, 379525, Note_on_c, 8, 63, 112
40, 379716, Note_off_c, 8, 68, 0
40, 379716, Note_off_c, 8, 63, 0
40, 379717, Note_on_c, 8, 70, 112
40, 379717, Note_on_c, 8, 67, 112
40, 380196, Note_off_c, 8, 70, 0
40, 380196, Note_off_c, 8, 67, 0
40, 380197, Note_on_c, 8, 67, 112
40, 380197, Note_on_c, 8, 72, 112
40, 380676, Note_off_c, 8, 67, 0
40, 380676, Note_off_c, 8, 72, 0
40, 380677, Note_on_c, 8, 70, 112
40, 380677, Note_on_c, 8, 74, 112
40, 381156, Note_off_c, 8, 70, 0
40, 381156, Note_off_c, 8, 74, 0
40, 381157, Note_on_c, 8, 70, 112
40, 381157, Note_on_c, 8, 75, 112
40, 381636, Note_off_c, 8, 70, 0
40, 381636, Note_off_c, 8, 75, 0
40, 381637, Note_on_c, 8, 67, 112
40, 381637, Note_on_c, 8, 70, 112
40, 381637, Note_on_c, 8, 74, 112
40, 382399, Note_off_c, 8, 67, 0
40, 382399, Note_off_c, 8, 70, 0
40, 382399, Note_off_c, 8, 74, 0
40, 382404, Note_on_c, 8, 64, 112
40, 382404, Note_on_c, 8, 67, 112
40, 382404, Note_on_c, 8, 72, 112
40, 383075, Note_off_c, 8, 64, 0
40, 383075, Note_off_c, 8, 67, 0
40, 383075, Note_off_c, 8, 72, 0
40, 383077, Note_on_c, 8, 60, 112
40, 383556, Note_off_c, 8, 60, 0
40, 383557, Note_on_c, 8, 65, 112
40, 383557, Note_on_c, 8, 70, 112
40, 383796, Note_off_c, 8, 65, 0
40, 383796, Note_off_c, 8, 70, 0
40, 384037, Note_on_c, 8, 63, 112
40, 384996, Note_off_c, 8, 63, 0
40, 384997, Note_on_c, 8, 60, 112
40, 385476, Note_off_c, 8, 60, 0
40, 385477, Note_on_c, 8, 62, 112
40, 386437, Note_off_c, 8, 62, 0
40, 386437, Note_on_c, 8, 62, 112
40, 386916, Note_off_c, 8, 62, 0
40, 386917, Note_on_c, 8, 58, 112
40, 387396, Note_off_c, 8, 58, 0
40, 387397, Note_on_c, 8, 70, 112
40, 387397, Note_on_c, 8, 67, 112
40, 387636, Note_off_c, 8, 70, 0
40, 387636, Note_off_c, 8, 67, 0
40, 387877, Note_on_c, 8, 65, 112
40, 387877, Note_on_c, 8, 62, 112
40, 388836, Note_off_c, 8, 65, 0
40, 388836, Note_off_c, 8, 62, 0
40, 388837, Note_on_c, 8, 62, 112
40, 389316, Note_off_c, 8, 62, 0
40, 389317, Note_on_c, 8, 64, 112
40, 389796, Note_off_c, 8, 64, 0
40, 389797, Note_on_c, 8, 73, 112
40, 389797, Note_on_c, 8, 65, 112
40, 390276, Note_off_c, 8, 65, 0
40, 390276, Note_off_c, 8, 73, 0
40, 390277, Note_on_c, 8, 66, 112
40, 390277, Note_on_c, 8, 72, 112
40, 390756, Note_off_c, 8, 66, 0
40, 390757, Note_on_c, 8, 64, 112
40, 390757, Note_on_c, 8, 67, 112
40, 391236, Note_off_c, 8, 72, 0
40, 391236, Note_off_c, 8, 64, 0
40, 391236, Note_off_c, 8, 67, 0
40, 391237, Note_on_c, 8, 65, 112
40, 391237, Note_on_c, 8, 70, 112
40, 391476, Note_off_c, 8, 65, 0
40, 391476, Note_off_c, 8, 70, 0
40, 391717, Note_on_c, 8, 60, 112
40, 391717, Note_on_c, 8, 63, 112
40, 392676, Note_off_c, 8, 60, 0
40, 392676, Note_off_c, 8, 63, 0
40, 392677, Note_on_c, 8, 60, 112
40, 393156, Note_off_c, 8, 60, 0
40, 393157, Note_on_c, 8, 67, 112
40, 393157, Note_on_c, 8, 62, 112
40, 394116, Note_off_c, 8, 62, 0
40, 394116, Note_off_c, 8, 67, 0
40, 394117, Note_on_c, 8, 67, 112
40, 394117, Note_on_c, 8, 62, 112
40, 395076, Note_off_c, 8, 67, 0
40, 395076, Note_off_c, 8, 62, 0
40, 395364, Note_on_c, 8, 65, 112
40, 395364, Note_on_c, 8, 72, 112
40, 396035, Note_off_c, 8, 65, 0
40, 396035, Note_off_c, 8, 72, 0
40, 396037, Note_on_c, 8, 65, 112
40, 396037, Note_on_c, 8, 67, 112
40, 396037, Note_on_c, 8, 72, 112
40, 396799, Note_off_c, 8, 65, 0
40, 396799, Note_off_c, 8, 67, 0
40, 396799, Note_off_c, 8, 72, 0
40, 396805, Note_on_c, 8, 65, 112
40, 396805, Note_on_c, 8, 68, 112
40, 396805, Note_on_c, 8, 72, 112
40, 398709, Note_off_c, 8, 65, 0
40, 398709, Note_off_c, 8, 68, 0
40, 398709, Note_off_c, 8, 72, 0
40, 399205, Note_on_c, 8, 63, 112
40, 399396, Note_off_c, 8, 63, 0
40, 399397, Note_on_c, 8, 63, 112
40, 399684, Note_off_c, 8, 63, 0
40, 399877, Note_on_c, 8, 63, 112
40, 400836, Note_off_c, 8, 63, 0
40, 400837, Note_on_c, 8, 63, 112
40, 401076, Note_off_c, 8, 63, 0
40, 401317, Note_on_c, 8, 63, 112
40, 401796, Note_off_c, 8, 63, 0
40, 403045, Note_on_c, 8, 63, 112
40, 403236, Note_off_c, 8, 63, 0
40, 403237, Note_on_c, 8, 63, 112
40, 403524, Note_off_c, 8, 63, 0
40, 403717, Note_on_c, 8, 63, 112
40, 404676, Note_off_c, 8, 63, 0
40, 404677, Note_on_c, 8, 63, 112
40, 404916, Note_off_c, 8, 63, 0
40, 405157, Note_on_c, 8, 63, 112
40, 405636, Note_off_c, 8, 63, 0
40, 406885, Note_on_c, 8, 67, 112
40, 406885, Note_on_c, 8, 63, 112
40, 407076, Note_off_c, 8, 67, 0
40, 407076, Note_off_c, 8, 63, 0
40, 407077, Note_on_c, 8, 67, 112
40, 407077, Note_on_c, 8, 63, 112
40, 407364, Note_off_c, 8, 67, 0
40, 407364, Note_off_c, 8, 63, 0
40, 407557, Note_on_c, 8, 63, 112
40, 407557, Note_on_c, 8, 67, 112
40, 408516, Note_off_c, 8, 63, 0
40, 408516, Note_off_c, 8, 67, 0
40, 408517, Note_on_c, 8, 63, 112
40, 408517, Note_on_c, 8, 67, 112
40, 408756, Note_off_c, 8, 63, 0
40, 408756, Note_off_c, 8, 67, 0
40, 408997, Note_on_c, 8, 67, 112
40, 408997, Note_on_c, 8, 63, 112
40, 409476, Note_off_c, 8, 63, 0
40, 409476, Note_off_c, 8, 67, 0
40, 410725, Note_on_c, 8, 63, 112
40, 410725, Note_on_c, 8, 67, 112
40, 410916, Note_off_c, 8, 63, 0
40, 410916, Note_off_c, 8, 67, 0
40, 410917, Note_on_c, 8, 67, 112
40, 410917, Note_on_c, 8, 63, 112
40, 411204, Note_off_c, 8, 67, 0
40, 411204, Note_off_c, 8, 63, 0
40, 411397, Note_on_c, 8, 67, 112
40, 411397, Note_on_c, 8, 63, 112
40, 412356, Note_off_c, 8, 67, 0
40, 412356, Note_off_c, 8, 63, 0
40, 412357, Note_on_c, 8, 63, 112
40, 412357, Note_on_c, 8, 67, 112
40, 412596, Note_off_c, 8, 63, 0
40, 412596, Note_off_c, 8, 67, 0
40, 412837, Note_on_c, 8, 67, 112
40, 412837, Note_on_c, 8, 63, 112
40, 413316, Note_off_c, 8, 67, 0
40, 413316, Note_off_c, 8, 63, 0
40, 414565, Note_on_c, 8, 63, 112
40, 414565, Note_on_c, 8, 67, 112
40, 414565, Note_on_c, 8, 70, 112
40, 414756, Note_off_c, 8, 63, 0
40, 414756, Note_off_c, 8, 70, 0
40, 414756, Note_off_c, 8, 67, 0
40, 414757, Note_on_c, 8, 70, 112
40, 414757, Note_on_c, 8, 67, 112
40, 414757, Note_on_c, 8, 63, 112
40, 415044, Note_off_c, 8, 70, 0
40, 415044, Note_off_c, 8, 67, 0
40, 415044, Note_off_c, 8, 63, 0
40, 415237, Note_on_c, 8, 63, 112
40, 415237, Note_on_c, 8, 70, 112
40, 415237, Note_on_c, 8, 67, 112
40, 416196, Note_off_c, 8, 67, 0
40, 416196, Note_off_c, 8, 63, 0
40, 416196, Note_off_c, 8, 70, 0
40, 416197, Note_on_c, 8, 70, 112
40, 416197, Note_on_c, 8, 63, 112
40, 416197, Note_on_c, 8, 67, 112
40, 416436, Note_off_c, 8, 63, 0
40, 416436, Note_off_c, 8, 67, 0
40, 416436, Note_off_c, 8, 70, 0
40, 416677, Note_on_c, 8, 67, 112
40, 416677, Note_on_c, 8, 70, 112
40, 416677, Note_on_c, 8, 63, 112
40, 417156, Note_off_c, 8, 67, 0
40, 417156, Note_off_c, 8, 70, 0
40, 417156, Note_off_c, 8, 63, 0
40, 418405, Note_on_c, 8, 70, 112
40, 418405, Note_on_c, 8, 63, 112
40, 418405, Note_on_c, 8, 67, 112
40, 418596, Note_off_c, 8, 63, 0
40, 418596, Note_off_c, 8, 67, 0
40, 418596, Note_off_c, 8, 70, 0
40, 418597, Note_on_c, 8, 70, 112
40, 418597, Note_on_c, 8, 63, 112
40, 418597, Note_on_c, 8, 67, 112
40, 418884, Note_off_c, 8, 63, 0
40, 418884, Note_off_c, 8, 67, 0
40, 418884, Note_off_c, 8, 70, 0
40, 419077, Note_on_c, 8, 67, 112
40, 419077, Note_on_c, 8, 63, 112
40, 419077, Note_on_c, 8, 70, 112
40, 420036, Note_off_c, 8, 70, 0
40, 420036, Note_off_c, 8, 67, 0
40, 420036, Note_off_c, 8, 63, 0
40, 420037, Note_on_c, 8, 67, 112
40, 420037, Note_on_c, 8, 63, 112
40, 420037, Note_on_c, 8, 70, 112
40, 420276, Note_off_c, 8, 70, 0
40, 420276, Note_off_c, 8, 67, 0
40, 420276, Note_off_c, 8, 63, 0
40, 420517, Note_on_c, 8, 70, 112
40, 420517, Note_on_c, 8, 67, 112
40, 420517, Note_on_c, 8, 63, 112
40, 420996, Note_off_c, 8, 70, 0
40, 420996, Note_off_c, 8, 67, 0
40, 420996, Note_off_c, 8, 63, 0
40, 422245, Note_on_c, 8, 70, 112
40, 422245, Note_on_c, 8, 67, 112
40, 422245, Note_on_c, 8, 63, 112
40, 422436, Note_off_c, 8, 70, 0
40, 422436, Note_off_c, 8, 67, 0
40, 422436, Note_off_c, 8, 63, 0
40, 422437, Note_on_c, 8, 67, 112
40, 422437, Note_on_c, 8, 70, 112
40, 422437, Note_on_c, 8, 63, 112
40, 422724, Note_off_c, 8, 70, 0
40, 422724, Note_off_c, 8, 67, 0
40, 422724, Note_off_c, 8, 63, 0
40, 422917, Note_on_c, 8, 67, 112
40, 422917, Note_on_c, 8, 63, 112
40, 422917, Note_on_c, 8, 70, 112
40, 423876, Note_off_c, 8, 70, 0
40, 423876, Note_off_c, 8, 67, 0
40, 423876, Note_off_c, 8, 63, 0
40, 423877, Note_on_c, 8, 63, 112
40, 423877, Note_on_c, 8, 67, 112
40, 423877, Note_on_c, 8, 70, 112
40, 424116, Note_off_c, 8, 67, 0
40, 424116, Note_off_c, 8, 70, 0
40, 424116, Note_off_c, 8, 63, 0
40, 424357, Note_on_c, 8, 63, 112
40, 424357, Note_on_c, 8, 67, 112
40, 424357, Note_on_c, 8, 70, 112
40, 424836, Note_off_c, 8, 63, 0
40, 424836, Note_off_c, 8, 67, 0
40, 424836, Note_off_c, 8, 70, 0
40, 425125, Note_on_c, 8, 70, 112
40, 425125, Note_on_c, 8, 63, 112
40, 425125, Note_on_c, 8, 67, 112
40, 425316, Note_off_c, 8, 63, 0
40, 425316, Note_off_c, 8, 67, 0
40, 425316, Note_off_c, 8, 70, 0
40, 425317, Note_on_c, 8, 70, 112
40, 425317, Note_on_c, 8, 67, 112
40, 425317, Note_on_c, 8, 63, 112
40, 425604, Note_off_c, 8, 67, 0
40, 425604, Note_off_c, 8, 63, 0
40, 425604, Note_off_c, 8, 70, 0
40, 425797, Note_on_c, 8, 75, 112
40, 425797, Note_on_c, 8, 73, 112
40, 425797, Note_on_c, 8, 70, 112
40, 425797, Note_on_c, 8, 67, 112
40, 426559, Note_off_c, 8, 73, 0
40, 426559, Note_off_c, 8, 70, 0
40, 426559, Note_off_c, 8, 67, 0
40, 426559, Note_off_c, 8, 75, 0
40, 426757, Note_on_c, 8, 67, 112
40, 426757, Note_on_c, 8, 70, 112
40, 426757, Note_on_c, 8, 73, 112
40, 426757, Note_on_c, 8, 75, 112
40, 427044, Note_off_c, 8, 70, 0
40, 427044, Note_off_c, 8, 73, 0
40, 427044, Note_off_c, 8, 75, 0
40, 427044, Note_off_c, 8, 67, 0
40, 427045, Note_on_c, 8, 70, 112
40, 427045, Note_on_c, 8, 73, 112
40, 427045, Note_on_c, 8, 75, 112
40, 427045, Note_on_c, 8, 67, 112
40, 427236, Note_off_c, 8, 75, 0
40, 427236, Note_off_c, 8, 73, 0
40, 427236, Note_off_c, 8, 70, 0
40, 427236, Note_off_c, 8, 67, 0
40, 427525, Note_on_c, 8, 73, 112
40, 427525, Note_on_c, 8, 70, 112
40, 427525, Note_on_c, 8, 67, 112
40, 427525, Note_on_c, 8, 63, 112
40, 427716, Note_off_c, 8, 73, 0
40, 427716, Note_off_c, 8, 70, 0
40, 427716, Note_off_c, 8, 63, 0
40, 427716, Note_off_c, 8, 67, 0
40, 437729, Note_on_c, 8, 66, 112
40, 437729, Note_on_c, 8, 69, 112
40, 438208, Note_off_c, 8, 69, 0
40, 438208, Note_off_c, 8, 66, 0
40, 438209, Note_on_c, 8, 64, 112
40, 438209, Note_on_c, 8, 68, 112
40, 438688, Note_off_c, 8, 64, 0
40, 438688, Note_off_c, 8, 68, 0
40, 438689, Note_on_c, 8, 66, 112
40, 438689, Note_on_c, 8, 69, 112
40, 438976, Note_off_c, 8, 66, 0
40, 438976, Note_off_c, 8, 69, 0
40, 438977, Note_on_c, 8, 66, 112
40, 438977, Note_on_c, 8, 71, 112
40, 440608, Note_off_c, 8, 66, 0
40, 440608, Note_off_c, 8, 71, 0
40, 440897, Note_on_c, 8, 68, 112
40, 440897, Note_on_c, 8, 71, 112
40, 441568, Note_off_c, 8, 68, 0
40, 441568, Note_off_c, 8, 71, 0
40, 441569, Note_on_c, 8, 64, 112
40, 441569, Note_on_c, 8, 69, 112
40, 442048, Note_off_c, 8, 64, 0
40, 442048, Note_off_c, 8, 69, 0
40, 442049, Note_on_c, 8, 64, 112
40, 442049, Note_on_c, 8, 68, 112
40, 442336, Note_off_c, 8, 64, 0
40, 442336, Note_off_c, 8, 68, 0
40, 442337, Note_on_c, 8, 64, 112
40, 442337, Note_on_c, 8, 69, 112
40, 442811, Note_off_c, 8, 69, 0
40, 442811, Note_off_c, 8, 64, 0
40, 442817, Note_on_c, 8, 65, 112
40, 442817, Note_on_c, 8, 68, 112
40, 442817, Note_on_c, 8, 71, 112
40, 444448, Note_off_c, 8, 65, 0
40, 444448, Note_off_c, 8, 68, 0
40, 444448, Note_off_c, 8, 71, 0
40, 444737, Note_on_c, 8, 66, 112
40, 444737, Note_on_c, 8, 71, 112
40, 445408, Note_off_c, 8, 66, 0
40, 445408, Note_off_c, 8, 71, 0
40, 445409, Note_on_c, 8, 64, 112
40, 445409, Note_on_c, 8, 69, 112
40, 445888, Note_off_c, 8, 64, 0
40, 445888, Note_off_c, 8, 69, 0
40, 445889, Note_on_c, 8, 66, 112
40, 445889, Note_on_c, 8, 68, 112
40, 446368, Note_off_c, 8, 66, 0
40, 446368, Note_off_c, 8, 68, 0
40, 446369, Note_on_c, 8, 66, 112
40, 446369, Note_on_c, 8, 69, 112
40, 446656, Note_off_c, 8, 66, 0
40, 446656, Note_off_c, 8, 69, 0
40, 446657, Note_on_c, 8, 71, 112
40, 446657, Note_on_c, 8, 68, 112
40, 447328, Note_off_c, 8, 68, 0
40, 447328, Note_off_c, 8, 71, 0
40, 447329, Note_on_c, 8, 66, 112
40, 447329, Note_on_c, 8, 69, 112
40, 447808, Note_off_c, 8, 66, 0
40, 447808, Note_off_c, 8, 69, 0
40, 447809, Note_on_c, 8, 63, 112
40, 447809, Note_on_c, 8, 68, 112
40, 448288, Note_off_c, 8, 63, 0
40, 448288, Note_off_c, 8, 68, 0
40, 448289, Note_on_c, 8, 63, 112
40, 448289, Note_on_c, 8, 66, 112
40, 448576, Note_off_c, 8, 63, 0
40, 448576, Note_off_c, 8, 66, 0
40, 448577, Note_on_c, 8, 63, 112
40, 448577, Note_on_c, 8, 68, 112
40, 449248, Note_off_c, 8, 63, 0
40, 449248, Note_off_c, 8, 68, 0
40, 449249, Note_on_c, 8, 63, 112
40, 449249, Note_on_c, 8, 68, 112
40, 449728, Note_off_c, 8, 63, 0
40, 449728, Note_off_c, 8, 68, 0
40, 449729, Note_on_c, 8, 62, 112
40, 449729, Note_on_c, 8, 66, 112
40, 450016, Note_off_c, 8, 62, 0
40, 450016, Note_off_c, 8, 66, 0
40, 450017, Note_on_c, 8, 64, 112
40, 450017, Note_on_c, 8, 68, 112
40, 450208, Note_off_c, 8, 64, 0
40, 450208, Note_off_c, 8, 68, 0
40, 450209, Note_on_c, 8, 74, 112
40, 450209, Note_on_c, 8, 66, 112
40, 450496, Note_off_c, 8, 66, 0
40, 450497, Note_on_c, 8, 68, 112
40, 450688, Note_off_c, 8, 68, 0
40, 450688, Note_off_c, 8, 74, 0
40, 450689, Note_on_c, 8, 73, 112
40, 450689, Note_on_c, 8, 68, 112
40, 450689, Note_on_c, 8, 65, 112
40, 450928, Note_off_c, 8, 73, 0
40, 450928, Note_off_c, 8, 68, 0
40, 450928, Note_off_c, 8, 65, 0
40, 451169, Note_on_c, 8, 61, 112
40, 451648, Note_off_c, 8, 61, 0
40, 451649, Note_on_c, 8, 64, 112
40, 451936, Note_off_c, 8, 64, 0
40, 451937, Note_on_c, 8, 61, 112
40, 452411, Note_off_c, 8, 61, 0
40, 452417, Note_on_c, 8, 71, 112
40, 452417, Note_on_c, 8, 66, 112
40, 453088, Note_off_c, 8, 66, 0
40, 453088, Note_off_c, 8, 71, 0
40, 453089, Note_on_c, 8, 66, 112
40, 453089, Note_on_c, 8, 69, 112
40, 453568, Note_off_c, 8, 66, 0
40, 453568, Note_off_c, 8, 69, 0
40, 453569, Note_on_c, 8, 66, 112
40, 453569, Note_on_c, 8, 68, 112
40, 453856, Note_off_c, 8, 66, 0
40, 453856, Note_off_c, 8, 68, 0
40, 453857, Note_on_c, 8, 66, 112
40, 453857, Note_on_c, 8, 69, 112
40, 454331, Note_off_c, 8, 66, 0
40, 454331, Note_off_c, 8, 69, 0
40, 454337, Note_on_c, 8, 66, 112
40, 454337, Note_on_c, 8, 71, 112
40, 455488, Note_off_c, 8, 66, 0
40, 455488, Note_off_c, 8, 71, 0
40, 455969, Note_on_c, 8, 68, 112
40, 455969, Note_on_c, 8, 64, 112
40, 456448, Note_off_c, 8, 68, 0
40, 456448, Note_off_c, 8, 64, 0
40, 456449, Note_on_c, 8, 68, 112
40, 456449, Note_on_c, 8, 71, 112
40, 456928, Note_off_c, 8, 68, 0
40, 456928, Note_off_c, 8, 71, 0
40, 456929, Note_on_c, 8, 68, 112
40, 456929, Note_on_c, 8, 73, 112
40, 457408, Note_off_c, 8, 68, 0
40, 457408, Note_off_c, 8, 73, 0
40, 457409, Note_on_c, 8, 71, 112
40, 457409, Note_on_c, 8, 75, 112
40, 457888, Note_off_c, 8, 71, 0
40, 457888, Note_off_c, 8, 75, 0
40, 457889, Note_on_c, 8, 71, 112
40, 457889, Note_on_c, 8, 76, 112
40, 458368, Note_off_c, 8, 71, 0
40, 458368, Note_off_c, 8, 76, 0
40, 458369, Note_on_c, 8, 68, 112
40, 458369, Note_on_c, 8, 71, 112
40, 458369, Note_on_c, 8, 75, 112
40, 459131, Note_off_c, 8, 68, 0
40, 459131, Note_off_c, 8, 71, 0
40, 459131, Note_off_c, 8, 75, 0
40, 459136, Note_on_c, 8, 65, 112
40, 459136, Note_on_c, 8, 68, 112
40, 459136, Note_on_c, 8, 73, 112
40, 459807, Note_off_c, 8, 73, 0
40, 459807, Note_off_c, 8, 68, 0
40, 459807, Note_off_c, 8, 65, 0
40, 460289, Note_on_c, 8, 71, 112
40, 460289, Note_on_c, 8, 66, 112
40, 461051, Note_off_c, 8, 71, 0
40, 461051, Note_off_c, 8, 66, 0
40, 461056, Note_on_c, 8, 64, 112
40, 461056, Note_on_c, 8, 61, 112
40, 461727, Note_off_c, 8, 64, 0
40, 461727, Note_off_c, 8, 61, 0
40, 461729, Note_on_c, 8, 61, 112
40, 462208, Note_off_c, 8, 61, 0
40, 462209, Note_on_c, 8, 68, 112
40, 462209, Note_on_c, 8, 63, 112
40, 463168, Note_off_c, 8, 63, 0
40, 463168, Note_off_c, 8, 68, 0
40, 463169, Note_on_c, 8, 63, 112
40, 463169, Note_on_c, 8, 68, 112
40, 464128, Note_off_c, 8, 63, 0
40, 464128, Note_off_c, 8, 68, 0
40, 464129, Note_on_c, 8, 64, 112
40, 466048, Note_off_c, 8, 64, 0
40, 466529, Note_on_c, 8, 61, 112
40, 467008, Note_off_c, 8, 61, 0
40, 467009, Note_on_c, 8, 64, 112
40, 467296, Note_off_c, 8, 64, 0
40, 467297, Note_on_c, 8, 61, 112
40, 467771, Note_off_c, 8, 61, 0
40, 467777, Note_on_c, 8, 66, 112
40, 467777, Note_on_c, 8, 71, 112
40, 467969, Note_off_c, 8, 66, 0
40, 467969, Note_off_c, 8, 71, 0
40, 468449, Note_on_c, 8, 66, 112
40, 468449, Note_on_c, 8, 69, 112
40, 468928, Note_off_c, 8, 66, 0
40, 468928, Note_off_c, 8, 69, 0
40, 468929, Note_on_c, 8, 66, 112
40, 468929, Note_on_c, 8, 68, 112
40, 469408, Note_off_c, 8, 66, 0
40, 469408, Note_off_c, 8, 68, 0
40, 469409, Note_on_c, 8, 66, 112
40, 469409, Note_on_c, 8, 69, 112
40, 469696, Note_off_c, 8, 66, 0
40, 469696, Note_off_c, 8, 69, 0
40, 469697, Note_on_c, 8, 66, 112
40, 469697, Note_on_c, 8, 71, 112
40, 471328, Note_off_c, 8, 66, 0
40, 471328, Note_off_c, 8, 71, 0
40, 471617, Note_on_c, 8, 68, 112
40, 471617, Note_on_c, 8, 71, 112
40, 472288, Note_off_c, 8, 68, 0
40, 472288, Note_off_c, 8, 71, 0
40, 472289, Note_on_c, 8, 64, 112
40, 472289, Note_on_c, 8, 69, 112
40, 472768, Note_off_c, 8, 69, 0
40, 472768, Note_off_c, 8, 64, 0
40, 472769, Note_on_c, 8, 64, 112
40, 472769, Note_on_c, 8, 68, 112
40, 473248, Note_off_c, 8, 68, 0
40, 473248, Note_off_c, 8, 64, 0
40, 473249, Note_on_c, 8, 69, 112
40, 473249, Note_on_c, 8, 64, 112
40, 473536, Note_off_c, 8, 69, 0
40, 473536, Note_off_c, 8, 64, 0
40, 473537, Note_on_c, 8, 71, 112
40, 473537, Note_on_c, 8, 68, 112
40, 473537, Note_on_c, 8, 65, 112
40, 474688, Note_off_c, 8, 71, 0
40, 474688, Note_off_c, 8, 68, 0
40, 474688, Note_off_c, 8, 65, 0
40, 474977, Note_on_c, 8, 61, 112
40, 475451, Note_off_c, 8, 61, 0
40, 475457, Note_on_c, 8, 71, 112
40, 475457, Note_on_c, 8, 66, 112
40, 476128, Note_off_c, 8, 71, 0
40, 476128, Note_off_c, 8, 66, 0
40, 476129, Note_on_c, 8, 64, 112
40, 476129, Note_on_c, 8, 69, 112
40, 476608, Note_off_c, 8, 69, 0
40, 476608, Note_off_c, 8, 64, 0
40, 476609, Note_on_c, 8, 68, 112
40, 476609, Note_on_c, 8, 66, 112
40, 477088, Note_off_c, 8, 68, 0
40, 477088, Note_off_c, 8, 66, 0
40, 477089, Note_on_c, 8, 69, 112
40, 477089, Note_on_c, 8, 66, 112
40, 477376, Note_off_c, 8, 69, 0
40, 477376, Note_off_c, 8, 66, 0
40, 477377, Note_on_c, 8, 71, 112
40, 477377, Note_on_c, 8, 68, 112
40, 478048, Note_off_c, 8, 71, 0
40, 478048, Note_off_c, 8, 68, 0
40, 478049, Note_on_c, 8, 76, 112
40, 478049, Note_on_c, 8, 64, 112
40, 478811, Note_off_c, 8, 64, 0
40, 478811, Note_off_c, 8, 76, 0
40, 478816, Note_on_c, 8, 63, 112
40, 478816, Note_on_c, 8, 75, 112
40, 479487, Note_off_c, 8, 63, 0
40, 479487, Note_off_c, 8, 75, 0
40, 479489, Note_on_c, 8, 68, 112
40, 479489, Note_on_c, 8, 71, 112
40, 479968, Note_off_c, 8, 68, 0
40, 479968, Note_off_c, 8, 71, 0
40, 479969, Note_on_c, 8, 75, 112
40, 479969, Note_on_c, 8, 68, 112
40, 479969, Note_on_c, 8, 71, 112
40, 480448, Note_off_c, 8, 68, 0
40, 480448, Note_off_c, 8, 71, 0
40, 480448, Note_off_c, 8, 75, 0
40, 480449, Note_on_c, 8, 74, 112
40, 480449, Note_on_c, 8, 78, 112
40, 480449, Note_on_c, 8, 66, 112
40, 480736, Note_off_c, 8, 66, 0
40, 480737, Note_on_c, 8, 68, 112
40, 480928, Note_off_c, 8, 74, 0
40, 480928, Note_off_c, 8, 78, 0
40, 480928, Note_off_c, 8, 68, 0
40, 480929, Note_on_c, 8, 68, 112
40, 480929, Note_on_c, 8, 74, 112
40, 481408, Note_off_c, 8, 68, 0
40, 481408, Note_off_c, 8, 74, 0
40, 481409, Note_on_c, 8, 65, 112
40, 481409, Note_on_c, 8, 68, 112
40, 481409, Note_on_c, 8, 73, 112
40, 481648, Note_off_c, 8, 65, 0
40, 481648, Note_off_c, 8, 68, 0
40, 481648, Note_off_c, 8, 73, 0
40, 481889, Note_on_c, 8, 61, 112
40, 482368, Note_off_c, 8, 61, 0
40, 482369, Note_on_c, 8, 64, 112
40, 482656, Note_off_c, 8, 64, 0
40, 482657, Note_on_c, 8, 61, 112
40, 483131, Note_off_c, 8, 61, 0
40, 483137, Note_on_c, 8, 66, 112
40, 483137, Note_on_c, 8, 71, 112
40, 483808, Note_off_c, 8, 66, 0
40, 483808, Note_off_c, 8, 71, 0
40, 483809, Note_on_c, 8, 69, 112
40, 483809, Note_on_c, 8, 66, 112
40, 484288, Note_off_c, 8, 66, 0
40, 484288, Note_off_c, 8, 69, 0
40, 484289, Note_on_c, 8, 66, 112
40, 484289, Note_on_c, 8, 68, 112
40, 484576, Note_off_c, 8, 66, 0
40, 484576, Note_off_c, 8, 68, 0
40, 484577, Note_on_c, 8, 69, 112
40, 484577, Note_on_c, 8, 66, 112
40, 485051, Note_off_c, 8, 66, 0
40, 485051, Note_off_c, 8, 69, 0
40, 485057, Note_on_c, 8, 66, 112
40, 485057, Note_on_c, 8, 71, 112
40, 486208, Note_off_c, 8, 66, 0
40, 486208, Note_off_c, 8, 71, 0
40, 486497, Note_on_c, 8, 64, 112
40, 486497, Note_on_c, 8, 68, 112
40, 486971, Note_off_c, 8, 64, 0
40, 486971, Note_off_c, 8, 68, 0
40, 486977, Note_on_c, 8, 64, 112
40, 486977, Note_on_c, 8, 69, 112
40, 487168, Note_off_c, 8, 64, 0
40, 487168, Note_off_c, 8, 69, 0
40, 487169, Note_on_c, 8, 71, 112
40, 487169, Note_on_c, 8, 68, 112
40, 487648, Note_off_c, 8, 68, 0
40, 487648, Note_off_c, 8, 71, 0
40, 487649, Note_on_c, 8, 68, 112
40, 487649, Note_on_c, 8, 73, 112
40, 488128, Note_off_c, 8, 68, 0
40, 488128, Note_off_c, 8, 73, 0
40, 488129, Note_on_c, 8, 71, 112
40, 488129, Note_on_c, 8, 75, 112
40, 488608, Note_off_c, 8, 71, 0
40, 488608, Note_off_c, 8, 75, 0
40, 488609, Note_on_c, 8, 71, 112
40, 488609, Note_on_c, 8, 76, 112
40, 489088, Note_off_c, 8, 71, 0
40, 489088, Note_off_c, 8, 76, 0
40, 489089, Note_on_c, 8, 68, 112
40, 489089, Note_on_c, 8, 71, 112
40, 489089, Note_on_c, 8, 75, 112
40, 489851, Note_off_c, 8, 68, 0
40, 489851, Note_off_c, 8, 71, 0
40, 489851, Note_off_c, 8, 75, 0
40, 489856, Note_on_c, 8, 73, 112
40, 489856, Note_on_c, 8, 65, 112
40, 489856, Note_on_c, 8, 68, 112
40, 490527, Note_off_c, 8, 65, 0
40, 490527, Note_off_c, 8, 73, 0
40, 490527, Note_off_c, 8, 68, 0
40, 490529, Note_on_c, 8, 61, 112
40, 491008, Note_off_c, 8, 61, 0
40, 491009, Note_on_c, 8, 66, 112
40, 491009, Note_on_c, 8, 71, 112
40, 491248, Note_off_c, 8, 66, 0
40, 491248, Note_off_c, 8, 71, 0
40, 491489, Note_on_c, 8, 64, 112
40, 492448, Note_off_c, 8, 64, 0
40, 492449, Note_on_c, 8, 61, 112
40, 492928, Note_off_c, 8, 61, 0
40, 492929, Note_on_c, 8, 63, 112
40, 494368, Note_off_c, 8, 63, 0
40, 494369, Note_on_c, 8, 59, 112
40, 494848, Note_off_c, 8, 59, 0
40, 494849, Note_on_c, 8, 68, 112
40, 494849, Note_on_c, 8, 71, 112
40, 495088, Note_off_c, 8, 68, 0
40, 495088, Note_off_c, 8, 71, 0
40, 495329, Note_on_c, 8, 63, 112
40, 495329, Note_on_c, 8, 66, 112
40, 496288, Note_off_c, 8, 63, 0
40, 496288, Note_off_c, 8, 66, 0
40, 496289, Note_on_c, 8, 63, 112
40, 496768, Note_off_c, 8, 63, 0
40, 496769, Note_on_c, 8, 65, 112
40, 497248, Note_off_c, 8, 65, 0
40, 497249, Note_on_c, 8, 74, 112
40, 497249, Note_on_c, 8, 66, 112
40, 497728, Note_off_c, 8, 74, 0
40, 497728, Note_off_c, 8, 66, 0
40, 497729, Note_on_c, 8, 73, 112
40, 497729, Note_on_c, 8, 67, 112
40, 498208, Note_off_c, 8, 67, 0
40, 498209, Note_on_c, 8, 68, 112
40, 498209, Note_on_c, 8, 65, 112
40, 498688, Note_off_c, 8, 68, 0
40, 498688, Note_off_c, 8, 65, 0
40, 498688, Note_off_c, 8, 73, 0
40, 498689, Note_on_c, 8, 71, 112
40, 498689, Note_on_c, 8, 66, 112
40, 498928, Note_off_c, 8, 71, 0
40, 498928, Note_off_c, 8, 66, 0
40, 499169, Note_on_c, 8, 64, 112
40, 499169, Note_on_c, 8, 61, 112
40, 500128, Note_off_c, 8, 64, 0
40, 500128, Note_off_c, 8, 61, 0
40, 500129, Note_on_c, 8, 61, 112
40, 500608, Note_off_c, 8, 61, 0
40, 500609, Note_on_c, 8, 68, 112
40, 500609, Note_on_c, 8, 63, 112
40, 501568, Note_off_c, 8, 63, 0
40, 501568, Note_off_c, 8, 68, 0
40, 501569, Note_on_c, 8, 68, 112
40, 501569, Note_on_c, 8, 63, 112
40, 502528, Note_off_c, 8, 63, 0
40, 502528, Note_off_c, 8, 68, 0
40, 502816, Note_on_c, 8, 66, 112
40, 502816, Note_on_c, 8, 73, 112
40, 503487, Note_off_c, 8, 73, 0
40, 503487, Note_off_c, 8, 66, 0
40, 503489, Note_on_c, 8, 73, 112
40, 503489, Note_on_c, 8, 68, 112
40, 503489, Note_on_c, 8, 66, 112
40, 504251, Note_off_c, 8, 73, 0
40, 504251, Note_off_c, 8, 68, 0
40, 504251, Note_off_c, 8, 66, 0
40, 504257, Note_on_c, 8, 73, 112
40, 504257, Note_on_c, 8, 69, 112
40, 504257, Note_on_c, 8, 66, 112
40, 506161, Note_off_c, 8, 73, 0
40, 506161, Note_off_c, 8, 69, 0
40, 506161, Note_off_c, 8, 66, 0
40, 506369, Note_on_c, 8, 73, 112
40, 506369, Note_on_c, 8, 68, 112
40, 506369, Note_on_c, 8, 63, 112
40, 506369, Note_on_c, 8, 60, 112
40, 512128, Note_off_c, 8, 73, 0
40, 512128, Note_off_c, 8, 68, 0
40, 512128, Note_off_c, 8, 63, 0
40, 512128, Note_off_c, 8, 60, 0
40, 512128, End_track
41, 0, Start_track
41, 0, Title_t, "Seventies"
41, 0, Instrument_name_t, "Seventies"
41, 0, Program_c, 9, 0
41, 263557, Note_on_c, 9, 38, 80
41, 263677, Note_on_c, 9, 38, 80
41, 263716, Note_off_c, 9, 38, 0
41, 263836, Note_off_c, 9, 38, 0
41, 263917, Note_on_c, 9, 38, 80
41, 264037, Note_on_c, 9, 38, 80
41, 264076, Note_off_c, 9, 38, 0
41, 264157, Note_on_c, 9, 38, 80
41, 264196, Note_off_c, 9, 38, 0
41, 264316, Note_off_c, 9, 38, 0
41, 264397, Note_on_c, 9, 38, 80
41, 264517, Note_on_c, 9, 36, 80
41, 264517, Note_on_c, 9, 49, 80
41, 264556, Note_off_c, 9, 38, 0
41, 264996, Note_off_c, 9, 36, 0
41, 264996, Note_off_c, 9, 49, 0
41, 264997, Note_on_c, 9, 46, 80
41, 264997, Note_on_c, 9, 38, 80
41, 265476, Note_off_c, 9, 38, 0
41, 265476, Note_off_c, 9, 46, 0
41, 265477, Note_on_c, 9, 46, 80
41, 265477, Note_on_c, 9, 36, 80
41, 265956, Note_off_c, 9, 36, 0
41, 265956, Note_off_c, 9, 46, 0
41, 265957, Note_on_c, 9, 38, 80
41, 265957, Note_on_c, 9, 46, 80
41, 266436, Note_off_c, 9, 38, 0
41, 266436, Note_off_c, 9, 46, 0
41, 266437, Note_on_c, 9, 36, 80
41, 266437, Note_on_c, 9, 46, 80
41, 266916, Note_off_c, 9, 36, 0
41, 266916, Note_off_c, 9, 46, 0
41, 266917, Note_on_c, 9, 38, 80
41, 266917, Note_on_c, 9, 46, 80
41, 267396, Note_off_c, 9, 46, 0
41, 267396, Note_off_c, 9, 38, 0
41, 267397, Note_on_c, 9, 36, 80
41, 267397, Note_on_c, 9, 46, 80
41, 267876, Note_off_c, 9, 46, 0
41, 267876, Note_off_c, 9, 36, 0
41, 267877, Note_on_c, 9, 38, 80
41, 267877, Note_on_c, 9, 46, 80
41, 268356, Note_off_c, 9, 38, 0
41, 268356, Note_off_c, 9, 46, 0
41, 268357, Note_on_c, 9, 49, 80
41, 268357, Note_on_c, 9, 36, 80
41, 268836, Note_off_c, 9, 49, 0
41, 268836, Note_off_c, 9, 36, 0
41, 268837, Note_on_c, 9, 46, 80
41, 268837, Note_on_c, 9, 38, 80
41, 269316, Note_off_c, 9, 46, 0
41, 269316, Note_off_c, 9, 38, 0
41, 269317, Note_on_c, 9, 36, 80
41, 269317, Note_on_c, 9, 46, 80
41, 269796, Note_off_c, 9, 36, 0
41, 269796, Note_off_c, 9, 46, 0
41, 269797, Note_on_c, 9, 38, 80
41, 269797, Note_on_c, 9, 46, 80
41, 270276, Note_off_c, 9, 46, 0
41, 270276, Note_off_c, 9, 38, 0
41, 270277, Note_on_c, 9, 46, 80
41, 270277, Note_on_c, 9, 36, 80
41, 270756, Note_off_c, 9, 36, 0
41, 270756, Note_off_c, 9, 46, 0
41, 270757, Note_on_c, 9, 46, 80
41, 270757, Note_on_c, 9, 38, 80
41, 271236, Note_off_c, 9, 38, 0
41, 271236, Note_off_c, 9, 46, 0
41, 271237, Note_on_c, 9, 46, 80
41, 271237, Note_on_c, 9, 36, 80
41, 271716, Note_off_c, 9, 36, 0
41, 271716, Note_off_c, 9, 46, 0
41, 271717, Note_on_c, 9, 38, 80
41, 271717, Note_on_c, 9, 46, 80
41, 272196, Note_off_c, 9, 46, 0
41, 272196, Note_off_c, 9, 38, 0
41, 272197, Note_on_c, 9, 36, 80
41, 272197, Note_on_c, 9, 46, 80
41, 272676, Note_off_c, 9, 36, 0
41, 272676, Note_off_c, 9, 46, 0
41, 272677, Note_on_c, 9, 38, 80
41, 272677, Note_on_c, 9, 46, 80
41, 273156, Note_off_c, 9, 38, 0
41, 273156, Note_off_c, 9, 46, 0
41, 273157, Note_on_c, 9, 46, 80
41, 273157, Note_on_c, 9, 36, 80
41, 273636, Note_off_c, 9, 36, 0
41, 273636, Note_off_c, 9, 46, 0
41, 273637, Note_on_c, 9, 46, 80
41, 273637, Note_on_c, 9, 38, 80
41, 274116, Note_off_c, 9, 46, 0
41, 274116, Note_off_c, 9, 38, 0
41, 274117, Note_on_c, 9, 46, 80
41, 274117, Note_on_c, 9, 36, 80
41, 274596, Note_off_c, 9, 46, 0
41, 274596, Note_off_c, 9, 36, 0
41, 274597, Note_on_c, 9, 46, 80
41, 274597, Note_on_c, 9, 38, 80
41, 275076, Note_off_c, 9, 38, 0
41, 275076, Note_off_c, 9, 46, 0
41, 275077, Note_on_c, 9, 38, 80
41, 275317, Note_on_c, 9, 38, 80
41, 275364, Note_off_c, 9, 38, 0
41, 275508, Note_off_c, 9, 38, 0
41, 275557, Note_on_c, 9, 38, 80
41, 275797, Note_on_c, 9, 38, 80
41, 275844, Note_off_c, 9, 38, 0
41, 275988, Note_off_c, 9, 38, 0
41, 276037, Note_on_c, 9, 46, 127
41, 276157, Note_on_c, 9, 49, 127
41, 276157, Note_off_c, 9, 46, 0
41, 276277, Note_off_c, 9, 49, 0
41, 276277, Note_on_c, 9, 49, 127
41, 276397, Note_off_c, 9, 49, 0
41, 276397, Note_on_c, 9, 46, 127
41, 276517, Note_off_c, 9, 46, 0
41, 276517, Note_on_c, 9, 46, 127
41, 276637, Note_on_c, 9, 49, 127
41, 276637, Note_off_c, 9, 46, 0
41, 276757, Note_off_c, 9, 49, 0
41, 276757, Note_on_c, 9, 49, 127
41, 276877, Note_on_c, 9, 46, 127
41, 276877, Note_off_c, 9, 49, 0
41, 276997, Note_off_c, 9, 46, 0
41, 277357, Note_on_c, 9, 46, 127
41, 277477, Note_on_c, 9, 49, 127
41, 277477, Note_off_c, 9, 46, 0
41, 277597, Note_off_c, 9, 49, 0
41, 277597, Note_on_c, 9, 49, 127
41, 277717, Note_on_c, 9, 46, 127
41, 277717, Note_off_c, 9, 49, 0
41, 277837, Note_off_c, 9, 46, 0
41, 278317, Note_on_c, 9, 42, 127
41, 278437, Note_off_c, 9, 42, 0
41, 278797, Note_on_c, 9, 47, 80
41, 278856, Note_off_c, 9, 47, 0
41, 278917, Note_on_c, 9, 45, 80
41, 278917, Note_on_c, 9, 43, 80
41, 278917, Note_on_c, 9, 38, 127
41, 278917, Note_on_c, 9, 36, 127
41, 278917, Note_on_c, 9, 47, 80
41, 278976, Note_off_c, 9, 45, 0
41, 279037, Note_off_c, 9, 38, 0
41, 279037, Note_off_c, 9, 36, 0
41, 279396, Note_off_c, 9, 47, 0
41, 279396, Note_off_c, 9, 43, 0
41, 279877, Note_on_c, 9, 36, 80
41, 280356, Note_off_c, 9, 36, 0
41, 280357, Note_on_c, 9, 37, 80
41, 280357, Note_on_c, 9, 40, 80
41, 280836, Note_off_c, 9, 37, 0
41, 280836, Note_off_c, 9, 40, 0
41, 280837, Note_on_c, 9, 36, 80
41, 281316, Note_off_c, 9, 36, 0
41, 281317, Note_on_c, 9, 37, 80
41, 281317, Note_on_c, 9, 40, 80
41, 281796, Note_off_c, 9, 37, 0
41, 281796, Note_off_c, 9, 40, 0
41, 281797, Note_on_c, 9, 36, 80
41, 282276, Note_off_c, 9, 36, 0
41, 282277, Note_on_c, 9, 40, 80
41, 282277, Note_on_c, 9, 37, 80
41, 282756, Note_off_c, 9, 37, 0
41, 282756, Note_off_c, 9, 40, 0
41, 282757, Note_on_c, 9, 36, 80
41, 283236, Note_off_c, 9, 36, 0
41, 283237, Note_on_c, 9, 37, 80
41, 283237, Note_on_c, 9, 40, 80
41, 283716, Note_off_c, 9, 37, 0
41, 283716, Note_off_c, 9, 40, 0
41, 283717, Note_on_c, 9, 36, 80
41, 284196, Note_off_c, 9, 36, 0
41, 284197, Note_on_c, 9, 37, 80
41, 284197, Note_on_c, 9, 40, 80
41, 284676, Note_off_c, 9, 37, 0
41, 284676, Note_off_c, 9, 40, 0
41, 284677, Note_on_c, 9, 36, 80
41, 285156, Note_off_c, 9, 36, 0
41, 285157, Note_on_c, 9, 37, 80
41, 285157, Note_on_c, 9, 40, 80
41, 285636, Note_off_c, 9, 37, 0
41, 285636, Note_off_c, 9, 40, 0
41, 285637, Note_on_c, 9, 36, 80
41, 286116, Note_off_c, 9, 36, 0
41, 286117, Note_on_c, 9, 37, 80
41, 286117, Note_on_c, 9, 40, 80
41, 286596, Note_off_c, 9, 37, 0
41, 286596, Note_off_c, 9, 40, 0
41, 286597, Note_on_c, 9, 36, 80
41, 287076, Note_off_c, 9, 36, 0
41, 287077, Note_on_c, 9, 37, 80
41, 287077, Note_on_c, 9, 40, 80
41, 287556, Note_off_c, 9, 37, 0
41, 287556, Note_off_c, 9, 40, 0
41, 287557, Note_on_c, 9, 36, 80
41, 288036, Note_off_c, 9, 36, 0
41, 288037, Note_on_c, 9, 37, 80
41, 288037, Note_on_c, 9, 40, 80
41, 288516, Note_off_c, 9, 40, 0
41, 288516, Note_off_c, 9, 37, 0
41, 288517, Note_on_c, 9, 36, 80
41, 288996, Note_off_c, 9, 36, 0
41, 288997, Note_on_c, 9, 37, 80
41, 288997, Note_on_c, 9, 40, 80
41, 289476, Note_off_c, 9, 37, 0
41, 289476, Note_off_c, 9, 40, 0
41, 289477, Note_on_c, 9, 36, 80
41, 289956, Note_off_c, 9, 36, 0
41, 289957, Note_on_c, 9, 37, 80
41, 289957, Note_on_c, 9, 40, 80
41, 290436, Note_off_c, 9, 40, 0
41, 290436, Note_off_c, 9, 37, 0
41, 290437, Note_on_c, 9, 36, 80
41, 290916, Note_off_c, 9, 36, 0
41, 290917, Note_on_c, 9, 37, 80
41, 290917, Note_on_c, 9, 40, 80
41, 291396, Note_off_c, 9, 37, 0
41, 291396, Note_off_c, 9, 40, 0
41, 291397, Note_on_c, 9, 36, 80
41, 291637, Note_on_c, 9, 49, 80
41, 291637, Note_on_c, 9, 38, 80
41, 291684, Note_off_c, 9, 36, 0
41, 292308, Note_off_c, 9, 49, 0
41, 292308, Note_off_c, 9, 38, 0
41, 292357, Note_on_c, 9, 36, 80
41, 292597, Note_on_c, 9, 38, 80
41, 292597, Note_on_c, 9, 49, 80
41, 292644, Note_off_c, 9, 36, 0
41, 293268, Note_off_c, 9, 38, 0
41, 293268, Note_off_c, 9, 49, 0
41, 293317, Note_on_c, 9, 36, 80
41, 293317, Note_on_c, 9, 47, 127
41, 293317, Note_on_c, 9, 43, 127
41, 293317, Note_on_c, 9, 45, 127
41, 293317, Note_on_c, 9, 40, 127
41, 293437, Note_off_c, 9, 45, 0
41, 293437, Note_off_c, 9, 43, 0
41, 293437, Note_off_c, 9, 40, 0
41, 293437, Note_off_c, 9, 47, 0
41, 293557, Note_on_c, 9, 49, 80
41, 293557, Note_on_c, 9, 38, 80
41, 293604, Note_off_c, 9, 36, 0
41, 293797, Note_on_c, 9, 45, 127
41, 293797, Note_on_c, 9, 43, 127
41, 293797, Note_on_c, 9, 40, 127
41, 293797, Note_on_c, 9, 47, 127
41, 293917, Note_off_c, 9, 45, 0
41, 293917, Note_off_c, 9, 43, 0
41, 293917, Note_off_c, 9, 40, 0
41, 293917, Note_off_c, 9, 47, 0
41, 294228, Note_off_c, 9, 49, 0
41, 294228, Note_off_c, 9, 38, 0
41, 294277, Note_on_c, 9, 36, 80
41, 294277, Note_on_c, 9, 45, 127
41, 294277, Note_on_c, 9, 47, 127
41, 294397, Note_off_c, 9, 45, 0
41, 294397, Note_off_c, 9, 47, 0
41, 294397, Note_on_c, 9, 43, 127
41, 294397, Note_on_c, 9, 45, 127
41, 294517, Note_on_c, 9, 49, 80
41, 294517, Note_off_c, 9, 43, 0
41, 294517, Note_on_c, 9, 38, 80
41, 294517, Note_on_c, 9, 40, 127
41, 294517, Note_on_c, 9, 43, 127
41, 294517, Note_off_c, 9, 45, 0
41, 294564, Note_off_c, 9, 36, 0
41, 294637, Note_on_c, 9, 40, 127
41, 294637, Note_off_c, 9, 43, 0
41, 294637, Note_off_c, 9, 40, 0
41, 294757, Note_on_c, 9, 45, 127
41, 294757, Note_on_c, 9, 47, 127
41, 294757, Note_off_c, 9, 40, 0
41, 294877, Note_off_c, 9, 45, 0
41, 294877, Note_off_c, 9, 47, 0
41, 294877, Note_on_c, 9, 43, 127
41, 294877, Note_on_c, 9, 45, 127
41, 294997, Note_off_c, 9, 43, 0
41, 294997, Note_on_c, 9, 40, 127
41, 294997, Note_on_c, 9, 43, 127
41, 294997, Note_off_c, 9, 45, 0
41, 295117, Note_off_c, 9, 40, 0
41, 295117, Note_off_c, 9, 43, 0
41, 295117, Note_on_c, 9, 40, 127
41, 295188, Note_off_c, 9, 49, 0
41, 295188, Note_off_c, 9, 38, 0
41, 295237, Note_off_c, 9, 40, 0
41, 295237, Note_on_c, 9, 51, 80
41, 295237, Note_on_c, 9, 36, 80
41, 295716, Note_off_c, 9, 36, 0
41, 295716, Note_off_c, 9, 51, 0
41, 295717, Note_on_c, 9, 37, 80
41, 295717, Note_on_c, 9, 40, 80
41, 295717, Note_on_c, 9, 51, 80
41, 296196, Note_off_c, 9, 51, 0
41, 296196, Note_off_c, 9, 37, 0
41, 296196, Note_off_c, 9, 40, 0
41, 296197, Note_on_c, 9, 51, 80
41, 296197, Note_on_c, 9, 36, 80
41, 296676, Note_off_c, 9, 51, 0
41, 296676, Note_off_c, 9, 36, 0
41, 296677, Note_on_c, 9, 37, 80
41, 296677, Note_on_c, 9, 51, 80
41, 296677, Note_on_c, 9, 40, 80
41, 297156, Note_off_c, 9, 37, 0
41, 297156, Note_off_c, 9, 40, 0
41, 297156, Note_off_c, 9, 51, 0
41, 297157, Note_on_c, 9, 51, 80
41, 297157, Note_on_c, 9, 36, 80
41, 297636, Note_off_c, 9, 36, 0
41, 297636, Note_off_c, 9, 51, 0
41, 297637, Note_on_c, 9, 37, 80
41, 297637, Note_on_c, 9, 40, 80
41, 297637, Note_on_c, 9, 51, 80
41, 298116, Note_off_c, 9, 37, 0
41, 298116, Note_off_c, 9, 40, 0
41, 298116, Note_off_c, 9, 51, 0
41, 298117, Note_on_c, 9, 36, 80
41, 298117, Note_on_c, 9, 51, 80
41, 298596, Note_off_c, 9, 36, 0
41, 298596, Note_off_c, 9, 51, 0
41, 298597, Note_on_c, 9, 37, 80
41, 298597, Note_on_c, 9, 40, 80
41, 298597, Note_on_c, 9, 51, 80
41, 299076, Note_off_c, 9, 51, 0
41, 299076, Note_off_c, 9, 37, 0
41, 299076, Note_off_c, 9, 40, 0
41, 299077, Note_on_c, 9, 36, 80
41, 299077, Note_on_c, 9, 51, 80
41, 299556, Note_off_c, 9, 36, 0
41, 299556, Note_off_c, 9, 51, 0
41, 299557, Note_on_c, 9, 37, 80
41, 299557, Note_on_c, 9, 40, 80
41, 299557, Note_on_c, 9, 51, 80
41, 300036, Note_off_c, 9, 37, 0
41, 300036, Note_off_c, 9, 40, 0
41, 300036, Note_off_c, 9, 51, 0
41, 300037, Note_on_c, 9, 36, 80
41, 300037, Note_on_c, 9, 51, 80
41, 300516, Note_off_c, 9, 51, 0
41, 300516, Note_off_c, 9, 36, 0
41, 300517, Note_on_c, 9, 37, 80
41, 300517, Note_on_c, 9, 40, 80
41, 300517, Note_on_c, 9, 51, 80
41, 300996, Note_off_c, 9, 37, 0
41, 300996, Note_off_c, 9, 40, 0
41, 300996, Note_off_c, 9, 51, 0
41, 300997, Note_on_c, 9, 36, 80
41, 300997, Note_on_c, 9, 51, 80
41, 301476, Note_off_c, 9, 36, 0
41, 301476, Note_off_c, 9, 51, 0
41, 301477, Note_on_c, 9, 37, 80
41, 301477, Note_on_c, 9, 40, 80
41, 301477, Note_on_c, 9, 51, 80
41, 301956, Note_off_c, 9, 51, 0
41, 301956, Note_off_c, 9, 37, 0
41, 301956, Note_off_c, 9, 40, 0
41, 301957, Note_on_c, 9, 36, 80
41, 301957, Note_on_c, 9, 51, 80
41, 302436, Note_off_c, 9, 36, 0
41, 302436, Note_off_c, 9, 51, 0
41, 302437, Note_on_c, 9, 37, 80
41, 302437, Note_on_c, 9, 40, 80
41, 302437, Note_on_c, 9, 51, 80
41, 302916, Note_off_c, 9, 51, 0
41, 302916, Note_off_c, 9, 37, 0
41, 302916, Note_off_c, 9, 40, 0
41, 302917, Note_on_c, 9, 51, 80
41, 302917, Note_on_c, 9, 36, 80
41, 303396, Note_off_c, 9, 51, 0
41, 303396, Note_off_c, 9, 36, 0
41, 303397, Note_on_c, 9, 51, 80
41, 303397, Note_on_c, 9, 40, 80
41, 303397, Note_on_c, 9, 37, 80
41, 303876, Note_off_c, 9, 51, 0
41, 303876, Note_off_c, 9, 40, 0
41, 303876, Note_off_c, 9, 37, 0
41, 303877, Note_on_c, 9, 51, 80
41, 303877, Note_on_c, 9, 36, 80
41, 304356, Note_off_c, 9, 51, 0
41, 304356, Note_off_c, 9, 36, 0
41, 304357, Note_on_c, 9, 51, 80
41, 304357, Note_on_c, 9, 40, 80
41, 304357, Note_on_c, 9, 37, 80
41, 304836, Note_off_c, 9, 37, 0
41, 304836, Note_off_c, 9, 51, 0
41, 304836, Note_off_c, 9, 40, 0
41, 304837, Note_on_c, 9, 51, 80
41, 304837, Note_on_c, 9, 36, 80
41, 305316, Note_off_c, 9, 51, 0
41, 305316, Note_off_c, 9, 36, 0
41, 305317, Note_on_c, 9, 37, 80
41, 305317, Note_on_c, 9, 40, 80
41, 305317, Note_on_c, 9, 51, 80
41, 305796, Note_off_c, 9, 51, 0
41, 305796, Note_off_c, 9, 37, 0
41, 305796, Note_off_c, 9, 40, 0
41, 305797, Note_on_c, 9, 51, 80
41, 305797, Note_on_c, 9, 36, 80
41, 306276, Note_off_c, 9, 51, 0
41, 306276, Note_off_c, 9, 36, 0
41, 306277, Note_on_c, 9, 51, 80
41, 306277, Note_on_c, 9, 37, 80
41, 306277, Note_on_c, 9, 40, 80
41, 306756, Note_off_c, 9, 40, 0
41, 306756, Note_off_c, 9, 37, 0
41, 306756, Note_off_c, 9, 51, 0
41, 306757, Note_on_c, 9, 49, 80
41, 306757, Note_on_c, 9, 36, 80
41, 307117, Note_on_c, 9, 51, 127
41, 307236, Note_off_c, 9, 49, 0
41, 307236, Note_off_c, 9, 36, 0
41, 307237, Note_off_c, 9, 51, 0
41, 307237, Note_on_c, 9, 43, 80
41, 307357, Note_on_c, 9, 51, 127
41, 307477, Note_off_c, 9, 51, 0
41, 307477, Note_on_c, 9, 36, 80
41, 307524, Note_off_c, 9, 43, 0
41, 307837, Note_on_c, 9, 40, 127
41, 307951, Note_off_c, 9, 36, 0
41, 307957, Note_off_c, 9, 40, 0
41, 307957, Note_on_c, 9, 40, 127
41, 308077, Note_off_c, 9, 40, 0
41, 308077, Note_on_c, 9, 40, 127
41, 308197, Note_on_c, 9, 51, 127
41, 308197, Note_off_c, 9, 40, 0
41, 308317, Note_off_c, 9, 51, 0
41, 308317, Note_on_c, 9, 40, 127
41, 308437, Note_off_c, 9, 40, 0
41, 308437, Note_on_c, 9, 36, 80
41, 308628, Note_off_c, 9, 36, 0
41, 308677, Note_on_c, 9, 36, 80
41, 308677, Note_on_c, 9, 49, 80
41, 309156, Note_off_c, 9, 49, 0
41, 309156, Note_off_c, 9, 36, 0
41, 309157, Note_on_c, 9, 43, 80
41, 309397, Note_on_c, 9, 49, 80
41, 309397, Note_on_c, 9, 36, 80
41, 309444, Note_off_c, 9, 43, 0
41, 309871, Note_off_c, 9, 49, 0
41, 309871, Note_off_c, 9, 36, 0
41, 310117, Note_on_c, 9, 38, 80
41, 310237, Note_on_c, 9, 38, 80
41, 310276, Note_off_c, 9, 38, 0
41, 310396, Note_off_c, 9, 38, 0
41, 310477, Note_on_c, 9, 38, 80
41, 310597, Note_on_c, 9, 41, 80
41, 310597, Note_on_c, 9, 38, 80
41, 310597, Note_on_c, 9, 36, 80
41, 310597, Note_off_c, 9, 38, 0
41, 311556, Note_off_c, 9, 41, 0
41, 311556, Note_off_c, 9, 36, 0
41, 311556, Note_off_c, 9, 38, 0
41, 312277, Note_on_c, 9, 41, 80
41, 312277, Note_on_c, 9, 38, 80
41, 312277, Note_on_c, 9, 36, 80
41, 312948, Note_off_c, 9, 41, 0
41, 312948, Note_off_c, 9, 38, 0
41, 312948, Note_off_c, 9, 36, 0
41, 312997, Note_on_c, 9, 49, 80
41, 312997, Note_on_c, 9, 38, 80
41, 313117, Note_on_c, 9, 38, 80
41, 313156, Note_off_c, 9, 49, 0
41, 313156, Note_off_c, 9, 38, 0
41, 313276, Note_off_c, 9, 38, 0
41, 313357, Note_on_c, 9, 38, 80
41, 313477, Note_on_c, 9, 38, 80
41, 313516, Note_off_c, 9, 38, 0
41, 313597, Note_on_c, 9, 38, 80
41, 313636, Note_off_c, 9, 38, 0
41, 313756, Note_off_c, 9, 38, 0
41, 313837, Note_on_c, 9, 38, 80
41, 313957, Note_on_c, 9, 38, 80
41, 313996, Note_off_c, 9, 38, 0
41, 314077, Note_on_c, 9, 38, 80
41, 314116, Note_off_c, 9, 38, 0
41, 314236, Note_off_c, 9, 38, 0
41, 314317, Note_on_c, 9, 38, 80
41, 314437, Note_on_c, 9, 36, 80
41, 314437, Note_on_c, 9, 51, 80
41, 314476, Note_off_c, 9, 38, 0
41, 314916, Note_off_c, 9, 51, 0
41, 314916, Note_off_c, 9, 36, 0
41, 314917, Note_on_c, 9, 51, 80
41, 314917, Note_on_c, 9, 40, 80
41, 314917, Note_on_c, 9, 37, 80
41, 315396, Note_off_c, 9, 51, 0
41, 315396, Note_off_c, 9, 40, 0
41, 315396, Note_off_c, 9, 37, 0
41, 315397, Note_on_c, 9, 36, 80
41, 315397, Note_on_c, 9, 51, 80
41, 315876, Note_off_c, 9, 36, 0
41, 315876, Note_off_c, 9, 51, 0
41, 315877, Note_on_c, 9, 37, 80
41, 315877, Note_on_c, 9, 51, 80
41, 315877, Note_on_c, 9, 40, 80
41, 316356, Note_off_c, 9, 51, 0
41, 316356, Note_off_c, 9, 40, 0
41, 316356, Note_off_c, 9, 37, 0
41, 316357, Note_on_c, 9, 36, 80
41, 316357, Note_on_c, 9, 51, 80
41, 316836, Note_off_c, 9, 36, 0
41, 316836, Note_off_c, 9, 51, 0
41, 316837, Note_on_c, 9, 51, 80
41, 316837, Note_on_c, 9, 37, 80
41, 316837, Note_on_c, 9, 40, 80
41, 317316, Note_off_c, 9, 37, 0
41, 317316, Note_off_c, 9, 40, 0
41, 317316, Note_off_c, 9, 51, 0
41, 317317, Note_on_c, 9, 36, 80
41, 317317, Note_on_c, 9, 51, 80
41, 317796, Note_off_c, 9, 36, 0
41, 317796, Note_off_c, 9, 51, 0
41, 317797, Note_on_c, 9, 37, 80
41, 317797, Note_on_c, 9, 40, 80
41, 317797, Note_on_c, 9, 51, 80
41, 318276, Note_off_c, 9, 51, 0
41, 318276, Note_off_c, 9, 40, 0
41, 318276, Note_off_c, 9, 37, 0
41, 318277, Note_on_c, 9, 49, 80
41, 318277, Note_on_c, 9, 43, 80
41, 318277, Note_on_c, 9, 36, 80
41, 318756, Note_off_c, 9, 49, 0
41, 318756, Note_off_c, 9, 43, 0
41, 318756, Note_off_c, 9, 36, 0
41, 320197, Note_on_c, 9, 49, 80
41, 320197, Note_on_c, 9, 36, 80
41, 320197, Note_on_c, 9, 43, 80
41, 320676, Note_off_c, 9, 43, 0
41, 320676, Note_off_c, 9, 49, 0
41, 320676, Note_off_c, 9, 36, 0
41, 322117, Note_on_c, 9, 36, 80
41, 322117, Note_on_c, 9, 49, 80
41, 322357, Note_on_c, 9, 38, 80
41, 322404, Note_off_c, 9, 36, 0
41, 322404, Note_off_c, 9, 49, 0
41, 322548, Note_off_c, 9, 38, 0
41, 322597, Note_on_c, 9, 38, 80
41, 322837, Note_on_c, 9, 36, 80
41, 322837, Note_on_c, 9, 49, 80
41, 322884, Note_off_c, 9, 38, 0
41, 323311, Note_off_c, 9, 36, 0
41, 323311, Note_off_c, 9, 49, 0
41, 323317, Note_on_c, 9, 38, 80
41, 323508, Note_off_c, 9, 38, 0
41, 323557, Note_on_c, 9, 38, 80
41, 323797, Note_on_c, 9, 36, 80
41, 323797, Note_on_c, 9, 49, 80
41, 323844, Note_off_c, 9, 38, 0
41, 324276, Note_off_c, 9, 36, 0
41, 324276, Note_off_c, 9, 49, 0
41, 324277, Note_on_c, 9, 38, 80
41, 324468, Note_off_c, 9, 38, 0
41, 324517, Note_on_c, 9, 38, 80
41, 324757, Note_on_c, 9, 49, 80
41, 324757, Note_on_c, 9, 36, 80
41, 324804, Note_off_c, 9, 38, 0
41, 325231, Note_off_c, 9, 36, 0
41, 325231, Note_off_c, 9, 49, 0
41, 325477, Note_on_c, 9, 38, 80
41, 325597, Note_on_c, 9, 38, 80
41, 325636, Note_off_c, 9, 38, 0
41, 325756, Note_off_c, 9, 38, 0
41, 325837, Note_on_c, 9, 38, 80
41, 325957, Note_on_c, 9, 42, 127
41, 325996, Note_off_c, 9, 38, 0
41, 326077, Note_off_c, 9, 42, 0
41, 326317, Note_on_c, 9, 47, 80
41, 326317, Note_on_c, 9, 42, 127
41, 326317, Note_on_c, 9, 38, 80
41, 326317, Note_on_c, 9, 36, 80
41, 326437, Note_off_c, 9, 42, 0
41, 326437, Note_on_c, 9, 42, 127
41, 326557, Note_on_c, 9, 47, 80
41, 326557, Note_on_c, 9, 38, 80
41, 326557, Note_on_c, 9, 36, 80
41, 326557, Note_off_c, 9, 42, 0
41, 326636, Note_off_c, 9, 47, 0
41, 326636, Note_off_c, 9, 38, 0
41, 326636, Note_off_c, 9, 36, 0
41, 326677, Note_on_c, 9, 42, 127
41, 326797, Note_off_c, 9, 42, 0
41, 326797, Note_on_c, 9, 42, 127
41, 326876, Note_off_c, 9, 38, 0
41, 326876, Note_off_c, 9, 47, 0
41, 326876, Note_off_c, 9, 36, 0
41, 326917, Note_off_c, 9, 42, 0
41, 326917, Note_on_c, 9, 36, 80
41, 326917, Note_on_c, 9, 38, 80
41, 326917, Note_on_c, 9, 42, 127
41, 326917, Note_on_c, 9, 47, 80
41, 327037, Note_off_c, 9, 42, 0
41, 327037, Note_on_c, 9, 42, 127
41, 327157, Note_off_c, 9, 42, 0
41, 327236, Note_off_c, 9, 36, 0
41, 327236, Note_off_c, 9, 38, 0
41, 327236, Note_off_c, 9, 47, 0
41, 327277, Note_on_c, 9, 36, 80
41, 327277, Note_on_c, 9, 38, 80
41, 327277, Note_on_c, 9, 47, 80
41, 327397, Note_on_c, 9, 42, 127
41, 327517, Note_off_c, 9, 42, 0
41, 327517, Note_on_c, 9, 36, 80
41, 327517, Note_on_c, 9, 38, 80
41, 327517, Note_on_c, 9, 47, 80
41, 327596, Note_off_c, 9, 36, 0
41, 327596, Note_off_c, 9, 38, 0
41, 327596, Note_off_c, 9, 47, 0
41, 327836, Note_off_c, 9, 38, 0
41, 327836, Note_off_c, 9, 36, 0
41, 327836, Note_off_c, 9, 47, 0
41, 327877, Note_on_c, 9, 49, 80
41, 327877, Note_on_c, 9, 40, 80
41, 327877, Note_on_c, 9, 43, 80
41, 327877, Note_on_c, 9, 36, 80
41, 328356, Note_off_c, 9, 36, 0
41, 328356, Note_off_c, 9, 40, 0
41, 328356, Note_off_c, 9, 43, 0
41, 328356, Note_off_c, 9, 49, 0
41, 328837, Note_on_c, 9, 38, 80
41, 328957, Note_on_c, 9, 38, 80
41, 328996, Note_off_c, 9, 38, 0
41, 329116, Note_off_c, 9, 38, 0
41, 329197, Note_on_c, 9, 38, 80
41, 329317, Note_on_c, 9, 38, 80
41, 329356, Note_off_c, 9, 38, 0
41, 329437, Note_on_c, 9, 38, 80
41, 329476, Note_off_c, 9, 38, 0
41, 329596, Note_off_c, 9, 38, 0
41, 329677, Note_on_c, 9, 38, 80
41, 329797, Note_on_c, 9, 51, 80
41, 329797, Note_off_c, 9, 38, 0
41, 329797, Note_on_c, 9, 36, 80
41, 330276, Note_off_c, 9, 36, 0
41, 330276, Note_off_c, 9, 51, 0
41, 330277, Note_on_c, 9, 37, 80
41, 330277, Note_on_c, 9, 40, 80
41, 330277, Note_on_c, 9, 51, 80
41, 330756, Note_off_c, 9, 51, 0
41, 330756, Note_off_c, 9, 37, 0
41, 330756, Note_off_c, 9, 40, 0
41, 330757, Note_on_c, 9, 36, 80
41, 330757, Note_on_c, 9, 51, 80
41, 331236, Note_off_c, 9, 36, 0
41, 331236, Note_off_c, 9, 51, 0
41, 331237, Note_on_c, 9, 51, 80
41, 331237, Note_on_c, 9, 40, 80
41, 331237, Note_on_c, 9, 37, 80
41, 331716, Note_off_c, 9, 37, 0
41, 331716, Note_off_c, 9, 51, 0
41, 331716, Note_off_c, 9, 40, 0
41, 331717, Note_on_c, 9, 36, 80
41, 331717, Note_on_c, 9, 51, 80
41, 332196, Note_off_c, 9, 36, 0
41, 332196, Note_off_c, 9, 51, 0
41, 332197, Note_on_c, 9, 37, 80
41, 332197, Note_on_c, 9, 40, 80
41, 332197, Note_on_c, 9, 51, 80
41, 332676, Note_off_c, 9, 51, 0
41, 332676, Note_off_c, 9, 40, 0
41, 332676, Note_off_c, 9, 37, 0
41, 332677, Note_on_c, 9, 51, 80
41, 332677, Note_on_c, 9, 36, 80
41, 333156, Note_off_c, 9, 36, 0
41, 333156, Note_off_c, 9, 51, 0
41, 333157, Note_on_c, 9, 37, 80
41, 333157, Note_on_c, 9, 51, 80
41, 333157, Note_on_c, 9, 40, 80
41, 333636, Note_off_c, 9, 37, 0
41, 333636, Note_off_c, 9, 51, 0
41, 333636, Note_off_c, 9, 40, 0
41, 333637, Note_on_c, 9, 51, 80
41, 333637, Note_on_c, 9, 36, 80
41, 334116, Note_off_c, 9, 51, 0
41, 334116, Note_off_c, 9, 36, 0
41, 334117, Note_on_c, 9, 51, 80
41, 334117, Note_on_c, 9, 40, 80
41, 334117, Note_on_c, 9, 37, 80
41, 334596, Note_off_c, 9, 51, 0
41, 334596, Note_off_c, 9, 40, 0
41, 334596, Note_off_c, 9, 37, 0
41, 334597, Note_on_c, 9, 51, 80
41, 334597, Note_on_c, 9, 36, 80
41, 335076, Note_off_c, 9, 51, 0
41, 335076, Note_off_c, 9, 36, 0
41, 335077, Note_on_c, 9, 40, 80
41, 335077, Note_on_c, 9, 37, 80
41, 335077, Note_on_c, 9, 51, 80
41, 335556, Note_off_c, 9, 40, 0
41, 335556, Note_off_c, 9, 51, 0
41, 335556, Note_off_c, 9, 37, 0
41, 335557, Note_on_c, 9, 36, 80
41, 335557, Note_on_c, 9, 51, 80
41, 336036, Note_off_c, 9, 36, 0
41, 336036, Note_off_c, 9, 51, 0
41, 336037, Note_on_c, 9, 37, 80
41, 336037, Note_on_c, 9, 40, 80
41, 336037, Note_on_c, 9, 51, 80
41, 336516, Note_off_c, 9, 37, 0
41, 336516, Note_off_c, 9, 40, 0
41, 336516, Note_off_c, 9, 51, 0
41, 336517, Note_on_c, 9, 36, 80
41, 336517, Note_on_c, 9, 51, 80
41, 336996, Note_off_c, 9, 36, 0
41, 336996, Note_off_c, 9, 51, 0
41, 336997, Note_on_c, 9, 37, 80
41, 336997, Note_on_c, 9, 40, 80
41, 336997, Note_on_c, 9, 51, 80
41, 337476, Note_off_c, 9, 37, 0
41, 337476, Note_off_c, 9, 40, 0
41, 337476, Note_off_c, 9, 51, 0
41, 337477, Note_on_c, 9, 36, 80
41, 337477, Note_on_c, 9, 51, 80
41, 337956, Note_off_c, 9, 36, 0
41, 337956, Note_off_c, 9, 51, 0
41, 337957, Note_on_c, 9, 40, 80
41, 337957, Note_on_c, 9, 51, 80
41, 337957, Note_on_c, 9, 37, 80
41, 338436, Note_off_c, 9, 37, 0
41, 338436, Note_off_c, 9, 40, 0
41, 338436, Note_off_c, 9, 51, 0
41, 338437, Note_on_c, 9, 36, 80
41, 338437, Note_on_c, 9, 51, 80
41, 338916, Note_off_c, 9, 36, 0
41, 338916, Note_off_c, 9, 51, 0
41, 338917, Note_on_c, 9, 37, 80
41, 338917, Note_on_c, 9, 40, 80
41, 338917, Note_on_c, 9, 51, 80
41, 339396, Note_off_c, 9, 37, 0
41, 339396, Note_off_c, 9, 40, 0
41, 339396, Note_off_c, 9, 51, 0
41, 339397, Note_on_c, 9, 51, 80
41, 339397, Note_on_c, 9, 36, 80
41, 339876, Note_off_c, 9, 36, 0
41, 339876, Note_off_c, 9, 51, 0
41, 339877, Note_on_c, 9, 40, 80
41, 339877, Note_on_c, 9, 37, 80
41, 339877, Note_on_c, 9, 51, 80
41, 340356, Note_off_c, 9, 51, 0
41, 340356, Note_off_c, 9, 40, 0
41, 340356, Note_off_c, 9, 37, 0
41, 340357, Note_on_c, 9, 51, 80
41, 340357, Note_on_c, 9, 36, 80
41, 340836, Note_off_c, 9, 51, 0
41, 340836, Note_off_c, 9, 36, 0
41, 340837, Note_on_c, 9, 51, 80
41, 340837, Note_on_c, 9, 40, 80
41, 340837, Note_on_c, 9, 37, 80
41, 341316, Note_off_c, 9, 51, 0
41, 341316, Note_off_c, 9, 40, 0
41, 341316, Note_off_c, 9, 37, 0
41, 341317, Note_on_c, 9, 51, 80
41, 341317, Note_on_c, 9, 36, 80
41, 341796, Note_off_c, 9, 51, 0
41, 341796, Note_off_c, 9, 36, 0
41, 341797, Note_on_c, 9, 51, 80
41, 341797, Note_on_c, 9, 40, 80
41, 341797, Note_on_c, 9, 37, 80
41, 342276, Note_off_c, 9, 51, 0
41, 342276, Note_off_c, 9, 40, 0
41, 342276, Note_off_c, 9, 37, 0
41, 342277, Note_on_c, 9, 38, 80
41, 342277, Note_on_c, 9, 36, 80
41, 342277, Note_on_c, 9, 49, 80
41, 342277, Note_on_c, 9, 43, 80
41, 342517, Note_on_c, 9, 38, 80
41, 342564, Note_off_c, 9, 36, 0
41, 342564, Note_off_c, 9, 49, 0
41, 342564, Note_off_c, 9, 43, 0
41, 342564, Note_off_c, 9, 38, 0
41, 342708, Note_off_c, 9, 38, 0
41, 342757, Note_on_c, 9, 38, 80
41, 342997, Note_on_c, 9, 38, 80
41, 343044, Note_off_c, 9, 38, 0
41, 343188, Note_off_c, 9, 38, 0
41, 343237, Note_on_c, 9, 36, 80
41, 343237, Note_on_c, 9, 43, 80
41, 343237, Note_on_c, 9, 49, 80
41, 343716, Note_off_c, 9, 36, 0
41, 343716, Note_off_c, 9, 43, 0
41, 343716, Note_off_c, 9, 49, 0
41, 343717, Note_on_c, 9, 38, 80
41, 344196, Note_off_c, 9, 38, 0
41, 344677, Note_on_c, 9, 38, 80
41, 344797, Note_on_c, 9, 38, 80
41, 344836, Note_off_c, 9, 38, 0
41, 344956, Note_off_c, 9, 38, 0
41, 345037, Note_on_c, 9, 38, 80
41, 345157, Note_on_c, 9, 36, 80
41, 345157, Note_on_c, 9, 51, 80
41, 345196, Note_off_c, 9, 38, 0
41, 345636, Note_off_c, 9, 36, 0
41, 345636, Note_off_c, 9, 51, 0
41, 345637, Note_on_c, 9, 40, 80
41, 345637, Note_on_c, 9, 37, 80
41, 345637, Note_on_c, 9, 51, 80
41, 346116, Note_off_c, 9, 51, 0
41, 346116, Note_off_c, 9, 37, 0
41, 346116, Note_off_c, 9, 40, 0
41, 346117, Note_on_c, 9, 36, 80
41, 346117, Note_on_c, 9, 51, 80
41, 346596, Note_off_c, 9, 36, 0
41, 346596, Note_off_c, 9, 51, 0
41, 346597, Note_on_c, 9, 37, 80
41, 346597, Note_on_c, 9, 51, 80
41, 346597, Note_on_c, 9, 40, 80
41, 347076, Note_off_c, 9, 37, 0
41, 347076, Note_off_c, 9, 51, 0
41, 347076, Note_off_c, 9, 40, 0
41, 347077, Note_on_c, 9, 51, 80
41, 347077, Note_on_c, 9, 36, 80
41, 347556, Note_off_c, 9, 51, 0
41, 347556, Note_off_c, 9, 36, 0
41, 347557, Note_on_c, 9, 40, 80
41, 347557, Note_on_c, 9, 37, 80
41, 347557, Note_on_c, 9, 51, 80
41, 348036, Note_off_c, 9, 51, 0
41, 348036, Note_off_c, 9, 40, 0
41, 348036, Note_off_c, 9, 37, 0
41, 348037, Note_on_c, 9, 51, 80
41, 348037, Note_on_c, 9, 36, 80
41, 348516, Note_off_c, 9, 51, 0
41, 348516, Note_off_c, 9, 36, 0
41, 348517, Note_on_c, 9, 51, 80
41, 348517, Note_on_c, 9, 40, 80
41, 348517, Note_on_c, 9, 37, 80
41, 348996, Note_off_c, 9, 51, 0
41, 348996, Note_off_c, 9, 40, 0
41, 348996, Note_off_c, 9, 37, 0
41, 348997, Note_on_c, 9, 36, 80
41, 348997, Note_on_c, 9, 51, 80
41, 349476, Note_off_c, 9, 51, 0
41, 349476, Note_off_c, 9, 36, 0
41, 349477, Note_on_c, 9, 37, 80
41, 349477, Note_on_c, 9, 51, 80
41, 349477, Note_on_c, 9, 40, 80
41, 349956, Note_off_c, 9, 37, 0
41, 349956, Note_off_c, 9, 51, 0
41, 349956, Note_off_c, 9, 40, 0
41, 349957, Note_on_c, 9, 51, 80
41, 349957, Note_on_c, 9, 36, 80
41, 350436, Note_off_c, 9, 51, 0
41, 350436, Note_off_c, 9, 36, 0
41, 350437, Note_on_c, 9, 40, 80
41, 350437, Note_on_c, 9, 37, 80
41, 350437, Note_on_c, 9, 51, 80
41, 350916, Note_off_c, 9, 51, 0
41, 350916, Note_off_c, 9, 37, 0
41, 350916, Note_off_c, 9, 40, 0
41, 350917, Note_on_c, 9, 36, 80
41, 350917, Note_on_c, 9, 51, 80
41, 351396, Note_off_c, 9, 36, 0
41, 351396, Note_off_c, 9, 51, 0
41, 351397, Note_on_c, 9, 51, 80
41, 351397, Note_on_c, 9, 37, 80
41, 351397, Note_on_c, 9, 40, 80
41, 351876, Note_off_c, 9, 40, 0
41, 351876, Note_off_c, 9, 37, 0
41, 351876, Note_off_c, 9, 51, 0
41, 351877, Note_on_c, 9, 51, 80
41, 351877, Note_on_c, 9, 36, 80
41, 352356, Note_off_c, 9, 51, 0
41, 352356, Note_off_c, 9, 36, 0
41, 352357, Note_on_c, 9, 51, 80
41, 352357, Note_on_c, 9, 40, 80
41, 352357, Note_on_c, 9, 37, 80
41, 352836, Note_off_c, 9, 51, 0
41, 352836, Note_off_c, 9, 40, 0
41, 352836, Note_off_c, 9, 37, 0
41, 352837, Note_on_c, 9, 51, 80
41, 352837, Note_on_c, 9, 36, 80
41, 353316, Note_off_c, 9, 51, 0
41, 353316, Note_off_c, 9, 36, 0
41, 353317, Note_on_c, 9, 51, 80
41, 353317, Note_on_c, 9, 37, 80
41, 353317, Note_on_c, 9, 40, 80
41, 353796, Note_off_c, 9, 51, 0
41, 353796, Note_off_c, 9, 40, 0
41, 353796, Note_off_c, 9, 37, 0
41, 353797, Note_on_c, 9, 36, 80
41, 353797, Note_on_c, 9, 51, 80
41, 354276, Note_off_c, 9, 36, 0
41, 354276, Note_off_c, 9, 51, 0
41, 354277, Note_on_c, 9, 37, 80
41, 354277, Note_on_c, 9, 40, 80
41, 354277, Note_on_c, 9, 51, 80
41, 354756, Note_off_c, 9, 37, 0
41, 354756, Note_off_c, 9, 40, 0
41, 354756, Note_off_c, 9, 51, 0
41, 354757, Note_on_c, 9, 51, 80
41, 354757, Note_on_c, 9, 36, 80
41, 355236, Note_off_c, 9, 36, 0
41, 355236, Note_off_c, 9, 51, 0
41, 355237, Note_on_c, 9, 37, 80
41, 355237, Note_on_c, 9, 40, 80
41, 355237, Note_on_c, 9, 51, 80
41, 355716, Note_off_c, 9, 51, 0
41, 355716, Note_off_c, 9, 37, 0
41, 355716, Note_off_c, 9, 40, 0
41, 355717, Note_on_c, 9, 51, 80
41, 355717, Note_on_c, 9, 36, 80
41, 356196, Note_off_c, 9, 51, 0
41, 356196, Note_off_c, 9, 36, 0
41, 356197, Note_on_c, 9, 40, 80
41, 356197, Note_on_c, 9, 51, 80
41, 356197, Note_on_c, 9, 37, 80
41, 356676, Note_off_c, 9, 40, 0
41, 356676, Note_off_c, 9, 51, 0
41, 356676, Note_off_c, 9, 37, 0
41, 356677, Note_on_c, 9, 36, 80
41, 356677, Note_on_c, 9, 51, 80
41, 357156, Note_off_c, 9, 36, 0
41, 357156, Note_off_c, 9, 51, 0
41, 357157, Note_on_c, 9, 37, 80
41, 357157, Note_on_c, 9, 40, 80
41, 357157, Note_on_c, 9, 51, 80
41, 357636, Note_off_c, 9, 37, 0
41, 357636, Note_off_c, 9, 40, 0
41, 357636, Note_off_c, 9, 51, 0
41, 357637, Note_on_c, 9, 36, 80
41, 357637, Note_on_c, 9, 51, 80
41, 358116, Note_off_c, 9, 51, 0
41, 358116, Note_off_c, 9, 36, 0
41, 358117, Note_on_c, 9, 51, 80
41, 358117, Note_on_c, 9, 40, 80
41, 358117, Note_on_c, 9, 37, 80
41, 358596, Note_off_c, 9, 51, 0
41, 358596, Note_off_c, 9, 40, 0
41, 358596, Note_off_c, 9, 37, 0
41, 358597, Note_on_c, 9, 36, 80
41, 358597, Note_on_c, 9, 51, 80
41, 359076, Note_off_c, 9, 51, 0
41, 359076, Note_off_c, 9, 36, 0
41, 359077, Note_on_c, 9, 40, 80
41, 359077, Note_on_c, 9, 37, 80
41, 359077, Note_on_c, 9, 51, 80
41, 359556, Note_off_c, 9, 40, 0
41, 359556, Note_off_c, 9, 37, 0
41, 359556, Note_off_c, 9, 51, 0
41, 359557, Note_on_c, 9, 36, 80
41, 359557, Note_on_c, 9, 51, 80
41, 359557, Note_on_c, 9, 43, 127
41, 359677, Note_off_c, 9, 43, 0
41, 359917, Note_on_c, 9, 43, 127
41, 360036, Note_off_c, 9, 51, 0
41, 360036, Note_off_c, 9, 36, 0
41, 360037, Note_on_c, 9, 51, 80
41, 360037, Note_on_c, 9, 47, 127
41, 360037, Note_on_c, 9, 40, 80
41, 360037, Note_on_c, 9, 37, 80
41, 360037, Note_off_c, 9, 43, 0
41, 360157, Note_on_c, 9, 50, 127
41, 360157, Note_off_c, 9, 47, 0
41, 360277, Note_on_c, 9, 45, 127
41, 360277, Note_on_c, 9, 43, 127
41, 360277, Note_off_c, 9, 50, 0
41, 360397, Note_on_c, 9, 43, 127
41, 360397, Note_off_c, 9, 45, 0
41, 360397, Note_off_c, 9, 43, 0
41, 360516, Note_off_c, 9, 51, 0
41, 360516, Note_off_c, 9, 40, 0
41, 360516, Note_off_c, 9, 37, 0
41, 360517, Note_on_c, 9, 36, 80
41, 360517, Note_on_c, 9, 43, 127
41, 360517, Note_on_c, 9, 50, 127
41, 360517, Note_off_c, 9, 43, 0
41, 360517, Note_on_c, 9, 51, 80
41, 360637, Note_off_c, 9, 43, 0
41, 360637, Note_off_c, 9, 50, 0
41, 360996, Note_off_c, 9, 51, 0
41, 360996, Note_off_c, 9, 36, 0
41, 360997, Note_on_c, 9, 37, 80
41, 360997, Note_on_c, 9, 40, 80
41, 360997, Note_on_c, 9, 51, 80
41, 361476, Note_off_c, 9, 37, 0
41, 361476, Note_off_c, 9, 40, 0
41, 361476, Note_off_c, 9, 51, 0
41, 361477, Note_on_c, 9, 36, 80
41, 361477, Note_on_c, 9, 51, 80
41, 361956, Note_off_c, 9, 36, 0
41, 361956, Note_off_c, 9, 51, 0
41, 361957, Note_on_c, 9, 37, 80
41, 361957, Note_on_c, 9, 40, 80
41, 361957, Note_on_c, 9, 51, 80
41, 362436, Note_off_c, 9, 37, 0
41, 362436, Note_off_c, 9, 40, 0
41, 362436, Note_off_c, 9, 51, 0
41, 362437, Note_on_c, 9, 36, 80
41, 362437, Note_on_c, 9, 51, 80
41, 362916, Note_off_c, 9, 36, 0
41, 362916, Note_off_c, 9, 51, 0
41, 362917, Note_on_c, 9, 37, 80
41, 362917, Note_on_c, 9, 51, 80
41, 362917, Note_on_c, 9, 40, 80
41, 363396, Note_off_c, 9, 37, 0
41, 363396, Note_off_c, 9, 51, 0
41, 363396, Note_off_c, 9, 40, 0
41, 363397, Note_on_c, 9, 36, 80
41, 363397, Note_on_c, 9, 51, 80
41, 363876, Note_off_c, 9, 51, 0
41, 363876, Note_off_c, 9, 36, 0
41, 363877, Note_on_c, 9, 51, 80
41, 363877, Note_on_c, 9, 40, 80
41, 363877, Note_on_c, 9, 37, 80
41, 364356, Note_off_c, 9, 51, 0
41, 364356, Note_off_c, 9, 40, 0
41, 364356, Note_off_c, 9, 37, 0
41, 364357, Note_on_c, 9, 51, 80
41, 364357, Note_on_c, 9, 36, 80
41, 364836, Note_off_c, 9, 51, 0
41, 364836, Note_off_c, 9, 36, 0
41, 364837, Note_on_c, 9, 51, 80
41, 364837, Note_on_c, 9, 40, 80
41, 364837, Note_on_c, 9, 37, 80
41, 365316, Note_off_c, 9, 51, 0
41, 365316, Note_off_c, 9, 40, 0
41, 365316, Note_off_c, 9, 37, 0
41, 365317, Note_on_c, 9, 51, 80
41, 365317, Note_on_c, 9, 36, 80
41, 365796, Note_off_c, 9, 36, 0
41, 365796, Note_off_c, 9, 51, 0
41, 365797, Note_on_c, 9, 37, 80
41, 365797, Note_on_c, 9, 40, 80
41, 365797, Note_on_c, 9, 51, 80
41, 366276, Note_off_c, 9, 51, 0
41, 366276, Note_off_c, 9, 40, 0
41, 366276, Note_off_c, 9, 37, 0
41, 366277, Note_on_c, 9, 51, 80
41, 366277, Note_on_c, 9, 36, 80
41, 366756, Note_off_c, 9, 51, 0
41, 366756, Note_off_c, 9, 36, 0
41, 366757, Note_on_c, 9, 51, 80
41, 366757, Note_on_c, 9, 40, 80
41, 366757, Note_on_c, 9, 37, 80
41, 367236, Note_off_c, 9, 51, 0
41, 367236, Note_off_c, 9, 40, 0
41, 367236, Note_off_c, 9, 37, 0
41, 367237, Note_on_c, 9, 51, 80
41, 367237, Note_on_c, 9, 36, 80
41, 367716, Note_off_c, 9, 51, 0
41, 367716, Note_off_c, 9, 36, 0
41, 367717, Note_on_c, 9, 51, 80
41, 367717, Note_on_c, 9, 40, 80
41, 367717, Note_on_c, 9, 37, 80
41, 368196, Note_off_c, 9, 51, 0
41, 368196, Note_off_c, 9, 40, 0
41, 368196, Note_off_c, 9, 37, 0
41, 368197, Note_on_c, 9, 51, 80
41, 368197, Note_on_c, 9, 36, 80
41, 368676, Note_off_c, 9, 51, 0
41, 368676, Note_off_c, 9, 36, 0
41, 368677, Note_on_c, 9, 40, 80
41, 368677, Note_on_c, 9, 51, 80
41, 368677, Note_on_c, 9, 37, 80
41, 369156, Note_off_c, 9, 37, 0
41, 369156, Note_off_c, 9, 40, 0
41, 369156, Note_off_c, 9, 51, 0
41, 369157, Note_on_c, 9, 36, 80
41, 369157, Note_on_c, 9, 51, 80
41, 369636, Note_off_c, 9, 36, 0
41, 369636, Note_off_c, 9, 51, 0
41, 369637, Note_on_c, 9, 51, 80
41, 369637, Note_on_c, 9, 40, 80
41, 369637, Note_on_c, 9, 37, 80
41, 370116, Note_off_c, 9, 40, 0
41, 370116, Note_off_c, 9, 37, 0
41, 370116, Note_off_c, 9, 51, 0
41, 370117, Note_on_c, 9, 51, 80
41, 370117, Note_on_c, 9, 36, 80
41, 370596, Note_off_c, 9, 36, 0
41, 370596, Note_off_c, 9, 51, 0
41, 370597, Note_on_c, 9, 37, 80
41, 370597, Note_on_c, 9, 40, 80
41, 370597, Note_on_c, 9, 51, 80
41, 371076, Note_off_c, 9, 37, 0
41, 371076, Note_off_c, 9, 40, 0
41, 371076, Note_off_c, 9, 51, 0
41, 371077, Note_on_c, 9, 51, 80
41, 371077, Note_on_c, 9, 36, 80
41, 371556, Note_off_c, 9, 36, 0
41, 371556, Note_off_c, 9, 51, 0
41, 371557, Note_on_c, 9, 37, 80
41, 371557, Note_on_c, 9, 40, 80
41, 371557, Note_on_c, 9, 51, 80
41, 372036, Note_off_c, 9, 37, 0
41, 372036, Note_off_c, 9, 40, 0
41, 372036, Note_off_c, 9, 51, 0
41, 372037, Note_on_c, 9, 36, 80
41, 372037, Note_on_c, 9, 51, 80
41, 372516, Note_off_c, 9, 36, 0
41, 372516, Note_off_c, 9, 51, 0
41, 372517, Note_on_c, 9, 37, 80
41, 372517, Note_on_c, 9, 40, 80
41, 372517, Note_on_c, 9, 51, 80
41, 372996, Note_off_c, 9, 37, 0
41, 372996, Note_off_c, 9, 40, 0
41, 372996, Note_off_c, 9, 51, 0
41, 372997, Note_on_c, 9, 49, 80
41, 372997, Note_on_c, 9, 36, 80
41, 372997, Note_on_c, 9, 38, 80
41, 372997, Note_on_c, 9, 43, 80
41, 373237, Note_on_c, 9, 38, 80
41, 373284, Note_off_c, 9, 36, 0
41, 373284, Note_off_c, 9, 38, 0
41, 373284, Note_off_c, 9, 43, 0
41, 373284, Note_off_c, 9, 49, 0
41, 373428, Note_off_c, 9, 38, 0
41, 373477, Note_on_c, 9, 38, 80
41, 373717, Note_on_c, 9, 38, 80
41, 373764, Note_off_c, 9, 38, 0
41, 373908, Note_off_c, 9, 38, 0
41, 373957, Note_on_c, 9, 36, 80
41, 373957, Note_on_c, 9, 43, 80
41, 373957, Note_on_c, 9, 49, 80
41, 374436, Note_off_c, 9, 36, 0
41, 374436, Note_off_c, 9, 43, 0
41, 374436, Note_off_c, 9, 49, 0
41, 374437, Note_on_c, 9, 38, 80
41, 374916, Note_off_c, 9, 38, 0
41, 375397, Note_on_c, 9, 38, 80
41, 375517, Note_on_c, 9, 38, 80
41, 375556, Note_off_c, 9, 38, 0
41, 375676, Note_off_c, 9, 38, 0
41, 375757, Note_on_c, 9, 38, 80
41, 375877, Note_on_c, 9, 36, 80
41, 375877, Note_on_c, 9, 51, 80
41, 375916, Note_off_c, 9, 38, 0
41, 376356, Note_off_c, 9, 36, 0
41, 376356, Note_off_c, 9, 51, 0
41, 376357, Note_on_c, 9, 37, 80
41, 376357, Note_on_c, 9, 51, 80
41, 376357, Note_on_c, 9, 40, 80
41, 376836, Note_off_c, 9, 40, 0
41, 376836, Note_off_c, 9, 37, 0
41, 376836, Note_off_c, 9, 51, 0
41, 376837, Note_on_c, 9, 36, 80
41, 376837, Note_on_c, 9, 51, 80
41, 377316, Note_off_c, 9, 36, 0
41, 377316, Note_off_c, 9, 51, 0
41, 377317, Note_on_c, 9, 37, 80
41, 377317, Note_on_c, 9, 40, 80
41, 377317, Note_on_c, 9, 51, 80
41, 377796, Note_off_c, 9, 37, 0
41, 377796, Note_off_c, 9, 40, 0
41, 377796, Note_off_c, 9, 51, 0
41, 377797, Note_on_c, 9, 36, 80
41, 377797, Note_on_c, 9, 51, 80
41, 378276, Note_off_c, 9, 36, 0
41, 378276, Note_off_c, 9, 51, 0
41, 378277, Note_on_c, 9, 37, 80
41, 378277, Note_on_c, 9, 51, 80
41, 378277, Note_on_c, 9, 40, 80
41, 378756, Note_off_c, 9, 40, 0
41, 378756, Note_off_c, 9, 51, 0
41, 378756, Note_off_c, 9, 37, 0
41, 378757, Note_on_c, 9, 36, 80
41, 378757, Note_on_c, 9, 51, 80
41, 379236, Note_off_c, 9, 36, 0
41, 379236, Note_off_c, 9, 51, 0
41, 379237, Note_on_c, 9, 37, 80
41, 379237, Note_on_c, 9, 40, 80
41, 379237, Note_on_c, 9, 51, 80
41, 379716, Note_off_c, 9, 37, 0
41, 379716, Note_off_c, 9, 40, 0
41, 379716, Note_off_c, 9, 51, 0
41, 379717, Note_on_c, 9, 36, 80
41, 379717, Note_on_c, 9, 51, 80
41, 380196, Note_off_c, 9, 36, 0
41, 380196, Note_off_c, 9, 51, 0
41, 380197, Note_on_c, 9, 37, 80
41, 380197, Note_on_c, 9, 51, 80
41, 380197, Note_on_c, 9, 40, 80
41, 380676, Note_off_c, 9, 51, 0
41, 380676, Note_off_c, 9, 40, 0
41, 380676, Note_off_c, 9, 37, 0
41, 380677, Note_on_c, 9, 36, 80
41, 380677, Note_on_c, 9, 51, 80
41, 381156, Note_off_c, 9, 36, 0
41, 381156, Note_off_c, 9, 51, 0
41, 381157, Note_on_c, 9, 37, 80
41, 381157, Note_on_c, 9, 40, 80
41, 381157, Note_on_c, 9, 51, 80
41, 381636, Note_off_c, 9, 37, 0
41, 381636, Note_off_c, 9, 40, 0
41, 381636, Note_off_c, 9, 51, 0
41, 381637, Note_on_c, 9, 36, 80
41, 381637, Note_on_c, 9, 51, 80
41, 382116, Note_off_c, 9, 36, 0
41, 382116, Note_off_c, 9, 51, 0
41, 382117, Note_on_c, 9, 37, 80
41, 382117, Note_on_c, 9, 40, 80
41, 382117, Note_on_c, 9, 51, 80
41, 382596, Note_off_c, 9, 37, 0
41, 382596, Note_off_c, 9, 40, 0
41, 382596, Note_off_c, 9, 51, 0
41, 382597, Note_on_c, 9, 36, 80
41, 382597, Note_on_c, 9, 51, 80
41, 383076, Note_off_c, 9, 51, 0
41, 383076, Note_off_c, 9, 36, 0
41, 383077, Note_on_c, 9, 40, 80
41, 383077, Note_on_c, 9, 37, 80
41, 383077, Note_on_c, 9, 51, 80
41, 383556, Note_off_c, 9, 40, 0
41, 383556, Note_off_c, 9, 51, 0
41, 383556, Note_off_c, 9, 37, 0
41, 383557, Note_on_c, 9, 36, 80
41, 383557, Note_on_c, 9, 51, 80
41, 384036, Note_off_c, 9, 36, 0
41, 384036, Note_off_c, 9, 51, 0
41, 384037, Note_on_c, 9, 37, 80
41, 384037, Note_on_c, 9, 40, 80
41, 384037, Note_on_c, 9, 51, 80
41, 384516, Note_off_c, 9, 37, 0
41, 384516, Note_off_c, 9, 40, 0
41, 384516, Note_off_c, 9, 51, 0
41, 384517, Note_on_c, 9, 36, 80
41, 384517, Note_on_c, 9, 51, 80
41, 384996, Note_off_c, 9, 36, 0
41, 384996, Note_off_c, 9, 51, 0
41, 384997, Note_on_c, 9, 40, 80
41, 384997, Note_on_c, 9, 37, 80
41, 384997, Note_on_c, 9, 51, 80
41, 385476, Note_off_c, 9, 40, 0
41, 385476, Note_off_c, 9, 37, 0
41, 385476, Note_off_c, 9, 51, 0
41, 385477, Note_on_c, 9, 51, 80
41, 385477, Note_on_c, 9, 36, 80
41, 385956, Note_off_c, 9, 36, 0
41, 385956, Note_off_c, 9, 51, 0
41, 385957, Note_on_c, 9, 37, 80
41, 385957, Note_on_c, 9, 40, 80
41, 385957, Note_on_c, 9, 51, 80
41, 386436, Note_off_c, 9, 40, 0
41, 386436, Note_off_c, 9, 51, 0
41, 386436, Note_off_c, 9, 37, 0
41, 386437, Note_on_c, 9, 36, 80
41, 386437, Note_on_c, 9, 51, 80
41, 386916, Note_off_c, 9, 36, 0
41, 386916, Note_off_c, 9, 51, 0
41, 386917, Note_on_c, 9, 37, 80
41, 386917, Note_on_c, 9, 40, 80
41, 386917, Note_on_c, 9, 51, 80
41, 387396, Note_off_c, 9, 37, 0
41, 387396, Note_off_c, 9, 40, 0
41, 387396, Note_off_c, 9, 51, 0
41, 387397, Note_on_c, 9, 36, 80
41, 387397, Note_on_c, 9, 51, 80
41, 387876, Note_off_c, 9, 36, 0
41, 387876, Note_off_c, 9, 51, 0
41, 387877, Note_on_c, 9, 40, 80
41, 387877, Note_on_c, 9, 51, 80
41, 387877, Note_on_c, 9, 37, 80
41, 388356, Note_off_c, 9, 37, 0
41, 388356, Note_off_c, 9, 51, 0
41, 388356, Note_off_c, 9, 40, 0
41, 388357, Note_on_c, 9, 36, 80
41, 388357, Note_on_c, 9, 51, 80
41, 388836, Note_off_c, 9, 36, 0
41, 388836, Note_off_c, 9, 51, 0
41, 388837, Note_on_c, 9, 37, 80
41, 388837, Note_on_c, 9, 40, 80
41, 388837, Note_on_c, 9, 51, 80
41, 389316, Note_off_c, 9, 37, 0
41, 389316, Note_off_c, 9, 40, 0
41, 389316, Note_off_c, 9, 51, 0
41, 389317, Note_on_c, 9, 36, 80
41, 389317, Note_on_c, 9, 51, 80
41, 389796, Note_off_c, 9, 51, 0
41, 389796, Note_off_c, 9, 36, 0
41, 389797, Note_on_c, 9, 37, 80
41, 389797, Note_on_c, 9, 40, 80
41, 389797, Note_on_c, 9, 51, 80
41, 390276, Note_off_c, 9, 37, 0
41, 390276, Note_off_c, 9, 40, 0
41, 390276, Note_off_c, 9, 51, 0
41, 390277, Note_on_c, 9, 36, 80
41, 390277, Note_on_c, 9, 51, 80
41, 390756, Note_off_c, 9, 36, 0
41, 390756, Note_off_c, 9, 51, 0
41, 390757, Note_on_c, 9, 37, 80
41, 390757, Note_on_c, 9, 40, 80
41, 390757, Note_on_c, 9, 51, 80
41, 391236, Note_off_c, 9, 37, 0
41, 391236, Note_off_c, 9, 40, 0
41, 391236, Note_off_c, 9, 51, 0
41, 391237, Note_on_c, 9, 36, 80
41, 391237, Note_on_c, 9, 51, 80
41, 391716, Note_off_c, 9, 36, 0
41, 391716, Note_off_c, 9, 51, 0
41, 391717, Note_on_c, 9, 37, 80
41, 391717, Note_on_c, 9, 40, 80
41, 391717, Note_on_c, 9, 51, 80
41, 392196, Note_off_c, 9, 37, 0
41, 392196, Note_off_c, 9, 40, 0
41, 392196, Note_off_c, 9, 51, 0
41, 392197, Note_on_c, 9, 36, 80
41, 392197, Note_on_c, 9, 51, 80
41, 392676, Note_off_c, 9, 36, 0
41, 392676, Note_off_c, 9, 51, 0
41, 392677, Note_on_c, 9, 37, 80
41, 392677, Note_on_c, 9, 40, 80
41, 392677, Note_on_c, 9, 51, 80
41, 393156, Note_off_c, 9, 40, 0
41, 393156, Note_off_c, 9, 37, 0
41, 393156, Note_off_c, 9, 51, 0
41, 393157, Note_on_c, 9, 51, 80
41, 393157, Note_on_c, 9, 36, 80
41, 393157, Note_on_c, 9, 49, 80
41, 393636, Note_off_c, 9, 51, 0
41, 393636, Note_off_c, 9, 36, 0
41, 393637, Note_on_c, 9, 51, 80
41, 393637, Note_on_c, 9, 40, 80
41, 393637, Note_on_c, 9, 37, 80
41, 394116, Note_off_c, 9, 51, 0
41, 394116, Note_off_c, 9, 40, 0
41, 394116, Note_off_c, 9, 37, 0
41, 394116, Note_off_c, 9, 49, 0
41, 394117, Note_on_c, 9, 49, 80
41, 394117, Note_on_c, 9, 36, 80
41, 394117, Note_on_c, 9, 51, 80
41, 394596, Note_off_c, 9, 51, 0
41, 394596, Note_off_c, 9, 36, 0
41, 394597, Note_on_c, 9, 51, 80
41, 394597, Note_on_c, 9, 40, 80
41, 394597, Note_on_c, 9, 37, 80
41, 395076, Note_off_c, 9, 40, 0
41, 395076, Note_off_c, 9, 37, 0
41, 395076, Note_off_c, 9, 49, 0
41, 395076, Note_off_c, 9, 51, 0
41, 395077, Note_on_c, 9, 49, 80
41, 395077, Note_on_c, 9, 36, 80
41, 395317, Note_on_c, 9, 38, 80
41, 395364, Note_off_c, 9, 49, 0
41, 395364, Note_off_c, 9, 36, 0
41, 395508, Note_off_c, 9, 38, 0
41, 395557, Note_on_c, 9, 38, 80
41, 395797, Note_on_c, 9, 36, 80
41, 395797, Note_on_c, 9, 49, 80
41, 395844, Note_off_c, 9, 38, 0
41, 396271, Note_off_c, 9, 36, 0
41, 396271, Note_off_c, 9, 49, 0
41, 396277, Note_on_c, 9, 38, 80
41, 396468, Note_off_c, 9, 38, 0
41, 396517, Note_on_c, 9, 38, 80
41, 396757, Note_on_c, 9, 49, 80
41, 396757, Note_on_c, 9, 36, 80
41, 396804, Note_off_c, 9, 38, 0
41, 397908, Note_off_c, 9, 36, 0
41, 397908, Note_off_c, 9, 49, 0
41, 397957, Note_on_c, 9, 40, 80
41, 398077, Note_on_c, 9, 40, 80
41, 398077, Note_on_c, 9, 47, 127
41, 398116, Note_off_c, 9, 40, 0
41, 398197, Note_on_c, 9, 43, 127
41, 398197, Note_off_c, 9, 47, 0
41, 398197, Note_on_c, 9, 47, 127
41, 398236, Note_off_c, 9, 40, 0
41, 398317, Note_off_c, 9, 43, 0
41, 398317, Note_off_c, 9, 47, 0
41, 398317, Note_on_c, 9, 40, 80
41, 398317, Note_on_c, 9, 43, 127
41, 398317, Note_on_c, 9, 45, 127
41, 398317, Note_on_c, 9, 47, 127
41, 398437, Note_off_c, 9, 43, 0
41, 398437, Note_off_c, 9, 45, 0
41, 398437, Note_off_c, 9, 47, 0
41, 398437, Note_on_c, 9, 40, 80
41, 398476, Note_off_c, 9, 40, 0
41, 398557, Note_on_c, 9, 43, 127
41, 398557, Note_on_c, 9, 45, 127
41, 398557, Note_on_c, 9, 40, 80
41, 398596, Note_off_c, 9, 40, 0
41, 398677, Note_off_c, 9, 45, 0
41, 398677, Note_off_c, 9, 43, 0
41, 398716, Note_off_c, 9, 40, 0
41, 398797, Note_on_c, 9, 40, 80
41, 398917, Note_off_c, 9, 40, 0
41, 398917, Note_on_c, 9, 36, 80
41, 398917, Note_on_c, 9, 47, 80
41, 398917, Note_on_c, 9, 49, 80
41, 399157, Note_on_c, 9, 45, 80
41, 399204, Note_off_c, 9, 36, 0
41, 399204, Note_off_c, 9, 47, 0
41, 399204, Note_off_c, 9, 49, 0
41, 399348, Note_off_c, 9, 45, 0
41, 399397, Note_on_c, 9, 43, 80
41, 399637, Note_on_c, 9, 48, 80
41, 399684, Note_off_c, 9, 43, 0
41, 400111, Note_off_c, 9, 48, 0
41, 400117, Note_on_c, 9, 45, 80
41, 400308, Note_off_c, 9, 45, 0
41, 400357, Note_on_c, 9, 43, 80
41, 400597, Note_on_c, 9, 36, 80
41, 400597, Note_on_c, 9, 43, 80
41, 400644, Note_off_c, 9, 43, 0
41, 400788, Note_off_c, 9, 43, 0
41, 400788, Note_off_c, 9, 36, 0
41, 400837, Note_on_c, 9, 36, 80
41, 400837, Note_on_c, 9, 47, 80
41, 401077, Note_on_c, 9, 45, 80
41, 401124, Note_off_c, 9, 36, 0
41, 401124, Note_off_c, 9, 47, 0
41, 401268, Note_off_c, 9, 45, 0
41, 401317, Note_on_c, 9, 43, 80
41, 401557, Note_on_c, 9, 48, 80
41, 401604, Note_off_c, 9, 43, 0
41, 402031, Note_off_c, 9, 48, 0
41, 402037, Note_on_c, 9, 45, 80
41, 402228, Note_off_c, 9, 45, 0
41, 402277, Note_on_c, 9, 43, 80
41, 402517, Note_on_c, 9, 36, 80
41, 402517, Note_on_c, 9, 43, 80
41, 402564, Note_off_c, 9, 43, 0
41, 402708, Note_off_c, 9, 43, 0
41, 402708, Note_off_c, 9, 36, 0
41, 402757, Note_on_c, 9, 47, 80
41, 402757, Note_on_c, 9, 36, 80
41, 402997, Note_on_c, 9, 45, 80
41, 403044, Note_off_c, 9, 47, 0
41, 403044, Note_off_c, 9, 36, 0
41, 403188, Note_off_c, 9, 45, 0
41, 403237, Note_on_c, 9, 43, 80
41, 403477, Note_on_c, 9, 48, 80
41, 403524, Note_off_c, 9, 43, 0
41, 403951, Note_off_c, 9, 48, 0
41, 403957, Note_on_c, 9, 45, 80
41, 404148, Note_off_c, 9, 45, 0
41, 404197, Note_on_c, 9, 43, 80
41, 404437, Note_on_c, 9, 36, 80
41, 404437, Note_on_c, 9, 43, 80
41, 404484, Note_off_c, 9, 43, 0
41, 404628, Note_off_c, 9, 36, 0
41, 404628, Note_off_c, 9, 43, 0
41, 404677, Note_on_c, 9, 49, 80
41, 404677, Note_on_c, 9, 36, 80
41, 405636, Note_off_c, 9, 49, 0
41, 405636, Note_off_c, 9, 36, 0
41, 405637, Note_on_c, 9, 40, 80
41, 405757, Note_on_c, 9, 40, 80
41, 405796, Note_off_c, 9, 40, 0
41, 405916, Note_off_c, 9, 40, 0
41, 405997, Note_on_c, 9, 40, 80
41, 406117, Note_on_c, 9, 40, 80
41, 406156, Note_off_c, 9, 40, 0
41, 406237, Note_on_c, 9, 40, 80
41, 406276, Note_off_c, 9, 40, 0
41, 406396, Note_off_c, 9, 40, 0
41, 406477, Note_on_c, 9, 40, 80
41, 406597, Note_on_c, 9, 36, 80
41, 406597, Note_on_c, 9, 49, 80
41, 406597, Note_on_c, 9, 47, 80
41, 406636, Note_off_c, 9, 40, 0
41, 406837, Note_on_c, 9, 45, 80
41, 406884, Note_off_c, 9, 49, 0
41, 406884, Note_off_c, 9, 47, 0
41, 406884, Note_off_c, 9, 36, 0
41, 407028, Note_off_c, 9, 45, 0
41, 407077, Note_on_c, 9, 43, 80
41, 407317, Note_on_c, 9, 48, 80
41, 407364, Note_off_c, 9, 43, 0
41, 407791, Note_off_c, 9, 48, 0
41, 407797, Note_on_c, 9, 45, 80
41, 407988, Note_off_c, 9, 45, 0
41, 408037, Note_on_c, 9, 43, 80
41, 408277, Note_on_c, 9, 43, 80
41, 408277, Note_on_c, 9, 36, 80
41, 408324, Note_off_c, 9, 43, 0
41, 408468, Note_off_c, 9, 43, 0
41, 408468, Note_off_c, 9, 36, 0
41, 408517, Note_on_c, 9, 36, 80
41, 408517, Note_on_c, 9, 47, 80
41, 408757, Note_on_c, 9, 45, 80
41, 408804, Note_off_c, 9, 36, 0
41, 408804, Note_off_c, 9, 47, 0
41, 408948, Note_off_c, 9, 45, 0
41, 408997, Note_on_c, 9, 43, 80
41, 409237, Note_on_c, 9, 48, 80
41, 409284, Note_off_c, 9, 43, 0
41, 409711, Note_off_c, 9, 48, 0
41, 409717, Note_on_c, 9, 45, 80
41, 409908, Note_off_c, 9, 45, 0
41, 409957, Note_on_c, 9, 43, 80
41, 410197, Note_on_c, 9, 36, 80
41, 410197, Note_on_c, 9, 43, 80
41, 410244, Note_off_c, 9, 43, 0
41, 410388, Note_off_c, 9, 36, 0
41, 410388, Note_off_c, 9, 43, 0
41, 410437, Note_on_c, 9, 47, 80
41, 410437, Note_on_c, 9, 36, 80
41, 410677, Note_on_c, 9, 45, 80
41, 410724, Note_off_c, 9, 36, 0
41, 410724, Note_off_c, 9, 47, 0
41, 410868, Note_off_c, 9, 45, 0
41, 410917, Note_on_c, 9, 43, 80
41, 411157, Note_on_c, 9, 48, 80
41, 411204, Note_off_c, 9, 43, 0
41, 411631, Note_off_c, 9, 48, 0
41, 411637, Note_on_c, 9, 45, 80
41, 411828, Note_off_c, 9, 45, 0
41, 411877, Note_on_c, 9, 43, 80
41, 412117, Note_on_c, 9, 36, 80
41, 412117, Note_on_c, 9, 43, 80
41, 412164, Note_off_c, 9, 43, 0
41, 412308, Note_off_c, 9, 36, 0
41, 412308, Note_off_c, 9, 43, 0
41, 412357, Note_on_c, 9, 36, 80
41, 412357, Note_on_c, 9, 49, 80
41, 413316, Note_off_c, 9, 36, 0
41, 413316, Note_off_c, 9, 49, 0
41, 413317, Note_on_c, 9, 40, 80
41, 413437, Note_on_c, 9, 40, 80
41, 413476, Note_off_c, 9, 40, 0
41, 413596, Note_off_c, 9, 40, 0
41, 413677, Note_on_c, 9, 40, 80
41, 413797, Note_on_c, 9, 40, 80
41, 413836, Note_off_c, 9, 40, 0
41, 413917, Note_on_c, 9, 40, 80
41, 413956, Note_off_c, 9, 40, 0
41, 414076, Note_off_c, 9, 40, 0
41, 414157, Note_on_c, 9, 40, 80
41, 414277, Note_on_c, 9, 36, 80
41, 414277, Note_on_c, 9, 47, 80
41, 414277, Note_on_c, 9, 49, 80
41, 414316, Note_off_c, 9, 40, 0
41, 414517, Note_on_c, 9, 45, 80
41, 414564, Note_off_c, 9, 47, 0
41, 414564, Note_off_c, 9, 36, 0
41, 414564, Note_off_c, 9, 49, 0
41, 414708, Note_off_c, 9, 45, 0
41, 414757, Note_on_c, 9, 43, 80
41, 414997, Note_on_c, 9, 48, 80
41, 415044, Note_off_c, 9, 43, 0
41, 415471, Note_off_c, 9, 48, 0
41, 415477, Note_on_c, 9, 45, 80
41, 415668, Note_off_c, 9, 45, 0
41, 415717, Note_on_c, 9, 43, 80
41, 415957, Note_on_c, 9, 36, 80
41, 415957, Note_on_c, 9, 43, 80
41, 416004, Note_off_c, 9, 43, 0
41, 416148, Note_off_c, 9, 36, 0
41, 416148, Note_off_c, 9, 43, 0
41, 416197, Note_on_c, 9, 36, 80
41, 416197, Note_on_c, 9, 47, 80
41, 416437, Note_on_c, 9, 45, 80
41, 416484, Note_off_c, 9, 47, 0
41, 416484, Note_off_c, 9, 36, 0
41, 416628, Note_off_c, 9, 45, 0
41, 416677, Note_on_c, 9, 43, 80
41, 416917, Note_on_c, 9, 48, 80
41, 416964, Note_off_c, 9, 43, 0
41, 417391, Note_off_c, 9, 48, 0
41, 417397, Note_on_c, 9, 45, 80
41, 417588, Note_off_c, 9, 45, 0
41, 417637, Note_on_c, 9, 43, 80
41, 417877, Note_on_c, 9, 43, 80
41, 417877, Note_on_c, 9, 36, 80
41, 417924, Note_off_c, 9, 43, 0
41, 418068, Note_off_c, 9, 43, 0
41, 418068, Note_off_c, 9, 36, 0
41, 418117, Note_on_c, 9, 47, 80
41, 418117, Note_on_c, 9, 36, 80
41, 418357, Note_on_c, 9, 45, 80
41, 418404, Note_off_c, 9, 47, 0
41, 418404, Note_off_c, 9, 36, 0
41, 418548, Note_off_c, 9, 45, 0
41, 418597, Note_on_c, 9, 43, 80
41, 418837, Note_on_c, 9, 48, 80
41, 418884, Note_off_c, 9, 43, 0
41, 419311, Note_off_c, 9, 48, 0
41, 419317, Note_on_c, 9, 45, 80
41, 419508, Note_off_c, 9, 45, 0
41, 419557, Note_on_c, 9, 43, 80
41, 419797, Note_on_c, 9, 36, 80
41, 419797, Note_on_c, 9, 43, 80
41, 419844, Note_off_c, 9, 43, 0
41, 419988, Note_off_c, 9, 36, 0
41, 419988, Note_off_c, 9, 43, 0
41, 420037, Note_on_c, 9, 36, 80
41, 420037, Note_on_c, 9, 49, 80
41, 420996, Note_off_c, 9, 36, 0
41, 420996, Note_off_c, 9, 49, 0
41, 420997, Note_on_c, 9, 40, 80
41, 421117, Note_on_c, 9, 40, 80
41, 421156, Note_off_c, 9, 40, 0
41, 421276, Note_off_c, 9, 40, 0
41, 421357, Note_on_c, 9, 40, 80
41, 421477, Note_on_c, 9, 40, 80
41, 421516, Note_off_c, 9, 40, 0
41, 421597, Note_on_c, 9, 40, 80
41, 421636, Note_off_c, 9, 40, 0
41, 421756, Note_off_c, 9, 40, 0
41, 421837, Note_on_c, 9, 40, 80
41, 421957, Note_on_c, 9, 36, 80
41, 421957, Note_on_c, 9, 49, 80
41, 421957, Note_on_c, 9, 47, 80
41, 421996, Note_off_c, 9, 40, 0
41, 422197, Note_on_c, 9, 45, 80
41, 422244, Note_off_c, 9, 49, 0
41, 422244, Note_off_c, 9, 47, 0
41, 422244, Note_off_c, 9, 36, 0
41, 422388, Note_off_c, 9, 45, 0
41, 422437, Note_on_c, 9, 43, 80
41, 422677, Note_on_c, 9, 48, 80
41, 422724, Note_off_c, 9, 43, 0
41, 423151, Note_off_c, 9, 48, 0
41, 423157, Note_on_c, 9, 45, 80
41, 423348, Note_off_c, 9, 45, 0
41, 423397, Note_on_c, 9, 43, 80
41, 423637, Note_on_c, 9, 36, 80
41, 423637, Note_on_c, 9, 43, 80
41, 423684, Note_off_c, 9, 43, 0
41, 423828, Note_off_c, 9, 36, 0
41, 423828, Note_off_c, 9, 43, 0
41, 423877, Note_on_c, 9, 47, 80
41, 423877, Note_on_c, 9, 36, 80
41, 424117, Note_on_c, 9, 45, 80
41, 424164, Note_off_c, 9, 36, 0
41, 424164, Note_off_c, 9, 47, 0
41, 424308, Note_off_c, 9, 45, 0
41, 424357, Note_on_c, 9, 43, 80
41, 424477, Note_on_c, 9, 47, 127
41, 424597, Note_off_c, 9, 47, 0
41, 424597, Note_on_c, 9, 45, 127
41, 424597, Note_on_c, 9, 47, 127
41, 424597, Note_on_c, 9, 48, 80
41, 424644, Note_off_c, 9, 43, 0
41, 424717, Note_off_c, 9, 45, 0
41, 424717, Note_off_c, 9, 47, 0
41, 424717, Note_on_c, 9, 43, 127
41, 424717, Note_on_c, 9, 45, 127
41, 424837, Note_off_c, 9, 45, 0
41, 424837, Note_off_c, 9, 43, 0
41, 424837, Note_on_c, 9, 43, 127
41, 424957, Note_off_c, 9, 43, 0
41, 425071, Note_off_c, 9, 48, 0
41, 425077, Note_on_c, 9, 45, 80
41, 425268, Note_off_c, 9, 45, 0
41, 425317, Note_on_c, 9, 43, 80
41, 425557, Note_on_c, 9, 43, 80
41, 425557, Note_on_c, 9, 36, 80
41, 425604, Note_off_c, 9, 43, 0
41, 425748, Note_off_c, 9, 43, 0
41, 425748, Note_off_c, 9, 36, 0
41, 425797, Note_on_c, 9, 47, 80
41, 425797, Note_on_c, 9, 36, 80
41, 426037, Note_on_c, 9, 45, 80
41, 426084, Note_off_c, 9, 47, 0
41, 426084, Note_off_c, 9, 36, 0
41, 426228, Note_off_c, 9, 45, 0
41, 426277, Note_on_c, 9, 43, 80
41, 426397, Note_on_c, 9, 47, 127
41, 426517, Note_on_c, 9, 48, 80
41, 426517, Note_on_c, 9, 47, 127
41, 426517, Note_on_c, 9, 45, 127
41, 426517, Note_off_c, 9, 47, 0
41, 426564, Note_off_c, 9, 43, 0
41, 426637, Note_off_c, 9, 47, 0
41, 426637, Note_on_c, 9, 43, 127
41, 426637, Note_off_c, 9, 45, 0
41, 426637, Note_on_c, 9, 45, 127
41, 426757, Note_off_c, 9, 43, 0
41, 426757, Note_off_c, 9, 45, 0
41, 426757, Note_on_c, 9, 43, 127
41, 426877, Note_off_c, 9, 43, 0
41, 426991, Note_off_c, 9, 48, 0
41, 426997, Note_on_c, 9, 45, 80
41, 427188, Note_off_c, 9, 45, 0
41, 427237, Note_on_c, 9, 43, 80
41, 427477, Note_on_c, 9, 43, 80
41, 427477, Note_on_c, 9, 36, 80
41, 427524, Note_off_c, 9, 43, 0
41, 427668, Note_off_c, 9, 43, 0
41, 427668, Note_off_c, 9, 36, 0
41, 429637, Note_on_c, 9, 49, 80
41, 429637, Note_on_c, 9, 36, 80
41, 429877, Note_on_c, 9, 38, 80
41, 429924, Note_off_c, 9, 36, 0
41, 429924, Note_off_c, 9, 49, 0
41, 430068, Note_off_c, 9, 38, 0
41, 430117, Note_on_c, 9, 38, 80
41, 430357, Note_on_c, 9, 36, 80
41, 430357, Note_on_c, 9, 49, 80
41, 430404, Note_off_c, 9, 38, 0
41, 430831, Note_off_c, 9, 49, 0
41, 430831, Note_off_c, 9, 36, 0
41, 430837, Note_on_c, 9, 38, 80
41, 431028, Note_off_c, 9, 38, 0
41, 431077, Note_on_c, 9, 38, 80
41, 431317, Note_on_c, 9, 36, 80
41, 431317, Note_on_c, 9, 49, 80
41, 431364, Note_off_c, 9, 38, 0
41, 431796, Note_off_c, 9, 49, 0
41, 431796, Note_off_c, 9, 36, 0
41, 431797, Note_on_c, 9, 36, 80
41, 431797, Note_on_c, 9, 49, 80
41, 432271, Note_off_c, 9, 49, 0
41, 432271, Note_off_c, 9, 36, 0
41, 432517, Note_on_c, 9, 49, 80
41, 432517, Note_on_c, 9, 43, 80
41, 432517, Note_on_c, 9, 36, 80
41, 432804, Note_off_c, 9, 49, 0
41, 432804, Note_off_c, 9, 43, 0
41, 432804, Note_off_c, 9, 36, 0
41, 432997, Note_on_c, 9, 36, 80
41, 432997, Note_on_c, 9, 43, 80
41, 432997, Note_on_c, 9, 49, 80
41, 433284, Note_off_c, 9, 36, 0
41, 433284, Note_off_c, 9, 43, 0
41, 433284, Note_off_c, 9, 49, 0
41, 433477, Note_on_c, 9, 49, 80
41, 433477, Note_on_c, 9, 36, 80
41, 433477, Note_on_c, 9, 43, 80
41, 433764, Note_off_c, 9, 36, 0
41, 433764, Note_off_c, 9, 43, 0
41, 433764, Note_off_c, 9, 49, 0
41, 435277, Note_on_c, 9, 43, 127
41, 435397, Note_off_c, 9, 43, 0
41, 435637, Note_on_c, 9, 43, 127
41, 435757, Note_off_c, 9, 43, 0
41, 436237, Note_on_c, 9, 45, 127
41, 436357, Note_off_c, 9, 45, 0
41, 437677, Note_on_c, 9, 51, 80
41, 437677, Note_on_c, 9, 40, 80
41, 437677, Note_on_c, 9, 37, 80
41, 438156, Note_off_c, 9, 51, 0
41, 438156, Note_off_c, 9, 40, 0
41, 438156, Note_off_c, 9, 37, 0
41, 438157, Note_on_c, 9, 51, 80
41, 438157, Note_on_c, 9, 36, 80
41, 438636, Note_off_c, 9, 51, 0
41, 438636, Note_off_c, 9, 36, 0
41, 438637, Note_on_c, 9, 51, 80
41, 438637, Note_on_c, 9, 37, 80
41, 438637, Note_on_c, 9, 40, 80
41, 439116, Note_off_c, 9, 37, 0
41, 439116, Note_off_c, 9, 40, 0
41, 439116, Note_off_c, 9, 51, 0
41, 439117, Note_on_c, 9, 36, 80
41, 439117, Note_on_c, 9, 51, 80
41, 439596, Note_off_c, 9, 51, 0
41, 439596, Note_off_c, 9, 36, 0
41, 439597, Note_on_c, 9, 51, 80
41, 439597, Note_on_c, 9, 40, 80
41, 439597, Note_on_c, 9, 37, 80
41, 440076, Note_off_c, 9, 37, 0
41, 440076, Note_off_c, 9, 40, 0
41, 440076, Note_off_c, 9, 51, 0
41, 440077, Note_on_c, 9, 51, 80
41, 440077, Note_on_c, 9, 36, 80
41, 440556, Note_off_c, 9, 51, 0
41, 440556, Note_off_c, 9, 36, 0
41, 440557, Note_on_c, 9, 51, 80
41, 440557, Note_on_c, 9, 37, 80
41, 440557, Note_on_c, 9, 40, 80
41, 441036, Note_off_c, 9, 51, 0
41, 441036, Note_off_c, 9, 37, 0
41, 441036, Note_off_c, 9, 40, 0
41, 441037, Note_on_c, 9, 51, 80
41, 441037, Note_on_c, 9, 36, 80
41, 441516, Note_off_c, 9, 36, 0
41, 441516, Note_off_c, 9, 51, 0
41, 441517, Note_on_c, 9, 37, 80
41, 441517, Note_on_c, 9, 40, 80
41, 441517, Note_on_c, 9, 51, 80
41, 441996, Note_off_c, 9, 51, 0
41, 441996, Note_off_c, 9, 37, 0
41, 441996, Note_off_c, 9, 40, 0
41, 441997, Note_on_c, 9, 51, 80
41, 441997, Note_on_c, 9, 36, 80
41, 442476, Note_off_c, 9, 51, 0
41, 442476, Note_off_c, 9, 36, 0
41, 442477, Note_on_c, 9, 51, 80
41, 442477, Note_on_c, 9, 40, 80
41, 442477, Note_on_c, 9, 37, 80
41, 442956, Note_off_c, 9, 51, 0
41, 442956, Note_off_c, 9, 37, 0
41, 442956, Note_off_c, 9, 40, 0
41, 442957, Note_on_c, 9, 51, 80
41, 442957, Note_on_c, 9, 36, 80
41, 443436, Note_off_c, 9, 51, 0
41, 443436, Note_off_c, 9, 36, 0
41, 443437, Note_on_c, 9, 51, 80
41, 443437, Note_on_c, 9, 40, 80
41, 443437, Note_on_c, 9, 37, 80
41, 443916, Note_off_c, 9, 51, 0
41, 443916, Note_off_c, 9, 40, 0
41, 443916, Note_off_c, 9, 37, 0
41, 443917, Note_on_c, 9, 51, 80
41, 443917, Note_on_c, 9, 36, 80
41, 444396, Note_off_c, 9, 36, 0
41, 444396, Note_off_c, 9, 51, 0
41, 444397, Note_on_c, 9, 37, 80
41, 444397, Note_on_c, 9, 40, 80
41, 444397, Note_on_c, 9, 51, 80
41, 444876, Note_off_c, 9, 37, 0
41, 444876, Note_off_c, 9, 40, 0
41, 444876, Note_off_c, 9, 51, 0
41, 444877, Note_on_c, 9, 51, 80
41, 444877, Note_on_c, 9, 36, 80
41, 445356, Note_off_c, 9, 36, 0
41, 445356, Note_off_c, 9, 51, 0
41, 445357, Note_on_c, 9, 51, 80
41, 445357, Note_on_c, 9, 40, 80
41, 445357, Note_on_c, 9, 37, 80
41, 445836, Note_off_c, 9, 51, 0
41, 445836, Note_off_c, 9, 40, 0
41, 445836, Note_off_c, 9, 37, 0
41, 445837, Note_on_c, 9, 51, 80
41, 445837, Note_on_c, 9, 36, 80
41, 446316, Note_off_c, 9, 51, 0
41, 446316, Note_off_c, 9, 36, 0
41, 446317, Note_on_c, 9, 51, 80
41, 446317, Note_on_c, 9, 40, 80
41, 446317, Note_on_c, 9, 37, 80
41, 446796, Note_off_c, 9, 51, 0
41, 446796, Note_off_c, 9, 40, 0
41, 446796, Note_off_c, 9, 37, 0
41, 446797, Note_on_c, 9, 51, 80
41, 446797, Note_on_c, 9, 36, 80
41, 447276, Note_off_c, 9, 36, 0
41, 447276, Note_off_c, 9, 51, 0
41, 447277, Note_on_c, 9, 40, 80
41, 447277, Note_on_c, 9, 37, 80
41, 447277, Note_on_c, 9, 51, 80
41, 447756, Note_off_c, 9, 40, 0
41, 447756, Note_off_c, 9, 51, 0
41, 447756, Note_off_c, 9, 37, 0
41, 447757, Note_on_c, 9, 36, 80
41, 447757, Note_on_c, 9, 51, 80
41, 448236, Note_off_c, 9, 36, 0
41, 448236, Note_off_c, 9, 51, 0
41, 448237, Note_on_c, 9, 37, 80
41, 448237, Note_on_c, 9, 40, 80
41, 448237, Note_on_c, 9, 51, 80
41, 448716, Note_off_c, 9, 37, 0
41, 448716, Note_off_c, 9, 40, 0
41, 448716, Note_off_c, 9, 51, 0
41, 448717, Note_on_c, 9, 36, 80
41, 448717, Note_on_c, 9, 51, 80
41, 449196, Note_off_c, 9, 36, 0
41, 449196, Note_off_c, 9, 51, 0
41, 449197, Note_on_c, 9, 37, 80
41, 449197, Note_on_c, 9, 40, 80
41, 449197, Note_on_c, 9, 51, 80
41, 449676, Note_off_c, 9, 37, 0
41, 449676, Note_off_c, 9, 40, 0
41, 449676, Note_off_c, 9, 51, 0
41, 449677, Note_on_c, 9, 36, 80
41, 449677, Note_on_c, 9, 38, 80
41, 449677, Note_on_c, 9, 43, 80
41, 449677, Note_on_c, 9, 49, 80
41, 449964, Note_off_c, 9, 49, 0
41, 449964, Note_off_c, 9, 36, 0
41, 449964, Note_off_c, 9, 38, 0
41, 449964, Note_off_c, 9, 43, 0
41, 450037, Note_on_c, 9, 38, 80
41, 450157, Note_on_c, 9, 38, 80
41, 450228, Note_off_c, 9, 38, 0
41, 450444, Note_off_c, 9, 38, 0
41, 450517, Note_on_c, 9, 38, 80
41, 450637, Note_on_c, 9, 36, 80
41, 450637, Note_on_c, 9, 43, 80
41, 450637, Note_on_c, 9, 49, 80
41, 450708, Note_off_c, 9, 38, 0
41, 451116, Note_off_c, 9, 36, 0
41, 451116, Note_off_c, 9, 43, 0
41, 451116, Note_off_c, 9, 49, 0
41, 451117, Note_on_c, 9, 38, 80
41, 451596, Note_off_c, 9, 38, 0
41, 452077, Note_on_c, 9, 38, 80
41, 452236, Note_off_c, 9, 38, 0
41, 452317, Note_on_c, 9, 38, 80
41, 452437, Note_on_c, 9, 38, 80
41, 452476, Note_off_c, 9, 38, 0
41, 452557, Note_on_c, 9, 36, 80
41, 452557, Note_on_c, 9, 51, 80
41, 452596, Note_off_c, 9, 38, 0
41, 453036, Note_off_c, 9, 36, 0
41, 453036, Note_off_c, 9, 51, 0
41, 453037, Note_on_c, 9, 37, 80
41, 453037, Note_on_c, 9, 40, 80
41, 453037, Note_on_c, 9, 51, 80
41, 453516, Note_off_c, 9, 37, 0
41, 453516, Note_off_c, 9, 40, 0
41, 453516, Note_off_c, 9, 51, 0
41, 453517, Note_on_c, 9, 36, 80
41, 453517, Note_on_c, 9, 51, 80
41, 453996, Note_off_c, 9, 36, 0
41, 453996, Note_off_c, 9, 51, 0
41, 453997, Note_on_c, 9, 51, 80
41, 453997, Note_on_c, 9, 40, 80
41, 453997, Note_on_c, 9, 37, 80
41, 454476, Note_off_c, 9, 37, 0
41, 454476, Note_off_c, 9, 40, 0
41, 454476, Note_off_c, 9, 51, 0
41, 454477, Note_on_c, 9, 36, 80
41, 454477, Note_on_c, 9, 51, 80
41, 454956, Note_off_c, 9, 36, 0
41, 454956, Note_off_c, 9, 51, 0
41, 454957, Note_on_c, 9, 37, 80
41, 454957, Note_on_c, 9, 40, 80
41, 454957, Note_on_c, 9, 51, 80
41, 455436, Note_off_c, 9, 40, 0
41, 455436, Note_off_c, 9, 51, 0
41, 455436, Note_off_c, 9, 37, 0
41, 455437, Note_on_c, 9, 51, 80
41, 455437, Note_on_c, 9, 36, 80
41, 455916, Note_off_c, 9, 36, 0
41, 455916, Note_off_c, 9, 51, 0
41, 455917, Note_on_c, 9, 37, 80
41, 455917, Note_on_c, 9, 40, 80
41, 455917, Note_on_c, 9, 51, 80
41, 456396, Note_off_c, 9, 37, 0
41, 456396, Note_off_c, 9, 40, 0
41, 456396, Note_off_c, 9, 51, 0
41, 456397, Note_on_c, 9, 36, 80
41, 456397, Note_on_c, 9, 51, 80
41, 456876, Note_off_c, 9, 36, 0
41, 456876, Note_off_c, 9, 51, 0
41, 456877, Note_on_c, 9, 40, 80
41, 456877, Note_on_c, 9, 51, 80
41, 456877, Note_on_c, 9, 37, 80
41, 457356, Note_off_c, 9, 37, 0
41, 457356, Note_off_c, 9, 51, 0
41, 457356, Note_off_c, 9, 40, 0
41, 457357, Note_on_c, 9, 51, 80
41, 457357, Note_on_c, 9, 36, 80
41, 457836, Note_off_c, 9, 51, 0
41, 457836, Note_off_c, 9, 36, 0
41, 457837, Note_on_c, 9, 40, 80
41, 457837, Note_on_c, 9, 37, 80
41, 457837, Note_on_c, 9, 51, 80
41, 458316, Note_off_c, 9, 51, 0
41, 458316, Note_off_c, 9, 40, 0
41, 458316, Note_off_c, 9, 37, 0
41, 458317, Note_on_c, 9, 51, 80
41, 458317, Note_on_c, 9, 36, 80
41, 458796, Note_off_c, 9, 51, 0
41, 458796, Note_off_c, 9, 36, 0
41, 458797, Note_on_c, 9, 51, 80
41, 458797, Note_on_c, 9, 40, 80
41, 458797, Note_on_c, 9, 37, 80
41, 459276, Note_off_c, 9, 51, 0
41, 459276, Note_off_c, 9, 40, 0
41, 459276, Note_off_c, 9, 37, 0
41, 459277, Note_on_c, 9, 36, 80
41, 459277, Note_on_c, 9, 51, 80
41, 459756, Note_off_c, 9, 51, 0
41, 459756, Note_off_c, 9, 36, 0
41, 459757, Note_on_c, 9, 37, 80
41, 459757, Note_on_c, 9, 40, 80
41, 459757, Note_on_c, 9, 51, 80
41, 460236, Note_off_c, 9, 37, 0
41, 460236, Note_off_c, 9, 40, 0
41, 460236, Note_off_c, 9, 51, 0
41, 460237, Note_on_c, 9, 36, 80
41, 460237, Note_on_c, 9, 51, 80
41, 460716, Note_off_c, 9, 36, 0
41, 460716, Note_off_c, 9, 51, 0
41, 460717, Note_on_c, 9, 40, 80
41, 460717, Note_on_c, 9, 37, 80
41, 460717, Note_on_c, 9, 51, 80
41, 461196, Note_off_c, 9, 37, 0
41, 461196, Note_off_c, 9, 51, 0
41, 461196, Note_off_c, 9, 40, 0
41, 461197, Note_on_c, 9, 51, 80
41, 461197, Note_on_c, 9, 36, 80
41, 461676, Note_off_c, 9, 51, 0
41, 461676, Note_off_c, 9, 36, 0
41, 461677, Note_on_c, 9, 37, 80
41, 461677, Note_on_c, 9, 40, 80
41, 461677, Note_on_c, 9, 51, 80
41, 462156, Note_off_c, 9, 37, 0
41, 462156, Note_off_c, 9, 40, 0
41, 462156, Note_off_c, 9, 51, 0
41, 462157, Note_on_c, 9, 36, 80
41, 462157, Note_on_c, 9, 51, 80
41, 462636, Note_off_c, 9, 51, 0
41, 462636, Note_off_c, 9, 36, 0
41, 462637, Note_on_c, 9, 37, 80
41, 462637, Note_on_c, 9, 40, 80
41, 462637, Note_on_c, 9, 51, 80
41, 463116, Note_off_c, 9, 37, 0
41, 463116, Note_off_c, 9, 40, 0
41, 463116, Note_off_c, 9, 51, 0
41, 463117, Note_on_c, 9, 36, 80
41, 463117, Note_on_c, 9, 51, 80
41, 463596, Note_off_c, 9, 36, 0
41, 463596, Note_off_c, 9, 51, 0
41, 463597, Note_on_c, 9, 37, 80
41, 463597, Note_on_c, 9, 40, 80
41, 463597, Note_on_c, 9, 51, 80
41, 464076, Note_off_c, 9, 40, 0
41, 464076, Note_off_c, 9, 51, 0
41, 464076, Note_off_c, 9, 37, 0
41, 464077, Note_on_c, 9, 36, 80
41, 464077, Note_on_c, 9, 51, 80
41, 464556, Note_off_c, 9, 36, 0
41, 464556, Note_off_c, 9, 51, 0
41, 464557, Note_on_c, 9, 51, 80
41, 464557, Note_on_c, 9, 40, 80
41, 464557, Note_on_c, 9, 37, 80
41, 465036, Note_off_c, 9, 51, 0
41, 465036, Note_off_c, 9, 40, 0
41, 465036, Note_off_c, 9, 37, 0
41, 465037, Note_on_c, 9, 51, 80
41, 465037, Note_on_c, 9, 36, 80
41, 465516, Note_off_c, 9, 51, 0
41, 465516, Note_off_c, 9, 36, 0
41, 465517, Note_on_c, 9, 51, 80
41, 465517, Note_on_c, 9, 40, 80
41, 465517, Note_on_c, 9, 37, 80
41, 465996, Note_off_c, 9, 51, 0
41, 465996, Note_off_c, 9, 40, 0
41, 465996, Note_off_c, 9, 37, 0
41, 465997, Note_on_c, 9, 51, 80
41, 465997, Note_on_c, 9, 36, 80
41, 466117, Note_on_c, 9, 45, 127
41, 466237, Note_off_c, 9, 45, 0
41, 466476, Note_off_c, 9, 51, 0
41, 466476, Note_off_c, 9, 36, 0
41, 466477, Note_on_c, 9, 51, 80
41, 466477, Note_on_c, 9, 40, 80
41, 466477, Note_on_c, 9, 37, 80
41, 466477, Note_on_c, 9, 45, 127
41, 466597, Note_off_c, 9, 45, 0
41, 466956, Note_off_c, 9, 40, 0
41, 466956, Note_off_c, 9, 37, 0
41, 466956, Note_off_c, 9, 51, 0
41, 466957, Note_on_c, 9, 36, 80
41, 466957, Note_on_c, 9, 51, 80
41, 466957, Note_on_c, 9, 45, 127
41, 467077, Note_off_c, 9, 45, 0
41, 467436, Note_off_c, 9, 51, 0
41, 467436, Note_off_c, 9, 36, 0
41, 467437, Note_on_c, 9, 51, 80
41, 467437, Note_on_c, 9, 40, 80
41, 467437, Note_on_c, 9, 37, 80
41, 467916, Note_off_c, 9, 37, 0
41, 467916, Note_off_c, 9, 51, 0
41, 467916, Note_off_c, 9, 40, 0
41, 468397, Note_on_c, 9, 37, 80
41, 468397, Note_on_c, 9, 40, 80
41, 468397, Note_on_c, 9, 51, 80
41, 468876, Note_off_c, 9, 37, 0
41, 468876, Note_off_c, 9, 40, 0
41, 468876, Note_off_c, 9, 51, 0
41, 468877, Note_on_c, 9, 36, 80
41, 468877, Note_on_c, 9, 51, 80
41, 469356, Note_off_c, 9, 36, 0
41, 469356, Note_off_c, 9, 51, 0
41, 469357, Note_on_c, 9, 51, 80
41, 469357, Note_on_c, 9, 37, 80
41, 469357, Note_on_c, 9, 40, 80
41, 469836, Note_off_c, 9, 40, 0
41, 469836, Note_off_c, 9, 51, 0
41, 469836, Note_off_c, 9, 37, 0
41, 469837, Note_on_c, 9, 36, 80
41, 469837, Note_on_c, 9, 51, 80
41, 470316, Note_off_c, 9, 36, 0
41, 470316, Note_off_c, 9, 51, 0
41, 470317, Note_on_c, 9, 37, 80
41, 470317, Note_on_c, 9, 40, 80
41, 470317, Note_on_c, 9, 51, 80
41, 470796, Note_off_c, 9, 37, 0
41, 470796, Note_off_c, 9, 40, 0
41, 470796, Note_off_c, 9, 51, 0
41, 470797, Note_on_c, 9, 51, 80
41, 470797, Note_on_c, 9, 36, 80
41, 471276, Note_off_c, 9, 36, 0
41, 471276, Note_off_c, 9, 51, 0
41, 471277, Note_on_c, 9, 37, 80
41, 471277, Note_on_c, 9, 40, 80
41, 471277, Note_on_c, 9, 51, 80
41, 471756, Note_off_c, 9, 37, 0
41, 471756, Note_off_c, 9, 40, 0
41, 471756, Note_off_c, 9, 51, 0
41, 471757, Note_on_c, 9, 36, 80
41, 471757, Note_on_c, 9, 51, 80
41, 472236, Note_off_c, 9, 36, 0
41, 472236, Note_off_c, 9, 51, 0
41, 472237, Note_on_c, 9, 40, 80
41, 472237, Note_on_c, 9, 51, 80
41, 472237, Note_on_c, 9, 37, 80
41, 472716, Note_off_c, 9, 40, 0
41, 472716, Note_off_c, 9, 37, 0
41, 472716, Note_off_c, 9, 51, 0
41, 472717, Note_on_c, 9, 36, 80
41, 472717, Note_on_c, 9, 51, 80
41, 473196, Note_off_c, 9, 36, 0
41, 473196, Note_off_c, 9, 51, 0
41, 473197, Note_on_c, 9, 37, 80
41, 473197, Note_on_c, 9, 51, 80
41, 473197, Note_on_c, 9, 40, 80
41, 473676, Note_off_c, 9, 40, 0
41, 473676, Note_off_c, 9, 51, 0
41, 473676, Note_off_c, 9, 37, 0
41, 473677, Note_on_c, 9, 36, 80
41, 473677, Note_on_c, 9, 51, 80
41, 474156, Note_off_c, 9, 36, 0
41, 474156, Note_off_c, 9, 51, 0
41, 474157, Note_on_c, 9, 37, 80
41, 474157, Note_on_c, 9, 40, 80
41, 474157, Note_on_c, 9, 51, 80
41, 474636, Note_off_c, 9, 51, 0
41, 474636, Note_off_c, 9, 37, 0
41, 474636, Note_off_c, 9, 40, 0
41, 474637, Note_on_c, 9, 36, 80
41, 474637, Note_on_c, 9, 51, 80
41, 475116, Note_off_c, 9, 36, 0
41, 475116, Note_off_c, 9, 51, 0
41, 475117, Note_on_c, 9, 37, 80
41, 475117, Note_on_c, 9, 40, 80
41, 475117, Note_on_c, 9, 51, 80
41, 475596, Note_off_c, 9, 37, 0
41, 475596, Note_off_c, 9, 40, 0
41, 475596, Note_off_c, 9, 51, 0
41, 475597, Note_on_c, 9, 36, 80
41, 475597, Note_on_c, 9, 51, 80
41, 476076, Note_off_c, 9, 36, 0
41, 476076, Note_off_c, 9, 51, 0
41, 476077, Note_on_c, 9, 37, 80
41, 476077, Note_on_c, 9, 51, 80
41, 476077, Note_on_c, 9, 40, 80
41, 476556, Note_off_c, 9, 37, 0
41, 476556, Note_off_c, 9, 40, 0
41, 476556, Note_off_c, 9, 51, 0
41, 476557, Note_on_c, 9, 36, 80
41, 476557, Note_on_c, 9, 51, 80
41, 477036, Note_off_c, 9, 36, 0
41, 477036, Note_off_c, 9, 51, 0
41, 477037, Note_on_c, 9, 37, 80
41, 477037, Note_on_c, 9, 40, 80
41, 477037, Note_on_c, 9, 51, 80
41, 477516, Note_off_c, 9, 37, 0
41, 477516, Note_off_c, 9, 40, 0
41, 477516, Note_off_c, 9, 51, 0
41, 477517, Note_on_c, 9, 51, 80
41, 477517, Note_on_c, 9, 36, 80
41, 477996, Note_off_c, 9, 36, 0
41, 477996, Note_off_c, 9, 51, 0
41, 477997, Note_on_c, 9, 37, 80
41, 477997, Note_on_c, 9, 40, 80
41, 477997, Note_on_c, 9, 51, 80
41, 478476, Note_off_c, 9, 37, 0
41, 478476, Note_off_c, 9, 40, 0
41, 478476, Note_off_c, 9, 51, 0
41, 478477, Note_on_c, 9, 36, 80
41, 478477, Note_on_c, 9, 51, 80
41, 478956, Note_off_c, 9, 36, 0
41, 478956, Note_off_c, 9, 51, 0
41, 478957, Note_on_c, 9, 37, 80
41, 478957, Note_on_c, 9, 40, 80
41, 478957, Note_on_c, 9, 51, 80
41, 479436, Note_off_c, 9, 37, 0
41, 479436, Note_off_c, 9, 51, 0
41, 479436, Note_off_c, 9, 40, 0
41, 479437, Note_on_c, 9, 36, 80
41, 479437, Note_on_c, 9, 51, 80
41, 479916, Note_off_c, 9, 36, 0
41, 479916, Note_off_c, 9, 51, 0
41, 479917, Note_on_c, 9, 37, 80
41, 479917, Note_on_c, 9, 51, 80
41, 479917, Note_on_c, 9, 40, 80
41, 480396, Note_off_c, 9, 51, 0
41, 480396, Note_off_c, 9, 37, 0
41, 480396, Note_off_c, 9, 40, 0
41, 480397, Note_on_c, 9, 36, 80
41, 480397, Note_on_c, 9, 38, 80
41, 480397, Note_on_c, 9, 43, 80
41, 480397, Note_on_c, 9, 49, 80
41, 480684, Note_off_c, 9, 36, 0
41, 480684, Note_off_c, 9, 38, 0
41, 480684, Note_off_c, 9, 43, 0
41, 480684, Note_off_c, 9, 49, 0
41, 480757, Note_on_c, 9, 38, 80
41, 480877, Note_on_c, 9, 38, 80
41, 480948, Note_off_c, 9, 38, 0
41, 481164, Note_off_c, 9, 38, 0
41, 481237, Note_on_c, 9, 38, 80
41, 481357, Note_on_c, 9, 36, 80
41, 481357, Note_on_c, 9, 43, 80
41, 481357, Note_on_c, 9, 49, 80
41, 481428, Note_off_c, 9, 38, 0
41, 481836, Note_off_c, 9, 36, 0
41, 481836, Note_off_c, 9, 43, 0
41, 481836, Note_off_c, 9, 49, 0
41, 481837, Note_on_c, 9, 38, 80
41, 482316, Note_off_c, 9, 38, 0
41, 482797, Note_on_c, 9, 38, 80
41, 482956, Note_off_c, 9, 38, 0
41, 483037, Note_on_c, 9, 38, 80
41, 483157, Note_on_c, 9, 38, 80
41, 483196, Note_off_c, 9, 38, 0
41, 483277, Note_on_c, 9, 36, 80
41, 483277, Note_on_c, 9, 51, 80
41, 483316, Note_off_c, 9, 38, 0
41, 483756, Note_off_c, 9, 36, 0
41, 483756, Note_off_c, 9, 51, 0
41, 483757, Note_on_c, 9, 37, 80
41, 483757, Note_on_c, 9, 40, 80
41, 483757, Note_on_c, 9, 51, 80
41, 484236, Note_off_c, 9, 37, 0
41, 484236, Note_off_c, 9, 40, 0
41, 484236, Note_off_c, 9, 51, 0
41, 484237, Note_on_c, 9, 36, 80
41, 484237, Note_on_c, 9, 51, 80
41, 484716, Note_off_c, 9, 36, 0
41, 484716, Note_off_c, 9, 51, 0
41, 484717, Note_on_c, 9, 37, 80
41, 484717, Note_on_c, 9, 40, 80
41, 484717, Note_on_c, 9, 51, 80
41, 485196, Note_off_c, 9, 40, 0
41, 485196, Note_off_c, 9, 37, 0
41, 485196, Note_off_c, 9, 51, 0
41, 485197, Note_on_c, 9, 51, 80
41, 485197, Note_on_c, 9, 36, 80
41, 485676, Note_off_c, 9, 36, 0
41, 485676, Note_off_c, 9, 51, 0
41, 485677, Note_on_c, 9, 37, 80
41, 485677, Note_on_c, 9, 40, 80
41, 485677, Note_on_c, 9, 51, 80
41, 486156, Note_off_c, 9, 37, 0
41, 486156, Note_off_c, 9, 40, 0
41, 486156, Note_off_c, 9, 51, 0
41, 486157, Note_on_c, 9, 51, 80
41, 486157, Note_on_c, 9, 36, 80
41, 486636, Note_off_c, 9, 36, 0
41, 486636, Note_off_c, 9, 51, 0
41, 486637, Note_on_c, 9, 51, 80
41, 486637, Note_on_c, 9, 40, 80
41, 486637, Note_on_c, 9, 37, 80
41, 487116, Note_off_c, 9, 51, 0
41, 487116, Note_off_c, 9, 40, 0
41, 487116, Note_off_c, 9, 37, 0
41, 487117, Note_on_c, 9, 51, 80
41, 487117, Note_on_c, 9, 36, 80
41, 487596, Note_off_c, 9, 36, 0
41, 487596, Note_off_c, 9, 51, 0
41, 487597, Note_on_c, 9, 51, 80
41, 487597, Note_on_c, 9, 40, 80
41, 487597, Note_on_c, 9, 37, 80
41, 488076, Note_off_c, 9, 51, 0
41, 488076, Note_off_c, 9, 40, 0
41, 488076, Note_off_c, 9, 37, 0
41, 488077, Note_on_c, 9, 51, 80
41, 488077, Note_on_c, 9, 36, 80
41, 488556, Note_off_c, 9, 36, 0
41, 488556, Note_off_c, 9, 51, 0
41, 488557, Note_on_c, 9, 40, 80
41, 488557, Note_on_c, 9, 51, 80
41, 488557, Note_on_c, 9, 37, 80
41, 489036, Note_off_c, 9, 37, 0
41, 489036, Note_off_c, 9, 40, 0
41, 489036, Note_off_c, 9, 51, 0
41, 489037, Note_on_c, 9, 36, 80
41, 489037, Note_on_c, 9, 51, 80
41, 489516, Note_off_c, 9, 36, 0
41, 489516, Note_off_c, 9, 51, 0
41, 489517, Note_on_c, 9, 37, 80
41, 489517, Note_on_c, 9, 40, 80
41, 489517, Note_on_c, 9, 51, 80
41, 489996, Note_off_c, 9, 37, 0
41, 489996, Note_off_c, 9, 51, 0
41, 489996, Note_off_c, 9, 40, 0
41, 489997, Note_on_c, 9, 36, 80
41, 489997, Note_on_c, 9, 51, 80
41, 490476, Note_off_c, 9, 51, 0
41, 490476, Note_off_c, 9, 36, 0
41, 490477, Note_on_c, 9, 37, 80
41, 490477, Note_on_c, 9, 40, 80
41, 490477, Note_on_c, 9, 51, 80
41, 490956, Note_off_c, 9, 37, 0
41, 490956, Note_off_c, 9, 40, 0
41, 490956, Note_off_c, 9, 51, 0
41, 490957, Note_on_c, 9, 36, 80
41, 490957, Note_on_c, 9, 51, 80
41, 491436, Note_off_c, 9, 36, 0
41, 491436, Note_off_c, 9, 51, 0
41, 491437, Note_on_c, 9, 37, 80
41, 491437, Note_on_c, 9, 40, 80
41, 491437, Note_on_c, 9, 51, 80
41, 491916, Note_off_c, 9, 37, 0
41, 491916, Note_off_c, 9, 40, 0
41, 491916, Note_off_c, 9, 51, 0
41, 491917, Note_on_c, 9, 51, 80
41, 491917, Note_on_c, 9, 36, 80
41, 492396, Note_off_c, 9, 36, 0
41, 492396, Note_off_c, 9, 51, 0
41, 492397, Note_on_c, 9, 37, 80
41, 492397, Note_on_c, 9, 40, 80
41, 492397, Note_on_c, 9, 51, 80
41, 492876, Note_off_c, 9, 37, 0
41, 492876, Note_off_c, 9, 40, 0
41, 492876, Note_off_c, 9, 51, 0
41, 492877, Note_on_c, 9, 51, 80
41, 492877, Note_on_c, 9, 36, 80
41, 493356, Note_off_c, 9, 36, 0
41, 493356, Note_off_c, 9, 51, 0
41, 493357, Note_on_c, 9, 37, 80
41, 493357, Note_on_c, 9, 40, 80
41, 493357, Note_on_c, 9, 51, 80
41, 493836, Note_off_c, 9, 37, 0
41, 493836, Note_off_c, 9, 51, 0
41, 493836, Note_off_c, 9, 40, 0
41, 493837, Note_on_c, 9, 51, 80
41, 493837, Note_on_c, 9, 36, 80
41, 494316, Note_off_c, 9, 36, 0
41, 494316, Note_off_c, 9, 51, 0
41, 494317, Note_on_c, 9, 37, 80
41, 494317, Note_on_c, 9, 40, 80
41, 494317, Note_on_c, 9, 51, 80
41, 494677, Note_on_c, 9, 45, 127
41, 494796, Note_off_c, 9, 37, 0
41, 494796, Note_off_c, 9, 40, 0
41, 494796, Note_off_c, 9, 51, 0
41, 494797, Note_off_c, 9, 45, 0
41, 494797, Note_on_c, 9, 36, 80
41, 494797, Note_on_c, 9, 45, 127
41, 494797, Note_on_c, 9, 51, 80
41, 494917, Note_off_c, 9, 45, 0
41, 494917, Note_on_c, 9, 45, 127
41, 495037, Note_off_c, 9, 45, 0
41, 495037, Note_on_c, 9, 45, 127
41, 495157, Note_off_c, 9, 45, 0
41, 495157, Note_on_c, 9, 45, 127
41, 495276, Note_off_c, 9, 51, 0
41, 495276, Note_off_c, 9, 36, 0
41, 495277, Note_off_c, 9, 45, 0
41, 495277, Note_on_c, 9, 37, 80
41, 495277, Note_on_c, 9, 40, 80
41, 495277, Note_on_c, 9, 45, 127
41, 495277, Note_on_c, 9, 51, 80
41, 495397, Note_off_c, 9, 45, 0
41, 495397, Note_on_c, 9, 45, 127
41, 495517, Note_off_c, 9, 45, 0
41, 495517, Note_on_c, 9, 45, 127
41, 495637, Note_off_c, 9, 45, 0
41, 495637, Note_on_c, 9, 45, 127
41, 495756, Note_off_c, 9, 37, 0
41, 495756, Note_off_c, 9, 51, 0
41, 495756, Note_off_c, 9, 40, 0
41, 495757, Note_on_c, 9, 36, 80
41, 495757, Note_on_c, 9, 45, 127
41, 495757, Note_on_c, 9, 51, 80
41, 495757, Note_off_c, 9, 45, 0
41, 495877, Note_off_c, 9, 45, 0
41, 495877, Note_on_c, 9, 45, 127
41, 495997, Note_off_c, 9, 45, 0
41, 495997, Note_on_c, 9, 45, 127
41, 496117, Note_off_c, 9, 45, 0
41, 496236, Note_off_c, 9, 36, 0
41, 496236, Note_off_c, 9, 51, 0
41, 496237, Note_on_c, 9, 37, 80
41, 496237, Note_on_c, 9, 40, 80
41, 496237, Note_on_c, 9, 51, 80
41, 496716, Note_off_c, 9, 37, 0
41, 496716, Note_off_c, 9, 40, 0
41, 496716, Note_off_c, 9, 51, 0
41, 496717, Note_on_c, 9, 51, 80
41, 496717, Note_on_c, 9, 36, 80
41, 497196, Note_off_c, 9, 51, 0
41, 497196, Note_off_c, 9, 36, 0
41, 497197, Note_on_c, 9, 37, 80
41, 497197, Note_on_c, 9, 40, 80
41, 497197, Note_on_c, 9, 51, 80
41, 497676, Note_off_c, 9, 37, 0
41, 497676, Note_off_c, 9, 40, 0
41, 497676, Note_off_c, 9, 51, 0
41, 497677, Note_on_c, 9, 36, 80
41, 497677, Note_on_c, 9, 51, 80
41, 498156, Note_off_c, 9, 36, 0
41, 498156, Note_off_c, 9, 51, 0
41, 498157, Note_on_c, 9, 37, 80
41, 498157, Note_on_c, 9, 40, 80
41, 498157, Note_on_c, 9, 51, 80
41, 498636, Note_off_c, 9, 51, 0
41, 498636, Note_off_c, 9, 40, 0
41, 498636, Note_off_c, 9, 37, 0
41, 498637, Note_on_c, 9, 36, 80
41, 498637, Note_on_c, 9, 51, 80
41, 499116, Note_off_c, 9, 36, 0
41, 499116, Note_off_c, 9, 51, 0
41, 499117, Note_on_c, 9, 37, 80
41, 499117, Note_on_c, 9, 40, 80
41, 499117, Note_on_c, 9, 51, 80
41, 499596, Note_off_c, 9, 37, 0
41, 499596, Note_off_c, 9, 40, 0
41, 499596, Note_off_c, 9, 51, 0
41, 499597, Note_on_c, 9, 36, 80
41, 499597, Note_on_c, 9, 51, 80
41, 499717, Note_on_c, 9, 45, 127
41, 499837, Note_off_c, 9, 45, 0
41, 499837, Note_on_c, 9, 45, 127
41, 499957, Note_off_c, 9, 45, 0
41, 499957, Note_on_c, 9, 45, 127
41, 500076, Note_off_c, 9, 51, 0
41, 500076, Note_off_c, 9, 36, 0
41, 500077, Note_off_c, 9, 45, 0
41, 500077, Note_on_c, 9, 37, 80
41, 500077, Note_on_c, 9, 40, 80
41, 500077, Note_on_c, 9, 45, 127
41, 500077, Note_on_c, 9, 51, 80
41, 500197, Note_off_c, 9, 45, 0
41, 500197, Note_on_c, 9, 45, 127
41, 500317, Note_off_c, 9, 45, 0
41, 500317, Note_on_c, 9, 45, 127
41, 500437, Note_off_c, 9, 45, 0
41, 500556, Note_off_c, 9, 37, 0
41, 500556, Note_off_c, 9, 40, 0
41, 500556, Note_off_c, 9, 51, 0
41, 500557, Note_on_c, 9, 36, 80
41, 500557, Note_on_c, 9, 49, 80
41, 500557, Note_on_c, 9, 51, 80
41, 501036, Note_off_c, 9, 51, 0
41, 501036, Note_off_c, 9, 36, 0
41, 501037, Note_on_c, 9, 37, 80
41, 501037, Note_on_c, 9, 40, 80
41, 501037, Note_on_c, 9, 51, 80
41, 501516, Note_off_c, 9, 49, 0
41, 501516, Note_off_c, 9, 37, 0
41, 501516, Note_off_c, 9, 40, 0
41, 501516, Note_off_c, 9, 51, 0
41, 501517, Note_on_c, 9, 36, 80
41, 501517, Note_on_c, 9, 49, 80
41, 501517, Note_on_c, 9, 51, 80
41, 501996, Note_off_c, 9, 36, 0
41, 501996, Note_off_c, 9, 51, 0
41, 501997, Note_on_c, 9, 37, 80
41, 501997, Note_on_c, 9, 40, 80
41, 501997, Note_on_c, 9, 51, 80
41, 502476, Note_off_c, 9, 51, 0
41, 502476, Note_off_c, 9, 37, 0
41, 502476, Note_off_c, 9, 40, 0
41, 502476, Note_off_c, 9, 49, 0
41, 502837, Note_on_c, 9, 38, 80
41, 502957, Note_on_c, 9, 38, 80
41, 503028, Note_off_c, 9, 38, 0
41, 503244, Note_off_c, 9, 38, 0
41, 503317, Note_on_c, 9, 36, 80
41, 503317, Note_on_c, 9, 49, 80
41, 503557, Note_on_c, 9, 47, 127
41, 503677, Note_off_c, 9, 47, 0
41, 503677, Note_on_c, 9, 45, 127
41, 503791, Note_off_c, 9, 36, 0
41, 503791, Note_off_c, 9, 49, 0
41, 503797, Note_on_c, 9, 47, 127
41, 503797, Note_off_c, 9, 45, 0
41, 503797, Note_on_c, 9, 38, 80
41, 503797, Note_on_c, 9, 45, 127
41, 503917, Note_off_c, 9, 45, 0
41, 503917, Note_on_c, 9, 47, 127
41, 503917, Note_on_c, 9, 43, 127
41, 503917, Note_on_c, 9, 38, 80
41, 503917, Note_off_c, 9, 47, 0
41, 503988, Note_off_c, 9, 38, 0
41, 504037, Note_off_c, 9, 47, 0
41, 504037, Note_off_c, 9, 43, 0
41, 504204, Note_off_c, 9, 38, 0
41, 504277, Note_on_c, 9, 49, 80
41, 504277, Note_on_c, 9, 36, 80
41, 505357, Note_on_c, 9, 40, 80
41, 505428, Note_off_c, 9, 49, 0
41, 505428, Note_off_c, 9, 36, 0
41, 505516, Note_off_c, 9, 40, 0
41, 505597, Note_on_c, 9, 40, 80
41, 505717, Note_on_c, 9, 40, 80
41, 505756, Note_off_c, 9, 40, 0
41, 505837, Note_on_c, 9, 40, 80
41, 505876, Note_off_c, 9, 40, 0
41, 505996, Note_off_c, 9, 40, 0
41, 506077, Note_on_c, 9, 40, 80
41, 506197, Note_on_c, 9, 40, 80
41, 506236, Note_off_c, 9, 40, 0
41, 506317, Note_on_c, 9, 49, 80
41, 506317, Note_on_c, 9, 36, 80
41, 506356, Note_off_c, 9, 40, 0
41, 510156, Note_off_c, 9, 49, 0
41, 510156, Note_off_c, 9, 36, 0
41, 510156, End_track
0, 0, End_of_file
