0, 0, Header, 1, 2, 1024
1, 0, Start_track
1, 0, SMPTE_offset, 96, 0, 0, 0, 0
1, 0, Time_signature, 4, 2, 24, 8
1, 0, Key_signature, 1, "major"
1, 0, Tempo, 400000
1, 0, Tempo, 400000
1, 18432, Tempo, 400000
1, 18688, Tempo, 402834
1, 18944, Tempo, 405546
1, 19200, Tempo, 406834
1, 19456, Tempo, 409600
1, 19712, Tempo, 411080
1, 19968, Tempo, 413905
1, 20224, Tempo, 415249
1, 20736, Tempo, 400000
1, 38912, Tempo, 400000
1, 39168, Tempo, 401412
1, 39424, Tempo, 402834
1, 39680, Tempo, 404105
1, 39936, Tempo, 404105
1, 40192, Tempo, 405546
1, 40448, Tempo, 406834
1, 40704, Tempo, 408294
1, 40960, Tempo, 400000
1, 43008, Tempo, 400000
1, 43264, Tempo, 401412
1, 43520, Tempo, 402834
1, 43776, Tempo, 404105
1, 44032, Tempo, 404105
1, 44288, Tempo, 405546
1, 44544, Tempo, 406834
1, 44800, Tempo, 408294
1, 45056, Tempo, 400000
1, 47104, Tempo, 400000
1, 47360, Tempo, 401412
1, 47616, Tempo, 402834
1, 47872, Tempo, 404105
1, 48128, Tempo, 404105
1, 48384, Tempo, 405546
1, 48640, Tempo, 406834
1, 48896, Tempo, 408294
1, 49152, Tempo, 400000
1, 51200, Tempo, 400000
1, 51456, Tempo, 402834
1, 51712, Tempo, 405546
1, 51968, Tempo, 406834
1, 52224, Tempo, 409600
1, 52480, Tempo, 411080
1, 52736, Tempo, 413905
1, 52992, Tempo, 415249
1, 53504, Tempo, 400000
1, 75776, Tempo, 400000
1, 76032, Tempo, 401412
1, 76288, Tempo, 402834
1, 76544, Tempo, 404105
1, 76800, Tempo, 404105
1, 77056, Tempo, 405546
1, 77312, Tempo, 406834
1, 77568, Tempo, 408294
1, 77824, Tempo, 400000
1, 79872, Tempo, 400000
1, 80128, Tempo, 402834
1, 80384, Tempo, 405546
1, 80640, Tempo, 406834
1, 80896, Tempo, 409600
1, 81152, Tempo, 411080
1, 81408, Tempo, 413905
1, 81664, Tempo, 415249
1, 82176, Tempo, 400000
1, 88064, Tempo, 400000
1, 88320, Tempo, 402834
1, 88576, Tempo, 405546
1, 88832, Tempo, 406834
1, 89088, Tempo, 409600
1, 89344, Tempo, 411080
1, 89600, Tempo, 413905
1, 89856, Tempo, 415249
1, 90368, Tempo, 400000
1, 133120, Tempo, 400000
1, 133376, Tempo, 401412
1, 133632, Tempo, 402834
1, 133888, Tempo, 404105
1, 134144, Tempo, 404105
1, 134400, Tempo, 405546
1, 134656, Tempo, 406834
1, 134912, Tempo, 408294
1, 135168, Tempo, 400000
1, 149504, Tempo, 400000
1, 149760, Tempo, 401412
1, 150016, Tempo, 402834
1, 150272, Tempo, 404105
1, 150528, Tempo, 404105
1, 150784, Tempo, 405546
1, 151040, Tempo, 406834
1, 151296, Tempo, 408294
1, 151552, Tempo, 400000
1, 153600, Tempo, 400000
1, 153856, Tempo, 401412
1, 154112, Tempo, 402834
1, 154368, Tempo, 404105
1, 154624, Tempo, 404105
1, 154880, Tempo, 405546
1, 155136, Tempo, 406834
1, 155392, Tempo, 408294
1, 155648, Tempo, 400000
1, 157696, Tempo, 400000
1, 157952, Tempo, 402834
1, 158208, Tempo, 405546
1, 158464, Tempo, 406834
1, 158720, Tempo, 409600
1, 158976, Tempo, 411080
1, 159232, Tempo, 413905
1, 159488, Tempo, 415249
1, 160000, Tempo, 400000
1, 176128, Key_signature, -4, "major"
1, 178176, Tempo, 400000
1, 178432, Tempo, 402834
1, 178688, Tempo, 405546
1, 178944, Tempo, 406834
1, 179200, Tempo, 409600
1, 179456, Tempo, 411080
1, 179712, Tempo, 413905
1, 179968, Tempo, 415249
1, 180480, Tempo, 400000
1, 194560, Tempo, 400000
1, 194816, Tempo, 402834
1, 195072, Tempo, 405546
1, 195328, Tempo, 406834
1, 195584, Tempo, 409600
1, 195840, Tempo, 411080
1, 196096, Tempo, 413905
1, 196352, Tempo, 415249
1, 196864, Tempo, 400000
1, 202752, Tempo, 400000
1, 203008, Tempo, 402834
1, 203264, Tempo, 405546
1, 203520, Tempo, 406834
1, 203776, Tempo, 409600
1, 204032, Tempo, 411080
1, 204288, Tempo, 413905
1, 204544, Tempo, 415249
1, 205056, Tempo, 400000
1, 212992, Key_signature, 0, "major"
1, 215040, Tempo, 400000
1, 215296, Tempo, 402834
1, 215552, Tempo, 405546
1, 215808, Tempo, 406834
1, 216064, Tempo, 409600
1, 216320, Tempo, 411080
1, 216576, Tempo, 413905
1, 216832, Tempo, 415249
1, 217344, Tempo, 400000
1, 223232, Tempo, 400000
1, 223488, Tempo, 401412
1, 223744, Tempo, 402834
1, 224000, Tempo, 404105
1, 224256, Tempo, 404105
1, 224512, Tempo, 405546
1, 224768, Tempo, 406834
1, 225024, Tempo, 408294
1, 225280, Tempo, 400000
1, 231424, Tempo, 400000
1, 231680, Tempo, 402834
1, 231936, Tempo, 405546
1, 232192, Tempo, 406834
1, 232448, Tempo, 409600
1, 232704, Tempo, 411080
1, 232960, Tempo, 413905
1, 233216, Tempo, 415249
1, 233728, Tempo, 400000
1, 256000, Tempo, 400000
1, 256256, Tempo, 401412
1, 256512, Tempo, 402834
1, 256768, Tempo, 404105
1, 257024, Tempo, 404105
1, 257280, Tempo, 405546
1, 257536, Tempo, 406834
1, 257792, Tempo, 408294
1, 258048, Tempo, 400000
1, 260096, Tempo, 400000
1, 260352, Tempo, 401412
1, 260608, Tempo, 402834
1, 260864, Tempo, 404105
1, 261120, Tempo, 404105
1, 261376, Tempo, 405546
1, 261632, Tempo, 406834
1, 261888, Tempo, 408294
1, 262144, Tempo, 400000
1, 272384, Tempo, 400000
1, 272640, Tempo, 401412
1, 272896, Tempo, 402834
1, 273152, Tempo, 404105
1, 273408, Tempo, 404105
1, 273664, Tempo, 405546
1, 273920, Tempo, 406834
1, 274176, Tempo, 408294
1, 274432, Tempo, 400000
1, 276480, Tempo, 400000
1, 276736, Tempo, 402834
1, 276992, Tempo, 405546
1, 277248, Tempo, 406834
1, 277504, Tempo, 409600
1, 277760, Tempo, 411080
1, 278016, Tempo, 413905
1, 278272, Tempo, 415249
1, 278784, Tempo, 400000
1, 292057, End_track
2, 0, Start_track
2, 0, Unknown_meta_event, 9, 22, 83, 109, 97, 114, 116, 77, 117, 115, 105, 99, 32, 83, 111, 102, 116, 83, 121, 110, 116, 104, 32, 49
2, 0, Title_t, "Piano"
2, 0, Program_c, 0, 0
2, 0, Control_c, 0, 7, 101
2, 0, Control_c, 0, 10, 64
2, 0, Control_c, 0, 7, 102
2, 0, Control_c, 0, 7, 110
2, 3, Control_c, 0, 100, 0
2, 3, Control_c, 0, 101, 0
2, 3, Control_c, 0, 100, 0
2, 3, Control_c, 0, 101, 0
2, 4, Control_c, 0, 6, 12
2, 4, Control_c, 0, 6, 12
2, 5, Control_c, 0, 38, 0
2, 5, Control_c, 0, 38, 0
2, 10, Control_c, 0, 7, 102
2, 10, Control_c, 0, 7, 110
2, 10, Note_on_c, 0, 62, 80
2, 10, Note_on_c, 0, 43, 72
2, 10, Note_on_c, 0, 55, 86
2, 238, Note_off_c, 0, 62, 0
2, 439, Note_off_c, 0, 43, 0
2, 439, Note_off_c, 0, 55, 0
2, 546, Note_on_c, 0, 61, 75
2, 746, Note_off_c, 0, 61, 0
2, 1054, Note_on_c, 0, 59, 76
2, 1251, Note_off_c, 0, 59, 0
2, 1559, Note_on_c, 0, 62, 75
2, 1559, Note_on_c, 0, 43, 67
2, 1559, Note_on_c, 0, 55, 77
2, 1761, Note_off_c, 0, 62, 0
2, 2038, Note_off_c, 0, 43, 0
2, 2068, Note_off_c, 0, 55, 0
2, 2069, Note_on_c, 0, 61, 78
2, 2271, Note_off_c, 0, 61, 0
2, 2579, Note_on_c, 0, 59, 75
2, 2776, Note_off_c, 0, 59, 0
2, 3084, Note_on_c, 0, 64, 76
2, 3084, Note_on_c, 0, 43, 68
2, 3084, Note_on_c, 0, 55, 78
2, 3281, Note_off_c, 0, 64, 0
2, 3481, Note_off_c, 0, 43, 0
2, 3481, Note_off_c, 0, 55, 0
2, 3589, Note_on_c, 0, 61, 75
2, 3788, Note_off_c, 0, 61, 0
2, 4100, Note_on_c, 0, 62, 80
2, 4100, Note_on_c, 0, 43, 72
2, 4100, Note_on_c, 0, 55, 82
2, 4334, Note_off_c, 0, 62, 0
2, 4535, Note_off_c, 0, 43, 0
2, 4535, Note_off_c, 0, 55, 0
2, 4642, Note_on_c, 0, 61, 75
2, 4842, Note_off_c, 0, 61, 0
2, 5150, Note_on_c, 0, 59, 76
2, 5347, Note_off_c, 0, 59, 0
2, 5655, Note_on_c, 0, 62, 75
2, 5655, Note_on_c, 0, 43, 67
2, 5655, Note_on_c, 0, 55, 77
2, 5857, Note_off_c, 0, 62, 0
2, 6134, Note_off_c, 0, 43, 0
2, 6164, Note_off_c, 0, 55, 0
2, 6165, Note_on_c, 0, 61, 78
2, 6361, Control_c, 0, 7, 102
2, 6367, Note_off_c, 0, 61, 0
2, 6675, Note_on_c, 0, 59, 75
2, 6872, Note_off_c, 0, 59, 0
2, 7180, Note_on_c, 0, 64, 68
2, 7180, Note_on_c, 0, 67, 82
2, 7180, Note_on_c, 0, 43, 68
2, 7180, Note_on_c, 0, 55, 78
2, 7421, Note_off_c, 0, 64, 0
2, 7436, Note_off_c, 0, 67, 0
2, 7437, Note_on_c, 0, 69, 75
2, 7577, Note_off_c, 0, 43, 0
2, 7577, Note_off_c, 0, 55, 0
2, 7669, Note_off_c, 0, 69, 0
2, 7685, Note_on_c, 0, 71, 75
2, 7917, Note_off_c, 0, 71, 0
2, 7933, Note_on_c, 0, 73, 75
2, 8176, Note_off_c, 0, 73, 0
2, 8196, Note_on_c, 0, 62, 72
2, 8196, Note_on_c, 0, 74, 86
2, 8196, Note_on_c, 0, 43, 72
2, 8196, Note_on_c, 0, 55, 82
2, 8430, Note_off_c, 0, 62, 0
2, 8430, Note_off_c, 0, 74, 0
2, 8631, Note_off_c, 0, 43, 0
2, 8631, Note_off_c, 0, 55, 0
2, 8738, Note_on_c, 0, 61, 67
2, 8738, Note_on_c, 0, 73, 81
2, 8938, Note_off_c, 0, 61, 0
2, 8938, Note_off_c, 0, 73, 0
2, 9246, Note_on_c, 0, 59, 68
2, 9246, Note_on_c, 0, 71, 82
2, 9443, Note_off_c, 0, 59, 0
2, 9443, Note_off_c, 0, 71, 0
2, 9751, Note_on_c, 0, 62, 67
2, 9751, Note_on_c, 0, 74, 81
2, 9751, Note_on_c, 0, 43, 67
2, 9751, Note_on_c, 0, 55, 77
2, 9953, Note_off_c, 0, 62, 0
2, 9953, Note_off_c, 0, 74, 0
2, 10230, Note_off_c, 0, 43, 0
2, 10260, Note_off_c, 0, 55, 0
2, 10261, Note_on_c, 0, 61, 70
2, 10261, Note_on_c, 0, 73, 84
2, 10463, Note_off_c, 0, 61, 0
2, 10463, Note_off_c, 0, 73, 0
2, 10771, Note_on_c, 0, 59, 67
2, 10771, Note_on_c, 0, 71, 81
2, 10968, Note_off_c, 0, 59, 0
2, 10968, Note_off_c, 0, 71, 0
2, 11276, Note_on_c, 0, 64, 68
2, 11276, Note_on_c, 0, 76, 82
2, 11276, Note_on_c, 0, 43, 68
2, 11276, Note_on_c, 0, 55, 78
2, 11473, Note_off_c, 0, 64, 0
2, 11473, Note_off_c, 0, 76, 0
2, 11673, Note_off_c, 0, 43, 0
2, 11673, Note_off_c, 0, 55, 0
2, 11781, Note_on_c, 0, 61, 67
2, 11781, Note_on_c, 0, 73, 81
2, 11980, Note_off_c, 0, 61, 0
2, 11980, Note_off_c, 0, 73, 0
2, 12292, Note_on_c, 0, 62, 72
2, 12292, Note_on_c, 0, 74, 86
2, 12292, Note_on_c, 0, 43, 72
2, 12292, Note_on_c, 0, 55, 82
2, 12526, Note_off_c, 0, 62, 0
2, 12526, Note_off_c, 0, 74, 0
2, 12727, Note_off_c, 0, 43, 0
2, 12727, Note_off_c, 0, 55, 0
2, 12834, Note_on_c, 0, 61, 67
2, 12834, Note_on_c, 0, 73, 81
2, 13034, Note_off_c, 0, 61, 0
2, 13034, Note_off_c, 0, 73, 0
2, 13342, Note_on_c, 0, 59, 68
2, 13342, Note_on_c, 0, 71, 82
2, 13539, Note_off_c, 0, 59, 0
2, 13539, Note_off_c, 0, 71, 0
2, 13847, Note_on_c, 0, 62, 67
2, 13847, Note_on_c, 0, 74, 81
2, 13847, Note_on_c, 0, 43, 67
2, 13847, Note_on_c, 0, 55, 77
2, 14049, Note_off_c, 0, 62, 0
2, 14049, Note_off_c, 0, 74, 0
2, 14326, Note_off_c, 0, 43, 0
2, 14356, Note_off_c, 0, 55, 0
2, 14357, Note_on_c, 0, 61, 70
2, 14357, Note_on_c, 0, 73, 84
2, 14559, Note_off_c, 0, 61, 0
2, 14559, Note_off_c, 0, 73, 0
2, 14867, Note_on_c, 0, 59, 67
2, 14867, Note_on_c, 0, 71, 81
2, 14941, Note_off_c, 0, 59, 0
2, 14941, Note_off_c, 0, 71, 0
2, 15372, Note_on_c, 0, 76, 76
2, 15372, Note_on_c, 0, 43, 68
2, 15372, Note_on_c, 0, 55, 78
2, 15569, Note_off_c, 0, 76, 0
2, 15769, Note_off_c, 0, 43, 0
2, 15769, Note_off_c, 0, 55, 0
2, 15877, Note_on_c, 0, 78, 75
2, 16076, Note_off_c, 0, 78, 0
2, 16388, Note_on_c, 0, 67, 75
2, 16388, Note_on_c, 0, 79, 80
2, 16388, Note_on_c, 0, 43, 72
2, 16388, Note_on_c, 0, 55, 82
2, 16823, Note_off_c, 0, 79, 0
2, 16823, Note_off_c, 0, 43, 0
2, 16823, Note_off_c, 0, 55, 0
2, 17943, Note_on_c, 0, 43, 67
2, 17943, Note_on_c, 0, 55, 77
2, 18422, Note_off_c, 0, 43, 0
2, 18452, Note_off_c, 0, 55, 0
2, 19467, Note_off_c, 0, 67, 0
2, 19468, Note_on_c, 0, 66, 68
2, 19468, Note_on_c, 0, 78, 82
2, 19468, Note_on_c, 0, 43, 68
2, 19468, Note_on_c, 0, 55, 82
2, 19865, Note_off_c, 0, 43, 0
2, 19865, Note_off_c, 0, 55, 0
2, 19942, Note_off_c, 0, 66, 0
2, 19972, Note_off_c, 0, 78, 0
2, 19973, Note_on_c, 0, 67, 67
2, 19973, Note_on_c, 0, 79, 81
2, 20479, Note_off_c, 0, 67, 0
2, 20479, Note_off_c, 0, 79, 0
2, 20484, Note_on_c, 0, 67, 67
2, 20484, Note_on_c, 0, 79, 81
2, 20484, Note_on_c, 0, 48, 72
2, 20484, Note_on_c, 0, 60, 86
2, 20919, Note_off_c, 0, 48, 0
2, 20919, Note_off_c, 0, 60, 0
2, 22039, Note_on_c, 0, 48, 67
2, 22039, Note_on_c, 0, 60, 77
2, 22518, Note_off_c, 0, 48, 0
2, 22548, Note_off_c, 0, 60, 0
2, 23563, Note_off_c, 0, 67, 0
2, 23563, Note_off_c, 0, 79, 0
2, 23564, Note_on_c, 0, 66, 68
2, 23564, Note_on_c, 0, 78, 82
2, 23564, Note_on_c, 0, 48, 68
2, 23564, Note_on_c, 0, 60, 82
2, 23961, Note_off_c, 0, 48, 0
2, 23961, Note_off_c, 0, 60, 0
2, 24038, Note_off_c, 0, 66, 0
2, 24068, Note_off_c, 0, 78, 0
2, 24069, Note_on_c, 0, 67, 67
2, 24069, Note_on_c, 0, 79, 81
2, 24575, Note_off_c, 0, 67, 0
2, 24575, Note_off_c, 0, 79, 0
2, 24580, Note_on_c, 0, 67, 72
2, 24580, Note_on_c, 0, 79, 86
2, 24580, Note_on_c, 0, 50, 72
2, 24580, Note_on_c, 0, 62, 86
2, 25015, Note_off_c, 0, 50, 0
2, 25015, Note_off_c, 0, 62, 0
2, 26135, Note_on_c, 0, 50, 67
2, 26135, Note_on_c, 0, 62, 77
2, 26614, Note_off_c, 0, 50, 0
2, 26644, Note_off_c, 0, 67, 0
2, 26644, Note_off_c, 0, 79, 0
2, 26644, Note_off_c, 0, 62, 0
2, 26645, Note_on_c, 0, 69, 70
2, 26645, Note_on_c, 0, 81, 84
2, 27155, Note_on_c, 0, 50, 75
2, 27629, Note_off_c, 0, 50, 0
2, 27659, Note_off_c, 0, 69, 0
2, 27659, Note_off_c, 0, 81, 0
2, 27660, Note_on_c, 0, 66, 68
2, 27660, Note_on_c, 0, 78, 82
2, 27660, Note_on_c, 0, 45, 76
2, 28134, Note_off_c, 0, 45, 0
2, 28165, Note_on_c, 0, 50, 75
2, 28641, Note_off_c, 0, 50, 0
2, 28671, Note_off_c, 0, 66, 0
2, 28671, Note_off_c, 0, 78, 0
2, 28676, Note_on_c, 0, 67, 67
2, 28676, Note_on_c, 0, 79, 81
2, 28676, Note_on_c, 0, 52, 72
2, 28676, Note_on_c, 0, 64, 82
2, 29111, Note_off_c, 0, 52, 0
2, 29111, Note_off_c, 0, 64, 0
2, 30231, Note_on_c, 0, 52, 67
2, 30231, Note_on_c, 0, 64, 77
2, 30710, Note_off_c, 0, 52, 0
2, 30740, Note_off_c, 0, 64, 0
2, 31755, Note_off_c, 0, 67, 0
2, 31755, Note_off_c, 0, 79, 0
2, 31756, Note_on_c, 0, 66, 68
2, 31756, Note_on_c, 0, 78, 82
2, 31756, Note_on_c, 0, 52, 68
2, 31756, Note_on_c, 0, 64, 82
2, 32153, Note_off_c, 0, 52, 0
2, 32153, Note_off_c, 0, 64, 0
2, 32230, Note_off_c, 0, 66, 0
2, 32260, Note_off_c, 0, 78, 0
2, 32261, Note_on_c, 0, 67, 67
2, 32261, Note_on_c, 0, 79, 81
2, 32767, Note_off_c, 0, 67, 0
2, 32767, Note_off_c, 0, 79, 0
2, 32772, Note_on_c, 0, 67, 67
2, 32772, Note_on_c, 0, 79, 81
2, 32772, Note_on_c, 0, 43, 72
2, 32772, Note_on_c, 0, 55, 86
2, 33207, Note_off_c, 0, 43, 0
2, 33207, Note_off_c, 0, 55, 0
2, 33822, Note_on_c, 0, 50, 76
2, 34296, Note_off_c, 0, 50, 0
2, 34327, Note_on_c, 0, 43, 67
2, 34327, Note_on_c, 0, 55, 81
2, 34806, Note_off_c, 0, 43, 0
2, 34836, Note_off_c, 0, 55, 0
2, 35347, Note_on_c, 0, 50, 75
2, 35821, Note_off_c, 0, 50, 0
2, 35851, Note_off_c, 0, 67, 0
2, 35851, Note_off_c, 0, 79, 0
2, 35852, Note_on_c, 0, 66, 68
2, 35852, Note_on_c, 0, 78, 82
2, 35852, Note_on_c, 0, 43, 68
2, 35852, Note_on_c, 0, 55, 82
2, 36326, Note_off_c, 0, 66, 0
2, 36326, Note_off_c, 0, 43, 0
2, 36356, Note_off_c, 0, 78, 0
2, 36356, Note_off_c, 0, 55, 0
2, 36357, Note_on_c, 0, 67, 67
2, 36357, Note_on_c, 0, 79, 81
2, 36357, Note_on_c, 0, 50, 75
2, 36833, Note_off_c, 0, 50, 0
2, 36863, Note_off_c, 0, 67, 0
2, 36863, Note_off_c, 0, 79, 0
2, 36868, Note_on_c, 0, 67, 67
2, 36868, Note_on_c, 0, 79, 81
2, 36868, Note_on_c, 0, 48, 72
2, 36868, Note_on_c, 0, 60, 86
2, 37303, Note_off_c, 0, 48, 0
2, 37303, Note_off_c, 0, 60, 0
2, 37918, Note_on_c, 0, 55, 76
2, 38392, Note_off_c, 0, 55, 0
2, 38423, Note_on_c, 0, 48, 67
2, 38423, Note_on_c, 0, 60, 81
2, 38902, Note_off_c, 0, 48, 0
2, 38932, Note_off_c, 0, 60, 0
2, 39443, Note_on_c, 0, 55, 75
2, 39917, Note_off_c, 0, 55, 0
2, 39947, Note_off_c, 0, 67, 0
2, 39947, Note_off_c, 0, 79, 0
2, 39948, Note_on_c, 0, 66, 68
2, 39948, Note_on_c, 0, 78, 82
2, 39948, Note_on_c, 0, 48, 68
2, 39948, Note_on_c, 0, 60, 82
2, 40422, Note_off_c, 0, 66, 0
2, 40422, Note_off_c, 0, 48, 0
2, 40452, Note_off_c, 0, 78, 0
2, 40452, Note_off_c, 0, 60, 0
2, 40453, Note_on_c, 0, 67, 67
2, 40453, Note_on_c, 0, 79, 81
2, 40453, Note_on_c, 0, 55, 75
2, 40929, Note_off_c, 0, 55, 0
2, 40959, Note_off_c, 0, 67, 0
2, 40959, Note_off_c, 0, 79, 0
2, 40964, Note_on_c, 0, 67, 72
2, 40964, Note_on_c, 0, 79, 86
2, 40964, Note_on_c, 0, 50, 72
2, 40964, Note_on_c, 0, 62, 86
2, 41399, Note_off_c, 0, 50, 0
2, 41399, Note_off_c, 0, 62, 0
2, 42014, Note_on_c, 0, 57, 76
2, 42488, Note_off_c, 0, 57, 0
2, 42519, Note_on_c, 0, 50, 67
2, 42519, Note_on_c, 0, 62, 81
2, 42998, Note_off_c, 0, 50, 0
2, 43028, Note_off_c, 0, 67, 0
2, 43028, Note_off_c, 0, 79, 0
2, 43028, Note_off_c, 0, 62, 0
2, 43029, Note_on_c, 0, 69, 70
2, 43029, Note_on_c, 0, 81, 84
2, 43539, Note_on_c, 0, 50, 75
2, 44013, Note_off_c, 0, 50, 0
2, 44043, Note_off_c, 0, 69, 0
2, 44043, Note_off_c, 0, 81, 0
2, 44044, Note_on_c, 0, 66, 68
2, 44044, Note_on_c, 0, 78, 82
2, 44044, Note_on_c, 0, 57, 68
2, 44044, Note_on_c, 0, 62, 82
2, 44518, Note_off_c, 0, 57, 0
2, 44548, Note_off_c, 0, 62, 0
2, 44549, Note_on_c, 0, 50, 75
2, 45025, Note_off_c, 0, 50, 0
2, 45055, Note_off_c, 0, 66, 0
2, 45055, Note_off_c, 0, 78, 0
2, 45060, Note_on_c, 0, 67, 72
2, 45060, Note_on_c, 0, 79, 86
2, 45060, Note_on_c, 0, 43, 72
2, 45060, Note_on_c, 0, 55, 86
2, 45495, Note_off_c, 0, 43, 0
2, 45495, Note_off_c, 0, 55, 0
2, 46109, Note_off_c, 0, 67, 0
2, 46109, Note_off_c, 0, 79, 0
2, 46110, Note_on_c, 0, 81, 76
2, 46110, Note_on_c, 0, 50, 76
2, 46584, Note_off_c, 0, 81, 0
2, 46584, Note_off_c, 0, 50, 0
2, 46615, Note_on_c, 0, 83, 75
2, 46615, Note_on_c, 0, 43, 67
2, 46615, Note_on_c, 0, 55, 81
2, 47094, Note_off_c, 0, 83, 0
2, 47094, Note_off_c, 0, 43, 0
2, 47124, Note_off_c, 0, 55, 0
2, 47125, Note_on_c, 0, 84, 78
2, 47604, Note_off_c, 0, 84, 0
2, 47635, Note_on_c, 0, 83, 75
2, 47635, Note_on_c, 0, 50, 75
2, 48109, Note_off_c, 0, 83, 0
2, 48109, Note_off_c, 0, 50, 0
2, 48140, Note_on_c, 0, 81, 76
2, 48140, Note_on_c, 0, 43, 68
2, 48140, Note_on_c, 0, 55, 82
2, 48614, Note_off_c, 0, 81, 0
2, 48614, Note_off_c, 0, 43, 0
2, 48644, Note_off_c, 0, 55, 0
2, 48645, Note_on_c, 0, 79, 75
2, 48645, Note_on_c, 0, 50, 75
2, 49121, Note_off_c, 0, 79, 0
2, 49121, Note_off_c, 0, 50, 0
2, 49156, Note_on_c, 0, 43, 72
2, 49156, Note_on_c, 0, 55, 86
2, 49369, Control_c, 0, 7, 110
2, 49591, Note_off_c, 0, 43, 0
2, 49591, Note_off_c, 0, 55, 0
2, 50206, Note_on_c, 0, 50, 76
2, 50680, Note_off_c, 0, 50, 0
2, 50711, Note_on_c, 0, 43, 67
2, 50711, Note_on_c, 0, 55, 81
2, 51190, Note_off_c, 0, 43, 0
2, 51220, Note_off_c, 0, 55, 0
2, 51221, Note_on_c, 0, 59, 78
2, 51700, Note_off_c, 0, 59, 0
2, 51731, Note_on_c, 0, 62, 75
2, 51731, Note_on_c, 0, 50, 75
2, 52205, Note_off_c, 0, 62, 0
2, 52205, Note_off_c, 0, 50, 0
2, 52236, Note_on_c, 0, 67, 76
2, 52236, Note_on_c, 0, 43, 68
2, 52236, Note_on_c, 0, 55, 82
2, 52710, Note_off_c, 0, 67, 0
2, 52710, Note_off_c, 0, 43, 0
2, 52740, Note_off_c, 0, 55, 0
2, 52741, Note_on_c, 0, 71, 75
2, 52741, Note_on_c, 0, 50, 75
2, 53082, Note_on_c, 0, 71, 67
2, 53167, Note_on_c, 0, 74, 67
2, 53217, Note_off_c, 0, 71, 0
2, 53217, Note_off_c, 0, 50, 0
2, 53252, Note_on_c, 0, 83, 80
2, 53252, Note_on_c, 0, 79, 81
2, 53252, Note_on_c, 0, 55, 80
2, 53763, Note_off_c, 0, 55, 0
2, 53794, Note_on_c, 0, 43, 75
2, 54271, Note_off_c, 0, 43, 0
2, 54302, Note_on_c, 0, 50, 76
2, 54776, Note_off_c, 0, 50, 0
2, 54807, Note_on_c, 0, 55, 75
2, 55286, Note_off_c, 0, 55, 0
2, 55316, Note_off_c, 0, 83, 0
2, 55317, Note_on_c, 0, 81, 78
2, 55317, Note_on_c, 0, 43, 78
2, 55796, Note_off_c, 0, 81, 0
2, 55796, Note_off_c, 0, 43, 0
2, 55827, Note_on_c, 0, 83, 75
2, 55827, Note_on_c, 0, 50, 75
2, 56301, Note_off_c, 0, 83, 0
2, 56301, Note_off_c, 0, 50, 0
2, 56332, Note_on_c, 0, 86, 76
2, 56332, Note_on_c, 0, 55, 76
2, 56806, Note_off_c, 0, 55, 0
2, 56837, Note_on_c, 0, 43, 75
2, 57178, Note_on_c, 0, 76, 67
2, 57263, Note_on_c, 0, 79, 67
2, 57313, Note_off_c, 0, 43, 0
2, 57343, Note_off_c, 0, 86, 0
2, 57343, Note_off_c, 0, 71, 0
2, 57343, Note_off_c, 0, 74, 0
2, 57343, Note_off_c, 0, 79, 0
2, 57348, Note_on_c, 0, 88, 80
2, 57348, Note_on_c, 0, 84, 81
2, 57348, Note_on_c, 0, 60, 80
2, 57783, Note_off_c, 0, 88, 0
2, 57859, Note_off_c, 0, 60, 0
2, 57890, Note_on_c, 0, 48, 75
2, 58367, Note_off_c, 0, 48, 0
2, 58398, Note_on_c, 0, 79, 76
2, 58398, Note_on_c, 0, 55, 76
2, 58872, Note_off_c, 0, 55, 0
2, 58903, Note_on_c, 0, 60, 75
2, 59382, Note_off_c, 0, 60, 0
2, 59413, Note_on_c, 0, 48, 78
2, 59892, Note_off_c, 0, 48, 0
2, 59923, Note_on_c, 0, 55, 75
2, 60397, Note_off_c, 0, 55, 0
2, 60427, Note_off_c, 0, 79, 0
2, 60428, Note_on_c, 0, 81, 76
2, 60428, Note_on_c, 0, 60, 76
2, 60902, Note_off_c, 0, 81, 0
2, 60902, Note_off_c, 0, 60, 0
2, 60933, Note_on_c, 0, 83, 75
2, 60933, Note_on_c, 0, 48, 75
2, 61274, Note_on_c, 0, 69, 67
2, 61359, Note_on_c, 0, 74, 67
2, 61409, Note_off_c, 0, 83, 0
2, 61409, Note_off_c, 0, 48, 0
2, 61439, Note_off_c, 0, 76, 0
2, 61439, Note_off_c, 0, 79, 0
2, 61439, Note_off_c, 0, 84, 0
2, 61444, Note_on_c, 0, 81, 80
2, 61444, Note_on_c, 0, 78, 81
2, 61444, Note_on_c, 0, 62, 80
2, 61955, Note_off_c, 0, 62, 0
2, 61986, Note_on_c, 0, 50, 75
2, 62463, Note_off_c, 0, 50, 0
2, 62494, Note_on_c, 0, 57, 76
2, 62968, Note_off_c, 0, 57, 0
2, 62998, Note_off_c, 0, 81, 0
2, 62999, Note_on_c, 0, 79, 75
2, 62999, Note_on_c, 0, 62, 75
2, 63478, Note_off_c, 0, 79, 0
2, 63478, Note_off_c, 0, 62, 0
2, 63509, Note_on_c, 0, 81, 78
2, 63509, Note_on_c, 0, 50, 78
2, 63988, Note_off_c, 0, 81, 0
2, 63988, Note_off_c, 0, 50, 0
2, 64019, Note_on_c, 0, 83, 75
2, 64019, Note_on_c, 0, 57, 75
2, 64493, Note_off_c, 0, 83, 0
2, 64493, Note_off_c, 0, 57, 0
2, 64524, Note_on_c, 0, 78, 76
2, 64524, Note_on_c, 0, 62, 76
2, 64998, Note_off_c, 0, 62, 0
2, 65029, Note_on_c, 0, 50, 75
2, 65370, Note_on_c, 0, 67, 67
2, 65455, Note_on_c, 0, 71, 67
2, 65505, Note_off_c, 0, 50, 0
2, 65535, Note_off_c, 0, 78, 0
2, 65535, Note_off_c, 0, 69, 0
2, 65535, Note_off_c, 0, 74, 0
2, 65535, Note_off_c, 0, 78, 0
2, 65540, Note_on_c, 0, 79, 75
2, 65540, Note_on_c, 0, 76, 81
2, 65540, Note_on_c, 0, 64, 80
2, 66051, Note_off_c, 0, 64, 0
2, 66082, Note_on_c, 0, 52, 75
2, 66559, Note_off_c, 0, 52, 0
2, 66590, Note_on_c, 0, 59, 76
2, 67064, Note_off_c, 0, 59, 0
2, 67095, Note_on_c, 0, 64, 75
2, 67574, Note_off_c, 0, 64, 0
2, 67605, Note_on_c, 0, 52, 78
2, 68084, Note_off_c, 0, 52, 0
2, 68115, Note_on_c, 0, 59, 75
2, 68589, Note_off_c, 0, 59, 0
2, 68620, Note_on_c, 0, 64, 76
2, 69094, Note_off_c, 0, 64, 0
2, 69125, Note_on_c, 0, 52, 75
2, 69466, Note_on_c, 0, 71, 67
2, 69551, Note_on_c, 0, 74, 67
2, 69601, Note_off_c, 0, 52, 0
2, 69631, Note_off_c, 0, 79, 0
2, 69631, Note_off_c, 0, 67, 0
2, 69631, Note_off_c, 0, 71, 0
2, 69631, Note_off_c, 0, 76, 0
2, 69636, Note_on_c, 0, 83, 80
2, 69636, Note_on_c, 0, 79, 81
2, 69636, Note_on_c, 0, 55, 80
2, 70147, Note_off_c, 0, 55, 0
2, 70178, Note_on_c, 0, 43, 75
2, 70655, Note_off_c, 0, 43, 0
2, 70686, Note_on_c, 0, 50, 76
2, 71160, Note_off_c, 0, 50, 0
2, 71191, Note_on_c, 0, 55, 75
2, 71670, Note_off_c, 0, 55, 0
2, 71700, Note_off_c, 0, 83, 0
2, 71701, Note_on_c, 0, 81, 78
2, 71701, Note_on_c, 0, 43, 78
2, 72180, Note_off_c, 0, 81, 0
2, 72180, Note_off_c, 0, 43, 0
2, 72211, Note_on_c, 0, 83, 75
2, 72211, Note_on_c, 0, 50, 75
2, 72685, Note_off_c, 0, 83, 0
2, 72685, Note_off_c, 0, 50, 0
2, 72716, Note_on_c, 0, 86, 76
2, 72716, Note_on_c, 0, 55, 76
2, 73190, Note_off_c, 0, 55, 0
2, 73221, Note_on_c, 0, 43, 75
2, 73562, Note_on_c, 0, 72, 67
2, 73647, Note_on_c, 0, 76, 67
2, 73697, Note_off_c, 0, 43, 0
2, 73727, Note_off_c, 0, 86, 0
2, 73727, Note_off_c, 0, 71, 0
2, 73727, Note_off_c, 0, 74, 0
2, 73727, Note_off_c, 0, 79, 0
2, 73732, Note_on_c, 0, 84, 75
2, 73732, Note_on_c, 0, 79, 81
2, 73732, Note_on_c, 0, 60, 80
2, 74243, Note_off_c, 0, 60, 0
2, 74274, Note_on_c, 0, 48, 75
2, 74751, Note_off_c, 0, 48, 0
2, 74782, Note_on_c, 0, 55, 76
2, 75256, Note_off_c, 0, 55, 0
2, 75287, Note_on_c, 0, 60, 75
2, 75766, Note_off_c, 0, 60, 0
2, 75797, Note_on_c, 0, 48, 78
2, 76276, Note_off_c, 0, 48, 0
2, 76307, Note_on_c, 0, 55, 75
2, 76781, Note_off_c, 0, 55, 0
2, 76811, Note_off_c, 0, 84, 0
2, 76812, Note_on_c, 0, 71, 68
2, 76812, Note_on_c, 0, 83, 82
2, 76812, Note_on_c, 0, 60, 76
2, 77286, Note_off_c, 0, 71, 0
2, 77286, Note_off_c, 0, 60, 0
2, 77316, Note_off_c, 0, 83, 0
2, 77317, Note_on_c, 0, 72, 67
2, 77317, Note_on_c, 0, 84, 81
2, 77317, Note_on_c, 0, 48, 75
2, 77658, Note_on_c, 0, 74, 67
2, 77743, Note_on_c, 0, 78, 67
2, 77793, Note_off_c, 0, 72, 0
2, 77793, Note_off_c, 0, 48, 0
2, 77823, Note_off_c, 0, 84, 0
2, 77823, Note_off_c, 0, 72, 0
2, 77823, Note_off_c, 0, 76, 0
2, 77823, Note_off_c, 0, 79, 0
2, 77828, Note_on_c, 0, 86, 80
2, 77828, Note_on_c, 0, 81, 81
2, 77828, Note_on_c, 0, 62, 80
2, 78339, Note_off_c, 0, 62, 0
2, 78370, Note_on_c, 0, 50, 75
2, 78847, Note_off_c, 0, 50, 0
2, 78878, Note_on_c, 0, 57, 76
2, 79352, Note_off_c, 0, 57, 0
2, 79382, Note_off_c, 0, 86, 0
2, 79383, Note_on_c, 0, 69, 67
2, 79383, Note_on_c, 0, 81, 81
2, 79383, Note_on_c, 0, 62, 75
2, 79862, Note_off_c, 0, 69, 0
2, 79862, Note_off_c, 0, 62, 0
2, 79892, Note_off_c, 0, 81, 0
2, 79893, Note_on_c, 0, 74, 70
2, 79893, Note_on_c, 0, 86, 84
2, 79893, Note_on_c, 0, 50, 78
2, 80372, Note_off_c, 0, 74, 0
2, 80372, Note_off_c, 0, 50, 0
2, 80402, Note_off_c, 0, 86, 0
2, 80403, Note_on_c, 0, 76, 67
2, 80403, Note_on_c, 0, 88, 81
2, 80403, Note_on_c, 0, 57, 75
2, 80877, Note_off_c, 0, 76, 0
2, 80877, Note_off_c, 0, 57, 0
2, 80907, Note_off_c, 0, 88, 0
2, 80908, Note_on_c, 0, 78, 68
2, 80908, Note_on_c, 0, 90, 82
2, 80908, Note_on_c, 0, 62, 76
2, 81382, Note_off_c, 0, 62, 0
2, 81413, Note_on_c, 0, 50, 75
2, 81754, Note_on_c, 0, 79, 67
2, 81839, Note_on_c, 0, 83, 67
2, 81889, Note_off_c, 0, 50, 0
2, 81919, Note_off_c, 0, 78, 0
2, 81919, Note_off_c, 0, 90, 0
2, 81919, Note_off_c, 0, 74, 0
2, 81919, Note_off_c, 0, 78, 0
2, 81919, Note_off_c, 0, 81, 0
2, 81924, Note_on_c, 0, 91, 75
2, 81924, Note_on_c, 0, 86, 81
2, 81924, Note_on_c, 0, 55, 80
2, 82435, Note_off_c, 0, 55, 0
2, 82466, Note_on_c, 0, 43, 75
2, 82943, Note_off_c, 0, 43, 0
2, 82974, Note_on_c, 0, 50, 76
2, 83448, Note_off_c, 0, 50, 0
2, 83479, Note_on_c, 0, 55, 75
2, 83958, Note_off_c, 0, 55, 0
2, 83989, Note_on_c, 0, 43, 78
2, 84468, Note_off_c, 0, 43, 0
2, 84499, Note_on_c, 0, 50, 75
2, 84973, Note_off_c, 0, 50, 0
2, 85004, Note_on_c, 0, 55, 76
2, 85478, Note_off_c, 0, 55, 0
2, 85509, Note_on_c, 0, 43, 75
2, 85985, Note_off_c, 0, 43, 0
2, 86020, Note_on_c, 0, 55, 80
2, 86531, Note_off_c, 0, 55, 0
2, 86562, Note_on_c, 0, 43, 75
2, 87039, Note_off_c, 0, 43, 0
2, 87070, Note_on_c, 0, 50, 76
2, 87544, Note_off_c, 0, 50, 0
2, 87575, Note_on_c, 0, 55, 75
2, 88054, Note_off_c, 0, 55, 0
2, 88085, Note_on_c, 0, 43, 78
2, 88564, Note_off_c, 0, 43, 0
2, 88595, Note_on_c, 0, 50, 75
2, 89069, Note_off_c, 0, 50, 0
2, 89100, Note_on_c, 0, 43, 76
2, 89574, Note_off_c, 0, 43, 0
2, 89605, Note_on_c, 0, 55, 75
2, 90081, Note_off_c, 0, 55, 0
2, 90111, Note_off_c, 0, 91, 0
2, 90111, Note_off_c, 0, 79, 0
2, 90111, Note_off_c, 0, 83, 0
2, 90111, Note_off_c, 0, 86, 0
2, 90116, Note_on_c, 0, 72, 80
2, 90116, Note_on_c, 0, 60, 80
2, 90350, Note_off_c, 0, 60, 0
2, 90657, Note_off_c, 0, 72, 0
2, 90658, Note_on_c, 0, 72, 75
2, 90658, Note_on_c, 0, 48, 75
2, 90858, Note_off_c, 0, 48, 0
2, 91135, Note_off_c, 0, 72, 0
2, 91166, Note_on_c, 0, 74, 76
2, 91166, Note_on_c, 0, 60, 76
2, 91363, Note_off_c, 0, 60, 0
2, 91640, Note_off_c, 0, 74, 0
2, 91671, Note_on_c, 0, 76, 75
2, 92150, Note_off_c, 0, 76, 0
2, 92181, Note_on_c, 0, 71, 78
2, 92181, Note_on_c, 0, 59, 78
2, 92383, Note_off_c, 0, 59, 0
2, 92690, Note_off_c, 0, 71, 0
2, 92691, Note_on_c, 0, 71, 75
2, 92691, Note_on_c, 0, 47, 75
2, 92888, Note_off_c, 0, 47, 0
2, 93165, Note_off_c, 0, 71, 0
2, 93196, Note_on_c, 0, 72, 76
2, 93196, Note_on_c, 0, 59, 76
2, 93393, Note_off_c, 0, 59, 0
2, 93670, Note_off_c, 0, 72, 0
2, 93701, Note_on_c, 0, 74, 75
2, 94177, Note_off_c, 0, 74, 0
2, 94212, Note_on_c, 0, 69, 80
2, 94212, Note_on_c, 0, 57, 80
2, 94446, Note_off_c, 0, 57, 0
2, 94753, Note_off_c, 0, 69, 0
2, 94754, Note_on_c, 0, 69, 75
2, 94754, Note_on_c, 0, 45, 75
2, 94954, Note_off_c, 0, 45, 0
2, 95231, Note_off_c, 0, 69, 0
2, 95262, Note_on_c, 0, 71, 76
2, 95262, Note_on_c, 0, 57, 76
2, 95459, Note_off_c, 0, 57, 0
2, 95736, Note_off_c, 0, 71, 0
2, 95767, Note_on_c, 0, 72, 75
2, 95767, Note_on_c, 0, 45, 75
2, 96246, Note_off_c, 0, 72, 0
2, 96246, Note_off_c, 0, 45, 0
2, 96277, Note_on_c, 0, 67, 78
2, 96277, Note_on_c, 0, 55, 78
2, 96479, Note_off_c, 0, 55, 0
2, 96786, Note_off_c, 0, 67, 0
2, 96787, Note_on_c, 0, 67, 75
2, 96787, Note_on_c, 0, 43, 75
2, 96984, Note_off_c, 0, 43, 0
2, 97261, Note_off_c, 0, 67, 0
2, 97292, Note_on_c, 0, 69, 76
2, 97292, Note_on_c, 0, 55, 76
2, 97489, Note_off_c, 0, 55, 0
2, 97766, Note_off_c, 0, 69, 0
2, 97797, Note_on_c, 0, 71, 75
2, 97797, Note_on_c, 0, 43, 75
2, 97996, Note_off_c, 0, 43, 0
2, 98273, Note_off_c, 0, 71, 0
2, 98308, Note_on_c, 0, 72, 80
2, 98308, Note_on_c, 0, 60, 80
2, 98542, Note_off_c, 0, 60, 0
2, 98849, Note_off_c, 0, 72, 0
2, 98850, Note_on_c, 0, 72, 75
2, 98850, Note_on_c, 0, 48, 75
2, 99050, Note_off_c, 0, 48, 0
2, 99327, Note_off_c, 0, 72, 0
2, 99358, Note_on_c, 0, 74, 76
2, 99358, Note_on_c, 0, 60, 76
2, 99555, Note_off_c, 0, 60, 0
2, 99832, Note_off_c, 0, 74, 0
2, 99863, Note_on_c, 0, 76, 75
2, 100342, Note_off_c, 0, 76, 0
2, 100373, Note_on_c, 0, 71, 78
2, 100373, Note_on_c, 0, 59, 78
2, 100575, Note_off_c, 0, 59, 0
2, 100882, Note_off_c, 0, 71, 0
2, 100883, Note_on_c, 0, 71, 75
2, 100883, Note_on_c, 0, 47, 75
2, 101080, Note_off_c, 0, 47, 0
2, 101357, Note_off_c, 0, 71, 0
2, 101388, Note_on_c, 0, 72, 76
2, 101388, Note_on_c, 0, 59, 76
2, 101585, Note_off_c, 0, 59, 0
2, 101862, Note_off_c, 0, 72, 0
2, 101893, Note_on_c, 0, 74, 75
2, 102399, Note_off_c, 0, 74, 0
2, 102404, Note_on_c, 0, 74, 80
2, 102404, Note_on_c, 0, 50, 80
2, 102638, Note_off_c, 0, 50, 0
2, 102945, Note_off_c, 0, 74, 0
2, 102946, Note_on_c, 0, 74, 75
2, 102946, Note_on_c, 0, 38, 74
2, 103146, Note_off_c, 0, 38, 0
2, 103423, Note_off_c, 0, 74, 0
2, 103454, Note_on_c, 0, 76, 76
2, 103454, Note_on_c, 0, 50, 76
2, 103651, Note_off_c, 0, 50, 0
2, 103928, Note_off_c, 0, 76, 0
2, 103959, Note_on_c, 0, 78, 75
2, 103959, Note_on_c, 0, 38, 74
2, 104161, Note_off_c, 0, 38, 0
2, 104438, Note_off_c, 0, 78, 0
2, 104469, Note_on_c, 0, 76, 78
2, 104469, Note_on_c, 0, 52, 78
2, 104671, Note_off_c, 0, 52, 0
2, 104978, Note_off_c, 0, 76, 0
2, 104979, Note_on_c, 0, 76, 75
2, 104979, Note_on_c, 0, 40, 74
2, 105176, Note_off_c, 0, 40, 0
2, 105453, Note_off_c, 0, 76, 0
2, 105484, Note_on_c, 0, 78, 76
2, 105484, Note_on_c, 0, 52, 76
2, 105681, Note_off_c, 0, 52, 0
2, 105958, Note_off_c, 0, 78, 0
2, 105989, Note_on_c, 0, 79, 75
2, 105989, Note_on_c, 0, 40, 74
2, 106188, Note_off_c, 0, 40, 0
2, 106465, Note_off_c, 0, 79, 0
2, 106500, Note_on_c, 0, 76, 80
2, 106500, Note_on_c, 0, 55, 72
2, 106500, Note_on_c, 0, 60, 72
2, 106500, Note_on_c, 0, 64, 82
2, 106734, Note_off_c, 0, 55, 0
2, 106734, Note_off_c, 0, 60, 0
2, 106734, Note_off_c, 0, 64, 0
2, 107041, Note_off_c, 0, 76, 0
2, 107042, Note_on_c, 0, 76, 75
2, 107042, Note_on_c, 0, 55, 67
2, 107042, Note_on_c, 0, 60, 67
2, 107042, Note_on_c, 0, 64, 77
2, 107242, Note_off_c, 0, 55, 0
2, 107242, Note_off_c, 0, 60, 0
2, 107242, Note_off_c, 0, 64, 0
2, 107519, Note_off_c, 0, 76, 0
2, 107550, Note_on_c, 0, 78, 76
2, 107550, Note_on_c, 0, 55, 68
2, 107550, Note_on_c, 0, 60, 68
2, 107550, Note_on_c, 0, 64, 78
2, 107717, Note_off_c, 0, 60, 0
2, 107747, Note_off_c, 0, 55, 0
2, 107747, Note_off_c, 0, 64, 0
2, 108024, Note_off_c, 0, 78, 0
2, 108055, Note_on_c, 0, 79, 75
2, 108055, Note_on_c, 0, 52, 75
2, 108534, Note_off_c, 0, 79, 0
2, 108534, Note_off_c, 0, 52, 0
2, 108565, Note_on_c, 0, 74, 78
2, 108565, Note_on_c, 0, 55, 70
2, 108565, Note_on_c, 0, 59, 70
2, 108565, Note_on_c, 0, 62, 80
2, 108767, Note_off_c, 0, 55, 0
2, 108767, Note_off_c, 0, 59, 0
2, 108767, Note_off_c, 0, 62, 0
2, 109074, Note_off_c, 0, 74, 0
2, 109075, Note_on_c, 0, 74, 75
2, 109075, Note_on_c, 0, 55, 67
2, 109075, Note_on_c, 0, 59, 67
2, 109075, Note_on_c, 0, 62, 77
2, 109272, Note_off_c, 0, 55, 0
2, 109272, Note_off_c, 0, 59, 0
2, 109272, Note_off_c, 0, 62, 0
2, 109549, Note_off_c, 0, 74, 0
2, 109580, Note_on_c, 0, 78, 76
2, 109580, Note_on_c, 0, 55, 68
2, 109580, Note_on_c, 0, 59, 68
2, 109580, Note_on_c, 0, 62, 78
2, 109747, Note_off_c, 0, 59, 0
2, 109777, Note_off_c, 0, 55, 0
2, 109777, Note_off_c, 0, 62, 0
2, 110054, Note_off_c, 0, 78, 0
2, 110085, Note_on_c, 0, 79, 75
2, 110085, Note_on_c, 0, 50, 75
2, 110561, Note_off_c, 0, 79, 0
2, 110561, Note_off_c, 0, 50, 0
2, 110596, Note_on_c, 0, 72, 80
2, 110596, Note_on_c, 0, 52, 72
2, 110596, Note_on_c, 0, 55, 72
2, 110596, Note_on_c, 0, 60, 82
2, 110830, Note_off_c, 0, 52, 0
2, 110830, Note_off_c, 0, 55, 0
2, 110830, Note_off_c, 0, 60, 0
2, 111137, Note_off_c, 0, 72, 0
2, 111138, Note_on_c, 0, 72, 75
2, 111138, Note_on_c, 0, 52, 67
2, 111138, Note_on_c, 0, 55, 67
2, 111138, Note_on_c, 0, 60, 77
2, 111338, Note_off_c, 0, 52, 0
2, 111338, Note_off_c, 0, 55, 0
2, 111338, Note_off_c, 0, 60, 0
2, 111615, Note_off_c, 0, 72, 0
2, 111646, Note_on_c, 0, 78, 76
2, 111646, Note_on_c, 0, 52, 68
2, 111646, Note_on_c, 0, 55, 68
2, 111646, Note_on_c, 0, 60, 78
2, 111813, Note_off_c, 0, 55, 0
2, 111843, Note_off_c, 0, 52, 0
2, 111843, Note_off_c, 0, 60, 0
2, 112120, Note_off_c, 0, 78, 0
2, 112151, Note_on_c, 0, 79, 75
2, 112151, Note_on_c, 0, 48, 75
2, 112630, Note_off_c, 0, 79, 0
2, 112630, Note_off_c, 0, 48, 0
2, 112661, Note_on_c, 0, 71, 78
2, 112661, Note_on_c, 0, 50, 70
2, 112661, Note_on_c, 0, 55, 70
2, 112661, Note_on_c, 0, 59, 80
2, 112863, Note_off_c, 0, 50, 0
2, 112863, Note_off_c, 0, 55, 0
2, 112863, Note_off_c, 0, 59, 0
2, 113170, Note_off_c, 0, 71, 0
2, 113171, Note_on_c, 0, 71, 75
2, 113171, Note_on_c, 0, 50, 67
2, 113171, Note_on_c, 0, 55, 67
2, 113171, Note_on_c, 0, 59, 77
2, 113368, Note_off_c, 0, 50, 0
2, 113368, Note_off_c, 0, 55, 0
2, 113368, Note_off_c, 0, 59, 0
2, 113645, Note_off_c, 0, 71, 0
2, 113676, Note_on_c, 0, 78, 76
2, 113676, Note_on_c, 0, 50, 68
2, 113676, Note_on_c, 0, 55, 68
2, 113676, Note_on_c, 0, 59, 78
2, 113843, Note_off_c, 0, 55, 0
2, 113873, Note_off_c, 0, 50, 0
2, 113873, Note_off_c, 0, 59, 0
2, 114150, Note_off_c, 0, 78, 0
2, 114181, Note_on_c, 0, 79, 75
2, 114181, Note_on_c, 0, 47, 75
2, 114657, Note_off_c, 0, 79, 0
2, 114657, Note_off_c, 0, 47, 0
2, 114692, Note_on_c, 0, 69, 80
2, 114692, Note_on_c, 0, 49, 72
2, 114692, Note_on_c, 0, 52, 72
2, 114692, Note_on_c, 0, 57, 82
2, 114926, Note_off_c, 0, 49, 0
2, 114926, Note_off_c, 0, 52, 0
2, 114926, Note_off_c, 0, 57, 0
2, 115233, Note_off_c, 0, 69, 0
2, 115234, Note_on_c, 0, 69, 75
2, 115234, Note_on_c, 0, 49, 67
2, 115234, Note_on_c, 0, 52, 67
2, 115234, Note_on_c, 0, 57, 77
2, 115434, Note_off_c, 0, 49, 0
2, 115434, Note_off_c, 0, 52, 0
2, 115434, Note_off_c, 0, 57, 0
2, 115711, Note_off_c, 0, 69, 0
2, 115742, Note_on_c, 0, 71, 76
2, 115742, Note_on_c, 0, 49, 68
2, 115742, Note_on_c, 0, 52, 68
2, 115742, Note_on_c, 0, 57, 78
2, 115909, Note_off_c, 0, 52, 0
2, 115939, Note_off_c, 0, 49, 0
2, 115939, Note_off_c, 0, 57, 0
2, 116216, Note_off_c, 0, 71, 0
2, 116247, Note_on_c, 0, 73, 75
2, 116247, Note_on_c, 0, 45, 75
2, 116726, Note_off_c, 0, 73, 0
2, 116726, Note_off_c, 0, 45, 0
2, 116757, Note_on_c, 0, 69, 78
2, 116757, Note_on_c, 0, 49, 70
2, 116757, Note_on_c, 0, 52, 70
2, 116757, Note_on_c, 0, 57, 80
2, 116959, Note_off_c, 0, 49, 0
2, 116959, Note_off_c, 0, 52, 0
2, 116959, Note_off_c, 0, 57, 0
2, 117266, Note_off_c, 0, 69, 0
2, 117267, Note_on_c, 0, 69, 75
2, 117267, Note_on_c, 0, 49, 67
2, 117267, Note_on_c, 0, 52, 67
2, 117267, Note_on_c, 0, 57, 77
2, 117464, Note_off_c, 0, 49, 0
2, 117464, Note_off_c, 0, 52, 0
2, 117464, Note_off_c, 0, 57, 0
2, 117741, Note_off_c, 0, 69, 0
2, 117772, Note_on_c, 0, 71, 76
2, 117772, Note_on_c, 0, 49, 68
2, 117772, Note_on_c, 0, 52, 68
2, 117772, Note_on_c, 0, 57, 78
2, 117939, Note_off_c, 0, 52, 0
2, 117969, Note_off_c, 0, 49, 0
2, 117969, Note_off_c, 0, 57, 0
2, 118246, Note_off_c, 0, 71, 0
2, 118277, Note_on_c, 0, 73, 75
2, 118277, Note_on_c, 0, 45, 75
2, 118753, Note_off_c, 0, 73, 0
2, 118753, Note_off_c, 0, 45, 0
2, 118788, Note_on_c, 0, 74, 80
2, 118788, Note_on_c, 0, 54, 72
2, 118788, Note_on_c, 0, 57, 72
2, 118788, Note_on_c, 0, 62, 82
2, 119022, Note_off_c, 0, 54, 0
2, 119022, Note_off_c, 0, 57, 0
2, 119022, Note_off_c, 0, 62, 0
2, 119329, Note_off_c, 0, 74, 0
2, 119330, Note_on_c, 0, 74, 75
2, 119330, Note_on_c, 0, 54, 67
2, 119330, Note_on_c, 0, 57, 67
2, 119330, Note_on_c, 0, 62, 77
2, 119530, Note_off_c, 0, 54, 0
2, 119530, Note_off_c, 0, 57, 0
2, 119530, Note_off_c, 0, 62, 0
2, 119807, Note_off_c, 0, 74, 0
2, 119838, Note_on_c, 0, 76, 76
2, 119838, Note_on_c, 0, 54, 68
2, 119838, Note_on_c, 0, 57, 68
2, 119838, Note_on_c, 0, 62, 78
2, 120005, Note_off_c, 0, 57, 0
2, 120035, Note_off_c, 0, 54, 0
2, 120035, Note_off_c, 0, 62, 0
2, 120312, Note_off_c, 0, 76, 0
2, 120343, Note_on_c, 0, 78, 75
2, 120343, Note_on_c, 0, 50, 75
2, 120822, Note_off_c, 0, 78, 0
2, 120822, Note_off_c, 0, 50, 0
2, 120853, Note_on_c, 0, 74, 78
2, 120853, Note_on_c, 0, 54, 70
2, 120853, Note_on_c, 0, 57, 70
2, 120853, Note_on_c, 0, 62, 80
2, 121055, Note_off_c, 0, 54, 0
2, 121055, Note_off_c, 0, 57, 0
2, 121055, Note_off_c, 0, 62, 0
2, 121362, Note_off_c, 0, 74, 0
2, 121363, Note_on_c, 0, 74, 75
2, 121363, Note_on_c, 0, 54, 67
2, 121363, Note_on_c, 0, 57, 67
2, 121363, Note_on_c, 0, 62, 77
2, 121560, Note_off_c, 0, 54, 0
2, 121560, Note_off_c, 0, 57, 0
2, 121560, Note_off_c, 0, 62, 0
2, 121837, Note_off_c, 0, 74, 0
2, 121868, Note_on_c, 0, 81, 76
2, 121868, Note_on_c, 0, 54, 68
2, 121868, Note_on_c, 0, 57, 68
2, 121868, Note_on_c, 0, 62, 78
2, 122035, Note_off_c, 0, 57, 0
2, 122065, Note_off_c, 0, 54, 0
2, 122065, Note_off_c, 0, 62, 0
2, 122342, Note_off_c, 0, 81, 0
2, 122373, Note_on_c, 0, 83, 75
2, 122373, Note_on_c, 0, 50, 75
2, 122849, Note_off_c, 0, 83, 0
2, 122849, Note_off_c, 0, 50, 0
2, 122884, Note_on_c, 0, 72, 80
2, 122884, Note_on_c, 0, 84, 80
2, 122884, Note_on_c, 0, 52, 72
2, 122884, Note_on_c, 0, 55, 72
2, 122884, Note_on_c, 0, 60, 86
2, 123395, Note_off_c, 0, 52, 0
2, 123395, Note_off_c, 0, 55, 0
2, 123425, Note_off_c, 0, 72, 0
2, 123425, Note_off_c, 0, 60, 0
2, 123426, Note_on_c, 0, 72, 75
2, 123426, Note_on_c, 0, 48, 75
2, 123903, Note_off_c, 0, 72, 0
2, 123903, Note_off_c, 0, 48, 0
2, 123934, Note_on_c, 0, 74, 76
2, 123934, Note_on_c, 0, 52, 68
2, 123934, Note_on_c, 0, 55, 68
2, 123934, Note_on_c, 0, 60, 82
2, 124408, Note_off_c, 0, 74, 0
2, 124408, Note_off_c, 0, 52, 0
2, 124408, Note_off_c, 0, 55, 0
2, 124438, Note_off_c, 0, 60, 0
2, 124439, Note_on_c, 0, 76, 75
2, 124439, Note_on_c, 0, 48, 75
2, 124918, Note_off_c, 0, 76, 0
2, 124918, Note_off_c, 0, 48, 0
2, 124948, Note_off_c, 0, 84, 0
2, 124949, Note_on_c, 0, 71, 78
2, 124949, Note_on_c, 0, 83, 78
2, 124949, Note_on_c, 0, 50, 70
2, 124949, Note_on_c, 0, 55, 70
2, 124949, Note_on_c, 0, 59, 84
2, 125428, Note_off_c, 0, 50, 0
2, 125428, Note_off_c, 0, 55, 0
2, 125458, Note_off_c, 0, 71, 0
2, 125458, Note_off_c, 0, 59, 0
2, 125459, Note_on_c, 0, 71, 75
2, 125459, Note_on_c, 0, 47, 75
2, 125933, Note_off_c, 0, 71, 0
2, 125933, Note_off_c, 0, 47, 0
2, 125964, Note_on_c, 0, 72, 76
2, 125964, Note_on_c, 0, 50, 68
2, 125964, Note_on_c, 0, 55, 68
2, 125964, Note_on_c, 0, 59, 82
2, 126438, Note_off_c, 0, 72, 0
2, 126438, Note_off_c, 0, 50, 0
2, 126438, Note_off_c, 0, 55, 0
2, 126468, Note_off_c, 0, 59, 0
2, 126469, Note_on_c, 0, 74, 75
2, 126469, Note_on_c, 0, 47, 75
2, 126945, Note_off_c, 0, 74, 0
2, 126945, Note_off_c, 0, 47, 0
2, 126975, Note_off_c, 0, 83, 0
2, 126980, Note_on_c, 0, 69, 80
2, 126980, Note_on_c, 0, 81, 80
2, 126980, Note_on_c, 0, 50, 72
2, 126980, Note_on_c, 0, 54, 72
2, 126980, Note_on_c, 0, 57, 86
2, 127491, Note_off_c, 0, 50, 0
2, 127491, Note_off_c, 0, 54, 0
2, 127521, Note_off_c, 0, 69, 0
2, 127521, Note_off_c, 0, 57, 0
2, 127522, Note_on_c, 0, 69, 75
2, 127522, Note_on_c, 0, 45, 75
2, 127999, Note_off_c, 0, 69, 0
2, 127999, Note_off_c, 0, 45, 0
2, 128030, Note_on_c, 0, 71, 76
2, 128030, Note_on_c, 0, 50, 68
2, 128030, Note_on_c, 0, 54, 68
2, 128030, Note_on_c, 0, 57, 82
2, 128504, Note_off_c, 0, 71, 0
2, 128504, Note_off_c, 0, 50, 0
2, 128504, Note_off_c, 0, 54, 0
2, 128534, Note_off_c, 0, 57, 0
2, 128535, Note_on_c, 0, 72, 75
2, 128535, Note_on_c, 0, 45, 75
2, 129014, Note_off_c, 0, 72, 0
2, 129014, Note_off_c, 0, 45, 0
2, 129044, Note_off_c, 0, 81, 0
2, 129045, Note_on_c, 0, 67, 78
2, 129045, Note_on_c, 0, 79, 78
2, 129045, Note_on_c, 0, 47, 70
2, 129045, Note_on_c, 0, 50, 70
2, 129045, Note_on_c, 0, 55, 84
2, 129524, Note_off_c, 0, 47, 0
2, 129524, Note_off_c, 0, 50, 0
2, 129554, Note_off_c, 0, 67, 0
2, 129554, Note_off_c, 0, 55, 0
2, 129555, Note_on_c, 0, 67, 75
2, 129555, Note_on_c, 0, 43, 75
2, 130029, Note_off_c, 0, 67, 0
2, 130029, Note_off_c, 0, 43, 0
2, 130060, Note_on_c, 0, 69, 76
2, 130060, Note_on_c, 0, 47, 68
2, 130060, Note_on_c, 0, 50, 68
2, 130060, Note_on_c, 0, 55, 82
2, 130534, Note_off_c, 0, 69, 0
2, 130534, Note_off_c, 0, 47, 0
2, 130534, Note_off_c, 0, 50, 0
2, 130564, Note_off_c, 0, 55, 0
2, 130565, Note_on_c, 0, 71, 75
2, 130565, Note_on_c, 0, 43, 75
2, 131041, Note_off_c, 0, 71, 0
2, 131041, Note_off_c, 0, 43, 0
2, 131071, Note_off_c, 0, 79, 0
2, 131076, Note_on_c, 0, 72, 80
2, 131076, Note_on_c, 0, 84, 80
2, 131076, Note_on_c, 0, 52, 72
2, 131076, Note_on_c, 0, 55, 72
2, 131076, Note_on_c, 0, 60, 86
2, 131587, Note_off_c, 0, 52, 0
2, 131587, Note_off_c, 0, 55, 0
2, 131617, Note_off_c, 0, 72, 0
2, 131617, Note_off_c, 0, 60, 0
2, 131618, Note_on_c, 0, 72, 75
2, 131618, Note_on_c, 0, 48, 75
2, 132095, Note_off_c, 0, 72, 0
2, 132095, Note_off_c, 0, 48, 0
2, 132126, Note_on_c, 0, 74, 76
2, 132126, Note_on_c, 0, 52, 68
2, 132126, Note_on_c, 0, 55, 68
2, 132126, Note_on_c, 0, 60, 82
2, 132600, Note_off_c, 0, 74, 0
2, 132600, Note_off_c, 0, 52, 0
2, 132600, Note_off_c, 0, 55, 0
2, 132630, Note_off_c, 0, 60, 0
2, 132631, Note_on_c, 0, 76, 75
2, 132631, Note_on_c, 0, 48, 75
2, 133110, Note_off_c, 0, 76, 0
2, 133110, Note_off_c, 0, 48, 0
2, 133140, Note_off_c, 0, 84, 0
2, 133141, Note_on_c, 0, 71, 78
2, 133141, Note_on_c, 0, 83, 78
2, 133141, Note_on_c, 0, 50, 70
2, 133141, Note_on_c, 0, 55, 70
2, 133141, Note_on_c, 0, 59, 84
2, 133620, Note_off_c, 0, 50, 0
2, 133620, Note_off_c, 0, 55, 0
2, 133650, Note_off_c, 0, 71, 0
2, 133650, Note_off_c, 0, 59, 0
2, 133651, Note_on_c, 0, 71, 75
2, 133651, Note_on_c, 0, 47, 75
2, 134125, Note_off_c, 0, 71, 0
2, 134125, Note_off_c, 0, 47, 0
2, 134156, Note_on_c, 0, 72, 76
2, 134156, Note_on_c, 0, 50, 68
2, 134156, Note_on_c, 0, 55, 68
2, 134156, Note_on_c, 0, 59, 82
2, 134630, Note_off_c, 0, 72, 0
2, 134630, Note_off_c, 0, 50, 0
2, 134630, Note_off_c, 0, 55, 0
2, 134660, Note_off_c, 0, 59, 0
2, 134661, Note_on_c, 0, 74, 75
2, 134661, Note_on_c, 0, 47, 75
2, 135137, Note_off_c, 0, 47, 0
2, 135167, Note_off_c, 0, 74, 0
2, 135167, Note_off_c, 0, 83, 0
2, 135172, Note_on_c, 0, 74, 80
2, 135172, Note_on_c, 0, 86, 80
2, 135172, Note_on_c, 0, 54, 72
2, 135172, Note_on_c, 0, 57, 72
2, 135172, Note_on_c, 0, 62, 86
2, 135683, Note_off_c, 0, 54, 0
2, 135683, Note_off_c, 0, 57, 0
2, 135713, Note_off_c, 0, 74, 0
2, 135713, Note_off_c, 0, 62, 0
2, 135714, Note_on_c, 0, 74, 75
2, 135714, Note_on_c, 0, 50, 75
2, 136191, Note_off_c, 0, 74, 0
2, 136191, Note_off_c, 0, 50, 0
2, 136222, Note_on_c, 0, 76, 76
2, 136222, Note_on_c, 0, 54, 68
2, 136222, Note_on_c, 0, 57, 68
2, 136222, Note_on_c, 0, 62, 82
2, 136696, Note_off_c, 0, 76, 0
2, 136696, Note_off_c, 0, 54, 0
2, 136696, Note_off_c, 0, 57, 0
2, 136726, Note_off_c, 0, 62, 0
2, 136727, Note_on_c, 0, 78, 75
2, 136727, Note_on_c, 0, 50, 75
2, 137206, Note_off_c, 0, 78, 0
2, 137206, Note_off_c, 0, 50, 0
2, 137236, Note_off_c, 0, 86, 0
2, 137237, Note_on_c, 0, 76, 78
2, 137237, Note_on_c, 0, 88, 78
2, 137237, Note_on_c, 0, 55, 70
2, 137237, Note_on_c, 0, 59, 70
2, 137237, Note_on_c, 0, 64, 84
2, 137716, Note_off_c, 0, 55, 0
2, 137716, Note_off_c, 0, 59, 0
2, 137746, Note_off_c, 0, 76, 0
2, 137746, Note_off_c, 0, 64, 0
2, 137747, Note_on_c, 0, 76, 75
2, 137747, Note_on_c, 0, 52, 75
2, 138221, Note_off_c, 0, 76, 0
2, 138221, Note_off_c, 0, 52, 0
2, 138252, Note_on_c, 0, 78, 76
2, 138252, Note_on_c, 0, 55, 68
2, 138252, Note_on_c, 0, 59, 68
2, 138252, Note_on_c, 0, 64, 82
2, 138726, Note_off_c, 0, 78, 0
2, 138726, Note_off_c, 0, 55, 0
2, 138726, Note_off_c, 0, 59, 0
2, 138756, Note_off_c, 0, 64, 0
2, 138757, Note_on_c, 0, 79, 75
2, 138757, Note_on_c, 0, 52, 75
2, 139233, Note_off_c, 0, 79, 0
2, 139233, Note_off_c, 0, 52, 0
2, 139263, Note_off_c, 0, 88, 0
2, 139268, Note_on_c, 0, 76, 80
2, 139268, Note_on_c, 0, 55, 72
2, 139268, Note_on_c, 0, 60, 72
2, 139268, Note_on_c, 0, 64, 86
2, 139779, Note_off_c, 0, 55, 0
2, 139779, Note_off_c, 0, 60, 0
2, 139809, Note_off_c, 0, 76, 0
2, 139809, Note_off_c, 0, 64, 0
2, 139810, Note_on_c, 0, 76, 75
2, 139810, Note_on_c, 0, 52, 75
2, 140287, Note_off_c, 0, 76, 0
2, 140287, Note_off_c, 0, 52, 0
2, 140318, Note_on_c, 0, 78, 76
2, 140318, Note_on_c, 0, 55, 68
2, 140318, Note_on_c, 0, 60, 68
2, 140318, Note_on_c, 0, 64, 82
2, 140792, Note_off_c, 0, 78, 0
2, 140792, Note_off_c, 0, 55, 0
2, 140792, Note_off_c, 0, 60, 0
2, 140822, Note_off_c, 0, 64, 0
2, 140823, Note_on_c, 0, 79, 75
2, 140823, Note_on_c, 0, 52, 75
2, 141302, Note_off_c, 0, 79, 0
2, 141302, Note_off_c, 0, 52, 0
2, 141333, Note_on_c, 0, 74, 78
2, 141333, Note_on_c, 0, 55, 70
2, 141333, Note_on_c, 0, 59, 70
2, 141333, Note_on_c, 0, 62, 84
2, 141812, Note_off_c, 0, 55, 0
2, 141812, Note_off_c, 0, 59, 0
2, 141842, Note_off_c, 0, 74, 0
2, 141842, Note_off_c, 0, 62, 0
2, 141843, Note_on_c, 0, 74, 75
2, 141843, Note_on_c, 0, 50, 75
2, 142317, Note_off_c, 0, 74, 0
2, 142317, Note_off_c, 0, 50, 0
2, 142348, Note_on_c, 0, 78, 76
2, 142348, Note_on_c, 0, 55, 68
2, 142348, Note_on_c, 0, 59, 68
2, 142348, Note_on_c, 0, 62, 82
2, 142822, Note_off_c, 0, 78, 0
2, 142822, Note_off_c, 0, 55, 0
2, 142822, Note_off_c, 0, 59, 0
2, 142852, Note_off_c, 0, 62, 0
2, 142853, Note_on_c, 0, 79, 75
2, 142853, Note_on_c, 0, 50, 75
2, 143329, Note_off_c, 0, 79, 0
2, 143329, Note_off_c, 0, 50, 0
2, 143364, Note_on_c, 0, 72, 80
2, 143364, Note_on_c, 0, 52, 72
2, 143364, Note_on_c, 0, 55, 72
2, 143364, Note_on_c, 0, 60, 86
2, 143875, Note_off_c, 0, 52, 0
2, 143875, Note_off_c, 0, 55, 0
2, 143905, Note_off_c, 0, 72, 0
2, 143905, Note_off_c, 0, 60, 0
2, 143906, Note_on_c, 0, 72, 75
2, 143906, Note_on_c, 0, 48, 75
2, 144383, Note_off_c, 0, 72, 0
2, 144383, Note_off_c, 0, 48, 0
2, 144414, Note_on_c, 0, 78, 76
2, 144414, Note_on_c, 0, 52, 68
2, 144414, Note_on_c, 0, 55, 68
2, 144414, Note_on_c, 0, 60, 82
2, 144888, Note_off_c, 0, 78, 0
2, 144888, Note_off_c, 0, 52, 0
2, 144888, Note_off_c, 0, 55, 0
2, 144918, Note_off_c, 0, 60, 0
2, 144919, Note_on_c, 0, 79, 75
2, 144919, Note_on_c, 0, 48, 75
2, 145398, Note_off_c, 0, 79, 0
2, 145398, Note_off_c, 0, 48, 0
2, 145429, Note_on_c, 0, 71, 78
2, 145429, Note_on_c, 0, 50, 70
2, 145429, Note_on_c, 0, 55, 70
2, 145429, Note_on_c, 0, 59, 84
2, 145908, Note_off_c, 0, 50, 0
2, 145908, Note_off_c, 0, 55, 0
2, 145938, Note_off_c, 0, 71, 0
2, 145938, Note_off_c, 0, 59, 0
2, 145939, Note_on_c, 0, 71, 75
2, 145939, Note_on_c, 0, 47, 75
2, 146413, Note_off_c, 0, 71, 0
2, 146413, Note_off_c, 0, 47, 0
2, 146444, Note_on_c, 0, 78, 76
2, 146444, Note_on_c, 0, 50, 68
2, 146444, Note_on_c, 0, 55, 68
2, 146444, Note_on_c, 0, 59, 82
2, 146918, Note_off_c, 0, 78, 0
2, 146918, Note_off_c, 0, 50, 0
2, 146918, Note_off_c, 0, 55, 0
2, 146948, Note_off_c, 0, 59, 0
2, 146949, Note_on_c, 0, 79, 75
2, 146949, Note_on_c, 0, 47, 75
2, 147425, Note_off_c, 0, 79, 0
2, 147425, Note_off_c, 0, 47, 0
2, 147460, Note_on_c, 0, 69, 80
2, 147460, Note_on_c, 0, 49, 72
2, 147460, Note_on_c, 0, 52, 72
2, 147460, Note_on_c, 0, 57, 86
2, 147971, Note_off_c, 0, 49, 0
2, 147971, Note_off_c, 0, 52, 0
2, 148001, Note_off_c, 0, 69, 0
2, 148001, Note_off_c, 0, 57, 0
2, 148002, Note_on_c, 0, 69, 75
2, 148002, Note_on_c, 0, 45, 75
2, 148479, Note_off_c, 0, 69, 0
2, 148479, Note_off_c, 0, 45, 0
2, 148510, Note_on_c, 0, 71, 76
2, 148510, Note_on_c, 0, 49, 68
2, 148510, Note_on_c, 0, 52, 68
2, 148510, Note_on_c, 0, 57, 82
2, 148984, Note_off_c, 0, 71, 0
2, 148984, Note_off_c, 0, 49, 0
2, 148984, Note_off_c, 0, 52, 0
2, 149014, Note_off_c, 0, 57, 0
2, 149015, Note_on_c, 0, 73, 75
2, 149015, Note_on_c, 0, 45, 75
2, 149494, Note_off_c, 0, 73, 0
2, 149494, Note_off_c, 0, 45, 0
2, 149525, Note_on_c, 0, 69, 78
2, 149525, Note_on_c, 0, 49, 70
2, 149525, Note_on_c, 0, 52, 70
2, 149525, Note_on_c, 0, 57, 84
2, 150004, Note_off_c, 0, 49, 0
2, 150004, Note_off_c, 0, 52, 0
2, 150034, Note_off_c, 0, 69, 0
2, 150034, Note_off_c, 0, 57, 0
2, 150035, Note_on_c, 0, 69, 75
2, 150035, Note_on_c, 0, 45, 75
2, 150509, Note_off_c, 0, 69, 0
2, 150509, Note_off_c, 0, 45, 0
2, 150540, Note_on_c, 0, 71, 76
2, 150540, Note_on_c, 0, 49, 68
2, 150540, Note_on_c, 0, 52, 68
2, 150540, Note_on_c, 0, 57, 82
2, 151014, Note_off_c, 0, 71, 0
2, 151014, Note_off_c, 0, 49, 0
2, 151014, Note_off_c, 0, 52, 0
2, 151044, Note_off_c, 0, 57, 0
2, 151045, Note_on_c, 0, 73, 75
2, 151045, Note_on_c, 0, 45, 75
2, 151521, Note_off_c, 0, 73, 0
2, 151521, Note_off_c, 0, 45, 0
2, 151556, Note_on_c, 0, 74, 80
2, 151556, Note_on_c, 0, 50, 72
2, 151556, Note_on_c, 0, 54, 72
2, 151556, Note_on_c, 0, 57, 86
2, 152067, Note_off_c, 0, 50, 0
2, 152067, Note_off_c, 0, 54, 0
2, 152097, Note_off_c, 0, 74, 0
2, 152097, Note_off_c, 0, 57, 0
2, 152098, Note_on_c, 0, 74, 75
2, 152098, Note_on_c, 0, 45, 75
2, 152575, Note_off_c, 0, 45, 0
2, 152605, Note_off_c, 0, 74, 0
2, 152606, Note_on_c, 0, 74, 76
2, 152606, Note_on_c, 0, 50, 68
2, 152606, Note_on_c, 0, 54, 68
2, 152606, Note_on_c, 0, 57, 82
2, 153080, Note_off_c, 0, 50, 0
2, 153080, Note_off_c, 0, 54, 0
2, 153110, Note_off_c, 0, 74, 0
2, 153110, Note_off_c, 0, 57, 0
2, 153111, Note_on_c, 0, 74, 75
2, 153111, Note_on_c, 0, 45, 75
2, 153590, Note_off_c, 0, 45, 0
2, 153620, Note_off_c, 0, 74, 0
2, 153621, Note_on_c, 0, 74, 78
2, 153621, Note_on_c, 0, 50, 70
2, 153621, Note_on_c, 0, 54, 70
2, 153621, Note_on_c, 0, 57, 84
2, 154100, Note_off_c, 0, 50, 0
2, 154100, Note_off_c, 0, 54, 0
2, 154130, Note_off_c, 0, 74, 0
2, 154130, Note_off_c, 0, 57, 0
2, 154131, Note_on_c, 0, 74, 75
2, 154131, Note_on_c, 0, 45, 75
2, 154605, Note_off_c, 0, 45, 0
2, 154635, Note_off_c, 0, 74, 0
2, 154636, Note_on_c, 0, 74, 76
2, 154636, Note_on_c, 0, 50, 68
2, 154636, Note_on_c, 0, 54, 68
2, 154636, Note_on_c, 0, 57, 82
2, 155110, Note_off_c, 0, 50, 0
2, 155110, Note_off_c, 0, 54, 0
2, 155140, Note_off_c, 0, 74, 0
2, 155140, Note_off_c, 0, 57, 0
2, 155141, Note_on_c, 0, 74, 75
2, 155141, Note_on_c, 0, 45, 75
2, 155617, Note_off_c, 0, 45, 0
2, 155647, Note_off_c, 0, 74, 0
2, 155652, Note_on_c, 0, 74, 80
2, 155652, Note_on_c, 0, 50, 72
2, 155652, Note_on_c, 0, 54, 72
2, 155652, Note_on_c, 0, 57, 86
2, 156163, Note_off_c, 0, 50, 0
2, 156163, Note_off_c, 0, 54, 0
2, 156193, Note_off_c, 0, 74, 0
2, 156193, Note_off_c, 0, 57, 0
2, 156194, Note_on_c, 0, 74, 75
2, 156194, Note_on_c, 0, 81, 75
2, 156194, Note_on_c, 0, 45, 75
2, 156671, Note_off_c, 0, 81, 0
2, 156671, Note_off_c, 0, 45, 0
2, 156701, Note_off_c, 0, 74, 0
2, 156702, Note_on_c, 0, 74, 76
2, 156702, Note_on_c, 0, 83, 76
2, 156702, Note_on_c, 0, 50, 68
2, 156702, Note_on_c, 0, 54, 68
2, 156702, Note_on_c, 0, 57, 82
2, 157176, Note_off_c, 0, 83, 0
2, 157176, Note_off_c, 0, 50, 0
2, 157176, Note_off_c, 0, 54, 0
2, 157206, Note_off_c, 0, 74, 0
2, 157206, Note_off_c, 0, 57, 0
2, 157207, Note_on_c, 0, 74, 75
2, 157207, Note_on_c, 0, 84, 75
2, 157207, Note_on_c, 0, 45, 75
2, 157686, Note_off_c, 0, 84, 0
2, 157686, Note_off_c, 0, 45, 0
2, 157716, Note_off_c, 0, 74, 0
2, 157717, Note_on_c, 0, 74, 97
2, 157717, Note_on_c, 0, 86, 97
2, 157717, Note_on_c, 0, 50, 89
2, 157717, Note_on_c, 0, 62, 103
2, 158196, Note_off_c, 0, 74, 0
2, 158196, Note_off_c, 0, 86, 0
2, 158196, Note_off_c, 0, 50, 0
2, 158196, Note_off_c, 0, 62, 0
2, 158426, Control_c, 0, 7, 102
2, 158426, Control_c, 0, 7, 110
2, 159684, Control_c, 0, 7, 102
2, 159748, Note_on_c, 0, 43, 80
2, 160183, Note_off_c, 0, 43, 0
2, 161303, Note_on_c, 0, 43, 75
2, 161782, Note_off_c, 0, 43, 0
2, 162828, Note_on_c, 0, 43, 76
2, 163225, Note_off_c, 0, 43, 0
2, 163844, Note_on_c, 0, 43, 80
2, 164279, Note_off_c, 0, 43, 0
2, 165399, Note_on_c, 0, 43, 75
2, 165878, Note_off_c, 0, 43, 0
2, 166850, Control_c, 0, 7, 110
2, 166924, Note_on_c, 0, 67, 76
2, 166924, Note_on_c, 0, 43, 76
2, 167165, Note_off_c, 0, 67, 0
2, 167181, Note_on_c, 0, 69, 75
2, 167321, Note_off_c, 0, 43, 0
2, 167413, Note_off_c, 0, 69, 0
2, 167429, Note_on_c, 0, 71, 75
2, 167661, Note_off_c, 0, 71, 0
2, 167677, Note_on_c, 0, 73, 75
2, 167920, Note_off_c, 0, 73, 0
2, 167940, Note_on_c, 0, 74, 80
2, 167940, Note_on_c, 0, 43, 80
2, 168375, Note_off_c, 0, 43, 0
2, 168451, Note_off_c, 0, 74, 0
2, 168482, Note_on_c, 0, 73, 75
2, 168959, Note_off_c, 0, 73, 0
2, 168990, Note_on_c, 0, 71, 76
2, 169464, Note_off_c, 0, 71, 0
2, 169495, Note_on_c, 0, 74, 75
2, 169495, Note_on_c, 0, 43, 75
2, 169974, Note_off_c, 0, 74, 0
2, 169974, Note_off_c, 0, 43, 0
2, 170005, Note_on_c, 0, 73, 78
2, 170484, Note_off_c, 0, 73, 0
2, 170515, Note_on_c, 0, 71, 75
2, 170989, Note_off_c, 0, 71, 0
2, 171020, Note_on_c, 0, 76, 76
2, 171020, Note_on_c, 0, 43, 76
2, 171417, Note_off_c, 0, 43, 0
2, 171494, Note_off_c, 0, 76, 0
2, 171525, Note_on_c, 0, 73, 75
2, 172001, Note_off_c, 0, 73, 0
2, 172036, Note_on_c, 0, 74, 80
2, 172036, Note_on_c, 0, 43, 80
2, 172471, Note_off_c, 0, 43, 0
2, 172547, Note_off_c, 0, 74, 0
2, 172578, Note_on_c, 0, 73, 75
2, 173055, Note_off_c, 0, 73, 0
2, 173086, Note_on_c, 0, 71, 76
2, 173560, Note_off_c, 0, 71, 0
2, 173591, Note_on_c, 0, 74, 75
2, 173591, Note_on_c, 0, 43, 75
2, 174070, Note_off_c, 0, 74, 0
2, 174070, Note_off_c, 0, 43, 0
2, 174101, Note_on_c, 0, 73, 78
2, 174297, Control_c, 0, 7, 102
2, 174580, Note_off_c, 0, 73, 0
2, 174611, Note_on_c, 0, 71, 75
2, 175085, Note_off_c, 0, 71, 0
2, 175116, Note_on_c, 0, 73, 76
2, 175116, Note_on_c, 0, 43, 76
2, 175513, Note_off_c, 0, 43, 0
2, 175590, Note_off_c, 0, 73, 0
2, 175621, Note_on_c, 0, 74, 75
2, 175962, Note_on_c, 0, 60, 67
2, 176047, Note_on_c, 0, 63, 67
2, 176097, Note_off_c, 0, 74, 0
2, 176132, Note_on_c, 0, 72, 80
2, 176132, Note_on_c, 0, 68, 81
2, 176132, Note_on_c, 0, 44, 80
2, 177686, Note_off_c, 0, 44, 0
2, 177687, Note_on_c, 0, 44, 75
2, 178196, Note_off_c, 0, 72, 0
2, 178197, Note_on_c, 0, 70, 78
2, 178676, Note_off_c, 0, 70, 0
2, 178707, Note_on_c, 0, 72, 75
2, 179181, Note_off_c, 0, 72, 0
2, 179211, Note_off_c, 0, 44, 0
2, 179212, Note_on_c, 0, 75, 76
2, 179212, Note_on_c, 0, 44, 76
2, 180058, Note_on_c, 0, 65, 67
2, 180143, Note_on_c, 0, 68, 67
2, 180223, Note_off_c, 0, 75, 0
2, 180223, Note_off_c, 0, 60, 0
2, 180223, Note_off_c, 0, 63, 0
2, 180223, Note_off_c, 0, 68, 0
2, 180223, Note_off_c, 0, 44, 0
2, 180228, Note_on_c, 0, 77, 80
2, 180228, Note_on_c, 0, 73, 81
2, 180228, Note_on_c, 0, 49, 80
2, 180663, Note_off_c, 0, 77, 0
2, 181278, Note_on_c, 0, 68, 76
2, 181782, Note_off_c, 0, 49, 0
2, 181783, Note_on_c, 0, 49, 75
2, 183307, Note_off_c, 0, 68, 0
2, 183307, Note_off_c, 0, 49, 0
2, 183308, Note_on_c, 0, 70, 76
2, 183308, Note_on_c, 0, 49, 76
2, 183782, Note_off_c, 0, 70, 0
2, 183813, Note_on_c, 0, 72, 75
2, 184154, Note_on_c, 0, 58, 67
2, 184239, Note_on_c, 0, 63, 67
2, 184289, Note_off_c, 0, 72, 0
2, 184319, Note_off_c, 0, 65, 0
2, 184319, Note_off_c, 0, 68, 0
2, 184319, Note_off_c, 0, 73, 0
2, 184319, Note_off_c, 0, 49, 0
2, 184324, Note_on_c, 0, 70, 80
2, 184324, Note_on_c, 0, 67, 81
2, 184324, Note_on_c, 0, 51, 80
2, 185878, Note_off_c, 0, 70, 0
2, 185878, Note_off_c, 0, 51, 0
2, 185879, Note_on_c, 0, 68, 75
2, 185879, Note_on_c, 0, 51, 75
2, 186358, Note_off_c, 0, 68, 0
2, 186389, Note_on_c, 0, 70, 78
2, 186868, Note_off_c, 0, 70, 0
2, 186899, Note_on_c, 0, 72, 75
2, 187373, Note_off_c, 0, 72, 0
2, 187403, Note_off_c, 0, 51, 0
2, 187404, Note_on_c, 0, 67, 76
2, 187404, Note_on_c, 0, 51, 76
2, 188250, Note_on_c, 0, 56, 67
2, 188335, Note_on_c, 0, 60, 67
2, 188415, Note_off_c, 0, 67, 0
2, 188415, Note_off_c, 0, 58, 0
2, 188415, Note_off_c, 0, 63, 0
2, 188415, Note_off_c, 0, 67, 0
2, 188415, Note_off_c, 0, 51, 0
2, 188420, Note_on_c, 0, 68, 80
2, 188420, Note_on_c, 0, 65, 81
2, 188420, Note_on_c, 0, 53, 80
2, 188961, Note_off_c, 0, 68, 0
2, 188962, Note_on_c, 0, 68, 75
2, 189439, Note_off_c, 0, 68, 0
2, 189470, Note_on_c, 0, 70, 76
2, 189944, Note_off_c, 0, 70, 0
2, 189974, Note_off_c, 0, 53, 0
2, 189975, Note_on_c, 0, 72, 75
2, 189975, Note_on_c, 0, 53, 75
2, 190454, Note_off_c, 0, 72, 0
2, 190485, Note_on_c, 0, 73, 78
2, 190964, Note_off_c, 0, 73, 0
2, 190995, Note_on_c, 0, 72, 75
2, 191469, Note_off_c, 0, 72, 0
2, 191499, Note_off_c, 0, 53, 0
2, 191500, Note_on_c, 0, 70, 76
2, 191500, Note_on_c, 0, 53, 76
2, 191974, Note_off_c, 0, 70, 0
2, 192005, Note_on_c, 0, 68, 75
2, 192346, Note_on_c, 0, 60, 67
2, 192431, Note_on_c, 0, 63, 67
2, 192481, Note_off_c, 0, 68, 0
2, 192511, Note_off_c, 0, 56, 0
2, 192511, Note_off_c, 0, 60, 0
2, 192511, Note_off_c, 0, 65, 0
2, 192511, Note_off_c, 0, 53, 0
2, 192516, Note_on_c, 0, 72, 80
2, 192516, Note_on_c, 0, 68, 81
2, 192516, Note_on_c, 0, 44, 80
2, 194070, Note_off_c, 0, 44, 0
2, 194071, Note_on_c, 0, 44, 75
2, 194580, Note_off_c, 0, 72, 0
2, 194581, Note_on_c, 0, 70, 78
2, 195060, Note_off_c, 0, 70, 0
2, 195091, Note_on_c, 0, 72, 75
2, 195565, Note_off_c, 0, 72, 0
2, 195595, Note_off_c, 0, 44, 0
2, 195596, Note_on_c, 0, 75, 76
2, 195596, Note_on_c, 0, 44, 76
2, 196442, Note_on_c, 0, 61, 67
2, 196527, Note_on_c, 0, 65, 67
2, 196607, Note_off_c, 0, 75, 0
2, 196607, Note_off_c, 0, 60, 0
2, 196607, Note_off_c, 0, 63, 0
2, 196607, Note_off_c, 0, 68, 0
2, 196607, Note_off_c, 0, 44, 0
2, 196612, Note_on_c, 0, 73, 75
2, 196612, Note_on_c, 0, 68, 81
2, 196612, Note_on_c, 0, 49, 80
2, 198166, Note_off_c, 0, 49, 0
2, 198167, Note_on_c, 0, 49, 75
2, 199691, Note_off_c, 0, 73, 0
2, 199691, Note_off_c, 0, 49, 0
2, 199692, Note_on_c, 0, 72, 76
2, 199692, Note_on_c, 0, 49, 76
2, 200166, Note_off_c, 0, 72, 0
2, 200197, Note_on_c, 0, 73, 75
2, 200538, Note_on_c, 0, 63, 67
2, 200623, Note_on_c, 0, 67, 67
2, 200673, Note_off_c, 0, 73, 0
2, 200703, Note_off_c, 0, 61, 0
2, 200703, Note_off_c, 0, 65, 0
2, 200703, Note_off_c, 0, 68, 0
2, 200703, Note_off_c, 0, 49, 0
2, 200708, Note_on_c, 0, 75, 80
2, 200708, Note_on_c, 0, 70, 81
2, 200708, Note_on_c, 0, 51, 80
2, 202262, Note_off_c, 0, 75, 0
2, 202262, Note_off_c, 0, 51, 0
2, 202263, Note_on_c, 0, 70, 75
2, 202263, Note_on_c, 0, 51, 75
2, 202742, Note_off_c, 0, 70, 0
2, 202773, Note_on_c, 0, 75, 78
2, 203252, Note_off_c, 0, 75, 0
2, 203283, Note_on_c, 0, 77, 75
2, 203757, Note_off_c, 0, 77, 0
2, 203787, Note_off_c, 0, 51, 0
2, 203788, Note_on_c, 0, 79, 76
2, 203788, Note_on_c, 0, 51, 76
2, 204634, Note_on_c, 0, 68, 72
2, 204719, Note_on_c, 0, 72, 72
2, 204799, Note_off_c, 0, 79, 0
2, 204799, Note_off_c, 0, 63, 0
2, 204799, Note_off_c, 0, 67, 0
2, 204799, Note_off_c, 0, 70, 0
2, 204799, Note_off_c, 0, 51, 0
2, 204804, Note_on_c, 0, 80, 75
2, 204804, Note_on_c, 0, 75, 86
2, 204804, Note_on_c, 0, 44, 80
2, 205853, Note_off_c, 0, 68, 0
2, 205853, Note_off_c, 0, 72, 0
2, 205853, Note_off_c, 0, 75, 0
2, 205854, Note_on_c, 0, 70, 76
2, 206328, Note_off_c, 0, 70, 0
2, 206358, Note_off_c, 0, 44, 0
2, 206359, Note_on_c, 0, 72, 75
2, 206359, Note_on_c, 0, 44, 75
2, 206838, Note_off_c, 0, 72, 0
2, 206869, Note_on_c, 0, 73, 78
2, 207348, Note_off_c, 0, 73, 0
2, 207379, Note_on_c, 0, 75, 75
2, 207853, Note_off_c, 0, 75, 0
2, 207883, Note_off_c, 0, 44, 0
2, 207884, Note_on_c, 0, 77, 76
2, 207884, Note_on_c, 0, 44, 76
2, 208358, Note_off_c, 0, 77, 0
2, 208389, Note_on_c, 0, 75, 75
2, 208865, Note_off_c, 0, 75, 0
2, 208895, Note_off_c, 0, 44, 0
2, 208900, Note_on_c, 0, 44, 80
2, 210454, Note_off_c, 0, 44, 0
2, 210455, Note_on_c, 0, 44, 75
2, 211979, Note_off_c, 0, 44, 0
2, 211980, Note_on_c, 0, 44, 76
2, 212991, Note_off_c, 0, 80, 0
2, 212991, Note_off_c, 0, 44, 0
2, 212996, Note_on_c, 0, 72, 80
2, 212996, Note_on_c, 0, 60, 67
2, 212996, Note_on_c, 0, 64, 67
2, 212996, Note_on_c, 0, 67, 81
2, 212996, Note_on_c, 0, 48, 80
2, 214045, Note_off_c, 0, 48, 0
2, 214046, Note_on_c, 0, 48, 64
2, 214550, Note_off_c, 0, 48, 0
2, 214551, Note_on_c, 0, 48, 63
2, 215540, Note_off_c, 0, 72, 0
2, 215570, Note_off_c, 0, 48, 0
2, 215571, Note_on_c, 0, 67, 75
2, 215571, Note_on_c, 0, 48, 63
2, 216045, Note_off_c, 0, 67, 0
2, 216075, Note_off_c, 0, 48, 0
2, 216076, Note_on_c, 0, 71, 76
2, 216076, Note_on_c, 0, 48, 64
2, 216550, Note_off_c, 0, 71, 0
2, 216580, Note_off_c, 0, 48, 0
2, 216581, Note_on_c, 0, 72, 75
2, 216581, Note_on_c, 0, 48, 63
2, 217087, Note_off_c, 0, 72, 0
2, 217087, Note_off_c, 0, 60, 0
2, 217087, Note_off_c, 0, 64, 0
2, 217087, Note_off_c, 0, 67, 0
2, 217092, Note_on_c, 0, 72, 80
2, 217092, Note_on_c, 0, 60, 67
2, 217092, Note_on_c, 0, 65, 67
2, 217092, Note_on_c, 0, 69, 81
2, 217092, Note_on_c, 0, 53, 80
2, 217118, Note_off_c, 0, 48, 0
2, 218141, Note_off_c, 0, 53, 0
2, 218142, Note_on_c, 0, 53, 64
2, 218646, Note_off_c, 0, 53, 0
2, 218647, Note_on_c, 0, 53, 63
2, 219636, Note_off_c, 0, 72, 0
2, 219666, Note_off_c, 0, 53, 0
2, 219667, Note_on_c, 0, 67, 75
2, 219667, Note_on_c, 0, 53, 63
2, 220141, Note_off_c, 0, 67, 0
2, 220171, Note_off_c, 0, 53, 0
2, 220172, Note_on_c, 0, 71, 76
2, 220172, Note_on_c, 0, 53, 64
2, 220646, Note_off_c, 0, 71, 0
2, 220676, Note_off_c, 0, 53, 0
2, 220677, Note_on_c, 0, 72, 75
2, 220677, Note_on_c, 0, 53, 63
2, 221183, Note_off_c, 0, 72, 0
2, 221183, Note_off_c, 0, 60, 0
2, 221183, Note_off_c, 0, 65, 0
2, 221183, Note_off_c, 0, 69, 0
2, 221188, Note_on_c, 0, 72, 80
2, 221188, Note_on_c, 0, 62, 72
2, 221188, Note_on_c, 0, 67, 86
2, 221188, Note_on_c, 0, 55, 80
2, 221214, Note_off_c, 0, 53, 0
2, 222237, Note_off_c, 0, 55, 0
2, 222238, Note_on_c, 0, 55, 64
2, 222742, Note_off_c, 0, 55, 0
2, 222743, Note_on_c, 0, 55, 63
2, 223252, Note_off_c, 0, 72, 0
2, 223252, Note_off_c, 0, 62, 0
2, 223252, Note_off_c, 0, 67, 0
2, 223253, Note_on_c, 0, 74, 78
2, 223253, Note_on_c, 0, 62, 70
2, 223253, Note_on_c, 0, 67, 70
2, 223253, Note_on_c, 0, 71, 84
2, 223253, Note_on_c, 0, 50, 78
2, 223283, Note_off_c, 0, 55, 0
2, 224267, Note_off_c, 0, 74, 0
2, 224267, Note_off_c, 0, 50, 0
2, 224268, Note_on_c, 0, 71, 76
2, 224268, Note_on_c, 0, 50, 64
2, 224742, Note_off_c, 0, 71, 0
2, 224772, Note_off_c, 0, 50, 0
2, 224773, Note_on_c, 0, 72, 75
2, 224773, Note_on_c, 0, 50, 63
2, 225279, Note_off_c, 0, 62, 0
2, 225279, Note_off_c, 0, 67, 0
2, 225279, Note_off_c, 0, 71, 0
2, 225284, Note_on_c, 0, 60, 67
2, 225284, Note_on_c, 0, 64, 67
2, 225284, Note_on_c, 0, 69, 81
2, 225284, Note_on_c, 0, 57, 80
2, 225310, Note_off_c, 0, 50, 0
2, 226333, Note_off_c, 0, 72, 0
2, 226333, Note_off_c, 0, 57, 0
2, 226334, Note_on_c, 0, 74, 76
2, 226334, Note_on_c, 0, 57, 64
2, 226808, Note_off_c, 0, 74, 0
2, 226838, Note_off_c, 0, 57, 0
2, 226839, Note_on_c, 0, 76, 75
2, 226839, Note_on_c, 0, 57, 63
2, 227318, Note_off_c, 0, 76, 0
2, 227349, Note_on_c, 0, 77, 78
2, 227828, Note_off_c, 0, 77, 0
2, 227858, Note_off_c, 0, 57, 0
2, 227859, Note_on_c, 0, 76, 75
2, 227859, Note_on_c, 0, 57, 63
2, 228333, Note_off_c, 0, 76, 0
2, 228363, Note_off_c, 0, 60, 0
2, 228363, Note_off_c, 0, 64, 0
2, 228363, Note_off_c, 0, 69, 0
2, 228363, Note_off_c, 0, 57, 0
2, 228364, Note_on_c, 0, 74, 76
2, 228364, Note_on_c, 0, 71, 76
2, 228364, Note_on_c, 0, 57, 64
2, 228838, Note_off_c, 0, 74, 0
2, 228868, Note_off_c, 0, 57, 0
2, 228869, Note_on_c, 0, 72, 75
2, 228869, Note_on_c, 0, 57, 63
2, 229375, Note_off_c, 0, 72, 0
2, 229375, Note_off_c, 0, 71, 0
2, 229380, Note_on_c, 0, 72, 75
2, 229380, Note_on_c, 0, 60, 67
2, 229380, Note_on_c, 0, 64, 67
2, 229380, Note_on_c, 0, 67, 81
2, 229380, Note_on_c, 0, 48, 80
2, 229406, Note_off_c, 0, 57, 0
2, 230429, Note_off_c, 0, 48, 0
2, 230430, Note_on_c, 0, 48, 64
2, 230934, Note_off_c, 0, 48, 0
2, 230935, Note_on_c, 0, 48, 63
2, 231954, Note_off_c, 0, 48, 0
2, 231955, Note_on_c, 0, 48, 63
2, 232459, Note_off_c, 0, 72, 0
2, 232459, Note_off_c, 0, 48, 0
2, 232460, Note_on_c, 0, 71, 76
2, 232460, Note_on_c, 0, 48, 64
2, 232934, Note_off_c, 0, 71, 0
2, 232964, Note_off_c, 0, 48, 0
2, 232965, Note_on_c, 0, 72, 75
2, 232965, Note_on_c, 0, 48, 63
2, 233471, Note_off_c, 0, 72, 0
2, 233471, Note_off_c, 0, 60, 0
2, 233471, Note_off_c, 0, 64, 0
2, 233471, Note_off_c, 0, 67, 0
2, 233476, Note_on_c, 0, 72, 75
2, 233476, Note_on_c, 0, 60, 67
2, 233476, Note_on_c, 0, 65, 67
2, 233476, Note_on_c, 0, 69, 81
2, 233476, Note_on_c, 0, 53, 80
2, 233502, Note_off_c, 0, 48, 0
2, 234525, Note_off_c, 0, 53, 0
2, 234526, Note_on_c, 0, 53, 64
2, 235030, Note_off_c, 0, 53, 0
2, 235031, Note_on_c, 0, 53, 63
2, 236050, Note_off_c, 0, 53, 0
2, 236051, Note_on_c, 0, 53, 63
2, 236555, Note_off_c, 0, 72, 0
2, 236555, Note_off_c, 0, 53, 0
2, 236556, Note_on_c, 0, 71, 76
2, 236556, Note_on_c, 0, 53, 64
2, 237030, Note_off_c, 0, 71, 0
2, 237060, Note_off_c, 0, 53, 0
2, 237061, Note_on_c, 0, 72, 75
2, 237061, Note_on_c, 0, 53, 63
2, 237567, Note_off_c, 0, 72, 0
2, 237567, Note_off_c, 0, 60, 0
2, 237567, Note_off_c, 0, 65, 0
2, 237567, Note_off_c, 0, 69, 0
2, 237572, Note_on_c, 0, 72, 80
2, 237572, Note_on_c, 0, 62, 72
2, 237572, Note_on_c, 0, 67, 86
2, 237572, Note_on_c, 0, 55, 80
2, 237598, Note_off_c, 0, 53, 0
2, 238621, Note_off_c, 0, 55, 0
2, 238622, Note_on_c, 0, 55, 64
2, 239126, Note_off_c, 0, 55, 0
2, 239127, Note_on_c, 0, 55, 63
2, 239636, Note_off_c, 0, 72, 0
2, 239636, Note_off_c, 0, 62, 0
2, 239636, Note_off_c, 0, 67, 0
2, 239637, Note_on_c, 0, 74, 78
2, 239637, Note_on_c, 0, 62, 70
2, 239637, Note_on_c, 0, 67, 70
2, 239637, Note_on_c, 0, 71, 84
2, 239637, Note_on_c, 0, 50, 78
2, 239667, Note_off_c, 0, 55, 0
2, 240651, Note_off_c, 0, 74, 0
2, 240651, Note_off_c, 0, 50, 0
2, 240652, Note_on_c, 0, 71, 76
2, 240652, Note_on_c, 0, 50, 64
2, 241126, Note_off_c, 0, 71, 0
2, 241156, Note_off_c, 0, 50, 0
2, 241157, Note_on_c, 0, 72, 75
2, 241157, Note_on_c, 0, 50, 63
2, 241663, Note_off_c, 0, 62, 0
2, 241663, Note_off_c, 0, 67, 0
2, 241663, Note_off_c, 0, 71, 0
2, 241668, Note_on_c, 0, 60, 67
2, 241668, Note_on_c, 0, 64, 67
2, 241668, Note_on_c, 0, 67, 81
2, 241668, Note_on_c, 0, 48, 80
2, 241694, Note_off_c, 0, 50, 0
2, 242717, Note_off_c, 0, 72, 0
2, 242717, Note_off_c, 0, 48, 0
2, 242718, Note_on_c, 0, 74, 76
2, 242718, Note_on_c, 0, 48, 64
2, 243192, Note_off_c, 0, 74, 0
2, 243222, Note_off_c, 0, 48, 0
2, 243223, Note_on_c, 0, 76, 75
2, 243223, Note_on_c, 0, 48, 63
2, 243702, Note_off_c, 0, 76, 0
2, 243733, Note_on_c, 0, 77, 78
2, 244212, Note_off_c, 0, 77, 0
2, 244242, Note_off_c, 0, 48, 0
2, 244243, Note_on_c, 0, 76, 75
2, 244243, Note_on_c, 0, 48, 63
2, 244717, Note_off_c, 0, 76, 0
2, 244747, Note_off_c, 0, 48, 0
2, 244748, Note_on_c, 0, 74, 76
2, 244748, Note_on_c, 0, 48, 64
2, 245222, Note_off_c, 0, 74, 0
2, 245252, Note_off_c, 0, 48, 0
2, 245253, Note_on_c, 0, 72, 75
2, 245253, Note_on_c, 0, 48, 63
2, 245729, Note_off_c, 0, 72, 0
2, 245759, Note_off_c, 0, 60, 0
2, 245759, Note_off_c, 0, 64, 0
2, 245759, Note_off_c, 0, 67, 0
2, 245759, Note_off_c, 0, 48, 0
2, 245764, Note_on_c, 0, 48, 80
2, 245977, Control_c, 0, 7, 110
2, 246813, Note_off_c, 0, 48, 0
2, 246814, Note_on_c, 0, 48, 64
2, 247318, Note_off_c, 0, 48, 0
2, 247319, Note_on_c, 0, 48, 63
2, 248338, Note_off_c, 0, 48, 0
2, 248339, Note_on_c, 0, 48, 63
2, 248843, Note_off_c, 0, 48, 0
2, 248844, Note_on_c, 0, 67, 68
2, 248844, Note_on_c, 0, 79, 82
2, 248844, Note_on_c, 0, 48, 64
2, 249348, Note_off_c, 0, 48, 0
2, 249349, Note_on_c, 0, 48, 63
2, 249855, Note_off_c, 0, 67, 0
2, 249855, Note_off_c, 0, 79, 0
2, 249855, Note_off_c, 0, 48, 0
2, 249860, Note_on_c, 0, 88, 80
2, 249860, Note_on_c, 0, 76, 67
2, 249860, Note_on_c, 0, 79, 67
2, 249860, Note_on_c, 0, 84, 81
2, 249860, Note_on_c, 0, 48, 72
2, 249860, Note_on_c, 0, 60, 86
2, 250909, Note_off_c, 0, 48, 0
2, 250909, Note_off_c, 0, 60, 0
2, 250910, Note_on_c, 0, 55, 76
2, 251384, Note_off_c, 0, 55, 0
2, 251415, Note_on_c, 0, 48, 67
2, 251415, Note_on_c, 0, 60, 77
2, 251924, Note_off_c, 0, 88, 0
2, 251925, Note_on_c, 0, 74, 70
2, 251925, Note_on_c, 0, 86, 84
2, 252404, Note_off_c, 0, 74, 0
2, 252404, Note_off_c, 0, 48, 0
2, 252434, Note_off_c, 0, 86, 0
2, 252434, Note_off_c, 0, 60, 0
2, 252435, Note_on_c, 0, 76, 67
2, 252435, Note_on_c, 0, 88, 81
2, 252435, Note_on_c, 0, 55, 75
2, 252909, Note_off_c, 0, 76, 0
2, 252909, Note_off_c, 0, 55, 0
2, 252939, Note_off_c, 0, 88, 0
2, 252940, Note_on_c, 0, 74, 68
2, 252940, Note_on_c, 0, 86, 82
2, 252940, Note_on_c, 0, 48, 68
2, 252940, Note_on_c, 0, 60, 82
2, 253414, Note_off_c, 0, 48, 0
2, 253444, Note_off_c, 0, 60, 0
2, 253445, Note_on_c, 0, 55, 75
2, 253921, Note_off_c, 0, 55, 0
2, 253951, Note_off_c, 0, 74, 0
2, 253951, Note_off_c, 0, 86, 0
2, 253951, Note_off_c, 0, 76, 0
2, 253951, Note_off_c, 0, 79, 0
2, 253951, Note_off_c, 0, 84, 0
2, 253956, Note_on_c, 0, 84, 75
2, 253956, Note_on_c, 0, 72, 67
2, 253956, Note_on_c, 0, 77, 67
2, 253956, Note_on_c, 0, 81, 81
2, 253956, Note_on_c, 0, 41, 72
2, 253956, Note_on_c, 0, 53, 86
2, 255005, Note_off_c, 0, 41, 0
2, 255005, Note_off_c, 0, 53, 0
2, 255006, Note_on_c, 0, 48, 76
2, 255480, Note_off_c, 0, 48, 0
2, 255511, Note_on_c, 0, 41, 67
2, 255511, Note_on_c, 0, 53, 77
2, 256500, Note_off_c, 0, 41, 0
2, 256530, Note_off_c, 0, 53, 0
2, 256531, Note_on_c, 0, 48, 75
2, 257005, Note_off_c, 0, 48, 0
2, 257035, Note_off_c, 0, 84, 0
2, 257036, Note_on_c, 0, 67, 68
2, 257036, Note_on_c, 0, 79, 82
2, 257036, Note_on_c, 0, 41, 68
2, 257036, Note_on_c, 0, 53, 82
2, 257510, Note_off_c, 0, 67, 0
2, 257510, Note_off_c, 0, 41, 0
2, 257540, Note_off_c, 0, 79, 0
2, 257540, Note_off_c, 0, 53, 0
2, 257541, Note_on_c, 0, 71, 67
2, 257541, Note_on_c, 0, 83, 81
2, 257541, Note_on_c, 0, 48, 75
2, 258017, Note_off_c, 0, 71, 0
2, 258017, Note_off_c, 0, 48, 0
2, 258047, Note_off_c, 0, 83, 0
2, 258047, Note_off_c, 0, 72, 0
2, 258047, Note_off_c, 0, 77, 0
2, 258047, Note_off_c, 0, 81, 0
2, 258052, Note_on_c, 0, 84, 80
2, 258052, Note_on_c, 0, 72, 72
2, 258052, Note_on_c, 0, 74, 72
2, 258052, Note_on_c, 0, 79, 86
2, 258052, Note_on_c, 0, 43, 72
2, 258052, Note_on_c, 0, 55, 86
2, 259101, Note_off_c, 0, 43, 0
2, 259101, Note_off_c, 0, 55, 0
2, 259102, Note_on_c, 0, 50, 76
2, 259576, Note_off_c, 0, 50, 0
2, 259606, Note_off_c, 0, 84, 0
2, 259607, Note_on_c, 0, 72, 67
2, 259607, Note_on_c, 0, 84, 81
2, 259607, Note_on_c, 0, 43, 67
2, 259607, Note_on_c, 0, 55, 77
2, 260086, Note_off_c, 0, 72, 0
2, 260116, Note_off_c, 0, 84, 0
2, 260116, Note_off_c, 0, 72, 0
2, 260116, Note_off_c, 0, 74, 0
2, 260116, Note_off_c, 0, 79, 0
2, 260117, Note_on_c, 0, 86, 78
2, 260117, Note_on_c, 0, 74, 70
2, 260117, Note_on_c, 0, 79, 70
2, 260117, Note_on_c, 0, 83, 84
2, 260596, Note_off_c, 0, 43, 0
2, 260626, Note_off_c, 0, 55, 0
2, 260627, Note_on_c, 0, 50, 75
2, 261101, Note_off_c, 0, 50, 0
2, 261131, Note_off_c, 0, 86, 0
2, 261132, Note_on_c, 0, 71, 68
2, 261132, Note_on_c, 0, 83, 82
2, 261132, Note_on_c, 0, 43, 68
2, 261132, Note_on_c, 0, 55, 82
2, 261606, Note_off_c, 0, 43, 0
2, 261636, Note_off_c, 0, 55, 0
2, 261637, Note_on_c, 0, 50, 75
2, 262113, Note_off_c, 0, 50, 0
2, 262143, Note_off_c, 0, 71, 0
2, 262143, Note_off_c, 0, 83, 0
2, 262143, Note_off_c, 0, 74, 0
2, 262143, Note_off_c, 0, 79, 0
2, 262143, Note_off_c, 0, 83, 0
2, 262148, Note_on_c, 0, 84, 80
2, 262148, Note_on_c, 0, 72, 67
2, 262148, Note_on_c, 0, 76, 67
2, 262148, Note_on_c, 0, 81, 81
2, 262148, Note_on_c, 0, 45, 72
2, 262148, Note_on_c, 0, 57, 86
2, 263197, Note_off_c, 0, 84, 0
2, 263197, Note_off_c, 0, 45, 0
2, 263197, Note_off_c, 0, 57, 0
2, 263198, Note_on_c, 0, 84, 76
2, 263198, Note_on_c, 0, 52, 76
2, 263672, Note_off_c, 0, 84, 0
2, 263672, Note_off_c, 0, 52, 0
2, 263703, Note_on_c, 0, 86, 75
2, 263703, Note_on_c, 0, 45, 67
2, 263703, Note_on_c, 0, 57, 77
2, 264182, Note_off_c, 0, 86, 0
2, 264213, Note_on_c, 0, 88, 78
2, 264692, Note_off_c, 0, 88, 0
2, 264692, Note_off_c, 0, 45, 0
2, 264722, Note_off_c, 0, 57, 0
2, 264723, Note_on_c, 0, 86, 75
2, 264723, Note_on_c, 0, 52, 75
2, 265197, Note_off_c, 0, 86, 0
2, 265197, Note_off_c, 0, 52, 0
2, 265228, Note_on_c, 0, 67, 68
2, 265228, Note_on_c, 0, 79, 82
2, 265228, Note_on_c, 0, 45, 68
2, 265228, Note_on_c, 0, 57, 82
2, 265702, Note_off_c, 0, 45, 0
2, 265732, Note_off_c, 0, 57, 0
2, 265733, Note_on_c, 0, 52, 75
2, 266209, Note_off_c, 0, 52, 0
2, 266239, Note_off_c, 0, 67, 0
2, 266239, Note_off_c, 0, 79, 0
2, 266239, Note_off_c, 0, 72, 0
2, 266239, Note_off_c, 0, 76, 0
2, 266239, Note_off_c, 0, 81, 0
2, 266244, Note_on_c, 0, 76, 80
2, 266244, Note_on_c, 0, 64, 67
2, 266244, Note_on_c, 0, 67, 67
2, 266244, Note_on_c, 0, 72, 81
2, 266244, Note_on_c, 0, 48, 72
2, 266244, Note_on_c, 0, 60, 86
2, 267293, Note_off_c, 0, 76, 0
2, 267293, Note_off_c, 0, 48, 0
2, 267293, Note_off_c, 0, 60, 0
2, 267294, Note_on_c, 0, 64, 68
2, 267294, Note_on_c, 0, 76, 82
2, 267294, Note_on_c, 0, 55, 76
2, 267768, Note_off_c, 0, 55, 0
2, 267799, Note_on_c, 0, 48, 67
2, 267799, Note_on_c, 0, 60, 77
2, 268308, Note_off_c, 0, 64, 0
2, 268308, Note_off_c, 0, 76, 0
2, 268309, Note_on_c, 0, 62, 70
2, 268309, Note_on_c, 0, 74, 84
2, 268788, Note_off_c, 0, 62, 0
2, 268788, Note_off_c, 0, 48, 0
2, 268818, Note_off_c, 0, 74, 0
2, 268818, Note_off_c, 0, 60, 0
2, 268819, Note_on_c, 0, 64, 67
2, 268819, Note_on_c, 0, 76, 81
2, 268819, Note_on_c, 0, 55, 75
2, 269293, Note_off_c, 0, 64, 0
2, 269293, Note_off_c, 0, 55, 0
2, 269323, Note_off_c, 0, 76, 0
2, 269324, Note_on_c, 0, 65, 68
2, 269324, Note_on_c, 0, 77, 82
2, 269324, Note_on_c, 0, 48, 68
2, 269324, Note_on_c, 0, 60, 82
2, 269798, Note_off_c, 0, 48, 0
2, 269828, Note_off_c, 0, 60, 0
2, 269829, Note_on_c, 0, 55, 75
2, 270305, Note_off_c, 0, 55, 0
2, 270335, Note_off_c, 0, 65, 0
2, 270335, Note_off_c, 0, 77, 0
2, 270335, Note_off_c, 0, 64, 0
2, 270335, Note_off_c, 0, 67, 0
2, 270335, Note_off_c, 0, 72, 0
2, 270340, Note_on_c, 0, 79, 75
2, 270340, Note_on_c, 0, 69, 67
2, 270340, Note_on_c, 0, 72, 67
2, 270340, Note_on_c, 0, 77, 81
2, 270340, Note_on_c, 0, 41, 72
2, 270340, Note_on_c, 0, 53, 86
2, 271389, Note_off_c, 0, 41, 0
2, 271389, Note_off_c, 0, 53, 0
2, 271390, Note_on_c, 0, 48, 76
2, 271864, Note_off_c, 0, 48, 0
2, 271895, Note_on_c, 0, 41, 67
2, 271895, Note_on_c, 0, 53, 77
2, 272884, Note_off_c, 0, 41, 0
2, 272914, Note_off_c, 0, 53, 0
2, 272915, Note_on_c, 0, 48, 75
2, 273389, Note_off_c, 0, 48, 0
2, 273419, Note_off_c, 0, 79, 0
2, 273420, Note_on_c, 0, 64, 68
2, 273420, Note_on_c, 0, 76, 82
2, 273420, Note_on_c, 0, 41, 68
2, 273420, Note_on_c, 0, 53, 82
2, 273894, Note_off_c, 0, 64, 0
2, 273894, Note_off_c, 0, 41, 0
2, 273924, Note_off_c, 0, 76, 0
2, 273924, Note_off_c, 0, 53, 0
2, 273925, Note_on_c, 0, 65, 67
2, 273925, Note_on_c, 0, 77, 81
2, 273925, Note_on_c, 0, 48, 75
2, 274401, Note_off_c, 0, 65, 0
2, 274401, Note_off_c, 0, 48, 0
2, 274431, Note_off_c, 0, 77, 0
2, 274431, Note_off_c, 0, 69, 0
2, 274431, Note_off_c, 0, 72, 0
2, 274431, Note_off_c, 0, 77, 0
2, 274436, Note_on_c, 0, 79, 75
2, 274436, Note_on_c, 0, 67, 67
2, 274436, Note_on_c, 0, 71, 67
2, 274436, Note_on_c, 0, 74, 81
2, 274436, Note_on_c, 0, 43, 72
2, 274436, Note_on_c, 0, 55, 86
2, 275485, Note_off_c, 0, 43, 0
2, 275485, Note_off_c, 0, 55, 0
2, 275486, Note_on_c, 0, 50, 76
2, 275960, Note_off_c, 0, 50, 0
2, 275991, Note_on_c, 0, 43, 67
2, 275991, Note_on_c, 0, 55, 77
2, 276980, Note_off_c, 0, 43, 0
2, 277010, Note_off_c, 0, 55, 0
2, 277011, Note_on_c, 0, 50, 75
2, 277485, Note_off_c, 0, 50, 0
2, 277516, Note_on_c, 0, 43, 68
2, 277516, Note_on_c, 0, 55, 82
2, 277990, Note_off_c, 0, 43, 0
2, 278020, Note_off_c, 0, 55, 0
2, 278021, Note_on_c, 0, 50, 75
2, 278497, Note_off_c, 0, 50, 0
2, 278527, Note_off_c, 0, 79, 0
2, 278527, Note_off_c, 0, 67, 0
2, 278527, Note_off_c, 0, 71, 0
2, 278527, Note_off_c, 0, 74, 0
2, 278532, Note_on_c, 0, 79, 80
2, 278532, Note_on_c, 0, 67, 72
2, 278532, Note_on_c, 0, 72, 72
2, 278532, Note_on_c, 0, 74, 86
2, 278532, Note_on_c, 0, 43, 72
2, 278532, Note_on_c, 0, 55, 86
2, 279581, Note_off_c, 0, 79, 0
2, 279581, Note_off_c, 0, 43, 0
2, 279581, Note_off_c, 0, 55, 0
2, 279582, Note_on_c, 0, 69, 68
2, 279582, Note_on_c, 0, 81, 82
2, 279582, Note_on_c, 0, 50, 76
2, 280056, Note_off_c, 0, 50, 0
2, 280087, Note_on_c, 0, 43, 67
2, 280087, Note_on_c, 0, 55, 77
2, 280596, Note_off_c, 0, 69, 0
2, 280596, Note_off_c, 0, 81, 0
2, 280596, Note_off_c, 0, 67, 0
2, 280596, Note_off_c, 0, 72, 0
2, 280596, Note_off_c, 0, 74, 0
2, 280597, Note_on_c, 0, 83, 78
2, 280597, Note_on_c, 0, 71, 70
2, 280597, Note_on_c, 0, 74, 70
2, 280597, Note_on_c, 0, 79, 84
2, 281076, Note_off_c, 0, 43, 0
2, 281106, Note_off_c, 0, 55, 0
2, 281107, Note_on_c, 0, 50, 75
2, 281581, Note_off_c, 0, 50, 0
2, 281612, Note_on_c, 0, 43, 68
2, 281612, Note_on_c, 0, 55, 82
2, 282086, Note_off_c, 0, 43, 0
2, 282116, Note_off_c, 0, 55, 0
2, 282117, Note_on_c, 0, 50, 75
2, 282593, Note_off_c, 0, 50, 0
2, 282623, Note_off_c, 0, 83, 0
2, 282623, Note_off_c, 0, 71, 0
2, 282623, Note_off_c, 0, 74, 0
2, 282623, Note_off_c, 0, 79, 0
2, 282628, Note_on_c, 0, 84, 75
2, 282628, Note_on_c, 0, 72, 72
2, 282628, Note_on_c, 0, 76, 72
2, 282628, Note_on_c, 0, 79, 86
2, 282628, Note_on_c, 0, 48, 72
2, 282628, Note_on_c, 0, 60, 86
2, 283677, Note_off_c, 0, 48, 0
2, 283677, Note_off_c, 0, 60, 0
2, 283678, Note_on_c, 0, 55, 76
2, 284152, Note_off_c, 0, 55, 0
2, 284183, Note_on_c, 0, 48, 67
2, 284183, Note_on_c, 0, 60, 81
2, 284662, Note_off_c, 0, 48, 0
2, 284692, Note_off_c, 0, 72, 0
2, 284692, Note_off_c, 0, 76, 0
2, 284692, Note_off_c, 0, 79, 0
2, 284692, Note_off_c, 0, 60, 0
2, 284693, Note_on_c, 0, 72, 70
2, 284693, Note_on_c, 0, 77, 70
2, 284693, Note_on_c, 0, 81, 84
2, 284693, Note_on_c, 0, 41, 70
2, 284693, Note_on_c, 0, 53, 84
2, 285707, Note_off_c, 0, 41, 0
2, 285707, Note_off_c, 0, 53, 0
2, 285708, Note_on_c, 0, 48, 76
2, 286182, Note_off_c, 0, 48, 0
2, 286213, Note_on_c, 0, 41, 67
2, 286213, Note_on_c, 0, 53, 81
2, 286689, Note_off_c, 0, 41, 0
2, 286719, Note_off_c, 0, 72, 0
2, 286719, Note_off_c, 0, 77, 0
2, 286719, Note_off_c, 0, 81, 0
2, 286719, Note_off_c, 0, 53, 0
2, 286724, Note_on_c, 0, 72, 67
2, 286724, Note_on_c, 0, 76, 67
2, 286724, Note_on_c, 0, 79, 81
2, 286724, Note_on_c, 0, 48, 72
2, 286724, Note_on_c, 0, 60, 86
2, 287773, Note_off_c, 0, 48, 0
2, 287773, Note_off_c, 0, 60, 0
2, 287774, Note_on_c, 0, 55, 76
2, 288248, Note_off_c, 0, 55, 0
2, 288279, Note_on_c, 0, 48, 67
2, 288279, Note_on_c, 0, 60, 77
2, 289268, Note_off_c, 0, 48, 0
2, 289298, Note_off_c, 0, 60, 0
2, 289299, Note_on_c, 0, 55, 75
2, 289773, Note_off_c, 0, 55, 0
2, 289804, Note_on_c, 0, 48, 68
2, 289804, Note_on_c, 0, 60, 82
2, 290278, Note_off_c, 0, 48, 0
2, 290308, Note_off_c, 0, 60, 0
2, 290309, Note_on_c, 0, 55, 75
2, 290785, Note_off_c, 0, 55, 0
2, 290815, Note_off_c, 0, 84, 0
2, 290815, Note_off_c, 0, 72, 0
2, 290815, Note_off_c, 0, 76, 0
2, 290815, Note_off_c, 0, 79, 0
2, 290820, Note_on_c, 0, 48, 72
2, 290820, Note_on_c, 0, 60, 86
2, 291255, Note_off_c, 0, 48, 0
2, 291255, Note_off_c, 0, 60, 0
2, 292057, Control_c, 0, 7, 102
2, 292057, End_track
0, 0, End_of_file
