0, 0, Header, 1, 9, 600
1, 0, Start_track
1, 0, Tempo, 483871
1, 12, Time_signature, 4, 2, 24, 8
1, 2412, Tempo, 483871
1, 2412, Time_signature, 4, 2, 24, 8
1, 2412, Key_signature, 0, "major"
1, 2412, Copyright_t, "Å"
1, 2412, Title_t, "\214"
1, 2412, End_track
2, 0, Start_track
2, 2412, Control_c, 0, 0, 0
2, 2412, Control_c, 0, 32, 0
2, 2412, Program_c, 0, 71
2, 2412, Title_t, "Ocean Eyes Synth"
2, 2412, Control_c, 0, 7, 127
2, 2712, Note_on_c, 0, 72, 80
2, 3289, Note_on_c, 0, 67, 91
2, 3312, Note_on_c, 0, 72, 0
2, 3612, Note_on_c, 0, 72, 97
2, 3674, Note_on_c, 0, 67, 0
2, 4083, Note_on_c, 0, 67, 101
2, 4096, Note_on_c, 0, 72, 0
2, 4519, Note_on_c, 0, 72, 110
2, 4543, Note_on_c, 0, 67, 0
2, 5077, Note_on_c, 0, 65, 102
2, 5090, Note_on_c, 0, 72, 0
2, 5562, Note_on_c, 0, 65, 0
2, 5662, Note_on_c, 0, 65, 106
2, 5897, Note_on_c, 0, 65, 0
2, 5997, Note_on_c, 0, 65, 106
2, 6370, Note_on_c, 0, 65, 0
2, 6469, Note_on_c, 0, 65, 108
2, 6941, Note_on_c, 0, 64, 109
2, 6954, Note_on_c, 0, 65, 0
2, 7526, Note_on_c, 0, 72, 97
2, 7551, Note_on_c, 0, 64, 0
2, 8109, Note_on_c, 0, 67, 94
2, 8159, Note_on_c, 0, 72, 0
2, 8431, Note_on_c, 0, 72, 85
2, 8507, Note_on_c, 0, 67, 0
2, 8904, Note_on_c, 0, 67, 95
2, 9052, Note_on_c, 0, 72, 0
2, 9363, Note_on_c, 0, 76, 85
2, 9401, Note_on_c, 0, 67, 0
2, 9971, Note_on_c, 0, 72, 88
2, 10021, Note_on_c, 0, 76, 0
2, 10494, Note_on_c, 0, 67, 77
2, 10556, Note_on_c, 0, 72, 0
2, 10792, Note_on_c, 0, 65, 94
2, 10842, Note_on_c, 0, 67, 0
2, 11190, Note_on_c, 0, 65, 0
2, 11301, Note_on_c, 0, 65, 101
2, 11736, Note_on_c, 0, 64, 79
2, 11810, Note_on_c, 0, 65, 0
2, 12332, Note_on_c, 0, 72, 75
2, 12394, Note_on_c, 0, 64, 0
2, 12916, Note_on_c, 0, 67, 64
2, 12953, Note_on_c, 0, 72, 0
2, 13239, Note_on_c, 0, 72, 99
2, 13301, Note_on_c, 0, 67, 0
2, 13698, Note_on_c, 0, 67, 79
2, 13748, Note_on_c, 0, 72, 0
2, 14134, Note_on_c, 0, 72, 98
2, 14171, Note_on_c, 0, 67, 0
2, 14681, Note_on_c, 0, 65, 82
2, 14730, Note_on_c, 0, 72, 0
2, 15177, Note_on_c, 0, 65, 0
2, 15277, Note_on_c, 0, 65, 106
2, 15487, Note_on_c, 0, 65, 0
2, 15599, Note_on_c, 0, 65, 102
2, 15909, Note_on_c, 0, 67, 109
2, 15971, Note_on_c, 0, 65, 0
2, 16232, Note_on_c, 0, 65, 109
2, 16269, Note_on_c, 0, 67, 0
2, 16529, Note_on_c, 0, 64, 108
2, 16579, Note_on_c, 0, 65, 0
2, 17151, Note_on_c, 0, 72, 92
2, 17187, Note_on_c, 0, 64, 0
2, 17685, Note_on_c, 0, 69, 86
2, 17697, Note_on_c, 0, 72, 0
2, 18019, Note_on_c, 0, 72, 93
2, 18071, Note_on_c, 0, 69, 0
2, 18381, Note_on_c, 0, 72, 0
2, 18492, Note_on_c, 0, 74, 88
2, 18816, Note_on_c, 0, 74, 0
2, 18940, Note_on_c, 0, 72, 97
2, 19362, Note_on_c, 0, 72, 0
2, 19536, Note_on_c, 0, 76, 95
2, 20061, Note_on_c, 0, 72, 85
2, 20086, Note_on_c, 0, 76, 0
2, 20408, Note_on_c, 0, 65, 99
2, 20484, Note_on_c, 0, 72, 0
2, 20806, Note_on_c, 0, 65, 0
2, 20892, Note_on_c, 0, 65, 111
2, 21365, Note_on_c, 0, 64, 111
2, 21439, Note_on_c, 0, 65, 0
2, 22073, Note_on_c, 0, 64, 0
2, 117912, Note_on_c, 0, 72, 101
2, 118489, Note_on_c, 0, 67, 101
2, 118512, Note_on_c, 0, 72, 0
2, 118812, Note_on_c, 0, 72, 101
2, 118874, Note_on_c, 0, 67, 0
2, 119283, Note_on_c, 0, 67, 101
2, 119296, Note_on_c, 0, 72, 0
2, 119719, Note_on_c, 0, 72, 101
2, 119743, Note_on_c, 0, 67, 0
2, 120277, Note_on_c, 0, 65, 101
2, 120290, Note_on_c, 0, 72, 0
2, 120762, Note_on_c, 0, 65, 0
2, 120862, Note_on_c, 0, 65, 101
2, 121097, Note_on_c, 0, 65, 0
2, 121197, Note_on_c, 0, 65, 101
2, 121570, Note_on_c, 0, 65, 0
2, 121669, Note_on_c, 0, 65, 101
2, 122141, Note_on_c, 0, 64, 101
2, 122154, Note_on_c, 0, 65, 0
2, 122726, Note_on_c, 0, 72, 101
2, 122751, Note_on_c, 0, 64, 0
2, 123309, Note_on_c, 0, 67, 101
2, 123359, Note_on_c, 0, 72, 0
2, 123631, Note_on_c, 0, 72, 101
2, 123707, Note_on_c, 0, 67, 0
2, 124104, Note_on_c, 0, 67, 101
2, 124252, Note_on_c, 0, 72, 0
2, 124563, Note_on_c, 0, 76, 101
2, 124601, Note_on_c, 0, 67, 0
2, 125171, Note_on_c, 0, 72, 101
2, 125221, Note_on_c, 0, 76, 0
2, 125694, Note_on_c, 0, 67, 101
2, 125756, Note_on_c, 0, 72, 0
2, 125992, Note_on_c, 0, 65, 101
2, 126042, Note_on_c, 0, 67, 0
2, 126390, Note_on_c, 0, 65, 0
2, 126501, Note_on_c, 0, 65, 101
2, 126936, Note_on_c, 0, 64, 101
2, 127010, Note_on_c, 0, 65, 0
2, 127532, Note_on_c, 0, 72, 101
2, 127594, Note_on_c, 0, 64, 0
2, 128116, Note_on_c, 0, 67, 101
2, 128153, Note_on_c, 0, 72, 0
2, 128439, Note_on_c, 0, 72, 101
2, 128501, Note_on_c, 0, 67, 0
2, 128898, Note_on_c, 0, 67, 101
2, 128948, Note_on_c, 0, 72, 0
2, 129334, Note_on_c, 0, 72, 101
2, 129371, Note_on_c, 0, 67, 0
2, 129881, Note_on_c, 0, 65, 101
2, 129930, Note_on_c, 0, 72, 0
2, 130377, Note_on_c, 0, 65, 0
2, 130477, Note_on_c, 0, 65, 101
2, 130687, Note_on_c, 0, 65, 0
2, 130799, Note_on_c, 0, 65, 101
2, 131109, Note_on_c, 0, 67, 101
2, 131171, Note_on_c, 0, 65, 0
2, 131432, Note_on_c, 0, 65, 101
2, 131469, Note_on_c, 0, 67, 0
2, 131729, Note_on_c, 0, 64, 101
2, 131779, Note_on_c, 0, 65, 0
2, 132351, Note_on_c, 0, 72, 101
2, 132387, Note_on_c, 0, 64, 0
2, 132885, Note_on_c, 0, 69, 101
2, 132897, Note_on_c, 0, 72, 0
2, 133219, Note_on_c, 0, 72, 101
2, 133271, Note_on_c, 0, 69, 0
2, 133581, Note_on_c, 0, 72, 0
2, 133692, Note_on_c, 0, 74, 101
2, 134016, Note_on_c, 0, 74, 0
2, 134140, Note_on_c, 0, 72, 101
2, 134562, Note_on_c, 0, 72, 0
2, 134736, Note_on_c, 0, 76, 101
2, 135261, Note_on_c, 0, 72, 101
2, 135286, Note_on_c, 0, 76, 0
2, 135608, Note_on_c, 0, 65, 101
2, 135684, Note_on_c, 0, 72, 0
2, 136006, Note_on_c, 0, 65, 0
2, 136092, Note_on_c, 0, 65, 101
2, 136565, Note_on_c, 0, 64, 101
2, 136639, Note_on_c, 0, 65, 0
2, 137273, Note_on_c, 0, 64, 0
2, 299999, Control_c, 0, 127, 0
2, 299999, End_track
3, 0, Start_track
3, 2412, Control_c, 1, 0, 0
3, 2412, Control_c, 1, 32, 0
3, 2412, Program_c, 1, 0
3, 2412, Title_t, "Piano"
3, 2412, Control_c, 1, 7, 127
3, 2412, Note_on_c, 1, 55, 80
3, 2412, Note_on_c, 1, 52, 80
3, 2412, Note_on_c, 1, 48, 80
3, 7212, Note_on_c, 1, 55, 0
3, 7212, Note_on_c, 1, 52, 0
3, 7212, Note_on_c, 1, 48, 0
3, 7212, Note_on_c, 1, 57, 80
3, 7212, Note_on_c, 1, 53, 80
3, 7212, Note_on_c, 1, 48, 80
3, 12012, Note_on_c, 1, 57, 0
3, 12012, Note_on_c, 1, 53, 0
3, 12012, Note_on_c, 1, 48, 0
3, 12012, Note_on_c, 1, 52, 80
3, 12012, Note_on_c, 1, 48, 80
3, 12012, Note_on_c, 1, 45, 80
3, 16812, Note_on_c, 1, 52, 0
3, 16812, Note_on_c, 1, 48, 0
3, 16812, Note_on_c, 1, 45, 0
3, 16812, Note_on_c, 1, 50, 80
3, 16812, Note_on_c, 1, 47, 80
3, 16812, Note_on_c, 1, 43, 80
3, 21612, Note_on_c, 1, 50, 0
3, 21612, Note_on_c, 1, 47, 0
3, 21612, Note_on_c, 1, 43, 0
3, 21612, Note_on_c, 1, 55, 80
3, 21612, Note_on_c, 1, 52, 80
3, 21612, Note_on_c, 1, 48, 80
3, 21912, Note_on_c, 1, 72, 80
3, 22212, Note_on_c, 1, 60, 80
3, 22489, Note_on_c, 1, 67, 91
3, 22512, Note_on_c, 1, 72, 0
3, 22512, Note_on_c, 1, 60, 0
3, 22812, Note_on_c, 1, 72, 97
3, 22874, Note_on_c, 1, 67, 0
3, 23112, Note_on_c, 1, 60, 80
3, 23283, Note_on_c, 1, 67, 101
3, 23296, Note_on_c, 1, 72, 0
3, 23412, Note_on_c, 1, 60, 0
3, 23719, Note_on_c, 1, 72, 110
3, 23743, Note_on_c, 1, 67, 0
3, 24277, Note_on_c, 1, 65, 102
3, 24290, Note_on_c, 1, 72, 0
3, 24762, Note_on_c, 1, 65, 0
3, 24862, Note_on_c, 1, 65, 106
3, 25097, Note_on_c, 1, 65, 0
3, 25197, Note_on_c, 1, 65, 106
3, 25512, Note_on_c, 1, 60, 80
3, 25570, Note_on_c, 1, 65, 0
3, 25669, Note_on_c, 1, 65, 108
3, 25812, Note_on_c, 1, 60, 0
3, 26141, Note_on_c, 1, 64, 109
3, 26154, Note_on_c, 1, 65, 0
3, 26412, Note_on_c, 1, 55, 0
3, 26412, Note_on_c, 1, 52, 0
3, 26412, Note_on_c, 1, 48, 0
3, 26412, Note_on_c, 1, 57, 80
3, 26412, Note_on_c, 1, 53, 80
3, 26412, Note_on_c, 1, 48, 80
3, 26726, Note_on_c, 1, 72, 97
3, 26751, Note_on_c, 1, 64, 0
3, 27012, Note_on_c, 1, 60, 80
3, 27309, Note_on_c, 1, 67, 94
3, 27312, Note_on_c, 1, 60, 0
3, 27359, Note_on_c, 1, 72, 0
3, 27631, Note_on_c, 1, 72, 85
3, 27707, Note_on_c, 1, 67, 0
3, 27912, Note_on_c, 1, 60, 80
3, 28104, Note_on_c, 1, 67, 95
3, 28212, Note_on_c, 1, 60, 0
3, 28252, Note_on_c, 1, 72, 0
3, 28563, Note_on_c, 1, 76, 85
3, 28601, Note_on_c, 1, 67, 0
3, 29171, Note_on_c, 1, 72, 88
3, 29221, Note_on_c, 1, 76, 0
3, 29694, Note_on_c, 1, 67, 77
3, 29756, Note_on_c, 1, 72, 0
3, 29992, Note_on_c, 1, 65, 94
3, 30042, Note_on_c, 1, 67, 0
3, 30312, Note_on_c, 1, 60, 80
3, 30390, Note_on_c, 1, 65, 0
3, 30501, Note_on_c, 1, 65, 101
3, 30612, Note_on_c, 1, 60, 0
3, 30936, Note_on_c, 1, 64, 79
3, 31010, Note_on_c, 1, 65, 0
3, 31212, Note_on_c, 1, 57, 0
3, 31212, Note_on_c, 1, 53, 0
3, 31212, Note_on_c, 1, 48, 0
3, 31212, Note_on_c, 1, 52, 80
3, 31212, Note_on_c, 1, 48, 80
3, 31212, Note_on_c, 1, 45, 80
3, 31532, Note_on_c, 1, 72, 75
3, 31594, Note_on_c, 1, 64, 0
3, 31812, Note_on_c, 1, 60, 80
3, 32112, Note_on_c, 1, 60, 0
3, 32116, Note_on_c, 1, 67, 64
3, 32153, Note_on_c, 1, 72, 0
3, 32439, Note_on_c, 1, 72, 99
3, 32501, Note_on_c, 1, 67, 0
3, 32712, Note_on_c, 1, 60, 80
3, 32898, Note_on_c, 1, 67, 79
3, 32948, Note_on_c, 1, 72, 0
3, 33012, Note_on_c, 1, 60, 0
3, 33334, Note_on_c, 1, 72, 98
3, 33371, Note_on_c, 1, 67, 0
3, 33881, Note_on_c, 1, 65, 82
3, 33930, Note_on_c, 1, 72, 0
3, 34377, Note_on_c, 1, 65, 0
3, 34477, Note_on_c, 1, 65, 106
3, 34687, Note_on_c, 1, 65, 0
3, 34799, Note_on_c, 1, 65, 102
3, 35109, Note_on_c, 1, 67, 109
3, 35112, Note_on_c, 1, 60, 80
3, 35171, Note_on_c, 1, 65, 0
3, 35412, Note_on_c, 1, 60, 0
3, 35432, Note_on_c, 1, 65, 109
3, 35469, Note_on_c, 1, 67, 0
3, 35729, Note_on_c, 1, 64, 108
3, 35779, Note_on_c, 1, 65, 0
3, 36012, Note_on_c, 1, 52, 0
3, 36012, Note_on_c, 1, 48, 0
3, 36012, Note_on_c, 1, 45, 0
3, 36012, Note_on_c, 1, 50, 80
3, 36012, Note_on_c, 1, 47, 80
3, 36012, Note_on_c, 1, 43, 80
3, 36351, Note_on_c, 1, 72, 92
3, 36387, Note_on_c, 1, 64, 0
3, 36612, Note_on_c, 1, 60, 80
3, 36885, Note_on_c, 1, 69, 86
3, 36897, Note_on_c, 1, 72, 0
3, 36912, Note_on_c, 1, 60, 0
3, 37219, Note_on_c, 1, 72, 93
3, 37271, Note_on_c, 1, 69, 0
3, 37512, Note_on_c, 1, 60, 80
3, 37581, Note_on_c, 1, 72, 0
3, 37692, Note_on_c, 1, 74, 88
3, 37812, Note_on_c, 1, 60, 0
3, 38016, Note_on_c, 1, 74, 0
3, 38140, Note_on_c, 1, 72, 97
3, 38562, Note_on_c, 1, 72, 0
3, 38736, Note_on_c, 1, 76, 95
3, 39261, Note_on_c, 1, 72, 85
3, 39286, Note_on_c, 1, 76, 0
3, 39608, Note_on_c, 1, 65, 99
3, 39684, Note_on_c, 1, 72, 0
3, 39912, Note_on_c, 1, 60, 80
3, 40006, Note_on_c, 1, 65, 0
3, 40092, Note_on_c, 1, 65, 111
3, 40212, Note_on_c, 1, 60, 0
3, 40565, Note_on_c, 1, 64, 111
3, 40639, Note_on_c, 1, 65, 0
3, 40812, Note_on_c, 1, 50, 0
3, 40812, Note_on_c, 1, 47, 0
3, 40812, Note_on_c, 1, 43, 0
3, 40812, Note_on_c, 1, 55, 80
3, 40812, Note_on_c, 1, 52, 80
3, 40812, Note_on_c, 1, 48, 80
3, 41112, Note_on_c, 1, 72, 80
3, 41273, Note_on_c, 1, 64, 0
3, 41412, Note_on_c, 1, 60, 80
3, 41689, Note_on_c, 1, 67, 91
3, 41712, Note_on_c, 1, 72, 0
3, 41712, Note_on_c, 1, 60, 0
3, 42012, Note_on_c, 1, 72, 97
3, 42074, Note_on_c, 1, 67, 0
3, 42312, Note_on_c, 1, 60, 80
3, 42483, Note_on_c, 1, 67, 101
3, 42496, Note_on_c, 1, 72, 0
3, 42612, Note_on_c, 1, 60, 0
3, 42919, Note_on_c, 1, 72, 110
3, 42943, Note_on_c, 1, 67, 0
3, 43477, Note_on_c, 1, 65, 102
3, 43490, Note_on_c, 1, 72, 0
3, 43962, Note_on_c, 1, 65, 0
3, 44062, Note_on_c, 1, 65, 106
3, 44297, Note_on_c, 1, 65, 0
3, 44397, Note_on_c, 1, 65, 106
3, 44712, Note_on_c, 1, 60, 80
3, 44770, Note_on_c, 1, 65, 0
3, 44869, Note_on_c, 1, 65, 108
3, 45012, Note_on_c, 1, 60, 0
3, 45341, Note_on_c, 1, 64, 109
3, 45354, Note_on_c, 1, 65, 0
3, 45612, Note_on_c, 1, 55, 0
3, 45612, Note_on_c, 1, 52, 0
3, 45612, Note_on_c, 1, 48, 0
3, 45612, Note_on_c, 1, 57, 80
3, 45612, Note_on_c, 1, 53, 80
3, 45612, Note_on_c, 1, 48, 80
3, 45926, Note_on_c, 1, 72, 97
3, 45951, Note_on_c, 1, 64, 0
3, 46212, Note_on_c, 1, 60, 80
3, 46509, Note_on_c, 1, 67, 94
3, 46512, Note_on_c, 1, 60, 0
3, 46559, Note_on_c, 1, 72, 0
3, 46831, Note_on_c, 1, 72, 85
3, 46907, Note_on_c, 1, 67, 0
3, 47112, Note_on_c, 1, 60, 80
3, 47304, Note_on_c, 1, 67, 95
3, 47412, Note_on_c, 1, 60, 0
3, 47452, Note_on_c, 1, 72, 0
3, 47763, Note_on_c, 1, 76, 85
3, 47801, Note_on_c, 1, 67, 0
3, 48371, Note_on_c, 1, 72, 88
3, 48421, Note_on_c, 1, 76, 0
3, 48894, Note_on_c, 1, 67, 77
3, 48956, Note_on_c, 1, 72, 0
3, 49192, Note_on_c, 1, 65, 94
3, 49242, Note_on_c, 1, 67, 0
3, 49512, Note_on_c, 1, 60, 80
3, 49590, Note_on_c, 1, 65, 0
3, 49701, Note_on_c, 1, 65, 101
3, 49812, Note_on_c, 1, 60, 0
3, 50136, Note_on_c, 1, 64, 79
3, 50210, Note_on_c, 1, 65, 0
3, 50412, Note_on_c, 1, 57, 0
3, 50412, Note_on_c, 1, 53, 0
3, 50412, Note_on_c, 1, 48, 0
3, 50412, Note_on_c, 1, 52, 80
3, 50412, Note_on_c, 1, 48, 80
3, 50412, Note_on_c, 1, 45, 80
3, 50732, Note_on_c, 1, 72, 75
3, 50794, Note_on_c, 1, 64, 0
3, 51012, Note_on_c, 1, 60, 80
3, 51312, Note_on_c, 1, 60, 0
3, 51316, Note_on_c, 1, 67, 64
3, 51353, Note_on_c, 1, 72, 0
3, 51639, Note_on_c, 1, 72, 99
3, 51701, Note_on_c, 1, 67, 0
3, 51912, Note_on_c, 1, 60, 80
3, 52098, Note_on_c, 1, 67, 79
3, 52148, Note_on_c, 1, 72, 0
3, 52212, Note_on_c, 1, 60, 0
3, 52534, Note_on_c, 1, 72, 98
3, 52571, Note_on_c, 1, 67, 0
3, 53081, Note_on_c, 1, 65, 82
3, 53130, Note_on_c, 1, 72, 0
3, 53577, Note_on_c, 1, 65, 0
3, 53677, Note_on_c, 1, 65, 106
3, 53887, Note_on_c, 1, 65, 0
3, 53999, Note_on_c, 1, 65, 102
3, 54309, Note_on_c, 1, 67, 109
3, 54312, Note_on_c, 1, 60, 80
3, 54371, Note_on_c, 1, 65, 0
3, 54612, Note_on_c, 1, 60, 0
3, 54632, Note_on_c, 1, 65, 109
3, 54669, Note_on_c, 1, 67, 0
3, 54929, Note_on_c, 1, 64, 108
3, 54979, Note_on_c, 1, 65, 0
3, 55212, Note_on_c, 1, 52, 0
3, 55212, Note_on_c, 1, 48, 0
3, 55212, Note_on_c, 1, 45, 0
3, 55212, Note_on_c, 1, 50, 80
3, 55212, Note_on_c, 1, 47, 80
3, 55212, Note_on_c, 1, 43, 80
3, 55551, Note_on_c, 1, 72, 92
3, 55587, Note_on_c, 1, 64, 0
3, 55812, Note_on_c, 1, 60, 80
3, 56085, Note_on_c, 1, 69, 86
3, 56097, Note_on_c, 1, 72, 0
3, 56112, Note_on_c, 1, 60, 0
3, 56419, Note_on_c, 1, 72, 93
3, 56471, Note_on_c, 1, 69, 0
3, 56712, Note_on_c, 1, 60, 80
3, 56781, Note_on_c, 1, 72, 0
3, 56892, Note_on_c, 1, 74, 88
3, 57012, Note_on_c, 1, 60, 0
3, 57216, Note_on_c, 1, 74, 0
3, 57340, Note_on_c, 1, 72, 97
3, 57762, Note_on_c, 1, 72, 0
3, 57936, Note_on_c, 1, 76, 95
3, 58461, Note_on_c, 1, 72, 85
3, 58486, Note_on_c, 1, 76, 0
3, 58808, Note_on_c, 1, 65, 99
3, 58884, Note_on_c, 1, 72, 0
3, 59112, Note_on_c, 1, 60, 80
3, 59206, Note_on_c, 1, 65, 0
3, 59292, Note_on_c, 1, 65, 111
3, 59412, Note_on_c, 1, 60, 0
3, 59765, Note_on_c, 1, 64, 111
3, 59839, Note_on_c, 1, 65, 0
3, 60012, Note_on_c, 1, 50, 0
3, 60012, Note_on_c, 1, 47, 0
3, 60012, Note_on_c, 1, 43, 0
3, 60473, Note_on_c, 1, 64, 0
3, 117612, Note_on_c, 1, 55, 80
3, 117612, Note_on_c, 1, 52, 80
3, 117612, Note_on_c, 1, 48, 80
3, 122412, Note_on_c, 1, 55, 0
3, 122412, Note_on_c, 1, 52, 0
3, 122412, Note_on_c, 1, 48, 0
3, 122412, Note_on_c, 1, 57, 80
3, 122412, Note_on_c, 1, 53, 80
3, 122412, Note_on_c, 1, 48, 80
3, 127212, Note_on_c, 1, 57, 0
3, 127212, Note_on_c, 1, 53, 0
3, 127212, Note_on_c, 1, 48, 0
3, 127212, Note_on_c, 1, 52, 80
3, 127212, Note_on_c, 1, 48, 80
3, 127212, Note_on_c, 1, 45, 80
3, 132012, Note_on_c, 1, 52, 0
3, 132012, Note_on_c, 1, 48, 0
3, 132012, Note_on_c, 1, 45, 0
3, 132012, Note_on_c, 1, 50, 80
3, 132012, Note_on_c, 1, 47, 80
3, 132012, Note_on_c, 1, 43, 80
3, 136812, Note_on_c, 1, 50, 0
3, 136812, Note_on_c, 1, 47, 0
3, 136812, Note_on_c, 1, 43, 0
3, 136812, Note_on_c, 1, 55, 80
3, 136812, Note_on_c, 1, 52, 80
3, 136812, Note_on_c, 1, 48, 80
3, 137112, Note_on_c, 1, 72, 80
3, 137412, Note_on_c, 1, 60, 80
3, 137689, Note_on_c, 1, 67, 91
3, 137712, Note_on_c, 1, 72, 0
3, 137712, Note_on_c, 1, 60, 0
3, 138012, Note_on_c, 1, 72, 97
3, 138074, Note_on_c, 1, 67, 0
3, 138312, Note_on_c, 1, 60, 80
3, 138483, Note_on_c, 1, 67, 101
3, 138496, Note_on_c, 1, 72, 0
3, 138612, Note_on_c, 1, 60, 0
3, 138919, Note_on_c, 1, 72, 110
3, 138943, Note_on_c, 1, 67, 0
3, 139477, Note_on_c, 1, 65, 102
3, 139490, Note_on_c, 1, 72, 0
3, 139962, Note_on_c, 1, 65, 0
3, 140062, Note_on_c, 1, 65, 106
3, 140297, Note_on_c, 1, 65, 0
3, 140397, Note_on_c, 1, 65, 106
3, 140712, Note_on_c, 1, 60, 80
3, 140770, Note_on_c, 1, 65, 0
3, 140869, Note_on_c, 1, 65, 108
3, 141012, Note_on_c, 1, 60, 0
3, 141341, Note_on_c, 1, 64, 109
3, 141354, Note_on_c, 1, 65, 0
3, 141612, Note_on_c, 1, 55, 0
3, 141612, Note_on_c, 1, 52, 0
3, 141612, Note_on_c, 1, 48, 0
3, 141612, Note_on_c, 1, 57, 80
3, 141612, Note_on_c, 1, 53, 80
3, 141612, Note_on_c, 1, 48, 80
3, 141926, Note_on_c, 1, 72, 97
3, 141951, Note_on_c, 1, 64, 0
3, 142212, Note_on_c, 1, 60, 80
3, 142509, Note_on_c, 1, 67, 94
3, 142512, Note_on_c, 1, 60, 0
3, 142559, Note_on_c, 1, 72, 0
3, 142831, Note_on_c, 1, 72, 85
3, 142907, Note_on_c, 1, 67, 0
3, 143112, Note_on_c, 1, 60, 80
3, 143304, Note_on_c, 1, 67, 95
3, 143412, Note_on_c, 1, 60, 0
3, 143452, Note_on_c, 1, 72, 0
3, 143763, Note_on_c, 1, 76, 85
3, 143801, Note_on_c, 1, 67, 0
3, 144371, Note_on_c, 1, 72, 88
3, 144421, Note_on_c, 1, 76, 0
3, 144894, Note_on_c, 1, 67, 77
3, 144956, Note_on_c, 1, 72, 0
3, 145192, Note_on_c, 1, 65, 94
3, 145242, Note_on_c, 1, 67, 0
3, 145512, Note_on_c, 1, 60, 80
3, 145590, Note_on_c, 1, 65, 0
3, 145701, Note_on_c, 1, 65, 101
3, 145812, Note_on_c, 1, 60, 0
3, 146136, Note_on_c, 1, 64, 79
3, 146210, Note_on_c, 1, 65, 0
3, 146412, Note_on_c, 1, 57, 0
3, 146412, Note_on_c, 1, 53, 0
3, 146412, Note_on_c, 1, 48, 0
3, 146412, Note_on_c, 1, 52, 80
3, 146412, Note_on_c, 1, 48, 80
3, 146412, Note_on_c, 1, 45, 80
3, 146732, Note_on_c, 1, 72, 75
3, 146794, Note_on_c, 1, 64, 0
3, 147012, Note_on_c, 1, 60, 80
3, 147312, Note_on_c, 1, 60, 0
3, 147316, Note_on_c, 1, 67, 64
3, 147353, Note_on_c, 1, 72, 0
3, 147639, Note_on_c, 1, 72, 99
3, 147701, Note_on_c, 1, 67, 0
3, 147912, Note_on_c, 1, 60, 80
3, 148098, Note_on_c, 1, 67, 79
3, 148148, Note_on_c, 1, 72, 0
3, 148212, Note_on_c, 1, 60, 0
3, 148534, Note_on_c, 1, 72, 98
3, 148571, Note_on_c, 1, 67, 0
3, 149081, Note_on_c, 1, 65, 82
3, 149130, Note_on_c, 1, 72, 0
3, 149577, Note_on_c, 1, 65, 0
3, 149677, Note_on_c, 1, 65, 106
3, 149887, Note_on_c, 1, 65, 0
3, 149999, Note_on_c, 1, 65, 102
3, 150309, Note_on_c, 1, 67, 109
3, 150312, Note_on_c, 1, 60, 80
3, 150371, Note_on_c, 1, 65, 0
3, 150612, Note_on_c, 1, 60, 0
3, 150632, Note_on_c, 1, 65, 109
3, 150669, Note_on_c, 1, 67, 0
3, 150929, Note_on_c, 1, 64, 108
3, 150979, Note_on_c, 1, 65, 0
3, 151212, Note_on_c, 1, 52, 0
3, 151212, Note_on_c, 1, 48, 0
3, 151212, Note_on_c, 1, 45, 0
3, 151212, Note_on_c, 1, 50, 80
3, 151212, Note_on_c, 1, 47, 80
3, 151212, Note_on_c, 1, 43, 80
3, 151551, Note_on_c, 1, 72, 92
3, 151587, Note_on_c, 1, 64, 0
3, 151812, Note_on_c, 1, 60, 80
3, 152085, Note_on_c, 1, 69, 86
3, 152097, Note_on_c, 1, 72, 0
3, 152112, Note_on_c, 1, 60, 0
3, 152419, Note_on_c, 1, 72, 93
3, 152471, Note_on_c, 1, 69, 0
3, 152712, Note_on_c, 1, 60, 80
3, 152781, Note_on_c, 1, 72, 0
3, 152892, Note_on_c, 1, 74, 88
3, 153012, Note_on_c, 1, 60, 0
3, 153216, Note_on_c, 1, 74, 0
3, 153340, Note_on_c, 1, 72, 97
3, 153762, Note_on_c, 1, 72, 0
3, 153936, Note_on_c, 1, 76, 95
3, 154461, Note_on_c, 1, 72, 85
3, 154486, Note_on_c, 1, 76, 0
3, 154808, Note_on_c, 1, 65, 99
3, 154884, Note_on_c, 1, 72, 0
3, 155112, Note_on_c, 1, 60, 80
3, 155206, Note_on_c, 1, 65, 0
3, 155292, Note_on_c, 1, 65, 111
3, 155412, Note_on_c, 1, 60, 0
3, 155765, Note_on_c, 1, 64, 111
3, 155839, Note_on_c, 1, 65, 0
3, 156012, Note_on_c, 1, 50, 0
3, 156012, Note_on_c, 1, 47, 0
3, 156012, Note_on_c, 1, 43, 0
3, 156473, Note_on_c, 1, 64, 0
3, 213612, Note_on_c, 1, 62, 80
3, 213612, Note_on_c, 1, 53, 80
3, 213612, Note_on_c, 1, 50, 80
3, 213612, Note_on_c, 1, 45, 80
3, 214062, Note_on_c, 1, 62, 0
3, 214062, Note_on_c, 1, 62, 80
3, 214512, Note_on_c, 1, 62, 0
3, 214512, Note_on_c, 1, 62, 80
3, 214812, Note_on_c, 1, 62, 80
3, 214962, Note_on_c, 1, 62, 0
3, 214962, Note_on_c, 1, 62, 0
3, 215262, Note_on_c, 1, 62, 80
3, 215712, Note_on_c, 1, 62, 0
3, 215712, Note_on_c, 1, 64, 80
3, 216012, Note_on_c, 1, 53, 0
3, 216012, Note_on_c, 1, 50, 0
3, 216012, Note_on_c, 1, 45, 0
3, 216012, Note_on_c, 1, 64, 0
3, 216012, Note_on_c, 1, 67, 80
3, 216012, Note_on_c, 1, 55, 80
3, 216012, Note_on_c, 1, 52, 80
3, 216012, Note_on_c, 1, 48, 80
3, 216462, Note_on_c, 1, 67, 0
3, 216462, Note_on_c, 1, 67, 80
3, 216912, Note_on_c, 1, 67, 0
3, 216912, Note_on_c, 1, 67, 80
3, 217212, Note_on_c, 1, 55, 0
3, 217212, Note_on_c, 1, 52, 0
3, 217212, Note_on_c, 1, 48, 0
3, 217212, Note_on_c, 1, 67, 0
3, 217212, Note_on_c, 1, 65, 80
3, 217212, Note_on_c, 1, 53, 80
3, 217212, Note_on_c, 1, 48, 80
3, 217212, Note_on_c, 1, 45, 80
3, 217662, Note_on_c, 1, 65, 0
3, 217662, Note_on_c, 1, 65, 80
3, 218112, Note_on_c, 1, 65, 0
3, 218112, Note_on_c, 1, 64, 80
3, 218412, Note_on_c, 1, 53, 0
3, 218412, Note_on_c, 1, 48, 0
3, 218412, Note_on_c, 1, 45, 0
3, 218412, Note_on_c, 1, 64, 0
3, 218412, Note_on_c, 1, 62, 80
3, 218412, Note_on_c, 1, 50, 80
3, 218412, Note_on_c, 1, 45, 80
3, 218412, Note_on_c, 1, 41, 80
3, 218862, Note_on_c, 1, 62, 0
3, 218862, Note_on_c, 1, 62, 80
3, 219312, Note_on_c, 1, 62, 0
3, 219312, Note_on_c, 1, 62, 80
3, 219612, Note_on_c, 1, 62, 80
3, 219762, Note_on_c, 1, 62, 0
3, 219762, Note_on_c, 1, 62, 0
3, 220062, Note_on_c, 1, 62, 80
3, 220512, Note_on_c, 1, 62, 0
3, 220512, Note_on_c, 1, 64, 80
3, 220812, Note_on_c, 1, 50, 0
3, 220812, Note_on_c, 1, 45, 0
3, 220812, Note_on_c, 1, 41, 0
3, 220812, Note_on_c, 1, 64, 0
3, 220812, Note_on_c, 1, 67, 80
3, 220812, Note_on_c, 1, 55, 80
3, 220812, Note_on_c, 1, 52, 80
3, 220812, Note_on_c, 1, 48, 80
3, 221262, Note_on_c, 1, 67, 0
3, 221262, Note_on_c, 1, 67, 80
3, 221712, Note_on_c, 1, 67, 0
3, 221712, Note_on_c, 1, 67, 80
3, 222012, Note_on_c, 1, 55, 0
3, 222012, Note_on_c, 1, 52, 0
3, 222012, Note_on_c, 1, 48, 0
3, 222012, Note_on_c, 1, 67, 0
3, 222012, Note_on_c, 1, 65, 80
3, 222012, Note_on_c, 1, 53, 80
3, 222012, Note_on_c, 1, 48, 80
3, 222012, Note_on_c, 1, 45, 80
3, 222462, Note_on_c, 1, 65, 0
3, 222462, Note_on_c, 1, 65, 80
3, 222912, Note_on_c, 1, 65, 0
3, 222912, Note_on_c, 1, 64, 80
3, 223212, Note_on_c, 1, 53, 0
3, 223212, Note_on_c, 1, 48, 0
3, 223212, Note_on_c, 1, 45, 0
3, 223212, Note_on_c, 1, 64, 0
3, 223212, Note_on_c, 1, 62, 80
3, 223212, Note_on_c, 1, 53, 80
3, 223212, Note_on_c, 1, 50, 80
3, 223212, Note_on_c, 1, 45, 80
3, 223662, Note_on_c, 1, 62, 0
3, 223662, Note_on_c, 1, 62, 80
3, 224112, Note_on_c, 1, 62, 0
3, 224112, Note_on_c, 1, 62, 80
3, 224412, Note_on_c, 1, 62, 80
3, 224562, Note_on_c, 1, 62, 0
3, 224562, Note_on_c, 1, 62, 0
3, 224862, Note_on_c, 1, 62, 80
3, 225312, Note_on_c, 1, 62, 0
3, 225312, Note_on_c, 1, 64, 80
3, 225612, Note_on_c, 1, 53, 0
3, 225612, Note_on_c, 1, 50, 0
3, 225612, Note_on_c, 1, 45, 0
3, 225612, Note_on_c, 1, 64, 0
3, 225612, Note_on_c, 1, 67, 80
3, 225612, Note_on_c, 1, 55, 80
3, 225612, Note_on_c, 1, 52, 80
3, 225612, Note_on_c, 1, 48, 80
3, 226062, Note_on_c, 1, 67, 0
3, 226062, Note_on_c, 1, 67, 80
3, 226512, Note_on_c, 1, 67, 0
3, 226512, Note_on_c, 1, 67, 80
3, 226812, Note_on_c, 1, 55, 0
3, 226812, Note_on_c, 1, 52, 0
3, 226812, Note_on_c, 1, 48, 0
3, 226812, Note_on_c, 1, 67, 0
3, 226812, Note_on_c, 1, 65, 80
3, 226812, Note_on_c, 1, 53, 80
3, 226812, Note_on_c, 1, 48, 80
3, 226812, Note_on_c, 1, 45, 80
3, 227262, Note_on_c, 1, 65, 0
3, 227262, Note_on_c, 1, 65, 80
3, 227712, Note_on_c, 1, 65, 0
3, 227712, Note_on_c, 1, 64, 80
3, 228012, Note_on_c, 1, 53, 0
3, 228012, Note_on_c, 1, 48, 0
3, 228012, Note_on_c, 1, 45, 0
3, 228012, Note_on_c, 1, 64, 0
3, 228012, Note_on_c, 1, 62, 80
3, 228012, Note_on_c, 1, 50, 80
3, 228012, Note_on_c, 1, 47, 80
3, 228012, Note_on_c, 1, 43, 80
3, 228462, Note_on_c, 1, 62, 0
3, 228462, Note_on_c, 1, 62, 80
3, 228912, Note_on_c, 1, 62, 0
3, 228912, Note_on_c, 1, 62, 80
3, 229212, Note_on_c, 1, 62, 80
3, 229362, Note_on_c, 1, 62, 0
3, 229362, Note_on_c, 1, 62, 0
3, 229662, Note_on_c, 1, 62, 80
3, 230112, Note_on_c, 1, 62, 0
3, 230112, Note_on_c, 1, 64, 80
3, 230412, Note_on_c, 1, 50, 0
3, 230412, Note_on_c, 1, 47, 0
3, 230412, Note_on_c, 1, 43, 0
3, 230412, Note_on_c, 1, 64, 0
3, 230412, Note_on_c, 1, 67, 80
3, 230412, Note_on_c, 1, 55, 80
3, 230412, Note_on_c, 1, 50, 80
3, 230412, Note_on_c, 1, 47, 80
3, 230862, Note_on_c, 1, 67, 0
3, 230862, Note_on_c, 1, 67, 80
3, 231312, Note_on_c, 1, 67, 0
3, 231312, Note_on_c, 1, 67, 80
3, 231612, Note_on_c, 1, 67, 0
3, 231612, Note_on_c, 1, 67, 80
3, 232062, Note_on_c, 1, 67, 0
3, 232062, Note_on_c, 1, 67, 80
3, 232512, Note_on_c, 1, 67, 0
3, 232512, Note_on_c, 1, 67, 80
3, 232812, Note_on_c, 1, 55, 0
3, 232812, Note_on_c, 1, 50, 0
3, 232812, Note_on_c, 1, 47, 0
3, 232812, Note_on_c, 1, 67, 0
3, 232812, Note_on_c, 1, 67, 80
3, 232812, Note_on_c, 1, 55, 80
3, 232812, Note_on_c, 1, 50, 80
3, 232812, Note_on_c, 1, 47, 80
3, 233262, Note_on_c, 1, 67, 0
3, 233262, Note_on_c, 1, 67, 80
3, 233412, Note_on_c, 1, 67, 0
3, 233412, Note_on_c, 1, 67, 80
3, 233862, Note_on_c, 1, 67, 0
3, 233862, Note_on_c, 1, 67, 80
3, 234012, Note_on_c, 1, 55, 0
3, 234012, Note_on_c, 1, 50, 0
3, 234012, Note_on_c, 1, 47, 0
3, 234012, Note_on_c, 1, 67, 0
3, 234012, Note_on_c, 1, 67, 80
3, 234012, Note_on_c, 1, 55, 80
3, 234012, Note_on_c, 1, 50, 80
3, 234012, Note_on_c, 1, 47, 80
3, 234462, Note_on_c, 1, 67, 0
3, 234462, Note_on_c, 1, 67, 80
3, 234612, Note_on_c, 1, 67, 0
3, 234612, Note_on_c, 1, 67, 80
3, 235062, Note_on_c, 1, 67, 0
3, 235062, Note_on_c, 1, 67, 80
3, 235212, Note_on_c, 1, 55, 0
3, 235212, Note_on_c, 1, 50, 0
3, 235212, Note_on_c, 1, 47, 0
3, 235212, Note_on_c, 1, 67, 0
3, 235212, Note_on_c, 1, 67, 80
3, 235212, Note_on_c, 1, 55, 80
3, 235212, Note_on_c, 1, 50, 80
3, 235212, Note_on_c, 1, 47, 80
3, 235512, Note_on_c, 1, 67, 0
3, 235512, Note_on_c, 1, 67, 80
3, 235812, Note_on_c, 1, 55, 0
3, 235812, Note_on_c, 1, 50, 0
3, 235812, Note_on_c, 1, 47, 0
3, 235812, Note_on_c, 1, 67, 0
3, 235812, Note_on_c, 1, 67, 80
3, 235812, Note_on_c, 1, 55, 80
3, 235812, Note_on_c, 1, 50, 80
3, 235812, Note_on_c, 1, 47, 80
3, 236112, Note_on_c, 1, 67, 0
3, 236112, Note_on_c, 1, 67, 80
3, 236412, Note_on_c, 1, 55, 0
3, 236412, Note_on_c, 1, 50, 0
3, 236412, Note_on_c, 1, 47, 0
3, 236412, Note_on_c, 1, 67, 0
3, 236412, Note_on_c, 1, 67, 80
3, 236412, Note_on_c, 1, 55, 80
3, 236412, Note_on_c, 1, 50, 80
3, 236412, Note_on_c, 1, 47, 80
3, 236562, Note_on_c, 1, 67, 0
3, 236562, Note_on_c, 1, 67, 80
3, 236712, Note_on_c, 1, 55, 0
3, 236712, Note_on_c, 1, 50, 0
3, 236712, Note_on_c, 1, 47, 0
3, 236712, Note_on_c, 1, 67, 0
3, 236712, Note_on_c, 1, 67, 80
3, 236712, Note_on_c, 1, 55, 80
3, 236712, Note_on_c, 1, 50, 80
3, 236712, Note_on_c, 1, 47, 80
3, 236862, Note_on_c, 1, 67, 0
3, 236862, Note_on_c, 1, 67, 80
3, 237012, Note_on_c, 1, 55, 0
3, 237012, Note_on_c, 1, 50, 0
3, 237012, Note_on_c, 1, 47, 0
3, 237012, Note_on_c, 1, 67, 0
3, 237012, Note_on_c, 1, 67, 80
3, 237012, Note_on_c, 1, 55, 80
3, 237012, Note_on_c, 1, 50, 80
3, 237012, Note_on_c, 1, 47, 80
3, 237162, Note_on_c, 1, 67, 0
3, 237162, Note_on_c, 1, 67, 80
3, 237312, Note_on_c, 1, 55, 0
3, 237312, Note_on_c, 1, 50, 0
3, 237312, Note_on_c, 1, 47, 0
3, 237312, Note_on_c, 1, 67, 0
3, 237312, Note_on_c, 1, 67, 80
3, 237312, Note_on_c, 1, 55, 80
3, 237312, Note_on_c, 1, 50, 80
3, 237312, Note_on_c, 1, 47, 80
3, 237462, Note_on_c, 1, 67, 0
3, 237462, Note_on_c, 1, 67, 80
3, 237612, Note_on_c, 1, 55, 0
3, 237612, Note_on_c, 1, 50, 0
3, 237612, Note_on_c, 1, 47, 0
3, 237612, Note_on_c, 1, 67, 0
3, 299999, Control_c, 0, 127, 0
3, 299999, End_track
4, 0, Start_track
4, 2412, Control_c, 9, 0, 0
4, 2412, Control_c, 9, 32, 0
4, 2412, Program_c, 9, 0
4, 2412, Title_t, "Drums"
4, 2412, Control_c, 9, 7, 127
4, 21612, Note_on_c, 9, 36, 80
4, 21631, Note_on_c, 9, 36, 0
4, 22212, Note_on_c, 9, 36, 80
4, 22231, Note_on_c, 9, 36, 0
4, 22812, Note_on_c, 9, 36, 80
4, 22831, Note_on_c, 9, 36, 0
4, 23412, Note_on_c, 9, 36, 80
4, 23431, Note_on_c, 9, 36, 0
4, 24012, Note_on_c, 9, 36, 80
4, 24031, Note_on_c, 9, 36, 0
4, 24612, Note_on_c, 9, 36, 80
4, 24631, Note_on_c, 9, 36, 0
4, 25212, Note_on_c, 9, 36, 80
4, 25231, Note_on_c, 9, 36, 0
4, 25812, Note_on_c, 9, 36, 80
4, 25831, Note_on_c, 9, 36, 0
4, 26412, Note_on_c, 9, 36, 80
4, 26431, Note_on_c, 9, 36, 0
4, 27012, Note_on_c, 9, 36, 80
4, 27031, Note_on_c, 9, 36, 0
4, 27612, Note_on_c, 9, 36, 80
4, 27631, Note_on_c, 9, 36, 0
4, 28212, Note_on_c, 9, 36, 80
4, 28231, Note_on_c, 9, 36, 0
4, 28812, Note_on_c, 9, 36, 80
4, 28831, Note_on_c, 9, 36, 0
4, 29412, Note_on_c, 9, 36, 80
4, 29431, Note_on_c, 9, 36, 0
4, 30012, Note_on_c, 9, 36, 80
4, 30031, Note_on_c, 9, 36, 0
4, 30612, Note_on_c, 9, 36, 80
4, 30631, Note_on_c, 9, 36, 0
4, 31212, Note_on_c, 9, 36, 80
4, 31231, Note_on_c, 9, 36, 0
4, 31812, Note_on_c, 9, 36, 80
4, 31831, Note_on_c, 9, 36, 0
4, 32412, Note_on_c, 9, 36, 80
4, 32431, Note_on_c, 9, 36, 0
4, 33012, Note_on_c, 9, 36, 80
4, 33031, Note_on_c, 9, 36, 0
4, 33612, Note_on_c, 9, 36, 80
4, 33631, Note_on_c, 9, 36, 0
4, 34212, Note_on_c, 9, 36, 80
4, 34231, Note_on_c, 9, 36, 0
4, 34812, Note_on_c, 9, 36, 80
4, 34831, Note_on_c, 9, 36, 0
4, 35412, Note_on_c, 9, 36, 80
4, 35431, Note_on_c, 9, 36, 0
4, 36012, Note_on_c, 9, 36, 80
4, 36031, Note_on_c, 9, 36, 0
4, 36612, Note_on_c, 9, 36, 80
4, 36631, Note_on_c, 9, 36, 0
4, 37212, Note_on_c, 9, 36, 80
4, 37231, Note_on_c, 9, 36, 0
4, 37812, Note_on_c, 9, 36, 80
4, 37831, Note_on_c, 9, 36, 0
4, 38412, Note_on_c, 9, 36, 80
4, 38431, Note_on_c, 9, 36, 0
4, 39012, Note_on_c, 9, 36, 80
4, 39031, Note_on_c, 9, 36, 0
4, 39612, Note_on_c, 9, 36, 80
4, 39631, Note_on_c, 9, 36, 0
4, 40212, Note_on_c, 9, 36, 80
4, 40231, Note_on_c, 9, 36, 0
4, 40812, Note_on_c, 9, 36, 80
4, 40831, Note_on_c, 9, 36, 0
4, 41412, Note_on_c, 9, 36, 80
4, 41431, Note_on_c, 9, 36, 0
4, 42012, Note_on_c, 9, 36, 80
4, 42031, Note_on_c, 9, 36, 0
4, 42612, Note_on_c, 9, 36, 80
4, 42631, Note_on_c, 9, 36, 0
4, 43212, Note_on_c, 9, 36, 80
4, 43231, Note_on_c, 9, 36, 0
4, 43812, Note_on_c, 9, 36, 80
4, 43831, Note_on_c, 9, 36, 0
4, 44412, Note_on_c, 9, 36, 80
4, 44431, Note_on_c, 9, 36, 0
4, 45012, Note_on_c, 9, 36, 80
4, 45031, Note_on_c, 9, 36, 0
4, 45612, Note_on_c, 9, 36, 80
4, 45631, Note_on_c, 9, 36, 0
4, 46212, Note_on_c, 9, 36, 80
4, 46231, Note_on_c, 9, 36, 0
4, 46812, Note_on_c, 9, 36, 80
4, 46831, Note_on_c, 9, 36, 0
4, 47412, Note_on_c, 9, 36, 80
4, 47431, Note_on_c, 9, 36, 0
4, 48012, Note_on_c, 9, 36, 80
4, 48031, Note_on_c, 9, 36, 0
4, 48612, Note_on_c, 9, 36, 80
4, 48631, Note_on_c, 9, 36, 0
4, 49212, Note_on_c, 9, 36, 80
4, 49231, Note_on_c, 9, 36, 0
4, 49812, Note_on_c, 9, 36, 80
4, 49831, Note_on_c, 9, 36, 0
4, 50412, Note_on_c, 9, 36, 80
4, 50412, Note_on_c, 9, 40, 80
4, 50431, Note_on_c, 9, 36, 0
4, 50431, Note_on_c, 9, 40, 0
4, 51012, Note_on_c, 9, 36, 80
4, 51012, Note_on_c, 9, 40, 80
4, 51031, Note_on_c, 9, 36, 0
4, 51031, Note_on_c, 9, 40, 0
4, 51612, Note_on_c, 9, 36, 80
4, 51612, Note_on_c, 9, 40, 80
4, 51631, Note_on_c, 9, 36, 0
4, 51631, Note_on_c, 9, 40, 0
4, 52212, Note_on_c, 9, 36, 80
4, 52212, Note_on_c, 9, 40, 80
4, 52231, Note_on_c, 9, 36, 0
4, 52231, Note_on_c, 9, 40, 0
4, 52812, Note_on_c, 9, 36, 80
4, 52812, Note_on_c, 9, 40, 80
4, 52831, Note_on_c, 9, 36, 0
4, 52831, Note_on_c, 9, 40, 0
4, 53412, Note_on_c, 9, 36, 80
4, 53412, Note_on_c, 9, 40, 80
4, 53431, Note_on_c, 9, 36, 0
4, 53431, Note_on_c, 9, 40, 0
4, 54012, Note_on_c, 9, 36, 80
4, 54012, Note_on_c, 9, 40, 80
4, 54031, Note_on_c, 9, 36, 0
4, 54031, Note_on_c, 9, 40, 0
4, 54612, Note_on_c, 9, 36, 80
4, 54612, Note_on_c, 9, 40, 80
4, 54631, Note_on_c, 9, 36, 0
4, 54631, Note_on_c, 9, 40, 0
4, 55212, Note_on_c, 9, 36, 80
4, 55212, Note_on_c, 9, 40, 80
4, 55231, Note_on_c, 9, 36, 0
4, 55231, Note_on_c, 9, 40, 0
4, 55512, Note_on_c, 9, 38, 80
4, 55531, Note_on_c, 9, 38, 0
4, 55812, Note_on_c, 9, 36, 80
4, 55812, Note_on_c, 9, 40, 80
4, 55831, Note_on_c, 9, 36, 0
4, 55831, Note_on_c, 9, 40, 0
4, 56112, Note_on_c, 9, 38, 80
4, 56131, Note_on_c, 9, 38, 0
4, 56412, Note_on_c, 9, 36, 80
4, 56412, Note_on_c, 9, 40, 80
4, 56431, Note_on_c, 9, 36, 0
4, 56431, Note_on_c, 9, 40, 0
4, 56712, Note_on_c, 9, 38, 80
4, 56731, Note_on_c, 9, 38, 0
4, 57012, Note_on_c, 9, 36, 80
4, 57012, Note_on_c, 9, 40, 80
4, 57031, Note_on_c, 9, 36, 0
4, 57031, Note_on_c, 9, 40, 0
4, 57312, Note_on_c, 9, 38, 80
4, 57331, Note_on_c, 9, 38, 0
4, 57612, Note_on_c, 9, 36, 80
4, 57612, Note_on_c, 9, 40, 80
4, 57631, Note_on_c, 9, 36, 0
4, 57631, Note_on_c, 9, 40, 0
4, 57762, Note_on_c, 9, 38, 80
4, 57781, Note_on_c, 9, 38, 0
4, 57912, Note_on_c, 9, 40, 80
4, 57931, Note_on_c, 9, 40, 0
4, 58062, Note_on_c, 9, 38, 80
4, 58081, Note_on_c, 9, 38, 0
4, 58212, Note_on_c, 9, 36, 80
4, 58212, Note_on_c, 9, 40, 80
4, 58231, Note_on_c, 9, 36, 0
4, 58231, Note_on_c, 9, 40, 0
4, 58362, Note_on_c, 9, 38, 80
4, 58381, Note_on_c, 9, 38, 0
4, 58512, Note_on_c, 9, 40, 80
4, 58531, Note_on_c, 9, 40, 0
4, 58662, Note_on_c, 9, 38, 80
4, 58681, Note_on_c, 9, 38, 0
4, 58812, Note_on_c, 9, 36, 80
4, 58812, Note_on_c, 9, 40, 80
4, 58831, Note_on_c, 9, 36, 0
4, 58831, Note_on_c, 9, 40, 0
4, 58962, Note_on_c, 9, 38, 80
4, 58981, Note_on_c, 9, 38, 0
4, 59112, Note_on_c, 9, 40, 80
4, 59131, Note_on_c, 9, 40, 0
4, 59262, Note_on_c, 9, 38, 80
4, 59281, Note_on_c, 9, 38, 0
4, 59412, Note_on_c, 9, 39, 80
4, 59412, Note_on_c, 9, 49, 80
4, 59431, Note_on_c, 9, 39, 0
4, 59431, Note_on_c, 9, 49, 0
4, 60012, Note_on_c, 9, 39, 80
4, 60031, Note_on_c, 9, 39, 0
4, 60612, Note_on_c, 9, 39, 80
4, 60631, Note_on_c, 9, 39, 0
4, 61212, Note_on_c, 9, 39, 80
4, 61231, Note_on_c, 9, 39, 0
4, 61812, Note_on_c, 9, 39, 80
4, 61831, Note_on_c, 9, 39, 0
4, 62412, Note_on_c, 9, 39, 80
4, 62431, Note_on_c, 9, 39, 0
4, 63012, Note_on_c, 9, 39, 80
4, 63031, Note_on_c, 9, 39, 0
4, 63612, Note_on_c, 9, 39, 80
4, 63631, Note_on_c, 9, 39, 0
4, 64212, Note_on_c, 9, 39, 80
4, 64231, Note_on_c, 9, 39, 0
4, 64812, Note_on_c, 9, 39, 80
4, 64831, Note_on_c, 9, 39, 0
4, 65412, Note_on_c, 9, 39, 80
4, 65431, Note_on_c, 9, 39, 0
4, 66012, Note_on_c, 9, 39, 80
4, 66031, Note_on_c, 9, 39, 0
4, 66612, Note_on_c, 9, 39, 80
4, 66631, Note_on_c, 9, 39, 0
4, 67212, Note_on_c, 9, 39, 80
4, 67231, Note_on_c, 9, 39, 0
4, 67812, Note_on_c, 9, 39, 80
4, 67831, Note_on_c, 9, 39, 0
4, 68412, Note_on_c, 9, 39, 80
4, 68431, Note_on_c, 9, 39, 0
4, 69012, Note_on_c, 9, 39, 80
4, 69031, Note_on_c, 9, 39, 0
4, 69612, Note_on_c, 9, 39, 80
4, 69631, Note_on_c, 9, 39, 0
4, 70212, Note_on_c, 9, 39, 80
4, 70231, Note_on_c, 9, 39, 0
4, 70812, Note_on_c, 9, 39, 80
4, 70831, Note_on_c, 9, 39, 0
4, 71412, Note_on_c, 9, 39, 80
4, 71431, Note_on_c, 9, 39, 0
4, 72012, Note_on_c, 9, 39, 80
4, 72031, Note_on_c, 9, 39, 0
4, 72612, Note_on_c, 9, 39, 80
4, 72631, Note_on_c, 9, 39, 0
4, 73212, Note_on_c, 9, 39, 80
4, 73231, Note_on_c, 9, 39, 0
4, 73812, Note_on_c, 9, 39, 80
4, 73831, Note_on_c, 9, 39, 0
4, 74412, Note_on_c, 9, 39, 80
4, 74431, Note_on_c, 9, 39, 0
4, 75012, Note_on_c, 9, 39, 80
4, 75031, Note_on_c, 9, 39, 0
4, 75612, Note_on_c, 9, 39, 80
4, 75631, Note_on_c, 9, 39, 0
4, 76212, Note_on_c, 9, 39, 80
4, 76231, Note_on_c, 9, 39, 0
4, 76812, Note_on_c, 9, 39, 80
4, 76831, Note_on_c, 9, 39, 0
4, 77412, Note_on_c, 9, 39, 80
4, 77431, Note_on_c, 9, 39, 0
4, 78012, Note_on_c, 9, 39, 80
4, 78031, Note_on_c, 9, 39, 0
4, 78612, Note_on_c, 9, 39, 80
4, 78631, Note_on_c, 9, 39, 0
4, 79212, Note_on_c, 9, 39, 80
4, 79231, Note_on_c, 9, 39, 0
4, 79812, Note_on_c, 9, 39, 80
4, 79831, Note_on_c, 9, 39, 0
4, 80412, Note_on_c, 9, 39, 80
4, 80431, Note_on_c, 9, 39, 0
4, 81012, Note_on_c, 9, 39, 80
4, 81031, Note_on_c, 9, 39, 0
4, 81612, Note_on_c, 9, 39, 80
4, 81631, Note_on_c, 9, 39, 0
4, 82212, Note_on_c, 9, 39, 80
4, 82231, Note_on_c, 9, 39, 0
4, 82812, Note_on_c, 9, 39, 80
4, 82831, Note_on_c, 9, 39, 0
4, 83412, Note_on_c, 9, 39, 80
4, 83431, Note_on_c, 9, 39, 0
4, 84012, Note_on_c, 9, 39, 80
4, 84031, Note_on_c, 9, 39, 0
4, 84612, Note_on_c, 9, 39, 80
4, 84631, Note_on_c, 9, 39, 0
4, 85212, Note_on_c, 9, 39, 80
4, 85231, Note_on_c, 9, 39, 0
4, 85812, Note_on_c, 9, 39, 80
4, 85831, Note_on_c, 9, 39, 0
4, 86412, Note_on_c, 9, 39, 80
4, 86431, Note_on_c, 9, 39, 0
4, 87012, Note_on_c, 9, 39, 80
4, 87031, Note_on_c, 9, 39, 0
4, 87612, Note_on_c, 9, 39, 80
4, 87631, Note_on_c, 9, 39, 0
4, 88212, Note_on_c, 9, 39, 80
4, 88231, Note_on_c, 9, 39, 0
4, 88812, Note_on_c, 9, 36, 80
4, 88812, Note_on_c, 9, 39, 80
4, 88812, Note_on_c, 9, 40, 80
4, 88831, Note_on_c, 9, 36, 0
4, 88831, Note_on_c, 9, 39, 0
4, 88831, Note_on_c, 9, 40, 0
4, 89412, Note_on_c, 9, 36, 80
4, 89412, Note_on_c, 9, 39, 80
4, 89412, Note_on_c, 9, 40, 80
4, 89431, Note_on_c, 9, 36, 0
4, 89431, Note_on_c, 9, 39, 0
4, 89431, Note_on_c, 9, 40, 0
4, 90012, Note_on_c, 9, 36, 80
4, 90012, Note_on_c, 9, 39, 80
4, 90012, Note_on_c, 9, 40, 80
4, 90031, Note_on_c, 9, 36, 0
4, 90031, Note_on_c, 9, 39, 0
4, 90031, Note_on_c, 9, 40, 0
4, 90612, Note_on_c, 9, 36, 80
4, 90612, Note_on_c, 9, 39, 80
4, 90612, Note_on_c, 9, 40, 80
4, 90631, Note_on_c, 9, 36, 0
4, 90631, Note_on_c, 9, 39, 0
4, 90631, Note_on_c, 9, 40, 0
4, 91212, Note_on_c, 9, 36, 80
4, 91212, Note_on_c, 9, 39, 80
4, 91212, Note_on_c, 9, 40, 80
4, 91231, Note_on_c, 9, 36, 0
4, 91231, Note_on_c, 9, 39, 0
4, 91231, Note_on_c, 9, 40, 0
4, 91812, Note_on_c, 9, 36, 80
4, 91812, Note_on_c, 9, 39, 80
4, 91812, Note_on_c, 9, 40, 80
4, 91831, Note_on_c, 9, 36, 0
4, 91831, Note_on_c, 9, 39, 0
4, 91831, Note_on_c, 9, 40, 0
4, 92412, Note_on_c, 9, 36, 80
4, 92412, Note_on_c, 9, 39, 80
4, 92412, Note_on_c, 9, 40, 80
4, 92431, Note_on_c, 9, 36, 0
4, 92431, Note_on_c, 9, 39, 0
4, 92431, Note_on_c, 9, 40, 0
4, 93012, Note_on_c, 9, 36, 80
4, 93012, Note_on_c, 9, 39, 80
4, 93012, Note_on_c, 9, 40, 80
4, 93031, Note_on_c, 9, 36, 0
4, 93031, Note_on_c, 9, 39, 0
4, 93031, Note_on_c, 9, 40, 0
4, 93612, Note_on_c, 9, 36, 80
4, 93612, Note_on_c, 9, 39, 80
4, 93612, Note_on_c, 9, 40, 80
4, 93631, Note_on_c, 9, 36, 0
4, 93631, Note_on_c, 9, 39, 0
4, 93631, Note_on_c, 9, 40, 0
4, 93912, Note_on_c, 9, 38, 80
4, 93931, Note_on_c, 9, 38, 0
4, 94212, Note_on_c, 9, 36, 80
4, 94212, Note_on_c, 9, 39, 80
4, 94212, Note_on_c, 9, 40, 80
4, 94231, Note_on_c, 9, 36, 0
4, 94231, Note_on_c, 9, 39, 0
4, 94231, Note_on_c, 9, 40, 0
4, 94512, Note_on_c, 9, 38, 80
4, 94531, Note_on_c, 9, 38, 0
4, 94812, Note_on_c, 9, 36, 80
4, 94812, Note_on_c, 9, 39, 80
4, 94812, Note_on_c, 9, 40, 80
4, 94831, Note_on_c, 9, 36, 0
4, 94831, Note_on_c, 9, 39, 0
4, 94831, Note_on_c, 9, 40, 0
4, 95112, Note_on_c, 9, 38, 80
4, 95131, Note_on_c, 9, 38, 0
4, 95412, Note_on_c, 9, 36, 80
4, 95412, Note_on_c, 9, 39, 80
4, 95412, Note_on_c, 9, 40, 80
4, 95431, Note_on_c, 9, 36, 0
4, 95431, Note_on_c, 9, 39, 0
4, 95431, Note_on_c, 9, 40, 0
4, 95712, Note_on_c, 9, 38, 80
4, 95731, Note_on_c, 9, 38, 0
4, 96012, Note_on_c, 9, 36, 80
4, 96012, Note_on_c, 9, 39, 80
4, 96012, Note_on_c, 9, 40, 80
4, 96031, Note_on_c, 9, 36, 0
4, 96031, Note_on_c, 9, 39, 0
4, 96031, Note_on_c, 9, 40, 0
4, 96162, Note_on_c, 9, 38, 80
4, 96181, Note_on_c, 9, 38, 0
4, 96312, Note_on_c, 9, 40, 80
4, 96331, Note_on_c, 9, 40, 0
4, 96462, Note_on_c, 9, 38, 80
4, 96481, Note_on_c, 9, 38, 0
4, 96612, Note_on_c, 9, 36, 80
4, 96612, Note_on_c, 9, 39, 80
4, 96612, Note_on_c, 9, 40, 80
4, 96631, Note_on_c, 9, 36, 0
4, 96631, Note_on_c, 9, 39, 0
4, 96631, Note_on_c, 9, 40, 0
4, 96762, Note_on_c, 9, 38, 80
4, 96781, Note_on_c, 9, 38, 0
4, 96912, Note_on_c, 9, 40, 80
4, 96931, Note_on_c, 9, 40, 0
4, 97062, Note_on_c, 9, 38, 80
4, 97081, Note_on_c, 9, 38, 0
4, 97212, Note_on_c, 9, 36, 80
4, 97212, Note_on_c, 9, 39, 80
4, 97212, Note_on_c, 9, 40, 80
4, 97231, Note_on_c, 9, 36, 0
4, 97231, Note_on_c, 9, 39, 0
4, 97231, Note_on_c, 9, 40, 0
4, 97362, Note_on_c, 9, 38, 80
4, 97381, Note_on_c, 9, 38, 0
4, 97512, Note_on_c, 9, 40, 80
4, 97531, Note_on_c, 9, 40, 0
4, 97662, Note_on_c, 9, 38, 80
4, 97681, Note_on_c, 9, 38, 0
4, 97812, Note_on_c, 9, 39, 80
4, 97812, Note_on_c, 9, 49, 80
4, 97831, Note_on_c, 9, 39, 0
4, 97831, Note_on_c, 9, 49, 0
4, 98412, Note_on_c, 9, 36, 80
4, 98412, Note_on_c, 9, 39, 80
4, 98412, Note_on_c, 9, 42, 80
4, 98431, Note_on_c, 9, 36, 0
4, 98431, Note_on_c, 9, 39, 0
4, 98431, Note_on_c, 9, 42, 0
4, 98712, Note_on_c, 9, 42, 80
4, 98731, Note_on_c, 9, 42, 0
4, 99012, Note_on_c, 9, 36, 80
4, 99012, Note_on_c, 9, 38, 80
4, 99012, Note_on_c, 9, 39, 80
4, 99012, Note_on_c, 9, 42, 80
4, 99031, Note_on_c, 9, 36, 0
4, 99031, Note_on_c, 9, 38, 0
4, 99031, Note_on_c, 9, 39, 0
4, 99031, Note_on_c, 9, 42, 0
4, 99312, Note_on_c, 9, 42, 80
4, 99331, Note_on_c, 9, 42, 0
4, 99612, Note_on_c, 9, 36, 80
4, 99612, Note_on_c, 9, 39, 80
4, 99612, Note_on_c, 9, 42, 80
4, 99631, Note_on_c, 9, 36, 0
4, 99631, Note_on_c, 9, 39, 0
4, 99631, Note_on_c, 9, 42, 0
4, 99912, Note_on_c, 9, 42, 80
4, 99931, Note_on_c, 9, 42, 0
4, 100212, Note_on_c, 9, 36, 80
4, 100212, Note_on_c, 9, 38, 80
4, 100212, Note_on_c, 9, 39, 80
4, 100212, Note_on_c, 9, 42, 80
4, 100231, Note_on_c, 9, 36, 0
4, 100231, Note_on_c, 9, 38, 0
4, 100231, Note_on_c, 9, 39, 0
4, 100231, Note_on_c, 9, 42, 0
4, 100512, Note_on_c, 9, 42, 80
4, 100531, Note_on_c, 9, 42, 0
4, 100812, Note_on_c, 9, 36, 80
4, 100812, Note_on_c, 9, 39, 80
4, 100812, Note_on_c, 9, 42, 80
4, 100831, Note_on_c, 9, 36, 0
4, 100831, Note_on_c, 9, 39, 0
4, 100831, Note_on_c, 9, 42, 0
4, 101112, Note_on_c, 9, 42, 80
4, 101131, Note_on_c, 9, 42, 0
4, 101412, Note_on_c, 9, 36, 80
4, 101412, Note_on_c, 9, 38, 80
4, 101412, Note_on_c, 9, 39, 80
4, 101412, Note_on_c, 9, 42, 80
4, 101431, Note_on_c, 9, 36, 0
4, 101431, Note_on_c, 9, 38, 0
4, 101431, Note_on_c, 9, 39, 0
4, 101431, Note_on_c, 9, 42, 0
4, 101712, Note_on_c, 9, 42, 80
4, 101731, Note_on_c, 9, 42, 0
4, 102012, Note_on_c, 9, 36, 80
4, 102012, Note_on_c, 9, 39, 80
4, 102012, Note_on_c, 9, 42, 80
4, 102031, Note_on_c, 9, 36, 0
4, 102031, Note_on_c, 9, 39, 0
4, 102031, Note_on_c, 9, 42, 0
4, 102312, Note_on_c, 9, 42, 80
4, 102331, Note_on_c, 9, 42, 0
4, 102612, Note_on_c, 9, 36, 80
4, 102612, Note_on_c, 9, 38, 80
4, 102612, Note_on_c, 9, 39, 80
4, 102612, Note_on_c, 9, 42, 80
4, 102631, Note_on_c, 9, 36, 0
4, 102631, Note_on_c, 9, 38, 0
4, 102631, Note_on_c, 9, 39, 0
4, 102631, Note_on_c, 9, 42, 0
4, 102912, Note_on_c, 9, 42, 80
4, 102931, Note_on_c, 9, 42, 0
4, 103212, Note_on_c, 9, 36, 80
4, 103212, Note_on_c, 9, 39, 80
4, 103212, Note_on_c, 9, 42, 80
4, 103231, Note_on_c, 9, 36, 0
4, 103231, Note_on_c, 9, 39, 0
4, 103231, Note_on_c, 9, 42, 0
4, 103512, Note_on_c, 9, 42, 80
4, 103531, Note_on_c, 9, 42, 0
4, 103812, Note_on_c, 9, 36, 80
4, 103812, Note_on_c, 9, 38, 80
4, 103812, Note_on_c, 9, 39, 80
4, 103812, Note_on_c, 9, 42, 80
4, 103831, Note_on_c, 9, 36, 0
4, 103831, Note_on_c, 9, 38, 0
4, 103831, Note_on_c, 9, 39, 0
4, 103831, Note_on_c, 9, 42, 0
4, 104112, Note_on_c, 9, 42, 80
4, 104131, Note_on_c, 9, 42, 0
4, 104412, Note_on_c, 9, 36, 80
4, 104412, Note_on_c, 9, 39, 80
4, 104412, Note_on_c, 9, 42, 80
4, 104431, Note_on_c, 9, 36, 0
4, 104431, Note_on_c, 9, 39, 0
4, 104431, Note_on_c, 9, 42, 0
4, 104712, Note_on_c, 9, 42, 80
4, 104731, Note_on_c, 9, 42, 0
4, 105012, Note_on_c, 9, 36, 80
4, 105012, Note_on_c, 9, 38, 80
4, 105012, Note_on_c, 9, 39, 80
4, 105012, Note_on_c, 9, 42, 80
4, 105031, Note_on_c, 9, 36, 0
4, 105031, Note_on_c, 9, 38, 0
4, 105031, Note_on_c, 9, 39, 0
4, 105031, Note_on_c, 9, 42, 0
4, 105312, Note_on_c, 9, 42, 80
4, 105331, Note_on_c, 9, 42, 0
4, 105612, Note_on_c, 9, 36, 80
4, 105612, Note_on_c, 9, 39, 80
4, 105612, Note_on_c, 9, 42, 80
4, 105631, Note_on_c, 9, 36, 0
4, 105631, Note_on_c, 9, 39, 0
4, 105631, Note_on_c, 9, 42, 0
4, 105912, Note_on_c, 9, 42, 80
4, 105931, Note_on_c, 9, 42, 0
4, 106212, Note_on_c, 9, 36, 80
4, 106212, Note_on_c, 9, 38, 80
4, 106212, Note_on_c, 9, 39, 80
4, 106212, Note_on_c, 9, 42, 80
4, 106231, Note_on_c, 9, 36, 0
4, 106231, Note_on_c, 9, 38, 0
4, 106231, Note_on_c, 9, 39, 0
4, 106231, Note_on_c, 9, 42, 0
4, 106512, Note_on_c, 9, 42, 80
4, 106531, Note_on_c, 9, 42, 0
4, 106812, Note_on_c, 9, 36, 80
4, 106812, Note_on_c, 9, 39, 80
4, 106812, Note_on_c, 9, 42, 80
4, 106831, Note_on_c, 9, 36, 0
4, 106831, Note_on_c, 9, 39, 0
4, 106831, Note_on_c, 9, 42, 0
4, 107112, Note_on_c, 9, 42, 80
4, 107131, Note_on_c, 9, 42, 0
4, 107412, Note_on_c, 9, 36, 80
4, 107412, Note_on_c, 9, 38, 80
4, 107412, Note_on_c, 9, 39, 80
4, 107412, Note_on_c, 9, 42, 80
4, 107431, Note_on_c, 9, 36, 0
4, 107431, Note_on_c, 9, 38, 0
4, 107431, Note_on_c, 9, 39, 0
4, 107431, Note_on_c, 9, 42, 0
4, 107712, Note_on_c, 9, 42, 80
4, 107731, Note_on_c, 9, 42, 0
4, 108012, Note_on_c, 9, 36, 80
4, 108012, Note_on_c, 9, 39, 80
4, 108012, Note_on_c, 9, 42, 80
4, 108031, Note_on_c, 9, 36, 0
4, 108031, Note_on_c, 9, 39, 0
4, 108031, Note_on_c, 9, 42, 0
4, 108312, Note_on_c, 9, 42, 80
4, 108331, Note_on_c, 9, 42, 0
4, 108612, Note_on_c, 9, 36, 80
4, 108612, Note_on_c, 9, 38, 80
4, 108612, Note_on_c, 9, 39, 80
4, 108612, Note_on_c, 9, 42, 80
4, 108631, Note_on_c, 9, 36, 0
4, 108631, Note_on_c, 9, 38, 0
4, 108631, Note_on_c, 9, 39, 0
4, 108631, Note_on_c, 9, 42, 0
4, 108912, Note_on_c, 9, 42, 80
4, 108931, Note_on_c, 9, 42, 0
4, 109212, Note_on_c, 9, 36, 80
4, 109212, Note_on_c, 9, 39, 80
4, 109212, Note_on_c, 9, 42, 80
4, 109231, Note_on_c, 9, 36, 0
4, 109231, Note_on_c, 9, 39, 0
4, 109231, Note_on_c, 9, 42, 0
4, 109512, Note_on_c, 9, 42, 80
4, 109531, Note_on_c, 9, 42, 0
4, 109812, Note_on_c, 9, 36, 80
4, 109812, Note_on_c, 9, 38, 80
4, 109812, Note_on_c, 9, 39, 80
4, 109812, Note_on_c, 9, 42, 80
4, 109831, Note_on_c, 9, 36, 0
4, 109831, Note_on_c, 9, 38, 0
4, 109831, Note_on_c, 9, 39, 0
4, 109831, Note_on_c, 9, 42, 0
4, 110112, Note_on_c, 9, 42, 80
4, 110131, Note_on_c, 9, 42, 0
4, 110412, Note_on_c, 9, 36, 80
4, 110412, Note_on_c, 9, 39, 80
4, 110412, Note_on_c, 9, 42, 80
4, 110431, Note_on_c, 9, 36, 0
4, 110431, Note_on_c, 9, 39, 0
4, 110431, Note_on_c, 9, 42, 0
4, 110712, Note_on_c, 9, 42, 80
4, 110731, Note_on_c, 9, 42, 0
4, 111012, Note_on_c, 9, 36, 80
4, 111012, Note_on_c, 9, 38, 80
4, 111012, Note_on_c, 9, 39, 80
4, 111012, Note_on_c, 9, 42, 80
4, 111031, Note_on_c, 9, 36, 0
4, 111031, Note_on_c, 9, 38, 0
4, 111031, Note_on_c, 9, 39, 0
4, 111031, Note_on_c, 9, 42, 0
4, 111312, Note_on_c, 9, 42, 80
4, 111331, Note_on_c, 9, 42, 0
4, 111612, Note_on_c, 9, 36, 80
4, 111612, Note_on_c, 9, 39, 80
4, 111612, Note_on_c, 9, 42, 80
4, 111631, Note_on_c, 9, 36, 0
4, 111631, Note_on_c, 9, 39, 0
4, 111631, Note_on_c, 9, 42, 0
4, 111912, Note_on_c, 9, 42, 80
4, 111931, Note_on_c, 9, 42, 0
4, 112212, Note_on_c, 9, 36, 80
4, 112212, Note_on_c, 9, 38, 80
4, 112212, Note_on_c, 9, 39, 80
4, 112212, Note_on_c, 9, 42, 80
4, 112231, Note_on_c, 9, 36, 0
4, 112231, Note_on_c, 9, 38, 0
4, 112231, Note_on_c, 9, 39, 0
4, 112231, Note_on_c, 9, 42, 0
4, 112512, Note_on_c, 9, 42, 80
4, 112531, Note_on_c, 9, 42, 0
4, 112812, Note_on_c, 9, 36, 80
4, 112812, Note_on_c, 9, 39, 80
4, 112812, Note_on_c, 9, 42, 80
4, 112831, Note_on_c, 9, 36, 0
4, 112831, Note_on_c, 9, 39, 0
4, 112831, Note_on_c, 9, 42, 0
4, 113112, Note_on_c, 9, 42, 80
4, 113131, Note_on_c, 9, 42, 0
4, 113412, Note_on_c, 9, 36, 80
4, 113412, Note_on_c, 9, 38, 80
4, 113412, Note_on_c, 9, 39, 80
4, 113412, Note_on_c, 9, 42, 80
4, 113431, Note_on_c, 9, 36, 0
4, 113431, Note_on_c, 9, 38, 0
4, 113431, Note_on_c, 9, 39, 0
4, 113431, Note_on_c, 9, 42, 0
4, 113712, Note_on_c, 9, 42, 80
4, 113731, Note_on_c, 9, 42, 0
4, 114012, Note_on_c, 9, 36, 80
4, 114012, Note_on_c, 9, 39, 80
4, 114012, Note_on_c, 9, 42, 80
4, 114031, Note_on_c, 9, 36, 0
4, 114031, Note_on_c, 9, 39, 0
4, 114031, Note_on_c, 9, 42, 0
4, 114312, Note_on_c, 9, 42, 80
4, 114331, Note_on_c, 9, 42, 0
4, 114612, Note_on_c, 9, 36, 80
4, 114612, Note_on_c, 9, 38, 80
4, 114612, Note_on_c, 9, 39, 80
4, 114612, Note_on_c, 9, 42, 80
4, 114631, Note_on_c, 9, 36, 0
4, 114631, Note_on_c, 9, 38, 0
4, 114631, Note_on_c, 9, 39, 0
4, 114631, Note_on_c, 9, 42, 0
4, 114912, Note_on_c, 9, 42, 80
4, 114931, Note_on_c, 9, 42, 0
4, 115212, Note_on_c, 9, 36, 80
4, 115212, Note_on_c, 9, 39, 80
4, 115212, Note_on_c, 9, 42, 80
4, 115231, Note_on_c, 9, 36, 0
4, 115231, Note_on_c, 9, 39, 0
4, 115231, Note_on_c, 9, 42, 0
4, 115512, Note_on_c, 9, 42, 80
4, 115531, Note_on_c, 9, 42, 0
4, 115812, Note_on_c, 9, 36, 80
4, 115812, Note_on_c, 9, 38, 80
4, 115812, Note_on_c, 9, 39, 80
4, 115812, Note_on_c, 9, 42, 80
4, 115831, Note_on_c, 9, 36, 0
4, 115831, Note_on_c, 9, 38, 0
4, 115831, Note_on_c, 9, 39, 0
4, 115831, Note_on_c, 9, 42, 0
4, 116112, Note_on_c, 9, 42, 80
4, 116131, Note_on_c, 9, 42, 0
4, 116412, Note_on_c, 9, 36, 80
4, 116412, Note_on_c, 9, 39, 80
4, 116412, Note_on_c, 9, 42, 80
4, 116431, Note_on_c, 9, 36, 0
4, 116431, Note_on_c, 9, 39, 0
4, 116431, Note_on_c, 9, 42, 0
4, 116712, Note_on_c, 9, 42, 80
4, 116731, Note_on_c, 9, 42, 0
4, 117012, Note_on_c, 9, 36, 80
4, 117012, Note_on_c, 9, 38, 80
4, 117012, Note_on_c, 9, 39, 80
4, 117012, Note_on_c, 9, 42, 80
4, 117031, Note_on_c, 9, 36, 0
4, 117031, Note_on_c, 9, 38, 0
4, 117031, Note_on_c, 9, 39, 0
4, 117031, Note_on_c, 9, 42, 0
4, 117312, Note_on_c, 9, 42, 80
4, 117331, Note_on_c, 9, 42, 0
4, 117612, Note_on_c, 9, 36, 80
4, 117631, Note_on_c, 9, 36, 0
4, 118212, Note_on_c, 9, 36, 80
4, 118231, Note_on_c, 9, 36, 0
4, 118812, Note_on_c, 9, 36, 80
4, 118831, Note_on_c, 9, 36, 0
4, 119412, Note_on_c, 9, 36, 80
4, 119431, Note_on_c, 9, 36, 0
4, 120012, Note_on_c, 9, 36, 80
4, 120031, Note_on_c, 9, 36, 0
4, 120612, Note_on_c, 9, 36, 80
4, 120631, Note_on_c, 9, 36, 0
4, 121212, Note_on_c, 9, 36, 80
4, 121231, Note_on_c, 9, 36, 0
4, 121812, Note_on_c, 9, 36, 80
4, 121831, Note_on_c, 9, 36, 0
4, 122412, Note_on_c, 9, 36, 80
4, 122431, Note_on_c, 9, 36, 0
4, 123012, Note_on_c, 9, 36, 80
4, 123031, Note_on_c, 9, 36, 0
4, 123612, Note_on_c, 9, 36, 80
4, 123631, Note_on_c, 9, 36, 0
4, 124212, Note_on_c, 9, 36, 80
4, 124231, Note_on_c, 9, 36, 0
4, 124812, Note_on_c, 9, 36, 80
4, 124831, Note_on_c, 9, 36, 0
4, 125412, Note_on_c, 9, 36, 80
4, 125431, Note_on_c, 9, 36, 0
4, 126012, Note_on_c, 9, 36, 80
4, 126031, Note_on_c, 9, 36, 0
4, 126612, Note_on_c, 9, 36, 80
4, 126631, Note_on_c, 9, 36, 0
4, 127212, Note_on_c, 9, 36, 80
4, 127231, Note_on_c, 9, 36, 0
4, 127812, Note_on_c, 9, 36, 80
4, 127831, Note_on_c, 9, 36, 0
4, 128412, Note_on_c, 9, 36, 80
4, 128431, Note_on_c, 9, 36, 0
4, 129012, Note_on_c, 9, 36, 80
4, 129031, Note_on_c, 9, 36, 0
4, 129612, Note_on_c, 9, 36, 80
4, 129631, Note_on_c, 9, 36, 0
4, 130212, Note_on_c, 9, 36, 80
4, 130231, Note_on_c, 9, 36, 0
4, 130812, Note_on_c, 9, 36, 80
4, 130831, Note_on_c, 9, 36, 0
4, 131412, Note_on_c, 9, 36, 80
4, 131431, Note_on_c, 9, 36, 0
4, 132012, Note_on_c, 9, 36, 80
4, 132031, Note_on_c, 9, 36, 0
4, 132612, Note_on_c, 9, 36, 80
4, 132631, Note_on_c, 9, 36, 0
4, 133212, Note_on_c, 9, 36, 80
4, 133231, Note_on_c, 9, 36, 0
4, 133812, Note_on_c, 9, 36, 80
4, 133831, Note_on_c, 9, 36, 0
4, 134412, Note_on_c, 9, 36, 80
4, 134431, Note_on_c, 9, 36, 0
4, 135012, Note_on_c, 9, 36, 80
4, 135031, Note_on_c, 9, 36, 0
4, 135612, Note_on_c, 9, 36, 80
4, 135631, Note_on_c, 9, 36, 0
4, 136212, Note_on_c, 9, 36, 80
4, 136231, Note_on_c, 9, 36, 0
4, 136812, Note_on_c, 9, 36, 80
4, 136812, Note_on_c, 9, 42, 80
4, 136831, Note_on_c, 9, 36, 0
4, 136831, Note_on_c, 9, 42, 0
4, 137112, Note_on_c, 9, 42, 80
4, 137131, Note_on_c, 9, 42, 0
4, 137412, Note_on_c, 9, 36, 80
4, 137412, Note_on_c, 9, 38, 80
4, 137412, Note_on_c, 9, 42, 80
4, 137431, Note_on_c, 9, 36, 0
4, 137431, Note_on_c, 9, 38, 0
4, 137431, Note_on_c, 9, 42, 0
4, 137712, Note_on_c, 9, 42, 80
4, 137731, Note_on_c, 9, 42, 0
4, 138012, Note_on_c, 9, 36, 80
4, 138012, Note_on_c, 9, 42, 80
4, 138031, Note_on_c, 9, 36, 0
4, 138031, Note_on_c, 9, 42, 0
4, 138312, Note_on_c, 9, 42, 80
4, 138331, Note_on_c, 9, 42, 0
4, 138612, Note_on_c, 9, 36, 80
4, 138612, Note_on_c, 9, 38, 80
4, 138612, Note_on_c, 9, 42, 80
4, 138631, Note_on_c, 9, 36, 0
4, 138631, Note_on_c, 9, 38, 0
4, 138631, Note_on_c, 9, 42, 0
4, 138912, Note_on_c, 9, 42, 80
4, 138931, Note_on_c, 9, 42, 0
4, 139212, Note_on_c, 9, 36, 80
4, 139212, Note_on_c, 9, 42, 80
4, 139231, Note_on_c, 9, 36, 0
4, 139231, Note_on_c, 9, 42, 0
4, 139512, Note_on_c, 9, 42, 80
4, 139531, Note_on_c, 9, 42, 0
4, 139812, Note_on_c, 9, 36, 80
4, 139812, Note_on_c, 9, 38, 80
4, 139812, Note_on_c, 9, 42, 80
4, 139831, Note_on_c, 9, 36, 0
4, 139831, Note_on_c, 9, 38, 0
4, 139831, Note_on_c, 9, 42, 0
4, 140112, Note_on_c, 9, 42, 80
4, 140131, Note_on_c, 9, 42, 0
4, 140412, Note_on_c, 9, 36, 80
4, 140412, Note_on_c, 9, 42, 80
4, 140431, Note_on_c, 9, 36, 0
4, 140431, Note_on_c, 9, 42, 0
4, 140712, Note_on_c, 9, 42, 80
4, 140731, Note_on_c, 9, 42, 0
4, 141012, Note_on_c, 9, 36, 80
4, 141012, Note_on_c, 9, 38, 80
4, 141012, Note_on_c, 9, 42, 80
4, 141031, Note_on_c, 9, 36, 0
4, 141031, Note_on_c, 9, 38, 0
4, 141031, Note_on_c, 9, 42, 0
4, 141312, Note_on_c, 9, 42, 80
4, 141331, Note_on_c, 9, 42, 0
4, 141612, Note_on_c, 9, 36, 80
4, 141612, Note_on_c, 9, 42, 80
4, 141631, Note_on_c, 9, 36, 0
4, 141631, Note_on_c, 9, 42, 0
4, 141912, Note_on_c, 9, 42, 80
4, 141931, Note_on_c, 9, 42, 0
4, 142212, Note_on_c, 9, 36, 80
4, 142212, Note_on_c, 9, 38, 80
4, 142212, Note_on_c, 9, 42, 80
4, 142231, Note_on_c, 9, 36, 0
4, 142231, Note_on_c, 9, 38, 0
4, 142231, Note_on_c, 9, 42, 0
4, 142512, Note_on_c, 9, 42, 80
4, 142531, Note_on_c, 9, 42, 0
4, 142812, Note_on_c, 9, 36, 80
4, 142812, Note_on_c, 9, 42, 80
4, 142831, Note_on_c, 9, 36, 0
4, 142831, Note_on_c, 9, 42, 0
4, 143112, Note_on_c, 9, 42, 80
4, 143131, Note_on_c, 9, 42, 0
4, 143412, Note_on_c, 9, 36, 80
4, 143412, Note_on_c, 9, 38, 80
4, 143412, Note_on_c, 9, 42, 80
4, 143431, Note_on_c, 9, 36, 0
4, 143431, Note_on_c, 9, 38, 0
4, 143431, Note_on_c, 9, 42, 0
4, 143712, Note_on_c, 9, 42, 80
4, 143731, Note_on_c, 9, 42, 0
4, 144012, Note_on_c, 9, 36, 80
4, 144012, Note_on_c, 9, 42, 80
4, 144031, Note_on_c, 9, 36, 0
4, 144031, Note_on_c, 9, 42, 0
4, 144312, Note_on_c, 9, 42, 80
4, 144331, Note_on_c, 9, 42, 0
4, 144612, Note_on_c, 9, 36, 80
4, 144612, Note_on_c, 9, 38, 80
4, 144612, Note_on_c, 9, 42, 80
4, 144631, Note_on_c, 9, 36, 0
4, 144631, Note_on_c, 9, 38, 0
4, 144631, Note_on_c, 9, 42, 0
4, 144912, Note_on_c, 9, 42, 80
4, 144931, Note_on_c, 9, 42, 0
4, 145212, Note_on_c, 9, 36, 80
4, 145212, Note_on_c, 9, 42, 80
4, 145231, Note_on_c, 9, 36, 0
4, 145231, Note_on_c, 9, 42, 0
4, 145512, Note_on_c, 9, 42, 80
4, 145531, Note_on_c, 9, 42, 0
4, 145812, Note_on_c, 9, 36, 80
4, 145812, Note_on_c, 9, 38, 80
4, 145812, Note_on_c, 9, 42, 80
4, 145831, Note_on_c, 9, 36, 0
4, 145831, Note_on_c, 9, 38, 0
4, 145831, Note_on_c, 9, 42, 0
4, 146112, Note_on_c, 9, 42, 80
4, 146131, Note_on_c, 9, 42, 0
4, 146412, Note_on_c, 9, 36, 80
4, 146412, Note_on_c, 9, 40, 80
4, 146412, Note_on_c, 9, 42, 80
4, 146431, Note_on_c, 9, 36, 0
4, 146431, Note_on_c, 9, 40, 0
4, 146431, Note_on_c, 9, 42, 0
4, 146712, Note_on_c, 9, 42, 80
4, 146731, Note_on_c, 9, 42, 0
4, 147012, Note_on_c, 9, 36, 80
4, 147012, Note_on_c, 9, 40, 80
4, 147012, Note_on_c, 9, 42, 80
4, 147031, Note_on_c, 9, 36, 0
4, 147031, Note_on_c, 9, 40, 0
4, 147031, Note_on_c, 9, 42, 0
4, 147312, Note_on_c, 9, 42, 80
4, 147331, Note_on_c, 9, 42, 0
4, 147612, Note_on_c, 9, 36, 80
4, 147612, Note_on_c, 9, 40, 80
4, 147612, Note_on_c, 9, 42, 80
4, 147631, Note_on_c, 9, 36, 0
4, 147631, Note_on_c, 9, 40, 0
4, 147631, Note_on_c, 9, 42, 0
4, 147912, Note_on_c, 9, 42, 80
4, 147931, Note_on_c, 9, 42, 0
4, 148212, Note_on_c, 9, 36, 80
4, 148212, Note_on_c, 9, 40, 80
4, 148212, Note_on_c, 9, 42, 80
4, 148231, Note_on_c, 9, 36, 0
4, 148231, Note_on_c, 9, 40, 0
4, 148231, Note_on_c, 9, 42, 0
4, 148512, Note_on_c, 9, 42, 80
4, 148531, Note_on_c, 9, 42, 0
4, 148812, Note_on_c, 9, 36, 80
4, 148812, Note_on_c, 9, 40, 80
4, 148812, Note_on_c, 9, 42, 80
4, 148831, Note_on_c, 9, 36, 0
4, 148831, Note_on_c, 9, 40, 0
4, 148831, Note_on_c, 9, 42, 0
4, 149112, Note_on_c, 9, 42, 80
4, 149131, Note_on_c, 9, 42, 0
4, 149412, Note_on_c, 9, 36, 80
4, 149412, Note_on_c, 9, 40, 80
4, 149412, Note_on_c, 9, 42, 80
4, 149431, Note_on_c, 9, 36, 0
4, 149431, Note_on_c, 9, 40, 0
4, 149431, Note_on_c, 9, 42, 0
4, 149712, Note_on_c, 9, 42, 80
4, 149731, Note_on_c, 9, 42, 0
4, 150012, Note_on_c, 9, 36, 80
4, 150012, Note_on_c, 9, 40, 80
4, 150012, Note_on_c, 9, 42, 80
4, 150031, Note_on_c, 9, 36, 0
4, 150031, Note_on_c, 9, 40, 0
4, 150031, Note_on_c, 9, 42, 0
4, 150312, Note_on_c, 9, 42, 80
4, 150331, Note_on_c, 9, 42, 0
4, 150612, Note_on_c, 9, 36, 80
4, 150612, Note_on_c, 9, 40, 80
4, 150612, Note_on_c, 9, 42, 80
4, 150631, Note_on_c, 9, 36, 0
4, 150631, Note_on_c, 9, 40, 0
4, 150631, Note_on_c, 9, 42, 0
4, 150912, Note_on_c, 9, 42, 80
4, 150931, Note_on_c, 9, 42, 0
4, 151212, Note_on_c, 9, 36, 80
4, 151212, Note_on_c, 9, 40, 80
4, 151212, Note_on_c, 9, 42, 80
4, 151231, Note_on_c, 9, 36, 0
4, 151231, Note_on_c, 9, 40, 0
4, 151231, Note_on_c, 9, 42, 0
4, 151512, Note_on_c, 9, 38, 80
4, 151512, Note_on_c, 9, 42, 80
4, 151531, Note_on_c, 9, 38, 0
4, 151531, Note_on_c, 9, 42, 0
4, 151812, Note_on_c, 9, 36, 80
4, 151812, Note_on_c, 9, 40, 80
4, 151812, Note_on_c, 9, 42, 80
4, 151831, Note_on_c, 9, 36, 0
4, 151831, Note_on_c, 9, 40, 0
4, 151831, Note_on_c, 9, 42, 0
4, 152112, Note_on_c, 9, 38, 80
4, 152112, Note_on_c, 9, 42, 80
4, 152131, Note_on_c, 9, 38, 0
4, 152131, Note_on_c, 9, 42, 0
4, 152412, Note_on_c, 9, 36, 80
4, 152412, Note_on_c, 9, 40, 80
4, 152412, Note_on_c, 9, 42, 80
4, 152431, Note_on_c, 9, 36, 0
4, 152431, Note_on_c, 9, 40, 0
4, 152431, Note_on_c, 9, 42, 0
4, 152712, Note_on_c, 9, 38, 80
4, 152712, Note_on_c, 9, 42, 80
4, 152731, Note_on_c, 9, 38, 0
4, 152731, Note_on_c, 9, 42, 0
4, 153012, Note_on_c, 9, 36, 80
4, 153012, Note_on_c, 9, 40, 80
4, 153012, Note_on_c, 9, 42, 80
4, 153031, Note_on_c, 9, 36, 0
4, 153031, Note_on_c, 9, 40, 0
4, 153031, Note_on_c, 9, 42, 0
4, 153312, Note_on_c, 9, 38, 80
4, 153312, Note_on_c, 9, 42, 80
4, 153331, Note_on_c, 9, 38, 0
4, 153331, Note_on_c, 9, 42, 0
4, 153612, Note_on_c, 9, 36, 80
4, 153612, Note_on_c, 9, 40, 80
4, 153612, Note_on_c, 9, 42, 80
4, 153631, Note_on_c, 9, 36, 0
4, 153631, Note_on_c, 9, 40, 0
4, 153631, Note_on_c, 9, 42, 0
4, 153762, Note_on_c, 9, 38, 80
4, 153781, Note_on_c, 9, 38, 0
4, 153912, Note_on_c, 9, 40, 80
4, 153912, Note_on_c, 9, 42, 80
4, 153931, Note_on_c, 9, 40, 0
4, 153931, Note_on_c, 9, 42, 0
4, 154062, Note_on_c, 9, 38, 80
4, 154081, Note_on_c, 9, 38, 0
4, 154212, Note_on_c, 9, 36, 80
4, 154212, Note_on_c, 9, 40, 80
4, 154212, Note_on_c, 9, 42, 80
4, 154231, Note_on_c, 9, 36, 0
4, 154231, Note_on_c, 9, 40, 0
4, 154231, Note_on_c, 9, 42, 0
4, 154362, Note_on_c, 9, 38, 80
4, 154381, Note_on_c, 9, 38, 0
4, 154512, Note_on_c, 9, 40, 80
4, 154512, Note_on_c, 9, 42, 80
4, 154531, Note_on_c, 9, 40, 0
4, 154531, Note_on_c, 9, 42, 0
4, 154662, Note_on_c, 9, 38, 80
4, 154681, Note_on_c, 9, 38, 0
4, 154812, Note_on_c, 9, 36, 80
4, 154812, Note_on_c, 9, 40, 80
4, 154812, Note_on_c, 9, 42, 80
4, 154831, Note_on_c, 9, 36, 0
4, 154831, Note_on_c, 9, 40, 0
4, 154831, Note_on_c, 9, 42, 0
4, 154962, Note_on_c, 9, 38, 80
4, 154981, Note_on_c, 9, 38, 0
4, 155112, Note_on_c, 9, 40, 80
4, 155112, Note_on_c, 9, 42, 80
4, 155131, Note_on_c, 9, 40, 0
4, 155131, Note_on_c, 9, 42, 0
4, 155262, Note_on_c, 9, 38, 80
4, 155281, Note_on_c, 9, 38, 0
4, 155412, Note_on_c, 9, 39, 80
4, 155412, Note_on_c, 9, 42, 80
4, 155412, Note_on_c, 9, 49, 80
4, 155431, Note_on_c, 9, 39, 0
4, 155431, Note_on_c, 9, 42, 0
4, 155431, Note_on_c, 9, 49, 0
4, 155712, Note_on_c, 9, 42, 80
4, 155731, Note_on_c, 9, 42, 0
4, 156012, Note_on_c, 9, 36, 80
4, 156012, Note_on_c, 9, 39, 80
4, 156012, Note_on_c, 9, 42, 80
4, 156031, Note_on_c, 9, 36, 0
4, 156031, Note_on_c, 9, 39, 0
4, 156031, Note_on_c, 9, 42, 0
4, 156312, Note_on_c, 9, 42, 80
4, 156331, Note_on_c, 9, 42, 0
4, 156612, Note_on_c, 9, 36, 80
4, 156612, Note_on_c, 9, 38, 80
4, 156612, Note_on_c, 9, 39, 80
4, 156612, Note_on_c, 9, 42, 80
4, 156631, Note_on_c, 9, 36, 0
4, 156631, Note_on_c, 9, 38, 0
4, 156631, Note_on_c, 9, 39, 0
4, 156631, Note_on_c, 9, 42, 0
4, 156912, Note_on_c, 9, 42, 80
4, 156931, Note_on_c, 9, 42, 0
4, 157212, Note_on_c, 9, 36, 80
4, 157212, Note_on_c, 9, 39, 80
4, 157212, Note_on_c, 9, 42, 80
4, 157231, Note_on_c, 9, 36, 0
4, 157231, Note_on_c, 9, 39, 0
4, 157231, Note_on_c, 9, 42, 0
4, 157512, Note_on_c, 9, 42, 80
4, 157531, Note_on_c, 9, 42, 0
4, 157812, Note_on_c, 9, 36, 80
4, 157812, Note_on_c, 9, 38, 80
4, 157812, Note_on_c, 9, 39, 80
4, 157812, Note_on_c, 9, 42, 80
4, 157831, Note_on_c, 9, 36, 0
4, 157831, Note_on_c, 9, 38, 0
4, 157831, Note_on_c, 9, 39, 0
4, 157831, Note_on_c, 9, 42, 0
4, 158112, Note_on_c, 9, 42, 80
4, 158131, Note_on_c, 9, 42, 0
4, 158412, Note_on_c, 9, 36, 80
4, 158412, Note_on_c, 9, 39, 80
4, 158412, Note_on_c, 9, 42, 80
4, 158431, Note_on_c, 9, 36, 0
4, 158431, Note_on_c, 9, 39, 0
4, 158431, Note_on_c, 9, 42, 0
4, 158712, Note_on_c, 9, 42, 80
4, 158731, Note_on_c, 9, 42, 0
4, 159012, Note_on_c, 9, 36, 80
4, 159012, Note_on_c, 9, 38, 80
4, 159012, Note_on_c, 9, 39, 80
4, 159012, Note_on_c, 9, 42, 80
4, 159031, Note_on_c, 9, 36, 0
4, 159031, Note_on_c, 9, 38, 0
4, 159031, Note_on_c, 9, 39, 0
4, 159031, Note_on_c, 9, 42, 0
4, 159312, Note_on_c, 9, 42, 80
4, 159331, Note_on_c, 9, 42, 0
4, 159612, Note_on_c, 9, 36, 80
4, 159612, Note_on_c, 9, 39, 80
4, 159612, Note_on_c, 9, 42, 80
4, 159631, Note_on_c, 9, 36, 0
4, 159631, Note_on_c, 9, 39, 0
4, 159631, Note_on_c, 9, 42, 0
4, 159912, Note_on_c, 9, 42, 80
4, 159931, Note_on_c, 9, 42, 0
4, 160212, Note_on_c, 9, 36, 80
4, 160212, Note_on_c, 9, 38, 80
4, 160212, Note_on_c, 9, 39, 80
4, 160212, Note_on_c, 9, 42, 80
4, 160231, Note_on_c, 9, 36, 0
4, 160231, Note_on_c, 9, 38, 0
4, 160231, Note_on_c, 9, 39, 0
4, 160231, Note_on_c, 9, 42, 0
4, 160512, Note_on_c, 9, 42, 80
4, 160531, Note_on_c, 9, 42, 0
4, 160812, Note_on_c, 9, 36, 80
4, 160812, Note_on_c, 9, 39, 80
4, 160812, Note_on_c, 9, 42, 80
4, 160831, Note_on_c, 9, 36, 0
4, 160831, Note_on_c, 9, 39, 0
4, 160831, Note_on_c, 9, 42, 0
4, 161112, Note_on_c, 9, 42, 80
4, 161131, Note_on_c, 9, 42, 0
4, 161412, Note_on_c, 9, 36, 80
4, 161412, Note_on_c, 9, 38, 80
4, 161412, Note_on_c, 9, 39, 80
4, 161412, Note_on_c, 9, 42, 80
4, 161431, Note_on_c, 9, 36, 0
4, 161431, Note_on_c, 9, 38, 0
4, 161431, Note_on_c, 9, 39, 0
4, 161431, Note_on_c, 9, 42, 0
4, 161712, Note_on_c, 9, 42, 80
4, 161731, Note_on_c, 9, 42, 0
4, 162012, Note_on_c, 9, 36, 80
4, 162012, Note_on_c, 9, 39, 80
4, 162012, Note_on_c, 9, 42, 80
4, 162031, Note_on_c, 9, 36, 0
4, 162031, Note_on_c, 9, 39, 0
4, 162031, Note_on_c, 9, 42, 0
4, 162312, Note_on_c, 9, 42, 80
4, 162331, Note_on_c, 9, 42, 0
4, 162612, Note_on_c, 9, 36, 80
4, 162612, Note_on_c, 9, 38, 80
4, 162612, Note_on_c, 9, 39, 80
4, 162612, Note_on_c, 9, 42, 80
4, 162631, Note_on_c, 9, 36, 0
4, 162631, Note_on_c, 9, 38, 0
4, 162631, Note_on_c, 9, 39, 0
4, 162631, Note_on_c, 9, 42, 0
4, 162912, Note_on_c, 9, 42, 80
4, 162931, Note_on_c, 9, 42, 0
4, 163212, Note_on_c, 9, 36, 80
4, 163212, Note_on_c, 9, 39, 80
4, 163212, Note_on_c, 9, 42, 80
4, 163231, Note_on_c, 9, 36, 0
4, 163231, Note_on_c, 9, 39, 0
4, 163231, Note_on_c, 9, 42, 0
4, 163512, Note_on_c, 9, 42, 80
4, 163531, Note_on_c, 9, 42, 0
4, 163812, Note_on_c, 9, 36, 80
4, 163812, Note_on_c, 9, 38, 80
4, 163812, Note_on_c, 9, 39, 80
4, 163812, Note_on_c, 9, 42, 80
4, 163831, Note_on_c, 9, 36, 0
4, 163831, Note_on_c, 9, 38, 0
4, 163831, Note_on_c, 9, 39, 0
4, 163831, Note_on_c, 9, 42, 0
4, 164112, Note_on_c, 9, 42, 80
4, 164131, Note_on_c, 9, 42, 0
4, 164412, Note_on_c, 9, 36, 80
4, 164412, Note_on_c, 9, 39, 80
4, 164412, Note_on_c, 9, 42, 80
4, 164431, Note_on_c, 9, 36, 0
4, 164431, Note_on_c, 9, 39, 0
4, 164431, Note_on_c, 9, 42, 0
4, 164712, Note_on_c, 9, 42, 80
4, 164731, Note_on_c, 9, 42, 0
4, 165012, Note_on_c, 9, 36, 80
4, 165012, Note_on_c, 9, 38, 80
4, 165012, Note_on_c, 9, 39, 80
4, 165012, Note_on_c, 9, 42, 80
4, 165031, Note_on_c, 9, 36, 0
4, 165031, Note_on_c, 9, 38, 0
4, 165031, Note_on_c, 9, 39, 0
4, 165031, Note_on_c, 9, 42, 0
4, 165312, Note_on_c, 9, 42, 80
4, 165331, Note_on_c, 9, 42, 0
4, 165612, Note_on_c, 9, 36, 80
4, 165612, Note_on_c, 9, 39, 80
4, 165612, Note_on_c, 9, 42, 80
4, 165631, Note_on_c, 9, 36, 0
4, 165631, Note_on_c, 9, 39, 0
4, 165631, Note_on_c, 9, 42, 0
4, 165912, Note_on_c, 9, 42, 80
4, 165931, Note_on_c, 9, 42, 0
4, 166212, Note_on_c, 9, 36, 80
4, 166212, Note_on_c, 9, 38, 80
4, 166212, Note_on_c, 9, 39, 80
4, 166212, Note_on_c, 9, 42, 80
4, 166231, Note_on_c, 9, 36, 0
4, 166231, Note_on_c, 9, 38, 0
4, 166231, Note_on_c, 9, 39, 0
4, 166231, Note_on_c, 9, 42, 0
4, 166512, Note_on_c, 9, 42, 80
4, 166531, Note_on_c, 9, 42, 0
4, 166812, Note_on_c, 9, 36, 80
4, 166812, Note_on_c, 9, 39, 80
4, 166812, Note_on_c, 9, 42, 80
4, 166831, Note_on_c, 9, 36, 0
4, 166831, Note_on_c, 9, 39, 0
4, 166831, Note_on_c, 9, 42, 0
4, 167112, Note_on_c, 9, 42, 80
4, 167131, Note_on_c, 9, 42, 0
4, 167412, Note_on_c, 9, 36, 80
4, 167412, Note_on_c, 9, 38, 80
4, 167412, Note_on_c, 9, 39, 80
4, 167412, Note_on_c, 9, 42, 80
4, 167431, Note_on_c, 9, 36, 0
4, 167431, Note_on_c, 9, 38, 0
4, 167431, Note_on_c, 9, 39, 0
4, 167431, Note_on_c, 9, 42, 0
4, 167712, Note_on_c, 9, 42, 80
4, 167731, Note_on_c, 9, 42, 0
4, 168012, Note_on_c, 9, 36, 80
4, 168012, Note_on_c, 9, 39, 80
4, 168012, Note_on_c, 9, 42, 80
4, 168031, Note_on_c, 9, 36, 0
4, 168031, Note_on_c, 9, 39, 0
4, 168031, Note_on_c, 9, 42, 0
4, 168312, Note_on_c, 9, 42, 80
4, 168331, Note_on_c, 9, 42, 0
4, 168612, Note_on_c, 9, 36, 80
4, 168612, Note_on_c, 9, 38, 80
4, 168612, Note_on_c, 9, 39, 80
4, 168612, Note_on_c, 9, 42, 80
4, 168631, Note_on_c, 9, 36, 0
4, 168631, Note_on_c, 9, 38, 0
4, 168631, Note_on_c, 9, 39, 0
4, 168631, Note_on_c, 9, 42, 0
4, 168912, Note_on_c, 9, 42, 80
4, 168931, Note_on_c, 9, 42, 0
4, 169212, Note_on_c, 9, 36, 80
4, 169212, Note_on_c, 9, 39, 80
4, 169212, Note_on_c, 9, 42, 80
4, 169231, Note_on_c, 9, 36, 0
4, 169231, Note_on_c, 9, 39, 0
4, 169231, Note_on_c, 9, 42, 0
4, 169512, Note_on_c, 9, 42, 80
4, 169531, Note_on_c, 9, 42, 0
4, 169812, Note_on_c, 9, 36, 80
4, 169812, Note_on_c, 9, 38, 80
4, 169812, Note_on_c, 9, 39, 80
4, 169812, Note_on_c, 9, 42, 80
4, 169831, Note_on_c, 9, 36, 0
4, 169831, Note_on_c, 9, 38, 0
4, 169831, Note_on_c, 9, 39, 0
4, 169831, Note_on_c, 9, 42, 0
4, 170112, Note_on_c, 9, 42, 80
4, 170131, Note_on_c, 9, 42, 0
4, 170412, Note_on_c, 9, 36, 80
4, 170412, Note_on_c, 9, 39, 80
4, 170412, Note_on_c, 9, 42, 80
4, 170431, Note_on_c, 9, 36, 0
4, 170431, Note_on_c, 9, 39, 0
4, 170431, Note_on_c, 9, 42, 0
4, 170712, Note_on_c, 9, 42, 80
4, 170731, Note_on_c, 9, 42, 0
4, 171012, Note_on_c, 9, 36, 80
4, 171012, Note_on_c, 9, 38, 80
4, 171012, Note_on_c, 9, 39, 80
4, 171012, Note_on_c, 9, 42, 80
4, 171031, Note_on_c, 9, 36, 0
4, 171031, Note_on_c, 9, 38, 0
4, 171031, Note_on_c, 9, 39, 0
4, 171031, Note_on_c, 9, 42, 0
4, 171312, Note_on_c, 9, 42, 80
4, 171331, Note_on_c, 9, 42, 0
4, 171612, Note_on_c, 9, 36, 80
4, 171612, Note_on_c, 9, 39, 80
4, 171612, Note_on_c, 9, 42, 80
4, 171631, Note_on_c, 9, 36, 0
4, 171631, Note_on_c, 9, 39, 0
4, 171631, Note_on_c, 9, 42, 0
4, 171912, Note_on_c, 9, 42, 80
4, 171931, Note_on_c, 9, 42, 0
4, 172212, Note_on_c, 9, 36, 80
4, 172212, Note_on_c, 9, 38, 80
4, 172212, Note_on_c, 9, 39, 80
4, 172212, Note_on_c, 9, 42, 80
4, 172231, Note_on_c, 9, 36, 0
4, 172231, Note_on_c, 9, 38, 0
4, 172231, Note_on_c, 9, 39, 0
4, 172231, Note_on_c, 9, 42, 0
4, 172512, Note_on_c, 9, 42, 80
4, 172531, Note_on_c, 9, 42, 0
4, 172812, Note_on_c, 9, 36, 80
4, 172812, Note_on_c, 9, 39, 80
4, 172812, Note_on_c, 9, 42, 80
4, 172831, Note_on_c, 9, 36, 0
4, 172831, Note_on_c, 9, 39, 0
4, 172831, Note_on_c, 9, 42, 0
4, 173112, Note_on_c, 9, 42, 80
4, 173131, Note_on_c, 9, 42, 0
4, 173412, Note_on_c, 9, 36, 80
4, 173412, Note_on_c, 9, 38, 80
4, 173412, Note_on_c, 9, 39, 80
4, 173412, Note_on_c, 9, 42, 80
4, 173431, Note_on_c, 9, 36, 0
4, 173431, Note_on_c, 9, 38, 0
4, 173431, Note_on_c, 9, 39, 0
4, 173431, Note_on_c, 9, 42, 0
4, 173712, Note_on_c, 9, 42, 80
4, 173731, Note_on_c, 9, 42, 0
4, 174012, Note_on_c, 9, 36, 80
4, 174012, Note_on_c, 9, 39, 80
4, 174012, Note_on_c, 9, 42, 80
4, 174031, Note_on_c, 9, 36, 0
4, 174031, Note_on_c, 9, 39, 0
4, 174031, Note_on_c, 9, 42, 0
4, 174312, Note_on_c, 9, 42, 80
4, 174331, Note_on_c, 9, 42, 0
4, 174612, Note_on_c, 9, 36, 80
4, 174612, Note_on_c, 9, 38, 80
4, 174612, Note_on_c, 9, 39, 80
4, 174612, Note_on_c, 9, 42, 80
4, 174631, Note_on_c, 9, 36, 0
4, 174631, Note_on_c, 9, 38, 0
4, 174631, Note_on_c, 9, 39, 0
4, 174631, Note_on_c, 9, 42, 0
4, 174912, Note_on_c, 9, 42, 80
4, 174931, Note_on_c, 9, 42, 0
4, 175212, Note_on_c, 9, 36, 80
4, 175212, Note_on_c, 9, 39, 80
4, 175212, Note_on_c, 9, 42, 80
4, 175231, Note_on_c, 9, 36, 0
4, 175231, Note_on_c, 9, 39, 0
4, 175231, Note_on_c, 9, 42, 0
4, 175512, Note_on_c, 9, 42, 80
4, 175531, Note_on_c, 9, 42, 0
4, 175812, Note_on_c, 9, 36, 80
4, 175812, Note_on_c, 9, 38, 80
4, 175812, Note_on_c, 9, 39, 80
4, 175812, Note_on_c, 9, 42, 80
4, 175831, Note_on_c, 9, 36, 0
4, 175831, Note_on_c, 9, 38, 0
4, 175831, Note_on_c, 9, 39, 0
4, 175831, Note_on_c, 9, 42, 0
4, 176112, Note_on_c, 9, 42, 80
4, 176131, Note_on_c, 9, 42, 0
4, 176412, Note_on_c, 9, 36, 80
4, 176412, Note_on_c, 9, 39, 80
4, 176412, Note_on_c, 9, 42, 80
4, 176431, Note_on_c, 9, 36, 0
4, 176431, Note_on_c, 9, 39, 0
4, 176431, Note_on_c, 9, 42, 0
4, 176712, Note_on_c, 9, 42, 80
4, 176731, Note_on_c, 9, 42, 0
4, 177012, Note_on_c, 9, 36, 80
4, 177012, Note_on_c, 9, 38, 80
4, 177012, Note_on_c, 9, 39, 80
4, 177012, Note_on_c, 9, 42, 80
4, 177031, Note_on_c, 9, 36, 0
4, 177031, Note_on_c, 9, 38, 0
4, 177031, Note_on_c, 9, 39, 0
4, 177031, Note_on_c, 9, 42, 0
4, 177312, Note_on_c, 9, 42, 80
4, 177331, Note_on_c, 9, 42, 0
4, 177612, Note_on_c, 9, 36, 80
4, 177612, Note_on_c, 9, 39, 80
4, 177612, Note_on_c, 9, 42, 80
4, 177631, Note_on_c, 9, 36, 0
4, 177631, Note_on_c, 9, 39, 0
4, 177631, Note_on_c, 9, 42, 0
4, 177912, Note_on_c, 9, 42, 80
4, 177931, Note_on_c, 9, 42, 0
4, 178212, Note_on_c, 9, 36, 80
4, 178212, Note_on_c, 9, 38, 80
4, 178212, Note_on_c, 9, 39, 80
4, 178212, Note_on_c, 9, 42, 80
4, 178231, Note_on_c, 9, 36, 0
4, 178231, Note_on_c, 9, 38, 0
4, 178231, Note_on_c, 9, 39, 0
4, 178231, Note_on_c, 9, 42, 0
4, 178512, Note_on_c, 9, 42, 80
4, 178531, Note_on_c, 9, 42, 0
4, 178812, Note_on_c, 9, 36, 80
4, 178812, Note_on_c, 9, 39, 80
4, 178812, Note_on_c, 9, 42, 80
4, 178831, Note_on_c, 9, 36, 0
4, 178831, Note_on_c, 9, 39, 0
4, 178831, Note_on_c, 9, 42, 0
4, 179112, Note_on_c, 9, 42, 80
4, 179131, Note_on_c, 9, 42, 0
4, 179412, Note_on_c, 9, 36, 80
4, 179412, Note_on_c, 9, 38, 80
4, 179412, Note_on_c, 9, 39, 80
4, 179412, Note_on_c, 9, 42, 80
4, 179431, Note_on_c, 9, 36, 0
4, 179431, Note_on_c, 9, 38, 0
4, 179431, Note_on_c, 9, 39, 0
4, 179431, Note_on_c, 9, 42, 0
4, 179712, Note_on_c, 9, 42, 80
4, 179731, Note_on_c, 9, 42, 0
4, 180012, Note_on_c, 9, 36, 80
4, 180012, Note_on_c, 9, 39, 80
4, 180012, Note_on_c, 9, 42, 80
4, 180031, Note_on_c, 9, 36, 0
4, 180031, Note_on_c, 9, 39, 0
4, 180031, Note_on_c, 9, 42, 0
4, 180312, Note_on_c, 9, 42, 80
4, 180331, Note_on_c, 9, 42, 0
4, 180612, Note_on_c, 9, 36, 80
4, 180612, Note_on_c, 9, 38, 80
4, 180612, Note_on_c, 9, 39, 80
4, 180612, Note_on_c, 9, 42, 80
4, 180631, Note_on_c, 9, 36, 0
4, 180631, Note_on_c, 9, 38, 0
4, 180631, Note_on_c, 9, 39, 0
4, 180631, Note_on_c, 9, 42, 0
4, 180912, Note_on_c, 9, 42, 80
4, 180931, Note_on_c, 9, 42, 0
4, 181212, Note_on_c, 9, 36, 80
4, 181212, Note_on_c, 9, 39, 80
4, 181212, Note_on_c, 9, 42, 80
4, 181231, Note_on_c, 9, 36, 0
4, 181231, Note_on_c, 9, 39, 0
4, 181231, Note_on_c, 9, 42, 0
4, 181512, Note_on_c, 9, 42, 80
4, 181531, Note_on_c, 9, 42, 0
4, 181812, Note_on_c, 9, 36, 80
4, 181812, Note_on_c, 9, 38, 80
4, 181812, Note_on_c, 9, 39, 80
4, 181812, Note_on_c, 9, 42, 80
4, 181831, Note_on_c, 9, 36, 0
4, 181831, Note_on_c, 9, 38, 0
4, 181831, Note_on_c, 9, 39, 0
4, 181831, Note_on_c, 9, 42, 0
4, 182112, Note_on_c, 9, 42, 80
4, 182131, Note_on_c, 9, 42, 0
4, 182412, Note_on_c, 9, 36, 80
4, 182412, Note_on_c, 9, 39, 80
4, 182412, Note_on_c, 9, 42, 80
4, 182431, Note_on_c, 9, 36, 0
4, 182431, Note_on_c, 9, 39, 0
4, 182431, Note_on_c, 9, 42, 0
4, 182712, Note_on_c, 9, 42, 80
4, 182731, Note_on_c, 9, 42, 0
4, 183012, Note_on_c, 9, 36, 80
4, 183012, Note_on_c, 9, 38, 80
4, 183012, Note_on_c, 9, 39, 80
4, 183012, Note_on_c, 9, 42, 80
4, 183031, Note_on_c, 9, 36, 0
4, 183031, Note_on_c, 9, 38, 0
4, 183031, Note_on_c, 9, 39, 0
4, 183031, Note_on_c, 9, 42, 0
4, 183312, Note_on_c, 9, 42, 80
4, 183331, Note_on_c, 9, 42, 0
4, 183612, Note_on_c, 9, 36, 80
4, 183612, Note_on_c, 9, 39, 80
4, 183612, Note_on_c, 9, 42, 80
4, 183631, Note_on_c, 9, 36, 0
4, 183631, Note_on_c, 9, 39, 0
4, 183631, Note_on_c, 9, 42, 0
4, 183912, Note_on_c, 9, 42, 80
4, 183931, Note_on_c, 9, 42, 0
4, 184212, Note_on_c, 9, 36, 80
4, 184212, Note_on_c, 9, 38, 80
4, 184212, Note_on_c, 9, 39, 80
4, 184212, Note_on_c, 9, 42, 80
4, 184231, Note_on_c, 9, 36, 0
4, 184231, Note_on_c, 9, 38, 0
4, 184231, Note_on_c, 9, 39, 0
4, 184231, Note_on_c, 9, 42, 0
4, 184512, Note_on_c, 9, 42, 80
4, 184531, Note_on_c, 9, 42, 0
4, 184812, Note_on_c, 9, 36, 80
4, 184812, Note_on_c, 9, 39, 80
4, 184812, Note_on_c, 9, 40, 80
4, 184812, Note_on_c, 9, 42, 80
4, 184831, Note_on_c, 9, 36, 0
4, 184831, Note_on_c, 9, 39, 0
4, 184831, Note_on_c, 9, 40, 0
4, 184831, Note_on_c, 9, 42, 0
4, 185112, Note_on_c, 9, 42, 80
4, 185131, Note_on_c, 9, 42, 0
4, 185412, Note_on_c, 9, 36, 80
4, 185412, Note_on_c, 9, 39, 80
4, 185412, Note_on_c, 9, 40, 80
4, 185412, Note_on_c, 9, 42, 80
4, 185431, Note_on_c, 9, 36, 0
4, 185431, Note_on_c, 9, 39, 0
4, 185431, Note_on_c, 9, 40, 0
4, 185431, Note_on_c, 9, 42, 0
4, 185712, Note_on_c, 9, 42, 80
4, 185731, Note_on_c, 9, 42, 0
4, 186012, Note_on_c, 9, 36, 80
4, 186012, Note_on_c, 9, 39, 80
4, 186012, Note_on_c, 9, 40, 80
4, 186012, Note_on_c, 9, 42, 80
4, 186031, Note_on_c, 9, 36, 0
4, 186031, Note_on_c, 9, 39, 0
4, 186031, Note_on_c, 9, 40, 0
4, 186031, Note_on_c, 9, 42, 0
4, 186312, Note_on_c, 9, 42, 80
4, 186331, Note_on_c, 9, 42, 0
4, 186612, Note_on_c, 9, 36, 80
4, 186612, Note_on_c, 9, 39, 80
4, 186612, Note_on_c, 9, 40, 80
4, 186612, Note_on_c, 9, 42, 80
4, 186631, Note_on_c, 9, 36, 0
4, 186631, Note_on_c, 9, 39, 0
4, 186631, Note_on_c, 9, 40, 0
4, 186631, Note_on_c, 9, 42, 0
4, 186912, Note_on_c, 9, 42, 80
4, 186931, Note_on_c, 9, 42, 0
4, 187212, Note_on_c, 9, 36, 80
4, 187212, Note_on_c, 9, 39, 80
4, 187212, Note_on_c, 9, 40, 80
4, 187212, Note_on_c, 9, 42, 80
4, 187231, Note_on_c, 9, 36, 0
4, 187231, Note_on_c, 9, 39, 0
4, 187231, Note_on_c, 9, 40, 0
4, 187231, Note_on_c, 9, 42, 0
4, 187512, Note_on_c, 9, 42, 80
4, 187531, Note_on_c, 9, 42, 0
4, 187812, Note_on_c, 9, 36, 80
4, 187812, Note_on_c, 9, 39, 80
4, 187812, Note_on_c, 9, 40, 80
4, 187812, Note_on_c, 9, 42, 80
4, 187831, Note_on_c, 9, 36, 0
4, 187831, Note_on_c, 9, 39, 0
4, 187831, Note_on_c, 9, 40, 0
4, 187831, Note_on_c, 9, 42, 0
4, 188112, Note_on_c, 9, 42, 80
4, 188131, Note_on_c, 9, 42, 0
4, 188412, Note_on_c, 9, 36, 80
4, 188412, Note_on_c, 9, 39, 80
4, 188412, Note_on_c, 9, 40, 80
4, 188412, Note_on_c, 9, 42, 80
4, 188431, Note_on_c, 9, 36, 0
4, 188431, Note_on_c, 9, 39, 0
4, 188431, Note_on_c, 9, 40, 0
4, 188431, Note_on_c, 9, 42, 0
4, 188712, Note_on_c, 9, 42, 80
4, 188731, Note_on_c, 9, 42, 0
4, 189012, Note_on_c, 9, 36, 80
4, 189012, Note_on_c, 9, 39, 80
4, 189012, Note_on_c, 9, 40, 80
4, 189012, Note_on_c, 9, 42, 80
4, 189031, Note_on_c, 9, 36, 0
4, 189031, Note_on_c, 9, 39, 0
4, 189031, Note_on_c, 9, 40, 0
4, 189031, Note_on_c, 9, 42, 0
4, 189312, Note_on_c, 9, 42, 80
4, 189331, Note_on_c, 9, 42, 0
4, 189612, Note_on_c, 9, 36, 80
4, 189612, Note_on_c, 9, 39, 80
4, 189612, Note_on_c, 9, 40, 80
4, 189612, Note_on_c, 9, 42, 80
4, 189631, Note_on_c, 9, 36, 0
4, 189631, Note_on_c, 9, 39, 0
4, 189631, Note_on_c, 9, 40, 0
4, 189631, Note_on_c, 9, 42, 0
4, 189912, Note_on_c, 9, 38, 80
4, 189912, Note_on_c, 9, 42, 80
4, 189931, Note_on_c, 9, 38, 0
4, 189931, Note_on_c, 9, 42, 0
4, 190212, Note_on_c, 9, 36, 80
4, 190212, Note_on_c, 9, 39, 80
4, 190212, Note_on_c, 9, 40, 80
4, 190212, Note_on_c, 9, 42, 80
4, 190231, Note_on_c, 9, 36, 0
4, 190231, Note_on_c, 9, 39, 0
4, 190231, Note_on_c, 9, 40, 0
4, 190231, Note_on_c, 9, 42, 0
4, 190512, Note_on_c, 9, 38, 80
4, 190512, Note_on_c, 9, 42, 80
4, 190531, Note_on_c, 9, 38, 0
4, 190531, Note_on_c, 9, 42, 0
4, 190812, Note_on_c, 9, 36, 80
4, 190812, Note_on_c, 9, 39, 80
4, 190812, Note_on_c, 9, 40, 80
4, 190812, Note_on_c, 9, 42, 80
4, 190831, Note_on_c, 9, 36, 0
4, 190831, Note_on_c, 9, 39, 0
4, 190831, Note_on_c, 9, 40, 0
4, 190831, Note_on_c, 9, 42, 0
4, 191112, Note_on_c, 9, 38, 80
4, 191112, Note_on_c, 9, 42, 80
4, 191131, Note_on_c, 9, 38, 0
4, 191131, Note_on_c, 9, 42, 0
4, 191412, Note_on_c, 9, 36, 80
4, 191412, Note_on_c, 9, 39, 80
4, 191412, Note_on_c, 9, 40, 80
4, 191412, Note_on_c, 9, 42, 80
4, 191431, Note_on_c, 9, 36, 0
4, 191431, Note_on_c, 9, 39, 0
4, 191431, Note_on_c, 9, 40, 0
4, 191431, Note_on_c, 9, 42, 0
4, 191712, Note_on_c, 9, 38, 80
4, 191712, Note_on_c, 9, 42, 80
4, 191731, Note_on_c, 9, 38, 0
4, 191731, Note_on_c, 9, 42, 0
4, 192012, Note_on_c, 9, 36, 80
4, 192012, Note_on_c, 9, 39, 80
4, 192012, Note_on_c, 9, 40, 80
4, 192012, Note_on_c, 9, 42, 80
4, 192031, Note_on_c, 9, 36, 0
4, 192031, Note_on_c, 9, 39, 0
4, 192031, Note_on_c, 9, 40, 0
4, 192031, Note_on_c, 9, 42, 0
4, 192162, Note_on_c, 9, 38, 80
4, 192181, Note_on_c, 9, 38, 0
4, 192312, Note_on_c, 9, 40, 80
4, 192312, Note_on_c, 9, 42, 80
4, 192331, Note_on_c, 9, 40, 0
4, 192331, Note_on_c, 9, 42, 0
4, 192462, Note_on_c, 9, 38, 80
4, 192481, Note_on_c, 9, 38, 0
4, 192612, Note_on_c, 9, 36, 80
4, 192612, Note_on_c, 9, 39, 80
4, 192612, Note_on_c, 9, 40, 80
4, 192612, Note_on_c, 9, 42, 80
4, 192631, Note_on_c, 9, 36, 0
4, 192631, Note_on_c, 9, 39, 0
4, 192631, Note_on_c, 9, 40, 0
4, 192631, Note_on_c, 9, 42, 0
4, 192762, Note_on_c, 9, 38, 80
4, 192781, Note_on_c, 9, 38, 0
4, 192912, Note_on_c, 9, 40, 80
4, 192912, Note_on_c, 9, 42, 80
4, 192931, Note_on_c, 9, 40, 0
4, 192931, Note_on_c, 9, 42, 0
4, 193062, Note_on_c, 9, 38, 80
4, 193081, Note_on_c, 9, 38, 0
4, 193212, Note_on_c, 9, 36, 80
4, 193212, Note_on_c, 9, 39, 80
4, 193212, Note_on_c, 9, 40, 80
4, 193212, Note_on_c, 9, 42, 80
4, 193231, Note_on_c, 9, 36, 0
4, 193231, Note_on_c, 9, 39, 0
4, 193231, Note_on_c, 9, 40, 0
4, 193231, Note_on_c, 9, 42, 0
4, 193362, Note_on_c, 9, 38, 80
4, 193381, Note_on_c, 9, 38, 0
4, 193512, Note_on_c, 9, 40, 80
4, 193512, Note_on_c, 9, 42, 80
4, 193531, Note_on_c, 9, 40, 0
4, 193531, Note_on_c, 9, 42, 0
4, 193662, Note_on_c, 9, 38, 80
4, 193681, Note_on_c, 9, 38, 0
4, 193812, Note_on_c, 9, 39, 80
4, 193812, Note_on_c, 9, 42, 80
4, 193812, Note_on_c, 9, 49, 80
4, 193831, Note_on_c, 9, 39, 0
4, 193831, Note_on_c, 9, 42, 0
4, 193831, Note_on_c, 9, 49, 0
4, 194112, Note_on_c, 9, 42, 80
4, 194131, Note_on_c, 9, 42, 0
4, 194412, Note_on_c, 9, 36, 80
4, 194412, Note_on_c, 9, 39, 80
4, 194412, Note_on_c, 9, 42, 80
4, 194431, Note_on_c, 9, 36, 0
4, 194431, Note_on_c, 9, 39, 0
4, 194431, Note_on_c, 9, 42, 0
4, 194712, Note_on_c, 9, 42, 80
4, 194731, Note_on_c, 9, 42, 0
4, 195012, Note_on_c, 9, 36, 80
4, 195012, Note_on_c, 9, 38, 80
4, 195012, Note_on_c, 9, 39, 80
4, 195012, Note_on_c, 9, 42, 80
4, 195031, Note_on_c, 9, 36, 0
4, 195031, Note_on_c, 9, 38, 0
4, 195031, Note_on_c, 9, 39, 0
4, 195031, Note_on_c, 9, 42, 0
4, 195312, Note_on_c, 9, 42, 80
4, 195331, Note_on_c, 9, 42, 0
4, 195612, Note_on_c, 9, 36, 80
4, 195612, Note_on_c, 9, 39, 80
4, 195612, Note_on_c, 9, 42, 80
4, 195631, Note_on_c, 9, 36, 0
4, 195631, Note_on_c, 9, 39, 0
4, 195631, Note_on_c, 9, 42, 0
4, 195912, Note_on_c, 9, 42, 80
4, 195931, Note_on_c, 9, 42, 0
4, 196212, Note_on_c, 9, 36, 80
4, 196212, Note_on_c, 9, 38, 80
4, 196212, Note_on_c, 9, 39, 80
4, 196212, Note_on_c, 9, 42, 80
4, 196231, Note_on_c, 9, 36, 0
4, 196231, Note_on_c, 9, 38, 0
4, 196231, Note_on_c, 9, 39, 0
4, 196231, Note_on_c, 9, 42, 0
4, 196512, Note_on_c, 9, 42, 80
4, 196531, Note_on_c, 9, 42, 0
4, 196812, Note_on_c, 9, 36, 80
4, 196812, Note_on_c, 9, 39, 80
4, 196812, Note_on_c, 9, 42, 80
4, 196831, Note_on_c, 9, 36, 0
4, 196831, Note_on_c, 9, 39, 0
4, 196831, Note_on_c, 9, 42, 0
4, 197112, Note_on_c, 9, 42, 80
4, 197131, Note_on_c, 9, 42, 0
4, 197412, Note_on_c, 9, 36, 80
4, 197412, Note_on_c, 9, 38, 80
4, 197412, Note_on_c, 9, 39, 80
4, 197412, Note_on_c, 9, 42, 80
4, 197431, Note_on_c, 9, 36, 0
4, 197431, Note_on_c, 9, 38, 0
4, 197431, Note_on_c, 9, 39, 0
4, 197431, Note_on_c, 9, 42, 0
4, 197712, Note_on_c, 9, 42, 80
4, 197731, Note_on_c, 9, 42, 0
4, 198012, Note_on_c, 9, 36, 80
4, 198012, Note_on_c, 9, 39, 80
4, 198012, Note_on_c, 9, 42, 80
4, 198031, Note_on_c, 9, 36, 0
4, 198031, Note_on_c, 9, 39, 0
4, 198031, Note_on_c, 9, 42, 0
4, 198312, Note_on_c, 9, 42, 80
4, 198331, Note_on_c, 9, 42, 0
4, 198612, Note_on_c, 9, 36, 80
4, 198612, Note_on_c, 9, 38, 80
4, 198612, Note_on_c, 9, 39, 80
4, 198612, Note_on_c, 9, 42, 80
4, 198631, Note_on_c, 9, 36, 0
4, 198631, Note_on_c, 9, 38, 0
4, 198631, Note_on_c, 9, 39, 0
4, 198631, Note_on_c, 9, 42, 0
4, 198912, Note_on_c, 9, 42, 80
4, 198931, Note_on_c, 9, 42, 0
4, 199212, Note_on_c, 9, 36, 80
4, 199212, Note_on_c, 9, 39, 80
4, 199212, Note_on_c, 9, 42, 80
4, 199231, Note_on_c, 9, 36, 0
4, 199231, Note_on_c, 9, 39, 0
4, 199231, Note_on_c, 9, 42, 0
4, 199512, Note_on_c, 9, 42, 80
4, 199531, Note_on_c, 9, 42, 0
4, 199812, Note_on_c, 9, 36, 80
4, 199812, Note_on_c, 9, 38, 80
4, 199812, Note_on_c, 9, 39, 80
4, 199812, Note_on_c, 9, 42, 80
4, 199831, Note_on_c, 9, 36, 0
4, 199831, Note_on_c, 9, 38, 0
4, 199831, Note_on_c, 9, 39, 0
4, 199831, Note_on_c, 9, 42, 0
4, 200112, Note_on_c, 9, 42, 80
4, 200131, Note_on_c, 9, 42, 0
4, 200412, Note_on_c, 9, 36, 80
4, 200412, Note_on_c, 9, 39, 80
4, 200412, Note_on_c, 9, 42, 80
4, 200431, Note_on_c, 9, 36, 0
4, 200431, Note_on_c, 9, 39, 0
4, 200431, Note_on_c, 9, 42, 0
4, 200712, Note_on_c, 9, 42, 80
4, 200731, Note_on_c, 9, 42, 0
4, 201012, Note_on_c, 9, 36, 80
4, 201012, Note_on_c, 9, 38, 80
4, 201012, Note_on_c, 9, 39, 80
4, 201012, Note_on_c, 9, 42, 80
4, 201031, Note_on_c, 9, 36, 0
4, 201031, Note_on_c, 9, 38, 0
4, 201031, Note_on_c, 9, 39, 0
4, 201031, Note_on_c, 9, 42, 0
4, 201312, Note_on_c, 9, 42, 80
4, 201331, Note_on_c, 9, 42, 0
4, 201612, Note_on_c, 9, 36, 80
4, 201612, Note_on_c, 9, 39, 80
4, 201612, Note_on_c, 9, 42, 80
4, 201631, Note_on_c, 9, 36, 0
4, 201631, Note_on_c, 9, 39, 0
4, 201631, Note_on_c, 9, 42, 0
4, 201912, Note_on_c, 9, 42, 80
4, 201931, Note_on_c, 9, 42, 0
4, 202212, Note_on_c, 9, 36, 80
4, 202212, Note_on_c, 9, 38, 80
4, 202212, Note_on_c, 9, 39, 80
4, 202212, Note_on_c, 9, 42, 80
4, 202231, Note_on_c, 9, 36, 0
4, 202231, Note_on_c, 9, 38, 0
4, 202231, Note_on_c, 9, 39, 0
4, 202231, Note_on_c, 9, 42, 0
4, 202512, Note_on_c, 9, 42, 80
4, 202531, Note_on_c, 9, 42, 0
4, 202812, Note_on_c, 9, 36, 80
4, 202812, Note_on_c, 9, 39, 80
4, 202812, Note_on_c, 9, 42, 80
4, 202831, Note_on_c, 9, 36, 0
4, 202831, Note_on_c, 9, 39, 0
4, 202831, Note_on_c, 9, 42, 0
4, 203112, Note_on_c, 9, 42, 80
4, 203131, Note_on_c, 9, 42, 0
4, 203412, Note_on_c, 9, 36, 80
4, 203412, Note_on_c, 9, 38, 80
4, 203412, Note_on_c, 9, 39, 80
4, 203412, Note_on_c, 9, 42, 80
4, 203431, Note_on_c, 9, 36, 0
4, 203431, Note_on_c, 9, 38, 0
4, 203431, Note_on_c, 9, 39, 0
4, 203431, Note_on_c, 9, 42, 0
4, 203712, Note_on_c, 9, 42, 80
4, 203731, Note_on_c, 9, 42, 0
4, 204012, Note_on_c, 9, 36, 80
4, 204012, Note_on_c, 9, 39, 80
4, 204012, Note_on_c, 9, 42, 80
4, 204031, Note_on_c, 9, 36, 0
4, 204031, Note_on_c, 9, 39, 0
4, 204031, Note_on_c, 9, 42, 0
4, 204312, Note_on_c, 9, 42, 80
4, 204331, Note_on_c, 9, 42, 0
4, 204612, Note_on_c, 9, 36, 80
4, 204612, Note_on_c, 9, 38, 80
4, 204612, Note_on_c, 9, 39, 80
4, 204612, Note_on_c, 9, 42, 80
4, 204631, Note_on_c, 9, 36, 0
4, 204631, Note_on_c, 9, 38, 0
4, 204631, Note_on_c, 9, 39, 0
4, 204631, Note_on_c, 9, 42, 0
4, 204912, Note_on_c, 9, 42, 80
4, 204931, Note_on_c, 9, 42, 0
4, 205212, Note_on_c, 9, 36, 80
4, 205212, Note_on_c, 9, 39, 80
4, 205212, Note_on_c, 9, 42, 80
4, 205231, Note_on_c, 9, 36, 0
4, 205231, Note_on_c, 9, 39, 0
4, 205231, Note_on_c, 9, 42, 0
4, 205512, Note_on_c, 9, 42, 80
4, 205531, Note_on_c, 9, 42, 0
4, 205812, Note_on_c, 9, 36, 80
4, 205812, Note_on_c, 9, 38, 80
4, 205812, Note_on_c, 9, 39, 80
4, 205812, Note_on_c, 9, 42, 80
4, 205831, Note_on_c, 9, 36, 0
4, 205831, Note_on_c, 9, 38, 0
4, 205831, Note_on_c, 9, 39, 0
4, 205831, Note_on_c, 9, 42, 0
4, 206112, Note_on_c, 9, 42, 80
4, 206131, Note_on_c, 9, 42, 0
4, 206412, Note_on_c, 9, 36, 80
4, 206412, Note_on_c, 9, 39, 80
4, 206412, Note_on_c, 9, 42, 80
4, 206431, Note_on_c, 9, 36, 0
4, 206431, Note_on_c, 9, 39, 0
4, 206431, Note_on_c, 9, 42, 0
4, 206712, Note_on_c, 9, 42, 80
4, 206731, Note_on_c, 9, 42, 0
4, 207012, Note_on_c, 9, 36, 80
4, 207012, Note_on_c, 9, 38, 80
4, 207012, Note_on_c, 9, 39, 80
4, 207012, Note_on_c, 9, 42, 80
4, 207031, Note_on_c, 9, 36, 0
4, 207031, Note_on_c, 9, 38, 0
4, 207031, Note_on_c, 9, 39, 0
4, 207031, Note_on_c, 9, 42, 0
4, 207312, Note_on_c, 9, 42, 80
4, 207331, Note_on_c, 9, 42, 0
4, 207612, Note_on_c, 9, 36, 80
4, 207612, Note_on_c, 9, 39, 80
4, 207612, Note_on_c, 9, 42, 80
4, 207631, Note_on_c, 9, 36, 0
4, 207631, Note_on_c, 9, 39, 0
4, 207631, Note_on_c, 9, 42, 0
4, 207912, Note_on_c, 9, 42, 80
4, 207931, Note_on_c, 9, 42, 0
4, 208212, Note_on_c, 9, 36, 80
4, 208212, Note_on_c, 9, 38, 80
4, 208212, Note_on_c, 9, 39, 80
4, 208212, Note_on_c, 9, 42, 80
4, 208231, Note_on_c, 9, 36, 0
4, 208231, Note_on_c, 9, 38, 0
4, 208231, Note_on_c, 9, 39, 0
4, 208231, Note_on_c, 9, 42, 0
4, 208512, Note_on_c, 9, 42, 80
4, 208531, Note_on_c, 9, 42, 0
4, 208812, Note_on_c, 9, 36, 80
4, 208812, Note_on_c, 9, 39, 80
4, 208812, Note_on_c, 9, 42, 80
4, 208831, Note_on_c, 9, 36, 0
4, 208831, Note_on_c, 9, 39, 0
4, 208831, Note_on_c, 9, 42, 0
4, 209112, Note_on_c, 9, 42, 80
4, 209131, Note_on_c, 9, 42, 0
4, 209412, Note_on_c, 9, 36, 80
4, 209412, Note_on_c, 9, 38, 80
4, 209412, Note_on_c, 9, 39, 80
4, 209412, Note_on_c, 9, 42, 80
4, 209431, Note_on_c, 9, 36, 0
4, 209431, Note_on_c, 9, 38, 0
4, 209431, Note_on_c, 9, 39, 0
4, 209431, Note_on_c, 9, 42, 0
4, 209712, Note_on_c, 9, 42, 80
4, 209731, Note_on_c, 9, 42, 0
4, 210012, Note_on_c, 9, 36, 80
4, 210012, Note_on_c, 9, 39, 80
4, 210012, Note_on_c, 9, 42, 80
4, 210031, Note_on_c, 9, 36, 0
4, 210031, Note_on_c, 9, 39, 0
4, 210031, Note_on_c, 9, 42, 0
4, 210312, Note_on_c, 9, 42, 80
4, 210331, Note_on_c, 9, 42, 0
4, 210612, Note_on_c, 9, 36, 80
4, 210612, Note_on_c, 9, 38, 80
4, 210612, Note_on_c, 9, 39, 80
4, 210612, Note_on_c, 9, 42, 80
4, 210631, Note_on_c, 9, 36, 0
4, 210631, Note_on_c, 9, 38, 0
4, 210631, Note_on_c, 9, 39, 0
4, 210631, Note_on_c, 9, 42, 0
4, 210912, Note_on_c, 9, 42, 80
4, 210931, Note_on_c, 9, 42, 0
4, 211212, Note_on_c, 9, 36, 80
4, 211212, Note_on_c, 9, 39, 80
4, 211212, Note_on_c, 9, 42, 80
4, 211231, Note_on_c, 9, 36, 0
4, 211231, Note_on_c, 9, 39, 0
4, 211231, Note_on_c, 9, 42, 0
4, 211512, Note_on_c, 9, 42, 80
4, 211531, Note_on_c, 9, 42, 0
4, 211812, Note_on_c, 9, 36, 80
4, 211812, Note_on_c, 9, 38, 80
4, 211812, Note_on_c, 9, 39, 80
4, 211812, Note_on_c, 9, 42, 80
4, 211831, Note_on_c, 9, 36, 0
4, 211831, Note_on_c, 9, 38, 0
4, 211831, Note_on_c, 9, 39, 0
4, 211831, Note_on_c, 9, 42, 0
4, 212112, Note_on_c, 9, 42, 80
4, 212131, Note_on_c, 9, 42, 0
4, 212412, Note_on_c, 9, 36, 80
4, 212412, Note_on_c, 9, 39, 80
4, 212412, Note_on_c, 9, 42, 80
4, 212431, Note_on_c, 9, 36, 0
4, 212431, Note_on_c, 9, 39, 0
4, 212431, Note_on_c, 9, 42, 0
4, 212712, Note_on_c, 9, 42, 80
4, 212731, Note_on_c, 9, 42, 0
4, 213012, Note_on_c, 9, 36, 80
4, 213012, Note_on_c, 9, 38, 80
4, 213012, Note_on_c, 9, 39, 80
4, 213012, Note_on_c, 9, 42, 80
4, 213031, Note_on_c, 9, 36, 0
4, 213031, Note_on_c, 9, 38, 0
4, 213031, Note_on_c, 9, 39, 0
4, 213031, Note_on_c, 9, 42, 0
4, 213312, Note_on_c, 9, 42, 80
4, 213331, Note_on_c, 9, 42, 0
4, 213612, Note_on_c, 9, 36, 80
4, 213612, Note_on_c, 9, 42, 80
4, 213631, Note_on_c, 9, 36, 0
4, 213631, Note_on_c, 9, 42, 0
4, 213912, Note_on_c, 9, 42, 80
4, 213931, Note_on_c, 9, 42, 0
4, 214212, Note_on_c, 9, 36, 80
4, 214212, Note_on_c, 9, 38, 80
4, 214212, Note_on_c, 9, 42, 80
4, 214231, Note_on_c, 9, 36, 0
4, 214231, Note_on_c, 9, 38, 0
4, 214231, Note_on_c, 9, 42, 0
4, 214512, Note_on_c, 9, 42, 80
4, 214531, Note_on_c, 9, 42, 0
4, 214812, Note_on_c, 9, 36, 80
4, 214812, Note_on_c, 9, 42, 80
4, 214831, Note_on_c, 9, 36, 0
4, 214831, Note_on_c, 9, 42, 0
4, 215112, Note_on_c, 9, 42, 80
4, 215131, Note_on_c, 9, 42, 0
4, 215412, Note_on_c, 9, 36, 80
4, 215412, Note_on_c, 9, 38, 80
4, 215412, Note_on_c, 9, 42, 80
4, 215431, Note_on_c, 9, 36, 0
4, 215431, Note_on_c, 9, 38, 0
4, 215431, Note_on_c, 9, 42, 0
4, 215712, Note_on_c, 9, 42, 80
4, 215731, Note_on_c, 9, 42, 0
4, 216012, Note_on_c, 9, 36, 80
4, 216012, Note_on_c, 9, 42, 80
4, 216031, Note_on_c, 9, 36, 0
4, 216031, Note_on_c, 9, 42, 0
4, 216312, Note_on_c, 9, 42, 80
4, 216331, Note_on_c, 9, 42, 0
4, 216612, Note_on_c, 9, 36, 80
4, 216612, Note_on_c, 9, 38, 80
4, 216612, Note_on_c, 9, 42, 80
4, 216631, Note_on_c, 9, 36, 0
4, 216631, Note_on_c, 9, 38, 0
4, 216631, Note_on_c, 9, 42, 0
4, 216912, Note_on_c, 9, 42, 80
4, 216931, Note_on_c, 9, 42, 0
4, 217212, Note_on_c, 9, 36, 80
4, 217212, Note_on_c, 9, 42, 80
4, 217231, Note_on_c, 9, 36, 0
4, 217231, Note_on_c, 9, 42, 0
4, 217512, Note_on_c, 9, 42, 80
4, 217531, Note_on_c, 9, 42, 0
4, 217812, Note_on_c, 9, 36, 80
4, 217812, Note_on_c, 9, 38, 80
4, 217812, Note_on_c, 9, 42, 80
4, 217831, Note_on_c, 9, 36, 0
4, 217831, Note_on_c, 9, 38, 0
4, 217831, Note_on_c, 9, 42, 0
4, 218112, Note_on_c, 9, 42, 80
4, 218131, Note_on_c, 9, 42, 0
4, 218412, Note_on_c, 9, 36, 80
4, 218412, Note_on_c, 9, 42, 80
4, 218431, Note_on_c, 9, 36, 0
4, 218431, Note_on_c, 9, 42, 0
4, 218712, Note_on_c, 9, 42, 80
4, 218731, Note_on_c, 9, 42, 0
4, 219012, Note_on_c, 9, 36, 80
4, 219012, Note_on_c, 9, 38, 80
4, 219012, Note_on_c, 9, 42, 80
4, 219031, Note_on_c, 9, 36, 0
4, 219031, Note_on_c, 9, 38, 0
4, 219031, Note_on_c, 9, 42, 0
4, 219312, Note_on_c, 9, 42, 80
4, 219331, Note_on_c, 9, 42, 0
4, 219612, Note_on_c, 9, 36, 80
4, 219612, Note_on_c, 9, 42, 80
4, 219631, Note_on_c, 9, 36, 0
4, 219631, Note_on_c, 9, 42, 0
4, 219912, Note_on_c, 9, 42, 80
4, 219931, Note_on_c, 9, 42, 0
4, 220212, Note_on_c, 9, 36, 80
4, 220212, Note_on_c, 9, 38, 80
4, 220212, Note_on_c, 9, 42, 80
4, 220231, Note_on_c, 9, 36, 0
4, 220231, Note_on_c, 9, 38, 0
4, 220231, Note_on_c, 9, 42, 0
4, 220512, Note_on_c, 9, 42, 80
4, 220531, Note_on_c, 9, 42, 0
4, 220812, Note_on_c, 9, 36, 80
4, 220812, Note_on_c, 9, 42, 80
4, 220831, Note_on_c, 9, 36, 0
4, 220831, Note_on_c, 9, 42, 0
4, 221112, Note_on_c, 9, 42, 80
4, 221131, Note_on_c, 9, 42, 0
4, 221412, Note_on_c, 9, 36, 80
4, 221412, Note_on_c, 9, 38, 80
4, 221412, Note_on_c, 9, 42, 80
4, 221431, Note_on_c, 9, 36, 0
4, 221431, Note_on_c, 9, 38, 0
4, 221431, Note_on_c, 9, 42, 0
4, 221712, Note_on_c, 9, 42, 80
4, 221731, Note_on_c, 9, 42, 0
4, 222012, Note_on_c, 9, 36, 80
4, 222012, Note_on_c, 9, 42, 80
4, 222031, Note_on_c, 9, 36, 0
4, 222031, Note_on_c, 9, 42, 0
4, 222312, Note_on_c, 9, 42, 80
4, 222331, Note_on_c, 9, 42, 0
4, 222612, Note_on_c, 9, 36, 80
4, 222612, Note_on_c, 9, 38, 80
4, 222612, Note_on_c, 9, 42, 80
4, 222631, Note_on_c, 9, 36, 0
4, 222631, Note_on_c, 9, 38, 0
4, 222631, Note_on_c, 9, 42, 0
4, 222912, Note_on_c, 9, 42, 80
4, 222931, Note_on_c, 9, 42, 0
4, 223212, Note_on_c, 9, 36, 80
4, 223212, Note_on_c, 9, 42, 80
4, 223231, Note_on_c, 9, 36, 0
4, 223231, Note_on_c, 9, 42, 0
4, 223512, Note_on_c, 9, 42, 80
4, 223531, Note_on_c, 9, 42, 0
4, 223812, Note_on_c, 9, 36, 80
4, 223812, Note_on_c, 9, 38, 80
4, 223812, Note_on_c, 9, 42, 80
4, 223831, Note_on_c, 9, 36, 0
4, 223831, Note_on_c, 9, 38, 0
4, 223831, Note_on_c, 9, 42, 0
4, 224112, Note_on_c, 9, 42, 80
4, 224131, Note_on_c, 9, 42, 0
4, 224412, Note_on_c, 9, 36, 80
4, 224412, Note_on_c, 9, 42, 80
4, 224431, Note_on_c, 9, 36, 0
4, 224431, Note_on_c, 9, 42, 0
4, 224712, Note_on_c, 9, 42, 80
4, 224731, Note_on_c, 9, 42, 0
4, 225012, Note_on_c, 9, 36, 80
4, 225012, Note_on_c, 9, 38, 80
4, 225012, Note_on_c, 9, 42, 80
4, 225031, Note_on_c, 9, 36, 0
4, 225031, Note_on_c, 9, 38, 0
4, 225031, Note_on_c, 9, 42, 0
4, 225312, Note_on_c, 9, 42, 80
4, 225331, Note_on_c, 9, 42, 0
4, 225612, Note_on_c, 9, 36, 80
4, 225612, Note_on_c, 9, 42, 80
4, 225631, Note_on_c, 9, 36, 0
4, 225631, Note_on_c, 9, 42, 0
4, 225912, Note_on_c, 9, 42, 80
4, 225931, Note_on_c, 9, 42, 0
4, 226212, Note_on_c, 9, 36, 80
4, 226212, Note_on_c, 9, 38, 80
4, 226212, Note_on_c, 9, 42, 80
4, 226231, Note_on_c, 9, 36, 0
4, 226231, Note_on_c, 9, 38, 0
4, 226231, Note_on_c, 9, 42, 0
4, 226512, Note_on_c, 9, 42, 80
4, 226531, Note_on_c, 9, 42, 0
4, 226812, Note_on_c, 9, 36, 80
4, 226812, Note_on_c, 9, 42, 80
4, 226831, Note_on_c, 9, 36, 0
4, 226831, Note_on_c, 9, 42, 0
4, 227112, Note_on_c, 9, 42, 80
4, 227131, Note_on_c, 9, 42, 0
4, 227412, Note_on_c, 9, 36, 80
4, 227412, Note_on_c, 9, 38, 80
4, 227412, Note_on_c, 9, 42, 80
4, 227431, Note_on_c, 9, 36, 0
4, 227431, Note_on_c, 9, 38, 0
4, 227431, Note_on_c, 9, 42, 0
4, 227712, Note_on_c, 9, 42, 80
4, 227731, Note_on_c, 9, 42, 0
4, 228012, Note_on_c, 9, 36, 80
4, 228012, Note_on_c, 9, 42, 80
4, 228031, Note_on_c, 9, 36, 0
4, 228031, Note_on_c, 9, 42, 0
4, 228312, Note_on_c, 9, 42, 80
4, 228331, Note_on_c, 9, 42, 0
4, 228612, Note_on_c, 9, 36, 80
4, 228612, Note_on_c, 9, 38, 80
4, 228612, Note_on_c, 9, 42, 80
4, 228631, Note_on_c, 9, 36, 0
4, 228631, Note_on_c, 9, 38, 0
4, 228631, Note_on_c, 9, 42, 0
4, 228912, Note_on_c, 9, 42, 80
4, 228931, Note_on_c, 9, 42, 0
4, 229212, Note_on_c, 9, 36, 80
4, 229212, Note_on_c, 9, 42, 80
4, 229231, Note_on_c, 9, 36, 0
4, 229231, Note_on_c, 9, 42, 0
4, 229512, Note_on_c, 9, 42, 80
4, 229531, Note_on_c, 9, 42, 0
4, 229812, Note_on_c, 9, 36, 80
4, 229812, Note_on_c, 9, 38, 80
4, 229812, Note_on_c, 9, 42, 80
4, 229831, Note_on_c, 9, 36, 0
4, 229831, Note_on_c, 9, 38, 0
4, 229831, Note_on_c, 9, 42, 0
4, 230112, Note_on_c, 9, 42, 80
4, 230131, Note_on_c, 9, 42, 0
4, 230412, Note_on_c, 9, 36, 80
4, 230412, Note_on_c, 9, 42, 80
4, 230431, Note_on_c, 9, 36, 0
4, 230431, Note_on_c, 9, 42, 0
4, 230712, Note_on_c, 9, 42, 80
4, 230731, Note_on_c, 9, 42, 0
4, 231012, Note_on_c, 9, 36, 80
4, 231012, Note_on_c, 9, 38, 80
4, 231012, Note_on_c, 9, 42, 80
4, 231031, Note_on_c, 9, 36, 0
4, 231031, Note_on_c, 9, 38, 0
4, 231031, Note_on_c, 9, 42, 0
4, 231312, Note_on_c, 9, 42, 80
4, 231331, Note_on_c, 9, 42, 0
4, 231612, Note_on_c, 9, 36, 80
4, 231612, Note_on_c, 9, 42, 80
4, 231631, Note_on_c, 9, 36, 0
4, 231631, Note_on_c, 9, 42, 0
4, 231912, Note_on_c, 9, 42, 80
4, 231931, Note_on_c, 9, 42, 0
4, 232212, Note_on_c, 9, 36, 80
4, 232212, Note_on_c, 9, 38, 80
4, 232212, Note_on_c, 9, 42, 80
4, 232231, Note_on_c, 9, 36, 0
4, 232231, Note_on_c, 9, 38, 0
4, 232231, Note_on_c, 9, 42, 0
4, 232512, Note_on_c, 9, 42, 80
4, 232531, Note_on_c, 9, 42, 0
4, 232812, Note_on_c, 9, 36, 80
4, 232812, Note_on_c, 9, 42, 80
4, 232831, Note_on_c, 9, 36, 0
4, 232831, Note_on_c, 9, 42, 0
4, 233112, Note_on_c, 9, 38, 80
4, 233112, Note_on_c, 9, 42, 80
4, 233131, Note_on_c, 9, 38, 0
4, 233131, Note_on_c, 9, 42, 0
4, 233412, Note_on_c, 9, 36, 80
4, 233412, Note_on_c, 9, 42, 80
4, 233431, Note_on_c, 9, 36, 0
4, 233431, Note_on_c, 9, 42, 0
4, 233712, Note_on_c, 9, 38, 80
4, 233712, Note_on_c, 9, 42, 80
4, 233731, Note_on_c, 9, 38, 0
4, 233731, Note_on_c, 9, 42, 0
4, 234012, Note_on_c, 9, 36, 80
4, 234012, Note_on_c, 9, 42, 80
4, 234031, Note_on_c, 9, 36, 0
4, 234031, Note_on_c, 9, 42, 0
4, 234312, Note_on_c, 9, 38, 80
4, 234312, Note_on_c, 9, 42, 80
4, 234331, Note_on_c, 9, 38, 0
4, 234331, Note_on_c, 9, 42, 0
4, 234612, Note_on_c, 9, 36, 80
4, 234612, Note_on_c, 9, 42, 80
4, 234631, Note_on_c, 9, 36, 0
4, 234631, Note_on_c, 9, 42, 0
4, 234912, Note_on_c, 9, 38, 80
4, 234912, Note_on_c, 9, 42, 80
4, 234931, Note_on_c, 9, 38, 0
4, 234931, Note_on_c, 9, 42, 0
4, 235212, Note_on_c, 9, 36, 80
4, 235212, Note_on_c, 9, 38, 80
4, 235212, Note_on_c, 9, 42, 80
4, 235231, Note_on_c, 9, 36, 0
4, 235231, Note_on_c, 9, 38, 0
4, 235231, Note_on_c, 9, 42, 0
4, 235362, Note_on_c, 9, 42, 80
4, 235381, Note_on_c, 9, 42, 0
4, 235512, Note_on_c, 9, 38, 80
4, 235512, Note_on_c, 9, 42, 80
4, 235531, Note_on_c, 9, 38, 0
4, 235531, Note_on_c, 9, 42, 0
4, 235662, Note_on_c, 9, 42, 80
4, 235681, Note_on_c, 9, 42, 0
4, 235812, Note_on_c, 9, 36, 80
4, 235812, Note_on_c, 9, 38, 80
4, 235812, Note_on_c, 9, 42, 80
4, 235831, Note_on_c, 9, 36, 0
4, 235831, Note_on_c, 9, 38, 0
4, 235831, Note_on_c, 9, 42, 0
4, 235962, Note_on_c, 9, 42, 80
4, 235981, Note_on_c, 9, 42, 0
4, 236112, Note_on_c, 9, 38, 80
4, 236112, Note_on_c, 9, 42, 80
4, 236131, Note_on_c, 9, 38, 0
4, 236131, Note_on_c, 9, 42, 0
4, 236262, Note_on_c, 9, 42, 80
4, 236281, Note_on_c, 9, 42, 0
4, 236412, Note_on_c, 9, 36, 80
4, 236412, Note_on_c, 9, 38, 80
4, 236412, Note_on_c, 9, 42, 80
4, 236431, Note_on_c, 9, 36, 0
4, 236431, Note_on_c, 9, 38, 0
4, 236431, Note_on_c, 9, 42, 0
4, 236562, Note_on_c, 9, 42, 80
4, 236581, Note_on_c, 9, 42, 0
4, 236712, Note_on_c, 9, 38, 80
4, 236712, Note_on_c, 9, 42, 80
4, 236731, Note_on_c, 9, 38, 0
4, 236731, Note_on_c, 9, 42, 0
4, 236862, Note_on_c, 9, 42, 80
4, 236881, Note_on_c, 9, 42, 0
4, 237012, Note_on_c, 9, 36, 80
4, 237012, Note_on_c, 9, 38, 80
4, 237012, Note_on_c, 9, 39, 80
4, 237012, Note_on_c, 9, 42, 80
4, 237031, Note_on_c, 9, 36, 0
4, 237031, Note_on_c, 9, 38, 0
4, 237031, Note_on_c, 9, 39, 0
4, 237031, Note_on_c, 9, 42, 0
4, 237162, Note_on_c, 9, 42, 80
4, 237181, Note_on_c, 9, 42, 0
4, 237312, Note_on_c, 9, 38, 80
4, 237312, Note_on_c, 9, 42, 80
4, 237331, Note_on_c, 9, 38, 0
4, 237331, Note_on_c, 9, 42, 0
4, 237462, Note_on_c, 9, 42, 80
4, 237481, Note_on_c, 9, 42, 0
4, 237612, Note_on_c, 9, 39, 80
4, 237631, Note_on_c, 9, 39, 0
4, 238212, Note_on_c, 9, 39, 80
4, 238231, Note_on_c, 9, 39, 0
4, 238812, Note_on_c, 9, 39, 80
4, 238831, Note_on_c, 9, 39, 0
4, 239412, Note_on_c, 9, 39, 80
4, 239431, Note_on_c, 9, 39, 0
4, 240012, Note_on_c, 9, 39, 80
4, 240031, Note_on_c, 9, 39, 0
4, 240612, Note_on_c, 9, 39, 80
4, 240631, Note_on_c, 9, 39, 0
4, 241212, Note_on_c, 9, 39, 80
4, 241231, Note_on_c, 9, 39, 0
4, 241812, Note_on_c, 9, 39, 80
4, 241831, Note_on_c, 9, 39, 0
4, 242412, Note_on_c, 9, 39, 80
4, 242431, Note_on_c, 9, 39, 0
4, 243012, Note_on_c, 9, 39, 80
4, 243031, Note_on_c, 9, 39, 0
4, 243612, Note_on_c, 9, 39, 80
4, 243631, Note_on_c, 9, 39, 0
4, 244212, Note_on_c, 9, 39, 80
4, 244231, Note_on_c, 9, 39, 0
4, 244812, Note_on_c, 9, 39, 80
4, 244831, Note_on_c, 9, 39, 0
4, 245412, Note_on_c, 9, 39, 80
4, 245431, Note_on_c, 9, 39, 0
4, 246012, Note_on_c, 9, 39, 80
4, 246031, Note_on_c, 9, 39, 0
4, 246612, Note_on_c, 9, 39, 80
4, 246631, Note_on_c, 9, 39, 0
4, 247212, Note_on_c, 9, 39, 80
4, 247231, Note_on_c, 9, 39, 0
4, 247812, Note_on_c, 9, 39, 80
4, 247831, Note_on_c, 9, 39, 0
4, 248412, Note_on_c, 9, 39, 80
4, 248431, Note_on_c, 9, 39, 0
4, 249012, Note_on_c, 9, 39, 80
4, 249031, Note_on_c, 9, 39, 0
4, 249612, Note_on_c, 9, 39, 80
4, 249631, Note_on_c, 9, 39, 0
4, 250212, Note_on_c, 9, 39, 80
4, 250231, Note_on_c, 9, 39, 0
4, 250812, Note_on_c, 9, 39, 80
4, 250831, Note_on_c, 9, 39, 0
4, 251412, Note_on_c, 9, 39, 80
4, 251431, Note_on_c, 9, 39, 0
4, 252012, Note_on_c, 9, 39, 80
4, 252031, Note_on_c, 9, 39, 0
4, 252612, Note_on_c, 9, 39, 80
4, 252631, Note_on_c, 9, 39, 0
4, 253212, Note_on_c, 9, 39, 80
4, 253231, Note_on_c, 9, 39, 0
4, 253812, Note_on_c, 9, 39, 80
4, 253831, Note_on_c, 9, 39, 0
4, 254412, Note_on_c, 9, 39, 80
4, 254431, Note_on_c, 9, 39, 0
4, 255012, Note_on_c, 9, 39, 80
4, 255031, Note_on_c, 9, 39, 0
4, 255612, Note_on_c, 9, 39, 80
4, 255631, Note_on_c, 9, 39, 0
4, 256212, Note_on_c, 9, 39, 80
4, 256231, Note_on_c, 9, 39, 0
4, 256812, Note_on_c, 9, 39, 80
4, 256831, Note_on_c, 9, 39, 0
4, 257412, Note_on_c, 9, 39, 80
4, 257431, Note_on_c, 9, 39, 0
4, 258012, Note_on_c, 9, 39, 80
4, 258031, Note_on_c, 9, 39, 0
4, 258612, Note_on_c, 9, 39, 80
4, 258631, Note_on_c, 9, 39, 0
4, 259212, Note_on_c, 9, 39, 80
4, 259231, Note_on_c, 9, 39, 0
4, 259812, Note_on_c, 9, 39, 80
4, 259831, Note_on_c, 9, 39, 0
4, 260412, Note_on_c, 9, 39, 80
4, 260431, Note_on_c, 9, 39, 0
4, 261012, Note_on_c, 9, 39, 80
4, 261031, Note_on_c, 9, 39, 0
4, 261612, Note_on_c, 9, 39, 80
4, 261631, Note_on_c, 9, 39, 0
4, 262212, Note_on_c, 9, 39, 80
4, 262231, Note_on_c, 9, 39, 0
4, 262812, Note_on_c, 9, 39, 80
4, 262831, Note_on_c, 9, 39, 0
4, 263412, Note_on_c, 9, 39, 80
4, 263431, Note_on_c, 9, 39, 0
4, 264012, Note_on_c, 9, 39, 80
4, 264031, Note_on_c, 9, 39, 0
4, 264612, Note_on_c, 9, 39, 80
4, 264631, Note_on_c, 9, 39, 0
4, 265212, Note_on_c, 9, 39, 80
4, 265231, Note_on_c, 9, 39, 0
4, 265812, Note_on_c, 9, 39, 80
4, 265831, Note_on_c, 9, 39, 0
4, 266412, Note_on_c, 9, 36, 80
4, 266412, Note_on_c, 9, 39, 80
4, 266412, Note_on_c, 9, 40, 80
4, 266431, Note_on_c, 9, 36, 0
4, 266431, Note_on_c, 9, 39, 0
4, 266431, Note_on_c, 9, 40, 0
4, 267012, Note_on_c, 9, 36, 80
4, 267012, Note_on_c, 9, 39, 80
4, 267012, Note_on_c, 9, 40, 80
4, 267031, Note_on_c, 9, 36, 0
4, 267031, Note_on_c, 9, 39, 0
4, 267031, Note_on_c, 9, 40, 0
4, 267612, Note_on_c, 9, 36, 80
4, 267612, Note_on_c, 9, 39, 80
4, 267612, Note_on_c, 9, 40, 80
4, 267631, Note_on_c, 9, 36, 0
4, 267631, Note_on_c, 9, 39, 0
4, 267631, Note_on_c, 9, 40, 0
4, 268212, Note_on_c, 9, 36, 80
4, 268212, Note_on_c, 9, 39, 80
4, 268212, Note_on_c, 9, 40, 80
4, 268231, Note_on_c, 9, 36, 0
4, 268231, Note_on_c, 9, 39, 0
4, 268231, Note_on_c, 9, 40, 0
4, 268812, Note_on_c, 9, 36, 80
4, 268812, Note_on_c, 9, 39, 80
4, 268812, Note_on_c, 9, 40, 80
4, 268831, Note_on_c, 9, 36, 0
4, 268831, Note_on_c, 9, 39, 0
4, 268831, Note_on_c, 9, 40, 0
4, 269412, Note_on_c, 9, 36, 80
4, 269412, Note_on_c, 9, 39, 80
4, 269412, Note_on_c, 9, 40, 80
4, 269431, Note_on_c, 9, 36, 0
4, 269431, Note_on_c, 9, 39, 0
4, 269431, Note_on_c, 9, 40, 0
4, 270012, Note_on_c, 9, 36, 80
4, 270012, Note_on_c, 9, 39, 80
4, 270012, Note_on_c, 9, 40, 80
4, 270031, Note_on_c, 9, 36, 0
4, 270031, Note_on_c, 9, 39, 0
4, 270031, Note_on_c, 9, 40, 0
4, 270612, Note_on_c, 9, 36, 80
4, 270612, Note_on_c, 9, 39, 80
4, 270612, Note_on_c, 9, 40, 80
4, 270631, Note_on_c, 9, 36, 0
4, 270631, Note_on_c, 9, 39, 0
4, 270631, Note_on_c, 9, 40, 0
4, 271212, Note_on_c, 9, 36, 80
4, 271212, Note_on_c, 9, 39, 80
4, 271212, Note_on_c, 9, 40, 80
4, 271231, Note_on_c, 9, 36, 0
4, 271231, Note_on_c, 9, 39, 0
4, 271231, Note_on_c, 9, 40, 0
4, 271512, Note_on_c, 9, 38, 80
4, 271531, Note_on_c, 9, 38, 0
4, 271812, Note_on_c, 9, 36, 80
4, 271812, Note_on_c, 9, 39, 80
4, 271812, Note_on_c, 9, 40, 80
4, 271831, Note_on_c, 9, 36, 0
4, 271831, Note_on_c, 9, 39, 0
4, 271831, Note_on_c, 9, 40, 0
4, 272112, Note_on_c, 9, 38, 80
4, 272131, Note_on_c, 9, 38, 0
4, 272412, Note_on_c, 9, 36, 80
4, 272412, Note_on_c, 9, 39, 80
4, 272412, Note_on_c, 9, 40, 80
4, 272431, Note_on_c, 9, 36, 0
4, 272431, Note_on_c, 9, 39, 0
4, 272431, Note_on_c, 9, 40, 0
4, 272712, Note_on_c, 9, 38, 80
4, 272731, Note_on_c, 9, 38, 0
4, 273012, Note_on_c, 9, 36, 80
4, 273012, Note_on_c, 9, 39, 80
4, 273012, Note_on_c, 9, 40, 80
4, 273031, Note_on_c, 9, 36, 0
4, 273031, Note_on_c, 9, 39, 0
4, 273031, Note_on_c, 9, 40, 0
4, 273312, Note_on_c, 9, 38, 80
4, 273331, Note_on_c, 9, 38, 0
4, 273612, Note_on_c, 9, 36, 80
4, 273612, Note_on_c, 9, 39, 80
4, 273612, Note_on_c, 9, 40, 80
4, 273631, Note_on_c, 9, 36, 0
4, 273631, Note_on_c, 9, 39, 0
4, 273631, Note_on_c, 9, 40, 0
4, 273762, Note_on_c, 9, 38, 80
4, 273781, Note_on_c, 9, 38, 0
4, 273912, Note_on_c, 9, 40, 80
4, 273931, Note_on_c, 9, 40, 0
4, 274062, Note_on_c, 9, 38, 80
4, 274081, Note_on_c, 9, 38, 0
4, 274212, Note_on_c, 9, 36, 80
4, 274212, Note_on_c, 9, 39, 80
4, 274212, Note_on_c, 9, 40, 80
4, 274231, Note_on_c, 9, 36, 0
4, 274231, Note_on_c, 9, 39, 0
4, 274231, Note_on_c, 9, 40, 0
4, 274362, Note_on_c, 9, 38, 80
4, 274381, Note_on_c, 9, 38, 0
4, 274512, Note_on_c, 9, 40, 80
4, 274531, Note_on_c, 9, 40, 0
4, 274662, Note_on_c, 9, 38, 80
4, 274681, Note_on_c, 9, 38, 0
4, 274812, Note_on_c, 9, 36, 80
4, 274812, Note_on_c, 9, 39, 80
4, 274812, Note_on_c, 9, 40, 80
4, 274831, Note_on_c, 9, 36, 0
4, 274831, Note_on_c, 9, 39, 0
4, 274831, Note_on_c, 9, 40, 0
4, 274962, Note_on_c, 9, 38, 80
4, 274981, Note_on_c, 9, 38, 0
4, 275112, Note_on_c, 9, 40, 80
4, 275131, Note_on_c, 9, 40, 0
4, 275262, Note_on_c, 9, 38, 80
4, 275281, Note_on_c, 9, 38, 0
4, 275412, Note_on_c, 9, 39, 80
4, 275412, Note_on_c, 9, 49, 80
4, 275431, Note_on_c, 9, 39, 0
4, 275431, Note_on_c, 9, 49, 0
4, 276012, Note_on_c, 9, 36, 80
4, 276012, Note_on_c, 9, 39, 80
4, 276012, Note_on_c, 9, 42, 80
4, 276031, Note_on_c, 9, 36, 0
4, 276031, Note_on_c, 9, 39, 0
4, 276031, Note_on_c, 9, 42, 0
4, 276312, Note_on_c, 9, 42, 80
4, 276331, Note_on_c, 9, 42, 0
4, 276612, Note_on_c, 9, 36, 80
4, 276612, Note_on_c, 9, 38, 80
4, 276612, Note_on_c, 9, 39, 80
4, 276612, Note_on_c, 9, 42, 80
4, 276631, Note_on_c, 9, 36, 0
4, 276631, Note_on_c, 9, 38, 0
4, 276631, Note_on_c, 9, 39, 0
4, 276631, Note_on_c, 9, 42, 0
4, 276912, Note_on_c, 9, 42, 80
4, 276931, Note_on_c, 9, 42, 0
4, 277212, Note_on_c, 9, 36, 80
4, 277212, Note_on_c, 9, 39, 80
4, 277212, Note_on_c, 9, 42, 80
4, 277231, Note_on_c, 9, 36, 0
4, 277231, Note_on_c, 9, 39, 0
4, 277231, Note_on_c, 9, 42, 0
4, 277512, Note_on_c, 9, 42, 80
4, 277531, Note_on_c, 9, 42, 0
4, 277812, Note_on_c, 9, 36, 80
4, 277812, Note_on_c, 9, 38, 80
4, 277812, Note_on_c, 9, 39, 80
4, 277812, Note_on_c, 9, 42, 80
4, 277831, Note_on_c, 9, 36, 0
4, 277831, Note_on_c, 9, 38, 0
4, 277831, Note_on_c, 9, 39, 0
4, 277831, Note_on_c, 9, 42, 0
4, 278112, Note_on_c, 9, 42, 80
4, 278131, Note_on_c, 9, 42, 0
4, 278412, Note_on_c, 9, 36, 80
4, 278412, Note_on_c, 9, 39, 80
4, 278412, Note_on_c, 9, 42, 80
4, 278431, Note_on_c, 9, 36, 0
4, 278431, Note_on_c, 9, 39, 0
4, 278431, Note_on_c, 9, 42, 0
4, 278712, Note_on_c, 9, 42, 80
4, 278731, Note_on_c, 9, 42, 0
4, 279012, Note_on_c, 9, 36, 80
4, 279012, Note_on_c, 9, 38, 80
4, 279012, Note_on_c, 9, 39, 80
4, 279012, Note_on_c, 9, 42, 80
4, 279031, Note_on_c, 9, 36, 0
4, 279031, Note_on_c, 9, 38, 0
4, 279031, Note_on_c, 9, 39, 0
4, 279031, Note_on_c, 9, 42, 0
4, 279312, Note_on_c, 9, 42, 80
4, 279331, Note_on_c, 9, 42, 0
4, 279612, Note_on_c, 9, 36, 80
4, 279612, Note_on_c, 9, 39, 80
4, 279612, Note_on_c, 9, 42, 80
4, 279631, Note_on_c, 9, 36, 0
4, 279631, Note_on_c, 9, 39, 0
4, 279631, Note_on_c, 9, 42, 0
4, 279912, Note_on_c, 9, 42, 80
4, 279931, Note_on_c, 9, 42, 0
4, 280212, Note_on_c, 9, 36, 80
4, 280212, Note_on_c, 9, 38, 80
4, 280212, Note_on_c, 9, 39, 80
4, 280212, Note_on_c, 9, 42, 80
4, 280231, Note_on_c, 9, 36, 0
4, 280231, Note_on_c, 9, 38, 0
4, 280231, Note_on_c, 9, 39, 0
4, 280231, Note_on_c, 9, 42, 0
4, 280512, Note_on_c, 9, 42, 80
4, 280531, Note_on_c, 9, 42, 0
4, 280812, Note_on_c, 9, 36, 80
4, 280812, Note_on_c, 9, 39, 80
4, 280812, Note_on_c, 9, 42, 80
4, 280831, Note_on_c, 9, 36, 0
4, 280831, Note_on_c, 9, 39, 0
4, 280831, Note_on_c, 9, 42, 0
4, 281112, Note_on_c, 9, 42, 80
4, 281131, Note_on_c, 9, 42, 0
4, 281412, Note_on_c, 9, 36, 80
4, 281412, Note_on_c, 9, 38, 80
4, 281412, Note_on_c, 9, 39, 80
4, 281412, Note_on_c, 9, 42, 80
4, 281431, Note_on_c, 9, 36, 0
4, 281431, Note_on_c, 9, 38, 0
4, 281431, Note_on_c, 9, 39, 0
4, 281431, Note_on_c, 9, 42, 0
4, 281712, Note_on_c, 9, 42, 80
4, 281731, Note_on_c, 9, 42, 0
4, 282012, Note_on_c, 9, 36, 80
4, 282012, Note_on_c, 9, 39, 80
4, 282012, Note_on_c, 9, 42, 80
4, 282031, Note_on_c, 9, 36, 0
4, 282031, Note_on_c, 9, 39, 0
4, 282031, Note_on_c, 9, 42, 0
4, 282312, Note_on_c, 9, 42, 80
4, 282331, Note_on_c, 9, 42, 0
4, 282612, Note_on_c, 9, 36, 80
4, 282612, Note_on_c, 9, 38, 80
4, 282612, Note_on_c, 9, 39, 80
4, 282612, Note_on_c, 9, 42, 80
4, 282631, Note_on_c, 9, 36, 0
4, 282631, Note_on_c, 9, 38, 0
4, 282631, Note_on_c, 9, 39, 0
4, 282631, Note_on_c, 9, 42, 0
4, 282912, Note_on_c, 9, 42, 80
4, 282931, Note_on_c, 9, 42, 0
4, 283212, Note_on_c, 9, 36, 80
4, 283212, Note_on_c, 9, 39, 80
4, 283212, Note_on_c, 9, 42, 80
4, 283231, Note_on_c, 9, 36, 0
4, 283231, Note_on_c, 9, 39, 0
4, 283231, Note_on_c, 9, 42, 0
4, 283512, Note_on_c, 9, 42, 80
4, 283531, Note_on_c, 9, 42, 0
4, 283812, Note_on_c, 9, 36, 80
4, 283812, Note_on_c, 9, 38, 80
4, 283812, Note_on_c, 9, 39, 80
4, 283812, Note_on_c, 9, 42, 80
4, 283831, Note_on_c, 9, 36, 0
4, 283831, Note_on_c, 9, 38, 0
4, 283831, Note_on_c, 9, 39, 0
4, 283831, Note_on_c, 9, 42, 0
4, 284112, Note_on_c, 9, 42, 80
4, 284131, Note_on_c, 9, 42, 0
4, 284412, Note_on_c, 9, 36, 80
4, 284412, Note_on_c, 9, 39, 80
4, 284412, Note_on_c, 9, 42, 80
4, 284431, Note_on_c, 9, 36, 0
4, 284431, Note_on_c, 9, 39, 0
4, 284431, Note_on_c, 9, 42, 0
4, 284712, Note_on_c, 9, 42, 80
4, 284731, Note_on_c, 9, 42, 0
4, 285012, Note_on_c, 9, 36, 80
4, 285012, Note_on_c, 9, 38, 80
4, 285012, Note_on_c, 9, 39, 80
4, 285012, Note_on_c, 9, 42, 80
4, 285031, Note_on_c, 9, 36, 0
4, 285031, Note_on_c, 9, 38, 0
4, 285031, Note_on_c, 9, 39, 0
4, 285031, Note_on_c, 9, 42, 0
4, 285312, Note_on_c, 9, 42, 80
4, 285331, Note_on_c, 9, 42, 0
4, 285612, Note_on_c, 9, 36, 80
4, 285612, Note_on_c, 9, 39, 80
4, 285612, Note_on_c, 9, 42, 80
4, 285631, Note_on_c, 9, 36, 0
4, 285631, Note_on_c, 9, 39, 0
4, 285631, Note_on_c, 9, 42, 0
4, 285912, Note_on_c, 9, 42, 80
4, 285931, Note_on_c, 9, 42, 0
4, 286212, Note_on_c, 9, 36, 80
4, 286212, Note_on_c, 9, 38, 80
4, 286212, Note_on_c, 9, 39, 80
4, 286212, Note_on_c, 9, 42, 80
4, 286231, Note_on_c, 9, 36, 0
4, 286231, Note_on_c, 9, 38, 0
4, 286231, Note_on_c, 9, 39, 0
4, 286231, Note_on_c, 9, 42, 0
4, 286512, Note_on_c, 9, 42, 80
4, 286531, Note_on_c, 9, 42, 0
4, 286812, Note_on_c, 9, 36, 80
4, 286812, Note_on_c, 9, 39, 80
4, 286812, Note_on_c, 9, 42, 80
4, 286831, Note_on_c, 9, 36, 0
4, 286831, Note_on_c, 9, 39, 0
4, 286831, Note_on_c, 9, 42, 0
4, 287112, Note_on_c, 9, 42, 80
4, 287131, Note_on_c, 9, 42, 0
4, 287412, Note_on_c, 9, 36, 80
4, 287412, Note_on_c, 9, 38, 80
4, 287412, Note_on_c, 9, 39, 80
4, 287412, Note_on_c, 9, 42, 80
4, 287431, Note_on_c, 9, 36, 0
4, 287431, Note_on_c, 9, 38, 0
4, 287431, Note_on_c, 9, 39, 0
4, 287431, Note_on_c, 9, 42, 0
4, 287712, Note_on_c, 9, 42, 80
4, 287731, Note_on_c, 9, 42, 0
4, 288012, Note_on_c, 9, 36, 80
4, 288012, Note_on_c, 9, 39, 80
4, 288012, Note_on_c, 9, 42, 80
4, 288031, Note_on_c, 9, 36, 0
4, 288031, Note_on_c, 9, 39, 0
4, 288031, Note_on_c, 9, 42, 0
4, 288312, Note_on_c, 9, 42, 80
4, 288331, Note_on_c, 9, 42, 0
4, 288612, Note_on_c, 9, 36, 80
4, 288612, Note_on_c, 9, 38, 80
4, 288612, Note_on_c, 9, 39, 80
4, 288612, Note_on_c, 9, 42, 80
4, 288631, Note_on_c, 9, 36, 0
4, 288631, Note_on_c, 9, 38, 0
4, 288631, Note_on_c, 9, 39, 0
4, 288631, Note_on_c, 9, 42, 0
4, 288912, Note_on_c, 9, 42, 80
4, 288931, Note_on_c, 9, 42, 0
4, 289212, Note_on_c, 9, 36, 80
4, 289212, Note_on_c, 9, 39, 80
4, 289212, Note_on_c, 9, 42, 80
4, 289231, Note_on_c, 9, 36, 0
4, 289231, Note_on_c, 9, 39, 0
4, 289231, Note_on_c, 9, 42, 0
4, 289512, Note_on_c, 9, 42, 80
4, 289531, Note_on_c, 9, 42, 0
4, 289812, Note_on_c, 9, 36, 80
4, 289812, Note_on_c, 9, 38, 80
4, 289812, Note_on_c, 9, 39, 80
4, 289812, Note_on_c, 9, 42, 80
4, 289831, Note_on_c, 9, 36, 0
4, 289831, Note_on_c, 9, 38, 0
4, 289831, Note_on_c, 9, 39, 0
4, 289831, Note_on_c, 9, 42, 0
4, 290112, Note_on_c, 9, 42, 80
4, 290131, Note_on_c, 9, 42, 0
4, 290412, Note_on_c, 9, 36, 80
4, 290412, Note_on_c, 9, 39, 80
4, 290412, Note_on_c, 9, 42, 80
4, 290431, Note_on_c, 9, 36, 0
4, 290431, Note_on_c, 9, 39, 0
4, 290431, Note_on_c, 9, 42, 0
4, 290712, Note_on_c, 9, 42, 80
4, 290731, Note_on_c, 9, 42, 0
4, 291012, Note_on_c, 9, 36, 80
4, 291012, Note_on_c, 9, 38, 80
4, 291012, Note_on_c, 9, 39, 80
4, 291012, Note_on_c, 9, 42, 80
4, 291031, Note_on_c, 9, 36, 0
4, 291031, Note_on_c, 9, 38, 0
4, 291031, Note_on_c, 9, 39, 0
4, 291031, Note_on_c, 9, 42, 0
4, 291312, Note_on_c, 9, 42, 80
4, 291331, Note_on_c, 9, 42, 0
4, 291612, Note_on_c, 9, 36, 80
4, 291612, Note_on_c, 9, 39, 80
4, 291612, Note_on_c, 9, 42, 80
4, 291631, Note_on_c, 9, 36, 0
4, 291631, Note_on_c, 9, 39, 0
4, 291631, Note_on_c, 9, 42, 0
4, 291912, Note_on_c, 9, 42, 80
4, 291931, Note_on_c, 9, 42, 0
4, 292212, Note_on_c, 9, 36, 80
4, 292212, Note_on_c, 9, 38, 80
4, 292212, Note_on_c, 9, 39, 80
4, 292212, Note_on_c, 9, 42, 80
4, 292231, Note_on_c, 9, 36, 0
4, 292231, Note_on_c, 9, 38, 0
4, 292231, Note_on_c, 9, 39, 0
4, 292231, Note_on_c, 9, 42, 0
4, 292512, Note_on_c, 9, 42, 80
4, 292531, Note_on_c, 9, 42, 0
4, 292812, Note_on_c, 9, 36, 80
4, 292812, Note_on_c, 9, 39, 80
4, 292812, Note_on_c, 9, 42, 80
4, 292831, Note_on_c, 9, 36, 0
4, 292831, Note_on_c, 9, 39, 0
4, 292831, Note_on_c, 9, 42, 0
4, 293112, Note_on_c, 9, 42, 80
4, 293131, Note_on_c, 9, 42, 0
4, 293412, Note_on_c, 9, 36, 80
4, 293412, Note_on_c, 9, 38, 80
4, 293412, Note_on_c, 9, 39, 80
4, 293412, Note_on_c, 9, 42, 80
4, 293431, Note_on_c, 9, 36, 0
4, 293431, Note_on_c, 9, 38, 0
4, 293431, Note_on_c, 9, 39, 0
4, 293431, Note_on_c, 9, 42, 0
4, 293712, Note_on_c, 9, 42, 80
4, 293731, Note_on_c, 9, 42, 0
4, 294012, Note_on_c, 9, 36, 80
4, 294012, Note_on_c, 9, 39, 80
4, 294012, Note_on_c, 9, 42, 80
4, 294031, Note_on_c, 9, 36, 0
4, 294031, Note_on_c, 9, 39, 0
4, 294031, Note_on_c, 9, 42, 0
4, 294312, Note_on_c, 9, 42, 80
4, 294331, Note_on_c, 9, 42, 0
4, 294612, Note_on_c, 9, 36, 80
4, 294612, Note_on_c, 9, 38, 80
4, 294612, Note_on_c, 9, 39, 80
4, 294612, Note_on_c, 9, 42, 80
4, 294631, Note_on_c, 9, 36, 0
4, 294631, Note_on_c, 9, 38, 0
4, 294631, Note_on_c, 9, 39, 0
4, 294631, Note_on_c, 9, 42, 0
4, 294912, Note_on_c, 9, 42, 80
4, 294931, Note_on_c, 9, 42, 0
4, 295212, Note_on_c, 9, 57, 80
4, 295231, Note_on_c, 9, 57, 0
4, 299999, Control_c, 0, 127, 0
4, 299999, End_track
5, 0, Start_track
5, 2412, Control_c, 2, 0, 0
5, 2412, Control_c, 2, 32, 0
5, 2412, Program_c, 2, 56
5, 2412, Title_t, "Vocals"
5, 2412, Control_c, 2, 7, 127
5, 21971, Note_on_c, 2, 72, 110
5, 22455, Note_on_c, 2, 72, 0
5, 22480, Note_on_c, 2, 67, 111
5, 22814, Note_on_c, 2, 72, 96
5, 22827, Note_on_c, 2, 67, 0
5, 23298, Note_on_c, 2, 72, 0
5, 23298, Note_on_c, 2, 67, 116
5, 23732, Note_on_c, 2, 72, 112
5, 23782, Note_on_c, 2, 67, 0
5, 24910, Note_on_c, 2, 65, 102
5, 24935, Note_on_c, 2, 72, 0
5, 25146, Note_on_c, 2, 65, 0
5, 25245, Note_on_c, 2, 65, 111
5, 25580, Note_on_c, 2, 65, 0
5, 25704, Note_on_c, 2, 65, 115
5, 26175, Note_on_c, 2, 65, 0
5, 26187, Note_on_c, 2, 64, 109
5, 26721, Note_on_c, 2, 64, 0
5, 26733, Note_on_c, 2, 72, 95
5, 27328, Note_on_c, 2, 72, 0
5, 27328, Note_on_c, 2, 67, 112
5, 27663, Note_on_c, 2, 72, 111
5, 27700, Note_on_c, 2, 67, 0
5, 28097, Note_on_c, 2, 67, 108
5, 28122, Note_on_c, 2, 72, 0
5, 28519, Note_on_c, 2, 72, 111
5, 28543, Note_on_c, 2, 67, 0
5, 29709, Note_on_c, 2, 64, 104
5, 29796, Note_on_c, 2, 72, 0
5, 30035, Note_on_c, 2, 65, 114
5, 30097, Note_on_c, 2, 64, 0
5, 30444, Note_on_c, 2, 64, 111
5, 30469, Note_on_c, 2, 65, 0
5, 30878, Note_on_c, 2, 60, 110
5, 30965, Note_on_c, 2, 64, 0
5, 31399, Note_on_c, 2, 60, 0
5, 31523, Note_on_c, 2, 72, 109
5, 32069, Note_on_c, 2, 67, 107
5, 32081, Note_on_c, 2, 72, 0
5, 32404, Note_on_c, 2, 72, 109
5, 32441, Note_on_c, 2, 67, 0
5, 32874, Note_on_c, 2, 67, 107
5, 32887, Note_on_c, 2, 72, 0
5, 33284, Note_on_c, 2, 72, 107
5, 33321, Note_on_c, 2, 67, 0
5, 34487, Note_on_c, 2, 64, 111
5, 34574, Note_on_c, 2, 72, 0
5, 34797, Note_on_c, 2, 65, 109
5, 34846, Note_on_c, 2, 64, 0
5, 34946, Note_on_c, 2, 65, 0
5, 35032, Note_on_c, 2, 65, 93
5, 35231, Note_on_c, 2, 65, 0
5, 35231, Note_on_c, 2, 64, 112
5, 35528, Note_on_c, 2, 60, 108
5, 35590, Note_on_c, 2, 64, 0
5, 35776, Note_on_c, 2, 60, 0
5, 35776, Note_on_c, 2, 62, 92
5, 36855, Note_on_c, 2, 60, 105
5, 36904, Note_on_c, 2, 62, 0
5, 37177, Note_on_c, 2, 62, 102
5, 37190, Note_on_c, 2, 60, 0
5, 37661, Note_on_c, 2, 64, 115
5, 37711, Note_on_c, 2, 62, 0
5, 38107, Note_on_c, 2, 60, 113
5, 38132, Note_on_c, 2, 64, 0
5, 40798, Note_on_c, 2, 60, 0
5, 41084, Note_on_c, 2, 72, 93
5, 41716, Note_on_c, 2, 67, 109
5, 41728, Note_on_c, 2, 72, 0
5, 42038, Note_on_c, 2, 72, 115
5, 42063, Note_on_c, 2, 67, 0
5, 42461, Note_on_c, 2, 67, 114
5, 42474, Note_on_c, 2, 72, 0
5, 42858, Note_on_c, 2, 72, 109
5, 42907, Note_on_c, 2, 67, 0
5, 44036, Note_on_c, 2, 64, 106
5, 44147, Note_on_c, 2, 72, 0
5, 44396, Note_on_c, 2, 65, 110
5, 44445, Note_on_c, 2, 64, 0
5, 44767, Note_on_c, 2, 65, 0
5, 44867, Note_on_c, 2, 65, 112
5, 45301, Note_on_c, 2, 64, 109
5, 45326, Note_on_c, 2, 65, 0
5, 45884, Note_on_c, 2, 72, 102
5, 45908, Note_on_c, 2, 64, 0
5, 46107, Note_on_c, 2, 72, 0
5, 46206, Note_on_c, 2, 72, 108
5, 46516, Note_on_c, 2, 67, 112
5, 46566, Note_on_c, 2, 72, 0
5, 46838, Note_on_c, 2, 72, 110
5, 46888, Note_on_c, 2, 67, 0
5, 47173, Note_on_c, 2, 72, 0
5, 47284, Note_on_c, 2, 74, 108
5, 47619, Note_on_c, 2, 74, 0
5, 47768, Note_on_c, 2, 72, 112
5, 48959, Note_on_c, 2, 64, 99
5, 49082, Note_on_c, 2, 72, 0
5, 49269, Note_on_c, 2, 64, 0
5, 49294, Note_on_c, 2, 65, 112
5, 49690, Note_on_c, 2, 64, 108
5, 49715, Note_on_c, 2, 65, 0
5, 50124, Note_on_c, 2, 60, 109
5, 50161, Note_on_c, 2, 64, 0
5, 50596, Note_on_c, 2, 60, 0
5, 50707, Note_on_c, 2, 72, 102
5, 51302, Note_on_c, 2, 67, 113
5, 51327, Note_on_c, 2, 72, 0
5, 51637, Note_on_c, 2, 72, 112
5, 51662, Note_on_c, 2, 67, 0
5, 52084, Note_on_c, 2, 67, 111
5, 52096, Note_on_c, 2, 72, 0
5, 52505, Note_on_c, 2, 72, 107
5, 52530, Note_on_c, 2, 67, 0
5, 53720, Note_on_c, 2, 64, 105
5, 53832, Note_on_c, 2, 72, 0
5, 54055, Note_on_c, 2, 65, 86
5, 54117, Note_on_c, 2, 64, 0
5, 54204, Note_on_c, 2, 65, 0
5, 54266, Note_on_c, 2, 65, 69
5, 54414, Note_on_c, 2, 64, 100
5, 54427, Note_on_c, 2, 65, 0
5, 54724, Note_on_c, 2, 60, 80
5, 54787, Note_on_c, 2, 64, 0
5, 54960, Note_on_c, 2, 62, 83
5, 54985, Note_on_c, 2, 60, 0
5, 56089, Note_on_c, 2, 60, 105
5, 56151, Note_on_c, 2, 62, 0
5, 56386, Note_on_c, 2, 62, 109
5, 56399, Note_on_c, 2, 60, 0
5, 56896, Note_on_c, 2, 64, 113
5, 56921, Note_on_c, 2, 62, 0
5, 57330, Note_on_c, 2, 60, 112
5, 57342, Note_on_c, 2, 64, 0
5, 59004, Note_on_c, 2, 60, 0
5, 59252, Note_on_c, 2, 72, 118
5, 59525, Note_on_c, 2, 74, 96
5, 59762, Note_on_c, 2, 72, 0
5, 59836, Note_on_c, 2, 76, 117
5, 59886, Note_on_c, 2, 74, 0
5, 60344, Note_on_c, 2, 76, 0
5, 60431, Note_on_c, 2, 76, 116
5, 60890, Note_on_c, 2, 76, 0
5, 60989, Note_on_c, 2, 76, 115
5, 61547, Note_on_c, 2, 72, 102
5, 61584, Note_on_c, 2, 76, 0
5, 61832, Note_on_c, 2, 74, 110
5, 61882, Note_on_c, 2, 72, 0
5, 62167, Note_on_c, 2, 76, 116
5, 62217, Note_on_c, 2, 74, 0
5, 62663, Note_on_c, 2, 76, 0
5, 62750, Note_on_c, 2, 76, 114
5, 63221, Note_on_c, 2, 76, 0
5, 63332, Note_on_c, 2, 76, 117
5, 63941, Note_on_c, 2, 74, 116
5, 63990, Note_on_c, 2, 76, 0
5, 64214, Note_on_c, 2, 72, 99
5, 64252, Note_on_c, 2, 74, 0
5, 64524, Note_on_c, 2, 77, 113
5, 64562, Note_on_c, 2, 72, 0
5, 65095, Note_on_c, 2, 76, 114
5, 65107, Note_on_c, 2, 77, 0
5, 65616, Note_on_c, 2, 74, 113
5, 65690, Note_on_c, 2, 76, 0
5, 65926, Note_on_c, 2, 72, 104
5, 65951, Note_on_c, 2, 74, 0
5, 66522, Note_on_c, 2, 69, 96
5, 66584, Note_on_c, 2, 72, 0
5, 66844, Note_on_c, 2, 69, 0
5, 66844, Note_on_c, 2, 72, 102
5, 68258, Note_on_c, 2, 76, 69
5, 68320, Note_on_c, 2, 77, 113
5, 68345, Note_on_c, 2, 72, 0
5, 68419, Note_on_c, 2, 76, 0
5, 68642, Note_on_c, 2, 76, 113
5, 68655, Note_on_c, 2, 77, 0
5, 68952, Note_on_c, 2, 74, 115
5, 69014, Note_on_c, 2, 76, 0
5, 69237, Note_on_c, 2, 72, 106
5, 69250, Note_on_c, 2, 74, 0
5, 69560, Note_on_c, 2, 69, 118
5, 69585, Note_on_c, 2, 72, 0
5, 70456, Note_on_c, 2, 69, 0
5, 70480, Note_on_c, 2, 79, 102
5, 71422, Note_on_c, 2, 79, 0
5, 71422, Note_on_c, 2, 76, 120
5, 72799, Note_on_c, 2, 76, 0
5, 72923, Note_on_c, 2, 76, 114
5, 73208, Note_on_c, 2, 77, 102
5, 73257, Note_on_c, 2, 76, 0
5, 73493, Note_on_c, 2, 76, 120
5, 73556, Note_on_c, 2, 77, 0
5, 73803, Note_on_c, 2, 74, 117
5, 73866, Note_on_c, 2, 76, 0
5, 74089, Note_on_c, 2, 72, 102
5, 74101, Note_on_c, 2, 74, 0
5, 74399, Note_on_c, 2, 69, 107
5, 74436, Note_on_c, 2, 72, 0
5, 75254, Note_on_c, 2, 69, 0
5, 75291, Note_on_c, 2, 79, 109
5, 76209, Note_on_c, 2, 76, 112
5, 76271, Note_on_c, 2, 79, 0
5, 76494, Note_on_c, 2, 74, 125
5, 76544, Note_on_c, 2, 76, 0
5, 78206, Note_on_c, 2, 72, 96
5, 78230, Note_on_c, 2, 74, 0
5, 78516, Note_on_c, 2, 74, 109
5, 78590, Note_on_c, 2, 72, 0
5, 78862, Note_on_c, 2, 76, 113
5, 78937, Note_on_c, 2, 74, 0
5, 79421, Note_on_c, 2, 76, 0
5, 79507, Note_on_c, 2, 76, 110
5, 80016, Note_on_c, 2, 76, 0
5, 80127, Note_on_c, 2, 76, 118
5, 80697, Note_on_c, 2, 72, 109
5, 80722, Note_on_c, 2, 76, 0
5, 80996, Note_on_c, 2, 74, 106
5, 81045, Note_on_c, 2, 72, 0
5, 81330, Note_on_c, 2, 76, 114
5, 81392, Note_on_c, 2, 74, 0
5, 81851, Note_on_c, 2, 76, 0
5, 81937, Note_on_c, 2, 76, 117
5, 82446, Note_on_c, 2, 76, 0
5, 82557, Note_on_c, 2, 76, 118
5, 83142, Note_on_c, 2, 74, 115
5, 83191, Note_on_c, 2, 76, 0
5, 83439, Note_on_c, 2, 72, 98
5, 83501, Note_on_c, 2, 74, 0
5, 83724, Note_on_c, 2, 77, 111
5, 83774, Note_on_c, 2, 72, 0
5, 84320, Note_on_c, 2, 76, 115
5, 84394, Note_on_c, 2, 77, 0
5, 84915, Note_on_c, 2, 74, 110
5, 84964, Note_on_c, 2, 76, 0
5, 85225, Note_on_c, 2, 72, 111
5, 85250, Note_on_c, 2, 74, 0
5, 85796, Note_on_c, 2, 69, 99
5, 85859, Note_on_c, 2, 72, 0
5, 86094, Note_on_c, 2, 72, 94
5, 86107, Note_on_c, 2, 69, 0
5, 87570, Note_on_c, 2, 76, 77
5, 87619, Note_on_c, 2, 77, 110
5, 87644, Note_on_c, 2, 72, 0
5, 87719, Note_on_c, 2, 76, 0
5, 87904, Note_on_c, 2, 76, 103
5, 87991, Note_on_c, 2, 77, 0
5, 88214, Note_on_c, 2, 74, 112
5, 88277, Note_on_c, 2, 76, 0
5, 88500, Note_on_c, 2, 72, 101
5, 88524, Note_on_c, 2, 74, 0
5, 88810, Note_on_c, 2, 69, 101
5, 88834, Note_on_c, 2, 72, 0
5, 89702, Note_on_c, 2, 69, 0
5, 89727, Note_on_c, 2, 79, 116
5, 90620, Note_on_c, 2, 79, 0
5, 90620, Note_on_c, 2, 76, 121
5, 92034, Note_on_c, 2, 76, 0
5, 92146, Note_on_c, 2, 76, 119
5, 92418, Note_on_c, 2, 77, 102
5, 92505, Note_on_c, 2, 76, 0
5, 92703, Note_on_c, 2, 76, 118
5, 92753, Note_on_c, 2, 77, 0
5, 92989, Note_on_c, 2, 74, 118
5, 93038, Note_on_c, 2, 76, 0
5, 93299, Note_on_c, 2, 72, 103
5, 93323, Note_on_c, 2, 74, 0
5, 93584, Note_on_c, 2, 69, 108
5, 93646, Note_on_c, 2, 72, 0
5, 94526, Note_on_c, 2, 69, 0
5, 94526, Note_on_c, 2, 79, 118
5, 95394, Note_on_c, 2, 76, 115
5, 95419, Note_on_c, 2, 79, 0
5, 95692, Note_on_c, 2, 74, 121
5, 95741, Note_on_c, 2, 76, 0
5, 97812, Note_on_c, 2, 74, 0
5, 97812, Note_on_c, 2, 72, 111
5, 98085, Note_on_c, 2, 72, 0
5, 98159, Note_on_c, 2, 72, 113
5, 99300, Note_on_c, 2, 79, 109
5, 99312, Note_on_c, 2, 72, 0
5, 100217, Note_on_c, 2, 76, 122
5, 100242, Note_on_c, 2, 79, 0
5, 101732, Note_on_c, 2, 79, 119
5, 101794, Note_on_c, 2, 76, 0
5, 102637, Note_on_c, 2, 76, 115
5, 102674, Note_on_c, 2, 79, 0
5, 104114, Note_on_c, 2, 79, 112
5, 104164, Note_on_c, 2, 76, 0
5, 105019, Note_on_c, 2, 76, 118
5, 105044, Note_on_c, 2, 79, 0
5, 106780, Note_on_c, 2, 77, 109
5, 106842, Note_on_c, 2, 76, 0
5, 107090, Note_on_c, 2, 76, 117
5, 107189, Note_on_c, 2, 77, 0
5, 107426, Note_on_c, 2, 74, 116
5, 107476, Note_on_c, 2, 76, 0
5, 107712, Note_on_c, 2, 72, 104
5, 107749, Note_on_c, 2, 74, 0
5, 108010, Note_on_c, 2, 72, 0
5, 108010, Note_on_c, 2, 69, 118
5, 108807, Note_on_c, 2, 69, 0
5, 108894, Note_on_c, 2, 79, 116
5, 109840, Note_on_c, 2, 79, 0
5, 109840, Note_on_c, 2, 76, 121
5, 111626, Note_on_c, 2, 77, 109
5, 111712, Note_on_c, 2, 76, 0
5, 111923, Note_on_c, 2, 76, 114
5, 112010, Note_on_c, 2, 77, 0
5, 112233, Note_on_c, 2, 74, 114
5, 112296, Note_on_c, 2, 76, 0
5, 112506, Note_on_c, 2, 72, 100
5, 112543, Note_on_c, 2, 74, 0
5, 112779, Note_on_c, 2, 69, 106
5, 112804, Note_on_c, 2, 72, 0
5, 113622, Note_on_c, 2, 79, 98
5, 113659, Note_on_c, 2, 69, 0
5, 114527, Note_on_c, 2, 76, 110
5, 114577, Note_on_c, 2, 79, 0
5, 114850, Note_on_c, 2, 74, 124
5, 114899, Note_on_c, 2, 76, 0
5, 116995, Note_on_c, 2, 72, 97
5, 117069, Note_on_c, 2, 74, 0
5, 117231, Note_on_c, 2, 72, 0
5, 117330, Note_on_c, 2, 72, 113
5, 117937, Note_on_c, 2, 72, 95
5, 118496, Note_on_c, 2, 67, 115
5, 118545, Note_on_c, 2, 72, 0
5, 118545, Note_on_c, 2, 72, 0
5, 118817, Note_on_c, 2, 72, 111
5, 118867, Note_on_c, 2, 67, 0
5, 119026, Note_on_c, 2, 72, 0
5, 119264, Note_on_c, 2, 67, 114
5, 119673, Note_on_c, 2, 72, 111
5, 119723, Note_on_c, 2, 67, 0
5, 120269, Note_on_c, 2, 65, 97
5, 120367, Note_on_c, 2, 72, 0
5, 120764, Note_on_c, 2, 65, 0
5, 120851, Note_on_c, 2, 65, 115
5, 121062, Note_on_c, 2, 65, 0
5, 121174, Note_on_c, 2, 65, 119
5, 121558, Note_on_c, 2, 65, 0
5, 121682, Note_on_c, 2, 65, 119
5, 122129, Note_on_c, 2, 64, 115
5, 122141, Note_on_c, 2, 65, 0
5, 122749, Note_on_c, 2, 72, 116
5, 122773, Note_on_c, 2, 64, 0
5, 122910, Note_on_c, 2, 72, 0
5, 123046, Note_on_c, 2, 72, 108
5, 123356, Note_on_c, 2, 67, 118
5, 123381, Note_on_c, 2, 72, 0
5, 123654, Note_on_c, 2, 72, 115
5, 123691, Note_on_c, 2, 67, 0
5, 124087, Note_on_c, 2, 67, 118
5, 124112, Note_on_c, 2, 72, 0
5, 124460, Note_on_c, 2, 72, 109
5, 124509, Note_on_c, 2, 67, 0
5, 125700, Note_on_c, 2, 64, 98
5, 125787, Note_on_c, 2, 72, 0
5, 126034, Note_on_c, 2, 65, 116
5, 126121, Note_on_c, 2, 64, 0
5, 126469, Note_on_c, 2, 64, 122
5, 126518, Note_on_c, 2, 65, 0
5, 126877, Note_on_c, 2, 60, 113
5, 126890, Note_on_c, 2, 64, 0
5, 127452, Note_on_c, 2, 72, 102
5, 127464, Note_on_c, 2, 60, 0
5, 128022, Note_on_c, 2, 67, 99
5, 128072, Note_on_c, 2, 72, 0
5, 128357, Note_on_c, 2, 72, 112
5, 128394, Note_on_c, 2, 67, 0
5, 128791, Note_on_c, 2, 67, 108
5, 128841, Note_on_c, 2, 72, 0
5, 129214, Note_on_c, 2, 72, 110
5, 129251, Note_on_c, 2, 67, 0
5, 130429, Note_on_c, 2, 64, 109
5, 130541, Note_on_c, 2, 72, 0
5, 130739, Note_on_c, 2, 65, 110
5, 130801, Note_on_c, 2, 64, 0
5, 130901, Note_on_c, 2, 65, 0
5, 130987, Note_on_c, 2, 65, 107
5, 131198, Note_on_c, 2, 64, 115
5, 131211, Note_on_c, 2, 65, 0
5, 131471, Note_on_c, 2, 60, 100
5, 131570, Note_on_c, 2, 64, 0
5, 131744, Note_on_c, 2, 62, 90
5, 131768, Note_on_c, 2, 60, 0
5, 132859, Note_on_c, 2, 60, 109
5, 132922, Note_on_c, 2, 62, 0
5, 133183, Note_on_c, 2, 62, 106
5, 133208, Note_on_c, 2, 60, 0
5, 133642, Note_on_c, 2, 64, 115
5, 133692, Note_on_c, 2, 62, 0
5, 134113, Note_on_c, 2, 60, 113
5, 134126, Note_on_c, 2, 64, 0
5, 136855, Note_on_c, 2, 60, 0
5, 137066, Note_on_c, 2, 72, 99
5, 137686, Note_on_c, 2, 67, 113
5, 137698, Note_on_c, 2, 72, 0
5, 138008, Note_on_c, 2, 72, 114
5, 138033, Note_on_c, 2, 67, 0
5, 138467, Note_on_c, 2, 67, 112
5, 138504, Note_on_c, 2, 72, 0
5, 138901, Note_on_c, 2, 72, 113
5, 138926, Note_on_c, 2, 67, 0
5, 140091, Note_on_c, 2, 64, 99
5, 140203, Note_on_c, 2, 72, 0
5, 140426, Note_on_c, 2, 65, 112
5, 140488, Note_on_c, 2, 64, 0
5, 140786, Note_on_c, 2, 65, 0
5, 140885, Note_on_c, 2, 65, 116
5, 141319, Note_on_c, 2, 64, 113
5, 141356, Note_on_c, 2, 65, 0
5, 141839, Note_on_c, 2, 72, 92
5, 141889, Note_on_c, 2, 64, 0
5, 142087, Note_on_c, 2, 72, 0
5, 142187, Note_on_c, 2, 72, 99
5, 142497, Note_on_c, 2, 67, 111
5, 142534, Note_on_c, 2, 72, 0
5, 142832, Note_on_c, 2, 72, 113
5, 142881, Note_on_c, 2, 67, 0
5, 143204, Note_on_c, 2, 72, 0
5, 143291, Note_on_c, 2, 74, 103
5, 143588, Note_on_c, 2, 74, 0
5, 143749, Note_on_c, 2, 72, 114
5, 144886, Note_on_c, 2, 64, 107
5, 145002, Note_on_c, 2, 72, 0
5, 145234, Note_on_c, 2, 65, 113
5, 145283, Note_on_c, 2, 64, 0
5, 145643, Note_on_c, 2, 64, 115
5, 145655, Note_on_c, 2, 65, 0
5, 146089, Note_on_c, 2, 60, 114
5, 146114, Note_on_c, 2, 64, 0
5, 146635, Note_on_c, 2, 60, 0
5, 146722, Note_on_c, 2, 60, 119
5, 147205, Note_on_c, 2, 60, 0
5, 147279, Note_on_c, 2, 60, 108
5, 147509, Note_on_c, 2, 72, 91
5, 147622, Note_on_c, 2, 60, 0
5, 147831, Note_on_c, 2, 67, 108
5, 147869, Note_on_c, 2, 72, 0
5, 148030, Note_on_c, 2, 72, 107
5, 148079, Note_on_c, 2, 67, 0
5, 148302, Note_on_c, 2, 67, 119
5, 148315, Note_on_c, 2, 72, 0
5, 148563, Note_on_c, 2, 72, 114
5, 148612, Note_on_c, 2, 67, 0
5, 149401, Note_on_c, 2, 65, 86
5, 149517, Note_on_c, 2, 72, 0
5, 149612, Note_on_c, 2, 65, 0
5, 149736, Note_on_c, 2, 65, 66
5, 149885, Note_on_c, 2, 65, 0
5, 150034, Note_on_c, 2, 65, 98
5, 150294, Note_on_c, 2, 65, 0
5, 150294, Note_on_c, 2, 64, 109
5, 150443, Note_on_c, 2, 62, 116
5, 150480, Note_on_c, 2, 64, 0
5, 150654, Note_on_c, 2, 60, 90
5, 150703, Note_on_c, 2, 62, 0
5, 150902, Note_on_c, 2, 62, 116
5, 150951, Note_on_c, 2, 60, 0
5, 151981, Note_on_c, 2, 62, 0
5, 152086, Note_on_c, 2, 60, 106
5, 152383, Note_on_c, 2, 62, 105
5, 152396, Note_on_c, 2, 60, 0
5, 152854, Note_on_c, 2, 64, 115
5, 152904, Note_on_c, 2, 62, 0
5, 153313, Note_on_c, 2, 60, 116
5, 153326, Note_on_c, 2, 64, 0
5, 154989, Note_on_c, 2, 60, 0
5, 155224, Note_on_c, 2, 72, 111
5, 155237, Note_on_c, 2, 71, 101
5, 155274, Note_on_c, 2, 71, 0
5, 155509, Note_on_c, 2, 74, 104
5, 155571, Note_on_c, 2, 72, 0
5, 155807, Note_on_c, 2, 76, 115
5, 155869, Note_on_c, 2, 74, 0
5, 156291, Note_on_c, 2, 76, 0
5, 156390, Note_on_c, 2, 76, 117
5, 156824, Note_on_c, 2, 76, 0
5, 156936, Note_on_c, 2, 76, 118
5, 157506, Note_on_c, 2, 72, 110
5, 157531, Note_on_c, 2, 76, 0
5, 157816, Note_on_c, 2, 74, 115
5, 157877, Note_on_c, 2, 72, 0
5, 158138, Note_on_c, 2, 76, 116
5, 158187, Note_on_c, 2, 74, 0
5, 158636, Note_on_c, 2, 76, 0
5, 158722, Note_on_c, 2, 76, 120
5, 159181, Note_on_c, 2, 76, 0
5, 159306, Note_on_c, 2, 76, 117
5, 159877, Note_on_c, 2, 74, 112
5, 159926, Note_on_c, 2, 76, 0
5, 160174, Note_on_c, 2, 72, 96
5, 160211, Note_on_c, 2, 74, 0
5, 160509, Note_on_c, 2, 77, 116
5, 160534, Note_on_c, 2, 72, 0
5, 161141, Note_on_c, 2, 76, 113
5, 161179, Note_on_c, 2, 77, 0
5, 161674, Note_on_c, 2, 74, 116
5, 161712, Note_on_c, 2, 76, 0
5, 161984, Note_on_c, 2, 72, 110
5, 162009, Note_on_c, 2, 74, 0
5, 162567, Note_on_c, 2, 69, 106
5, 162654, Note_on_c, 2, 72, 0
5, 162914, Note_on_c, 2, 72, 101
5, 162927, Note_on_c, 2, 69, 0
5, 164353, Note_on_c, 2, 76, 78
5, 164390, Note_on_c, 2, 77, 114
5, 164415, Note_on_c, 2, 72, 0
5, 164478, Note_on_c, 2, 76, 0
5, 164689, Note_on_c, 2, 76, 114
5, 164739, Note_on_c, 2, 77, 0
5, 164999, Note_on_c, 2, 74, 115
5, 165049, Note_on_c, 2, 76, 0
5, 165284, Note_on_c, 2, 72, 106
5, 165309, Note_on_c, 2, 74, 0
5, 165607, Note_on_c, 2, 69, 117
5, 165644, Note_on_c, 2, 72, 0
5, 166412, Note_on_c, 2, 69, 0
5, 166524, Note_on_c, 2, 79, 119
5, 167417, Note_on_c, 2, 76, 120
5, 167429, Note_on_c, 2, 79, 0
5, 168771, Note_on_c, 2, 76, 0
5, 168871, Note_on_c, 2, 76, 116
5, 169181, Note_on_c, 2, 77, 111
5, 169242, Note_on_c, 2, 76, 0
5, 169453, Note_on_c, 2, 76, 116
5, 169466, Note_on_c, 2, 77, 0
5, 169776, Note_on_c, 2, 74, 122
5, 169825, Note_on_c, 2, 76, 0
5, 170073, Note_on_c, 2, 72, 98
5, 170111, Note_on_c, 2, 74, 0
5, 170371, Note_on_c, 2, 69, 115
5, 170432, Note_on_c, 2, 72, 0
5, 171276, Note_on_c, 2, 69, 0
5, 171338, Note_on_c, 2, 79, 111
5, 172232, Note_on_c, 2, 76, 120
5, 172269, Note_on_c, 2, 79, 0
5, 172531, Note_on_c, 2, 74, 125
5, 172568, Note_on_c, 2, 76, 0
5, 174268, Note_on_c, 2, 72, 110
5, 174293, Note_on_c, 2, 74, 0
5, 174591, Note_on_c, 2, 74, 105
5, 174616, Note_on_c, 2, 72, 0
5, 174941, Note_on_c, 2, 76, 111
5, 175016, Note_on_c, 2, 74, 0
5, 175450, Note_on_c, 2, 76, 0
5, 175537, Note_on_c, 2, 76, 114
5, 175971, Note_on_c, 2, 76, 0
5, 176082, Note_on_c, 2, 76, 117
5, 176679, Note_on_c, 2, 72, 110
5, 176704, Note_on_c, 2, 76, 0
5, 176989, Note_on_c, 2, 74, 109
5, 177063, Note_on_c, 2, 72, 0
5, 177299, Note_on_c, 2, 76, 116
5, 177361, Note_on_c, 2, 74, 0
5, 177796, Note_on_c, 2, 76, 0
5, 177895, Note_on_c, 2, 76, 117
5, 178329, Note_on_c, 2, 76, 0
5, 178478, Note_on_c, 2, 76, 117
5, 179098, Note_on_c, 2, 74, 115
5, 179135, Note_on_c, 2, 76, 0
5, 179396, Note_on_c, 2, 72, 94
5, 179445, Note_on_c, 2, 74, 0
5, 179731, Note_on_c, 2, 77, 113
5, 179742, Note_on_c, 2, 72, 0
5, 180291, Note_on_c, 2, 76, 118
5, 180352, Note_on_c, 2, 77, 0
5, 180861, Note_on_c, 2, 74, 111
5, 180911, Note_on_c, 2, 76, 0
5, 181171, Note_on_c, 2, 72, 103
5, 181196, Note_on_c, 2, 74, 0
5, 181779, Note_on_c, 2, 69, 97
5, 181853, Note_on_c, 2, 72, 0
5, 182126, Note_on_c, 2, 69, 0
5, 182126, Note_on_c, 2, 72, 100
5, 183515, Note_on_c, 2, 76, 80
5, 183552, Note_on_c, 2, 77, 112
5, 183577, Note_on_c, 2, 72, 0
5, 183651, Note_on_c, 2, 76, 0
5, 183849, Note_on_c, 2, 76, 114
5, 183924, Note_on_c, 2, 77, 0
5, 184172, Note_on_c, 2, 74, 113
5, 184246, Note_on_c, 2, 76, 0
5, 184469, Note_on_c, 2, 72, 95
5, 184507, Note_on_c, 2, 74, 0
5, 184792, Note_on_c, 2, 69, 105
5, 184804, Note_on_c, 2, 71, 89
5, 184829, Note_on_c, 2, 71, 0
5, 184842, Note_on_c, 2, 72, 0
5, 185672, Note_on_c, 2, 69, 0
5, 185697, Note_on_c, 2, 79, 115
5, 186652, Note_on_c, 2, 76, 118
5, 186664, Note_on_c, 2, 79, 0
5, 187991, Note_on_c, 2, 76, 0
5, 188115, Note_on_c, 2, 76, 117
5, 188412, Note_on_c, 2, 77, 109
5, 188489, Note_on_c, 2, 76, 0
5, 188699, Note_on_c, 2, 76, 118
5, 188749, Note_on_c, 2, 77, 0
5, 188997, Note_on_c, 2, 74, 117
5, 189059, Note_on_c, 2, 76, 0
5, 189282, Note_on_c, 2, 72, 108
5, 189319, Note_on_c, 2, 74, 0
5, 189592, Note_on_c, 2, 69, 115
5, 189666, Note_on_c, 2, 72, 0
5, 190435, Note_on_c, 2, 69, 0
5, 190472, Note_on_c, 2, 79, 109
5, 191377, Note_on_c, 2, 76, 112
5, 191427, Note_on_c, 2, 79, 0
5, 191712, Note_on_c, 2, 74, 121
5, 191774, Note_on_c, 2, 76, 0
5, 193746, Note_on_c, 2, 72, 112
5, 193783, Note_on_c, 2, 74, 0
5, 193969, Note_on_c, 2, 72, 0
5, 194081, Note_on_c, 2, 72, 113
5, 195323, Note_on_c, 2, 79, 122
5, 195348, Note_on_c, 2, 72, 0
5, 196241, Note_on_c, 2, 76, 116
5, 196266, Note_on_c, 2, 79, 0
5, 197717, Note_on_c, 2, 79, 121
5, 197767, Note_on_c, 2, 76, 0
5, 198647, Note_on_c, 2, 76, 118
5, 198672, Note_on_c, 2, 79, 0
5, 200100, Note_on_c, 2, 79, 114
5, 200124, Note_on_c, 2, 76, 0
5, 200992, Note_on_c, 2, 76, 117
5, 201017, Note_on_c, 2, 79, 0
5, 202742, Note_on_c, 2, 77, 112
5, 202817, Note_on_c, 2, 76, 0
5, 203052, Note_on_c, 2, 76, 116
5, 203139, Note_on_c, 2, 77, 0
5, 203387, Note_on_c, 2, 74, 117
5, 203424, Note_on_c, 2, 76, 0
5, 203672, Note_on_c, 2, 72, 106
5, 203709, Note_on_c, 2, 74, 0
5, 203982, Note_on_c, 2, 69, 117
5, 204033, Note_on_c, 2, 72, 0
5, 204789, Note_on_c, 2, 69, 0
5, 204901, Note_on_c, 2, 79, 116
5, 205806, Note_on_c, 2, 76, 120
5, 205819, Note_on_c, 2, 79, 0
5, 207232, Note_on_c, 2, 76, 0
5, 207629, Note_on_c, 2, 77, 111
5, 207891, Note_on_c, 2, 76, 118
5, 207941, Note_on_c, 2, 77, 0
5, 208201, Note_on_c, 2, 74, 120
5, 208262, Note_on_c, 2, 76, 0
5, 208498, Note_on_c, 2, 72, 97
5, 208536, Note_on_c, 2, 74, 0
5, 208797, Note_on_c, 2, 69, 117
5, 208872, Note_on_c, 2, 72, 0
5, 209567, Note_on_c, 2, 69, 0
5, 209679, Note_on_c, 2, 79, 118
5, 210596, Note_on_c, 2, 76, 112
5, 210658, Note_on_c, 2, 79, 0
5, 210956, Note_on_c, 2, 74, 111
5, 210981, Note_on_c, 2, 76, 0
5, 212977, Note_on_c, 2, 74, 0
5, 212989, Note_on_c, 2, 72, 116
5, 213237, Note_on_c, 2, 72, 0
5, 213349, Note_on_c, 2, 72, 117
5, 214403, Note_on_c, 2, 72, 0
5, 214515, Note_on_c, 2, 72, 112
5, 214800, Note_on_c, 2, 74, 107
5, 214825, Note_on_c, 2, 72, 0
5, 215308, Note_on_c, 2, 72, 107
5, 215358, Note_on_c, 2, 74, 0
5, 215705, Note_on_c, 2, 76, 118
5, 215717, Note_on_c, 2, 72, 0
5, 216277, Note_on_c, 2, 72, 115
5, 216289, Note_on_c, 2, 76, 0
5, 216847, Note_on_c, 2, 69, 107
5, 216909, Note_on_c, 2, 72, 0
5, 217457, Note_on_c, 2, 72, 99
5, 217470, Note_on_c, 2, 69, 0
5, 218090, Note_on_c, 2, 74, 120
5, 218152, Note_on_c, 2, 72, 0
5, 219243, Note_on_c, 2, 74, 0
5, 219342, Note_on_c, 2, 74, 116
5, 219529, Note_on_c, 2, 74, 0
5, 219641, Note_on_c, 2, 74, 119
5, 220149, Note_on_c, 2, 72, 110
5, 220211, Note_on_c, 2, 74, 0
5, 220534, Note_on_c, 2, 76, 117
5, 220571, Note_on_c, 2, 72, 0
5, 221079, Note_on_c, 2, 74, 121
5, 221092, Note_on_c, 2, 76, 0
5, 221637, Note_on_c, 2, 72, 107
5, 221687, Note_on_c, 2, 74, 0
5, 221972, Note_on_c, 2, 77, 120
5, 221984, Note_on_c, 2, 72, 0
5, 222481, Note_on_c, 2, 76, 124
5, 222506, Note_on_c, 2, 77, 0
5, 222902, Note_on_c, 2, 76, 0
5, 222902, Note_on_c, 2, 74, 125
5, 224018, Note_on_c, 2, 74, 0
5, 224117, Note_on_c, 2, 74, 117
5, 224328, Note_on_c, 2, 74, 0
5, 224427, Note_on_c, 2, 74, 119
5, 224936, Note_on_c, 2, 72, 115
5, 224973, Note_on_c, 2, 74, 0
5, 225283, Note_on_c, 2, 76, 123
5, 225345, Note_on_c, 2, 72, 0
5, 225853, Note_on_c, 2, 74, 117
5, 225891, Note_on_c, 2, 76, 0
5, 226436, Note_on_c, 2, 72, 111
5, 226461, Note_on_c, 2, 74, 0
5, 226783, Note_on_c, 2, 69, 114
5, 226870, Note_on_c, 2, 72, 0
5, 227341, Note_on_c, 2, 72, 96
5, 227354, Note_on_c, 2, 69, 0
5, 227701, Note_on_c, 2, 67, 112
5, 227800, Note_on_c, 2, 72, 0
5, 228755, Note_on_c, 2, 67, 0
5, 228879, Note_on_c, 2, 67, 119
5, 229214, Note_on_c, 2, 69, 113
5, 229276, Note_on_c, 2, 67, 0
5, 229734, Note_on_c, 2, 72, 99
5, 229834, Note_on_c, 2, 69, 0
5, 230119, Note_on_c, 2, 74, 122
5, 230181, Note_on_c, 2, 72, 0
5, 236717, Note_on_c, 2, 74, 0
5, 236742, Note_on_c, 2, 72, 97
5, 237039, Note_on_c, 2, 74, 113
5, 237213, Note_on_c, 2, 72, 0
5, 237349, Note_on_c, 2, 76, 120
5, 237411, Note_on_c, 2, 74, 0
5, 237809, Note_on_c, 2, 76, 0
5, 237909, Note_on_c, 2, 76, 119
5, 238355, Note_on_c, 2, 76, 0
5, 238491, Note_on_c, 2, 76, 122
5, 239087, Note_on_c, 2, 72, 110
5, 239111, Note_on_c, 2, 76, 0
5, 239384, Note_on_c, 2, 74, 119
5, 239434, Note_on_c, 2, 72, 0
5, 239719, Note_on_c, 2, 76, 118
5, 239781, Note_on_c, 2, 74, 0
5, 240240, Note_on_c, 2, 76, 0
5, 240339, Note_on_c, 2, 76, 117
5, 240822, Note_on_c, 2, 76, 0
5, 240934, Note_on_c, 2, 76, 118
5, 241517, Note_on_c, 2, 74, 116
5, 241554, Note_on_c, 2, 76, 0
5, 241814, Note_on_c, 2, 72, 109
5, 241839, Note_on_c, 2, 74, 0
5, 242137, Note_on_c, 2, 77, 112
5, 242162, Note_on_c, 2, 72, 0
5, 242720, Note_on_c, 2, 77, 0
5, 242732, Note_on_c, 2, 76, 116
5, 243302, Note_on_c, 2, 74, 116
5, 243340, Note_on_c, 2, 76, 0
5, 243600, Note_on_c, 2, 72, 109
5, 243625, Note_on_c, 2, 74, 0
5, 244208, Note_on_c, 2, 69, 107
5, 244282, Note_on_c, 2, 72, 0
5, 244518, Note_on_c, 2, 69, 0
5, 244518, Note_on_c, 2, 72, 106
5, 245944, Note_on_c, 2, 76, 85
5, 245956, Note_on_c, 2, 77, 111
5, 245969, Note_on_c, 2, 72, 0
5, 246043, Note_on_c, 2, 76, 0
5, 246266, Note_on_c, 2, 76, 94
5, 246316, Note_on_c, 2, 77, 0
5, 246589, Note_on_c, 2, 74, 118
5, 246651, Note_on_c, 2, 76, 0
5, 246874, Note_on_c, 2, 72, 94
5, 246911, Note_on_c, 2, 74, 0
5, 247171, Note_on_c, 2, 71, 86
5, 247171, Note_on_c, 2, 69, 99
5, 247196, Note_on_c, 2, 71, 0
5, 247221, Note_on_c, 2, 72, 0
5, 248039, Note_on_c, 2, 69, 0
5, 248064, Note_on_c, 2, 79, 111
5, 249044, Note_on_c, 2, 76, 120
5, 249069, Note_on_c, 2, 79, 0
5, 250334, Note_on_c, 2, 76, 0
5, 250494, Note_on_c, 2, 76, 122
5, 250780, Note_on_c, 2, 77, 103
5, 250842, Note_on_c, 2, 76, 0
5, 251065, Note_on_c, 2, 76, 120
5, 251077, Note_on_c, 2, 77, 0
5, 251375, Note_on_c, 2, 74, 120
5, 251437, Note_on_c, 2, 76, 0
5, 251710, Note_on_c, 2, 72, 102
5, 251747, Note_on_c, 2, 74, 0
5, 251995, Note_on_c, 2, 69, 116
5, 252020, Note_on_c, 2, 72, 0
5, 252776, Note_on_c, 2, 69, 0
5, 252912, Note_on_c, 2, 79, 119
5, 253856, Note_on_c, 2, 76, 116
5, 253881, Note_on_c, 2, 79, 0
5, 254141, Note_on_c, 2, 74, 125
5, 254204, Note_on_c, 2, 76, 0
5, 255852, Note_on_c, 2, 72, 105
5, 255890, Note_on_c, 2, 74, 0
5, 256187, Note_on_c, 2, 74, 112
5, 256237, Note_on_c, 2, 72, 0
5, 256522, Note_on_c, 2, 76, 115
5, 256572, Note_on_c, 2, 74, 0
5, 257018, Note_on_c, 2, 76, 0
5, 257130, Note_on_c, 2, 76, 118
5, 257614, Note_on_c, 2, 76, 0
5, 257737, Note_on_c, 2, 76, 122
5, 258296, Note_on_c, 2, 72, 114
5, 258308, Note_on_c, 2, 76, 0
5, 258593, Note_on_c, 2, 74, 116
5, 258655, Note_on_c, 2, 72, 0
5, 258916, Note_on_c, 2, 76, 118
5, 258977, Note_on_c, 2, 74, 0
5, 259475, Note_on_c, 2, 76, 0
5, 259574, Note_on_c, 2, 76, 118
5, 260070, Note_on_c, 2, 76, 0
5, 260169, Note_on_c, 2, 76, 121
5, 260739, Note_on_c, 2, 74, 119
5, 260789, Note_on_c, 2, 76, 0
5, 261037, Note_on_c, 2, 72, 105
5, 261074, Note_on_c, 2, 74, 0
5, 261335, Note_on_c, 2, 77, 120
5, 261372, Note_on_c, 2, 72, 0
5, 261917, Note_on_c, 2, 76, 94
5, 261967, Note_on_c, 2, 77, 0
5, 262476, Note_on_c, 2, 74, 113
5, 262550, Note_on_c, 2, 76, 0
5, 262811, Note_on_c, 2, 72, 103
5, 262822, Note_on_c, 2, 74, 0
5, 263406, Note_on_c, 2, 69, 113
5, 263480, Note_on_c, 2, 72, 0
5, 263728, Note_on_c, 2, 69, 0
5, 263728, Note_on_c, 2, 72, 109
5, 265079, Note_on_c, 2, 76, 73
5, 265154, Note_on_c, 2, 72, 0
5, 265154, Note_on_c, 2, 77, 87
5, 265241, Note_on_c, 2, 76, 0
5, 265451, Note_on_c, 2, 76, 105
5, 265501, Note_on_c, 2, 77, 0
5, 265774, Note_on_c, 2, 74, 111
5, 265861, Note_on_c, 2, 76, 0
5, 266084, Note_on_c, 2, 72, 99
5, 266121, Note_on_c, 2, 74, 0
5, 266369, Note_on_c, 2, 69, 97
5, 266419, Note_on_c, 2, 72, 0
5, 267262, Note_on_c, 2, 69, 0
5, 267299, Note_on_c, 2, 79, 107
5, 268204, Note_on_c, 2, 76, 122
5, 268254, Note_on_c, 2, 79, 0
5, 269544, Note_on_c, 2, 76, 0
5, 269667, Note_on_c, 2, 76, 119
5, 269977, Note_on_c, 2, 77, 103
5, 270039, Note_on_c, 2, 76, 0
5, 270287, Note_on_c, 2, 76, 114
5, 270300, Note_on_c, 2, 77, 0
5, 270585, Note_on_c, 2, 74, 118
5, 270659, Note_on_c, 2, 76, 0
5, 270882, Note_on_c, 2, 72, 111
5, 270895, Note_on_c, 2, 74, 0
5, 271181, Note_on_c, 2, 69, 118
5, 271230, Note_on_c, 2, 72, 0
5, 272024, Note_on_c, 2, 69, 0
5, 272135, Note_on_c, 2, 79, 117
5, 273028, Note_on_c, 2, 76, 115
5, 273055, Note_on_c, 2, 79, 0
5, 273328, Note_on_c, 2, 74, 122
5, 273377, Note_on_c, 2, 76, 0
5, 275414, Note_on_c, 2, 72, 97
5, 275451, Note_on_c, 2, 74, 0
5, 275637, Note_on_c, 2, 72, 0
5, 275749, Note_on_c, 2, 72, 113
5, 276927, Note_on_c, 2, 79, 113
5, 276952, Note_on_c, 2, 72, 0
5, 277821, Note_on_c, 2, 76, 116
5, 277846, Note_on_c, 2, 79, 0
5, 279321, Note_on_c, 2, 79, 113
5, 279396, Note_on_c, 2, 76, 0
5, 280189, Note_on_c, 2, 76, 112
5, 280263, Note_on_c, 2, 79, 0
5, 281754, Note_on_c, 2, 79, 111
5, 281816, Note_on_c, 2, 76, 0
5, 282622, Note_on_c, 2, 76, 114
5, 282671, Note_on_c, 2, 79, 0
5, 284420, Note_on_c, 2, 77, 113
5, 284494, Note_on_c, 2, 76, 0
5, 284730, Note_on_c, 2, 76, 114
5, 284779, Note_on_c, 2, 77, 0
5, 285027, Note_on_c, 2, 74, 115
5, 285077, Note_on_c, 2, 76, 0
5, 285312, Note_on_c, 2, 72, 109
5, 285337, Note_on_c, 2, 74, 0
5, 285597, Note_on_c, 2, 69, 114
5, 285610, Note_on_c, 2, 72, 0
5, 286429, Note_on_c, 2, 69, 0
5, 286516, Note_on_c, 2, 79, 111
5, 287346, Note_on_c, 2, 76, 113
5, 287359, Note_on_c, 2, 79, 0
5, 289181, Note_on_c, 2, 77, 108
5, 289256, Note_on_c, 2, 76, 0
5, 289491, Note_on_c, 2, 76, 117
5, 289578, Note_on_c, 2, 77, 0
5, 289789, Note_on_c, 2, 74, 114
5, 289863, Note_on_c, 2, 76, 0
5, 290099, Note_on_c, 2, 72, 112
5, 290136, Note_on_c, 2, 74, 0
5, 290384, Note_on_c, 2, 69, 108
5, 290434, Note_on_c, 2, 72, 0
5, 291166, Note_on_c, 2, 69, 0
5, 291264, Note_on_c, 2, 79, 115
5, 292207, Note_on_c, 2, 76, 106
5, 292281, Note_on_c, 2, 79, 0
5, 292517, Note_on_c, 2, 74, 119
5, 292567, Note_on_c, 2, 76, 0
5, 294526, Note_on_c, 2, 74, 0
5, 294650, Note_on_c, 2, 72, 117
5, 294848, Note_on_c, 2, 72, 0
5, 294972, Note_on_c, 2, 72, 118
5, 299188, Note_on_c, 2, 72, 0
5, 299999, Control_c, 0, 127, 0
5, 299999, End_track
6, 0, Start_track
6, 2412, Control_c, 3, 0, 0
6, 2412, Control_c, 3, 32, 0
6, 2412, Program_c, 3, 29
6, 2412, Title_t, "Guitar 2"
6, 2412, Control_c, 3, 7, 127
6, 98412, Note_on_c, 3, 72, 80
6, 98712, Note_on_c, 3, 72, 0
6, 98712, Note_on_c, 3, 79, 80
6, 99012, Note_on_c, 3, 79, 0
6, 99012, Note_on_c, 3, 72, 80
6, 99312, Note_on_c, 3, 72, 0
6, 99312, Note_on_c, 3, 79, 80
6, 99612, Note_on_c, 3, 79, 0
6, 99612, Note_on_c, 3, 72, 80
6, 99912, Note_on_c, 3, 72, 0
6, 99912, Note_on_c, 3, 79, 80
6, 100212, Note_on_c, 3, 79, 0
6, 100212, Note_on_c, 3, 72, 80
6, 100512, Note_on_c, 3, 72, 0
6, 100512, Note_on_c, 3, 79, 80
6, 100812, Note_on_c, 3, 79, 0
6, 100812, Note_on_c, 3, 72, 80
6, 101112, Note_on_c, 3, 72, 0
6, 101112, Note_on_c, 3, 77, 80
6, 101412, Note_on_c, 3, 77, 0
6, 101412, Note_on_c, 3, 72, 80
6, 101712, Note_on_c, 3, 72, 0
6, 101712, Note_on_c, 3, 77, 80
6, 102012, Note_on_c, 3, 77, 0
6, 102012, Note_on_c, 3, 72, 80
6, 102312, Note_on_c, 3, 72, 0
6, 102312, Note_on_c, 3, 76, 80
6, 102612, Note_on_c, 3, 76, 0
6, 102612, Note_on_c, 3, 72, 80
6, 102912, Note_on_c, 3, 72, 0
6, 102912, Note_on_c, 3, 76, 80
6, 103212, Note_on_c, 3, 76, 0
6, 103212, Note_on_c, 3, 72, 80
6, 103512, Note_on_c, 3, 72, 0
6, 103512, Note_on_c, 3, 77, 80
6, 103812, Note_on_c, 3, 77, 0
6, 103812, Note_on_c, 3, 72, 80
6, 104112, Note_on_c, 3, 72, 0
6, 104112, Note_on_c, 3, 77, 80
6, 104412, Note_on_c, 3, 77, 0
6, 104412, Note_on_c, 3, 72, 80
6, 104712, Note_on_c, 3, 72, 0
6, 104712, Note_on_c, 3, 77, 80
6, 105012, Note_on_c, 3, 77, 0
6, 105012, Note_on_c, 3, 72, 80
6, 105312, Note_on_c, 3, 72, 0
6, 105312, Note_on_c, 3, 77, 80
6, 105612, Note_on_c, 3, 77, 0
6, 105612, Note_on_c, 3, 72, 80
6, 105912, Note_on_c, 3, 72, 0
6, 105912, Note_on_c, 3, 76, 80
6, 106212, Note_on_c, 3, 76, 0
6, 106212, Note_on_c, 3, 72, 80
6, 106512, Note_on_c, 3, 72, 0
6, 106512, Note_on_c, 3, 76, 80
6, 106812, Note_on_c, 3, 76, 0
6, 106812, Note_on_c, 3, 72, 80
6, 107112, Note_on_c, 3, 72, 0
6, 107112, Note_on_c, 3, 74, 80
6, 107412, Note_on_c, 3, 74, 0
6, 107412, Note_on_c, 3, 72, 80
6, 107712, Note_on_c, 3, 72, 0
6, 107712, Note_on_c, 3, 74, 80
6, 108012, Note_on_c, 3, 74, 0
6, 108012, Note_on_c, 3, 72, 80
6, 108312, Note_on_c, 3, 72, 0
6, 108312, Note_on_c, 3, 79, 80
6, 108612, Note_on_c, 3, 79, 0
6, 108612, Note_on_c, 3, 72, 80
6, 108912, Note_on_c, 3, 72, 0
6, 108912, Note_on_c, 3, 79, 80
6, 109212, Note_on_c, 3, 79, 0
6, 109212, Note_on_c, 3, 72, 80
6, 109512, Note_on_c, 3, 72, 0
6, 109512, Note_on_c, 3, 79, 80
6, 109812, Note_on_c, 3, 79, 0
6, 109812, Note_on_c, 3, 72, 80
6, 110112, Note_on_c, 3, 72, 0
6, 110112, Note_on_c, 3, 79, 80
6, 110412, Note_on_c, 3, 79, 0
6, 110412, Note_on_c, 3, 72, 80
6, 110712, Note_on_c, 3, 72, 0
6, 110712, Note_on_c, 3, 77, 80
6, 111012, Note_on_c, 3, 77, 0
6, 111012, Note_on_c, 3, 72, 80
6, 111312, Note_on_c, 3, 72, 0
6, 111312, Note_on_c, 3, 77, 80
6, 111612, Note_on_c, 3, 77, 0
6, 111612, Note_on_c, 3, 72, 80
6, 111912, Note_on_c, 3, 72, 0
6, 111912, Note_on_c, 3, 76, 80
6, 112212, Note_on_c, 3, 76, 0
6, 112212, Note_on_c, 3, 72, 80
6, 112512, Note_on_c, 3, 72, 0
6, 112512, Note_on_c, 3, 76, 80
6, 112812, Note_on_c, 3, 76, 0
6, 112812, Note_on_c, 3, 72, 80
6, 113112, Note_on_c, 3, 72, 0
6, 113112, Note_on_c, 3, 77, 80
6, 113412, Note_on_c, 3, 77, 0
6, 113412, Note_on_c, 3, 72, 80
6, 113712, Note_on_c, 3, 72, 0
6, 113712, Note_on_c, 3, 77, 80
6, 114012, Note_on_c, 3, 77, 0
6, 114012, Note_on_c, 3, 72, 80
6, 114312, Note_on_c, 3, 72, 0
6, 114312, Note_on_c, 3, 77, 80
6, 114612, Note_on_c, 3, 77, 0
6, 114612, Note_on_c, 3, 72, 80
6, 114912, Note_on_c, 3, 72, 0
6, 114912, Note_on_c, 3, 77, 80
6, 115212, Note_on_c, 3, 77, 0
6, 115212, Note_on_c, 3, 72, 80
6, 115512, Note_on_c, 3, 72, 0
6, 115512, Note_on_c, 3, 76, 80
6, 115812, Note_on_c, 3, 76, 0
6, 115812, Note_on_c, 3, 72, 80
6, 116112, Note_on_c, 3, 72, 0
6, 116112, Note_on_c, 3, 76, 80
6, 116412, Note_on_c, 3, 76, 0
6, 116412, Note_on_c, 3, 72, 80
6, 116712, Note_on_c, 3, 72, 0
6, 116712, Note_on_c, 3, 74, 80
6, 117012, Note_on_c, 3, 74, 0
6, 117012, Note_on_c, 3, 72, 80
6, 117312, Note_on_c, 3, 72, 0
6, 117312, Note_on_c, 3, 74, 80
6, 117612, Note_on_c, 3, 74, 0
6, 117612, Note_on_c, 3, 72, 80
6, 120012, Note_on_c, 3, 72, 0
6, 156012, Note_on_c, 3, 72, 80
6, 156312, Note_on_c, 3, 72, 0
6, 156312, Note_on_c, 3, 79, 80
6, 156612, Note_on_c, 3, 79, 0
6, 156612, Note_on_c, 3, 72, 80
6, 156912, Note_on_c, 3, 72, 0
6, 156912, Note_on_c, 3, 79, 80
6, 157212, Note_on_c, 3, 79, 0
6, 157212, Note_on_c, 3, 72, 80
6, 157512, Note_on_c, 3, 72, 0
6, 157512, Note_on_c, 3, 79, 80
6, 157812, Note_on_c, 3, 79, 0
6, 157812, Note_on_c, 3, 72, 80
6, 158112, Note_on_c, 3, 72, 0
6, 158112, Note_on_c, 3, 79, 80
6, 158412, Note_on_c, 3, 79, 0
6, 158412, Note_on_c, 3, 72, 80
6, 158712, Note_on_c, 3, 72, 0
6, 158712, Note_on_c, 3, 77, 80
6, 159012, Note_on_c, 3, 77, 0
6, 159012, Note_on_c, 3, 72, 80
6, 159312, Note_on_c, 3, 72, 0
6, 159312, Note_on_c, 3, 77, 80
6, 159612, Note_on_c, 3, 77, 0
6, 159612, Note_on_c, 3, 72, 80
6, 159912, Note_on_c, 3, 72, 0
6, 159912, Note_on_c, 3, 76, 80
6, 160212, Note_on_c, 3, 76, 0
6, 160212, Note_on_c, 3, 72, 80
6, 160512, Note_on_c, 3, 72, 0
6, 160512, Note_on_c, 3, 76, 80
6, 160812, Note_on_c, 3, 76, 0
6, 160812, Note_on_c, 3, 72, 80
6, 161112, Note_on_c, 3, 72, 0
6, 161112, Note_on_c, 3, 77, 80
6, 161412, Note_on_c, 3, 77, 0
6, 161412, Note_on_c, 3, 72, 80
6, 161712, Note_on_c, 3, 72, 0
6, 161712, Note_on_c, 3, 77, 80
6, 162012, Note_on_c, 3, 77, 0
6, 162012, Note_on_c, 3, 72, 80
6, 162312, Note_on_c, 3, 72, 0
6, 162312, Note_on_c, 3, 77, 80
6, 162612, Note_on_c, 3, 77, 0
6, 162612, Note_on_c, 3, 72, 80
6, 162912, Note_on_c, 3, 72, 0
6, 162912, Note_on_c, 3, 77, 80
6, 163212, Note_on_c, 3, 77, 0
6, 163212, Note_on_c, 3, 72, 80
6, 163512, Note_on_c, 3, 72, 0
6, 163512, Note_on_c, 3, 76, 80
6, 163812, Note_on_c, 3, 76, 0
6, 163812, Note_on_c, 3, 72, 80
6, 164112, Note_on_c, 3, 72, 0
6, 164112, Note_on_c, 3, 76, 80
6, 164412, Note_on_c, 3, 76, 0
6, 164412, Note_on_c, 3, 72, 80
6, 164712, Note_on_c, 3, 72, 0
6, 164712, Note_on_c, 3, 74, 80
6, 165012, Note_on_c, 3, 74, 0
6, 165012, Note_on_c, 3, 72, 80
6, 165312, Note_on_c, 3, 72, 0
6, 165312, Note_on_c, 3, 74, 80
6, 165612, Note_on_c, 3, 74, 0
6, 165612, Note_on_c, 3, 72, 80
6, 165912, Note_on_c, 3, 72, 0
6, 165912, Note_on_c, 3, 79, 80
6, 166212, Note_on_c, 3, 79, 0
6, 166212, Note_on_c, 3, 72, 80
6, 166512, Note_on_c, 3, 72, 0
6, 166512, Note_on_c, 3, 79, 80
6, 166812, Note_on_c, 3, 79, 0
6, 166812, Note_on_c, 3, 72, 80
6, 167112, Note_on_c, 3, 72, 0
6, 167112, Note_on_c, 3, 79, 80
6, 167412, Note_on_c, 3, 79, 0
6, 167412, Note_on_c, 3, 72, 80
6, 167712, Note_on_c, 3, 72, 0
6, 167712, Note_on_c, 3, 79, 80
6, 168012, Note_on_c, 3, 79, 0
6, 168012, Note_on_c, 3, 72, 80
6, 168312, Note_on_c, 3, 72, 0
6, 168312, Note_on_c, 3, 77, 80
6, 168612, Note_on_c, 3, 77, 0
6, 168612, Note_on_c, 3, 72, 80
6, 168912, Note_on_c, 3, 72, 0
6, 168912, Note_on_c, 3, 77, 80
6, 169212, Note_on_c, 3, 77, 0
6, 169212, Note_on_c, 3, 72, 80
6, 169512, Note_on_c, 3, 72, 0
6, 169512, Note_on_c, 3, 76, 80
6, 169812, Note_on_c, 3, 76, 0
6, 169812, Note_on_c, 3, 72, 80
6, 170112, Note_on_c, 3, 72, 0
6, 170112, Note_on_c, 3, 76, 80
6, 170412, Note_on_c, 3, 76, 0
6, 170412, Note_on_c, 3, 72, 80
6, 170712, Note_on_c, 3, 72, 0
6, 170712, Note_on_c, 3, 77, 80
6, 171012, Note_on_c, 3, 77, 0
6, 171012, Note_on_c, 3, 72, 80
6, 171312, Note_on_c, 3, 72, 0
6, 171312, Note_on_c, 3, 77, 80
6, 171612, Note_on_c, 3, 77, 0
6, 171612, Note_on_c, 3, 72, 80
6, 171912, Note_on_c, 3, 72, 0
6, 171912, Note_on_c, 3, 77, 80
6, 172212, Note_on_c, 3, 77, 0
6, 172212, Note_on_c, 3, 72, 80
6, 172512, Note_on_c, 3, 72, 0
6, 172512, Note_on_c, 3, 77, 80
6, 172812, Note_on_c, 3, 77, 0
6, 172812, Note_on_c, 3, 72, 80
6, 173112, Note_on_c, 3, 72, 0
6, 173112, Note_on_c, 3, 76, 80
6, 173412, Note_on_c, 3, 76, 0
6, 173412, Note_on_c, 3, 72, 80
6, 173712, Note_on_c, 3, 72, 0
6, 173712, Note_on_c, 3, 76, 80
6, 174012, Note_on_c, 3, 76, 0
6, 174012, Note_on_c, 3, 72, 80
6, 174312, Note_on_c, 3, 72, 0
6, 174312, Note_on_c, 3, 74, 80
6, 174612, Note_on_c, 3, 74, 0
6, 174612, Note_on_c, 3, 72, 80
6, 174912, Note_on_c, 3, 72, 0
6, 174912, Note_on_c, 3, 74, 80
6, 175212, Note_on_c, 3, 74, 0
6, 175212, Note_on_c, 3, 72, 80
6, 175512, Note_on_c, 3, 72, 0
6, 175512, Note_on_c, 3, 79, 80
6, 175812, Note_on_c, 3, 79, 0
6, 175812, Note_on_c, 3, 72, 80
6, 176112, Note_on_c, 3, 72, 0
6, 176112, Note_on_c, 3, 79, 80
6, 176412, Note_on_c, 3, 79, 0
6, 176412, Note_on_c, 3, 72, 80
6, 176712, Note_on_c, 3, 72, 0
6, 176712, Note_on_c, 3, 79, 80
6, 177012, Note_on_c, 3, 79, 0
6, 177012, Note_on_c, 3, 72, 80
6, 177312, Note_on_c, 3, 72, 0
6, 177312, Note_on_c, 3, 79, 80
6, 177612, Note_on_c, 3, 79, 0
6, 177612, Note_on_c, 3, 72, 80
6, 177912, Note_on_c, 3, 72, 0
6, 177912, Note_on_c, 3, 77, 80
6, 178212, Note_on_c, 3, 77, 0
6, 178212, Note_on_c, 3, 72, 80
6, 178512, Note_on_c, 3, 72, 0
6, 178512, Note_on_c, 3, 77, 80
6, 178812, Note_on_c, 3, 77, 0
6, 178812, Note_on_c, 3, 72, 80
6, 179112, Note_on_c, 3, 72, 0
6, 179112, Note_on_c, 3, 76, 80
6, 179412, Note_on_c, 3, 76, 0
6, 179412, Note_on_c, 3, 72, 80
6, 179712, Note_on_c, 3, 72, 0
6, 179712, Note_on_c, 3, 76, 80
6, 180012, Note_on_c, 3, 76, 0
6, 180012, Note_on_c, 3, 72, 80
6, 180312, Note_on_c, 3, 72, 0
6, 180312, Note_on_c, 3, 77, 80
6, 180612, Note_on_c, 3, 77, 0
6, 180612, Note_on_c, 3, 72, 80
6, 180912, Note_on_c, 3, 72, 0
6, 180912, Note_on_c, 3, 77, 80
6, 181212, Note_on_c, 3, 77, 0
6, 181212, Note_on_c, 3, 72, 80
6, 181512, Note_on_c, 3, 72, 0
6, 181512, Note_on_c, 3, 77, 80
6, 181812, Note_on_c, 3, 77, 0
6, 181812, Note_on_c, 3, 72, 80
6, 182112, Note_on_c, 3, 72, 0
6, 182112, Note_on_c, 3, 77, 80
6, 182412, Note_on_c, 3, 77, 0
6, 182412, Note_on_c, 3, 72, 80
6, 182712, Note_on_c, 3, 72, 0
6, 182712, Note_on_c, 3, 76, 80
6, 183012, Note_on_c, 3, 76, 0
6, 183012, Note_on_c, 3, 72, 80
6, 183312, Note_on_c, 3, 72, 0
6, 183312, Note_on_c, 3, 76, 80
6, 183612, Note_on_c, 3, 76, 0
6, 183612, Note_on_c, 3, 72, 80
6, 183912, Note_on_c, 3, 72, 0
6, 183912, Note_on_c, 3, 74, 80
6, 184212, Note_on_c, 3, 74, 0
6, 184212, Note_on_c, 3, 72, 80
6, 184512, Note_on_c, 3, 72, 0
6, 184512, Note_on_c, 3, 74, 80
6, 184812, Note_on_c, 3, 74, 0
6, 184812, Note_on_c, 3, 72, 80
6, 185112, Note_on_c, 3, 72, 0
6, 185112, Note_on_c, 3, 79, 80
6, 185412, Note_on_c, 3, 79, 0
6, 185412, Note_on_c, 3, 72, 80
6, 185712, Note_on_c, 3, 72, 0
6, 185712, Note_on_c, 3, 79, 80
6, 186012, Note_on_c, 3, 79, 0
6, 186012, Note_on_c, 3, 72, 80
6, 186312, Note_on_c, 3, 72, 0
6, 186312, Note_on_c, 3, 79, 80
6, 186612, Note_on_c, 3, 79, 0
6, 186612, Note_on_c, 3, 72, 80
6, 186912, Note_on_c, 3, 72, 0
6, 186912, Note_on_c, 3, 79, 80
6, 187212, Note_on_c, 3, 79, 0
6, 187212, Note_on_c, 3, 72, 80
6, 187512, Note_on_c, 3, 72, 0
6, 187512, Note_on_c, 3, 77, 80
6, 187812, Note_on_c, 3, 77, 0
6, 187812, Note_on_c, 3, 72, 80
6, 188112, Note_on_c, 3, 72, 0
6, 188112, Note_on_c, 3, 77, 80
6, 188412, Note_on_c, 3, 77, 0
6, 188412, Note_on_c, 3, 72, 80
6, 188712, Note_on_c, 3, 72, 0
6, 188712, Note_on_c, 3, 76, 80
6, 189012, Note_on_c, 3, 76, 0
6, 189012, Note_on_c, 3, 72, 80
6, 189312, Note_on_c, 3, 72, 0
6, 189312, Note_on_c, 3, 76, 80
6, 189612, Note_on_c, 3, 76, 0
6, 189612, Note_on_c, 3, 72, 80
6, 189912, Note_on_c, 3, 72, 0
6, 189912, Note_on_c, 3, 77, 80
6, 190212, Note_on_c, 3, 77, 0
6, 190212, Note_on_c, 3, 72, 80
6, 190512, Note_on_c, 3, 72, 0
6, 190512, Note_on_c, 3, 77, 80
6, 190812, Note_on_c, 3, 77, 0
6, 190812, Note_on_c, 3, 72, 80
6, 191112, Note_on_c, 3, 72, 0
6, 191112, Note_on_c, 3, 77, 80
6, 191412, Note_on_c, 3, 77, 0
6, 191412, Note_on_c, 3, 72, 80
6, 191712, Note_on_c, 3, 72, 0
6, 191712, Note_on_c, 3, 77, 80
6, 192012, Note_on_c, 3, 77, 0
6, 192012, Note_on_c, 3, 72, 80
6, 192312, Note_on_c, 3, 72, 0
6, 192312, Note_on_c, 3, 76, 80
6, 192612, Note_on_c, 3, 76, 0
6, 192612, Note_on_c, 3, 72, 80
6, 192912, Note_on_c, 3, 72, 0
6, 192912, Note_on_c, 3, 76, 80
6, 193212, Note_on_c, 3, 76, 0
6, 193212, Note_on_c, 3, 72, 80
6, 193512, Note_on_c, 3, 72, 0
6, 193512, Note_on_c, 3, 74, 80
6, 193812, Note_on_c, 3, 74, 0
6, 193812, Note_on_c, 3, 72, 80
6, 194112, Note_on_c, 3, 72, 0
6, 194112, Note_on_c, 3, 74, 80
6, 194412, Note_on_c, 3, 74, 0
6, 194412, Note_on_c, 3, 72, 80
6, 194712, Note_on_c, 3, 72, 0
6, 194712, Note_on_c, 3, 79, 80
6, 195012, Note_on_c, 3, 79, 0
6, 195012, Note_on_c, 3, 72, 80
6, 195312, Note_on_c, 3, 72, 0
6, 195312, Note_on_c, 3, 79, 80
6, 195612, Note_on_c, 3, 79, 0
6, 195612, Note_on_c, 3, 72, 80
6, 195912, Note_on_c, 3, 72, 0
6, 195912, Note_on_c, 3, 79, 80
6, 196212, Note_on_c, 3, 79, 0
6, 196212, Note_on_c, 3, 72, 80
6, 196512, Note_on_c, 3, 72, 0
6, 196512, Note_on_c, 3, 79, 80
6, 196812, Note_on_c, 3, 79, 0
6, 196812, Note_on_c, 3, 72, 80
6, 197112, Note_on_c, 3, 72, 0
6, 197112, Note_on_c, 3, 77, 80
6, 197412, Note_on_c, 3, 77, 0
6, 197412, Note_on_c, 3, 72, 80
6, 197712, Note_on_c, 3, 72, 0
6, 197712, Note_on_c, 3, 77, 80
6, 198012, Note_on_c, 3, 77, 0
6, 198012, Note_on_c, 3, 72, 80
6, 198312, Note_on_c, 3, 72, 0
6, 198312, Note_on_c, 3, 76, 80
6, 198612, Note_on_c, 3, 76, 0
6, 198612, Note_on_c, 3, 72, 80
6, 198912, Note_on_c, 3, 72, 0
6, 198912, Note_on_c, 3, 76, 80
6, 199212, Note_on_c, 3, 76, 0
6, 199212, Note_on_c, 3, 72, 80
6, 199512, Note_on_c, 3, 72, 0
6, 199512, Note_on_c, 3, 77, 80
6, 199812, Note_on_c, 3, 77, 0
6, 199812, Note_on_c, 3, 72, 80
6, 200112, Note_on_c, 3, 72, 0
6, 200112, Note_on_c, 3, 77, 80
6, 200412, Note_on_c, 3, 77, 0
6, 200412, Note_on_c, 3, 72, 80
6, 200712, Note_on_c, 3, 72, 0
6, 200712, Note_on_c, 3, 77, 80
6, 201012, Note_on_c, 3, 77, 0
6, 201012, Note_on_c, 3, 72, 80
6, 201312, Note_on_c, 3, 72, 0
6, 201312, Note_on_c, 3, 77, 80
6, 201612, Note_on_c, 3, 77, 0
6, 201612, Note_on_c, 3, 72, 80
6, 201912, Note_on_c, 3, 72, 0
6, 201912, Note_on_c, 3, 76, 80
6, 202212, Note_on_c, 3, 76, 0
6, 202212, Note_on_c, 3, 72, 80
6, 202512, Note_on_c, 3, 72, 0
6, 202512, Note_on_c, 3, 76, 80
6, 202812, Note_on_c, 3, 76, 0
6, 202812, Note_on_c, 3, 72, 80
6, 203112, Note_on_c, 3, 72, 0
6, 203112, Note_on_c, 3, 74, 80
6, 203412, Note_on_c, 3, 74, 0
6, 203412, Note_on_c, 3, 72, 80
6, 203712, Note_on_c, 3, 72, 0
6, 203712, Note_on_c, 3, 74, 80
6, 204012, Note_on_c, 3, 74, 0
6, 204012, Note_on_c, 3, 72, 80
6, 204312, Note_on_c, 3, 72, 0
6, 204312, Note_on_c, 3, 79, 80
6, 204612, Note_on_c, 3, 79, 0
6, 204612, Note_on_c, 3, 72, 80
6, 204912, Note_on_c, 3, 72, 0
6, 204912, Note_on_c, 3, 79, 80
6, 205212, Note_on_c, 3, 79, 0
6, 205212, Note_on_c, 3, 72, 80
6, 205512, Note_on_c, 3, 72, 0
6, 205512, Note_on_c, 3, 79, 80
6, 205812, Note_on_c, 3, 79, 0
6, 205812, Note_on_c, 3, 72, 80
6, 206112, Note_on_c, 3, 72, 0
6, 206112, Note_on_c, 3, 79, 80
6, 206412, Note_on_c, 3, 79, 0
6, 206412, Note_on_c, 3, 72, 80
6, 206712, Note_on_c, 3, 72, 0
6, 206712, Note_on_c, 3, 77, 80
6, 207012, Note_on_c, 3, 77, 0
6, 207012, Note_on_c, 3, 72, 80
6, 207312, Note_on_c, 3, 72, 0
6, 207312, Note_on_c, 3, 77, 80
6, 207612, Note_on_c, 3, 77, 0
6, 207612, Note_on_c, 3, 72, 80
6, 207912, Note_on_c, 3, 72, 0
6, 207912, Note_on_c, 3, 76, 80
6, 208212, Note_on_c, 3, 76, 0
6, 208212, Note_on_c, 3, 72, 80
6, 208512, Note_on_c, 3, 72, 0
6, 208512, Note_on_c, 3, 76, 80
6, 208812, Note_on_c, 3, 76, 0
6, 208812, Note_on_c, 3, 72, 80
6, 209112, Note_on_c, 3, 72, 0
6, 209112, Note_on_c, 3, 77, 80
6, 209412, Note_on_c, 3, 77, 0
6, 209412, Note_on_c, 3, 72, 80
6, 209712, Note_on_c, 3, 72, 0
6, 209712, Note_on_c, 3, 77, 80
6, 210012, Note_on_c, 3, 77, 0
6, 210012, Note_on_c, 3, 72, 80
6, 210312, Note_on_c, 3, 72, 0
6, 210312, Note_on_c, 3, 77, 80
6, 210612, Note_on_c, 3, 77, 0
6, 210612, Note_on_c, 3, 72, 80
6, 210912, Note_on_c, 3, 72, 0
6, 210912, Note_on_c, 3, 77, 80
6, 211212, Note_on_c, 3, 77, 0
6, 211212, Note_on_c, 3, 72, 80
6, 211512, Note_on_c, 3, 72, 0
6, 211512, Note_on_c, 3, 76, 80
6, 211812, Note_on_c, 3, 76, 0
6, 211812, Note_on_c, 3, 72, 80
6, 212112, Note_on_c, 3, 72, 0
6, 212112, Note_on_c, 3, 76, 80
6, 212412, Note_on_c, 3, 76, 0
6, 212412, Note_on_c, 3, 72, 80
6, 212712, Note_on_c, 3, 72, 0
6, 212712, Note_on_c, 3, 74, 80
6, 213012, Note_on_c, 3, 74, 0
6, 213012, Note_on_c, 3, 72, 80
6, 213312, Note_on_c, 3, 72, 0
6, 213312, Note_on_c, 3, 74, 80
6, 213612, Note_on_c, 3, 74, 0
6, 276012, Note_on_c, 3, 72, 80
6, 276312, Note_on_c, 3, 72, 0
6, 276312, Note_on_c, 3, 79, 80
6, 276612, Note_on_c, 3, 79, 0
6, 276612, Note_on_c, 3, 72, 80
6, 276912, Note_on_c, 3, 72, 0
6, 276912, Note_on_c, 3, 79, 80
6, 277212, Note_on_c, 3, 79, 0
6, 277212, Note_on_c, 3, 72, 80
6, 277512, Note_on_c, 3, 72, 0
6, 277512, Note_on_c, 3, 79, 80
6, 277812, Note_on_c, 3, 79, 0
6, 277812, Note_on_c, 3, 72, 80
6, 278112, Note_on_c, 3, 72, 0
6, 278112, Note_on_c, 3, 79, 80
6, 278412, Note_on_c, 3, 79, 0
6, 278412, Note_on_c, 3, 72, 80
6, 278712, Note_on_c, 3, 72, 0
6, 278712, Note_on_c, 3, 77, 80
6, 279012, Note_on_c, 3, 77, 0
6, 279012, Note_on_c, 3, 72, 80
6, 279312, Note_on_c, 3, 72, 0
6, 279312, Note_on_c, 3, 77, 80
6, 279612, Note_on_c, 3, 77, 0
6, 279612, Note_on_c, 3, 72, 80
6, 279912, Note_on_c, 3, 72, 0
6, 279912, Note_on_c, 3, 76, 80
6, 280212, Note_on_c, 3, 76, 0
6, 280212, Note_on_c, 3, 72, 80
6, 280512, Note_on_c, 3, 72, 0
6, 280512, Note_on_c, 3, 76, 80
6, 280812, Note_on_c, 3, 76, 0
6, 280812, Note_on_c, 3, 72, 80
6, 281112, Note_on_c, 3, 72, 0
6, 281112, Note_on_c, 3, 77, 80
6, 281412, Note_on_c, 3, 77, 0
6, 281412, Note_on_c, 3, 72, 80
6, 281712, Note_on_c, 3, 72, 0
6, 281712, Note_on_c, 3, 77, 80
6, 282012, Note_on_c, 3, 77, 0
6, 282012, Note_on_c, 3, 72, 80
6, 282312, Note_on_c, 3, 72, 0
6, 282312, Note_on_c, 3, 77, 80
6, 282612, Note_on_c, 3, 77, 0
6, 282612, Note_on_c, 3, 72, 80
6, 282912, Note_on_c, 3, 72, 0
6, 282912, Note_on_c, 3, 77, 80
6, 283212, Note_on_c, 3, 77, 0
6, 283212, Note_on_c, 3, 72, 80
6, 283512, Note_on_c, 3, 72, 0
6, 283512, Note_on_c, 3, 76, 80
6, 283812, Note_on_c, 3, 76, 0
6, 283812, Note_on_c, 3, 72, 80
6, 284112, Note_on_c, 3, 72, 0
6, 284112, Note_on_c, 3, 76, 80
6, 284412, Note_on_c, 3, 76, 0
6, 284412, Note_on_c, 3, 72, 80
6, 284712, Note_on_c, 3, 72, 0
6, 284712, Note_on_c, 3, 74, 80
6, 285012, Note_on_c, 3, 74, 0
6, 285012, Note_on_c, 3, 72, 80
6, 285312, Note_on_c, 3, 72, 0
6, 285312, Note_on_c, 3, 74, 80
6, 285612, Note_on_c, 3, 74, 0
6, 285612, Note_on_c, 3, 72, 80
6, 285912, Note_on_c, 3, 72, 0
6, 285912, Note_on_c, 3, 79, 80
6, 286212, Note_on_c, 3, 79, 0
6, 286212, Note_on_c, 3, 72, 80
6, 286512, Note_on_c, 3, 72, 0
6, 286512, Note_on_c, 3, 79, 80
6, 286812, Note_on_c, 3, 79, 0
6, 286812, Note_on_c, 3, 72, 80
6, 287112, Note_on_c, 3, 72, 0
6, 287112, Note_on_c, 3, 79, 80
6, 287412, Note_on_c, 3, 79, 0
6, 287412, Note_on_c, 3, 72, 80
6, 287712, Note_on_c, 3, 72, 0
6, 287712, Note_on_c, 3, 79, 80
6, 288012, Note_on_c, 3, 79, 0
6, 288012, Note_on_c, 3, 72, 80
6, 288312, Note_on_c, 3, 72, 0
6, 288312, Note_on_c, 3, 77, 80
6, 288612, Note_on_c, 3, 77, 0
6, 288612, Note_on_c, 3, 72, 80
6, 288912, Note_on_c, 3, 72, 0
6, 288912, Note_on_c, 3, 77, 80
6, 289212, Note_on_c, 3, 77, 0
6, 289212, Note_on_c, 3, 72, 80
6, 289512, Note_on_c, 3, 72, 0
6, 289512, Note_on_c, 3, 76, 80
6, 289812, Note_on_c, 3, 76, 0
6, 289812, Note_on_c, 3, 72, 80
6, 290112, Note_on_c, 3, 72, 0
6, 290112, Note_on_c, 3, 76, 80
6, 290412, Note_on_c, 3, 76, 0
6, 290412, Note_on_c, 3, 72, 80
6, 290712, Note_on_c, 3, 72, 0
6, 290712, Note_on_c, 3, 77, 80
6, 291012, Note_on_c, 3, 77, 0
6, 291012, Note_on_c, 3, 72, 80
6, 291312, Note_on_c, 3, 72, 0
6, 291312, Note_on_c, 3, 77, 80
6, 291612, Note_on_c, 3, 77, 0
6, 291612, Note_on_c, 3, 72, 80
6, 291912, Note_on_c, 3, 72, 0
6, 291912, Note_on_c, 3, 77, 80
6, 292212, Note_on_c, 3, 77, 0
6, 292212, Note_on_c, 3, 72, 80
6, 292512, Note_on_c, 3, 72, 0
6, 292512, Note_on_c, 3, 77, 80
6, 292812, Note_on_c, 3, 77, 0
6, 292812, Note_on_c, 3, 72, 80
6, 293112, Note_on_c, 3, 72, 0
6, 293112, Note_on_c, 3, 76, 80
6, 293412, Note_on_c, 3, 76, 0
6, 293412, Note_on_c, 3, 72, 80
6, 293712, Note_on_c, 3, 72, 0
6, 293712, Note_on_c, 3, 76, 80
6, 294012, Note_on_c, 3, 76, 0
6, 294012, Note_on_c, 3, 72, 80
6, 294312, Note_on_c, 3, 72, 0
6, 294312, Note_on_c, 3, 74, 80
6, 294612, Note_on_c, 3, 74, 0
6, 294612, Note_on_c, 3, 72, 80
6, 294912, Note_on_c, 3, 72, 0
6, 294912, Note_on_c, 3, 74, 80
6, 295212, Note_on_c, 3, 74, 0
6, 295212, Note_on_c, 3, 72, 80
6, 298812, Note_on_c, 3, 72, 0
6, 299999, Control_c, 0, 127, 0
6, 299999, End_track
7, 0, Start_track
7, 2412, Control_c, 4, 0, 0
7, 2412, Control_c, 4, 32, 0
7, 2412, Program_c, 4, 51
7, 2412, Title_t, "Strings"
7, 2412, Control_c, 4, 7, 127
7, 98412, Note_on_c, 4, 72, 80
7, 98712, Note_on_c, 4, 72, 0
7, 98712, Note_on_c, 4, 79, 80
7, 99012, Note_on_c, 4, 79, 0
7, 99012, Note_on_c, 4, 72, 80
7, 99312, Note_on_c, 4, 72, 0
7, 99312, Note_on_c, 4, 79, 80
7, 99612, Note_on_c, 4, 79, 0
7, 99612, Note_on_c, 4, 72, 80
7, 99912, Note_on_c, 4, 72, 0
7, 99912, Note_on_c, 4, 79, 80
7, 100212, Note_on_c, 4, 79, 0
7, 100212, Note_on_c, 4, 72, 80
7, 100512, Note_on_c, 4, 72, 0
7, 100512, Note_on_c, 4, 79, 80
7, 100812, Note_on_c, 4, 79, 0
7, 100812, Note_on_c, 4, 72, 80
7, 101112, Note_on_c, 4, 72, 0
7, 101112, Note_on_c, 4, 77, 80
7, 101412, Note_on_c, 4, 77, 0
7, 101412, Note_on_c, 4, 72, 80
7, 101712, Note_on_c, 4, 72, 0
7, 101712, Note_on_c, 4, 77, 80
7, 102012, Note_on_c, 4, 77, 0
7, 102012, Note_on_c, 4, 72, 80
7, 102312, Note_on_c, 4, 72, 0
7, 102312, Note_on_c, 4, 76, 80
7, 102612, Note_on_c, 4, 76, 0
7, 102612, Note_on_c, 4, 72, 80
7, 102912, Note_on_c, 4, 72, 0
7, 102912, Note_on_c, 4, 76, 80
7, 103212, Note_on_c, 4, 76, 0
7, 103212, Note_on_c, 4, 72, 80
7, 103512, Note_on_c, 4, 72, 0
7, 103512, Note_on_c, 4, 77, 80
7, 103812, Note_on_c, 4, 77, 0
7, 103812, Note_on_c, 4, 72, 80
7, 104112, Note_on_c, 4, 72, 0
7, 104112, Note_on_c, 4, 77, 80
7, 104412, Note_on_c, 4, 77, 0
7, 104412, Note_on_c, 4, 72, 80
7, 104712, Note_on_c, 4, 72, 0
7, 104712, Note_on_c, 4, 77, 80
7, 105012, Note_on_c, 4, 77, 0
7, 105012, Note_on_c, 4, 72, 80
7, 105312, Note_on_c, 4, 72, 0
7, 105312, Note_on_c, 4, 77, 80
7, 105612, Note_on_c, 4, 77, 0
7, 105612, Note_on_c, 4, 72, 80
7, 105912, Note_on_c, 4, 72, 0
7, 105912, Note_on_c, 4, 76, 80
7, 106212, Note_on_c, 4, 76, 0
7, 106212, Note_on_c, 4, 72, 80
7, 106512, Note_on_c, 4, 72, 0
7, 106512, Note_on_c, 4, 76, 80
7, 106812, Note_on_c, 4, 76, 0
7, 106812, Note_on_c, 4, 72, 80
7, 107112, Note_on_c, 4, 72, 0
7, 107112, Note_on_c, 4, 74, 80
7, 107412, Note_on_c, 4, 74, 0
7, 107412, Note_on_c, 4, 72, 80
7, 107712, Note_on_c, 4, 72, 0
7, 107712, Note_on_c, 4, 74, 80
7, 108012, Note_on_c, 4, 74, 0
7, 108012, Note_on_c, 4, 72, 80
7, 108312, Note_on_c, 4, 72, 0
7, 108312, Note_on_c, 4, 79, 80
7, 108612, Note_on_c, 4, 79, 0
7, 108612, Note_on_c, 4, 72, 80
7, 108912, Note_on_c, 4, 72, 0
7, 108912, Note_on_c, 4, 79, 80
7, 109212, Note_on_c, 4, 79, 0
7, 109212, Note_on_c, 4, 72, 80
7, 109512, Note_on_c, 4, 72, 0
7, 109512, Note_on_c, 4, 79, 80
7, 109812, Note_on_c, 4, 79, 0
7, 109812, Note_on_c, 4, 72, 80
7, 110112, Note_on_c, 4, 72, 0
7, 110112, Note_on_c, 4, 79, 80
7, 110412, Note_on_c, 4, 79, 0
7, 110412, Note_on_c, 4, 72, 80
7, 110712, Note_on_c, 4, 72, 0
7, 110712, Note_on_c, 4, 77, 80
7, 111012, Note_on_c, 4, 77, 0
7, 111012, Note_on_c, 4, 72, 80
7, 111312, Note_on_c, 4, 72, 0
7, 111312, Note_on_c, 4, 77, 80
7, 111612, Note_on_c, 4, 77, 0
7, 111612, Note_on_c, 4, 72, 80
7, 111912, Note_on_c, 4, 72, 0
7, 111912, Note_on_c, 4, 76, 80
7, 112212, Note_on_c, 4, 76, 0
7, 112212, Note_on_c, 4, 72, 80
7, 112512, Note_on_c, 4, 72, 0
7, 112512, Note_on_c, 4, 76, 80
7, 112812, Note_on_c, 4, 76, 0
7, 112812, Note_on_c, 4, 72, 80
7, 113112, Note_on_c, 4, 72, 0
7, 113112, Note_on_c, 4, 77, 80
7, 113412, Note_on_c, 4, 77, 0
7, 113412, Note_on_c, 4, 72, 80
7, 113712, Note_on_c, 4, 72, 0
7, 113712, Note_on_c, 4, 77, 80
7, 114012, Note_on_c, 4, 77, 0
7, 114012, Note_on_c, 4, 72, 80
7, 114312, Note_on_c, 4, 72, 0
7, 114312, Note_on_c, 4, 77, 80
7, 114612, Note_on_c, 4, 77, 0
7, 114612, Note_on_c, 4, 72, 80
7, 114912, Note_on_c, 4, 72, 0
7, 114912, Note_on_c, 4, 77, 80
7, 115212, Note_on_c, 4, 77, 0
7, 115212, Note_on_c, 4, 72, 80
7, 115512, Note_on_c, 4, 72, 0
7, 115512, Note_on_c, 4, 76, 80
7, 115812, Note_on_c, 4, 76, 0
7, 115812, Note_on_c, 4, 72, 80
7, 116112, Note_on_c, 4, 72, 0
7, 116112, Note_on_c, 4, 76, 80
7, 116412, Note_on_c, 4, 76, 0
7, 116412, Note_on_c, 4, 72, 80
7, 116712, Note_on_c, 4, 72, 0
7, 116712, Note_on_c, 4, 74, 80
7, 117012, Note_on_c, 4, 74, 0
7, 117012, Note_on_c, 4, 72, 80
7, 117312, Note_on_c, 4, 72, 0
7, 117312, Note_on_c, 4, 74, 80
7, 117612, Note_on_c, 4, 74, 0
7, 117612, Note_on_c, 4, 72, 80
7, 120012, Note_on_c, 4, 72, 0
7, 156012, Note_on_c, 4, 72, 80
7, 156312, Note_on_c, 4, 72, 0
7, 156312, Note_on_c, 4, 79, 80
7, 156612, Note_on_c, 4, 79, 0
7, 156612, Note_on_c, 4, 72, 80
7, 156912, Note_on_c, 4, 72, 0
7, 156912, Note_on_c, 4, 79, 80
7, 157212, Note_on_c, 4, 79, 0
7, 157212, Note_on_c, 4, 72, 80
7, 157512, Note_on_c, 4, 72, 0
7, 157512, Note_on_c, 4, 79, 80
7, 157812, Note_on_c, 4, 79, 0
7, 157812, Note_on_c, 4, 72, 80
7, 158112, Note_on_c, 4, 72, 0
7, 158112, Note_on_c, 4, 79, 80
7, 158412, Note_on_c, 4, 79, 0
7, 158412, Note_on_c, 4, 72, 80
7, 158712, Note_on_c, 4, 72, 0
7, 158712, Note_on_c, 4, 77, 80
7, 159012, Note_on_c, 4, 77, 0
7, 159012, Note_on_c, 4, 72, 80
7, 159312, Note_on_c, 4, 72, 0
7, 159312, Note_on_c, 4, 77, 80
7, 159612, Note_on_c, 4, 77, 0
7, 159612, Note_on_c, 4, 72, 80
7, 159912, Note_on_c, 4, 72, 0
7, 159912, Note_on_c, 4, 76, 80
7, 160212, Note_on_c, 4, 76, 0
7, 160212, Note_on_c, 4, 72, 80
7, 160512, Note_on_c, 4, 72, 0
7, 160512, Note_on_c, 4, 76, 80
7, 160812, Note_on_c, 4, 76, 0
7, 160812, Note_on_c, 4, 72, 80
7, 161112, Note_on_c, 4, 72, 0
7, 161112, Note_on_c, 4, 77, 80
7, 161412, Note_on_c, 4, 77, 0
7, 161412, Note_on_c, 4, 72, 80
7, 161712, Note_on_c, 4, 72, 0
7, 161712, Note_on_c, 4, 77, 80
7, 162012, Note_on_c, 4, 77, 0
7, 162012, Note_on_c, 4, 72, 80
7, 162312, Note_on_c, 4, 72, 0
7, 162312, Note_on_c, 4, 77, 80
7, 162612, Note_on_c, 4, 77, 0
7, 162612, Note_on_c, 4, 72, 80
7, 162912, Note_on_c, 4, 72, 0
7, 162912, Note_on_c, 4, 77, 80
7, 163212, Note_on_c, 4, 77, 0
7, 163212, Note_on_c, 4, 72, 80
7, 163512, Note_on_c, 4, 72, 0
7, 163512, Note_on_c, 4, 76, 80
7, 163812, Note_on_c, 4, 76, 0
7, 163812, Note_on_c, 4, 72, 80
7, 164112, Note_on_c, 4, 72, 0
7, 164112, Note_on_c, 4, 76, 80
7, 164412, Note_on_c, 4, 76, 0
7, 164412, Note_on_c, 4, 72, 80
7, 164712, Note_on_c, 4, 72, 0
7, 164712, Note_on_c, 4, 74, 80
7, 165012, Note_on_c, 4, 74, 0
7, 165012, Note_on_c, 4, 72, 80
7, 165312, Note_on_c, 4, 72, 0
7, 165312, Note_on_c, 4, 74, 80
7, 165612, Note_on_c, 4, 74, 0
7, 165612, Note_on_c, 4, 72, 80
7, 165912, Note_on_c, 4, 72, 0
7, 165912, Note_on_c, 4, 79, 80
7, 166212, Note_on_c, 4, 79, 0
7, 166212, Note_on_c, 4, 72, 80
7, 166512, Note_on_c, 4, 72, 0
7, 166512, Note_on_c, 4, 79, 80
7, 166812, Note_on_c, 4, 79, 0
7, 166812, Note_on_c, 4, 72, 80
7, 167112, Note_on_c, 4, 72, 0
7, 167112, Note_on_c, 4, 79, 80
7, 167412, Note_on_c, 4, 79, 0
7, 167412, Note_on_c, 4, 72, 80
7, 167712, Note_on_c, 4, 72, 0
7, 167712, Note_on_c, 4, 79, 80
7, 168012, Note_on_c, 4, 79, 0
7, 168012, Note_on_c, 4, 72, 80
7, 168312, Note_on_c, 4, 72, 0
7, 168312, Note_on_c, 4, 77, 80
7, 168612, Note_on_c, 4, 77, 0
7, 168612, Note_on_c, 4, 72, 80
7, 168912, Note_on_c, 4, 72, 0
7, 168912, Note_on_c, 4, 77, 80
7, 169212, Note_on_c, 4, 77, 0
7, 169212, Note_on_c, 4, 72, 80
7, 169512, Note_on_c, 4, 72, 0
7, 169512, Note_on_c, 4, 76, 80
7, 169812, Note_on_c, 4, 76, 0
7, 169812, Note_on_c, 4, 72, 80
7, 170112, Note_on_c, 4, 72, 0
7, 170112, Note_on_c, 4, 76, 80
7, 170412, Note_on_c, 4, 76, 0
7, 170412, Note_on_c, 4, 72, 80
7, 170712, Note_on_c, 4, 72, 0
7, 170712, Note_on_c, 4, 77, 80
7, 171012, Note_on_c, 4, 77, 0
7, 171012, Note_on_c, 4, 72, 80
7, 171312, Note_on_c, 4, 72, 0
7, 171312, Note_on_c, 4, 77, 80
7, 171612, Note_on_c, 4, 77, 0
7, 171612, Note_on_c, 4, 72, 80
7, 171912, Note_on_c, 4, 72, 0
7, 171912, Note_on_c, 4, 77, 80
7, 172212, Note_on_c, 4, 77, 0
7, 172212, Note_on_c, 4, 72, 80
7, 172512, Note_on_c, 4, 72, 0
7, 172512, Note_on_c, 4, 77, 80
7, 172812, Note_on_c, 4, 77, 0
7, 172812, Note_on_c, 4, 72, 80
7, 173112, Note_on_c, 4, 72, 0
7, 173112, Note_on_c, 4, 76, 80
7, 173412, Note_on_c, 4, 76, 0
7, 173412, Note_on_c, 4, 72, 80
7, 173712, Note_on_c, 4, 72, 0
7, 173712, Note_on_c, 4, 76, 80
7, 174012, Note_on_c, 4, 76, 0
7, 174012, Note_on_c, 4, 72, 80
7, 174312, Note_on_c, 4, 72, 0
7, 174312, Note_on_c, 4, 74, 80
7, 174612, Note_on_c, 4, 74, 0
7, 174612, Note_on_c, 4, 72, 80
7, 174912, Note_on_c, 4, 72, 0
7, 174912, Note_on_c, 4, 74, 80
7, 175212, Note_on_c, 4, 74, 0
7, 175212, Note_on_c, 4, 72, 80
7, 175512, Note_on_c, 4, 72, 0
7, 175512, Note_on_c, 4, 79, 80
7, 175812, Note_on_c, 4, 79, 0
7, 175812, Note_on_c, 4, 72, 80
7, 176112, Note_on_c, 4, 72, 0
7, 176112, Note_on_c, 4, 79, 80
7, 176412, Note_on_c, 4, 79, 0
7, 176412, Note_on_c, 4, 72, 80
7, 176712, Note_on_c, 4, 72, 0
7, 176712, Note_on_c, 4, 79, 80
7, 177012, Note_on_c, 4, 79, 0
7, 177012, Note_on_c, 4, 72, 80
7, 177312, Note_on_c, 4, 72, 0
7, 177312, Note_on_c, 4, 79, 80
7, 177612, Note_on_c, 4, 79, 0
7, 177612, Note_on_c, 4, 72, 80
7, 177912, Note_on_c, 4, 72, 0
7, 177912, Note_on_c, 4, 77, 80
7, 178212, Note_on_c, 4, 77, 0
7, 178212, Note_on_c, 4, 72, 80
7, 178512, Note_on_c, 4, 72, 0
7, 178512, Note_on_c, 4, 77, 80
7, 178812, Note_on_c, 4, 77, 0
7, 178812, Note_on_c, 4, 72, 80
7, 179112, Note_on_c, 4, 72, 0
7, 179112, Note_on_c, 4, 76, 80
7, 179412, Note_on_c, 4, 76, 0
7, 179412, Note_on_c, 4, 72, 80
7, 179712, Note_on_c, 4, 72, 0
7, 179712, Note_on_c, 4, 76, 80
7, 180012, Note_on_c, 4, 76, 0
7, 180012, Note_on_c, 4, 72, 80
7, 180312, Note_on_c, 4, 72, 0
7, 180312, Note_on_c, 4, 77, 80
7, 180612, Note_on_c, 4, 77, 0
7, 180612, Note_on_c, 4, 72, 80
7, 180912, Note_on_c, 4, 72, 0
7, 180912, Note_on_c, 4, 77, 80
7, 181212, Note_on_c, 4, 77, 0
7, 181212, Note_on_c, 4, 72, 80
7, 181512, Note_on_c, 4, 72, 0
7, 181512, Note_on_c, 4, 77, 80
7, 181812, Note_on_c, 4, 77, 0
7, 181812, Note_on_c, 4, 72, 80
7, 182112, Note_on_c, 4, 72, 0
7, 182112, Note_on_c, 4, 77, 80
7, 182412, Note_on_c, 4, 77, 0
7, 182412, Note_on_c, 4, 72, 80
7, 182712, Note_on_c, 4, 72, 0
7, 182712, Note_on_c, 4, 76, 80
7, 183012, Note_on_c, 4, 76, 0
7, 183012, Note_on_c, 4, 72, 80
7, 183312, Note_on_c, 4, 72, 0
7, 183312, Note_on_c, 4, 76, 80
7, 183612, Note_on_c, 4, 76, 0
7, 183612, Note_on_c, 4, 72, 80
7, 183912, Note_on_c, 4, 72, 0
7, 183912, Note_on_c, 4, 74, 80
7, 184212, Note_on_c, 4, 74, 0
7, 184212, Note_on_c, 4, 72, 80
7, 184512, Note_on_c, 4, 72, 0
7, 184512, Note_on_c, 4, 74, 80
7, 184812, Note_on_c, 4, 74, 0
7, 184812, Note_on_c, 4, 72, 80
7, 185112, Note_on_c, 4, 72, 0
7, 185112, Note_on_c, 4, 79, 80
7, 185412, Note_on_c, 4, 79, 0
7, 185412, Note_on_c, 4, 72, 80
7, 185712, Note_on_c, 4, 72, 0
7, 185712, Note_on_c, 4, 79, 80
7, 186012, Note_on_c, 4, 79, 0
7, 186012, Note_on_c, 4, 72, 80
7, 186312, Note_on_c, 4, 72, 0
7, 186312, Note_on_c, 4, 79, 80
7, 186612, Note_on_c, 4, 79, 0
7, 186612, Note_on_c, 4, 72, 80
7, 186912, Note_on_c, 4, 72, 0
7, 186912, Note_on_c, 4, 79, 80
7, 187212, Note_on_c, 4, 79, 0
7, 187212, Note_on_c, 4, 72, 80
7, 187512, Note_on_c, 4, 72, 0
7, 187512, Note_on_c, 4, 77, 80
7, 187812, Note_on_c, 4, 77, 0
7, 187812, Note_on_c, 4, 72, 80
7, 188112, Note_on_c, 4, 72, 0
7, 188112, Note_on_c, 4, 77, 80
7, 188412, Note_on_c, 4, 77, 0
7, 188412, Note_on_c, 4, 72, 80
7, 188712, Note_on_c, 4, 72, 0
7, 188712, Note_on_c, 4, 76, 80
7, 189012, Note_on_c, 4, 76, 0
7, 189012, Note_on_c, 4, 72, 80
7, 189312, Note_on_c, 4, 72, 0
7, 189312, Note_on_c, 4, 76, 80
7, 189612, Note_on_c, 4, 76, 0
7, 189612, Note_on_c, 4, 72, 80
7, 189912, Note_on_c, 4, 72, 0
7, 189912, Note_on_c, 4, 77, 80
7, 190212, Note_on_c, 4, 77, 0
7, 190212, Note_on_c, 4, 72, 80
7, 190512, Note_on_c, 4, 72, 0
7, 190512, Note_on_c, 4, 77, 80
7, 190812, Note_on_c, 4, 77, 0
7, 190812, Note_on_c, 4, 72, 80
7, 191112, Note_on_c, 4, 72, 0
7, 191112, Note_on_c, 4, 77, 80
7, 191412, Note_on_c, 4, 77, 0
7, 191412, Note_on_c, 4, 72, 80
7, 191712, Note_on_c, 4, 72, 0
7, 191712, Note_on_c, 4, 77, 80
7, 192012, Note_on_c, 4, 77, 0
7, 192012, Note_on_c, 4, 72, 80
7, 192312, Note_on_c, 4, 72, 0
7, 192312, Note_on_c, 4, 76, 80
7, 192612, Note_on_c, 4, 76, 0
7, 192612, Note_on_c, 4, 72, 80
7, 192912, Note_on_c, 4, 72, 0
7, 192912, Note_on_c, 4, 76, 80
7, 193212, Note_on_c, 4, 76, 0
7, 193212, Note_on_c, 4, 72, 80
7, 193512, Note_on_c, 4, 72, 0
7, 193512, Note_on_c, 4, 74, 80
7, 193812, Note_on_c, 4, 74, 0
7, 193812, Note_on_c, 4, 72, 80
7, 194112, Note_on_c, 4, 72, 0
7, 194112, Note_on_c, 4, 74, 80
7, 194412, Note_on_c, 4, 74, 0
7, 194412, Note_on_c, 4, 72, 80
7, 194712, Note_on_c, 4, 72, 0
7, 194712, Note_on_c, 4, 79, 80
7, 195012, Note_on_c, 4, 79, 0
7, 195012, Note_on_c, 4, 72, 80
7, 195312, Note_on_c, 4, 72, 0
7, 195312, Note_on_c, 4, 79, 80
7, 195612, Note_on_c, 4, 79, 0
7, 195612, Note_on_c, 4, 72, 80
7, 195912, Note_on_c, 4, 72, 0
7, 195912, Note_on_c, 4, 79, 80
7, 196212, Note_on_c, 4, 79, 0
7, 196212, Note_on_c, 4, 72, 80
7, 196512, Note_on_c, 4, 72, 0
7, 196512, Note_on_c, 4, 79, 80
7, 196812, Note_on_c, 4, 79, 0
7, 196812, Note_on_c, 4, 72, 80
7, 197112, Note_on_c, 4, 72, 0
7, 197112, Note_on_c, 4, 77, 80
7, 197412, Note_on_c, 4, 77, 0
7, 197412, Note_on_c, 4, 72, 80
7, 197712, Note_on_c, 4, 72, 0
7, 197712, Note_on_c, 4, 77, 80
7, 198012, Note_on_c, 4, 77, 0
7, 198012, Note_on_c, 4, 72, 80
7, 198312, Note_on_c, 4, 72, 0
7, 198312, Note_on_c, 4, 76, 80
7, 198612, Note_on_c, 4, 76, 0
7, 198612, Note_on_c, 4, 72, 80
7, 198912, Note_on_c, 4, 72, 0
7, 198912, Note_on_c, 4, 76, 80
7, 199212, Note_on_c, 4, 76, 0
7, 199212, Note_on_c, 4, 72, 80
7, 199512, Note_on_c, 4, 72, 0
7, 199512, Note_on_c, 4, 77, 80
7, 199812, Note_on_c, 4, 77, 0
7, 199812, Note_on_c, 4, 72, 80
7, 200112, Note_on_c, 4, 72, 0
7, 200112, Note_on_c, 4, 77, 80
7, 200412, Note_on_c, 4, 77, 0
7, 200412, Note_on_c, 4, 72, 80
7, 200712, Note_on_c, 4, 72, 0
7, 200712, Note_on_c, 4, 77, 80
7, 201012, Note_on_c, 4, 77, 0
7, 201012, Note_on_c, 4, 72, 80
7, 201312, Note_on_c, 4, 72, 0
7, 201312, Note_on_c, 4, 77, 80
7, 201612, Note_on_c, 4, 77, 0
7, 201612, Note_on_c, 4, 72, 80
7, 201912, Note_on_c, 4, 72, 0
7, 201912, Note_on_c, 4, 76, 80
7, 202212, Note_on_c, 4, 76, 0
7, 202212, Note_on_c, 4, 72, 80
7, 202512, Note_on_c, 4, 72, 0
7, 202512, Note_on_c, 4, 76, 80
7, 202812, Note_on_c, 4, 76, 0
7, 202812, Note_on_c, 4, 72, 80
7, 203112, Note_on_c, 4, 72, 0
7, 203112, Note_on_c, 4, 74, 80
7, 203412, Note_on_c, 4, 74, 0
7, 203412, Note_on_c, 4, 72, 80
7, 203712, Note_on_c, 4, 72, 0
7, 203712, Note_on_c, 4, 74, 80
7, 204012, Note_on_c, 4, 74, 0
7, 204012, Note_on_c, 4, 72, 80
7, 204312, Note_on_c, 4, 72, 0
7, 204312, Note_on_c, 4, 79, 80
7, 204612, Note_on_c, 4, 79, 0
7, 204612, Note_on_c, 4, 72, 80
7, 204912, Note_on_c, 4, 72, 0
7, 204912, Note_on_c, 4, 79, 80
7, 205212, Note_on_c, 4, 79, 0
7, 205212, Note_on_c, 4, 72, 80
7, 205512, Note_on_c, 4, 72, 0
7, 205512, Note_on_c, 4, 79, 80
7, 205812, Note_on_c, 4, 79, 0
7, 205812, Note_on_c, 4, 72, 80
7, 206112, Note_on_c, 4, 72, 0
7, 206112, Note_on_c, 4, 79, 80
7, 206412, Note_on_c, 4, 79, 0
7, 206412, Note_on_c, 4, 72, 80
7, 206712, Note_on_c, 4, 72, 0
7, 206712, Note_on_c, 4, 77, 80
7, 207012, Note_on_c, 4, 77, 0
7, 207012, Note_on_c, 4, 72, 80
7, 207312, Note_on_c, 4, 72, 0
7, 207312, Note_on_c, 4, 77, 80
7, 207612, Note_on_c, 4, 77, 0
7, 207612, Note_on_c, 4, 72, 80
7, 207912, Note_on_c, 4, 72, 0
7, 207912, Note_on_c, 4, 76, 80
7, 208212, Note_on_c, 4, 76, 0
7, 208212, Note_on_c, 4, 72, 80
7, 208512, Note_on_c, 4, 72, 0
7, 208512, Note_on_c, 4, 76, 80
7, 208812, Note_on_c, 4, 76, 0
7, 208812, Note_on_c, 4, 72, 80
7, 209112, Note_on_c, 4, 72, 0
7, 209112, Note_on_c, 4, 77, 80
7, 209412, Note_on_c, 4, 77, 0
7, 209412, Note_on_c, 4, 72, 80
7, 209712, Note_on_c, 4, 72, 0
7, 209712, Note_on_c, 4, 77, 80
7, 210012, Note_on_c, 4, 77, 0
7, 210012, Note_on_c, 4, 72, 80
7, 210312, Note_on_c, 4, 72, 0
7, 210312, Note_on_c, 4, 77, 80
7, 210612, Note_on_c, 4, 77, 0
7, 210612, Note_on_c, 4, 72, 80
7, 210912, Note_on_c, 4, 72, 0
7, 210912, Note_on_c, 4, 77, 80
7, 211212, Note_on_c, 4, 77, 0
7, 211212, Note_on_c, 4, 72, 80
7, 211512, Note_on_c, 4, 72, 0
7, 211512, Note_on_c, 4, 76, 80
7, 211812, Note_on_c, 4, 76, 0
7, 211812, Note_on_c, 4, 72, 80
7, 212112, Note_on_c, 4, 72, 0
7, 212112, Note_on_c, 4, 76, 80
7, 212412, Note_on_c, 4, 76, 0
7, 212412, Note_on_c, 4, 72, 80
7, 212712, Note_on_c, 4, 72, 0
7, 212712, Note_on_c, 4, 74, 80
7, 213012, Note_on_c, 4, 74, 0
7, 213012, Note_on_c, 4, 72, 80
7, 213312, Note_on_c, 4, 72, 0
7, 213312, Note_on_c, 4, 74, 80
7, 213612, Note_on_c, 4, 74, 0
7, 276012, Note_on_c, 4, 72, 80
7, 276312, Note_on_c, 4, 72, 0
7, 276312, Note_on_c, 4, 79, 80
7, 276612, Note_on_c, 4, 79, 0
7, 276612, Note_on_c, 4, 72, 80
7, 276912, Note_on_c, 4, 72, 0
7, 276912, Note_on_c, 4, 79, 80
7, 277212, Note_on_c, 4, 79, 0
7, 277212, Note_on_c, 4, 72, 80
7, 277512, Note_on_c, 4, 72, 0
7, 277512, Note_on_c, 4, 79, 80
7, 277812, Note_on_c, 4, 79, 0
7, 277812, Note_on_c, 4, 72, 80
7, 278112, Note_on_c, 4, 72, 0
7, 278112, Note_on_c, 4, 79, 80
7, 278412, Note_on_c, 4, 79, 0
7, 278412, Note_on_c, 4, 72, 80
7, 278712, Note_on_c, 4, 72, 0
7, 278712, Note_on_c, 4, 77, 80
7, 279012, Note_on_c, 4, 77, 0
7, 279012, Note_on_c, 4, 72, 80
7, 279312, Note_on_c, 4, 72, 0
7, 279312, Note_on_c, 4, 77, 80
7, 279612, Note_on_c, 4, 77, 0
7, 279612, Note_on_c, 4, 72, 80
7, 279912, Note_on_c, 4, 72, 0
7, 279912, Note_on_c, 4, 76, 80
7, 280212, Note_on_c, 4, 76, 0
7, 280212, Note_on_c, 4, 72, 80
7, 280512, Note_on_c, 4, 72, 0
7, 280512, Note_on_c, 4, 76, 80
7, 280812, Note_on_c, 4, 76, 0
7, 280812, Note_on_c, 4, 72, 80
7, 281112, Note_on_c, 4, 72, 0
7, 281112, Note_on_c, 4, 77, 80
7, 281412, Note_on_c, 4, 77, 0
7, 281412, Note_on_c, 4, 72, 80
7, 281712, Note_on_c, 4, 72, 0
7, 281712, Note_on_c, 4, 77, 80
7, 282012, Note_on_c, 4, 77, 0
7, 282012, Note_on_c, 4, 72, 80
7, 282312, Note_on_c, 4, 72, 0
7, 282312, Note_on_c, 4, 77, 80
7, 282612, Note_on_c, 4, 77, 0
7, 282612, Note_on_c, 4, 72, 80
7, 282912, Note_on_c, 4, 72, 0
7, 282912, Note_on_c, 4, 77, 80
7, 283212, Note_on_c, 4, 77, 0
7, 283212, Note_on_c, 4, 72, 80
7, 283512, Note_on_c, 4, 72, 0
7, 283512, Note_on_c, 4, 76, 80
7, 283812, Note_on_c, 4, 76, 0
7, 283812, Note_on_c, 4, 72, 80
7, 284112, Note_on_c, 4, 72, 0
7, 284112, Note_on_c, 4, 76, 80
7, 284412, Note_on_c, 4, 76, 0
7, 284412, Note_on_c, 4, 72, 80
7, 284712, Note_on_c, 4, 72, 0
7, 284712, Note_on_c, 4, 74, 80
7, 285012, Note_on_c, 4, 74, 0
7, 285012, Note_on_c, 4, 72, 80
7, 285312, Note_on_c, 4, 72, 0
7, 285312, Note_on_c, 4, 74, 80
7, 285612, Note_on_c, 4, 74, 0
7, 285612, Note_on_c, 4, 72, 80
7, 285912, Note_on_c, 4, 72, 0
7, 285912, Note_on_c, 4, 79, 80
7, 286212, Note_on_c, 4, 79, 0
7, 286212, Note_on_c, 4, 72, 80
7, 286512, Note_on_c, 4, 72, 0
7, 286512, Note_on_c, 4, 79, 80
7, 286812, Note_on_c, 4, 79, 0
7, 286812, Note_on_c, 4, 72, 80
7, 287112, Note_on_c, 4, 72, 0
7, 287112, Note_on_c, 4, 79, 80
7, 287412, Note_on_c, 4, 79, 0
7, 287412, Note_on_c, 4, 72, 80
7, 287712, Note_on_c, 4, 72, 0
7, 287712, Note_on_c, 4, 79, 80
7, 288012, Note_on_c, 4, 79, 0
7, 288012, Note_on_c, 4, 72, 80
7, 288312, Note_on_c, 4, 72, 0
7, 288312, Note_on_c, 4, 77, 80
7, 288612, Note_on_c, 4, 77, 0
7, 288612, Note_on_c, 4, 72, 80
7, 288912, Note_on_c, 4, 72, 0
7, 288912, Note_on_c, 4, 77, 80
7, 289212, Note_on_c, 4, 77, 0
7, 289212, Note_on_c, 4, 72, 80
7, 289512, Note_on_c, 4, 72, 0
7, 289512, Note_on_c, 4, 76, 80
7, 289812, Note_on_c, 4, 76, 0
7, 289812, Note_on_c, 4, 72, 80
7, 290112, Note_on_c, 4, 72, 0
7, 290112, Note_on_c, 4, 76, 80
7, 290412, Note_on_c, 4, 76, 0
7, 290412, Note_on_c, 4, 72, 80
7, 290712, Note_on_c, 4, 72, 0
7, 290712, Note_on_c, 4, 77, 80
7, 291012, Note_on_c, 4, 77, 0
7, 291012, Note_on_c, 4, 72, 80
7, 291312, Note_on_c, 4, 72, 0
7, 291312, Note_on_c, 4, 77, 80
7, 291612, Note_on_c, 4, 77, 0
7, 291612, Note_on_c, 4, 72, 80
7, 291912, Note_on_c, 4, 72, 0
7, 291912, Note_on_c, 4, 77, 80
7, 292212, Note_on_c, 4, 77, 0
7, 292212, Note_on_c, 4, 72, 80
7, 292512, Note_on_c, 4, 72, 0
7, 292512, Note_on_c, 4, 77, 80
7, 292812, Note_on_c, 4, 77, 0
7, 292812, Note_on_c, 4, 72, 80
7, 293112, Note_on_c, 4, 72, 0
7, 293112, Note_on_c, 4, 76, 80
7, 293412, Note_on_c, 4, 76, 0
7, 293412, Note_on_c, 4, 72, 80
7, 293712, Note_on_c, 4, 72, 0
7, 293712, Note_on_c, 4, 76, 80
7, 294012, Note_on_c, 4, 76, 0
7, 294012, Note_on_c, 4, 72, 80
7, 294312, Note_on_c, 4, 72, 0
7, 294312, Note_on_c, 4, 74, 80
7, 294612, Note_on_c, 4, 74, 0
7, 294612, Note_on_c, 4, 72, 80
7, 294912, Note_on_c, 4, 72, 0
7, 294912, Note_on_c, 4, 74, 80
7, 295212, Note_on_c, 4, 74, 0
7, 295212, Note_on_c, 4, 72, 80
7, 298812, Note_on_c, 4, 72, 0
7, 299999, Control_c, 0, 127, 0
7, 299999, End_track
8, 0, Start_track
8, 2412, Control_c, 5, 0, 0
8, 2412, Control_c, 5, 32, 0
8, 2412, Program_c, 5, 26
8, 2412, Title_t, "Guitar 1"
8, 2412, Control_c, 5, 7, 127
8, 60012, Note_on_c, 5, 60, 80
8, 60012, Note_on_c, 5, 55, 80
8, 60012, Note_on_c, 5, 52, 80
8, 60012, Note_on_c, 5, 48, 80
8, 60312, Note_on_c, 5, 60, 0
8, 60312, Note_on_c, 5, 67, 80
8, 60612, Note_on_c, 5, 67, 0
8, 60612, Note_on_c, 5, 60, 80
8, 60912, Note_on_c, 5, 60, 0
8, 60912, Note_on_c, 5, 67, 80
8, 61212, Note_on_c, 5, 67, 0
8, 61212, Note_on_c, 5, 60, 80
8, 61512, Note_on_c, 5, 60, 0
8, 61512, Note_on_c, 5, 67, 80
8, 61812, Note_on_c, 5, 67, 0
8, 61812, Note_on_c, 5, 60, 80
8, 62112, Note_on_c, 5, 60, 0
8, 62112, Note_on_c, 5, 67, 80
8, 62412, Note_on_c, 5, 55, 0
8, 62412, Note_on_c, 5, 52, 0
8, 62412, Note_on_c, 5, 48, 0
8, 62412, Note_on_c, 5, 67, 0
8, 62412, Note_on_c, 5, 60, 80
8, 62412, Note_on_c, 5, 55, 80
8, 62412, Note_on_c, 5, 52, 80
8, 62412, Note_on_c, 5, 48, 80
8, 62712, Note_on_c, 5, 60, 0
8, 62712, Note_on_c, 5, 65, 80
8, 63012, Note_on_c, 5, 65, 0
8, 63012, Note_on_c, 5, 60, 80
8, 63312, Note_on_c, 5, 60, 0
8, 63312, Note_on_c, 5, 65, 80
8, 63612, Note_on_c, 5, 65, 0
8, 63612, Note_on_c, 5, 60, 80
8, 63912, Note_on_c, 5, 60, 0
8, 63912, Note_on_c, 5, 64, 80
8, 64212, Note_on_c, 5, 64, 0
8, 64212, Note_on_c, 5, 60, 80
8, 64512, Note_on_c, 5, 60, 0
8, 64512, Note_on_c, 5, 64, 80
8, 64812, Note_on_c, 5, 55, 0
8, 64812, Note_on_c, 5, 52, 0
8, 64812, Note_on_c, 5, 48, 0
8, 64812, Note_on_c, 5, 64, 0
8, 64812, Note_on_c, 5, 60, 80
8, 64812, Note_on_c, 5, 57, 80
8, 64812, Note_on_c, 5, 53, 80
8, 64812, Note_on_c, 5, 48, 80
8, 65112, Note_on_c, 5, 60, 0
8, 65112, Note_on_c, 5, 65, 80
8, 65412, Note_on_c, 5, 65, 0
8, 65412, Note_on_c, 5, 60, 80
8, 65712, Note_on_c, 5, 60, 0
8, 65712, Note_on_c, 5, 65, 80
8, 66012, Note_on_c, 5, 65, 0
8, 66012, Note_on_c, 5, 60, 80
8, 66312, Note_on_c, 5, 60, 0
8, 66312, Note_on_c, 5, 65, 80
8, 66612, Note_on_c, 5, 65, 0
8, 66612, Note_on_c, 5, 60, 80
8, 66912, Note_on_c, 5, 60, 0
8, 66912, Note_on_c, 5, 65, 80
8, 67212, Note_on_c, 5, 57, 0
8, 67212, Note_on_c, 5, 53, 0
8, 67212, Note_on_c, 5, 48, 0
8, 67212, Note_on_c, 5, 65, 0
8, 67212, Note_on_c, 5, 60, 80
8, 67212, Note_on_c, 5, 57, 80
8, 67212, Note_on_c, 5, 53, 80
8, 67212, Note_on_c, 5, 48, 80
8, 67512, Note_on_c, 5, 60, 0
8, 67512, Note_on_c, 5, 64, 80
8, 67812, Note_on_c, 5, 64, 0
8, 67812, Note_on_c, 5, 60, 80
8, 68112, Note_on_c, 5, 60, 0
8, 68112, Note_on_c, 5, 64, 80
8, 68412, Note_on_c, 5, 64, 0
8, 68412, Note_on_c, 5, 60, 80
8, 68712, Note_on_c, 5, 60, 0
8, 68712, Note_on_c, 5, 62, 80
8, 69012, Note_on_c, 5, 62, 0
8, 69012, Note_on_c, 5, 60, 80
8, 69312, Note_on_c, 5, 60, 0
8, 69312, Note_on_c, 5, 62, 80
8, 69612, Note_on_c, 5, 57, 0
8, 69612, Note_on_c, 5, 53, 0
8, 69612, Note_on_c, 5, 48, 0
8, 69612, Note_on_c, 5, 62, 0
8, 69612, Note_on_c, 5, 60, 80
8, 69612, Note_on_c, 5, 52, 80
8, 69612, Note_on_c, 5, 48, 80
8, 69612, Note_on_c, 5, 45, 80
8, 69912, Note_on_c, 5, 60, 0
8, 69912, Note_on_c, 5, 67, 80
8, 70212, Note_on_c, 5, 67, 0
8, 70212, Note_on_c, 5, 60, 80
8, 70512, Note_on_c, 5, 60, 0
8, 70512, Note_on_c, 5, 67, 80
8, 70812, Note_on_c, 5, 67, 0
8, 70812, Note_on_c, 5, 60, 80
8, 71112, Note_on_c, 5, 60, 0
8, 71112, Note_on_c, 5, 67, 80
8, 71412, Note_on_c, 5, 67, 0
8, 71412, Note_on_c, 5, 60, 80
8, 71712, Note_on_c, 5, 60, 0
8, 71712, Note_on_c, 5, 67, 80
8, 72012, Note_on_c, 5, 52, 0
8, 72012, Note_on_c, 5, 48, 0
8, 72012, Note_on_c, 5, 45, 0
8, 72012, Note_on_c, 5, 67, 0
8, 72012, Note_on_c, 5, 60, 80
8, 72012, Note_on_c, 5, 52, 80
8, 72012, Note_on_c, 5, 48, 80
8, 72012, Note_on_c, 5, 45, 80
8, 72312, Note_on_c, 5, 60, 0
8, 72312, Note_on_c, 5, 65, 80
8, 72612, Note_on_c, 5, 65, 0
8, 72612, Note_on_c, 5, 60, 80
8, 72912, Note_on_c, 5, 60, 0
8, 72912, Note_on_c, 5, 65, 80
8, 73212, Note_on_c, 5, 65, 0
8, 73212, Note_on_c, 5, 60, 80
8, 73512, Note_on_c, 5, 60, 0
8, 73512, Note_on_c, 5, 64, 80
8, 73812, Note_on_c, 5, 64, 0
8, 73812, Note_on_c, 5, 60, 80
8, 74112, Note_on_c, 5, 60, 0
8, 74112, Note_on_c, 5, 64, 80
8, 74412, Note_on_c, 5, 52, 0
8, 74412, Note_on_c, 5, 48, 0
8, 74412, Note_on_c, 5, 45, 0
8, 74412, Note_on_c, 5, 64, 0
8, 74412, Note_on_c, 5, 60, 80
8, 74412, Note_on_c, 5, 50, 80
8, 74412, Note_on_c, 5, 47, 80
8, 74412, Note_on_c, 5, 43, 80
8, 74712, Note_on_c, 5, 60, 0
8, 74712, Note_on_c, 5, 65, 80
8, 75012, Note_on_c, 5, 65, 0
8, 75012, Note_on_c, 5, 60, 80
8, 75312, Note_on_c, 5, 60, 0
8, 75312, Note_on_c, 5, 65, 80
8, 75612, Note_on_c, 5, 65, 0
8, 75612, Note_on_c, 5, 60, 80
8, 75912, Note_on_c, 5, 60, 0
8, 75912, Note_on_c, 5, 65, 80
8, 76212, Note_on_c, 5, 65, 0
8, 76212, Note_on_c, 5, 60, 80
8, 76512, Note_on_c, 5, 60, 0
8, 76512, Note_on_c, 5, 65, 80
8, 76812, Note_on_c, 5, 50, 0
8, 76812, Note_on_c, 5, 47, 0
8, 76812, Note_on_c, 5, 43, 0
8, 76812, Note_on_c, 5, 65, 0
8, 76812, Note_on_c, 5, 60, 80
8, 76812, Note_on_c, 5, 50, 80
8, 76812, Note_on_c, 5, 47, 80
8, 76812, Note_on_c, 5, 43, 80
8, 77112, Note_on_c, 5, 60, 0
8, 77112, Note_on_c, 5, 64, 80
8, 77412, Note_on_c, 5, 64, 0
8, 77412, Note_on_c, 5, 60, 80
8, 77712, Note_on_c, 5, 60, 0
8, 77712, Note_on_c, 5, 64, 80
8, 78012, Note_on_c, 5, 64, 0
8, 78012, Note_on_c, 5, 60, 80
8, 78312, Note_on_c, 5, 60, 0
8, 78312, Note_on_c, 5, 62, 80
8, 78612, Note_on_c, 5, 62, 0
8, 78612, Note_on_c, 5, 60, 80
8, 78912, Note_on_c, 5, 60, 0
8, 78912, Note_on_c, 5, 62, 80
8, 79212, Note_on_c, 5, 50, 0
8, 79212, Note_on_c, 5, 47, 0
8, 79212, Note_on_c, 5, 43, 0
8, 79212, Note_on_c, 5, 62, 0
8, 79212, Note_on_c, 5, 60, 80
8, 79212, Note_on_c, 5, 55, 80
8, 79212, Note_on_c, 5, 52, 80
8, 79212, Note_on_c, 5, 48, 80
8, 79512, Note_on_c, 5, 60, 0
8, 79512, Note_on_c, 5, 67, 80
8, 79812, Note_on_c, 5, 67, 0
8, 79812, Note_on_c, 5, 60, 80
8, 80112, Note_on_c, 5, 60, 0
8, 80112, Note_on_c, 5, 67, 80
8, 80412, Note_on_c, 5, 67, 0
8, 80412, Note_on_c, 5, 60, 80
8, 80712, Note_on_c, 5, 60, 0
8, 80712, Note_on_c, 5, 67, 80
8, 81012, Note_on_c, 5, 67, 0
8, 81012, Note_on_c, 5, 60, 80
8, 81312, Note_on_c, 5, 60, 0
8, 81312, Note_on_c, 5, 67, 80
8, 81612, Note_on_c, 5, 55, 0
8, 81612, Note_on_c, 5, 52, 0
8, 81612, Note_on_c, 5, 48, 0
8, 81612, Note_on_c, 5, 67, 0
8, 81612, Note_on_c, 5, 60, 80
8, 81612, Note_on_c, 5, 55, 80
8, 81612, Note_on_c, 5, 52, 80
8, 81612, Note_on_c, 5, 48, 80
8, 81912, Note_on_c, 5, 60, 0
8, 81912, Note_on_c, 5, 65, 80
8, 82212, Note_on_c, 5, 65, 0
8, 82212, Note_on_c, 5, 60, 80
8, 82512, Note_on_c, 5, 60, 0
8, 82512, Note_on_c, 5, 65, 80
8, 82812, Note_on_c, 5, 65, 0
8, 82812, Note_on_c, 5, 60, 80
8, 83112, Note_on_c, 5, 60, 0
8, 83112, Note_on_c, 5, 64, 80
8, 83412, Note_on_c, 5, 64, 0
8, 83412, Note_on_c, 5, 60, 80
8, 83712, Note_on_c, 5, 60, 0
8, 83712, Note_on_c, 5, 64, 80
8, 84012, Note_on_c, 5, 55, 0
8, 84012, Note_on_c, 5, 52, 0
8, 84012, Note_on_c, 5, 48, 0
8, 84012, Note_on_c, 5, 64, 0
8, 84012, Note_on_c, 5, 60, 80
8, 84012, Note_on_c, 5, 57, 80
8, 84012, Note_on_c, 5, 53, 80
8, 84012, Note_on_c, 5, 48, 80
8, 84312, Note_on_c, 5, 60, 0
8, 84312, Note_on_c, 5, 65, 80
8, 84612, Note_on_c, 5, 65, 0
8, 84612, Note_on_c, 5, 60, 80
8, 84912, Note_on_c, 5, 60, 0
8, 84912, Note_on_c, 5, 65, 80
8, 85212, Note_on_c, 5, 65, 0
8, 85212, Note_on_c, 5, 60, 80
8, 85512, Note_on_c, 5, 60, 0
8, 85512, Note_on_c, 5, 65, 80
8, 85812, Note_on_c, 5, 65, 0
8, 85812, Note_on_c, 5, 60, 80
8, 86112, Note_on_c, 5, 60, 0
8, 86112, Note_on_c, 5, 65, 80
8, 86412, Note_on_c, 5, 57, 0
8, 86412, Note_on_c, 5, 53, 0
8, 86412, Note_on_c, 5, 48, 0
8, 86412, Note_on_c, 5, 65, 0
8, 86412, Note_on_c, 5, 60, 80
8, 86412, Note_on_c, 5, 57, 80
8, 86412, Note_on_c, 5, 53, 80
8, 86412, Note_on_c, 5, 48, 80
8, 86712, Note_on_c, 5, 60, 0
8, 86712, Note_on_c, 5, 64, 80
8, 87012, Note_on_c, 5, 64, 0
8, 87012, Note_on_c, 5, 60, 80
8, 87312, Note_on_c, 5, 60, 0
8, 87312, Note_on_c, 5, 64, 80
8, 87612, Note_on_c, 5, 64, 0
8, 87612, Note_on_c, 5, 60, 80
8, 87912, Note_on_c, 5, 60, 0
8, 87912, Note_on_c, 5, 62, 80
8, 88212, Note_on_c, 5, 62, 0
8, 88212, Note_on_c, 5, 60, 80
8, 88512, Note_on_c, 5, 60, 0
8, 88512, Note_on_c, 5, 62, 80
8, 88812, Note_on_c, 5, 57, 0
8, 88812, Note_on_c, 5, 53, 0
8, 88812, Note_on_c, 5, 48, 0
8, 88812, Note_on_c, 5, 62, 0
8, 88812, Note_on_c, 5, 60, 80
8, 88812, Note_on_c, 5, 52, 80
8, 88812, Note_on_c, 5, 48, 80
8, 88812, Note_on_c, 5, 45, 80
8, 89112, Note_on_c, 5, 60, 0
8, 89112, Note_on_c, 5, 67, 80
8, 89412, Note_on_c, 5, 67, 0
8, 89412, Note_on_c, 5, 60, 80
8, 89712, Note_on_c, 5, 60, 0
8, 89712, Note_on_c, 5, 67, 80
8, 90012, Note_on_c, 5, 67, 0
8, 90012, Note_on_c, 5, 60, 80
8, 90312, Note_on_c, 5, 60, 0
8, 90312, Note_on_c, 5, 67, 80
8, 90612, Note_on_c, 5, 67, 0
8, 90612, Note_on_c, 5, 60, 80
8, 90912, Note_on_c, 5, 60, 0
8, 90912, Note_on_c, 5, 67, 80
8, 91212, Note_on_c, 5, 52, 0
8, 91212, Note_on_c, 5, 48, 0
8, 91212, Note_on_c, 5, 45, 0
8, 91212, Note_on_c, 5, 67, 0
8, 91212, Note_on_c, 5, 60, 80
8, 91212, Note_on_c, 5, 52, 80
8, 91212, Note_on_c, 5, 48, 80
8, 91212, Note_on_c, 5, 45, 80
8, 91512, Note_on_c, 5, 60, 0
8, 91512, Note_on_c, 5, 65, 80
8, 91812, Note_on_c, 5, 65, 0
8, 91812, Note_on_c, 5, 60, 80
8, 92112, Note_on_c, 5, 60, 0
8, 92112, Note_on_c, 5, 65, 80
8, 92412, Note_on_c, 5, 65, 0
8, 92412, Note_on_c, 5, 60, 80
8, 92712, Note_on_c, 5, 60, 0
8, 92712, Note_on_c, 5, 64, 80
8, 93012, Note_on_c, 5, 64, 0
8, 93012, Note_on_c, 5, 60, 80
8, 93312, Note_on_c, 5, 60, 0
8, 93312, Note_on_c, 5, 64, 80
8, 93612, Note_on_c, 5, 52, 0
8, 93612, Note_on_c, 5, 48, 0
8, 93612, Note_on_c, 5, 45, 0
8, 93612, Note_on_c, 5, 64, 0
8, 93612, Note_on_c, 5, 60, 80
8, 93612, Note_on_c, 5, 50, 80
8, 93612, Note_on_c, 5, 47, 80
8, 93612, Note_on_c, 5, 43, 80
8, 93912, Note_on_c, 5, 60, 0
8, 93912, Note_on_c, 5, 65, 80
8, 94212, Note_on_c, 5, 65, 0
8, 94212, Note_on_c, 5, 60, 80
8, 94512, Note_on_c, 5, 60, 0
8, 94512, Note_on_c, 5, 65, 80
8, 94812, Note_on_c, 5, 65, 0
8, 94812, Note_on_c, 5, 60, 80
8, 95112, Note_on_c, 5, 60, 0
8, 95112, Note_on_c, 5, 65, 80
8, 95412, Note_on_c, 5, 65, 0
8, 95412, Note_on_c, 5, 60, 80
8, 95712, Note_on_c, 5, 60, 0
8, 95712, Note_on_c, 5, 65, 80
8, 96012, Note_on_c, 5, 50, 0
8, 96012, Note_on_c, 5, 47, 0
8, 96012, Note_on_c, 5, 43, 0
8, 96012, Note_on_c, 5, 65, 0
8, 96012, Note_on_c, 5, 60, 80
8, 96012, Note_on_c, 5, 50, 80
8, 96012, Note_on_c, 5, 47, 80
8, 96012, Note_on_c, 5, 43, 80
8, 96312, Note_on_c, 5, 60, 0
8, 96312, Note_on_c, 5, 64, 80
8, 96612, Note_on_c, 5, 64, 0
8, 96612, Note_on_c, 5, 60, 80
8, 96912, Note_on_c, 5, 60, 0
8, 96912, Note_on_c, 5, 64, 80
8, 97212, Note_on_c, 5, 64, 0
8, 97212, Note_on_c, 5, 60, 80
8, 97512, Note_on_c, 5, 60, 0
8, 97512, Note_on_c, 5, 62, 80
8, 97812, Note_on_c, 5, 62, 0
8, 97812, Note_on_c, 5, 60, 80
8, 98112, Note_on_c, 5, 60, 0
8, 98112, Note_on_c, 5, 62, 80
8, 98412, Note_on_c, 5, 50, 0
8, 98412, Note_on_c, 5, 47, 0
8, 98412, Note_on_c, 5, 43, 0
8, 98412, Note_on_c, 5, 62, 0
8, 98412, Note_on_c, 5, 60, 80
8, 98412, Note_on_c, 5, 55, 80
8, 98412, Note_on_c, 5, 52, 80
8, 98412, Note_on_c, 5, 48, 80
8, 98712, Note_on_c, 5, 60, 0
8, 98712, Note_on_c, 5, 67, 80
8, 99012, Note_on_c, 5, 67, 0
8, 99012, Note_on_c, 5, 60, 80
8, 99312, Note_on_c, 5, 60, 0
8, 99312, Note_on_c, 5, 67, 80
8, 99612, Note_on_c, 5, 67, 0
8, 99612, Note_on_c, 5, 60, 80
8, 99912, Note_on_c, 5, 60, 0
8, 99912, Note_on_c, 5, 67, 80
8, 100212, Note_on_c, 5, 67, 0
8, 100212, Note_on_c, 5, 60, 80
8, 100512, Note_on_c, 5, 60, 0
8, 100512, Note_on_c, 5, 67, 80
8, 100812, Note_on_c, 5, 55, 0
8, 100812, Note_on_c, 5, 52, 0
8, 100812, Note_on_c, 5, 48, 0
8, 100812, Note_on_c, 5, 67, 0
8, 100812, Note_on_c, 5, 60, 80
8, 100812, Note_on_c, 5, 55, 80
8, 100812, Note_on_c, 5, 52, 80
8, 100812, Note_on_c, 5, 48, 80
8, 101112, Note_on_c, 5, 60, 0
8, 101112, Note_on_c, 5, 65, 80
8, 101412, Note_on_c, 5, 65, 0
8, 101412, Note_on_c, 5, 60, 80
8, 101712, Note_on_c, 5, 60, 0
8, 101712, Note_on_c, 5, 65, 80
8, 102012, Note_on_c, 5, 65, 0
8, 102012, Note_on_c, 5, 60, 80
8, 102312, Note_on_c, 5, 60, 0
8, 102312, Note_on_c, 5, 64, 80
8, 102612, Note_on_c, 5, 64, 0
8, 102612, Note_on_c, 5, 60, 80
8, 102912, Note_on_c, 5, 60, 0
8, 102912, Note_on_c, 5, 64, 80
8, 103212, Note_on_c, 5, 55, 0
8, 103212, Note_on_c, 5, 52, 0
8, 103212, Note_on_c, 5, 48, 0
8, 103212, Note_on_c, 5, 64, 0
8, 103212, Note_on_c, 5, 60, 80
8, 103212, Note_on_c, 5, 57, 80
8, 103212, Note_on_c, 5, 53, 80
8, 103212, Note_on_c, 5, 48, 80
8, 103512, Note_on_c, 5, 60, 0
8, 103512, Note_on_c, 5, 65, 80
8, 103812, Note_on_c, 5, 65, 0
8, 103812, Note_on_c, 5, 60, 80
8, 104112, Note_on_c, 5, 60, 0
8, 104112, Note_on_c, 5, 65, 80
8, 104412, Note_on_c, 5, 65, 0
8, 104412, Note_on_c, 5, 60, 80
8, 104712, Note_on_c, 5, 60, 0
8, 104712, Note_on_c, 5, 65, 80
8, 105012, Note_on_c, 5, 65, 0
8, 105012, Note_on_c, 5, 60, 80
8, 105312, Note_on_c, 5, 60, 0
8, 105312, Note_on_c, 5, 65, 80
8, 105612, Note_on_c, 5, 57, 0
8, 105612, Note_on_c, 5, 53, 0
8, 105612, Note_on_c, 5, 48, 0
8, 105612, Note_on_c, 5, 65, 0
8, 105612, Note_on_c, 5, 60, 80
8, 105612, Note_on_c, 5, 57, 80
8, 105612, Note_on_c, 5, 53, 80
8, 105612, Note_on_c, 5, 48, 80
8, 105912, Note_on_c, 5, 60, 0
8, 105912, Note_on_c, 5, 64, 80
8, 106212, Note_on_c, 5, 64, 0
8, 106212, Note_on_c, 5, 60, 80
8, 106512, Note_on_c, 5, 60, 0
8, 106512, Note_on_c, 5, 64, 80
8, 106812, Note_on_c, 5, 64, 0
8, 106812, Note_on_c, 5, 60, 80
8, 107112, Note_on_c, 5, 60, 0
8, 107112, Note_on_c, 5, 62, 80
8, 107412, Note_on_c, 5, 62, 0
8, 107412, Note_on_c, 5, 60, 80
8, 107712, Note_on_c, 5, 60, 0
8, 107712, Note_on_c, 5, 62, 80
8, 108012, Note_on_c, 5, 57, 0
8, 108012, Note_on_c, 5, 53, 0
8, 108012, Note_on_c, 5, 48, 0
8, 108012, Note_on_c, 5, 62, 0
8, 108012, Note_on_c, 5, 60, 80
8, 108012, Note_on_c, 5, 52, 80
8, 108012, Note_on_c, 5, 48, 80
8, 108012, Note_on_c, 5, 45, 80
8, 108312, Note_on_c, 5, 60, 0
8, 108312, Note_on_c, 5, 67, 80
8, 108612, Note_on_c, 5, 67, 0
8, 108612, Note_on_c, 5, 60, 80
8, 108912, Note_on_c, 5, 60, 0
8, 108912, Note_on_c, 5, 67, 80
8, 109212, Note_on_c, 5, 67, 0
8, 109212, Note_on_c, 5, 60, 80
8, 109512, Note_on_c, 5, 60, 0
8, 109512, Note_on_c, 5, 67, 80
8, 109812, Note_on_c, 5, 67, 0
8, 109812, Note_on_c, 5, 60, 80
8, 110112, Note_on_c, 5, 60, 0
8, 110112, Note_on_c, 5, 67, 80
8, 110412, Note_on_c, 5, 52, 0
8, 110412, Note_on_c, 5, 48, 0
8, 110412, Note_on_c, 5, 45, 0
8, 110412, Note_on_c, 5, 67, 0
8, 110412, Note_on_c, 5, 60, 80
8, 110412, Note_on_c, 5, 52, 80
8, 110412, Note_on_c, 5, 48, 80
8, 110412, Note_on_c, 5, 45, 80
8, 110712, Note_on_c, 5, 60, 0
8, 110712, Note_on_c, 5, 65, 80
8, 111012, Note_on_c, 5, 65, 0
8, 111012, Note_on_c, 5, 60, 80
8, 111312, Note_on_c, 5, 60, 0
8, 111312, Note_on_c, 5, 65, 80
8, 111612, Note_on_c, 5, 65, 0
8, 111612, Note_on_c, 5, 60, 80
8, 111912, Note_on_c, 5, 60, 0
8, 111912, Note_on_c, 5, 64, 80
8, 112212, Note_on_c, 5, 64, 0
8, 112212, Note_on_c, 5, 60, 80
8, 112512, Note_on_c, 5, 60, 0
8, 112512, Note_on_c, 5, 64, 80
8, 112812, Note_on_c, 5, 52, 0
8, 112812, Note_on_c, 5, 48, 0
8, 112812, Note_on_c, 5, 45, 0
8, 112812, Note_on_c, 5, 64, 0
8, 112812, Note_on_c, 5, 60, 80
8, 112812, Note_on_c, 5, 50, 80
8, 112812, Note_on_c, 5, 47, 80
8, 112812, Note_on_c, 5, 43, 80
8, 113112, Note_on_c, 5, 60, 0
8, 113112, Note_on_c, 5, 65, 80
8, 113412, Note_on_c, 5, 65, 0
8, 113412, Note_on_c, 5, 60, 80
8, 113712, Note_on_c, 5, 60, 0
8, 113712, Note_on_c, 5, 65, 80
8, 114012, Note_on_c, 5, 65, 0
8, 114012, Note_on_c, 5, 60, 80
8, 114312, Note_on_c, 5, 60, 0
8, 114312, Note_on_c, 5, 65, 80
8, 114612, Note_on_c, 5, 65, 0
8, 114612, Note_on_c, 5, 60, 80
8, 114912, Note_on_c, 5, 60, 0
8, 114912, Note_on_c, 5, 65, 80
8, 115212, Note_on_c, 5, 50, 0
8, 115212, Note_on_c, 5, 47, 0
8, 115212, Note_on_c, 5, 43, 0
8, 115212, Note_on_c, 5, 65, 0
8, 115212, Note_on_c, 5, 60, 80
8, 115212, Note_on_c, 5, 50, 80
8, 115212, Note_on_c, 5, 47, 80
8, 115212, Note_on_c, 5, 43, 80
8, 115512, Note_on_c, 5, 60, 0
8, 115512, Note_on_c, 5, 64, 80
8, 115812, Note_on_c, 5, 64, 0
8, 115812, Note_on_c, 5, 60, 80
8, 116112, Note_on_c, 5, 60, 0
8, 116112, Note_on_c, 5, 64, 80
8, 116412, Note_on_c, 5, 64, 0
8, 116412, Note_on_c, 5, 60, 80
8, 116712, Note_on_c, 5, 60, 0
8, 116712, Note_on_c, 5, 62, 80
8, 117012, Note_on_c, 5, 62, 0
8, 117012, Note_on_c, 5, 60, 80
8, 117312, Note_on_c, 5, 60, 0
8, 117312, Note_on_c, 5, 62, 80
8, 117612, Note_on_c, 5, 50, 0
8, 117612, Note_on_c, 5, 47, 0
8, 117612, Note_on_c, 5, 43, 0
8, 117612, Note_on_c, 5, 62, 0
8, 156012, Note_on_c, 5, 60, 80
8, 156012, Note_on_c, 5, 55, 80
8, 156012, Note_on_c, 5, 52, 80
8, 156012, Note_on_c, 5, 48, 80
8, 156312, Note_on_c, 5, 60, 0
8, 156312, Note_on_c, 5, 67, 80
8, 156612, Note_on_c, 5, 67, 0
8, 156612, Note_on_c, 5, 60, 80
8, 156912, Note_on_c, 5, 60, 0
8, 156912, Note_on_c, 5, 67, 80
8, 157212, Note_on_c, 5, 67, 0
8, 157212, Note_on_c, 5, 60, 80
8, 157512, Note_on_c, 5, 60, 0
8, 157512, Note_on_c, 5, 67, 80
8, 157812, Note_on_c, 5, 67, 0
8, 157812, Note_on_c, 5, 60, 80
8, 158112, Note_on_c, 5, 60, 0
8, 158112, Note_on_c, 5, 67, 80
8, 158412, Note_on_c, 5, 55, 0
8, 158412, Note_on_c, 5, 52, 0
8, 158412, Note_on_c, 5, 48, 0
8, 158412, Note_on_c, 5, 67, 0
8, 158412, Note_on_c, 5, 60, 80
8, 158412, Note_on_c, 5, 55, 80
8, 158412, Note_on_c, 5, 52, 80
8, 158412, Note_on_c, 5, 48, 80
8, 158712, Note_on_c, 5, 60, 0
8, 158712, Note_on_c, 5, 65, 80
8, 159012, Note_on_c, 5, 65, 0
8, 159012, Note_on_c, 5, 60, 80
8, 159312, Note_on_c, 5, 60, 0
8, 159312, Note_on_c, 5, 65, 80
8, 159612, Note_on_c, 5, 65, 0
8, 159612, Note_on_c, 5, 60, 80
8, 159912, Note_on_c, 5, 60, 0
8, 159912, Note_on_c, 5, 64, 80
8, 160212, Note_on_c, 5, 64, 0
8, 160212, Note_on_c, 5, 60, 80
8, 160512, Note_on_c, 5, 60, 0
8, 160512, Note_on_c, 5, 64, 80
8, 160812, Note_on_c, 5, 55, 0
8, 160812, Note_on_c, 5, 52, 0
8, 160812, Note_on_c, 5, 48, 0
8, 160812, Note_on_c, 5, 64, 0
8, 160812, Note_on_c, 5, 60, 80
8, 160812, Note_on_c, 5, 57, 80
8, 160812, Note_on_c, 5, 53, 80
8, 160812, Note_on_c, 5, 48, 80
8, 161112, Note_on_c, 5, 60, 0
8, 161112, Note_on_c, 5, 65, 80
8, 161412, Note_on_c, 5, 65, 0
8, 161412, Note_on_c, 5, 60, 80
8, 161712, Note_on_c, 5, 60, 0
8, 161712, Note_on_c, 5, 65, 80
8, 162012, Note_on_c, 5, 65, 0
8, 162012, Note_on_c, 5, 60, 80
8, 162312, Note_on_c, 5, 60, 0
8, 162312, Note_on_c, 5, 65, 80
8, 162612, Note_on_c, 5, 65, 0
8, 162612, Note_on_c, 5, 60, 80
8, 162912, Note_on_c, 5, 60, 0
8, 162912, Note_on_c, 5, 65, 80
8, 163212, Note_on_c, 5, 57, 0
8, 163212, Note_on_c, 5, 53, 0
8, 163212, Note_on_c, 5, 48, 0
8, 163212, Note_on_c, 5, 65, 0
8, 163212, Note_on_c, 5, 60, 80
8, 163212, Note_on_c, 5, 57, 80
8, 163212, Note_on_c, 5, 53, 80
8, 163212, Note_on_c, 5, 48, 80
8, 163512, Note_on_c, 5, 60, 0
8, 163512, Note_on_c, 5, 64, 80
8, 163812, Note_on_c, 5, 64, 0
8, 163812, Note_on_c, 5, 60, 80
8, 164112, Note_on_c, 5, 60, 0
8, 164112, Note_on_c, 5, 64, 80
8, 164412, Note_on_c, 5, 64, 0
8, 164412, Note_on_c, 5, 60, 80
8, 164712, Note_on_c, 5, 60, 0
8, 164712, Note_on_c, 5, 62, 80
8, 165012, Note_on_c, 5, 62, 0
8, 165012, Note_on_c, 5, 60, 80
8, 165312, Note_on_c, 5, 60, 0
8, 165312, Note_on_c, 5, 62, 80
8, 165612, Note_on_c, 5, 57, 0
8, 165612, Note_on_c, 5, 53, 0
8, 165612, Note_on_c, 5, 48, 0
8, 165612, Note_on_c, 5, 62, 0
8, 165612, Note_on_c, 5, 60, 80
8, 165612, Note_on_c, 5, 52, 80
8, 165612, Note_on_c, 5, 48, 80
8, 165612, Note_on_c, 5, 45, 80
8, 165912, Note_on_c, 5, 60, 0
8, 165912, Note_on_c, 5, 67, 80
8, 166212, Note_on_c, 5, 67, 0
8, 166212, Note_on_c, 5, 60, 80
8, 166512, Note_on_c, 5, 60, 0
8, 166512, Note_on_c, 5, 67, 80
8, 166812, Note_on_c, 5, 67, 0
8, 166812, Note_on_c, 5, 60, 80
8, 167112, Note_on_c, 5, 60, 0
8, 167112, Note_on_c, 5, 67, 80
8, 167412, Note_on_c, 5, 67, 0
8, 167412, Note_on_c, 5, 60, 80
8, 167712, Note_on_c, 5, 60, 0
8, 167712, Note_on_c, 5, 67, 80
8, 168012, Note_on_c, 5, 52, 0
8, 168012, Note_on_c, 5, 48, 0
8, 168012, Note_on_c, 5, 45, 0
8, 168012, Note_on_c, 5, 67, 0
8, 168012, Note_on_c, 5, 60, 80
8, 168012, Note_on_c, 5, 52, 80
8, 168012, Note_on_c, 5, 48, 80
8, 168012, Note_on_c, 5, 45, 80
8, 168312, Note_on_c, 5, 60, 0
8, 168312, Note_on_c, 5, 65, 80
8, 168612, Note_on_c, 5, 65, 0
8, 168612, Note_on_c, 5, 60, 80
8, 168912, Note_on_c, 5, 60, 0
8, 168912, Note_on_c, 5, 65, 80
8, 169212, Note_on_c, 5, 65, 0
8, 169212, Note_on_c, 5, 60, 80
8, 169512, Note_on_c, 5, 60, 0
8, 169512, Note_on_c, 5, 64, 80
8, 169812, Note_on_c, 5, 64, 0
8, 169812, Note_on_c, 5, 60, 80
8, 170112, Note_on_c, 5, 60, 0
8, 170112, Note_on_c, 5, 64, 80
8, 170412, Note_on_c, 5, 52, 0
8, 170412, Note_on_c, 5, 48, 0
8, 170412, Note_on_c, 5, 45, 0
8, 170412, Note_on_c, 5, 64, 0
8, 170412, Note_on_c, 5, 60, 80
8, 170412, Note_on_c, 5, 50, 80
8, 170412, Note_on_c, 5, 47, 80
8, 170412, Note_on_c, 5, 43, 80
8, 170712, Note_on_c, 5, 60, 0
8, 170712, Note_on_c, 5, 65, 80
8, 171012, Note_on_c, 5, 65, 0
8, 171012, Note_on_c, 5, 60, 80
8, 171312, Note_on_c, 5, 60, 0
8, 171312, Note_on_c, 5, 65, 80
8, 171612, Note_on_c, 5, 65, 0
8, 171612, Note_on_c, 5, 60, 80
8, 171912, Note_on_c, 5, 60, 0
8, 171912, Note_on_c, 5, 65, 80
8, 172212, Note_on_c, 5, 65, 0
8, 172212, Note_on_c, 5, 60, 80
8, 172512, Note_on_c, 5, 60, 0
8, 172512, Note_on_c, 5, 65, 80
8, 172812, Note_on_c, 5, 50, 0
8, 172812, Note_on_c, 5, 47, 0
8, 172812, Note_on_c, 5, 43, 0
8, 172812, Note_on_c, 5, 65, 0
8, 172812, Note_on_c, 5, 60, 80
8, 172812, Note_on_c, 5, 50, 80
8, 172812, Note_on_c, 5, 47, 80
8, 172812, Note_on_c, 5, 43, 80
8, 173112, Note_on_c, 5, 60, 0
8, 173112, Note_on_c, 5, 64, 80
8, 173412, Note_on_c, 5, 64, 0
8, 173412, Note_on_c, 5, 60, 80
8, 173712, Note_on_c, 5, 60, 0
8, 173712, Note_on_c, 5, 64, 80
8, 174012, Note_on_c, 5, 64, 0
8, 174012, Note_on_c, 5, 60, 80
8, 174312, Note_on_c, 5, 60, 0
8, 174312, Note_on_c, 5, 62, 80
8, 174612, Note_on_c, 5, 62, 0
8, 174612, Note_on_c, 5, 60, 80
8, 174912, Note_on_c, 5, 60, 0
8, 174912, Note_on_c, 5, 62, 80
8, 175212, Note_on_c, 5, 50, 0
8, 175212, Note_on_c, 5, 47, 0
8, 175212, Note_on_c, 5, 43, 0
8, 175212, Note_on_c, 5, 62, 0
8, 175212, Note_on_c, 5, 60, 80
8, 175212, Note_on_c, 5, 55, 80
8, 175212, Note_on_c, 5, 52, 80
8, 175212, Note_on_c, 5, 48, 80
8, 175512, Note_on_c, 5, 60, 0
8, 175512, Note_on_c, 5, 67, 80
8, 175812, Note_on_c, 5, 67, 0
8, 175812, Note_on_c, 5, 60, 80
8, 176112, Note_on_c, 5, 60, 0
8, 176112, Note_on_c, 5, 67, 80
8, 176412, Note_on_c, 5, 67, 0
8, 176412, Note_on_c, 5, 60, 80
8, 176712, Note_on_c, 5, 60, 0
8, 176712, Note_on_c, 5, 67, 80
8, 177012, Note_on_c, 5, 67, 0
8, 177012, Note_on_c, 5, 60, 80
8, 177312, Note_on_c, 5, 60, 0
8, 177312, Note_on_c, 5, 67, 80
8, 177612, Note_on_c, 5, 55, 0
8, 177612, Note_on_c, 5, 52, 0
8, 177612, Note_on_c, 5, 48, 0
8, 177612, Note_on_c, 5, 67, 0
8, 177612, Note_on_c, 5, 60, 80
8, 177612, Note_on_c, 5, 55, 80
8, 177612, Note_on_c, 5, 52, 80
8, 177612, Note_on_c, 5, 48, 80
8, 177912, Note_on_c, 5, 60, 0
8, 177912, Note_on_c, 5, 65, 80
8, 178212, Note_on_c, 5, 65, 0
8, 178212, Note_on_c, 5, 60, 80
8, 178512, Note_on_c, 5, 60, 0
8, 178512, Note_on_c, 5, 65, 80
8, 178812, Note_on_c, 5, 65, 0
8, 178812, Note_on_c, 5, 60, 80
8, 179112, Note_on_c, 5, 60, 0
8, 179112, Note_on_c, 5, 64, 80
8, 179412, Note_on_c, 5, 64, 0
8, 179412, Note_on_c, 5, 60, 80
8, 179712, Note_on_c, 5, 60, 0
8, 179712, Note_on_c, 5, 64, 80
8, 180012, Note_on_c, 5, 55, 0
8, 180012, Note_on_c, 5, 52, 0
8, 180012, Note_on_c, 5, 48, 0
8, 180012, Note_on_c, 5, 64, 0
8, 180012, Note_on_c, 5, 60, 80
8, 180012, Note_on_c, 5, 57, 80
8, 180012, Note_on_c, 5, 53, 80
8, 180012, Note_on_c, 5, 48, 80
8, 180312, Note_on_c, 5, 60, 0
8, 180312, Note_on_c, 5, 65, 80
8, 180612, Note_on_c, 5, 65, 0
8, 180612, Note_on_c, 5, 60, 80
8, 180912, Note_on_c, 5, 60, 0
8, 180912, Note_on_c, 5, 65, 80
8, 181212, Note_on_c, 5, 65, 0
8, 181212, Note_on_c, 5, 60, 80
8, 181512, Note_on_c, 5, 60, 0
8, 181512, Note_on_c, 5, 65, 80
8, 181812, Note_on_c, 5, 65, 0
8, 181812, Note_on_c, 5, 60, 80
8, 182112, Note_on_c, 5, 60, 0
8, 182112, Note_on_c, 5, 65, 80
8, 182412, Note_on_c, 5, 57, 0
8, 182412, Note_on_c, 5, 53, 0
8, 182412, Note_on_c, 5, 48, 0
8, 182412, Note_on_c, 5, 65, 0
8, 182412, Note_on_c, 5, 60, 80
8, 182412, Note_on_c, 5, 57, 80
8, 182412, Note_on_c, 5, 53, 80
8, 182412, Note_on_c, 5, 48, 80
8, 182712, Note_on_c, 5, 60, 0
8, 182712, Note_on_c, 5, 64, 80
8, 183012, Note_on_c, 5, 64, 0
8, 183012, Note_on_c, 5, 60, 80
8, 183312, Note_on_c, 5, 60, 0
8, 183312, Note_on_c, 5, 64, 80
8, 183612, Note_on_c, 5, 64, 0
8, 183612, Note_on_c, 5, 60, 80
8, 183912, Note_on_c, 5, 60, 0
8, 183912, Note_on_c, 5, 62, 80
8, 184212, Note_on_c, 5, 62, 0
8, 184212, Note_on_c, 5, 60, 80
8, 184512, Note_on_c, 5, 60, 0
8, 184512, Note_on_c, 5, 62, 80
8, 184812, Note_on_c, 5, 57, 0
8, 184812, Note_on_c, 5, 53, 0
8, 184812, Note_on_c, 5, 48, 0
8, 184812, Note_on_c, 5, 62, 0
8, 184812, Note_on_c, 5, 60, 80
8, 184812, Note_on_c, 5, 52, 80
8, 184812, Note_on_c, 5, 48, 80
8, 184812, Note_on_c, 5, 45, 80
8, 185112, Note_on_c, 5, 60, 0
8, 185112, Note_on_c, 5, 67, 80
8, 185412, Note_on_c, 5, 67, 0
8, 185412, Note_on_c, 5, 60, 80
8, 185712, Note_on_c, 5, 60, 0
8, 185712, Note_on_c, 5, 67, 80
8, 186012, Note_on_c, 5, 67, 0
8, 186012, Note_on_c, 5, 60, 80
8, 186312, Note_on_c, 5, 60, 0
8, 186312, Note_on_c, 5, 67, 80
8, 186612, Note_on_c, 5, 67, 0
8, 186612, Note_on_c, 5, 60, 80
8, 186912, Note_on_c, 5, 60, 0
8, 186912, Note_on_c, 5, 67, 80
8, 187212, Note_on_c, 5, 52, 0
8, 187212, Note_on_c, 5, 48, 0
8, 187212, Note_on_c, 5, 45, 0
8, 187212, Note_on_c, 5, 67, 0
8, 187212, Note_on_c, 5, 60, 80
8, 187212, Note_on_c, 5, 52, 80
8, 187212, Note_on_c, 5, 48, 80
8, 187212, Note_on_c, 5, 45, 80
8, 187512, Note_on_c, 5, 60, 0
8, 187512, Note_on_c, 5, 65, 80
8, 187812, Note_on_c, 5, 65, 0
8, 187812, Note_on_c, 5, 60, 80
8, 188112, Note_on_c, 5, 60, 0
8, 188112, Note_on_c, 5, 65, 80
8, 188412, Note_on_c, 5, 65, 0
8, 188412, Note_on_c, 5, 60, 80
8, 188712, Note_on_c, 5, 60, 0
8, 188712, Note_on_c, 5, 64, 80
8, 189012, Note_on_c, 5, 64, 0
8, 189012, Note_on_c, 5, 60, 80
8, 189312, Note_on_c, 5, 60, 0
8, 189312, Note_on_c, 5, 64, 80
8, 189612, Note_on_c, 5, 52, 0
8, 189612, Note_on_c, 5, 48, 0
8, 189612, Note_on_c, 5, 45, 0
8, 189612, Note_on_c, 5, 64, 0
8, 189612, Note_on_c, 5, 60, 80
8, 189612, Note_on_c, 5, 50, 80
8, 189612, Note_on_c, 5, 47, 80
8, 189612, Note_on_c, 5, 43, 80
8, 189912, Note_on_c, 5, 60, 0
8, 189912, Note_on_c, 5, 65, 80
8, 190212, Note_on_c, 5, 65, 0
8, 190212, Note_on_c, 5, 60, 80
8, 190512, Note_on_c, 5, 60, 0
8, 190512, Note_on_c, 5, 65, 80
8, 190812, Note_on_c, 5, 65, 0
8, 190812, Note_on_c, 5, 60, 80
8, 191112, Note_on_c, 5, 60, 0
8, 191112, Note_on_c, 5, 65, 80
8, 191412, Note_on_c, 5, 65, 0
8, 191412, Note_on_c, 5, 60, 80
8, 191712, Note_on_c, 5, 60, 0
8, 191712, Note_on_c, 5, 65, 80
8, 192012, Note_on_c, 5, 50, 0
8, 192012, Note_on_c, 5, 47, 0
8, 192012, Note_on_c, 5, 43, 0
8, 192012, Note_on_c, 5, 65, 0
8, 192012, Note_on_c, 5, 60, 80
8, 192012, Note_on_c, 5, 50, 80
8, 192012, Note_on_c, 5, 47, 80
8, 192012, Note_on_c, 5, 43, 80
8, 192312, Note_on_c, 5, 60, 0
8, 192312, Note_on_c, 5, 64, 80
8, 192612, Note_on_c, 5, 64, 0
8, 192612, Note_on_c, 5, 60, 80
8, 192912, Note_on_c, 5, 60, 0
8, 192912, Note_on_c, 5, 64, 80
8, 193212, Note_on_c, 5, 64, 0
8, 193212, Note_on_c, 5, 60, 80
8, 193512, Note_on_c, 5, 60, 0
8, 193512, Note_on_c, 5, 62, 80
8, 193812, Note_on_c, 5, 62, 0
8, 193812, Note_on_c, 5, 60, 80
8, 194112, Note_on_c, 5, 60, 0
8, 194112, Note_on_c, 5, 62, 80
8, 194412, Note_on_c, 5, 50, 0
8, 194412, Note_on_c, 5, 47, 0
8, 194412, Note_on_c, 5, 43, 0
8, 194412, Note_on_c, 5, 62, 0
8, 194412, Note_on_c, 5, 60, 80
8, 194412, Note_on_c, 5, 55, 80
8, 194412, Note_on_c, 5, 52, 80
8, 194412, Note_on_c, 5, 48, 80
8, 194712, Note_on_c, 5, 60, 0
8, 194712, Note_on_c, 5, 67, 80
8, 195012, Note_on_c, 5, 67, 0
8, 195012, Note_on_c, 5, 60, 80
8, 195312, Note_on_c, 5, 60, 0
8, 195312, Note_on_c, 5, 67, 80
8, 195612, Note_on_c, 5, 67, 0
8, 195612, Note_on_c, 5, 60, 80
8, 195912, Note_on_c, 5, 60, 0
8, 195912, Note_on_c, 5, 67, 80
8, 196212, Note_on_c, 5, 67, 0
8, 196212, Note_on_c, 5, 60, 80
8, 196512, Note_on_c, 5, 60, 0
8, 196512, Note_on_c, 5, 67, 80
8, 196812, Note_on_c, 5, 55, 0
8, 196812, Note_on_c, 5, 52, 0
8, 196812, Note_on_c, 5, 48, 0
8, 196812, Note_on_c, 5, 67, 0
8, 196812, Note_on_c, 5, 60, 80
8, 196812, Note_on_c, 5, 55, 80
8, 196812, Note_on_c, 5, 52, 80
8, 196812, Note_on_c, 5, 48, 80
8, 197112, Note_on_c, 5, 60, 0
8, 197112, Note_on_c, 5, 65, 80
8, 197412, Note_on_c, 5, 65, 0
8, 197412, Note_on_c, 5, 60, 80
8, 197712, Note_on_c, 5, 60, 0
8, 197712, Note_on_c, 5, 65, 80
8, 198012, Note_on_c, 5, 65, 0
8, 198012, Note_on_c, 5, 60, 80
8, 198312, Note_on_c, 5, 60, 0
8, 198312, Note_on_c, 5, 64, 80
8, 198612, Note_on_c, 5, 64, 0
8, 198612, Note_on_c, 5, 60, 80
8, 198912, Note_on_c, 5, 60, 0
8, 198912, Note_on_c, 5, 64, 80
8, 199212, Note_on_c, 5, 55, 0
8, 199212, Note_on_c, 5, 52, 0
8, 199212, Note_on_c, 5, 48, 0
8, 199212, Note_on_c, 5, 64, 0
8, 199212, Note_on_c, 5, 60, 80
8, 199212, Note_on_c, 5, 57, 80
8, 199212, Note_on_c, 5, 53, 80
8, 199212, Note_on_c, 5, 48, 80
8, 199512, Note_on_c, 5, 60, 0
8, 199512, Note_on_c, 5, 65, 80
8, 199812, Note_on_c, 5, 65, 0
8, 199812, Note_on_c, 5, 60, 80
8, 200112, Note_on_c, 5, 60, 0
8, 200112, Note_on_c, 5, 65, 80
8, 200412, Note_on_c, 5, 65, 0
8, 200412, Note_on_c, 5, 60, 80
8, 200712, Note_on_c, 5, 60, 0
8, 200712, Note_on_c, 5, 65, 80
8, 201012, Note_on_c, 5, 65, 0
8, 201012, Note_on_c, 5, 60, 80
8, 201312, Note_on_c, 5, 60, 0
8, 201312, Note_on_c, 5, 65, 80
8, 201612, Note_on_c, 5, 57, 0
8, 201612, Note_on_c, 5, 53, 0
8, 201612, Note_on_c, 5, 48, 0
8, 201612, Note_on_c, 5, 65, 0
8, 201612, Note_on_c, 5, 60, 80
8, 201612, Note_on_c, 5, 57, 80
8, 201612, Note_on_c, 5, 53, 80
8, 201612, Note_on_c, 5, 48, 80
8, 201912, Note_on_c, 5, 60, 0
8, 201912, Note_on_c, 5, 64, 80
8, 202212, Note_on_c, 5, 64, 0
8, 202212, Note_on_c, 5, 60, 80
8, 202512, Note_on_c, 5, 60, 0
8, 202512, Note_on_c, 5, 64, 80
8, 202812, Note_on_c, 5, 64, 0
8, 202812, Note_on_c, 5, 60, 80
8, 203112, Note_on_c, 5, 60, 0
8, 203112, Note_on_c, 5, 62, 80
8, 203412, Note_on_c, 5, 62, 0
8, 203412, Note_on_c, 5, 60, 80
8, 203712, Note_on_c, 5, 60, 0
8, 203712, Note_on_c, 5, 62, 80
8, 204012, Note_on_c, 5, 57, 0
8, 204012, Note_on_c, 5, 53, 0
8, 204012, Note_on_c, 5, 48, 0
8, 204012, Note_on_c, 5, 62, 0
8, 204012, Note_on_c, 5, 60, 80
8, 204012, Note_on_c, 5, 52, 80
8, 204012, Note_on_c, 5, 48, 80
8, 204012, Note_on_c, 5, 45, 80
8, 204312, Note_on_c, 5, 60, 0
8, 204312, Note_on_c, 5, 67, 80
8, 204612, Note_on_c, 5, 67, 0
8, 204612, Note_on_c, 5, 60, 80
8, 204912, Note_on_c, 5, 60, 0
8, 204912, Note_on_c, 5, 67, 80
8, 205212, Note_on_c, 5, 67, 0
8, 205212, Note_on_c, 5, 60, 80
8, 205512, Note_on_c, 5, 60, 0
8, 205512, Note_on_c, 5, 67, 80
8, 205812, Note_on_c, 5, 67, 0
8, 205812, Note_on_c, 5, 60, 80
8, 206112, Note_on_c, 5, 60, 0
8, 206112, Note_on_c, 5, 67, 80
8, 206412, Note_on_c, 5, 52, 0
8, 206412, Note_on_c, 5, 48, 0
8, 206412, Note_on_c, 5, 45, 0
8, 206412, Note_on_c, 5, 67, 0
8, 206412, Note_on_c, 5, 60, 80
8, 206412, Note_on_c, 5, 52, 80
8, 206412, Note_on_c, 5, 48, 80
8, 206412, Note_on_c, 5, 45, 80
8, 206712, Note_on_c, 5, 60, 0
8, 206712, Note_on_c, 5, 65, 80
8, 207012, Note_on_c, 5, 65, 0
8, 207012, Note_on_c, 5, 60, 80
8, 207312, Note_on_c, 5, 60, 0
8, 207312, Note_on_c, 5, 65, 80
8, 207612, Note_on_c, 5, 65, 0
8, 207612, Note_on_c, 5, 60, 80
8, 207912, Note_on_c, 5, 60, 0
8, 207912, Note_on_c, 5, 64, 80
8, 208212, Note_on_c, 5, 64, 0
8, 208212, Note_on_c, 5, 60, 80
8, 208512, Note_on_c, 5, 60, 0
8, 208512, Note_on_c, 5, 64, 80
8, 208812, Note_on_c, 5, 52, 0
8, 208812, Note_on_c, 5, 48, 0
8, 208812, Note_on_c, 5, 45, 0
8, 208812, Note_on_c, 5, 64, 0
8, 208812, Note_on_c, 5, 60, 80
8, 208812, Note_on_c, 5, 50, 80
8, 208812, Note_on_c, 5, 47, 80
8, 208812, Note_on_c, 5, 43, 80
8, 209112, Note_on_c, 5, 60, 0
8, 209112, Note_on_c, 5, 65, 80
8, 209412, Note_on_c, 5, 65, 0
8, 209412, Note_on_c, 5, 60, 80
8, 209712, Note_on_c, 5, 60, 0
8, 209712, Note_on_c, 5, 65, 80
8, 210012, Note_on_c, 5, 65, 0
8, 210012, Note_on_c, 5, 60, 80
8, 210312, Note_on_c, 5, 60, 0
8, 210312, Note_on_c, 5, 65, 80
8, 210612, Note_on_c, 5, 65, 0
8, 210612, Note_on_c, 5, 60, 80
8, 210912, Note_on_c, 5, 60, 0
8, 210912, Note_on_c, 5, 65, 80
8, 211212, Note_on_c, 5, 50, 0
8, 211212, Note_on_c, 5, 47, 0
8, 211212, Note_on_c, 5, 43, 0
8, 211212, Note_on_c, 5, 65, 0
8, 211212, Note_on_c, 5, 60, 80
8, 211212, Note_on_c, 5, 50, 80
8, 211212, Note_on_c, 5, 47, 80
8, 211212, Note_on_c, 5, 43, 80
8, 211512, Note_on_c, 5, 60, 0
8, 211512, Note_on_c, 5, 64, 80
8, 211812, Note_on_c, 5, 64, 0
8, 211812, Note_on_c, 5, 60, 80
8, 212112, Note_on_c, 5, 60, 0
8, 212112, Note_on_c, 5, 64, 80
8, 212412, Note_on_c, 5, 64, 0
8, 212412, Note_on_c, 5, 60, 80
8, 212712, Note_on_c, 5, 60, 0
8, 212712, Note_on_c, 5, 62, 80
8, 213012, Note_on_c, 5, 62, 0
8, 213012, Note_on_c, 5, 60, 80
8, 213312, Note_on_c, 5, 60, 0
8, 213312, Note_on_c, 5, 62, 80
8, 213612, Note_on_c, 5, 50, 0
8, 213612, Note_on_c, 5, 47, 0
8, 213612, Note_on_c, 5, 43, 0
8, 213612, Note_on_c, 5, 62, 0
8, 237612, Note_on_c, 5, 60, 80
8, 237612, Note_on_c, 5, 55, 80
8, 237612, Note_on_c, 5, 52, 80
8, 237612, Note_on_c, 5, 48, 80
8, 237912, Note_on_c, 5, 60, 0
8, 237912, Note_on_c, 5, 67, 80
8, 238212, Note_on_c, 5, 67, 0
8, 238212, Note_on_c, 5, 60, 80
8, 238512, Note_on_c, 5, 60, 0
8, 238512, Note_on_c, 5, 67, 80
8, 238812, Note_on_c, 5, 67, 0
8, 238812, Note_on_c, 5, 60, 80
8, 239112, Note_on_c, 5, 60, 0
8, 239112, Note_on_c, 5, 67, 80
8, 239412, Note_on_c, 5, 67, 0
8, 239412, Note_on_c, 5, 60, 80
8, 239712, Note_on_c, 5, 60, 0
8, 239712, Note_on_c, 5, 67, 80
8, 240012, Note_on_c, 5, 55, 0
8, 240012, Note_on_c, 5, 52, 0
8, 240012, Note_on_c, 5, 48, 0
8, 240012, Note_on_c, 5, 67, 0
8, 240012, Note_on_c, 5, 60, 80
8, 240012, Note_on_c, 5, 55, 80
8, 240012, Note_on_c, 5, 52, 80
8, 240012, Note_on_c, 5, 48, 80
8, 240312, Note_on_c, 5, 60, 0
8, 240312, Note_on_c, 5, 65, 80
8, 240612, Note_on_c, 5, 65, 0
8, 240612, Note_on_c, 5, 60, 80
8, 240912, Note_on_c, 5, 60, 0
8, 240912, Note_on_c, 5, 65, 80
8, 241212, Note_on_c, 5, 65, 0
8, 241212, Note_on_c, 5, 60, 80
8, 241512, Note_on_c, 5, 60, 0
8, 241512, Note_on_c, 5, 64, 80
8, 241812, Note_on_c, 5, 64, 0
8, 241812, Note_on_c, 5, 60, 80
8, 242112, Note_on_c, 5, 60, 0
8, 242112, Note_on_c, 5, 64, 80
8, 242412, Note_on_c, 5, 55, 0
8, 242412, Note_on_c, 5, 52, 0
8, 242412, Note_on_c, 5, 48, 0
8, 242412, Note_on_c, 5, 64, 0
8, 242412, Note_on_c, 5, 60, 80
8, 242412, Note_on_c, 5, 57, 80
8, 242412, Note_on_c, 5, 53, 80
8, 242412, Note_on_c, 5, 48, 80
8, 242712, Note_on_c, 5, 60, 0
8, 242712, Note_on_c, 5, 65, 80
8, 243012, Note_on_c, 5, 65, 0
8, 243012, Note_on_c, 5, 60, 80
8, 243312, Note_on_c, 5, 60, 0
8, 243312, Note_on_c, 5, 65, 80
8, 243612, Note_on_c, 5, 65, 0
8, 243612, Note_on_c, 5, 60, 80
8, 243912, Note_on_c, 5, 60, 0
8, 243912, Note_on_c, 5, 65, 80
8, 244212, Note_on_c, 5, 65, 0
8, 244212, Note_on_c, 5, 60, 80
8, 244512, Note_on_c, 5, 60, 0
8, 244512, Note_on_c, 5, 65, 80
8, 244812, Note_on_c, 5, 57, 0
8, 244812, Note_on_c, 5, 53, 0
8, 244812, Note_on_c, 5, 48, 0
8, 244812, Note_on_c, 5, 65, 0
8, 244812, Note_on_c, 5, 60, 80
8, 244812, Note_on_c, 5, 57, 80
8, 244812, Note_on_c, 5, 53, 80
8, 244812, Note_on_c, 5, 48, 80
8, 245112, Note_on_c, 5, 60, 0
8, 245112, Note_on_c, 5, 64, 80
8, 245412, Note_on_c, 5, 64, 0
8, 245412, Note_on_c, 5, 60, 80
8, 245712, Note_on_c, 5, 60, 0
8, 245712, Note_on_c, 5, 64, 80
8, 246012, Note_on_c, 5, 64, 0
8, 246012, Note_on_c, 5, 60, 80
8, 246312, Note_on_c, 5, 60, 0
8, 246312, Note_on_c, 5, 62, 80
8, 246612, Note_on_c, 5, 62, 0
8, 246612, Note_on_c, 5, 60, 80
8, 246912, Note_on_c, 5, 60, 0
8, 246912, Note_on_c, 5, 62, 80
8, 247212, Note_on_c, 5, 57, 0
8, 247212, Note_on_c, 5, 53, 0
8, 247212, Note_on_c, 5, 48, 0
8, 247212, Note_on_c, 5, 62, 0
8, 247212, Note_on_c, 5, 60, 80
8, 247212, Note_on_c, 5, 52, 80
8, 247212, Note_on_c, 5, 48, 80
8, 247212, Note_on_c, 5, 45, 80
8, 247512, Note_on_c, 5, 60, 0
8, 247512, Note_on_c, 5, 67, 80
8, 247812, Note_on_c, 5, 67, 0
8, 247812, Note_on_c, 5, 60, 80
8, 248112, Note_on_c, 5, 60, 0
8, 248112, Note_on_c, 5, 67, 80
8, 248412, Note_on_c, 5, 67, 0
8, 248412, Note_on_c, 5, 60, 80
8, 248712, Note_on_c, 5, 60, 0
8, 248712, Note_on_c, 5, 67, 80
8, 249012, Note_on_c, 5, 67, 0
8, 249012, Note_on_c, 5, 60, 80
8, 249312, Note_on_c, 5, 60, 0
8, 249312, Note_on_c, 5, 67, 80
8, 249612, Note_on_c, 5, 52, 0
8, 249612, Note_on_c, 5, 48, 0
8, 249612, Note_on_c, 5, 45, 0
8, 249612, Note_on_c, 5, 67, 0
8, 249612, Note_on_c, 5, 60, 80
8, 249612, Note_on_c, 5, 52, 80
8, 249612, Note_on_c, 5, 48, 80
8, 249612, Note_on_c, 5, 45, 80
8, 249912, Note_on_c, 5, 60, 0
8, 249912, Note_on_c, 5, 65, 80
8, 250212, Note_on_c, 5, 65, 0
8, 250212, Note_on_c, 5, 60, 80
8, 250512, Note_on_c, 5, 60, 0
8, 250512, Note_on_c, 5, 65, 80
8, 250812, Note_on_c, 5, 65, 0
8, 250812, Note_on_c, 5, 60, 80
8, 251112, Note_on_c, 5, 60, 0
8, 251112, Note_on_c, 5, 64, 80
8, 251412, Note_on_c, 5, 64, 0
8, 251412, Note_on_c, 5, 60, 80
8, 251712, Note_on_c, 5, 60, 0
8, 251712, Note_on_c, 5, 64, 80
8, 252012, Note_on_c, 5, 52, 0
8, 252012, Note_on_c, 5, 48, 0
8, 252012, Note_on_c, 5, 45, 0
8, 252012, Note_on_c, 5, 64, 0
8, 252012, Note_on_c, 5, 60, 80
8, 252012, Note_on_c, 5, 50, 80
8, 252012, Note_on_c, 5, 47, 80
8, 252012, Note_on_c, 5, 43, 80
8, 252312, Note_on_c, 5, 60, 0
8, 252312, Note_on_c, 5, 65, 80
8, 252612, Note_on_c, 5, 65, 0
8, 252612, Note_on_c, 5, 60, 80
8, 252912, Note_on_c, 5, 60, 0
8, 252912, Note_on_c, 5, 65, 80
8, 253212, Note_on_c, 5, 65, 0
8, 253212, Note_on_c, 5, 60, 80
8, 253512, Note_on_c, 5, 60, 0
8, 253512, Note_on_c, 5, 65, 80
8, 253812, Note_on_c, 5, 65, 0
8, 253812, Note_on_c, 5, 60, 80
8, 254112, Note_on_c, 5, 60, 0
8, 254112, Note_on_c, 5, 65, 80
8, 254412, Note_on_c, 5, 50, 0
8, 254412, Note_on_c, 5, 47, 0
8, 254412, Note_on_c, 5, 43, 0
8, 254412, Note_on_c, 5, 65, 0
8, 254412, Note_on_c, 5, 60, 80
8, 254412, Note_on_c, 5, 50, 80
8, 254412, Note_on_c, 5, 47, 80
8, 254412, Note_on_c, 5, 43, 80
8, 254712, Note_on_c, 5, 60, 0
8, 254712, Note_on_c, 5, 64, 80
8, 255012, Note_on_c, 5, 64, 0
8, 255012, Note_on_c, 5, 60, 80
8, 255312, Note_on_c, 5, 60, 0
8, 255312, Note_on_c, 5, 64, 80
8, 255612, Note_on_c, 5, 64, 0
8, 255612, Note_on_c, 5, 60, 80
8, 255912, Note_on_c, 5, 60, 0
8, 255912, Note_on_c, 5, 62, 80
8, 256212, Note_on_c, 5, 62, 0
8, 256212, Note_on_c, 5, 60, 80
8, 256512, Note_on_c, 5, 60, 0
8, 256512, Note_on_c, 5, 62, 80
8, 256812, Note_on_c, 5, 50, 0
8, 256812, Note_on_c, 5, 47, 0
8, 256812, Note_on_c, 5, 43, 0
8, 256812, Note_on_c, 5, 62, 0
8, 256812, Note_on_c, 5, 60, 80
8, 256812, Note_on_c, 5, 55, 80
8, 256812, Note_on_c, 5, 52, 80
8, 256812, Note_on_c, 5, 48, 80
8, 257112, Note_on_c, 5, 60, 0
8, 257112, Note_on_c, 5, 67, 80
8, 257412, Note_on_c, 5, 67, 0
8, 257412, Note_on_c, 5, 60, 80
8, 257712, Note_on_c, 5, 60, 0
8, 257712, Note_on_c, 5, 67, 80
8, 258012, Note_on_c, 5, 67, 0
8, 258012, Note_on_c, 5, 60, 80
8, 258312, Note_on_c, 5, 60, 0
8, 258312, Note_on_c, 5, 67, 80
8, 258612, Note_on_c, 5, 67, 0
8, 258612, Note_on_c, 5, 60, 80
8, 258912, Note_on_c, 5, 60, 0
8, 258912, Note_on_c, 5, 67, 80
8, 259212, Note_on_c, 5, 55, 0
8, 259212, Note_on_c, 5, 52, 0
8, 259212, Note_on_c, 5, 48, 0
8, 259212, Note_on_c, 5, 67, 0
8, 259212, Note_on_c, 5, 60, 80
8, 259212, Note_on_c, 5, 55, 80
8, 259212, Note_on_c, 5, 52, 80
8, 259212, Note_on_c, 5, 48, 80
8, 259512, Note_on_c, 5, 60, 0
8, 259512, Note_on_c, 5, 65, 80
8, 259812, Note_on_c, 5, 65, 0
8, 259812, Note_on_c, 5, 60, 80
8, 260112, Note_on_c, 5, 60, 0
8, 260112, Note_on_c, 5, 65, 80
8, 260412, Note_on_c, 5, 65, 0
8, 260412, Note_on_c, 5, 60, 80
8, 260712, Note_on_c, 5, 60, 0
8, 260712, Note_on_c, 5, 64, 80
8, 261012, Note_on_c, 5, 64, 0
8, 261012, Note_on_c, 5, 60, 80
8, 261312, Note_on_c, 5, 60, 0
8, 261312, Note_on_c, 5, 64, 80
8, 261612, Note_on_c, 5, 55, 0
8, 261612, Note_on_c, 5, 52, 0
8, 261612, Note_on_c, 5, 48, 0
8, 261612, Note_on_c, 5, 64, 0
8, 261612, Note_on_c, 5, 60, 80
8, 261612, Note_on_c, 5, 57, 80
8, 261612, Note_on_c, 5, 53, 80
8, 261612, Note_on_c, 5, 48, 80
8, 261912, Note_on_c, 5, 60, 0
8, 261912, Note_on_c, 5, 65, 80
8, 262212, Note_on_c, 5, 65, 0
8, 262212, Note_on_c, 5, 60, 80
8, 262512, Note_on_c, 5, 60, 0
8, 262512, Note_on_c, 5, 65, 80
8, 262812, Note_on_c, 5, 65, 0
8, 262812, Note_on_c, 5, 60, 80
8, 263112, Note_on_c, 5, 60, 0
8, 263112, Note_on_c, 5, 65, 80
8, 263412, Note_on_c, 5, 65, 0
8, 263412, Note_on_c, 5, 60, 80
8, 263712, Note_on_c, 5, 60, 0
8, 263712, Note_on_c, 5, 65, 80
8, 264012, Note_on_c, 5, 57, 0
8, 264012, Note_on_c, 5, 53, 0
8, 264012, Note_on_c, 5, 48, 0
8, 264012, Note_on_c, 5, 65, 0
8, 264012, Note_on_c, 5, 60, 80
8, 264012, Note_on_c, 5, 57, 80
8, 264012, Note_on_c, 5, 53, 80
8, 264012, Note_on_c, 5, 48, 80
8, 264312, Note_on_c, 5, 60, 0
8, 264312, Note_on_c, 5, 64, 80
8, 264612, Note_on_c, 5, 64, 0
8, 264612, Note_on_c, 5, 60, 80
8, 264912, Note_on_c, 5, 60, 0
8, 264912, Note_on_c, 5, 64, 80
8, 265212, Note_on_c, 5, 64, 0
8, 265212, Note_on_c, 5, 60, 80
8, 265512, Note_on_c, 5, 60, 0
8, 265512, Note_on_c, 5, 62, 80
8, 265812, Note_on_c, 5, 62, 0
8, 265812, Note_on_c, 5, 60, 80
8, 266112, Note_on_c, 5, 60, 0
8, 266112, Note_on_c, 5, 62, 80
8, 266412, Note_on_c, 5, 57, 0
8, 266412, Note_on_c, 5, 53, 0
8, 266412, Note_on_c, 5, 48, 0
8, 266412, Note_on_c, 5, 62, 0
8, 266412, Note_on_c, 5, 60, 80
8, 266412, Note_on_c, 5, 52, 80
8, 266412, Note_on_c, 5, 48, 80
8, 266412, Note_on_c, 5, 45, 80
8, 266712, Note_on_c, 5, 60, 0
8, 266712, Note_on_c, 5, 67, 80
8, 267012, Note_on_c, 5, 67, 0
8, 267012, Note_on_c, 5, 60, 80
8, 267312, Note_on_c, 5, 60, 0
8, 267312, Note_on_c, 5, 67, 80
8, 267612, Note_on_c, 5, 67, 0
8, 267612, Note_on_c, 5, 60, 80
8, 267912, Note_on_c, 5, 60, 0
8, 267912, Note_on_c, 5, 67, 80
8, 268212, Note_on_c, 5, 67, 0
8, 268212, Note_on_c, 5, 60, 80
8, 268512, Note_on_c, 5, 60, 0
8, 268512, Note_on_c, 5, 67, 80
8, 268812, Note_on_c, 5, 52, 0
8, 268812, Note_on_c, 5, 48, 0
8, 268812, Note_on_c, 5, 45, 0
8, 268812, Note_on_c, 5, 67, 0
8, 268812, Note_on_c, 5, 60, 80
8, 268812, Note_on_c, 5, 52, 80
8, 268812, Note_on_c, 5, 48, 80
8, 268812, Note_on_c, 5, 45, 80
8, 269112, Note_on_c, 5, 60, 0
8, 269112, Note_on_c, 5, 65, 80
8, 269412, Note_on_c, 5, 65, 0
8, 269412, Note_on_c, 5, 60, 80
8, 269712, Note_on_c, 5, 60, 0
8, 269712, Note_on_c, 5, 65, 80
8, 270012, Note_on_c, 5, 65, 0
8, 270012, Note_on_c, 5, 60, 80
8, 270312, Note_on_c, 5, 60, 0
8, 270312, Note_on_c, 5, 64, 80
8, 270612, Note_on_c, 5, 64, 0
8, 270612, Note_on_c, 5, 60, 80
8, 270912, Note_on_c, 5, 60, 0
8, 270912, Note_on_c, 5, 64, 80
8, 271212, Note_on_c, 5, 52, 0
8, 271212, Note_on_c, 5, 48, 0
8, 271212, Note_on_c, 5, 45, 0
8, 271212, Note_on_c, 5, 64, 0
8, 271212, Note_on_c, 5, 60, 80
8, 271212, Note_on_c, 5, 50, 80
8, 271212, Note_on_c, 5, 47, 80
8, 271212, Note_on_c, 5, 43, 80
8, 271512, Note_on_c, 5, 60, 0
8, 271512, Note_on_c, 5, 65, 80
8, 271812, Note_on_c, 5, 65, 0
8, 271812, Note_on_c, 5, 60, 80
8, 272112, Note_on_c, 5, 60, 0
8, 272112, Note_on_c, 5, 65, 80
8, 272412, Note_on_c, 5, 65, 0
8, 272412, Note_on_c, 5, 60, 80
8, 272712, Note_on_c, 5, 60, 0
8, 272712, Note_on_c, 5, 65, 80
8, 273012, Note_on_c, 5, 65, 0
8, 273012, Note_on_c, 5, 60, 80
8, 273312, Note_on_c, 5, 60, 0
8, 273312, Note_on_c, 5, 65, 80
8, 273612, Note_on_c, 5, 50, 0
8, 273612, Note_on_c, 5, 47, 0
8, 273612, Note_on_c, 5, 43, 0
8, 273612, Note_on_c, 5, 65, 0
8, 273612, Note_on_c, 5, 60, 80
8, 273612, Note_on_c, 5, 50, 80
8, 273612, Note_on_c, 5, 47, 80
8, 273612, Note_on_c, 5, 43, 80
8, 273912, Note_on_c, 5, 60, 0
8, 273912, Note_on_c, 5, 64, 80
8, 274212, Note_on_c, 5, 64, 0
8, 274212, Note_on_c, 5, 60, 80
8, 274512, Note_on_c, 5, 60, 0
8, 274512, Note_on_c, 5, 64, 80
8, 274812, Note_on_c, 5, 64, 0
8, 274812, Note_on_c, 5, 60, 80
8, 275112, Note_on_c, 5, 60, 0
8, 275112, Note_on_c, 5, 62, 80
8, 275412, Note_on_c, 5, 62, 0
8, 275412, Note_on_c, 5, 60, 80
8, 275712, Note_on_c, 5, 60, 0
8, 275712, Note_on_c, 5, 62, 80
8, 276012, Note_on_c, 5, 50, 0
8, 276012, Note_on_c, 5, 47, 0
8, 276012, Note_on_c, 5, 43, 0
8, 276012, Note_on_c, 5, 62, 0
8, 276012, Note_on_c, 5, 60, 80
8, 276012, Note_on_c, 5, 55, 80
8, 276012, Note_on_c, 5, 52, 80
8, 276012, Note_on_c, 5, 48, 80
8, 276312, Note_on_c, 5, 60, 0
8, 276312, Note_on_c, 5, 67, 80
8, 276612, Note_on_c, 5, 67, 0
8, 276612, Note_on_c, 5, 60, 80
8, 276912, Note_on_c, 5, 60, 0
8, 276912, Note_on_c, 5, 67, 80
8, 277212, Note_on_c, 5, 67, 0
8, 277212, Note_on_c, 5, 60, 80
8, 277512, Note_on_c, 5, 60, 0
8, 277512, Note_on_c, 5, 67, 80
8, 277812, Note_on_c, 5, 67, 0
8, 277812, Note_on_c, 5, 60, 80
8, 278112, Note_on_c, 5, 60, 0
8, 278112, Note_on_c, 5, 67, 80
8, 278412, Note_on_c, 5, 55, 0
8, 278412, Note_on_c, 5, 52, 0
8, 278412, Note_on_c, 5, 48, 0
8, 278412, Note_on_c, 5, 67, 0
8, 278412, Note_on_c, 5, 60, 80
8, 278412, Note_on_c, 5, 55, 80
8, 278412, Note_on_c, 5, 52, 80
8, 278412, Note_on_c, 5, 48, 80
8, 278712, Note_on_c, 5, 60, 0
8, 278712, Note_on_c, 5, 65, 80
8, 279012, Note_on_c, 5, 65, 0
8, 279012, Note_on_c, 5, 60, 80
8, 279312, Note_on_c, 5, 60, 0
8, 279312, Note_on_c, 5, 65, 80
8, 279612, Note_on_c, 5, 65, 0
8, 279612, Note_on_c, 5, 60, 80
8, 279912, Note_on_c, 5, 60, 0
8, 279912, Note_on_c, 5, 64, 80
8, 280212, Note_on_c, 5, 64, 0
8, 280212, Note_on_c, 5, 60, 80
8, 280512, Note_on_c, 5, 60, 0
8, 280512, Note_on_c, 5, 64, 80
8, 280812, Note_on_c, 5, 55, 0
8, 280812, Note_on_c, 5, 52, 0
8, 280812, Note_on_c, 5, 48, 0
8, 280812, Note_on_c, 5, 64, 0
8, 280812, Note_on_c, 5, 60, 80
8, 280812, Note_on_c, 5, 57, 80
8, 280812, Note_on_c, 5, 53, 80
8, 280812, Note_on_c, 5, 48, 80
8, 281112, Note_on_c, 5, 60, 0
8, 281112, Note_on_c, 5, 65, 80
8, 281412, Note_on_c, 5, 65, 0
8, 281412, Note_on_c, 5, 60, 80
8, 281712, Note_on_c, 5, 60, 0
8, 281712, Note_on_c, 5, 65, 80
8, 282012, Note_on_c, 5, 65, 0
8, 282012, Note_on_c, 5, 60, 80
8, 282312, Note_on_c, 5, 60, 0
8, 282312, Note_on_c, 5, 65, 80
8, 282612, Note_on_c, 5, 65, 0
8, 282612, Note_on_c, 5, 60, 80
8, 282912, Note_on_c, 5, 60, 0
8, 282912, Note_on_c, 5, 65, 80
8, 283212, Note_on_c, 5, 57, 0
8, 283212, Note_on_c, 5, 53, 0
8, 283212, Note_on_c, 5, 48, 0
8, 283212, Note_on_c, 5, 65, 0
8, 283212, Note_on_c, 5, 60, 80
8, 283212, Note_on_c, 5, 57, 80
8, 283212, Note_on_c, 5, 53, 80
8, 283212, Note_on_c, 5, 48, 80
8, 283512, Note_on_c, 5, 60, 0
8, 283512, Note_on_c, 5, 64, 80
8, 283812, Note_on_c, 5, 64, 0
8, 283812, Note_on_c, 5, 60, 80
8, 284112, Note_on_c, 5, 60, 0
8, 284112, Note_on_c, 5, 64, 80
8, 284412, Note_on_c, 5, 64, 0
8, 284412, Note_on_c, 5, 60, 80
8, 284712, Note_on_c, 5, 60, 0
8, 284712, Note_on_c, 5, 62, 80
8, 285012, Note_on_c, 5, 62, 0
8, 285012, Note_on_c, 5, 60, 80
8, 285312, Note_on_c, 5, 60, 0
8, 285312, Note_on_c, 5, 62, 80
8, 285612, Note_on_c, 5, 57, 0
8, 285612, Note_on_c, 5, 53, 0
8, 285612, Note_on_c, 5, 48, 0
8, 285612, Note_on_c, 5, 62, 0
8, 285612, Note_on_c, 5, 60, 80
8, 285612, Note_on_c, 5, 52, 80
8, 285612, Note_on_c, 5, 48, 80
8, 285612, Note_on_c, 5, 45, 80
8, 285912, Note_on_c, 5, 60, 0
8, 285912, Note_on_c, 5, 67, 80
8, 286212, Note_on_c, 5, 67, 0
8, 286212, Note_on_c, 5, 60, 80
8, 286512, Note_on_c, 5, 60, 0
8, 286512, Note_on_c, 5, 67, 80
8, 286812, Note_on_c, 5, 67, 0
8, 286812, Note_on_c, 5, 60, 80
8, 287112, Note_on_c, 5, 60, 0
8, 287112, Note_on_c, 5, 67, 80
8, 287412, Note_on_c, 5, 67, 0
8, 287412, Note_on_c, 5, 60, 80
8, 287712, Note_on_c, 5, 60, 0
8, 287712, Note_on_c, 5, 67, 80
8, 288012, Note_on_c, 5, 52, 0
8, 288012, Note_on_c, 5, 48, 0
8, 288012, Note_on_c, 5, 45, 0
8, 288012, Note_on_c, 5, 67, 0
8, 288012, Note_on_c, 5, 60, 80
8, 288012, Note_on_c, 5, 52, 80
8, 288012, Note_on_c, 5, 48, 80
8, 288012, Note_on_c, 5, 45, 80
8, 288312, Note_on_c, 5, 60, 0
8, 288312, Note_on_c, 5, 65, 80
8, 288612, Note_on_c, 5, 65, 0
8, 288612, Note_on_c, 5, 60, 80
8, 288912, Note_on_c, 5, 60, 0
8, 288912, Note_on_c, 5, 65, 80
8, 289212, Note_on_c, 5, 65, 0
8, 289212, Note_on_c, 5, 60, 80
8, 289512, Note_on_c, 5, 60, 0
8, 289512, Note_on_c, 5, 64, 80
8, 289812, Note_on_c, 5, 64, 0
8, 289812, Note_on_c, 5, 60, 80
8, 290112, Note_on_c, 5, 60, 0
8, 290112, Note_on_c, 5, 64, 80
8, 290412, Note_on_c, 5, 52, 0
8, 290412, Note_on_c, 5, 48, 0
8, 290412, Note_on_c, 5, 45, 0
8, 290412, Note_on_c, 5, 64, 0
8, 290412, Note_on_c, 5, 60, 80
8, 290412, Note_on_c, 5, 50, 80
8, 290412, Note_on_c, 5, 47, 80
8, 290412, Note_on_c, 5, 43, 80
8, 290712, Note_on_c, 5, 60, 0
8, 290712, Note_on_c, 5, 65, 80
8, 291012, Note_on_c, 5, 65, 0
8, 291012, Note_on_c, 5, 60, 80
8, 291312, Note_on_c, 5, 60, 0
8, 291312, Note_on_c, 5, 65, 80
8, 291612, Note_on_c, 5, 65, 0
8, 291612, Note_on_c, 5, 60, 80
8, 291912, Note_on_c, 5, 60, 0
8, 291912, Note_on_c, 5, 65, 80
8, 292212, Note_on_c, 5, 65, 0
8, 292212, Note_on_c, 5, 60, 80
8, 292512, Note_on_c, 5, 60, 0
8, 292512, Note_on_c, 5, 65, 80
8, 292812, Note_on_c, 5, 50, 0
8, 292812, Note_on_c, 5, 47, 0
8, 292812, Note_on_c, 5, 43, 0
8, 292812, Note_on_c, 5, 65, 0
8, 292812, Note_on_c, 5, 60, 80
8, 292812, Note_on_c, 5, 50, 80
8, 292812, Note_on_c, 5, 47, 80
8, 292812, Note_on_c, 5, 43, 80
8, 293112, Note_on_c, 5, 60, 0
8, 293112, Note_on_c, 5, 64, 80
8, 293412, Note_on_c, 5, 64, 0
8, 293412, Note_on_c, 5, 60, 80
8, 293712, Note_on_c, 5, 60, 0
8, 293712, Note_on_c, 5, 64, 80
8, 294012, Note_on_c, 5, 64, 0
8, 294012, Note_on_c, 5, 60, 80
8, 294312, Note_on_c, 5, 60, 0
8, 294312, Note_on_c, 5, 62, 80
8, 294612, Note_on_c, 5, 62, 0
8, 294612, Note_on_c, 5, 60, 80
8, 294912, Note_on_c, 5, 60, 0
8, 294912, Note_on_c, 5, 62, 80
8, 295212, Note_on_c, 5, 50, 0
8, 295212, Note_on_c, 5, 47, 0
8, 295212, Note_on_c, 5, 43, 0
8, 295212, Note_on_c, 5, 62, 0
8, 295212, Note_on_c, 5, 60, 80
8, 298812, Note_on_c, 5, 60, 0
8, 299999, Control_c, 0, 127, 0
8, 299999, End_track
9, 0, Start_track
9, 2412, Control_c, 6, 0, 0
9, 2412, Control_c, 6, 32, 0
9, 2412, Program_c, 6, 43
9, 2412, Title_t, "Bass"
9, 2412, Control_c, 6, 7, 127
9, 79212, Note_on_c, 6, 43, 80
9, 79212, Note_on_c, 6, 40, 80
9, 79212, Note_on_c, 6, 36, 80
9, 81612, Note_on_c, 6, 43, 0
9, 81612, Note_on_c, 6, 40, 0
9, 81612, Note_on_c, 6, 36, 0
9, 81612, Note_on_c, 6, 43, 80
9, 81612, Note_on_c, 6, 40, 80
9, 81612, Note_on_c, 6, 36, 80
9, 84012, Note_on_c, 6, 43, 0
9, 84012, Note_on_c, 6, 40, 0
9, 84012, Note_on_c, 6, 36, 0
9, 84012, Note_on_c, 6, 45, 80
9, 84012, Note_on_c, 6, 41, 80
9, 84012, Note_on_c, 6, 36, 80
9, 86412, Note_on_c, 6, 45, 0
9, 86412, Note_on_c, 6, 41, 0
9, 86412, Note_on_c, 6, 36, 0
9, 86412, Note_on_c, 6, 45, 80
9, 86412, Note_on_c, 6, 41, 80
9, 86412, Note_on_c, 6, 36, 80
9, 88812, Note_on_c, 6, 45, 0
9, 88812, Note_on_c, 6, 41, 0
9, 88812, Note_on_c, 6, 36, 0
9, 88812, Note_on_c, 6, 40, 80
9, 88812, Note_on_c, 6, 36, 80
9, 88812, Note_on_c, 6, 33, 80
9, 91212, Note_on_c, 6, 40, 0
9, 91212, Note_on_c, 6, 36, 0
9, 91212, Note_on_c, 6, 33, 0
9, 91212, Note_on_c, 6, 40, 80
9, 91212, Note_on_c, 6, 36, 80
9, 91212, Note_on_c, 6, 33, 80
9, 93612, Note_on_c, 6, 40, 0
9, 93612, Note_on_c, 6, 36, 0
9, 93612, Note_on_c, 6, 33, 0
9, 93612, Note_on_c, 6, 38, 80
9, 93612, Note_on_c, 6, 35, 80
9, 93612, Note_on_c, 6, 31, 80
9, 96012, Note_on_c, 6, 38, 0
9, 96012, Note_on_c, 6, 35, 0
9, 96012, Note_on_c, 6, 31, 0
9, 96012, Note_on_c, 6, 38, 80
9, 96012, Note_on_c, 6, 35, 80
9, 96012, Note_on_c, 6, 31, 80
9, 98412, Note_on_c, 6, 38, 0
9, 98412, Note_on_c, 6, 35, 0
9, 98412, Note_on_c, 6, 31, 0
9, 98412, Note_on_c, 6, 43, 80
9, 98412, Note_on_c, 6, 40, 80
9, 98412, Note_on_c, 6, 36, 80
9, 100812, Note_on_c, 6, 43, 0
9, 100812, Note_on_c, 6, 40, 0
9, 100812, Note_on_c, 6, 36, 0
9, 100812, Note_on_c, 6, 43, 80
9, 100812, Note_on_c, 6, 40, 80
9, 100812, Note_on_c, 6, 36, 80
9, 103212, Note_on_c, 6, 43, 0
9, 103212, Note_on_c, 6, 40, 0
9, 103212, Note_on_c, 6, 36, 0
9, 103212, Note_on_c, 6, 45, 80
9, 103212, Note_on_c, 6, 41, 80
9, 103212, Note_on_c, 6, 36, 80
9, 105612, Note_on_c, 6, 45, 0
9, 105612, Note_on_c, 6, 41, 0
9, 105612, Note_on_c, 6, 36, 0
9, 105612, Note_on_c, 6, 45, 80
9, 105612, Note_on_c, 6, 41, 80
9, 105612, Note_on_c, 6, 36, 80
9, 108012, Note_on_c, 6, 45, 0
9, 108012, Note_on_c, 6, 41, 0
9, 108012, Note_on_c, 6, 36, 0
9, 108012, Note_on_c, 6, 40, 80
9, 108012, Note_on_c, 6, 36, 80
9, 108012, Note_on_c, 6, 33, 80
9, 110412, Note_on_c, 6, 40, 0
9, 110412, Note_on_c, 6, 36, 0
9, 110412, Note_on_c, 6, 33, 0
9, 110412, Note_on_c, 6, 40, 80
9, 110412, Note_on_c, 6, 36, 80
9, 110412, Note_on_c, 6, 33, 80
9, 112812, Note_on_c, 6, 40, 0
9, 112812, Note_on_c, 6, 36, 0
9, 112812, Note_on_c, 6, 33, 0
9, 112812, Note_on_c, 6, 38, 80
9, 112812, Note_on_c, 6, 35, 80
9, 112812, Note_on_c, 6, 31, 80
9, 115212, Note_on_c, 6, 38, 0
9, 115212, Note_on_c, 6, 35, 0
9, 115212, Note_on_c, 6, 31, 0
9, 115212, Note_on_c, 6, 38, 80
9, 115212, Note_on_c, 6, 35, 80
9, 115212, Note_on_c, 6, 31, 80
9, 117612, Note_on_c, 6, 38, 0
9, 117612, Note_on_c, 6, 35, 0
9, 117612, Note_on_c, 6, 31, 0
9, 117612, Note_on_c, 6, 43, 20
9, 117612, Note_on_c, 6, 40, 20
9, 117612, Note_on_c, 6, 36, 20
9, 120012, Note_on_c, 6, 43, 0
9, 120012, Note_on_c, 6, 40, 0
9, 120012, Note_on_c, 6, 36, 0
9, 120012, Note_on_c, 6, 43, 20
9, 120012, Note_on_c, 6, 40, 20
9, 120012, Note_on_c, 6, 36, 20
9, 122412, Note_on_c, 6, 43, 0
9, 122412, Note_on_c, 6, 40, 0
9, 122412, Note_on_c, 6, 36, 0
9, 122412, Note_on_c, 6, 45, 20
9, 122412, Note_on_c, 6, 41, 20
9, 122412, Note_on_c, 6, 36, 20
9, 124812, Note_on_c, 6, 45, 0
9, 124812, Note_on_c, 6, 41, 0
9, 124812, Note_on_c, 6, 36, 0
9, 124812, Note_on_c, 6, 45, 20
9, 124812, Note_on_c, 6, 41, 20
9, 124812, Note_on_c, 6, 36, 20
9, 127212, Note_on_c, 6, 45, 0
9, 127212, Note_on_c, 6, 41, 0
9, 127212, Note_on_c, 6, 36, 0
9, 127212, Note_on_c, 6, 40, 20
9, 127212, Note_on_c, 6, 36, 20
9, 127212, Note_on_c, 6, 33, 20
9, 129612, Note_on_c, 6, 40, 0
9, 129612, Note_on_c, 6, 36, 0
9, 129612, Note_on_c, 6, 33, 0
9, 129612, Note_on_c, 6, 40, 20
9, 129612, Note_on_c, 6, 36, 20
9, 129612, Note_on_c, 6, 33, 20
9, 132012, Note_on_c, 6, 40, 0
9, 132012, Note_on_c, 6, 36, 0
9, 132012, Note_on_c, 6, 33, 0
9, 132012, Note_on_c, 6, 38, 20
9, 132012, Note_on_c, 6, 35, 20
9, 132012, Note_on_c, 6, 31, 20
9, 134412, Note_on_c, 6, 38, 0
9, 134412, Note_on_c, 6, 35, 0
9, 134412, Note_on_c, 6, 31, 0
9, 134412, Note_on_c, 6, 38, 20
9, 134412, Note_on_c, 6, 35, 20
9, 134412, Note_on_c, 6, 31, 20
9, 136812, Note_on_c, 6, 38, 0
9, 136812, Note_on_c, 6, 35, 0
9, 136812, Note_on_c, 6, 31, 0
9, 156012, Note_on_c, 6, 43, 80
9, 156012, Note_on_c, 6, 40, 80
9, 156012, Note_on_c, 6, 36, 80
9, 158412, Note_on_c, 6, 43, 0
9, 158412, Note_on_c, 6, 40, 0
9, 158412, Note_on_c, 6, 36, 0
9, 158412, Note_on_c, 6, 43, 80
9, 158412, Note_on_c, 6, 40, 80
9, 158412, Note_on_c, 6, 36, 80
9, 160812, Note_on_c, 6, 43, 0
9, 160812, Note_on_c, 6, 40, 0
9, 160812, Note_on_c, 6, 36, 0
9, 160812, Note_on_c, 6, 45, 80
9, 160812, Note_on_c, 6, 41, 80
9, 160812, Note_on_c, 6, 36, 80
9, 163212, Note_on_c, 6, 45, 0
9, 163212, Note_on_c, 6, 41, 0
9, 163212, Note_on_c, 6, 36, 0
9, 163212, Note_on_c, 6, 45, 80
9, 163212, Note_on_c, 6, 41, 80
9, 163212, Note_on_c, 6, 36, 80
9, 165612, Note_on_c, 6, 45, 0
9, 165612, Note_on_c, 6, 41, 0
9, 165612, Note_on_c, 6, 36, 0
9, 165612, Note_on_c, 6, 40, 80
9, 165612, Note_on_c, 6, 36, 80
9, 165612, Note_on_c, 6, 33, 80
9, 168012, Note_on_c, 6, 40, 0
9, 168012, Note_on_c, 6, 36, 0
9, 168012, Note_on_c, 6, 33, 0
9, 168012, Note_on_c, 6, 40, 80
9, 168012, Note_on_c, 6, 36, 80
9, 168012, Note_on_c, 6, 33, 80
9, 170412, Note_on_c, 6, 40, 0
9, 170412, Note_on_c, 6, 36, 0
9, 170412, Note_on_c, 6, 33, 0
9, 170412, Note_on_c, 6, 38, 80
9, 170412, Note_on_c, 6, 35, 80
9, 170412, Note_on_c, 6, 31, 80
9, 172812, Note_on_c, 6, 38, 0
9, 172812, Note_on_c, 6, 35, 0
9, 172812, Note_on_c, 6, 31, 0
9, 172812, Note_on_c, 6, 38, 80
9, 172812, Note_on_c, 6, 35, 80
9, 172812, Note_on_c, 6, 31, 80
9, 175212, Note_on_c, 6, 38, 0
9, 175212, Note_on_c, 6, 35, 0
9, 175212, Note_on_c, 6, 31, 0
9, 175212, Note_on_c, 6, 43, 80
9, 175212, Note_on_c, 6, 40, 80
9, 175212, Note_on_c, 6, 36, 80
9, 177612, Note_on_c, 6, 43, 0
9, 177612, Note_on_c, 6, 40, 0
9, 177612, Note_on_c, 6, 36, 0
9, 177612, Note_on_c, 6, 43, 80
9, 177612, Note_on_c, 6, 40, 80
9, 177612, Note_on_c, 6, 36, 80
9, 180012, Note_on_c, 6, 43, 0
9, 180012, Note_on_c, 6, 40, 0
9, 180012, Note_on_c, 6, 36, 0
9, 180012, Note_on_c, 6, 45, 80
9, 180012, Note_on_c, 6, 41, 80
9, 180012, Note_on_c, 6, 36, 80
9, 182412, Note_on_c, 6, 45, 0
9, 182412, Note_on_c, 6, 41, 0
9, 182412, Note_on_c, 6, 36, 0
9, 182412, Note_on_c, 6, 45, 80
9, 182412, Note_on_c, 6, 41, 80
9, 182412, Note_on_c, 6, 36, 80
9, 184812, Note_on_c, 6, 45, 0
9, 184812, Note_on_c, 6, 41, 0
9, 184812, Note_on_c, 6, 36, 0
9, 184812, Note_on_c, 6, 40, 80
9, 184812, Note_on_c, 6, 36, 80
9, 184812, Note_on_c, 6, 33, 80
9, 187212, Note_on_c, 6, 40, 0
9, 187212, Note_on_c, 6, 36, 0
9, 187212, Note_on_c, 6, 33, 0
9, 187212, Note_on_c, 6, 40, 80
9, 187212, Note_on_c, 6, 36, 80
9, 187212, Note_on_c, 6, 33, 80
9, 189612, Note_on_c, 6, 40, 0
9, 189612, Note_on_c, 6, 36, 0
9, 189612, Note_on_c, 6, 33, 0
9, 189612, Note_on_c, 6, 38, 80
9, 189612, Note_on_c, 6, 35, 80
9, 189612, Note_on_c, 6, 31, 80
9, 192012, Note_on_c, 6, 38, 0
9, 192012, Note_on_c, 6, 35, 0
9, 192012, Note_on_c, 6, 31, 0
9, 192012, Note_on_c, 6, 38, 80
9, 192012, Note_on_c, 6, 35, 80
9, 192012, Note_on_c, 6, 31, 80
9, 194412, Note_on_c, 6, 38, 0
9, 194412, Note_on_c, 6, 35, 0
9, 194412, Note_on_c, 6, 31, 0
9, 194412, Note_on_c, 6, 43, 80
9, 194412, Note_on_c, 6, 40, 80
9, 194412, Note_on_c, 6, 36, 80
9, 196812, Note_on_c, 6, 43, 0
9, 196812, Note_on_c, 6, 40, 0
9, 196812, Note_on_c, 6, 36, 0
9, 196812, Note_on_c, 6, 43, 80
9, 196812, Note_on_c, 6, 40, 80
9, 196812, Note_on_c, 6, 36, 80
9, 199212, Note_on_c, 6, 43, 0
9, 199212, Note_on_c, 6, 40, 0
9, 199212, Note_on_c, 6, 36, 0
9, 199212, Note_on_c, 6, 45, 80
9, 199212, Note_on_c, 6, 41, 80
9, 199212, Note_on_c, 6, 36, 80
9, 201612, Note_on_c, 6, 45, 0
9, 201612, Note_on_c, 6, 41, 0
9, 201612, Note_on_c, 6, 36, 0
9, 201612, Note_on_c, 6, 45, 80
9, 201612, Note_on_c, 6, 41, 80
9, 201612, Note_on_c, 6, 36, 80
9, 204012, Note_on_c, 6, 45, 0
9, 204012, Note_on_c, 6, 41, 0
9, 204012, Note_on_c, 6, 36, 0
9, 204012, Note_on_c, 6, 40, 80
9, 204012, Note_on_c, 6, 36, 80
9, 204012, Note_on_c, 6, 33, 80
9, 206412, Note_on_c, 6, 40, 0
9, 206412, Note_on_c, 6, 36, 0
9, 206412, Note_on_c, 6, 33, 0
9, 206412, Note_on_c, 6, 40, 80
9, 206412, Note_on_c, 6, 36, 80
9, 206412, Note_on_c, 6, 33, 80
9, 208812, Note_on_c, 6, 40, 0
9, 208812, Note_on_c, 6, 36, 0
9, 208812, Note_on_c, 6, 33, 0
9, 208812, Note_on_c, 6, 38, 80
9, 208812, Note_on_c, 6, 35, 80
9, 208812, Note_on_c, 6, 31, 80
9, 211212, Note_on_c, 6, 38, 0
9, 211212, Note_on_c, 6, 35, 0
9, 211212, Note_on_c, 6, 31, 0
9, 211212, Note_on_c, 6, 38, 80
9, 211212, Note_on_c, 6, 35, 80
9, 211212, Note_on_c, 6, 31, 80
9, 213612, Note_on_c, 6, 38, 0
9, 213612, Note_on_c, 6, 35, 0
9, 213612, Note_on_c, 6, 31, 0
9, 256812, Note_on_c, 6, 43, 80
9, 256812, Note_on_c, 6, 40, 80
9, 256812, Note_on_c, 6, 36, 80
9, 259212, Note_on_c, 6, 43, 0
9, 259212, Note_on_c, 6, 40, 0
9, 259212, Note_on_c, 6, 36, 0
9, 259212, Note_on_c, 6, 43, 80
9, 259212, Note_on_c, 6, 40, 80
9, 259212, Note_on_c, 6, 36, 80
9, 261612, Note_on_c, 6, 43, 0
9, 261612, Note_on_c, 6, 40, 0
9, 261612, Note_on_c, 6, 36, 0
9, 261612, Note_on_c, 6, 45, 80
9, 261612, Note_on_c, 6, 41, 80
9, 261612, Note_on_c, 6, 36, 80
9, 264012, Note_on_c, 6, 45, 0
9, 264012, Note_on_c, 6, 41, 0
9, 264012, Note_on_c, 6, 36, 0
9, 264012, Note_on_c, 6, 45, 80
9, 264012, Note_on_c, 6, 41, 80
9, 264012, Note_on_c, 6, 36, 80
9, 266412, Note_on_c, 6, 45, 0
9, 266412, Note_on_c, 6, 41, 0
9, 266412, Note_on_c, 6, 36, 0
9, 266412, Note_on_c, 6, 40, 80
9, 266412, Note_on_c, 6, 36, 80
9, 266412, Note_on_c, 6, 33, 80
9, 268812, Note_on_c, 6, 40, 0
9, 268812, Note_on_c, 6, 36, 0
9, 268812, Note_on_c, 6, 33, 0
9, 268812, Note_on_c, 6, 40, 80
9, 268812, Note_on_c, 6, 36, 80
9, 268812, Note_on_c, 6, 33, 80
9, 271212, Note_on_c, 6, 40, 0
9, 271212, Note_on_c, 6, 36, 0
9, 271212, Note_on_c, 6, 33, 0
9, 271212, Note_on_c, 6, 38, 80
9, 271212, Note_on_c, 6, 35, 80
9, 271212, Note_on_c, 6, 31, 80
9, 273612, Note_on_c, 6, 38, 0
9, 273612, Note_on_c, 6, 35, 0
9, 273612, Note_on_c, 6, 31, 0
9, 273612, Note_on_c, 6, 38, 80
9, 273612, Note_on_c, 6, 35, 80
9, 273612, Note_on_c, 6, 31, 80
9, 276012, Note_on_c, 6, 38, 0
9, 276012, Note_on_c, 6, 35, 0
9, 276012, Note_on_c, 6, 31, 0
9, 276012, Note_on_c, 6, 43, 80
9, 276012, Note_on_c, 6, 40, 80
9, 276012, Note_on_c, 6, 36, 80
9, 278412, Note_on_c, 6, 43, 0
9, 278412, Note_on_c, 6, 40, 0
9, 278412, Note_on_c, 6, 36, 0
9, 278412, Note_on_c, 6, 43, 80
9, 278412, Note_on_c, 6, 40, 80
9, 278412, Note_on_c, 6, 36, 80
9, 280812, Note_on_c, 6, 43, 0
9, 280812, Note_on_c, 6, 40, 0
9, 280812, Note_on_c, 6, 36, 0
9, 280812, Note_on_c, 6, 45, 80
9, 280812, Note_on_c, 6, 41, 80
9, 280812, Note_on_c, 6, 36, 80
9, 283212, Note_on_c, 6, 45, 0
9, 283212, Note_on_c, 6, 41, 0
9, 283212, Note_on_c, 6, 36, 0
9, 283212, Note_on_c, 6, 45, 80
9, 283212, Note_on_c, 6, 41, 80
9, 283212, Note_on_c, 6, 36, 80
9, 285612, Note_on_c, 6, 45, 0
9, 285612, Note_on_c, 6, 41, 0
9, 285612, Note_on_c, 6, 36, 0
9, 285612, Note_on_c, 6, 40, 80
9, 285612, Note_on_c, 6, 36, 80
9, 285612, Note_on_c, 6, 33, 80
9, 288012, Note_on_c, 6, 40, 0
9, 288012, Note_on_c, 6, 36, 0
9, 288012, Note_on_c, 6, 33, 0
9, 288012, Note_on_c, 6, 40, 80
9, 288012, Note_on_c, 6, 36, 80
9, 288012, Note_on_c, 6, 33, 80
9, 290412, Note_on_c, 6, 40, 0
9, 290412, Note_on_c, 6, 36, 0
9, 290412, Note_on_c, 6, 33, 0
9, 290412, Note_on_c, 6, 38, 80
9, 290412, Note_on_c, 6, 35, 80
9, 290412, Note_on_c, 6, 31, 80
9, 292812, Note_on_c, 6, 38, 0
9, 292812, Note_on_c, 6, 35, 0
9, 292812, Note_on_c, 6, 31, 0
9, 292812, Note_on_c, 6, 38, 80
9, 292812, Note_on_c, 6, 35, 80
9, 292812, Note_on_c, 6, 31, 80
9, 295212, Note_on_c, 6, 38, 0
9, 295212, Note_on_c, 6, 35, 0
9, 295212, Note_on_c, 6, 31, 0
9, 295212, Note_on_c, 6, 43, 80
9, 295212, Note_on_c, 6, 40, 80
9, 295212, Note_on_c, 6, 36, 80
9, 297612, Note_on_c, 6, 43, 0
9, 297612, Note_on_c, 6, 40, 0
9, 297612, Note_on_c, 6, 36, 0
9, 299999, Control_c, 0, 127, 0
9, 299999, End_track
0, 0, End_of_file
