0, 0, Header, 1, 3, 384
1, 0, Start_track
1, 0, Time_signature, 4, 2, 24, 8
1, 0, Tempo, 566037
1, 0, End_track
2, 0, Start_track
2, 0, Title_t, "Elec. Piano (Classic)"
2, 0, Program_c, 0, 0
2, 0, Note_on_c, 0, 72, 50
2, 384, Note_off_c, 0, 72, 0
2, 384, Note_on_c, 0, 55, 50
2, 576, Note_off_c, 0, 55, 0
2, 576, Note_on_c, 0, 57, 50
2, 768, Note_off_c, 0, 57, 0
2, 768, Note_on_c, 0, 60, 50
2, 1152, Note_off_c, 0, 60, 0
2, 1152, Note_on_c, 0, 55, 50
2, 1344, Note_off_c, 0, 55, 0
2, 1344, Note_on_c, 0, 57, 50
2, 1536, Note_off_c, 0, 57, 0
2, 1536, Note_on_c, 0, 65, 50
2, 1920, Note_off_c, 0, 65, 0
2, 2112, Note_on_c, 0, 67, 50
2, 2688, Note_off_c, 0, 67, 0
2, 2688, Note_on_c, 0, 55, 50
2, 2784, Note_off_c, 0, 55, 0
2, 2784, Note_on_c, 0, 57, 50
2, 2880, Note_off_c, 0, 57, 0
2, 2880, Note_on_c, 0, 55, 50
2, 3072, Note_off_c, 0, 55, 0
2, 3072, Note_on_c, 0, 67, 50
2, 3456, Note_off_c, 0, 67, 0
2, 3456, Note_on_c, 0, 55, 50
2, 3648, Note_off_c, 0, 55, 0
2, 3648, Note_on_c, 0, 64, 50
2, 4224, Note_off_c, 0, 64, 0
2, 4224, Note_on_c, 0, 55, 50
2, 4416, Note_off_c, 0, 55, 0
2, 4416, Note_on_c, 0, 57, 50
2, 4608, Note_off_c, 0, 57, 0
2, 4608, Note_on_c, 0, 65, 50
2, 5184, Note_off_c, 0, 65, 0
2, 5184, Note_on_c, 0, 62, 50
2, 6048, Note_off_c, 0, 62, 0
2, 6144, Note_on_c, 0, 60, 50
2, 6528, Note_off_c, 0, 60, 0
2, 6528, Note_on_c, 0, 79, 50
2, 6720, Note_off_c, 0, 79, 0
2, 6720, Note_on_c, 0, 79, 50
2, 6912, Note_off_c, 0, 79, 0
2, 6912, Note_on_c, 0, 79, 50
2, 7296, Note_off_c, 0, 79, 0
2, 7296, Note_on_c, 0, 64, 50
2, 7488, Note_off_c, 0, 64, 0
2, 7488, Note_on_c, 0, 79, 50
2, 7584, Note_off_c, 0, 79, 0
2, 7584, Note_on_c, 0, 77, 50
2, 7680, Note_off_c, 0, 77, 0
2, 7680, Note_on_c, 0, 76, 50
2, 7872, Note_off_c, 0, 76, 0
2, 7872, Note_on_c, 0, 76, 50
2, 7968, Note_off_c, 0, 76, 0
2, 7968, Note_on_c, 0, 77, 50
2, 8064, Note_off_c, 0, 77, 0
2, 8064, Note_on_c, 0, 79, 50
2, 8256, Note_off_c, 0, 79, 0
2, 8256, Note_on_c, 0, 76, 50
2, 8448, Note_off_c, 0, 76, 0
2, 8448, Note_on_c, 0, 74, 50
2, 8832, Note_off_c, 0, 74, 0
2, 8832, Note_on_c, 0, 72, 50
2, 9024, Note_off_c, 0, 72, 0
2, 9024, Note_on_c, 0, 74, 50
2, 9216, Note_off_c, 0, 74, 0
2, 9216, Note_on_c, 0, 76, 50
2, 9408, Note_off_c, 0, 76, 0
2, 9408, Note_on_c, 0, 72, 50
2, 9600, Note_off_c, 0, 72, 0
2, 9600, Note_on_c, 0, 67, 50
2, 9792, Note_off_c, 0, 67, 0
2, 9792, Note_on_c, 0, 79, 50
2, 9888, Note_off_c, 0, 79, 0
2, 9888, Note_on_c, 0, 81, 50
2, 9984, Note_off_c, 0, 81, 0
2, 9984, Note_on_c, 0, 79, 50
2, 10176, Note_off_c, 0, 79, 0
2, 10176, Note_on_c, 0, 79, 50
2, 10272, Note_off_c, 0, 79, 0
2, 10272, Note_on_c, 0, 81, 50
2, 10368, Note_off_c, 0, 81, 0
2, 10368, Note_on_c, 0, 79, 50
2, 10560, Note_off_c, 0, 79, 0
2, 10560, Note_on_c, 0, 84, 50
2, 10752, Note_off_c, 0, 84, 0
2, 11136, Note_on_c, 0, 84, 50
2, 11328, Note_off_c, 0, 84, 0
2, 11328, Note_on_c, 0, 81, 50
2, 11424, Note_off_c, 0, 81, 0
2, 11424, Note_on_c, 0, 83, 50
2, 11616, Note_off_c, 0, 83, 0
2, 11616, Note_on_c, 0, 79, 50
2, 11712, Note_off_c, 0, 79, 0
2, 11712, Note_on_c, 0, 81, 50
2, 11904, Note_off_c, 0, 81, 0
2, 11904, Note_on_c, 0, 83, 50
2, 12096, Note_off_c, 0, 83, 0
2, 12096, Note_on_c, 0, 79, 50
2, 12288, Note_off_c, 0, 79, 0
2, 12288, Note_on_c, 0, 60, 50
2, 12672, Note_off_c, 0, 60, 0
2, 12672, Note_on_c, 0, 79, 50
2, 12864, Note_off_c, 0, 79, 0
2, 12864, Note_on_c, 0, 81, 50
2, 13056, Note_off_c, 0, 81, 0
2, 13056, Note_on_c, 0, 79, 50
2, 13440, Note_off_c, 0, 79, 0
2, 13440, Note_on_c, 0, 64, 50
2, 13632, Note_off_c, 0, 64, 0
2, 13632, Note_on_c, 0, 76, 50
2, 13728, Note_off_c, 0, 76, 0
2, 13728, Note_on_c, 0, 77, 50
2, 13824, Note_off_c, 0, 77, 0
2, 13824, Note_on_c, 0, 79, 50
2, 14016, Note_off_c, 0, 79, 0
2, 14016, Note_on_c, 0, 77, 50
2, 14112, Note_off_c, 0, 77, 0
2, 14112, Note_on_c, 0, 76, 50
2, 14208, Note_off_c, 0, 76, 0
2, 14208, Note_on_c, 0, 74, 50
2, 14400, Note_off_c, 0, 74, 0
2, 14400, Note_on_c, 0, 69, 50
2, 14592, Note_off_c, 0, 69, 0
2, 14592, Note_on_c, 0, 67, 50
2, 14784, Note_off_c, 0, 67, 0
2, 14784, Note_on_c, 0, 65, 50
2, 14976, Note_off_c, 0, 65, 0
2, 15168, Note_on_c, 0, 69, 50
2, 15360, Note_off_c, 0, 69, 0
2, 15360, Note_on_c, 0, 67, 50
2, 15552, Note_off_c, 0, 67, 0
2, 15552, Note_on_c, 0, 76, 50
2, 15744, Note_off_c, 0, 76, 0
2, 15744, Note_on_c, 0, 72, 50
2, 15936, Note_off_c, 0, 72, 0
2, 15936, Note_on_c, 0, 79, 50
2, 16032, Note_off_c, 0, 79, 0
2, 16032, Note_on_c, 0, 81, 50
2, 16128, Note_off_c, 0, 81, 0
2, 16128, Note_on_c, 0, 79, 50
2, 16320, Note_off_c, 0, 79, 0
2, 16320, Note_on_c, 0, 79, 50
2, 16416, Note_off_c, 0, 79, 0
2, 16416, Note_on_c, 0, 81, 50
2, 16512, Note_off_c, 0, 81, 0
2, 16512, Note_on_c, 0, 79, 50
2, 16704, Note_off_c, 0, 79, 0
2, 16704, Note_on_c, 0, 84, 50
2, 16896, Note_off_c, 0, 84, 0
2, 17280, Note_on_c, 0, 84, 50
2, 17472, Note_off_c, 0, 84, 0
2, 17472, Note_on_c, 0, 81, 50
2, 17568, Note_off_c, 0, 81, 0
2, 17568, Note_on_c, 0, 83, 50
2, 17760, Note_off_c, 0, 83, 0
2, 17760, Note_on_c, 0, 79, 50
2, 17856, Note_off_c, 0, 79, 0
2, 17856, Note_on_c, 0, 81, 50
2, 18048, Note_off_c, 0, 81, 0
2, 18048, Note_on_c, 0, 83, 50
2, 18240, Note_off_c, 0, 83, 0
2, 18240, Note_on_c, 0, 79, 50
2, 18432, Note_off_c, 0, 79, 0
2, 18432, Note_on_c, 0, 72, 50
2, 18432, Note_on_c, 0, 67, 50
2, 18816, Note_off_c, 0, 72, 0
2, 18816, Note_off_c, 0, 67, 0
2, 18816, Note_on_c, 0, 79, 50
2, 19008, Note_off_c, 0, 79, 0
2, 19008, Note_on_c, 0, 79, 50
2, 19200, Note_off_c, 0, 79, 0
2, 19200, Note_on_c, 0, 79, 50
2, 19392, Note_off_c, 0, 79, 0
2, 19392, Note_on_c, 0, 77, 50
2, 19584, Note_off_c, 0, 77, 0
2, 19776, Note_on_c, 0, 76, 50
2, 19968, Note_off_c, 0, 76, 0
2, 19968, Note_on_c, 0, 72, 50
2, 20064, Note_off_c, 0, 72, 0
2, 20160, Note_on_c, 0, 73, 50
2, 20256, Note_off_c, 0, 73, 0
2, 20256, Note_on_c, 0, 74, 50
2, 20352, Note_off_c, 0, 74, 0
2, 20352, Note_on_c, 0, 74, 50
2, 20544, Note_off_c, 0, 74, 0
2, 20544, Note_on_c, 0, 76, 50
2, 20928, Note_off_c, 0, 76, 0
2, 20928, Note_on_c, 0, 79, 50
2, 21504, Note_off_c, 0, 79, 0
2, 21696, Note_on_c, 0, 81, 50
2, 21888, Note_off_c, 0, 81, 0
2, 21888, Note_on_c, 0, 79, 50
2, 21984, Note_off_c, 0, 79, 0
2, 21984, Note_on_c, 0, 76, 50
2, 22176, Note_off_c, 0, 76, 0
2, 22176, Note_on_c, 0, 74, 50
2, 22464, Note_off_c, 0, 74, 0
2, 22656, Note_on_c, 0, 67, 50
2, 22848, Note_off_c, 0, 67, 0
2, 22848, Note_on_c, 0, 69, 50
2, 22944, Note_off_c, 0, 69, 0
2, 22944, Note_on_c, 0, 72, 50
2, 23040, Note_off_c, 0, 72, 0
2, 23040, Note_on_c, 0, 72, 50
2, 23232, Note_off_c, 0, 72, 0
2, 23232, Note_on_c, 0, 69, 50
2, 23424, Note_off_c, 0, 69, 0
2, 23424, Note_on_c, 0, 72, 50
2, 23520, Note_off_c, 0, 72, 0
2, 23520, Note_on_c, 0, 74, 50
2, 23616, Note_off_c, 0, 74, 0
2, 23616, Note_on_c, 0, 72, 50
2, 24000, Note_off_c, 0, 72, 0
2, 24864, Note_on_c, 0, 79, 50
2, 24864, Note_on_c, 0, 72, 50
2, 24960, Note_off_c, 0, 72, 0
2, 24960, Note_off_c, 0, 79, 0
2, 24960, Note_on_c, 0, 79, 50
2, 24960, Note_on_c, 0, 72, 50
2, 25152, Note_off_c, 0, 72, 0
2, 25152, Note_off_c, 0, 79, 0
2, 25152, Note_on_c, 0, 79, 50
2, 25152, Note_on_c, 0, 72, 50
2, 25344, Note_off_c, 0, 72, 0
2, 25344, Note_off_c, 0, 79, 0
2, 25536, Note_on_c, 0, 77, 50
2, 25728, Note_off_c, 0, 77, 0
2, 25920, Note_on_c, 0, 69, 50
2, 25920, Note_on_c, 0, 76, 50
2, 26112, Note_off_c, 0, 76, 0
2, 26112, Note_off_c, 0, 69, 0
2, 26112, Note_on_c, 0, 65, 50
2, 26112, Note_on_c, 0, 72, 50
2, 26208, Note_off_c, 0, 72, 0
2, 26208, Note_off_c, 0, 65, 0
2, 26304, Note_on_c, 0, 73, 50
2, 26304, Note_on_c, 0, 66, 50
2, 26400, Note_off_c, 0, 66, 0
2, 26400, Note_off_c, 0, 73, 0
2, 26400, Note_on_c, 0, 67, 50
2, 26400, Note_on_c, 0, 74, 50
2, 26496, Note_off_c, 0, 67, 0
2, 26496, Note_off_c, 0, 74, 0
2, 26496, Note_on_c, 0, 74, 50
2, 26496, Note_on_c, 0, 67, 50
2, 26688, Note_off_c, 0, 67, 0
2, 26688, Note_off_c, 0, 74, 0
2, 26688, Note_on_c, 0, 76, 50
2, 26688, Note_on_c, 0, 69, 50
2, 27072, Note_off_c, 0, 69, 0
2, 27072, Note_off_c, 0, 76, 0
2, 27072, Note_on_c, 0, 74, 50
2, 27072, Note_on_c, 0, 79, 50
2, 27648, Note_off_c, 0, 79, 0
2, 27648, Note_off_c, 0, 74, 0
2, 27840, Note_on_c, 0, 81, 50
2, 28032, Note_off_c, 0, 81, 0
2, 28032, Note_on_c, 0, 79, 50
2, 28128, Note_off_c, 0, 79, 0
2, 28128, Note_on_c, 0, 76, 50
2, 28320, Note_off_c, 0, 76, 0
2, 28320, Note_on_c, 0, 74, 50
2, 28608, Note_off_c, 0, 74, 0
2, 28800, Note_on_c, 0, 67, 50
2, 28992, Note_off_c, 0, 67, 0
2, 28992, Note_on_c, 0, 69, 50
2, 29088, Note_off_c, 0, 69, 0
2, 29088, Note_on_c, 0, 72, 50
2, 29184, Note_off_c, 0, 72, 0
2, 29184, Note_on_c, 0, 72, 50
2, 29376, Note_off_c, 0, 72, 0
2, 29376, Note_on_c, 0, 69, 50
2, 29568, Note_off_c, 0, 69, 0
2, 29568, Note_on_c, 0, 72, 50
2, 29664, Note_off_c, 0, 72, 0
2, 29664, Note_on_c, 0, 74, 50
2, 29760, Note_off_c, 0, 74, 0
2, 29760, Note_on_c, 0, 67, 50
2, 29760, Note_on_c, 0, 72, 50
2, 30624, Note_off_c, 0, 72, 0
2, 30624, Note_off_c, 0, 67, 0
2, 30912, Note_on_c, 0, 93, 50
2, 31104, Note_off_c, 0, 93, 0
2, 31104, Note_on_c, 0, 91, 50
2, 31200, Note_off_c, 0, 91, 0
2, 31200, Note_on_c, 0, 88, 50
2, 31392, Note_off_c, 0, 88, 0
2, 31392, Note_on_c, 0, 86, 50
2, 31680, Note_off_c, 0, 86, 0
2, 31872, Note_on_c, 0, 79, 50
2, 32064, Note_off_c, 0, 79, 0
2, 32064, Note_on_c, 0, 81, 50
2, 32160, Note_off_c, 0, 81, 0
2, 32160, Note_on_c, 0, 84, 50
2, 32640, Note_off_c, 0, 84, 0
2, 33216, Note_on_c, 0, 81, 50
2, 33408, Note_off_c, 0, 81, 0
2, 33408, Note_on_c, 0, 84, 50
2, 33696, Note_off_c, 0, 84, 0
2, 33696, Note_on_c, 0, 86, 50
2, 33792, Note_off_c, 0, 86, 0
2, 33792, Note_on_c, 0, 84, 50
2, 34560, Note_off_c, 0, 84, 0
2, 40224, Note_on_c, 0, 60, 50
2, 40320, Note_off_c, 0, 60, 0
2, 40320, Note_on_c, 0, 79, 50
2, 40512, Note_off_c, 0, 79, 0
2, 40512, Note_on_c, 0, 79, 50
2, 40704, Note_off_c, 0, 79, 0
2, 40704, Note_on_c, 0, 79, 50
2, 41088, Note_off_c, 0, 79, 0
2, 41088, Note_on_c, 0, 64, 50
2, 41280, Note_off_c, 0, 64, 0
2, 41280, Note_on_c, 0, 79, 50
2, 41376, Note_off_c, 0, 79, 0
2, 41376, Note_on_c, 0, 77, 50
2, 41472, Note_off_c, 0, 77, 0
2, 41472, Note_on_c, 0, 76, 50
2, 41664, Note_off_c, 0, 76, 0
2, 41664, Note_on_c, 0, 76, 50
2, 41760, Note_off_c, 0, 76, 0
2, 41760, Note_on_c, 0, 77, 50
2, 41856, Note_off_c, 0, 77, 0
2, 41856, Note_on_c, 0, 79, 50
2, 42048, Note_off_c, 0, 79, 0
2, 42048, Note_on_c, 0, 76, 50
2, 42240, Note_off_c, 0, 76, 0
2, 42240, Note_on_c, 0, 74, 50
2, 42624, Note_off_c, 0, 74, 0
2, 42624, Note_on_c, 0, 62, 50
2, 42624, Note_on_c, 0, 72, 50
2, 42816, Note_off_c, 0, 62, 0
2, 42816, Note_off_c, 0, 72, 0
2, 42816, Note_on_c, 0, 74, 50
2, 43008, Note_off_c, 0, 74, 0
2, 43008, Note_on_c, 0, 76, 50
2, 43200, Note_off_c, 0, 76, 0
2, 43200, Note_on_c, 0, 72, 50
2, 43392, Note_off_c, 0, 72, 0
2, 43392, Note_on_c, 0, 67, 50
2, 43584, Note_off_c, 0, 67, 0
2, 43584, Note_on_c, 0, 79, 50
2, 43680, Note_off_c, 0, 79, 0
2, 43680, Note_on_c, 0, 81, 50
2, 43776, Note_off_c, 0, 81, 0
2, 43776, Note_on_c, 0, 79, 50
2, 43968, Note_off_c, 0, 79, 0
2, 43968, Note_on_c, 0, 79, 50
2, 44064, Note_off_c, 0, 79, 0
2, 44064, Note_on_c, 0, 81, 50
2, 44160, Note_off_c, 0, 81, 0
2, 44160, Note_on_c, 0, 79, 50
2, 44352, Note_off_c, 0, 79, 0
2, 44352, Note_on_c, 0, 84, 50
2, 44544, Note_off_c, 0, 84, 0
2, 44928, Note_on_c, 0, 84, 50
2, 45120, Note_off_c, 0, 84, 0
2, 45120, Note_on_c, 0, 81, 50
2, 45216, Note_off_c, 0, 81, 0
2, 45216, Note_on_c, 0, 83, 50
2, 45408, Note_off_c, 0, 83, 0
2, 45408, Note_on_c, 0, 79, 50
2, 45504, Note_off_c, 0, 79, 0
2, 45504, Note_on_c, 0, 81, 50
2, 45696, Note_off_c, 0, 81, 0
2, 45696, Note_on_c, 0, 83, 50
2, 45888, Note_off_c, 0, 83, 0
2, 45888, Note_on_c, 0, 79, 50
2, 46080, Note_off_c, 0, 79, 0
2, 46080, Note_on_c, 0, 60, 50
2, 46464, Note_off_c, 0, 60, 0
2, 46464, Note_on_c, 0, 79, 50
2, 46656, Note_off_c, 0, 79, 0
2, 46656, Note_on_c, 0, 81, 50
2, 46848, Note_off_c, 0, 81, 0
2, 46848, Note_on_c, 0, 79, 50
2, 47232, Note_off_c, 0, 79, 0
2, 47232, Note_on_c, 0, 64, 50
2, 47424, Note_off_c, 0, 64, 0
2, 47424, Note_on_c, 0, 76, 50
2, 47520, Note_off_c, 0, 76, 0
2, 47520, Note_on_c, 0, 77, 50
2, 47616, Note_off_c, 0, 77, 0
2, 47616, Note_on_c, 0, 79, 50
2, 47808, Note_off_c, 0, 79, 0
2, 47808, Note_on_c, 0, 77, 50
2, 47904, Note_off_c, 0, 77, 0
2, 47904, Note_on_c, 0, 76, 50
2, 48000, Note_off_c, 0, 76, 0
2, 48000, Note_on_c, 0, 74, 50
2, 48192, Note_off_c, 0, 74, 0
2, 48192, Note_on_c, 0, 69, 50
2, 48384, Note_off_c, 0, 69, 0
2, 48384, Note_on_c, 0, 67, 50
2, 48576, Note_off_c, 0, 67, 0
2, 48576, Note_on_c, 0, 65, 50
2, 48768, Note_off_c, 0, 65, 0
2, 48960, Note_on_c, 0, 69, 50
2, 49152, Note_off_c, 0, 69, 0
2, 49152, Note_on_c, 0, 67, 50
2, 49344, Note_off_c, 0, 67, 0
2, 49344, Note_on_c, 0, 76, 50
2, 49536, Note_off_c, 0, 76, 0
2, 49536, Note_on_c, 0, 72, 50
2, 49728, Note_off_c, 0, 72, 0
2, 49728, Note_on_c, 0, 79, 50
2, 49824, Note_off_c, 0, 79, 0
2, 49824, Note_on_c, 0, 81, 50
2, 49920, Note_off_c, 0, 81, 0
2, 49920, Note_on_c, 0, 79, 50
2, 50112, Note_off_c, 0, 79, 0
2, 50112, Note_on_c, 0, 79, 50
2, 50208, Note_off_c, 0, 79, 0
2, 50208, Note_on_c, 0, 81, 50
2, 50304, Note_off_c, 0, 81, 0
2, 50304, Note_on_c, 0, 79, 50
2, 50496, Note_off_c, 0, 79, 0
2, 50496, Note_on_c, 0, 84, 50
2, 50688, Note_off_c, 0, 84, 0
2, 51072, Note_on_c, 0, 84, 50
2, 51264, Note_off_c, 0, 84, 0
2, 51264, Note_on_c, 0, 81, 50
2, 51360, Note_off_c, 0, 81, 0
2, 51360, Note_on_c, 0, 83, 50
2, 51552, Note_off_c, 0, 83, 0
2, 51552, Note_on_c, 0, 79, 50
2, 51648, Note_off_c, 0, 79, 0
2, 51648, Note_on_c, 0, 81, 50
2, 51840, Note_off_c, 0, 81, 0
2, 51840, Note_on_c, 0, 83, 50
2, 52032, Note_off_c, 0, 83, 0
2, 52032, Note_on_c, 0, 79, 50
2, 52224, Note_off_c, 0, 79, 0
2, 52224, Note_on_c, 0, 67, 50
2, 52224, Note_on_c, 0, 72, 50
2, 52416, Note_off_c, 0, 67, 0
2, 52416, Note_off_c, 0, 72, 0
2, 52416, Note_on_c, 0, 79, 50
2, 52512, Note_off_c, 0, 79, 0
2, 52512, Note_on_c, 0, 79, 50
2, 52608, Note_off_c, 0, 79, 0
2, 52608, Note_on_c, 0, 79, 50
2, 52800, Note_off_c, 0, 79, 0
2, 52800, Note_on_c, 0, 79, 50
2, 53184, Note_off_c, 0, 79, 0
2, 53184, Note_on_c, 0, 77, 50
2, 53568, Note_off_c, 0, 77, 0
2, 53568, Note_on_c, 0, 76, 50
2, 53760, Note_off_c, 0, 76, 0
2, 53760, Note_on_c, 0, 72, 50
2, 53952, Note_off_c, 0, 72, 0
2, 53952, Note_on_c, 0, 73, 50
2, 54048, Note_off_c, 0, 73, 0
2, 54048, Note_on_c, 0, 74, 50
2, 54336, Note_off_c, 0, 74, 0
2, 54336, Note_on_c, 0, 75, 50
2, 54400, Note_on_c, 0, 76, 50
2, 54432, Note_off_c, 0, 75, 0
2, 54688, Note_off_c, 0, 76, 0
2, 54720, Note_on_c, 0, 78, 50
2, 54784, Note_on_c, 0, 79, 50
2, 54816, Note_off_c, 0, 78, 0
2, 55072, Note_off_c, 0, 79, 0
2, 55488, Note_on_c, 0, 81, 50
2, 55680, Note_off_c, 0, 81, 0
2, 55680, Note_on_c, 0, 79, 50
2, 55776, Note_off_c, 0, 79, 0
2, 55776, Note_on_c, 0, 76, 50
2, 55968, Note_off_c, 0, 76, 0
2, 55968, Note_on_c, 0, 74, 50
2, 56256, Note_off_c, 0, 74, 0
2, 56448, Note_on_c, 0, 67, 50
2, 56640, Note_off_c, 0, 67, 0
2, 56640, Note_on_c, 0, 69, 50
2, 56736, Note_off_c, 0, 69, 0
2, 56736, Note_on_c, 0, 72, 50
2, 57024, Note_off_c, 0, 72, 0
2, 57024, Note_on_c, 0, 69, 50
2, 57216, Note_off_c, 0, 69, 0
2, 57216, Note_on_c, 0, 72, 50
2, 57312, Note_off_c, 0, 72, 0
2, 57312, Note_on_c, 0, 74, 50
2, 57408, Note_off_c, 0, 74, 0
2, 57408, Note_on_c, 0, 72, 50
2, 57984, Note_off_c, 0, 72, 0
2, 58368, Note_on_c, 0, 79, 50
2, 58560, Note_off_c, 0, 79, 0
2, 58560, Note_on_c, 0, 72, 50
2, 58752, Note_off_c, 0, 72, 0
2, 58752, Note_on_c, 0, 74, 50
2, 58944, Note_off_c, 0, 74, 0
2, 58944, Note_on_c, 0, 67, 50
2, 59040, Note_off_c, 0, 67, 0
2, 59040, Note_on_c, 0, 72, 50
2, 59136, Note_off_c, 0, 72, 0
2, 59232, Note_on_c, 0, 79, 50
2, 59328, Note_off_c, 0, 79, 0
2, 59424, Note_on_c, 0, 72, 50
2, 59520, Note_off_c, 0, 72, 0
2, 59520, Note_on_c, 0, 74, 50
2, 59616, Note_off_c, 0, 74, 0
2, 59904, Note_on_c, 0, 77, 50
2, 60096, Note_off_c, 0, 77, 0
2, 60096, Note_on_c, 0, 72, 50
2, 60288, Note_off_c, 0, 72, 0
2, 60288, Note_on_c, 0, 74, 50
2, 60480, Note_off_c, 0, 74, 0
2, 60480, Note_on_c, 0, 67, 50
2, 60576, Note_off_c, 0, 67, 0
2, 60576, Note_on_c, 0, 72, 50
2, 60672, Note_off_c, 0, 72, 0
2, 60768, Note_on_c, 0, 79, 50
2, 60864, Note_off_c, 0, 79, 0
2, 60960, Note_on_c, 0, 72, 50
2, 61056, Note_off_c, 0, 72, 0
2, 61056, Note_on_c, 0, 74, 50
2, 61152, Note_off_c, 0, 74, 0
2, 61440, Note_on_c, 0, 79, 50
2, 61632, Note_off_c, 0, 79, 0
2, 61632, Note_on_c, 0, 72, 50
2, 61824, Note_off_c, 0, 72, 0
2, 61824, Note_on_c, 0, 74, 50
2, 62016, Note_off_c, 0, 74, 0
2, 62016, Note_on_c, 0, 67, 50
2, 62112, Note_off_c, 0, 67, 0
2, 62112, Note_on_c, 0, 72, 50
2, 62208, Note_off_c, 0, 72, 0
2, 62304, Note_on_c, 0, 79, 50
2, 62400, Note_off_c, 0, 79, 0
2, 62496, Note_on_c, 0, 72, 50
2, 62592, Note_off_c, 0, 72, 0
2, 62592, Note_on_c, 0, 74, 50
2, 62688, Note_off_c, 0, 74, 0
2, 62976, Note_on_c, 0, 77, 50
2, 63168, Note_off_c, 0, 77, 0
2, 63168, Note_on_c, 0, 72, 50
2, 63360, Note_off_c, 0, 72, 0
2, 63360, Note_on_c, 0, 74, 50
2, 63552, Note_off_c, 0, 74, 0
2, 63552, Note_on_c, 0, 67, 50
2, 63648, Note_off_c, 0, 67, 0
2, 63648, Note_on_c, 0, 72, 50
2, 63744, Note_off_c, 0, 72, 0
2, 63840, Note_on_c, 0, 79, 50
2, 63936, Note_off_c, 0, 79, 0
2, 64032, Note_on_c, 0, 72, 50
2, 64128, Note_off_c, 0, 72, 0
2, 64128, Note_on_c, 0, 74, 50
2, 64224, Note_off_c, 0, 74, 0
2, 64512, Note_on_c, 0, 79, 50
2, 64704, Note_off_c, 0, 79, 0
2, 64704, Note_on_c, 0, 72, 50
2, 64896, Note_off_c, 0, 72, 0
2, 64896, Note_on_c, 0, 74, 50
2, 65088, Note_off_c, 0, 74, 0
2, 65088, Note_on_c, 0, 67, 50
2, 65184, Note_off_c, 0, 67, 0
2, 65184, Note_on_c, 0, 72, 50
2, 65280, Note_off_c, 0, 72, 0
2, 65376, Note_on_c, 0, 79, 50
2, 65472, Note_off_c, 0, 79, 0
2, 65568, Note_on_c, 0, 72, 50
2, 65664, Note_off_c, 0, 72, 0
2, 65664, Note_on_c, 0, 74, 50
2, 65760, Note_off_c, 0, 74, 0
2, 66240, Note_on_c, 0, 79, 50
2, 66336, Note_off_c, 0, 79, 0
2, 66336, Note_on_c, 0, 81, 50
2, 66432, Note_off_c, 0, 81, 0
2, 66432, Note_on_c, 0, 79, 50
2, 66528, Note_off_c, 0, 79, 0
2, 66528, Note_on_c, 0, 76, 50
2, 66624, Note_off_c, 0, 76, 0
2, 66624, Note_on_c, 0, 67, 50
2, 66720, Note_off_c, 0, 67, 0
2, 66720, Note_on_c, 0, 72, 50
2, 66912, Note_off_c, 0, 72, 0
2, 66912, Note_on_c, 0, 71, 50
2, 67008, Note_off_c, 0, 71, 0
2, 67008, Note_on_c, 0, 69, 50
2, 67104, Note_off_c, 0, 69, 0
2, 67104, Note_on_c, 0, 67, 50
2, 67296, Note_off_c, 0, 67, 0
2, 67296, Note_on_c, 0, 72, 50
2, 67392, Note_off_c, 0, 72, 0
2, 67392, Note_on_c, 0, 76, 50
2, 67584, Note_off_c, 0, 76, 0
2, 67584, Note_on_c, 0, 74, 50
2, 67584, Note_on_c, 0, 77, 50
2, 67872, Note_off_c, 0, 77, 0
2, 67872, Note_off_c, 0, 74, 0
2, 67872, Note_on_c, 0, 72, 50
2, 67872, Note_on_c, 0, 76, 50
2, 68160, Note_off_c, 0, 76, 0
2, 68160, Note_off_c, 0, 72, 0
2, 68160, Note_on_c, 0, 67, 50
2, 68160, Note_on_c, 0, 72, 50
2, 68448, Note_off_c, 0, 72, 0
2, 68448, Note_off_c, 0, 67, 0
2, 68448, Note_on_c, 0, 64, 50
2, 68448, Note_on_c, 0, 67, 50
2, 68736, Note_off_c, 0, 64, 0
2, 68736, Note_off_c, 0, 67, 0
2, 68736, Note_on_c, 0, 67, 50
2, 68832, Note_off_c, 0, 67, 0
2, 68832, Note_on_c, 0, 71, 50
2, 68928, Note_off_c, 0, 71, 0
2, 68928, Note_on_c, 0, 76, 50
2, 69120, Note_off_c, 0, 76, 0
2, 69120, Note_on_c, 0, 74, 50
2, 69120, Note_on_c, 0, 69, 50
2, 69888, Note_off_c, 0, 69, 0
2, 69888, Note_off_c, 0, 74, 0
2, 71040, Note_on_c, 0, 79, 50
2, 71232, Note_off_c, 0, 79, 0
2, 71232, Note_on_c, 0, 79, 50
2, 71808, Note_off_c, 0, 79, 0
2, 72000, Note_on_c, 0, 79, 50
2, 72096, Note_off_c, 0, 79, 0
2, 72096, Note_on_c, 0, 77, 50
2, 72192, Note_off_c, 0, 77, 0
2, 72192, Note_on_c, 0, 76, 50
2, 72384, Note_off_c, 0, 76, 0
2, 72384, Note_on_c, 0, 76, 50
2, 72480, Note_off_c, 0, 76, 0
2, 72480, Note_on_c, 0, 77, 50
2, 72576, Note_off_c, 0, 77, 0
2, 72576, Note_on_c, 0, 79, 50
2, 72768, Note_off_c, 0, 79, 0
2, 72768, Note_on_c, 0, 76, 50
2, 72960, Note_off_c, 0, 76, 0
2, 72960, Note_on_c, 0, 74, 50
2, 73344, Note_off_c, 0, 74, 0
2, 73344, Note_on_c, 0, 72, 50
2, 73536, Note_off_c, 0, 72, 0
2, 73536, Note_on_c, 0, 74, 50
2, 73728, Note_off_c, 0, 74, 0
2, 73728, Note_on_c, 0, 91, 50
2, 73920, Note_off_c, 0, 91, 0
2, 73920, Note_on_c, 0, 88, 50
2, 74112, Note_off_c, 0, 88, 0
2, 74112, Note_on_c, 0, 89, 50
2, 74304, Note_off_c, 0, 89, 0
2, 74304, Note_on_c, 0, 86, 50
2, 74496, Note_off_c, 0, 86, 0
2, 74496, Note_on_c, 0, 88, 50
2, 74688, Note_off_c, 0, 88, 0
2, 74688, Note_on_c, 0, 84, 50
2, 74880, Note_off_c, 0, 84, 0
2, 74880, Note_on_c, 0, 86, 50
2, 75072, Note_off_c, 0, 86, 0
2, 75072, Note_on_c, 0, 79, 50
2, 75264, Note_off_c, 0, 79, 0
2, 75264, Note_on_c, 0, 77, 50
2, 75328, Note_on_c, 0, 79, 50
2, 75360, Note_off_c, 0, 77, 0
2, 75424, Note_off_c, 0, 79, 0
2, 75456, Note_on_c, 0, 76, 50
2, 75648, Note_off_c, 0, 76, 0
2, 75744, Note_on_c, 0, 93, 50
2, 76032, Note_off_c, 0, 93, 0
2, 76032, Note_on_c, 0, 91, 50
2, 76224, Note_off_c, 0, 91, 0
2, 77184, Note_on_c, 0, 79, 50
2, 77376, Note_off_c, 0, 79, 0
2, 77376, Note_on_c, 0, 81, 50
2, 77568, Note_off_c, 0, 81, 0
2, 77568, Note_on_c, 0, 79, 50
2, 77952, Note_off_c, 0, 79, 0
2, 78144, Note_on_c, 0, 76, 50
2, 78240, Note_off_c, 0, 76, 0
2, 78240, Note_on_c, 0, 77, 50
2, 78336, Note_off_c, 0, 77, 0
2, 78336, Note_on_c, 0, 79, 50
2, 78528, Note_off_c, 0, 79, 0
2, 78528, Note_on_c, 0, 77, 50
2, 78624, Note_off_c, 0, 77, 0
2, 78624, Note_on_c, 0, 76, 50
2, 78720, Note_off_c, 0, 76, 0
2, 78720, Note_on_c, 0, 74, 50
2, 78912, Note_off_c, 0, 74, 0
2, 78912, Note_on_c, 0, 69, 50
2, 79104, Note_off_c, 0, 69, 0
2, 79104, Note_on_c, 0, 65, 50
2, 79488, Note_off_c, 0, 65, 0
2, 79488, Note_on_c, 0, 65, 50
2, 79680, Note_off_c, 0, 65, 0
2, 79680, Note_on_c, 0, 69, 50
2, 79872, Note_off_c, 0, 69, 0
2, 79872, Note_on_c, 0, 91, 50
2, 80064, Note_off_c, 0, 91, 0
2, 80064, Note_on_c, 0, 88, 50
2, 80256, Note_off_c, 0, 88, 0
2, 80256, Note_on_c, 0, 89, 50
2, 80448, Note_off_c, 0, 89, 0
2, 80448, Note_on_c, 0, 86, 50
2, 80640, Note_off_c, 0, 86, 0
2, 80640, Note_on_c, 0, 88, 50
2, 80832, Note_off_c, 0, 88, 0
2, 80832, Note_on_c, 0, 84, 50
2, 81024, Note_off_c, 0, 84, 0
2, 81024, Note_on_c, 0, 86, 50
2, 81216, Note_off_c, 0, 86, 0
2, 81216, Note_on_c, 0, 79, 50
2, 81408, Note_off_c, 0, 79, 0
2, 81408, Note_on_c, 0, 89, 50
2, 81408, Note_on_c, 0, 93, 50
2, 81600, Note_off_c, 0, 93, 0
2, 81600, Note_off_c, 0, 89, 0
2, 81600, Note_on_c, 0, 89, 50
2, 81600, Note_on_c, 0, 86, 50
2, 81792, Note_off_c, 0, 86, 0
2, 81792, Note_off_c, 0, 89, 0
2, 81792, Note_on_c, 0, 88, 50
2, 81792, Note_on_c, 0, 91, 50
2, 81984, Note_off_c, 0, 91, 0
2, 81984, Note_off_c, 0, 88, 0
2, 81984, Note_on_c, 0, 84, 50
2, 81984, Note_on_c, 0, 88, 50
2, 82176, Note_off_c, 0, 84, 0
2, 82176, Note_off_c, 0, 88, 0
2, 82176, Note_on_c, 0, 89, 50
2, 82176, Note_on_c, 0, 86, 50
2, 82368, Note_off_c, 0, 86, 0
2, 82368, Note_off_c, 0, 89, 0
2, 82368, Note_on_c, 0, 86, 50
2, 82368, Note_on_c, 0, 83, 50
2, 82560, Note_off_c, 0, 83, 0
2, 82560, Note_off_c, 0, 86, 0
2, 82560, Note_on_c, 0, 88, 50
2, 82560, Note_on_c, 0, 84, 50
2, 82752, Note_off_c, 0, 84, 0
2, 82752, Note_off_c, 0, 88, 0
2, 82752, Note_on_c, 0, 81, 50
2, 82752, Note_on_c, 0, 84, 50
2, 82944, Note_off_c, 0, 81, 0
2, 82944, Note_off_c, 0, 84, 0
2, 82944, Note_on_c, 0, 77, 50
2, 83136, Note_off_c, 0, 77, 0
2, 83136, Note_on_c, 0, 81, 50
2, 83520, Note_off_c, 0, 81, 0
2, 83520, Note_on_c, 0, 84, 50
2, 83712, Note_off_c, 0, 84, 0
2, 83712, Note_on_c, 0, 79, 50
2, 83904, Note_off_c, 0, 79, 0
2, 83904, Note_on_c, 0, 83, 50
2, 84288, Note_off_c, 0, 83, 0
2, 84288, Note_on_c, 0, 86, 50
2, 84480, Note_off_c, 0, 86, 0
2, 84480, Note_on_c, 0, 77, 50
2, 84576, Note_off_c, 0, 77, 0
2, 84576, Note_on_c, 0, 79, 50
2, 84672, Note_off_c, 0, 79, 0
2, 84672, Note_on_c, 0, 81, 50
2, 84864, Note_off_c, 0, 81, 0
2, 84864, Note_on_c, 0, 81, 50
2, 84960, Note_off_c, 0, 81, 0
2, 84960, Note_on_c, 0, 79, 50
2, 85056, Note_off_c, 0, 79, 0
2, 85056, Note_on_c, 0, 81, 50
2, 85248, Note_off_c, 0, 81, 0
2, 85248, Note_on_c, 0, 83, 50
2, 85344, Note_off_c, 0, 83, 0
2, 85344, Note_on_c, 0, 79, 50
2, 85440, Note_off_c, 0, 79, 0
2, 85440, Note_on_c, 0, 81, 50
2, 85536, Note_off_c, 0, 81, 0
2, 85536, Note_on_c, 0, 83, 50
2, 85632, Note_off_c, 0, 83, 0
2, 85632, Note_on_c, 0, 86, 50
2, 85728, Note_off_c, 0, 86, 0
2, 85728, Note_on_c, 0, 90, 50
2, 85824, Note_off_c, 0, 90, 0
2, 85824, Note_on_c, 0, 91, 50
2, 86016, Note_off_c, 0, 91, 0
2, 86016, Note_on_c, 0, 67, 50
2, 86016, Note_on_c, 0, 72, 50
2, 86208, Note_off_c, 0, 72, 0
2, 86208, Note_off_c, 0, 67, 0
2, 86208, Note_on_c, 0, 79, 50
2, 86304, Note_off_c, 0, 79, 0
2, 86304, Note_on_c, 0, 79, 50
2, 86592, Note_off_c, 0, 79, 0
2, 86592, Note_on_c, 0, 79, 50
2, 86976, Note_off_c, 0, 79, 0
2, 86976, Note_on_c, 0, 77, 50
2, 87360, Note_off_c, 0, 77, 0
2, 87360, Note_on_c, 0, 76, 50
2, 87552, Note_off_c, 0, 76, 0
2, 87552, Note_on_c, 0, 72, 50
2, 87744, Note_off_c, 0, 72, 0
2, 87744, Note_on_c, 0, 73, 50
2, 87840, Note_off_c, 0, 73, 0
2, 87840, Note_on_c, 0, 74, 50
2, 88128, Note_off_c, 0, 74, 0
2, 88128, Note_on_c, 0, 75, 50
2, 88192, Note_on_c, 0, 76, 50
2, 88224, Note_off_c, 0, 75, 0
2, 88480, Note_off_c, 0, 76, 0
2, 88512, Note_on_c, 0, 78, 50
2, 88576, Note_on_c, 0, 79, 50
2, 88608, Note_off_c, 0, 78, 0
2, 88864, Note_off_c, 0, 79, 0
2, 89280, Note_on_c, 0, 81, 50
2, 89472, Note_off_c, 0, 81, 0
2, 89472, Note_on_c, 0, 79, 50
2, 89568, Note_off_c, 0, 79, 0
2, 89568, Note_on_c, 0, 76, 50
2, 89760, Note_off_c, 0, 76, 0
2, 89760, Note_on_c, 0, 74, 50
2, 90048, Note_off_c, 0, 74, 0
2, 90240, Note_on_c, 0, 67, 50
2, 90432, Note_off_c, 0, 67, 0
2, 90432, Note_on_c, 0, 69, 50
2, 90528, Note_off_c, 0, 69, 0
2, 90528, Note_on_c, 0, 72, 50
2, 90816, Note_off_c, 0, 72, 0
2, 90816, Note_on_c, 0, 69, 50
2, 91008, Note_off_c, 0, 69, 0
2, 91008, Note_on_c, 0, 72, 50
2, 91104, Note_off_c, 0, 72, 0
2, 91104, Note_on_c, 0, 74, 50
2, 91200, Note_off_c, 0, 74, 0
2, 91200, Note_on_c, 0, 72, 50
2, 91584, Note_off_c, 0, 72, 0
2, 92160, Note_on_c, 0, 67, 50
2, 92160, Note_on_c, 0, 72, 50
2, 92352, Note_off_c, 0, 72, 0
2, 92352, Note_off_c, 0, 67, 0
2, 92352, Note_on_c, 0, 79, 50
2, 92448, Note_off_c, 0, 79, 0
2, 92448, Note_on_c, 0, 79, 50
2, 92736, Note_off_c, 0, 79, 0
2, 92736, Note_on_c, 0, 79, 50
2, 93120, Note_off_c, 0, 79, 0
2, 93120, Note_on_c, 0, 77, 50
2, 93504, Note_off_c, 0, 77, 0
2, 93504, Note_on_c, 0, 76, 50
2, 93696, Note_off_c, 0, 76, 0
2, 93696, Note_on_c, 0, 72, 50
2, 93888, Note_off_c, 0, 72, 0
2, 93888, Note_on_c, 0, 73, 50
2, 93984, Note_off_c, 0, 73, 0
2, 93984, Note_on_c, 0, 74, 50
2, 94272, Note_off_c, 0, 74, 0
2, 94272, Note_on_c, 0, 75, 50
2, 94336, Note_on_c, 0, 76, 50
2, 94368, Note_off_c, 0, 75, 0
2, 94624, Note_off_c, 0, 76, 0
2, 94656, Note_on_c, 0, 78, 50
2, 94720, Note_on_c, 0, 79, 50
2, 94752, Note_off_c, 0, 78, 0
2, 95008, Note_off_c, 0, 79, 0
2, 95424, Note_on_c, 0, 81, 50
2, 95616, Note_off_c, 0, 81, 0
2, 95616, Note_on_c, 0, 79, 50
2, 95712, Note_off_c, 0, 79, 0
2, 95712, Note_on_c, 0, 76, 50
2, 95904, Note_off_c, 0, 76, 0
2, 95904, Note_on_c, 0, 74, 50
2, 96192, Note_off_c, 0, 74, 0
2, 96384, Note_on_c, 0, 67, 50
2, 96576, Note_off_c, 0, 67, 0
2, 96576, Note_on_c, 0, 69, 50
2, 96672, Note_off_c, 0, 69, 0
2, 96672, Note_on_c, 0, 72, 50
2, 96960, Note_off_c, 0, 72, 0
2, 96960, Note_on_c, 0, 69, 50
2, 97152, Note_off_c, 0, 69, 0
2, 97152, Note_on_c, 0, 72, 50
2, 97248, Note_off_c, 0, 72, 0
2, 97248, Note_on_c, 0, 74, 50
2, 97344, Note_off_c, 0, 74, 0
2, 97344, Note_on_c, 0, 72, 50
2, 97728, Note_off_c, 0, 72, 0
2, 97920, Note_on_c, 0, 67, 50
2, 98112, Note_off_c, 0, 67, 0
2, 98112, Note_on_c, 0, 69, 50
2, 98208, Note_off_c, 0, 69, 0
2, 98208, Note_on_c, 0, 72, 50
2, 98496, Note_off_c, 0, 72, 0
2, 98496, Note_on_c, 0, 69, 50
2, 98688, Note_off_c, 0, 69, 0
2, 98688, Note_on_c, 0, 72, 50
2, 98784, Note_off_c, 0, 72, 0
2, 98784, Note_on_c, 0, 74, 50
2, 98880, Note_off_c, 0, 74, 0
2, 98880, Note_on_c, 0, 72, 50
2, 99264, Note_off_c, 0, 72, 0
2, 99456, Note_on_c, 0, 67, 50
2, 99648, Note_off_c, 0, 67, 0
2, 99648, Note_on_c, 0, 69, 50
2, 99744, Note_off_c, 0, 69, 0
2, 99744, Note_on_c, 0, 72, 50
2, 99840, Note_off_c, 0, 72, 0
2, 99840, Note_on_c, 0, 77, 50
2, 100032, Note_off_c, 0, 77, 0
2, 100032, Note_on_c, 0, 76, 50
2, 100128, Note_off_c, 0, 76, 0
2, 100128, Note_on_c, 0, 72, 50
2, 100320, Note_off_c, 0, 72, 0
2, 100320, Note_on_c, 0, 69, 50
2, 100416, Note_off_c, 0, 69, 0
2, 100416, Note_on_c, 0, 72, 50
2, 100800, Note_off_c, 0, 72, 0
2, 100800, Note_on_c, 0, 79, 50
2, 101376, Note_off_c, 0, 79, 0
2, 101376, Note_on_c, 0, 91, 50
2, 101568, Note_off_c, 0, 91, 0
2, 101568, Note_on_c, 0, 88, 50
2, 101760, Note_off_c, 0, 88, 0
2, 101760, Note_on_c, 0, 89, 50
2, 101952, Note_off_c, 0, 89, 0
2, 101952, Note_on_c, 0, 84, 50
2, 102336, Note_off_c, 0, 84, 0
2, 102336, Note_on_c, 0, 93, 50
2, 102720, Note_off_c, 0, 93, 0
2, 102720, Note_on_c, 0, 91, 50
2, 103296, Note_off_c, 0, 91, 0
2, 103872, Note_on_c, 0, 91, 50
2, 104064, Note_off_c, 0, 91, 0
2, 104064, Note_on_c, 0, 93, 50
2, 104256, Note_off_c, 0, 93, 0
2, 104256, Note_on_c, 0, 84, 50
2, 104352, Note_off_c, 0, 84, 0
2, 104352, Note_on_c, 0, 84, 50
2, 105888, Note_off_c, 0, 84, 0
2, 107904, Note_on_c, 0, 91, 50
2, 108096, Note_off_c, 0, 91, 0
2, 108096, Note_on_c, 0, 91, 50
2, 108288, Note_off_c, 0, 91, 0
2, 108288, Note_on_c, 0, 91, 50
2, 108672, Note_off_c, 0, 91, 0
2, 108864, Note_on_c, 0, 91, 50
2, 108960, Note_off_c, 0, 91, 0
2, 108960, Note_on_c, 0, 89, 50
2, 109056, Note_off_c, 0, 89, 0
2, 109056, Note_on_c, 0, 88, 50
2, 109248, Note_off_c, 0, 88, 0
2, 109248, Note_on_c, 0, 89, 50
2, 109344, Note_off_c, 0, 89, 0
2, 109344, Note_on_c, 0, 91, 50
2, 109440, Note_off_c, 0, 91, 0
2, 109440, Note_on_c, 0, 93, 50
2, 109632, Note_off_c, 0, 93, 0
2, 109632, Note_on_c, 0, 95, 50
2, 109824, Note_off_c, 0, 95, 0
2, 109824, Note_on_c, 0, 91, 50
2, 110112, Note_off_c, 0, 91, 0
2, 110112, Note_on_c, 0, 95, 50
2, 110400, Note_off_c, 0, 95, 0
2, 110400, Note_on_c, 0, 91, 50
2, 110592, Note_off_c, 0, 91, 0
2, 110592, Note_on_c, 0, 60, 50
2, 110643, Note_on_c, 0, 64, 50
2, 110693, Note_on_c, 0, 67, 50
2, 112083, Note_off_c, 0, 64, 0
2, 112128, Note_off_c, 0, 60, 0
2, 112133, Note_off_c, 0, 67, 0
2, 112133, End_track
3, 0, Start_track
3, 0, Title_t, "Grand Piano (Classic)"
3, 0, Program_c, 1, 0
3, 0, Note_on_c, 1, 55, 50
3, 0, Note_on_c, 1, 60, 50
3, 0, Note_on_c, 1, 67, 50
3, 0, Note_on_c, 1, 57, 50
3, 0, Note_on_c, 1, 64, 50
3, 384, Note_off_c, 1, 55, 0
3, 384, Note_off_c, 1, 64, 0
3, 384, Note_off_c, 1, 57, 0
3, 384, Note_off_c, 1, 60, 0
3, 384, Note_off_c, 1, 67, 0
3, 1536, Note_on_c, 1, 62, 50
3, 1536, Note_on_c, 1, 57, 50
3, 1920, Note_off_c, 1, 62, 0
3, 1920, Note_off_c, 1, 57, 0
3, 2112, Note_on_c, 1, 59, 50
3, 2112, Note_on_c, 1, 62, 50
3, 2688, Note_off_c, 1, 62, 0
3, 2688, Note_off_c, 1, 59, 0
3, 3072, Note_on_c, 1, 60, 50
3, 3072, Note_on_c, 1, 64, 50
3, 3456, Note_off_c, 1, 64, 0
3, 3456, Note_off_c, 1, 60, 0
3, 3648, Note_on_c, 1, 57, 50
3, 3648, Note_on_c, 1, 60, 50
3, 4224, Note_off_c, 1, 60, 0
3, 4224, Note_off_c, 1, 57, 0
3, 4608, Note_on_c, 1, 62, 50
3, 4608, Note_on_c, 1, 57, 50
3, 5184, Note_off_c, 1, 57, 0
3, 5184, Note_off_c, 1, 62, 0
3, 5184, Note_on_c, 1, 55, 50
3, 5184, Note_on_c, 1, 59, 50
3, 6048, Note_off_c, 1, 59, 0
3, 6048, Note_off_c, 1, 55, 0
3, 6144, Note_on_c, 1, 48, 50
3, 6528, Note_off_c, 1, 48, 0
3, 6528, Note_on_c, 1, 64, 50
3, 6528, Note_on_c, 1, 67, 50
3, 6720, Note_off_c, 1, 67, 0
3, 6720, Note_off_c, 1, 64, 0
3, 6720, Note_on_c, 1, 60, 50
3, 6720, Note_on_c, 1, 48, 50
3, 6912, Note_off_c, 1, 48, 0
3, 6912, Note_off_c, 1, 60, 0
3, 6912, Note_on_c, 1, 57, 50
3, 6912, Note_on_c, 1, 45, 50
3, 7296, Note_off_c, 1, 45, 0
3, 7296, Note_off_c, 1, 57, 0
3, 7296, Note_on_c, 1, 60, 50
3, 7488, Note_off_c, 1, 60, 0
3, 7488, Note_on_c, 1, 45, 50
3, 7488, Note_on_c, 1, 57, 50
3, 7680, Note_off_c, 1, 57, 0
3, 7680, Note_off_c, 1, 45, 0
3, 7680, Note_on_c, 1, 41, 50
3, 7680, Note_on_c, 1, 53, 50
3, 8064, Note_off_c, 1, 53, 0
3, 8064, Note_off_c, 1, 41, 0
3, 8064, Note_on_c, 1, 60, 50
3, 8064, Note_on_c, 1, 57, 50
3, 8256, Note_off_c, 1, 60, 0
3, 8256, Note_off_c, 1, 57, 0
3, 8256, Note_on_c, 1, 41, 50
3, 8256, Note_on_c, 1, 53, 50
3, 8448, Note_off_c, 1, 53, 0
3, 8448, Note_off_c, 1, 41, 0
3, 8448, Note_on_c, 1, 55, 50
3, 8448, Note_on_c, 1, 43, 50
3, 8832, Note_off_c, 1, 43, 0
3, 8832, Note_off_c, 1, 55, 0
3, 8832, Note_on_c, 1, 59, 50
3, 8832, Note_on_c, 1, 62, 50
3, 9216, Note_off_c, 1, 62, 0
3, 9216, Note_off_c, 1, 59, 0
3, 9216, Note_on_c, 1, 60, 50
3, 9600, Note_off_c, 1, 60, 0
3, 9600, Note_on_c, 1, 64, 50
3, 9600, Note_on_c, 1, 67, 50
3, 9984, Note_off_c, 1, 64, 0
3, 9984, Note_off_c, 1, 67, 0
3, 9984, Note_on_c, 1, 57, 50
3, 10368, Note_off_c, 1, 57, 0
3, 10368, Note_on_c, 1, 60, 50
3, 10368, Note_on_c, 1, 64, 50
3, 10752, Note_off_c, 1, 64, 0
3, 10752, Note_off_c, 1, 60, 0
3, 10752, Note_on_c, 1, 53, 50
3, 11136, Note_off_c, 1, 53, 0
3, 11136, Note_on_c, 1, 57, 50
3, 11136, Note_on_c, 1, 60, 50
3, 11520, Note_off_c, 1, 60, 0
3, 11520, Note_off_c, 1, 57, 0
3, 11520, Note_on_c, 1, 55, 50
3, 11904, Note_off_c, 1, 55, 0
3, 11904, Note_on_c, 1, 62, 50
3, 11904, Note_on_c, 1, 59, 50
3, 12288, Note_off_c, 1, 62, 0
3, 12288, Note_off_c, 1, 59, 0
3, 12288, Note_on_c, 1, 48, 50
3, 12672, Note_off_c, 1, 48, 0
3, 12672, Note_on_c, 1, 64, 50
3, 12672, Note_on_c, 1, 67, 50
3, 12864, Note_off_c, 1, 67, 0
3, 12864, Note_off_c, 1, 64, 0
3, 12864, Note_on_c, 1, 60, 50
3, 12864, Note_on_c, 1, 48, 50
3, 13056, Note_off_c, 1, 60, 0
3, 13056, Note_off_c, 1, 48, 0
3, 13056, Note_on_c, 1, 45, 50
3, 13056, Note_on_c, 1, 57, 50
3, 13440, Note_off_c, 1, 57, 0
3, 13440, Note_off_c, 1, 45, 0
3, 13440, Note_on_c, 1, 60, 50
3, 13632, Note_off_c, 1, 60, 0
3, 13632, Note_on_c, 1, 45, 50
3, 13632, Note_on_c, 1, 57, 50
3, 13824, Note_off_c, 1, 45, 0
3, 13824, Note_off_c, 1, 57, 0
3, 13824, Note_on_c, 1, 41, 50
3, 13824, Note_on_c, 1, 53, 50
3, 14208, Note_off_c, 1, 53, 0
3, 14208, Note_off_c, 1, 41, 0
3, 14208, Note_on_c, 1, 57, 50
3, 14208, Note_on_c, 1, 60, 50
3, 14400, Note_off_c, 1, 60, 0
3, 14400, Note_off_c, 1, 57, 0
3, 14400, Note_on_c, 1, 41, 50
3, 14400, Note_on_c, 1, 53, 50
3, 14592, Note_off_c, 1, 53, 0
3, 14592, Note_off_c, 1, 41, 0
3, 14592, Note_on_c, 1, 55, 50
3, 14592, Note_on_c, 1, 43, 50
3, 14976, Note_off_c, 1, 55, 0
3, 14976, Note_off_c, 1, 43, 0
3, 14976, Note_on_c, 1, 59, 50
3, 15360, Note_off_c, 1, 59, 0
3, 15360, Note_on_c, 1, 60, 50
3, 15744, Note_off_c, 1, 60, 0
3, 15744, Note_on_c, 1, 67, 50
3, 15744, Note_on_c, 1, 64, 50
3, 16128, Note_off_c, 1, 67, 0
3, 16128, Note_off_c, 1, 64, 0
3, 16128, Note_on_c, 1, 57, 50
3, 16512, Note_off_c, 1, 57, 0
3, 16512, Note_on_c, 1, 60, 50
3, 16512, Note_on_c, 1, 64, 50
3, 16896, Note_off_c, 1, 64, 0
3, 16896, Note_off_c, 1, 60, 0
3, 16896, Note_on_c, 1, 53, 50
3, 17280, Note_off_c, 1, 53, 0
3, 17280, Note_on_c, 1, 57, 50
3, 17280, Note_on_c, 1, 60, 50
3, 17664, Note_off_c, 1, 60, 0
3, 17664, Note_off_c, 1, 57, 0
3, 17664, Note_on_c, 1, 55, 50
3, 18048, Note_off_c, 1, 55, 0
3, 18048, Note_on_c, 1, 62, 50
3, 18048, Note_on_c, 1, 59, 50
3, 18432, Note_off_c, 1, 62, 0
3, 18432, Note_off_c, 1, 59, 0
3, 18432, Note_on_c, 1, 36, 50
3, 18432, Note_on_c, 1, 48, 50
3, 19008, Note_off_c, 1, 48, 0
3, 19008, Note_off_c, 1, 36, 0
3, 19008, Note_on_c, 1, 48, 50
3, 19584, Note_off_c, 1, 48, 0
3, 19584, Note_on_c, 1, 43, 50
3, 19776, Note_off_c, 1, 43, 0
3, 19776, Note_on_c, 1, 45, 50
3, 19968, Note_off_c, 1, 45, 0
3, 19968, Note_on_c, 1, 45, 50
3, 19968, Note_on_c, 1, 53, 50
3, 19968, Note_on_c, 1, 50, 50
3, 20544, Note_off_c, 1, 50, 0
3, 20544, Note_off_c, 1, 53, 0
3, 20544, Note_off_c, 1, 45, 0
3, 20544, Note_on_c, 1, 55, 50
3, 20544, Note_on_c, 1, 47, 50
3, 20544, Note_on_c, 1, 50, 50
3, 21120, Note_off_c, 1, 55, 0
3, 21120, Note_off_c, 1, 50, 0
3, 21120, Note_off_c, 1, 47, 0
3, 21120, Note_on_c, 1, 43, 50
3, 21216, Note_off_c, 1, 43, 0
3, 21216, Note_on_c, 1, 47, 50
3, 21312, Note_off_c, 1, 47, 0
3, 21312, Note_on_c, 1, 43, 50
3, 21504, Note_off_c, 1, 43, 0
3, 21504, Note_on_c, 1, 52, 50
3, 21504, Note_on_c, 1, 55, 50
3, 21504, Note_on_c, 1, 48, 50
3, 21888, Note_off_c, 1, 48, 0
3, 21888, Note_off_c, 1, 55, 0
3, 21888, Note_off_c, 1, 52, 0
3, 21888, Note_on_c, 1, 43, 50
3, 22080, Note_off_c, 1, 43, 0
3, 22080, Note_on_c, 1, 45, 50
3, 22080, Note_on_c, 1, 48, 50
3, 22080, Note_on_c, 1, 52, 50
3, 22656, Note_off_c, 1, 52, 0
3, 22656, Note_off_c, 1, 48, 0
3, 22656, Note_off_c, 1, 45, 0
3, 22656, Note_on_c, 1, 43, 50
3, 22848, Note_off_c, 1, 43, 0
3, 22848, Note_on_c, 1, 45, 50
3, 23040, Note_off_c, 1, 45, 0
3, 23040, Note_on_c, 1, 45, 50
3, 23040, Note_on_c, 1, 50, 50
3, 23040, Note_on_c, 1, 53, 50
3, 23616, Note_off_c, 1, 53, 0
3, 23616, Note_off_c, 1, 50, 0
3, 23616, Note_off_c, 1, 45, 0
3, 23616, Note_on_c, 1, 50, 50
3, 23616, Note_on_c, 1, 43, 50
3, 23616, Note_on_c, 1, 47, 50
3, 24192, Note_off_c, 1, 50, 0
3, 24192, Note_off_c, 1, 47, 0
3, 24192, Note_off_c, 1, 43, 0
3, 24192, Note_on_c, 1, 43, 50
3, 24384, Note_off_c, 1, 43, 0
3, 24384, Note_on_c, 1, 45, 50
3, 24576, Note_off_c, 1, 45, 0
3, 24576, Note_on_c, 1, 48, 50
3, 24576, Note_on_c, 1, 55, 50
3, 24576, Note_on_c, 1, 52, 50
3, 24960, Note_off_c, 1, 52, 0
3, 24960, Note_off_c, 1, 55, 0
3, 24960, Note_off_c, 1, 48, 0
3, 24960, Note_on_c, 1, 43, 50
3, 25152, Note_off_c, 1, 43, 0
3, 25152, Note_on_c, 1, 45, 50
3, 25344, Note_off_c, 1, 45, 0
3, 25344, Note_on_c, 1, 48, 50
3, 25728, Note_off_c, 1, 48, 0
3, 25728, Note_on_c, 1, 43, 50
3, 25920, Note_off_c, 1, 43, 0
3, 25920, Note_on_c, 1, 45, 50
3, 26112, Note_off_c, 1, 45, 0
3, 26112, Note_on_c, 1, 50, 50
3, 26112, Note_on_c, 1, 45, 50
3, 26112, Note_on_c, 1, 53, 50
3, 26688, Note_off_c, 1, 45, 0
3, 26688, Note_off_c, 1, 50, 0
3, 26688, Note_off_c, 1, 53, 0
3, 26688, Note_on_c, 1, 47, 50
3, 26688, Note_on_c, 1, 55, 50
3, 26688, Note_on_c, 1, 50, 50
3, 27264, Note_off_c, 1, 55, 0
3, 27264, Note_off_c, 1, 50, 0
3, 27264, Note_off_c, 1, 47, 0
3, 27264, Note_on_c, 1, 43, 50
3, 27360, Note_off_c, 1, 43, 0
3, 27360, Note_on_c, 1, 45, 50
3, 27456, Note_off_c, 1, 45, 0
3, 27456, Note_on_c, 1, 43, 50
3, 27648, Note_off_c, 1, 43, 0
3, 27648, Note_on_c, 1, 52, 50
3, 27648, Note_on_c, 1, 48, 50
3, 27648, Note_on_c, 1, 55, 50
3, 28032, Note_off_c, 1, 55, 0
3, 28032, Note_off_c, 1, 52, 0
3, 28032, Note_off_c, 1, 48, 0
3, 28032, Note_on_c, 1, 43, 50
3, 28224, Note_off_c, 1, 43, 0
3, 28224, Note_on_c, 1, 45, 50
3, 28224, Note_on_c, 1, 48, 50
3, 28224, Note_on_c, 1, 52, 50
3, 28800, Note_off_c, 1, 52, 0
3, 28800, Note_off_c, 1, 48, 0
3, 28800, Note_off_c, 1, 45, 0
3, 28800, Note_on_c, 1, 43, 50
3, 28992, Note_off_c, 1, 43, 0
3, 28992, Note_on_c, 1, 45, 50
3, 29184, Note_off_c, 1, 45, 0
3, 29184, Note_on_c, 1, 53, 50
3, 29184, Note_on_c, 1, 50, 50
3, 29184, Note_on_c, 1, 45, 50
3, 29760, Note_off_c, 1, 53, 0
3, 29760, Note_off_c, 1, 50, 0
3, 29760, Note_off_c, 1, 45, 0
3, 29760, Note_on_c, 1, 43, 50
3, 29760, Note_on_c, 1, 47, 50
3, 29760, Note_on_c, 1, 50, 50
3, 30336, Note_off_c, 1, 50, 0
3, 30336, Note_off_c, 1, 47, 0
3, 30336, Note_off_c, 1, 43, 0
3, 30336, Note_on_c, 1, 43, 50
3, 30528, Note_off_c, 1, 43, 0
3, 30528, Note_on_c, 1, 45, 50
3, 30720, Note_off_c, 1, 45, 0
3, 30720, Note_on_c, 1, 79, 50
3, 30720, Note_on_c, 1, 72, 50
3, 32160, Note_off_c, 1, 79, 0
3, 32160, Note_off_c, 1, 72, 0
3, 32256, Note_on_c, 1, 79, 50
3, 32256, Note_on_c, 1, 72, 50
3, 32448, Note_off_c, 1, 79, 0
3, 32448, Note_off_c, 1, 72, 0
3, 33792, Note_on_c, 1, 48, 50
3, 33984, Note_off_c, 1, 48, 0
3, 33984, Note_on_c, 1, 55, 50
3, 34080, Note_off_c, 1, 55, 0
3, 34080, Note_on_c, 1, 60, 50
3, 34272, Note_off_c, 1, 60, 0
3, 34272, Note_on_c, 1, 62, 50
3, 34368, Note_off_c, 1, 62, 0
3, 34368, Note_on_c, 1, 60, 50
3, 34560, Note_off_c, 1, 60, 0
3, 34560, Note_on_c, 1, 45, 50
3, 34752, Note_off_c, 1, 45, 0
3, 34752, Note_on_c, 1, 55, 50
3, 34848, Note_off_c, 1, 55, 0
3, 34848, Note_on_c, 1, 57, 50
3, 35040, Note_off_c, 1, 57, 0
3, 35040, Note_on_c, 1, 62, 50
3, 35136, Note_off_c, 1, 62, 0
3, 35136, Note_on_c, 1, 60, 50
3, 35328, Note_off_c, 1, 60, 0
3, 35328, Note_on_c, 1, 41, 50
3, 35520, Note_off_c, 1, 41, 0
3, 35520, Note_on_c, 1, 55, 50
3, 35616, Note_off_c, 1, 55, 0
3, 35616, Note_on_c, 1, 57, 50
3, 35808, Note_off_c, 1, 57, 0
3, 35808, Note_on_c, 1, 60, 50
3, 35904, Note_off_c, 1, 60, 0
3, 35904, Note_on_c, 1, 57, 50
3, 36096, Note_off_c, 1, 57, 0
3, 36096, Note_on_c, 1, 43, 50
3, 36288, Note_off_c, 1, 43, 0
3, 36288, Note_on_c, 1, 55, 50
3, 36384, Note_off_c, 1, 55, 0
3, 36384, Note_on_c, 1, 57, 50
3, 36576, Note_off_c, 1, 57, 0
3, 36576, Note_on_c, 1, 59, 50
3, 36672, Note_off_c, 1, 59, 0
3, 36672, Note_on_c, 1, 55, 50
3, 36864, Note_off_c, 1, 55, 0
3, 36864, Note_on_c, 1, 48, 50
3, 37056, Note_off_c, 1, 48, 0
3, 37056, Note_on_c, 1, 55, 50
3, 37152, Note_off_c, 1, 55, 0
3, 37152, Note_on_c, 1, 60, 50
3, 37344, Note_off_c, 1, 60, 0
3, 37344, Note_on_c, 1, 62, 50
3, 37440, Note_off_c, 1, 62, 0
3, 37440, Note_on_c, 1, 60, 50
3, 37632, Note_off_c, 1, 60, 0
3, 37632, Note_on_c, 1, 45, 50
3, 37824, Note_off_c, 1, 45, 0
3, 37824, Note_on_c, 1, 57, 50
3, 37920, Note_off_c, 1, 57, 0
3, 37920, Note_on_c, 1, 60, 50
3, 38112, Note_off_c, 1, 60, 0
3, 38112, Note_on_c, 1, 62, 50
3, 38208, Note_off_c, 1, 62, 0
3, 38208, Note_on_c, 1, 60, 50
3, 38400, Note_off_c, 1, 60, 0
3, 38400, Note_on_c, 1, 41, 50
3, 38592, Note_off_c, 1, 41, 0
3, 38592, Note_on_c, 1, 55, 50
3, 38688, Note_off_c, 1, 55, 0
3, 38688, Note_on_c, 1, 57, 50
3, 38880, Note_off_c, 1, 57, 0
3, 38880, Note_on_c, 1, 60, 50
3, 38976, Note_off_c, 1, 60, 0
3, 38976, Note_on_c, 1, 57, 50
3, 39168, Note_off_c, 1, 57, 0
3, 39168, Note_on_c, 1, 43, 50
3, 39360, Note_off_c, 1, 43, 0
3, 39360, Note_on_c, 1, 55, 50
3, 39456, Note_off_c, 1, 55, 0
3, 39456, Note_on_c, 1, 57, 50
3, 39648, Note_off_c, 1, 57, 0
3, 39648, Note_on_c, 1, 59, 50
3, 39744, Note_off_c, 1, 59, 0
3, 39744, Note_on_c, 1, 55, 50
3, 39936, Note_off_c, 1, 55, 0
3, 39936, Note_on_c, 1, 47, 50
3, 40128, Note_off_c, 1, 47, 0
3, 40128, Note_on_c, 1, 55, 50
3, 40224, Note_off_c, 1, 55, 0
3, 40224, Note_on_c, 1, 57, 50
3, 40320, Note_off_c, 1, 57, 0
3, 40320, Note_on_c, 1, 67, 50
3, 40320, Note_on_c, 1, 64, 50
3, 40512, Note_off_c, 1, 67, 0
3, 40512, Note_off_c, 1, 64, 0
3, 40512, Note_on_c, 1, 60, 50
3, 40704, Note_off_c, 1, 60, 0
3, 40704, Note_on_c, 1, 45, 50
3, 40896, Note_off_c, 1, 45, 0
3, 40896, Note_on_c, 1, 57, 50
3, 40992, Note_off_c, 1, 57, 0
3, 40992, Note_on_c, 1, 60, 50
3, 41088, Note_off_c, 1, 60, 0
3, 41088, Note_on_c, 1, 60, 50
3, 41088, Note_on_c, 1, 64, 50
3, 41280, Note_off_c, 1, 64, 0
3, 41280, Note_off_c, 1, 60, 0
3, 41280, Note_on_c, 1, 57, 50
3, 41472, Note_off_c, 1, 57, 0
3, 41472, Note_on_c, 1, 41, 50
3, 41664, Note_off_c, 1, 41, 0
3, 41664, Note_on_c, 1, 55, 50
3, 41760, Note_off_c, 1, 55, 0
3, 41760, Note_on_c, 1, 57, 50
3, 41856, Note_off_c, 1, 57, 0
3, 41856, Note_on_c, 1, 57, 50
3, 41856, Note_on_c, 1, 60, 50
3, 42048, Note_off_c, 1, 60, 0
3, 42048, Note_off_c, 1, 57, 0
3, 42048, Note_on_c, 1, 57, 50
3, 42240, Note_off_c, 1, 57, 0
3, 42240, Note_on_c, 1, 43, 50
3, 42432, Note_off_c, 1, 43, 0
3, 42432, Note_on_c, 1, 55, 50
3, 42528, Note_off_c, 1, 55, 0
3, 42528, Note_on_c, 1, 57, 50
3, 42624, Note_off_c, 1, 57, 0
3, 42624, Note_on_c, 1, 62, 50
3, 42624, Note_on_c, 1, 59, 50
3, 42816, Note_off_c, 1, 62, 0
3, 42816, Note_off_c, 1, 59, 0
3, 42816, Note_on_c, 1, 55, 50
3, 43008, Note_off_c, 1, 55, 0
3, 43008, Note_on_c, 1, 48, 50
3, 43200, Note_off_c, 1, 48, 0
3, 43200, Note_on_c, 1, 55, 50
3, 43296, Note_off_c, 1, 55, 0
3, 43296, Note_on_c, 1, 57, 50
3, 43392, Note_off_c, 1, 57, 0
3, 43392, Note_on_c, 1, 64, 50
3, 43392, Note_on_c, 1, 67, 50
3, 43584, Note_off_c, 1, 67, 0
3, 43584, Note_off_c, 1, 64, 0
3, 43584, Note_on_c, 1, 60, 50
3, 43776, Note_off_c, 1, 60, 0
3, 43776, Note_on_c, 1, 45, 50
3, 43968, Note_off_c, 1, 45, 0
3, 43968, Note_on_c, 1, 57, 50
3, 44064, Note_off_c, 1, 57, 0
3, 44064, Note_on_c, 1, 60, 50
3, 44160, Note_off_c, 1, 60, 0
3, 44160, Note_on_c, 1, 60, 50
3, 44160, Note_on_c, 1, 64, 50
3, 44352, Note_off_c, 1, 64, 0
3, 44352, Note_off_c, 1, 60, 0
3, 44352, Note_on_c, 1, 57, 50
3, 44544, Note_off_c, 1, 57, 0
3, 44544, Note_on_c, 1, 41, 50
3, 44736, Note_off_c, 1, 41, 0
3, 44736, Note_on_c, 1, 55, 50
3, 44832, Note_off_c, 1, 55, 0
3, 44832, Note_on_c, 1, 57, 50
3, 44928, Note_off_c, 1, 57, 0
3, 44928, Note_on_c, 1, 60, 50
3, 44928, Note_on_c, 1, 57, 50
3, 45120, Note_off_c, 1, 60, 0
3, 45120, Note_off_c, 1, 57, 0
3, 45120, Note_on_c, 1, 57, 50
3, 45312, Note_off_c, 1, 57, 0
3, 45312, Note_on_c, 1, 43, 50
3, 45504, Note_off_c, 1, 43, 0
3, 45504, Note_on_c, 1, 55, 50
3, 45600, Note_off_c, 1, 55, 0
3, 45600, Note_on_c, 1, 57, 50
3, 45696, Note_off_c, 1, 57, 0
3, 45696, Note_on_c, 1, 59, 50
3, 45696, Note_on_c, 1, 62, 50
3, 45888, Note_off_c, 1, 62, 0
3, 45888, Note_off_c, 1, 59, 0
3, 45888, Note_on_c, 1, 55, 50
3, 46080, Note_off_c, 1, 55, 0
3, 46080, Note_on_c, 1, 48, 50
3, 46272, Note_off_c, 1, 48, 0
3, 46272, Note_on_c, 1, 55, 50
3, 46368, Note_off_c, 1, 55, 0
3, 46368, Note_on_c, 1, 57, 50
3, 46464, Note_off_c, 1, 57, 0
3, 46464, Note_on_c, 1, 64, 50
3, 46464, Note_on_c, 1, 67, 50
3, 46656, Note_off_c, 1, 67, 0
3, 46656, Note_off_c, 1, 64, 0
3, 46656, Note_on_c, 1, 60, 50
3, 46848, Note_off_c, 1, 60, 0
3, 46848, Note_on_c, 1, 45, 50
3, 47040, Note_off_c, 1, 45, 0
3, 47040, Note_on_c, 1, 57, 50
3, 47136, Note_off_c, 1, 57, 0
3, 47136, Note_on_c, 1, 60, 50
3, 47232, Note_off_c, 1, 60, 0
3, 47232, Note_on_c, 1, 64, 50
3, 47232, Note_on_c, 1, 60, 50
3, 47424, Note_off_c, 1, 60, 0
3, 47424, Note_off_c, 1, 64, 0
3, 47424, Note_on_c, 1, 57, 50
3, 47616, Note_off_c, 1, 57, 0
3, 47616, Note_on_c, 1, 41, 50
3, 47808, Note_off_c, 1, 41, 0
3, 47808, Note_on_c, 1, 55, 50
3, 47904, Note_off_c, 1, 55, 0
3, 47904, Note_on_c, 1, 57, 50
3, 48000, Note_off_c, 1, 57, 0
3, 48000, Note_on_c, 1, 60, 50
3, 48000, Note_on_c, 1, 57, 50
3, 48192, Note_off_c, 1, 60, 0
3, 48192, Note_off_c, 1, 57, 0
3, 48192, Note_on_c, 1, 57, 50
3, 48384, Note_off_c, 1, 57, 0
3, 48384, Note_on_c, 1, 43, 50
3, 48576, Note_off_c, 1, 43, 0
3, 48576, Note_on_c, 1, 55, 50
3, 48672, Note_off_c, 1, 55, 0
3, 48672, Note_on_c, 1, 57, 50
3, 48768, Note_off_c, 1, 57, 0
3, 48768, Note_on_c, 1, 59, 50
3, 48768, Note_on_c, 1, 62, 50
3, 48960, Note_off_c, 1, 62, 0
3, 48960, Note_off_c, 1, 59, 0
3, 48960, Note_on_c, 1, 55, 50
3, 49152, Note_off_c, 1, 55, 0
3, 49152, Note_on_c, 1, 48, 50
3, 49344, Note_off_c, 1, 48, 0
3, 49344, Note_on_c, 1, 55, 50
3, 49440, Note_off_c, 1, 55, 0
3, 49440, Note_on_c, 1, 57, 50
3, 49536, Note_off_c, 1, 57, 0
3, 49536, Note_on_c, 1, 64, 50
3, 49536, Note_on_c, 1, 67, 50
3, 49728, Note_off_c, 1, 67, 0
3, 49728, Note_off_c, 1, 64, 0
3, 49728, Note_on_c, 1, 60, 50
3, 49920, Note_off_c, 1, 60, 0
3, 49920, Note_on_c, 1, 45, 50
3, 50112, Note_off_c, 1, 45, 0
3, 50112, Note_on_c, 1, 57, 50
3, 50208, Note_off_c, 1, 57, 0
3, 50208, Note_on_c, 1, 60, 50
3, 50304, Note_off_c, 1, 60, 0
3, 50304, Note_on_c, 1, 64, 50
3, 50304, Note_on_c, 1, 60, 50
3, 50496, Note_off_c, 1, 64, 0
3, 50496, Note_off_c, 1, 60, 0
3, 50496, Note_on_c, 1, 57, 50
3, 50688, Note_off_c, 1, 57, 0
3, 50688, Note_on_c, 1, 41, 50
3, 50880, Note_off_c, 1, 41, 0
3, 50880, Note_on_c, 1, 55, 50
3, 50976, Note_off_c, 1, 55, 0
3, 50976, Note_on_c, 1, 57, 50
3, 51072, Note_off_c, 1, 57, 0
3, 51072, Note_on_c, 1, 57, 50
3, 51072, Note_on_c, 1, 60, 50
3, 51264, Note_off_c, 1, 60, 0
3, 51264, Note_off_c, 1, 57, 0
3, 51264, Note_on_c, 1, 57, 50
3, 51456, Note_off_c, 1, 57, 0
3, 51456, Note_on_c, 1, 43, 50
3, 51648, Note_off_c, 1, 43, 0
3, 51648, Note_on_c, 1, 55, 50
3, 51744, Note_off_c, 1, 55, 0
3, 51744, Note_on_c, 1, 57, 50
3, 51840, Note_off_c, 1, 57, 0
3, 51840, Note_on_c, 1, 59, 50
3, 51840, Note_on_c, 1, 62, 50
3, 52032, Note_off_c, 1, 62, 0
3, 52032, Note_off_c, 1, 59, 0
3, 52032, Note_on_c, 1, 55, 50
3, 52224, Note_off_c, 1, 55, 0
3, 52224, Note_on_c, 1, 48, 50
3, 52608, Note_off_c, 1, 48, 0
3, 52608, Note_on_c, 1, 55, 50
3, 52800, Note_off_c, 1, 55, 0
3, 52800, Note_on_c, 1, 57, 50
3, 52992, Note_off_c, 1, 57, 0
3, 52992, Note_on_c, 1, 60, 50
3, 53376, Note_off_c, 1, 60, 0
3, 53376, Note_on_c, 1, 55, 50
3, 53568, Note_off_c, 1, 55, 0
3, 53568, Note_on_c, 1, 57, 50
3, 53760, Note_off_c, 1, 57, 0
3, 53760, Note_on_c, 1, 57, 50
3, 53760, Note_on_c, 1, 53, 50
3, 53760, Note_on_c, 1, 60, 50
3, 54336, Note_off_c, 1, 57, 0
3, 54336, Note_off_c, 1, 53, 0
3, 54336, Note_off_c, 1, 60, 0
3, 54336, Note_on_c, 1, 53, 50
3, 54336, Note_on_c, 1, 59, 50
3, 54336, Note_on_c, 1, 62, 50
3, 55200, Note_off_c, 1, 62, 0
3, 55200, Note_off_c, 1, 59, 0
3, 55200, Note_off_c, 1, 53, 0
3, 55296, Note_on_c, 1, 64, 50
3, 55296, Note_on_c, 1, 60, 50
3, 55296, Note_on_c, 1, 55, 50
3, 55680, Note_off_c, 1, 64, 0
3, 55680, Note_off_c, 1, 60, 0
3, 55680, Note_off_c, 1, 55, 0
3, 55680, Note_on_c, 1, 55, 50
3, 55872, Note_off_c, 1, 55, 0
3, 55872, Note_on_c, 1, 57, 50
3, 56064, Note_off_c, 1, 57, 0
3, 56064, Note_on_c, 1, 60, 50
3, 56448, Note_off_c, 1, 60, 0
3, 56448, Note_on_c, 1, 55, 50
3, 56640, Note_off_c, 1, 55, 0
3, 56640, Note_on_c, 1, 57, 50
3, 56832, Note_off_c, 1, 57, 0
3, 56832, Note_on_c, 1, 53, 50
3, 56832, Note_on_c, 1, 57, 50
3, 57408, Note_off_c, 1, 57, 0
3, 57408, Note_off_c, 1, 53, 0
3, 57408, Note_on_c, 1, 60, 50
3, 57408, Note_on_c, 1, 53, 50
3, 57408, Note_on_c, 1, 57, 50
3, 57600, Note_off_c, 1, 60, 0
3, 57600, Note_off_c, 1, 57, 0
3, 57600, Note_off_c, 1, 53, 0
3, 57600, Note_on_c, 1, 50, 50
3, 58368, Note_off_c, 1, 50, 0
3, 58368, Note_on_c, 1, 48, 50
3, 58560, Note_off_c, 1, 48, 0
3, 58560, Note_on_c, 1, 55, 50
3, 58656, Note_off_c, 1, 55, 0
3, 58656, Note_on_c, 1, 60, 50
3, 58848, Note_off_c, 1, 60, 0
3, 58848, Note_on_c, 1, 62, 50
3, 58944, Note_off_c, 1, 62, 0
3, 58944, Note_on_c, 1, 60, 50
3, 59136, Note_off_c, 1, 60, 0
3, 59136, Note_on_c, 1, 45, 50
3, 59328, Note_off_c, 1, 45, 0
3, 59328, Note_on_c, 1, 57, 50
3, 59424, Note_off_c, 1, 57, 0
3, 59424, Note_on_c, 1, 60, 50
3, 59616, Note_off_c, 1, 60, 0
3, 59616, Note_on_c, 1, 62, 50
3, 59712, Note_off_c, 1, 62, 0
3, 59712, Note_on_c, 1, 60, 50
3, 59904, Note_off_c, 1, 60, 0
3, 59904, Note_on_c, 1, 41, 50
3, 60096, Note_off_c, 1, 41, 0
3, 60096, Note_on_c, 1, 55, 50
3, 60192, Note_off_c, 1, 55, 0
3, 60192, Note_on_c, 1, 57, 50
3, 60384, Note_off_c, 1, 57, 0
3, 60384, Note_on_c, 1, 60, 50
3, 60480, Note_off_c, 1, 60, 0
3, 60480, Note_on_c, 1, 57, 50
3, 60672, Note_off_c, 1, 57, 0
3, 60672, Note_on_c, 1, 43, 50
3, 60864, Note_off_c, 1, 43, 0
3, 60864, Note_on_c, 1, 55, 50
3, 60960, Note_off_c, 1, 55, 0
3, 60960, Note_on_c, 1, 57, 50
3, 61152, Note_off_c, 1, 57, 0
3, 61152, Note_on_c, 1, 59, 50
3, 61248, Note_off_c, 1, 59, 0
3, 61248, Note_on_c, 1, 55, 50
3, 61440, Note_off_c, 1, 55, 0
3, 61440, Note_on_c, 1, 48, 50
3, 61632, Note_off_c, 1, 48, 0
3, 61632, Note_on_c, 1, 55, 50
3, 61728, Note_off_c, 1, 55, 0
3, 61728, Note_on_c, 1, 60, 50
3, 61920, Note_off_c, 1, 60, 0
3, 61920, Note_on_c, 1, 62, 50
3, 62016, Note_off_c, 1, 62, 0
3, 62016, Note_on_c, 1, 60, 50
3, 62208, Note_off_c, 1, 60, 0
3, 62208, Note_on_c, 1, 45, 50
3, 62400, Note_off_c, 1, 45, 0
3, 62400, Note_on_c, 1, 57, 50
3, 62496, Note_off_c, 1, 57, 0
3, 62496, Note_on_c, 1, 60, 50
3, 62688, Note_off_c, 1, 60, 0
3, 62688, Note_on_c, 1, 62, 50
3, 62784, Note_off_c, 1, 62, 0
3, 62784, Note_on_c, 1, 60, 50
3, 62976, Note_off_c, 1, 60, 0
3, 62976, Note_on_c, 1, 41, 50
3, 63168, Note_off_c, 1, 41, 0
3, 63168, Note_on_c, 1, 55, 50
3, 63264, Note_off_c, 1, 55, 0
3, 63264, Note_on_c, 1, 57, 50
3, 63456, Note_off_c, 1, 57, 0
3, 63456, Note_on_c, 1, 60, 50
3, 63552, Note_off_c, 1, 60, 0
3, 63552, Note_on_c, 1, 57, 50
3, 63744, Note_off_c, 1, 57, 0
3, 63744, Note_on_c, 1, 43, 50
3, 63936, Note_off_c, 1, 43, 0
3, 63936, Note_on_c, 1, 55, 50
3, 64032, Note_off_c, 1, 55, 0
3, 64032, Note_on_c, 1, 57, 50
3, 64224, Note_off_c, 1, 57, 0
3, 64224, Note_on_c, 1, 59, 50
3, 64320, Note_off_c, 1, 59, 0
3, 64320, Note_on_c, 1, 55, 50
3, 64512, Note_off_c, 1, 55, 0
3, 64512, Note_on_c, 1, 48, 50
3, 64704, Note_off_c, 1, 48, 0
3, 64704, Note_on_c, 1, 55, 50
3, 64800, Note_off_c, 1, 55, 0
3, 64800, Note_on_c, 1, 60, 50
3, 64992, Note_off_c, 1, 60, 0
3, 64992, Note_on_c, 1, 62, 50
3, 65088, Note_off_c, 1, 62, 0
3, 65088, Note_on_c, 1, 60, 50
3, 65280, Note_off_c, 1, 60, 0
3, 65280, Note_on_c, 1, 45, 50
3, 65472, Note_off_c, 1, 45, 0
3, 65472, Note_on_c, 1, 57, 50
3, 65568, Note_off_c, 1, 57, 0
3, 65568, Note_on_c, 1, 60, 50
3, 65760, Note_off_c, 1, 60, 0
3, 65760, Note_on_c, 1, 62, 50
3, 65856, Note_off_c, 1, 62, 0
3, 65856, Note_on_c, 1, 60, 50
3, 66048, Note_off_c, 1, 60, 0
3, 66048, Note_on_c, 1, 41, 50
3, 66240, Note_off_c, 1, 41, 0
3, 66240, Note_on_c, 1, 55, 50
3, 66336, Note_off_c, 1, 55, 0
3, 66336, Note_on_c, 1, 57, 50
3, 66528, Note_off_c, 1, 57, 0
3, 66528, Note_on_c, 1, 60, 50
3, 66624, Note_off_c, 1, 60, 0
3, 66624, Note_on_c, 1, 57, 50
3, 66816, Note_off_c, 1, 57, 0
3, 66816, Note_on_c, 1, 43, 50
3, 67008, Note_off_c, 1, 43, 0
3, 67008, Note_on_c, 1, 55, 50
3, 67104, Note_off_c, 1, 55, 0
3, 67104, Note_on_c, 1, 57, 50
3, 67296, Note_off_c, 1, 57, 0
3, 67296, Note_on_c, 1, 59, 50
3, 67392, Note_off_c, 1, 59, 0
3, 67392, Note_on_c, 1, 55, 50
3, 67584, Note_off_c, 1, 55, 0
3, 67584, Note_on_c, 1, 48, 50
3, 67776, Note_off_c, 1, 48, 0
3, 67776, Note_on_c, 1, 55, 50
3, 67872, Note_off_c, 1, 55, 0
3, 67872, Note_on_c, 1, 60, 50
3, 68064, Note_off_c, 1, 60, 0
3, 68064, Note_on_c, 1, 62, 50
3, 68160, Note_off_c, 1, 62, 0
3, 68160, Note_on_c, 1, 60, 50
3, 68352, Note_off_c, 1, 60, 0
3, 68352, Note_on_c, 1, 45, 50
3, 68544, Note_off_c, 1, 45, 0
3, 68544, Note_on_c, 1, 57, 50
3, 68640, Note_off_c, 1, 57, 0
3, 68640, Note_on_c, 1, 60, 50
3, 68832, Note_off_c, 1, 60, 0
3, 68832, Note_on_c, 1, 62, 50
3, 68928, Note_off_c, 1, 62, 0
3, 68928, Note_on_c, 1, 60, 50
3, 69120, Note_off_c, 1, 60, 0
3, 69120, Note_on_c, 1, 41, 50
3, 69312, Note_off_c, 1, 41, 0
3, 69312, Note_on_c, 1, 45, 50
3, 69408, Note_off_c, 1, 45, 0
3, 69408, Note_on_c, 1, 50, 50
3, 69600, Note_off_c, 1, 50, 0
3, 69600, Note_on_c, 1, 53, 50
3, 69888, Note_off_c, 1, 53, 0
3, 69888, Note_on_c, 1, 43, 50
3, 69939, Note_on_c, 1, 47, 50
3, 69990, Note_on_c, 1, 50, 50
3, 70042, Note_on_c, 1, 55, 50
3, 70611, Note_off_c, 1, 47, 0
3, 70618, Note_off_c, 1, 55, 0
3, 70656, Note_off_c, 1, 43, 0
3, 70656, Note_on_c, 1, 57, 50
3, 70662, Note_off_c, 1, 50, 0
3, 70848, Note_off_c, 1, 57, 0
3, 70848, Note_on_c, 1, 60, 50
3, 71040, Note_off_c, 1, 60, 0
3, 71040, Note_on_c, 1, 64, 50
3, 71232, Note_off_c, 1, 64, 0
3, 71232, Note_on_c, 1, 67, 50
3, 72096, Note_off_c, 1, 67, 0
3, 72192, Note_on_c, 1, 57, 50
3, 72384, Note_off_c, 1, 57, 0
3, 72384, Note_on_c, 1, 60, 50
3, 72576, Note_off_c, 1, 60, 0
3, 72576, Note_on_c, 1, 65, 50
3, 72768, Note_off_c, 1, 65, 0
3, 72768, Note_on_c, 1, 67, 50
3, 73152, Note_off_c, 1, 67, 0
3, 73152, Note_on_c, 1, 62, 50
3, 73344, Note_off_c, 1, 62, 0
3, 73344, Note_on_c, 1, 67, 50
3, 73728, Note_off_c, 1, 67, 0
3, 73728, Note_on_c, 1, 76, 50
3, 73728, Note_on_c, 1, 60, 50
3, 73920, Note_off_c, 1, 76, 0
3, 73920, Note_on_c, 1, 72, 50
3, 74112, Note_off_c, 1, 72, 0
3, 74112, Note_on_c, 1, 67, 50
3, 74496, Note_off_c, 1, 67, 0
3, 74496, Note_off_c, 1, 60, 0
3, 74496, Note_on_c, 1, 57, 50
3, 75264, Note_off_c, 1, 57, 0
3, 75264, Note_on_c, 1, 53, 50
3, 76032, Note_off_c, 1, 53, 0
3, 76032, Note_on_c, 1, 55, 50
3, 76800, Note_off_c, 1, 55, 0
3, 76800, Note_on_c, 1, 55, 50
3, 76992, Note_off_c, 1, 55, 0
3, 76992, Note_on_c, 1, 60, 50
3, 77184, Note_off_c, 1, 60, 0
3, 77184, Note_on_c, 1, 64, 50
3, 77376, Note_off_c, 1, 64, 0
3, 77376, Note_on_c, 1, 67, 50
3, 77568, Note_off_c, 1, 67, 0
3, 77568, Note_on_c, 1, 57, 50
3, 78336, Note_off_c, 1, 57, 0
3, 78336, Note_on_c, 1, 53, 50
3, 78528, Note_off_c, 1, 53, 0
3, 78528, Note_on_c, 1, 60, 50
3, 78720, Note_off_c, 1, 60, 0
3, 78720, Note_on_c, 1, 65, 50
3, 78912, Note_off_c, 1, 65, 0
3, 78912, Note_on_c, 1, 67, 50
3, 79104, Note_off_c, 1, 67, 0
3, 79104, Note_on_c, 1, 55, 50
3, 79296, Note_off_c, 1, 55, 0
3, 79296, Note_on_c, 1, 62, 50
3, 79488, Note_off_c, 1, 62, 0
3, 79488, Note_on_c, 1, 67, 50
3, 79872, Note_off_c, 1, 67, 0
3, 79872, Note_on_c, 1, 67, 50
3, 79872, Note_on_c, 1, 60, 50
3, 80064, Note_off_c, 1, 67, 0
3, 80064, Note_on_c, 1, 72, 50
3, 80256, Note_off_c, 1, 72, 0
3, 80256, Note_on_c, 1, 67, 50
3, 80640, Note_off_c, 1, 60, 0
3, 80640, Note_off_c, 1, 67, 0
3, 80640, Note_on_c, 1, 57, 50
3, 81408, Note_off_c, 1, 57, 0
3, 81408, Note_on_c, 1, 57, 50
3, 82176, Note_off_c, 1, 57, 0
3, 82176, Note_on_c, 1, 59, 50
3, 82944, Note_off_c, 1, 59, 0
3, 82944, Note_on_c, 1, 57, 50
3, 82944, Note_on_c, 1, 48, 50
3, 82944, Note_on_c, 1, 53, 50
3, 83712, Note_off_c, 1, 53, 0
3, 83712, Note_off_c, 1, 48, 0
3, 83712, Note_off_c, 1, 57, 0
3, 83712, Note_on_c, 1, 50, 50
3, 83712, Note_on_c, 1, 55, 50
3, 83712, Note_on_c, 1, 59, 50
3, 84480, Note_off_c, 1, 59, 0
3, 84480, Note_off_c, 1, 50, 0
3, 84480, Note_off_c, 1, 55, 0
3, 84480, Note_on_c, 1, 57, 50
3, 84480, Note_on_c, 1, 48, 50
3, 84480, Note_on_c, 1, 53, 50
3, 85248, Note_off_c, 1, 57, 0
3, 85248, Note_off_c, 1, 53, 0
3, 85248, Note_off_c, 1, 48, 0
3, 85248, Note_on_c, 1, 55, 50
3, 85248, Note_on_c, 1, 59, 50
3, 85248, Note_on_c, 1, 50, 50
3, 86016, Note_off_c, 1, 50, 0
3, 86016, Note_off_c, 1, 59, 0
3, 86016, Note_off_c, 1, 55, 0
3, 86016, Note_on_c, 1, 48, 50
3, 86208, Note_off_c, 1, 48, 0
3, 86208, Note_on_c, 1, 55, 50
3, 86304, Note_off_c, 1, 55, 0
3, 86304, Note_on_c, 1, 60, 50
3, 86400, Note_off_c, 1, 60, 0
3, 86400, Note_on_c, 1, 55, 50
3, 86592, Note_off_c, 1, 55, 0
3, 86592, Note_on_c, 1, 57, 50
3, 86784, Note_off_c, 1, 57, 0
3, 86784, Note_on_c, 1, 45, 50
3, 86976, Note_off_c, 1, 45, 0
3, 86976, Note_on_c, 1, 57, 50
3, 87072, Note_off_c, 1, 57, 0
3, 87072, Note_on_c, 1, 60, 50
3, 87168, Note_off_c, 1, 60, 0
3, 87168, Note_on_c, 1, 55, 50
3, 87264, Note_off_c, 1, 55, 0
3, 87264, Note_on_c, 1, 64, 50
3, 87360, Note_off_c, 1, 64, 0
3, 87360, Note_on_c, 1, 60, 50
3, 87552, Note_off_c, 1, 60, 0
3, 87552, Note_on_c, 1, 41, 50
3, 87744, Note_off_c, 1, 41, 0
3, 87744, Note_on_c, 1, 50, 50
3, 87840, Note_off_c, 1, 50, 0
3, 87840, Note_on_c, 1, 53, 50
3, 88032, Note_off_c, 1, 53, 0
3, 88032, Note_on_c, 1, 57, 50
3, 88128, Note_off_c, 1, 57, 0
3, 88128, Note_on_c, 1, 53, 50
3, 88320, Note_off_c, 1, 53, 0
3, 88320, Note_on_c, 1, 43, 50
3, 88512, Note_off_c, 1, 43, 0
3, 88512, Note_on_c, 1, 55, 50
3, 88704, Note_off_c, 1, 55, 0
3, 88704, Note_on_c, 1, 53, 50
3, 88800, Note_off_c, 1, 53, 0
3, 88800, Note_on_c, 1, 52, 50
3, 88896, Note_off_c, 1, 52, 0
3, 88896, Note_on_c, 1, 50, 50
3, 89088, Note_off_c, 1, 50, 0
3, 89088, Note_on_c, 1, 48, 50
3, 89280, Note_off_c, 1, 48, 0
3, 89280, Note_on_c, 1, 55, 50
3, 89376, Note_off_c, 1, 55, 0
3, 89376, Note_on_c, 1, 60, 50
3, 89472, Note_off_c, 1, 60, 0
3, 89472, Note_on_c, 1, 55, 50
3, 89664, Note_off_c, 1, 55, 0
3, 89664, Note_on_c, 1, 57, 50
3, 89856, Note_off_c, 1, 57, 0
3, 89856, Note_on_c, 1, 45, 50
3, 90048, Note_off_c, 1, 45, 0
3, 90048, Note_on_c, 1, 57, 50
3, 90144, Note_off_c, 1, 57, 0
3, 90144, Note_on_c, 1, 60, 50
3, 90240, Note_off_c, 1, 60, 0
3, 90240, Note_on_c, 1, 55, 50
3, 90336, Note_off_c, 1, 55, 0
3, 90336, Note_on_c, 1, 64, 50
3, 90432, Note_off_c, 1, 64, 0
3, 90432, Note_on_c, 1, 60, 50
3, 90624, Note_off_c, 1, 60, 0
3, 90624, Note_on_c, 1, 41, 50
3, 90816, Note_off_c, 1, 41, 0
3, 90816, Note_on_c, 1, 50, 50
3, 90912, Note_off_c, 1, 50, 0
3, 90912, Note_on_c, 1, 53, 50
3, 91104, Note_off_c, 1, 53, 0
3, 91104, Note_on_c, 1, 57, 50
3, 91200, Note_off_c, 1, 57, 0
3, 91200, Note_on_c, 1, 53, 50
3, 91392, Note_off_c, 1, 53, 0
3, 91392, Note_on_c, 1, 43, 50
3, 91584, Note_off_c, 1, 43, 0
3, 91584, Note_on_c, 1, 55, 50
3, 91680, Note_off_c, 1, 55, 0
3, 91680, Note_on_c, 1, 60, 50
3, 91968, Note_off_c, 1, 60, 0
3, 91968, Note_on_c, 1, 50, 50
3, 92160, Note_off_c, 1, 50, 0
3, 92160, Note_on_c, 1, 48, 50
3, 92352, Note_off_c, 1, 48, 0
3, 92352, Note_on_c, 1, 55, 50
3, 92448, Note_off_c, 1, 55, 0
3, 92448, Note_on_c, 1, 60, 50
3, 92544, Note_off_c, 1, 60, 0
3, 92544, Note_on_c, 1, 55, 50
3, 92736, Note_off_c, 1, 55, 0
3, 92736, Note_on_c, 1, 57, 50
3, 92928, Note_off_c, 1, 57, 0
3, 92928, Note_on_c, 1, 45, 50
3, 93120, Note_off_c, 1, 45, 0
3, 93120, Note_on_c, 1, 57, 50
3, 93216, Note_off_c, 1, 57, 0
3, 93216, Note_on_c, 1, 60, 50
3, 93312, Note_off_c, 1, 60, 0
3, 93312, Note_on_c, 1, 55, 50
3, 93408, Note_off_c, 1, 55, 0
3, 93408, Note_on_c, 1, 64, 50
3, 93504, Note_off_c, 1, 64, 0
3, 93504, Note_on_c, 1, 60, 50
3, 93696, Note_off_c, 1, 60, 0
3, 93696, Note_on_c, 1, 41, 50
3, 93888, Note_off_c, 1, 41, 0
3, 93888, Note_on_c, 1, 50, 50
3, 93984, Note_off_c, 1, 50, 0
3, 93984, Note_on_c, 1, 53, 50
3, 94176, Note_off_c, 1, 53, 0
3, 94176, Note_on_c, 1, 57, 50
3, 94272, Note_off_c, 1, 57, 0
3, 94272, Note_on_c, 1, 53, 50
3, 94464, Note_off_c, 1, 53, 0
3, 94464, Note_on_c, 1, 43, 50
3, 94656, Note_off_c, 1, 43, 0
3, 94656, Note_on_c, 1, 55, 50
3, 94848, Note_off_c, 1, 55, 0
3, 94848, Note_on_c, 1, 53, 50
3, 94944, Note_off_c, 1, 53, 0
3, 94944, Note_on_c, 1, 52, 50
3, 95040, Note_off_c, 1, 52, 0
3, 95040, Note_on_c, 1, 50, 50
3, 95232, Note_off_c, 1, 50, 0
3, 95232, Note_on_c, 1, 48, 50
3, 95424, Note_off_c, 1, 48, 0
3, 95424, Note_on_c, 1, 55, 50
3, 95520, Note_off_c, 1, 55, 0
3, 95520, Note_on_c, 1, 60, 50
3, 95616, Note_off_c, 1, 60, 0
3, 95616, Note_on_c, 1, 55, 50
3, 95808, Note_off_c, 1, 55, 0
3, 95808, Note_on_c, 1, 57, 50
3, 96000, Note_off_c, 1, 57, 0
3, 96000, Note_on_c, 1, 45, 50
3, 96192, Note_off_c, 1, 45, 0
3, 96192, Note_on_c, 1, 57, 50
3, 96288, Note_off_c, 1, 57, 0
3, 96288, Note_on_c, 1, 60, 50
3, 96384, Note_off_c, 1, 60, 0
3, 96384, Note_on_c, 1, 55, 50
3, 96480, Note_off_c, 1, 55, 0
3, 96480, Note_on_c, 1, 64, 50
3, 96576, Note_off_c, 1, 64, 0
3, 96576, Note_on_c, 1, 60, 50
3, 96768, Note_off_c, 1, 60, 0
3, 96768, Note_on_c, 1, 41, 50
3, 96960, Note_off_c, 1, 41, 0
3, 96960, Note_on_c, 1, 55, 50
3, 97056, Note_off_c, 1, 55, 0
3, 97056, Note_on_c, 1, 57, 50
3, 97248, Note_off_c, 1, 57, 0
3, 97248, Note_on_c, 1, 60, 50
3, 97344, Note_off_c, 1, 60, 0
3, 97344, Note_on_c, 1, 57, 50
3, 97536, Note_off_c, 1, 57, 0
3, 97536, Note_on_c, 1, 43, 50
3, 97728, Note_off_c, 1, 43, 0
3, 97728, Note_on_c, 1, 55, 50
3, 97824, Note_off_c, 1, 55, 0
3, 97824, Note_on_c, 1, 60, 50
3, 98112, Note_off_c, 1, 60, 0
3, 98112, Note_on_c, 1, 50, 50
3, 98304, Note_off_c, 1, 50, 0
3, 98304, Note_on_c, 1, 41, 50
3, 98496, Note_off_c, 1, 41, 0
3, 98496, Note_on_c, 1, 50, 50
3, 98592, Note_off_c, 1, 50, 0
3, 98592, Note_on_c, 1, 53, 50
3, 98880, Note_off_c, 1, 53, 0
3, 98880, Note_on_c, 1, 57, 50
3, 98880, Note_on_c, 1, 60, 50
3, 98880, Note_on_c, 1, 52, 50
3, 99744, Note_off_c, 1, 52, 0
3, 99744, Note_off_c, 1, 60, 0
3, 99744, Note_off_c, 1, 57, 0
3, 99840, Note_on_c, 1, 60, 50
3, 99840, Note_on_c, 1, 64, 50
3, 99840, Note_on_c, 1, 67, 50
3, 100224, Note_off_c, 1, 67, 0
3, 100224, Note_off_c, 1, 64, 0
3, 100224, Note_off_c, 1, 60, 0
3, 100416, Note_on_c, 1, 62, 50
3, 100416, Note_on_c, 1, 59, 50
3, 100416, Note_on_c, 1, 67, 50
3, 101280, Note_off_c, 1, 59, 0
3, 101280, Note_off_c, 1, 62, 0
3, 101280, Note_off_c, 1, 67, 0
3, 101376, Note_on_c, 1, 57, 50
3, 101376, Note_on_c, 1, 65, 50
3, 101376, Note_on_c, 1, 62, 50
3, 101760, Note_off_c, 1, 62, 0
3, 101760, Note_off_c, 1, 65, 0
3, 101760, Note_off_c, 1, 57, 0
3, 101952, Note_on_c, 1, 57, 50
3, 101952, Note_on_c, 1, 60, 50
3, 101952, Note_on_c, 1, 65, 50
3, 102816, Note_off_c, 1, 65, 0
3, 102816, Note_off_c, 1, 60, 0
3, 102816, Note_off_c, 1, 57, 0
3, 103680, Note_on_c, 1, 65, 50
3, 103680, Note_on_c, 1, 62, 50
3, 103680, Note_on_c, 1, 57, 50
3, 104256, Note_off_c, 1, 62, 0
3, 104256, Note_off_c, 1, 65, 0
3, 104256, Note_off_c, 1, 57, 0
3, 104256, Note_on_c, 1, 55, 50
3, 104256, Note_on_c, 1, 60, 50
3, 104256, Note_on_c, 1, 64, 50
3, 104448, Note_off_c, 1, 64, 0
3, 104448, Note_off_c, 1, 60, 0
3, 104448, Note_off_c, 1, 55, 0
3, 104448, Note_on_c, 1, 48, 50
3, 104640, Note_off_c, 1, 48, 0
3, 104640, Note_on_c, 1, 55, 50
3, 104736, Note_off_c, 1, 55, 0
3, 104736, Note_on_c, 1, 60, 50
3, 104928, Note_off_c, 1, 60, 0
3, 104928, Note_on_c, 1, 62, 50
3, 105024, Note_off_c, 1, 62, 0
3, 105024, Note_on_c, 1, 60, 50
3, 105216, Note_off_c, 1, 60, 0
3, 105216, Note_on_c, 1, 45, 50
3, 105408, Note_off_c, 1, 45, 0
3, 105408, Note_on_c, 1, 57, 50
3, 105504, Note_off_c, 1, 57, 0
3, 105504, Note_on_c, 1, 60, 50
3, 105696, Note_off_c, 1, 60, 0
3, 105696, Note_on_c, 1, 62, 50
3, 105792, Note_off_c, 1, 62, 0
3, 105792, Note_on_c, 1, 60, 50
3, 105984, Note_off_c, 1, 60, 0
3, 105984, Note_on_c, 1, 41, 50
3, 106176, Note_off_c, 1, 41, 0
3, 106176, Note_on_c, 1, 55, 50
3, 106272, Note_off_c, 1, 55, 0
3, 106272, Note_on_c, 1, 57, 50
3, 106464, Note_off_c, 1, 57, 0
3, 106464, Note_on_c, 1, 60, 50
3, 106560, Note_off_c, 1, 60, 0
3, 106560, Note_on_c, 1, 57, 50
3, 106752, Note_off_c, 1, 57, 0
3, 106752, Note_on_c, 1, 43, 50
3, 106944, Note_off_c, 1, 43, 0
3, 106944, Note_on_c, 1, 55, 50
3, 107040, Note_off_c, 1, 55, 0
3, 107040, Note_on_c, 1, 57, 50
3, 107232, Note_off_c, 1, 57, 0
3, 107232, Note_on_c, 1, 59, 50
3, 107328, Note_off_c, 1, 59, 0
3, 107328, Note_on_c, 1, 55, 50
3, 107520, Note_off_c, 1, 55, 0
3, 107520, Note_on_c, 1, 48, 50
3, 107712, Note_off_c, 1, 48, 0
3, 107712, Note_on_c, 1, 55, 50
3, 107808, Note_off_c, 1, 55, 0
3, 107808, Note_on_c, 1, 60, 50
3, 108000, Note_off_c, 1, 60, 0
3, 108000, Note_on_c, 1, 62, 50
3, 108096, Note_off_c, 1, 62, 0
3, 108096, Note_on_c, 1, 60, 50
3, 108288, Note_off_c, 1, 60, 0
3, 108288, Note_on_c, 1, 45, 50
3, 108480, Note_off_c, 1, 45, 0
3, 108480, Note_on_c, 1, 57, 50
3, 108576, Note_off_c, 1, 57, 0
3, 108576, Note_on_c, 1, 60, 50
3, 108768, Note_off_c, 1, 60, 0
3, 108768, Note_on_c, 1, 62, 50
3, 108864, Note_off_c, 1, 62, 0
3, 108864, Note_on_c, 1, 60, 50
3, 109056, Note_off_c, 1, 60, 0
3, 109056, Note_on_c, 1, 41, 50
3, 109248, Note_off_c, 1, 41, 0
3, 109248, Note_on_c, 1, 55, 50
3, 109344, Note_off_c, 1, 55, 0
3, 109344, Note_on_c, 1, 57, 50
3, 109536, Note_off_c, 1, 57, 0
3, 109536, Note_on_c, 1, 60, 50
3, 109632, Note_off_c, 1, 60, 0
3, 109632, Note_on_c, 1, 57, 50
3, 109824, Note_off_c, 1, 57, 0
3, 109824, Note_on_c, 1, 43, 50
3, 110016, Note_off_c, 1, 43, 0
3, 110016, Note_on_c, 1, 55, 50
3, 110208, Note_off_c, 1, 55, 0
3, 110208, Note_on_c, 1, 57, 50
3, 110400, Note_off_c, 1, 57, 0
3, 110400, Note_on_c, 1, 59, 50
3, 110592, Note_off_c, 1, 59, 0
3, 110592, Note_on_c, 1, 48, 50
3, 110643, Note_on_c, 1, 52, 50
3, 110693, Note_on_c, 1, 55, 50
3, 112083, Note_off_c, 1, 52, 0
3, 112128, Note_off_c, 1, 48, 0
3, 112133, Note_off_c, 1, 55, 0
3, 112133, End_track
0, 0, End_of_file
